<svg xmlns="http://www.w3.org/2000/svg" viewBox="0 0 99.4 151.6" style="enable-background:new 0 0 99.4 151.6" xml:space="preserve"><style>.st1{fill-rule:evenodd;clip-rule:evenodd}.st1,.st2{fill:#e52529}.st3{fill:#231f20}.st4{fill-rule:evenodd;fill:#db4634}.st4,.st5{clip-rule:evenodd}.st5{fill-rule:evenodd;fill:#0d4f9e}.st6{fill-rule:evenodd;fill:#030405}.st6,.st7{clip-rule:evenodd}.st7{fill-rule:evenodd;fill:#231f20}.st8{fill:#0d4f9e}.st9{fill-rule:evenodd;clip-rule:evenodd;fill:#fff}</style><g id="Calque_2"><path id="XMLID_15_" d="M99.3 5.3v140.9c0 2.9-2.3 5.2-5.2 5.2H5.3c-2.9 0-5.2-2.3-5.2-5.2V5.3C.1 2.4 2.4.1 5.3.1H94c2.9 0 5.3 2.4 5.3 5.2z" style="fill:#fff;stroke:#000;stroke-width:.25;stroke-miterlimit:2.6131"/></g><g id="Calque_1"><path class="st1" d="M552.8 134.6c-3.2-4.4-4.1-8-4.1-8s-.9 3.7-4.1 8c-3.2 4.4-6.2 5.6-6.2 5.6s3 1.2 6.2 5.6c3.2 4.4 4.1 8 4.1 8s.9-3.7 4.1-8c3.2-4.4 6.2-5.6 6.2-5.6s-2.9-1.3-6.2-5.6zM510.8 134.6c-3.2-4.4-4.1-8-4.1-8s-.9 3.7-4.1 8c-3.2 4.4-6.2 5.6-6.2 5.6s3 1.2 6.2 5.6c3.2 4.4 4.1 8 4.1 8s.9-3.7 4.1-8c3.2-4.4 6.2-5.6 6.2-5.6s-3-1.3-6.2-5.6zM531.8 177.1c-3.2-4.4-4.1-8-4.1-8s-.9 3.7-4.1 8c-3.2 4.4-6.2 5.6-6.2 5.6s3 1.2 6.2 5.6c3.2 4.4 4.1 8 4.1 8s.9-3.7 4.1-8c3.2-4.4 6.2-5.6 6.2-5.6s-3-1.2-6.2-5.6zM552.8 219.7c-3.2-4.4-4.1-8-4.1-8s-.9 3.7-4.1 8c-3.2 4.4-6.2 5.6-6.2 5.6s3 1.2 6.2 5.6c3.2 4.4 4.1 8 4.1 8s.9-3.7 4.1-8c3.2-4.4 6.2-5.6 6.2-5.6s-2.9-1.3-6.2-5.6zM510.8 219.7c-3.2-4.4-4.1-8-4.1-8s-.9 3.7-4.1 8c-3.2 4.4-6.2 5.6-6.2 5.6s3 1.2 6.2 5.6c3.2 4.4 4.1 8 4.1 8s.9-3.7 4.1-8c3.2-4.4 6.2-5.6 6.2-5.6s-3-1.3-6.2-5.6z"/><path class="st2" d="M486.7 117.5h7.8v1.8h-6l-.2 3s2.8-1.6 5.5.7c.5.4 2.9 2.9 1.4 7.8-.3 1-2 3.6-5.6 3.1-.2 0-2.9-.7-3.9-3.7l1.7-.4s1.3 2.7 3.1 2.5c.9-.1 3.3-.7 3.2-4.6 0-.3 0-3.7-2.9-4.2-1-.2-2.2 0-3.9 1.7l-.8-.5.6-7.2zM568.8 247.8h-7.9V246h6l.2-3s-2.8 1.6-5.5-.7c-.5-.4-2.9-2.9-1.4-7.8.3-1 2-3.6 5.6-3.1.2 0 2.9.7 3.9 3.7l-1.7.4s-1.3-2.7-3.1-2.5c-.9.1-3.3.7-3.2 4.6 0 .3 0 3.7 2.9 4.2 1 .2 2.2 0 3.9-1.7l.8.5-.5 7.2zM490.8 137.7s1.4 4.5 4.7 6.3c0 0-3.2 1.7-4.7 6.2-1.5-4.6-4.7-6.2-4.7-6.2 3.3-1.8 4.7-6.3 4.7-6.3zM564.7 227.6s-1.4-4.5-4.7-6.3c0 0 3.2-1.7 4.7-6.2 1.5 4.6 4.7 6.2 4.7 6.2-3.3 1.8-4.7 6.3-4.7 6.3z"/><path class="st1" d="M552.8 134.6c-3.2-4.4-4.1-8-4.1-8s-.9 3.7-4.1 8c-3.2 4.4-6.2 5.6-6.2 5.6s3 1.2 6.2 5.6c3.2 4.4 4.1 8 4.1 8s.9-3.7 4.1-8c3.2-4.4 6.2-5.6 6.2-5.6s-2.9-1.3-6.2-5.6zM510.8 134.6c-3.2-4.4-4.1-8-4.1-8s-.9 3.7-4.1 8c-3.2 4.4-6.2 5.6-6.2 5.6s3 1.2 6.2 5.6c3.2 4.4 4.1 8 4.1 8s.9-3.7 4.1-8c3.2-4.4 6.2-5.6 6.2-5.6s-3-1.3-6.2-5.6zM531.8 177.1c-3.2-4.4-4.1-8-4.1-8s-.9 3.7-4.1 8c-3.2 4.4-6.2 5.6-6.2 5.6s3 1.2 6.2 5.6c3.2 4.4 4.1 8 4.1 8s.9-3.7 4.1-8c3.2-4.4 6.2-5.6 6.2-5.6s-3-1.2-6.2-5.6zM552.8 219.7c-3.2-4.4-4.1-8-4.1-8s-.9 3.7-4.1 8c-3.2 4.4-6.2 5.6-6.2 5.6s3 1.2 6.2 5.6c3.2 4.4 4.1 8 4.1 8s.9-3.7 4.1-8c3.2-4.4 6.2-5.6 6.2-5.6s-2.9-1.3-6.2-5.6zM510.8 219.7c-3.2-4.4-4.1-8-4.1-8s-.9 3.7-4.1 8c-3.2 4.4-6.2 5.6-6.2 5.6s3 1.2 6.2 5.6c3.2 4.4 4.1 8 4.1 8s.9-3.7 4.1-8c3.2-4.4 6.2-5.6 6.2-5.6s-3-1.3-6.2-5.6z"/><path class="st2" d="M486.7 117.5h7.8v1.8h-6l-.2 3s2.8-1.6 5.5.7c.5.4 2.9 2.9 1.4 7.8-.3 1-2 3.6-5.6 3.1-.2 0-2.9-.7-3.9-3.7l1.7-.4s1.3 2.7 3.1 2.5c.9-.1 3.3-.7 3.2-4.6 0-.3 0-3.7-2.9-4.2-1-.2-2.2 0-3.9 1.7l-.8-.5.6-7.2zM568.8 247.8h-7.9V246h6l.2-3s-2.8 1.6-5.5-.7c-.5-.4-2.9-2.9-1.4-7.8.3-1 2-3.6 5.6-3.1.2 0 2.9.7 3.9 3.7l-1.7.4s-1.3-2.7-3.1-2.5c-.9.1-3.3.7-3.2 4.6 0 .3 0 3.7 2.9 4.2 1 .2 2.2 0 3.9-1.7l.8.5-.5 7.2zM490.8 137.7s1.4 4.5 4.7 6.3c0 0-3.2 1.7-4.7 6.2-1.5-4.6-4.7-6.2-4.7-6.2 3.3-1.8 4.7-6.3 4.7-6.3zM564.7 227.6s-1.4-4.5-4.7-6.3c0 0 3.2-1.7 4.7-6.2 1.5 4.6 4.7 6.2 4.7 6.2-3.3 1.8-4.7 6.3-4.7 6.3z"/><path class="st1" d="M552.8 134.6c-3.2-4.4-4.1-8-4.1-8s-.9 3.7-4.1 8c-3.2 4.4-6.2 5.6-6.2 5.6s3 1.2 6.2 5.6c3.2 4.4 4.1 8 4.1 8s.9-3.7 4.1-8c3.2-4.4 6.2-5.6 6.2-5.6s-2.9-1.3-6.2-5.6zM510.8 134.6c-3.2-4.4-4.1-8-4.1-8s-.9 3.7-4.1 8c-3.2 4.4-6.2 5.6-6.2 5.6s3 1.2 6.2 5.6c3.2 4.4 4.1 8 4.1 8s.9-3.7 4.1-8c3.2-4.4 6.2-5.6 6.2-5.6s-3-1.3-6.2-5.6zM531.8 177.1c-3.2-4.4-4.1-8-4.1-8s-.9 3.7-4.1 8c-3.2 4.4-6.2 5.6-6.2 5.6s3 1.2 6.2 5.6c3.2 4.4 4.1 8 4.1 8s.9-3.7 4.1-8c3.2-4.4 6.2-5.6 6.2-5.6s-3-1.2-6.2-5.6zM552.8 219.7c-3.2-4.4-4.1-8-4.1-8s-.9 3.7-4.1 8c-3.2 4.4-6.2 5.6-6.2 5.6s3 1.2 6.2 5.6c3.2 4.4 4.1 8 4.1 8s.9-3.7 4.1-8c3.2-4.4 6.2-5.6 6.2-5.6s-2.9-1.3-6.2-5.6zM510.8 219.7c-3.2-4.4-4.1-8-4.1-8s-.9 3.7-4.1 8c-3.2 4.4-6.2 5.6-6.2 5.6s3 1.2 6.2 5.6c3.2 4.4 4.1 8 4.1 8s.9-3.7 4.1-8c3.2-4.4 6.2-5.6 6.2-5.6s-3-1.3-6.2-5.6z"/><path class="st2" d="M486.7 117.5h7.8v1.8h-6l-.2 3s2.8-1.6 5.5.7c.5.4 2.9 2.9 1.4 7.8-.3 1-2 3.6-5.6 3.1-.2 0-2.9-.7-3.9-3.7l1.7-.4s1.3 2.7 3.1 2.5c.9-.1 3.3-.7 3.2-4.6 0-.3 0-3.7-2.9-4.2-1-.2-2.2 0-3.9 1.7l-.8-.5.6-7.2zM568.8 247.8h-7.9V246h6l.2-3s-2.8 1.6-5.5-.7c-.5-.4-2.9-2.9-1.4-7.8.3-1 2-3.6 5.6-3.1.2 0 2.9.7 3.9 3.7l-1.7.4s-1.3-2.7-3.1-2.5c-.9.1-3.3.7-3.2 4.6 0 .3 0 3.7 2.9 4.2 1 .2 2.2 0 3.9-1.7l.8.5-.5 7.2zM490.8 137.7s1.4 4.5 4.7 6.3c0 0-3.2 1.7-4.7 6.2-1.5-4.6-4.7-6.2-4.7-6.2 3.3-1.8 4.7-6.3 4.7-6.3zM564.7 227.6s-1.4-4.5-4.7-6.3c0 0 3.2-1.7 4.7-6.2 1.5 4.6 4.7 6.2 4.7 6.2-3.3 1.8-4.7 6.3-4.7 6.3z"/><path id="XMLID_266_" class="st3" d="M90.1 111.7c-1.4 1.7-1.1 4.2-1.1 4.2.2-1.2 1.4-1.8 1.8-1.9 1.6-.3 2.4.9 2.5 1.1 1.1 2-.5 3.3-.8 3.5-1.5.9-2.7-.1-2.7-.1-.2 0-.1.2-.1.2 1.2.7 1.3 1.8 1.3 2.2-.3 2.3-2.5 2.3-2.5 2.3s-2.2.1-2.5-2.3c0-.4 0-1.5 1.3-2.2 0 0 .1-.3-.1-.2 0 0-1.2 1.1-2.7.1-.2-.2-1.9-1.4-.8-3.5.1-.2.9-1.4 2.5-1.1.5.1 1.6.8 1.8 1.9 0 0 .3-2.5-1.1-4.2h3.2z"/><path id="XMLID_265_" class="st3" d="M9 39.9c1.4-1.7 1.1-4.2 1.1-4.2-.2 1.2-1.4 1.8-1.8 1.9-1.6.3-2.4-.9-2.5-1.1-1.1-2 .5-3.3.8-3.5 1.5-.9 2.7.1 2.7.1.2 0 .1-.2.1-.2-1.4-.7-1.5-1.8-1.4-2.2.3-2.3 2.5-2.3 2.5-2.3s2.2-.1 2.5 2.3c0 .4 0 1.5-1.3 2.2 0 0-.1.3.1.2 0 0 1.2-1.1 2.7-.1.2.2 1.9 1.4.8 3.5-.1.2-.9 1.4-2.5 1.1-.5-.1-1.6-.8-1.8-1.9 0 0-.3 2.5 1.1 4.2H9z"/><path id="XMLID_264_" class="st3" d="M9.7 7.1v2h2.5v11.1c0 .3-.1.9-.4 1.3-.2.3-.6.6-1.1.7-.6.1-2 .2-2.4-1.3-.1-.5-.1-1.6-.1-1.6H6.1s0 1.6.1 2.2c.2 1 1.4 2.7 4.1 2.7.9 0 3.4-.4 3.8-3.3.1-1.2.1-11.8.1-11.8h2.1v-2H9.7z"/><path id="XMLID_263_" class="st3" d="M90.6 144.5v-2h-2.5v-11.1c0-.3.1-.9.4-1.3.2-.3.6-.6 1.1-.7.6-.1 2-.2 2.4 1.3.1.5.1 1.6.1 1.6h2.1s0-1.6-.1-2.2c-.2-1-1.4-2.7-4.1-2.7-.9 0-3.4.4-3.8 3.3-.1 1.2-.1 11.8-.1 11.8H84v2h6.6z"/><path id="XMLID_262_" class="st4" d="m34.5 114.9-.5 5.8s-1.2-5.3-1.8-5.8c-.6-.5-2.2.8-2.5-1.5-.3-2.2 2.3-1.7 2.5-1.6.1.1 2.3 1.5 2.3 3.1z"/><path id="XMLID_261_" class="st4" d="M36 108.3c-.9 1.7-1.4 3.7-1.5 6.1 0 0-1.4-5.3-1.9-5.5-.5-.2-1.5-.2-1.7-.1-.2 0-1.2-.6-1-1.8.2-1.2 1.5-2.3 1.7-2.3 0 0 2.8.2 3.3 1.4.4 1.4.9 2.2 1.1 2.2z"/><path id="XMLID_260_" class="st5" d="M35.1 110.3s-2.7-5.3-3.4-5.5"/><path id="XMLID_259_" class="st4" d="m64.6 36.7.5-5.8s1.2 5.3 1.8 5.8c.6.5 2.2-.8 2.5 1.5.3 2.2-2.3 1.7-2.5 1.6-.1-.1-2.3-1.5-2.3-3.1z"/><path id="XMLID_258_" class="st4" d="M63.1 43.3c.9-1.7 1.4-3.7 1.5-6.1 0 0 1.4 5.3 1.9 5.5.5.2 1.5.2 1.7.1.2 0 1.2.6 1 1.8-.2 1.2-1.5 2.3-1.7 2.3 0 0-2.8-.2-3.3-1.4-.3-1.4-.9-2.2-1.1-2.2z"/><path id="XMLID_257_" class="st6" d="M29.1 132.3s-1.9-2.5-2.4-4.1c-.5-1.6-1.9-5-1.9-5s-.5-.7.6-.8c1.1-.1 5.9 1 6.9 4.3l-.4.4s-1.1-4.1-6.7-4.2c0 0 2 5.6 2.3 6.1.2.5 1.3 2.9 2 2.8.8 0-.4.5-.4.5z"/><path id="XMLID_256_" class="st4" d="m29.6 131.9 2.4-4.7s-1.1-4.1-6.7-4.2c0 0 2 5.6 2.3 6.1.3.4 1.4 2.8 2 2.8z"/><path id="XMLID_255_" class="st5" d="M30.5 130.2s-.9-.7-1-.8c-.1-.1.7-.3.7-.3s-.8-.7-1.3-.8c-.5-.1.2-.4.3-.4.1 0-1-.8-1.1-.9-.1-.1.1-.4.3-.4.3 0-.3-.4-.6-.5s-.5-.3-.6-.3c-.1 0 0-.4.3-.3.4 0-.4-.4-.7-.5-.3-.1-.4-.3.1-.3.6 0-.3-.7.2-.6.6.1.7-.2.8.3 0 .5.3.4.7.5.3.1.2 1.3.2 1.5 0 .2.6.2.8 0 .2-.2.3.1.3.8.1.6.6.2.7.1.2-.1.2.3.2.7 0 .4.5.4.6.4.2-.1-.9 1.8-.9 1.8z"/><path class="st5" d="M23.2 120.5V43.8l-6.6-6.6v83.3h6.6zm-.4-76.6v76.2h-5.9V38l5.9 5.9z"/><path id="XMLID_252_" class="st7" d="m82.3 113.7-4.9-4.8V31.5h4.9v82.2z"/><path id="XMLID_251_" class="st4" d="m36 108.2-1.3-2.1 2.2.5z"/><path id="XMLID_250_" class="st7" d="M63.8 90.5v20.1l-12.2-7.1-6.1-4.6-9.4 7.5s-5.5-1.7-9.6-4.7c0 0 1.1-6-.4-6.8l2.8-1.9-5.2-12.6V56.6s1.1 5.7 13.4 6.5c0 0 9 2.1 14.4 11.4 0 0 2.9 10.3 14.1 11.9l-1.8 4.1z"/><path id="XMLID_249_" class="st4" d="m21.7 42.8 1.1 1.1v76.2h-1.1z"/><path id="XMLID_248_" class="st5" d="M36.7 107s-5.8-1.6-10.5-5.1c0 0-2.7 2-3.6 1.8-.9-.2-1.8-.1-1.8-.1s-1.5-.2-.9-1.6c.6-1.4 2-1.4 2.4-1.5.4-.1.4-5.6.4-5.6s1.5-.9 3.2-.2l1.8-1.3-1.1-.2.5-.8-1.2-.4.6-.7-1-.4.8-.9-1.4-.3.8-1-1-.1.7-1-1.1-.1.6-1-1-.2.5-.7-.7-.3.5-.8-1-.1.6-.7-.8-.1.4-.7-.4-.7V52.9s7.7 8.5 10.5 14.7c0 0 8.8.9 11.8 7.4l-7.2 4.4s3.3 15.1.8 25.3c0 .2-2.1 2.1-2.2 2.3z"/><path id="XMLID_247_" class="st5" d="M70.2 90.8c.3.5 1.3 2 1.3 2 2.6 3.3 4.5 4.7 4.5 4.7v6.9l-12.6 6.2V90.3l6.8.5z"/><path id="XMLID_246_" class="st7" d="m73.7 123.3-.5.5c1.5.8 2.4 2.3 2.4 4.1 0 2.6-2.1 4.7-4.7 4.7s-4.7-2.1-4.7-4.7c0-1.8 1-3.4 2.5-4.1l-.4-.5c-.8.6-1.7 1-2.8 1-2.4 0-4.4-2-4.4-4.4 0-2.4 2-4.4 4.4-4.4 2.3 0 4.2 1.8 4.4 4h.6c.3-4.2-1.7-7.5-1.7-7.5h4.5c-2.4 2.3-1.7 7.5-1.7 7.5l.6.1c.2-2.3 2.1-4.1 4.4-4.1 2.4 0 4.4 2 4.4 4.4 0 2.4-2 4.4-4.4 4.4-1.2.1-2.2-.3-2.9-1z"/><path id="XMLID_245_" class="st4" d="M46.8 125.7s1.8-9.2 1.8-11.2.8-7.6 3.2-9c0 0 3.2-1.5 4.3.6 0 0 1.1-.1 1.5.8 0 0 1.1.1 1.2.5 0 0 1 0 1.1.4 0 0 1.1 0 1.5.6 0 0 1.1.3 1.3.8 0 0 1 .3 1 .8 0 0 1.3 0 1.3 1.2 0 0 .9 4.5-3.3 3.5 0 0-.4-.4-.6.3-.2.7-1.8 8.7-1.7 9.1l-12.6 1.6z"/><path id="XMLID_244_" class="st8" d="M48.1 125.4s1-4.3 1-5.5c0-.8.3-4.3 1-7.4.4-1.8.9-3.5 1.5-4.4 0 0 .1-.1.2-.3.4-.6 1.1-1.7 1.8-1.7h.2c.4.1.7.3.9.6.2.3.4.7.4 1v.3c0 .2-.1.4-.2.5-.1.2-.3.4-.5.5-.2.1-.4.1-.6.1-.1 0-.2-.1-.3-.1-.6-.4-.5-1.1-.5-1.1h.3s-.1.6.3.8c.1 0 .1.1.2.1s.3 0 .4-.1c.1-.1.3-.2.4-.3.1-.1.1-.3.2-.4v-.2c0-.3-.1-.6-.3-.8-.2-.2-.4-.4-.7-.5h-.2c-.5 0-1.2 1-1.5 1.5 0 .3.1.6.2 1s.3.7.5 1c.2.3.6.4 1 .4.2 0 .5 0 .8-.1 2-.6 1.3-4.1 1.3-4.1l.3-.1s.7 3.8-1.5 4.5c-.2.1-.3.1-.5.1.2.2.5.4.8.4.4 0 .9-.2 1.6-.7 1.3-1 .8-3.3.8-3.3l.3-.1s.5 2.6-1 3.7c-.5.4-.9.6-1.3.7.2.3.5.4.8.4.4 0 .9-.2 1.5-.8 1.2-1.2.8-3.4.8-3.4l.3-.1s.5 2.4-.9 3.8c-.5.5-1 .8-1.4.9 0 .1.1.1.1.2.1.1.3.2.5.2s.5-.1.8-.2c.4-.2.8-.6 1.1-1.1.9-1.5.5-3.3.5-3.3l.3-.1s.4 1.9-.6 3.5c-.4.6-.8 1-1.3 1.2h-.1c.1.1.4.2.6.3.3 0 .7-.1 1.2-.5.1-.1.2-.1.2-.2 1.2-1.2 1-3.7 1-3.7h.3s.2 2.7-1.1 3.9c-.1.1-.2.2-.3.2-.4.3-.7.5-1 .5.3.2.6.4.9.3.3 0 .7-.2 1.1-.4.2-.1.3-.3.5-.4.9-1 .8-3.3.8-3.3h.3s.1 2.4-.9 3.6l-.5.5c-.3.2-.5.3-.8.4l.1.1c.2.2.4.3.5.4.1.1.2.1.4 0 .3-.1.6-.4 1.2-1 1.1-1.2.7-3.2.7-3.2l.3-.1s.4 2.1-.8 3.5c-.6.7-1 1-1.3 1.1-.4.2-.6.1-.7 0-.2-.1-.4-.3-.6-.5 0 0-.1-.1-.1-.2-1.4 1.8-2.2 10.7-2.2 10.8h-.3s.8-8.8 2.2-10.9c-.4 0-.7-.2-1.1-.5l-.2-.2v.1c-.5.3-2.2 11.7-2.2 11.7l-.3-.1s1.6-10.3 2.3-11.8c-.3-.1-.5-.2-.6-.4-.2.1-.4.1-.5.1l.1.1c-.4.3-2.5 12.3-2.5 12.3l-.3-.1s1.9-10.8 2.5-12.4c-.2 0-.4-.1-.5-.3-.1-.1-.2-.2-.2-.4h-.1v.1c-.3 0-.6 1.3-.9 2.6-.3 1.4-.5 2.8-.5 3.2-.1.8-1.3 7.3-1.3 7.3l-.3-.1s1.2-6.5 1.3-7.3c0-.4.2-1.9.5-3.2.2-1.1.5-2.2.9-2.7-.3-.1-.5-.3-.8-.5-.3.3-.6 1.1-.8 2.1-.4 1.8-.7 4.2-.7 5.1 0 1.5-1.1 6.6-1.1 6.6l-.3-.1s1.1-5.1 1.1-6.6c0-.9.3-3.3.7-5.1.2-.9.5-1.7.8-2.1-.3 0-.6-.2-.9-.5-.3.5-.6 1.6-.9 2.9-.5 2.3-.9 5.2-.9 6-.1 1.4-.8 5.4-.8 5.4l-.3-.1s.8-4 .8-5.3c0-.8.4-3.7 1-6.1.3-1.3.6-2.5.9-3-.4-.1-.7-.2-.9-.4-.2.2-.4.8-.6 1.4-.3 1-.6 2.2-.6 2.6 0 .3-.2 1.6-.4 2.9-.2 1.1-.3 2.1-.3 2.4 0 .5-.8 6-.8 6l-.3-.1s.8-5.4.8-5.9c0-.2.2-1.3.3-2.4.2-1.2.4-2.5.4-2.8 0-.4.3-1.6.7-2.7.2-.6.5-1.2.7-1.5-.2-.3-.4-.6-.5-.9-.1-.2-.1-.4-.1-.6-.6.8-1.1 2.4-1.4 4.1-.7 3.1-1 6.6-1 7.3 0 1.2-1 5.5-1 5.5h-.3z"/><path id="XMLID_243_" class="st8" d="M33.5 124.2s.7-7.4.7-8.1c0-1 0-10.6 6.9-12.4.2-.1 3.1-1.2 9.1 3.7l-.2.3c-6.1-4.9-8.8-3.7-8.8-3.7-6.7 1.7-6.7 11.1-6.7 12.1 0 .8-.7 8.1-.7 8.2l-.3-.1z"/><path class="st5" d="M47.1 121s-3.2 1-4.1.6c-.8-.4-2.1-.8-1.9-.1.3.7 2 1.1 2.9 1 .9-.1 3-1 3.1-1.5zm0-1.1s.3.1-.4.5c-2.4.8-4.3.2-4.6 0-.3-.2-1-.9-.8-1 .2-.1.5-.3.2-.7-.3-.3-.3-.7.8-1.5s2.8-1 2.6-.8c-.2.2-1.6.9-1 .9s2.3.5 2.5.8c.2.2 1.4.6 1.4.6l-1.6.8c-1.4.7-3.6.3-3.7.2-.1-.1-1.3-.7-.9 0 .3.6 2 .8 2.6.8.8 0 2.9-.6 2.9-.6zm-1.2-.8s1.1-.3 1.1-.5c0-.3-1.3-.7-1.1-.5.1.2 0 1 0 1zm-.8.1.4-.1c0-.2.1-1.1-1.1-1.2-1.2-.1-1.3 1-1.3 1l.3.2s0-.7.8-.8c.8 0 .9.9.9.9zm-2.3-.3s.5-.9.2-1.1c-.3-.2-.9.4-.9.6 0 .2.7.5.7.5zm-8.5 1.7s.2 1.1 2.3.8c0 0 1.1-.3 1.7-1.3 0 0-2.7.9-3.9-.3l-.1.8zm-.3 1.5.2-3.2s.2-.9.4-1.2c.2-.3 2.4-.4 2.7-.5.3-.1-.7-.8-.9-1.1-.2-.4.7.2 1.1.6.4.4 1 .5 1 .5.5 0-.2-2.4-.6-2.9-.4-.5-.4-1.1-.4-1.1.1-1.5 2.1-1.6 2.1-1.6s-1.2.7-1.3 1.4c-.2.7.5 2.2.7 2.7.2.5.3 1.5.1 3.8-.2 2.3-2.9 2.7-3.6 2.7-.7-.1-1.5-.1-1.5-.1zm4.5-2.8s-.9.8-1.7 1c-.8.2-2.3-.3-2.4-.7 0-.4.4-.2 1.3.1 1 .2 2.8-.4 2.8-.4zm-1.6-.3s.4-.3.4-.4c0-.1-.2-1-1.1-1-.9 0-1.1 1-1.1 1l.4.1s.2-.6.8-.5c.5 0 .6.8.6.8zm1-.2s.5 0 .7-.2c.1-.2-.4-.7-.7-.8-.3-.1-.6.1-.5.2.1.1.5.8.5.8zm4.2-4.7s1.1-1 .4-1.6c-.7-.6-1.5.3-1.6.4-.1.1-.7.5-1 .2-.3-.3-.1-.8.8-1.1.9-.3 1.9-.2 2.2.1.3.3.7.9-.3 2.1 0 0-.3.3-.5.2-.2-.1 0-.3 0-.3zm1.4-4s-1-.6-1.8-.1-.8-.1-.9-.1c-.1 0-.3-.2-.8.1-.5.3-.5.2-.9-.1-.4-.2-.6 0-.9.2h-.3v-1.5s.4.1.5.1c.1.1.9.1 1.4 0 .5-.2 1.2-.4 2.1-.2 1 .2.6.4 1.4.2.8-.1 1-.1.8.1-.1.3-.6 1.3-.6 1.3zm-.9-2.2s-2.3-.6-3.6 0c0 0-.3 0 0-.4.4-.4 1-.5.7-.9-.3-.4.1-.3.4-.1.4.2 1 .2 1.3-.1.3-.3.5-.1.2.2-.3.3.5.7.7.7.2 0 .7.5.3.6zm-6.7.7-1.1-2.3 1.1 2.3z"/><path id="XMLID_228_" class="st5" d="M70.2 90.9v.2l-4.7-.3s-9-.9-15.4-8.4-6.1-11.8-13.8-14l-5.3-.9-1.1-6.7s14.4.5 21.2 11.5c6.4 10.9 12.9 9.5 19.1 18.6z"/><path id="XMLID_227_" class="st4" d="M58.7 106.8s-.7-1.1-1.1-1.5c-.5-.3-1 .1-1.1.3 0 0-1.4-.8-2.1-.8 0 0 .8-1.3.3-1.6s-1.7.1-1.7.1l-1.7-1.5s.8-.8.4-1.2c-.5-.4-1.7.2-1.7.2l-1.4-1.1s.5-1 .2-1.3c-.3-.3-.7-.6-1.7.1l-1.2-.7s.2-1.9-.3-2.2c0 0-.8-.3-.7.7 0 1-.1 1.5-.1 1.5l-.8.7s-1.3-1.5-1.6-.4c-.3 1.1.1 1.3.1 1.3l-1.4 1s-1.3-1.1-1.5-.3l-.1-1.9s1.3 0 1.4.5c.1.5.9-4 3-2.1 0 0 .3-2.4 1.6-2.3 1.3.1 1.7 2.1 1.7 2.3 0 .2 2.6-.8 2.9 1.3 0 0 .1 1.4 0 1.5-.1.1 3.1-1.6 3.2 2.1 0 0 3.3-.9 2.8 2.4 0 0 2.8-1.1 4.2 2.6-.2.8-1.3.5-1.6.3z"/><path id="XMLID_226_" class="st4" d="M59.9 103.1v1.6L45.4 93.6l-5.8 4.2v-1.9l5.6-4z"/><path id="XMLID_225_" class="st4" d="m52.5 105-6.4-4.9-7.3 4.7.5-2.4 6.3-4.3 8.7 6.8z"/><path id="XMLID_224_" class="st5" d="m52.1 105.4-6.1-4.7-4.6 3-1.9.6 6.6-4.5 7 5.4z"/><path id="XMLID_223_" class="st1" d="M55.6 87.1c1.5.9 3 1.6 4.3 2.2v11.3l-4.3-3V87.1z"/><path id="XMLID_222_" class="st5" d="M16.8 120.1v10.3l9.9-10.3z"/><path id="XMLID_221_" class="st4" d="M16.8 120.8v8.4l8.2-8.4z"/><path id="XMLID_220_" class="st1" d="M16.8 121.9v5.5l5.8-5.5z"/><path id="XMLID_219_" class="st9" d="m33.9 105.2.4-.6.8.5-.2.4 2 .7 1.3-1.1.4-2.7-4.4-.6.2-2h1.2v.8l3.2.7.2-4.6-4.1-.3-.1-1.8 1.1-.2.2.9h3.1l-.1-3.8h-4.4v-1.6l1.2-.2v.6h3l-.3-3.9-4.2.5-.3-2.1.9-.2.3.9 3-.4-.5-3.6-4.1.5-.5-2.2 1.2-.2.4.8 2.6-.6-1.2-3.6-3.7.8-.6-1.8.9-.5.4.8 2.6-.7-1.3-3.7-3.9 1.3-.7-1.7.9-.6.5.9 2.7-1-1.8-3.6-3.5 1.8-1.1-1.7 1.1-.5.4.8 2.4-1.4-2.1-3.6-3.3 2-1.1-1.7.8-.6.5.6 2.7-1.5-2.3-2.6-3.2 1.9v.8l2.6-1.7 1.2 1.3-.7.7-.7-.5-2.4 1.7 2.1 3 3.5-2 1.2 1.7-1 .7-.4-.7-2.8 1.4 1.6 3.1 3.9-1.7.8 1.4-.6.5-.5-.6-2.9 1.4 1.2 3.4 4.5-1.4.8 1.9-.9.3-.5-.8-3.4 1 1.1 3.1 4.4-.7.6 1.9-1.1.3-.3-1.1-3.4.8 1 3.9 4.3-.6.5 1.8-1.1.3-.2-.9-3.3.7.6 3.3 4.4-.1.2 1.8-1 .2-.2-.7-3.3.1.3 3.4h4.3v2.1h-1.2v-.8l-3.1-.1.1 4 3.9.3-.1 2.4-1-.1-.1-1.3-2.8.1-.5 3.3 4.1 1-.2 1.6-1 .1-.2-.7-2.7-.8-.2 1.3z"/><path id="XMLID_218_" class="st9" d="M24.8 102.2c-2 1.2-2.5 1-2.6.9-.2-.1-.7.4-.8-.1-.1-.5-.1-1.3-.4-.5-.3.8-.5.6-.8.3-.3-.2-.5-.8.4-1.2 1-.4 1.7-.5 2-.8.3-.3 1.2-1 1-1.4-.2-.4-.8-.5-.7-1.6.1-1.1-.2-3 .8-3 1.1.1 2.7.2 2.8 2.1.2 2.1.8 3.9-1.7 5.3z"/><path id="XMLID_217_" class="st7" d="M27.6 101.9c.3-1 1.1-4.2-.2-7.3.7-.7 2-1.7 3.7-2.2-.7 1-2.2 3.1-1.9 3.3.4.4 1.3 1.1 1.3 1.1L29 98.5l1.6 1.8-1.6 1.3 1 1.6-2.4-1.3z"/><path id="XMLID_216_" class="st7" d="M69.3 107.1V91.3l4 5.4v8.3z"/><path id="XMLID_215_" class="st4" d="M54.7 86.6c-1.6-1.1-3.2-2.5-4.7-4.2-1.9-2.2-3.2-4.2-4.3-5.9v13.3l9 6.8v-10z"/><path id="XMLID_214_" class="st1" d="m39.8 93.5 3.4-2.4.1-14.7-5.2 3.3s1.3 5.3 1.7 13.8z"/><path id="XMLID_213_" class="st1" d="m32.8 90.4-4.4 2.4s-3.1-9.1-5.2-11.7V63.3c.1 0 8.1 10.1 9.6 27.1z"/><path id="XMLID_212_" class="st7" d="m31.5 90-2.1 1.1s-3.4-8.8-5-9.9V68.3c-.1 0 6.2 10.8 7.1 21.7z"/><path class="st7" d="M53.8 86c.1.1.2.2.4.3-.2 2-1.9 3.6-3.9 3.6-2.2 0-4-1.8-4-4 0-2 1.4-3.6 3.3-3.9l.3.3c-.7.1-1.3.3-1.8.7 0 .1.1.2.1.3.5.9 1.2 1.1 1.8.6.2-.2.4-.6.4-1 .1.1.2.2.3.4 0 .6.4 1 .9 1h.1l.6.6c-.1.3 0 .6.2.8.3.1.8.3 1.3.3zm-5.9 2.6c.6.5 1.3.8 2.1.9.3-.9-.1-1.7-.8-1.7-.4 0-.9.3-1.3.8zM46.7 86c0 .8.4 1.6.9 2.2 0 0 .1 0 .1-.1.8-.5 1.1-1.3.6-1.8-.4-.2-1-.4-1.6-.3zm1-2.7c-.6.6-.9 1.3-1 2.2.1 0 .2.1.3.1.9.3 1.7-.1 1.7-.8-.1-.5-.5-1.1-1-1.5zm5.1 5.1c.5-.5.9-1.3 1-2-.9-.2-1.6.1-1.6.9 0 .3.3.7.6 1.1zm-2.4 1.1c.8 0 1.5-.4 2.1-.8-.5-.8-1.2-1-1.7-.5-.3.2-.4.7-.4 1.3zm-3.5-9.2 1.2 1.2H47l-.1-1.2zm6.8 11-1.2-1.2h1.1l.1 1.2zm-2.8-.5v1.7l-.8-.8.8-.9zm2.7 1.3-2-1.8v2.8l2 1.4v-2.4z"/><path id="XMLID_201_" class="st4" d="M31 92.4c-.7 1-2.2 3.1-1.9 3.3.4.4 1.3 1.1 1.3 1.1l-1.5 1.7 1.6 1.8-1.6 1.3 1 1.6 2.2 1.2c1.4-3.2.6-12.5.6-12.5-.5.2-1.1.3-1.7.5z"/><path class="st9" d="m64.3 109.7 2.6-1.4v-.9h-3v2.3h.4zm3.2-1.7v-1.3H64V103h3v1h1v-2h-3.9v-4.3h3v1.1h.8v-2.1H64V93h3v.9h1v-2h-4v-1.8l1.1.3v.9h3.8v3.8h-2.8V94H65v2h3.8v3.9H66V99h-1v1.7h3.8v4h-2.7v-.7h-1v1.7h3.6v1.7l-1.2.6z"/><path id="XMLID_198_" class="st6" d="m32.5 103.7-.9-1.9 1.8-1.7-1.6-2 1.6-1.9-1.7-1.2 1.5-2.5-.1-.7-2.1 3.1 1.6 1.4-1.5 1.7 1.5 2-1.6 1.6 1.4 3.2z"/><path id="XMLID_197_" class="st4" d="M27.4 94.6c1.3 3.1.5 6.3.2 7.3l-1-.6s1.1-4.4.1-5.9c-.1 0 .2-.3.7-.8z"/><path id="XMLID_196_" class="st7" d="m37.6 78.2-1.1-3.8 4.9-3.4 2.7 3.2z"/><path id="XMLID_195_" class="st4" d="M44.1 74.1c.2.3.5.6.7.9L38 79.1l-.3-.9 6.4-4.1z"/><path id="XMLID_194_" class="st4" d="M40.7 70.5c.3.2.5.4.7.6l-5 3.3-.3-1 4.6-2.9z"/><path id="XMLID_193_" class="st4" d="m63.1 43.4 1.3 2.1-2.2-.5z"/><path id="XMLID_192_" class="st7" d="M35.3 61.1V41l12.2 7.1 6.1 4.6 9.4-7.5s5.5 1.7 9.6 4.7c0 0-1.1 6 .4 6.8l-2.8 1.9 5.2 12.6V95s-1.1-5.7-13.4-6.5c0 0-9-2.1-14.4-11.4 0 0-4.1-9.3-15.4-10.9l3.1-5.1z"/><path id="XMLID_191_" class="st4" d="m77.4 108.8-1.1-1.1V31.5h1.1z"/><path id="XMLID_190_" class="st5" d="M62.4 44.6s5.8 1.6 10.5 5.1c0 0 2.6-2 3.6-1.8.9.2 1.8.1 1.8.1s1.5.2.9 1.6c-.6 1.4-2 1.4-2.4 1.5-.4.1-.4 5.6-.4 5.6s-1.5.9-3.2.2l-1.8 1.3 1.1.2-.5.8 1.2.4-.6.7 1 .4-.8.9 1.4.3-.8 1 1 .1-.7 1 1.1.1-.6 1 1 .2-.5.7.7.3-.4.6 1 .1-.6.7.7.2-.4.7.4.7v29.3s-7.7-8.5-10.5-14.7c0 0-8.8-.9-11.8-7.4l7.2-4.4s-3.2-15.1-.8-25.3c0-.1 2.1-2 2.2-2.2z"/><path id="XMLID_189_" class="st5" d="M28 59.5c-.3-.5-.5-.7-.5-.7-2.6-3.3-4.5-4.7-4.5-4.7v-6.9L35.6 41v20.3l5.6 8.6-5.1 3.6c-1.1-2.6-2.4-5.2-3.7-7.4-1.5-2.6-3-4.9-4.4-6.6z"/><path id="XMLID_188_" class="st7" d="m25.5 28.3.5-.5c-1.5-.8-2.4-2.3-2.4-4.1 0-2.6 2.1-4.7 4.7-4.7s4.7 2.1 4.7 4.7c0 1.8-1 3.4-2.5 4.1l.4.5c.8-.6 1.7-1 2.8-1 2.4 0 4.4 2 4.4 4.4 0 2.4-2 4.4-4.4 4.4-2.3 0-4.2-1.8-4.4-4h-.6c-.3 4.2 1.7 7.5 1.7 7.5h-4.5c2.4-2.3 1.7-7.5 1.7-7.5l-.6-.2c-.2 2.3-2.1 4.1-4.4 4.1-2.4 0-4.4-2-4.4-4.4 0-2.4 2-4.4 4.4-4.4 1.1 0 2.1.4 2.9 1.1z"/><path id="XMLID_187_" class="st4" d="m69.5 19.7-2.4 4.7s1.1 4.1 6.7 4.2c0 0-2-5.6-2.3-6.1-.3-.5-1.4-2.8-2-2.8z"/><path id="XMLID_186_" class="st4" d="M52.3 25.9s-1.8 9.2-1.8 11.2-.8 7.6-3.2 9c0 0-3.2 1.5-4.3-.6 0 0-1.1.1-1.5-.8 0 0-1.1-.1-1.2-.5 0 0-1 0-1.1-.4 0 0-1.1 0-1.5-.6 0 0-1.1-.3-1.3-.8 0 0-1-.3-1-.8 0 0-1.3 0-1.3-1.2 0 0-.9-4.5 3.3-3.5 0 0 .4.4.6-.3.2-.7 1.8-8.7 1.7-9.1l12.6-1.6z"/><path id="XMLID_185_" class="st5" d="M33 67.4c-1.5-2.8-3.1-5.1-4.1-6.7v-.2l4.7.3s9 .9 15.4 8.4 6.1 11.8 13.8 14l5.3.9 1.1 6.7S54.8 90.3 48 79.3c-6.3-10.7-11.7-12-15-11.9z"/><path id="XMLID_184_" class="st4" d="m29.1 61.1 4.6.5 2.5.5c.7.2 1.3.4 1.9.6l1.1.4.6.2 1.2.6 1.2.7.6.4.6.4.6.4.6.5.6.5.6.5.6.6.6.6.6.6.6.7c.4.5.9 1.1 1.3 1.6.6.8 1.2 1.6 1.7 2.4 1 1.4 1.9 2.9 2.8 4.3.4.5.8 1 1.1 1.5l.7.8.4.4.4.4.4.4.4.3.5.3.5.3.5.3.6.3.6.3.6.2.7.2.8.2 3.6.8 2.7 5.3c-1-.1-1.6-.2-2.6-.4-.4-.1-.8-.1-1.2-.2-.7-.2-1.4-.3-2.1-.5l-.8-.2-.8-.3-.8-.3-.8-.3-.4-.5-.8-.4-.9-.4-.9-.5-.9-.5-.8-.6-.8-.6-.8-.7-.8-.7-.8-.7-.7-.8-.7-.9-.7-.9-.6-1-.6-1-.6-1-.6-.9-.7-.8-.6-.8-.7-.7-.6-.7-.6-.7-.6-.6-.5-.5-.6-.5-.5-.5-.6-.5-.5-.4-.5-.4-.5-.3-.5-.3-.5-.3-.5-.2-.5-.2-.9-.3-.9-.2-.8-.1c-.4 0-.8-.1-1.2-.1h-.9c-1.3-1.9-2.4-3.8-3.7-5.6z"/><path class="st7" d="M64.3 85.6c1.3 0 2.3 1.1 2.3 2.4 0 .3-.1.7-.2 1 .7.1.8.1 1.3.2l-1.6-3.7-3.7-.7h-.1c-.2 1.1-1.2 1.8-2.3 1.8-1.3 0-2.3-1.1-2.3-2.4 0-.5.1-.9.3-1.2-.7-.4-1.3-.9-1.9-1.5.2.3.2.7.2 1.1 0 .9-.5 1.7-1.2 2.1.1 0 .1.1.2.1l1.6 1c.8.5 1.6.9 2.5 1.3l2.4.9v-.1c.1-1.2 1.2-2.3 2.5-2.3zM51.2 74.9l-.6-.9c-1-1.4-2-2.8-3.2-4.1-.4.5-1.1.8-1.8.8-1.3 0-2.4-1.1-2.4-2.4 0-.6.2-1.2.6-1.6-.7-.5-1.4-.9-2.1-1.4-1.3-.7-2.6-1.3-4-1.8 0 1.1-.8 2.1-1.9 2.3.5.1 1 .3 1.5.4.3-.9 1.2-1.5 2.2-1.5 1.3 0 2.4 1.1 2.4 2.4 0 .5-.2 1-.5 1.4.7.5 1.3 1.1 2 1.6.6.6 1.2 1.2 1.8 1.9l.3.3c.4-.4 1-.7 1.7-.7 1.3 0 2.4 1.1 2.4 2.4 0 .9-.5 1.7-1.2 2.1l.1.1c.6 1 1.3 2 1.9 2.9l1.3 1.7c.2.2.3.5.5.7.4-.7 1.2-1.3 2.1-1.3.4 0 .7.1 1.1.3-.5-.6-1-1.2-1.4-1.8-.4.5-1 .7-1.7.7-1.3 0-2.4-1.1-2.4-2.4-.2-.9.4-1.7 1.3-2.1zm8.5 8.9.6.3c.2.1.4.1.6.2 0 .4-.3.7-.7.7-.4 0-.7-.3-.7-.7 0-.2.1-.3.2-.5zm4.3 4.8c-.2-.1-.4-.3-.4-.6 0-.4.3-.7.7-.7.4 0 .7.3.7.7 0 .3-.2.6-.6.7-.1 0-.3-.1-.4-.1zm-17.5-15c.1-.3.3-.5.7-.5.4 0 .7.3.7.7 0 .4-.3.7-.7.7-.3-.3-.5-.6-.7-.9zm-7.7-6.7c.1-.3.3-.4.6-.4.4 0 .7.3.7.7 0 .2 0 .3-.1.4-.4-.2-.8-.5-1.2-.7zm-4.5-1.2h-1.8c-.3 0-.4-.1-.6-.3-.5-.7-.9-2.4-1.1-3.3l2.5.4c-.2.3-.2.7-.2 1.1-.1.9.5 1.7 1.2 2.1zM36 63v.2c0 .4-.3.7-.7.7-.4 0-.7-.3-.7-.7 0-.2.1-.3.2-.5l1.2.3zm10.1 5.7c-.1.3-.3.5-.7.5-.4 0-.7-.3-.7-.7 0-.3.2-.5.4-.6.4.2.7.5 1 .8zM54.2 82c.4 0 .7.3.7.7 0 .4-.3.7-.7.7-.4 0-.7-.3-.7-.7 0-.4.3-.7.7-.7zm-2.5-5.5c.4 0 .7.3.7.7 0 .4-.3.7-.7.7-.4 0-.7-.3-.7-.7.1-.4.4-.7.7-.7z"/><path id="XMLID_136_" class="st4" d="M40.4 44.8s.7 1.1 1.1 1.5c.5.3 1-.1 1.1-.3 0 0 1.4.8 2.1.8 0 0-.8 1.3-.3 1.6.5.3 1.7-.1 1.7-.1l1.7 1.5s-.8.8-.4 1.2c.5.4 1.7-.2 1.7-.2l1.4 1.1s-.5 1-.2 1.3c.3.3.7.6 1.7-.1l1.2.7s-.2 1.9.3 2.2c0 0 .8.3.7-.7 0-1 .1-1.5.1-1.5l.9-.8s1.3 1.5 1.6.4c.3-1.1-.1-1.3-.1-1.3l1.4-1s1.3 1.1 1.5.3l.1 1.9s-1.3 0-1.4-.5c-.1-.5-.9 4-3 2.1 0 0-.3 2.4-1.6 2.3-1.3 0-1.7-2-1.7-2.2 0-.2-2.6.8-2.9-1.3 0 0-.1-1.4 0-1.5.1-.1-3.1 1.6-3.2-2.1 0 0-3.3.9-2.8-2.4 0 0-2.8 1.1-4.2-2.6.1-.8 1.2-.6 1.5-.3z"/><path id="XMLID_135_" class="st4" d="M39.2 48.5v-1.6L53.7 58l5.8-4.2v1.9l-5.6 4z"/><path id="XMLID_134_" class="st4" d="m46.6 46.6 6.4 4.9 7.3-4.7-.5 2.4-6.3 4.3-8.7-6.8z"/><path id="XMLID_133_" class="st5" d="m47 46.2 6.1 4.7 4.6-3 1.9-.6-6.6 4.5-7-5.4z"/><path id="XMLID_132_" class="st1" d="M43.6 64.5c-1.5-.9-3-1.6-4.3-2.2V51l4.3 3v10.5z"/><path class="st5" d="M75.9 31.1v76.7l6.6 6.6V31.1h-6.6zm.4 76.6V31.5h5.9v82.1l-5.9-5.9z"/><path class="st4" d="M80.4 103.7c.7 0 1.3.6 1.3 1.3 0 .7-.6 1.3-1.3 1.3s-1.3-.6-1.3-1.3c0-.7.6-1.3 1.3-1.3zm1.2 9.3v-2.4c-.1-.3-.9-1.6-1.3-2.3-.4-.7-1.8-3.1-1.8-3.1v3.3c.1.8.9 2 1.6 3l1.5 1.5zm-1.2-19.6c.7 0 1.3.6 1.3 1.3 0 .7-.6 1.3-1.3 1.3s-1.3-.6-1.3-1.3c0-.7.6-1.3 1.3-1.3zm-1.9 4.9c.2 1.6 3.1 4.7 3.1 4.7v-2.7c-.1-.3-.9-1.6-1.3-2.3-.4-.7-1.8-3.1-1.8-3.1v3.4zm1.9-15.2c.7 0 1.3.6 1.3 1.3 0 .7-.6 1.3-1.3 1.3s-1.3-.6-1.3-1.3c0-.7.6-1.3 1.3-1.3zM78.5 88c.2 1.6 3.1 4.7 3.1 4.7V90c-.1-.3-.9-1.6-1.3-2.3-.4-.7-1.8-3.1-1.8-3.1V88zm1.9-15.1c.7 0 1.3.6 1.3 1.3 0 .7-.6 1.3-1.3 1.3s-1.3-.6-1.3-1.3c0-.7.6-1.3 1.3-1.3zm-1.9 4.8c.2 1.6 3.1 4.7 3.1 4.7v-2.7c-.1-.3-.9-1.6-1.3-2.3-.4-.7-1.8-3.1-1.8-3.1v3.4zm1.9-15.1c.7 0 1.3.6 1.3 1.3 0 .7-.6 1.3-1.3 1.3s-1.3-.6-1.3-1.3c0-.7.6-1.3 1.3-1.3zm-1.9 4.9c.2 1.6 3.1 4.7 3.1 4.7v-2.7c-.1-.3-.9-1.6-1.3-2.3-.4-.7-1.8-3.1-1.8-3.1v3.4zm1.9-15.2c.7 0 1.3.6 1.3 1.3 0 .7-.6 1.3-1.3 1.3s-1.3-.6-1.3-1.3c0-.7.6-1.3 1.3-1.3zm-1.9 4.9c.2 1.6 3.1 4.7 3.1 4.7v-2.7c-.1-.3-.9-1.6-1.3-2.3-.4-.7-1.8-3.1-1.8-3.1v3.4zM80.4 42c.7 0 1.3.6 1.3 1.3 0 .7-.6 1.3-1.3 1.3s-1.3-.6-1.3-1.3c0-.7.6-1.3 1.3-1.3zm-1.9 4.9c.2 1.6 3.1 4.7 3.1 4.7v-2.7c-.1-.3-.9-1.6-1.3-2.3-.4-.7-1.8-3.1-1.8-3.1v3.4zm1.9-15.1c.7 0 1.3.6 1.3 1.3 0 .7-.6 1.3-1.3 1.3s-1.3-.6-1.3-1.3c0-.7.6-1.3 1.3-1.3zm-1.9 4.9c.2 1.6 3.1 4.7 3.1 4.7v-2.7c-.1-.3-.9-1.6-1.3-2.3-.4-.7-1.8-3.1-1.8-3.1v3.4z"/><path id="XMLID_111_" class="st7" d="m16.8 37.9 4.9 4.8v77.4h-4.9V37.9z"/><path class="st4" d="M18.7 47.9c-.7 0-1.3-.6-1.3-1.3 0-.7.6-1.3 1.3-1.3.7 0 1.3.6 1.3 1.3 0 .7-.6 1.3-1.3 1.3zm-1.2-9.3V41c.1.3.9 1.6 1.3 2.3.4.7 1.8 3.1 1.8 3.1V43c-.1-.8-.9-2-1.6-3l-1.5-1.4zm1.2 19.6c-.7 0-1.3-.6-1.3-1.3 0-.7.6-1.3 1.3-1.3.7 0 1.3.6 1.3 1.3 0 .7-.6 1.3-1.3 1.3zm1.9-4.9c-.2-1.6-3.1-4.7-3.1-4.7v2.7c.1.3.9 1.6 1.3 2.3.4.7 1.8 3.1 1.8 3.1v-3.4zm-1.9 15.2c-.7 0-1.3-.6-1.3-1.3 0-.7.6-1.3 1.3-1.3.7 0 1.3.6 1.3 1.3 0 .7-.6 1.3-1.3 1.3zm1.9-4.9c-.2-1.6-3.1-4.7-3.1-4.7v2.7c.1.3.9 1.6 1.3 2.3.4.7 1.8 3.1 1.8 3.1v-3.4zm-1.9 15.1c-.7 0-1.3-.6-1.3-1.3 0-.7.6-1.3 1.3-1.3.7 0 1.3.6 1.3 1.3 0 .7-.6 1.3-1.3 1.3zm1.9-4.8c-.2-1.6-3.1-4.7-3.1-4.7v2.7c.1.3.9 1.6 1.3 2.3.4.7 1.8 3.1 1.8 3.1v-3.4zM18.7 89c-.7 0-1.3-.6-1.3-1.3 0-.7.6-1.3 1.3-1.3.7 0 1.3.6 1.3 1.3 0 .7-.6 1.3-1.3 1.3zm1.9-4.9c-.2-1.6-3.1-4.7-3.1-4.7v2.7c.1.3.9 1.6 1.3 2.3.4.7 1.8 3.1 1.8 3.1v-3.4zm-1.9 15.2c-.7 0-1.3-.6-1.3-1.3 0-.7.6-1.3 1.3-1.3.7 0 1.3.6 1.3 1.3 0 .7-.6 1.3-1.3 1.3zm1.9-4.9c-.2-1.6-3.1-4.7-3.1-4.7v2.7c.1.3.9 1.6 1.3 2.3.4.7 1.8 3.1 1.8 3.1v-3.4zm-1.9 15.2c-.7 0-1.3-.6-1.3-1.3 0-.7.6-1.3 1.3-1.3.7 0 1.3.6 1.3 1.3 0 .7-.6 1.3-1.3 1.3zm1.9-4.9c-.2-1.6-3.1-4.7-3.1-4.7v2.7c.1.3.9 1.6 1.3 2.3.4.7 1.8 3.1 1.8 3.1v-3.4zm-1.9 15.1c-.7 0-1.3-.6-1.3-1.3 0-.7.6-1.3 1.3-1.3.7 0 1.3.6 1.3 1.3 0 .7-.6 1.3-1.3 1.3zm1.9-4.9c-.2-1.6-3.1-4.7-3.1-4.7v2.7c.1.3.9 1.6 1.3 2.3.4.7 1.8 3.1 1.8 3.1v-3.4z"/><path id="XMLID_94_" class="st9" d="m65.2 46.4-.4.6-.8-.5.2-.4-2-.7-1.3 1.1-.4 2.7 4.4.6-.1 2h-1.3V51l-3.2-.7-.2 4.6 4.1.3.1 1.8-1.1.2-.2-.9h-3.1l.1 3.8h4.4v1.6l-1.2.2v-.6h-3l.3 3.9 4.2-.5.4 2.1-1 .2-.3-.9-3 .4.5 3.6 4.1-.5.5 2.2-1.2.2-.4-.8-2.6.6 1.2 3.6 3.7-.8.6 1.8-.9.5-.4-.8-2.6.6 1.3 3.8 3.9-1.3.7 1.7-.9.6-.5-1-2.7 1.1 1.8 3.6 3.5-1.8 1.1 1.7-1.1.5-.4-.8-2.4 1.4 2.1 3.6 3.3-2 1.1 1.7-.8.6-.5-.6-2.7 1.5 2.3 2.6 3.2-1.9v-.8L73 92.6l-1.2-1.4.7-.6.7.5 2.4-1.7-2.1-3-3.5 2-1.2-1.7 1-.7.4.7 2.8-1.4-1.6-3.1-3.9 1.7-.8-1.5.7-.4.4.6 2.9-1.4-1.2-3.4-4.5 1.4-.8-1.9 1-.3.5.8 3.3-1-1.1-3.1-4.4.6-.6-1.8 1.1-.3.4 1.1 3.3-.8-1-3.9-4.3.6-.5-1.8 1.1-.3.2.8 3.3-.6-.6-3.4-4.4.2-.2-1.8 1-.2.2.7 3.3-.1-.3-3.4h-4.3v-2.1h1.2v.8l3.1.1-.1-4-3.9-.3.1-2.4 1 .1.1 1.3 2.8-.1.5-3.3-4.1-1 .2-1.6 1-.1.2.7 2.7.8.2-1.4z"/><path id="XMLID_93_" class="st9" d="M74.3 49.3c2-1.2 2.5-1 2.6-.9.2.1.7-.4.8.1.1.5.1 1.3.4.5.3-.8.5-.6.8-.3.3.2.5.8-.4 1.2-1 .4-1.7.5-2 .8-.3.3-1.2 1-1 1.4.2.4.8.5.7 1.6-.1 1.1.2 3-.8 3-1.1-.1-2.7-.2-2.8-2.1-.2-2.1-.8-3.8 1.7-5.3z"/><path id="XMLID_92_" class="st7" d="M71.5 49.7c-.3 1-1.1 4.2.2 7.3-.7.7-2 1.7-3.7 2.2.7-1 2.2-3.1 1.9-3.3-.4-.4-1.3-1.1-1.3-1.1l1.5-1.7-1.6-1.8 1.6-1.3-1-1.6 2.4 1.3z"/><path id="XMLID_91_" class="st7" d="M29.8 44.5v15.8l-4-5.4v-8.3z"/><path id="XMLID_90_" class="st4" d="M44.4 65c1.6 1.1 3.2 2.5 4.7 4.2 1.9 2.2 3.2 4.2 4.3 5.9V61.7l-9-6.8V65z"/><path id="XMLID_89_" class="st1" d="m59.3 58.1-3.4 2.4-.1 14.7 5.2-3.3c.1 0-1.3-5.3-1.7-13.8z"/><path id="XMLID_88_" class="st1" d="m66.3 61.2 4.4-2.4s3.1 9.1 5.2 11.7v17.9c-.1-.1-8.1-10.2-9.6-27.2z"/><path id="XMLID_87_" class="st7" d="m67.6 61.6 2.1-1.1s3.4 8.8 5 9.9v12.9c.1 0-6.2-10.8-7.1-21.7z"/><path class="st7" d="M45.3 65.6c-.1-.1-.2-.2-.4-.3.2-2 1.9-3.6 3.9-3.6 2.2 0 4 1.8 4 4 0 2-1.4 3.6-3.3 3.9l-.3-.3c.7-.1 1.3-.3 1.8-.7 0-.1-.1-.2-.1-.3-.5-.9-1.2-1.1-1.8-.6-.2.2-.4.6-.4 1-.1-.1-.2-.2-.3-.4 0-.6-.4-1-.9-1h-.1l-.6-.6c.1-.3 0-.6-.2-.8-.3-.1-.8-.3-1.3-.3zm5.9-2.6c-.6-.5-1.3-.8-2.1-.9-.3.9.1 1.7.8 1.7.4 0 .9-.3 1.3-.8zm1.2 2.6c0-.8-.4-1.6-.9-2.2 0 0-.1 0-.1.1-.8.5-1.1 1.3-.6 1.8.4.2 1 .4 1.6.3zm-1 2.7c.6-.6.9-1.3 1-2.2-.1 0-.2-.1-.3-.1-.9-.3-1.7.1-1.7.8.1.5.5 1.1 1 1.5zm-5.1-5.1c-.5.5-.9 1.3-1 2 .9.2 1.6-.1 1.6-.9 0-.3-.2-.7-.6-1.1zm2.4-1.1c-.8 0-1.5.4-2.1.8.5.8 1.2 1 1.7.5.3-.2.4-.7.4-1.3zm3.5 9.2L51 70.1h1.1l.1 1.2zm-6.8-11 1.2 1.2h-1.1l-.1-1.2zm2.8.5v-1.7l.8.8-.8.9zm-2.7-1.3 2 1.8v-2.8l-2-1.4v2.4z"/><path id="XMLID_76_" class="st4" d="M68.1 59.2c.7-1 2.2-3.1 1.9-3.3-.4-.4-1.3-1.1-1.3-1.1l1.5-1.7-1.6-1.8 1.6-1.3-1-1.6-2.2-1.3c-1.4 3.2-.6 12.5-.6 12.5.5-.1 1.1-.2 1.7-.4z"/><path class="st9" d="m34.8 41.9-2.6 1.4v.9h3v-2.3h-.4zm-3.2 1.7v1.3h3.5v3.7h-3v-1h-1v1.9H35v4.3h-3v-1.1h-.8v2.1h3.9v3.7h-3v-.9h-1v2h4v1.8l-1.1-.3v-.9h-3.8v-3.8H33v1.1h.9v-1.9h-3.8v-3.9h2.7v.9h1v-1.7H30v-4h3v.8h1V46h-3.6v-1.7l1.2-.7z"/><path id="XMLID_73_" class="st6" d="m66.6 47.9.9 1.9-1.8 1.7 1.6 2-1.6 1.9 1.7 1.2-1.5 2.5.1.7 2.1-3.1-1.6-1.4 1.5-1.7-1.5-2 1.6-1.6-1.4-3.2z"/><path id="XMLID_72_" class="st4" d="M71.8 57c-1.3-3.1-.5-6.3-.2-7.3l1 .6s-1.1 4.4-.1 5.9c0 0-.2.3-.7.8z"/><path id="XMLID_71_" class="st7" d="m61.5 73.4 1.1 3.8-4.9 3.4-2.7-3.2z"/><path id="XMLID_70_" class="st4" d="M55 77.5c-.2-.3-.5-.6-.7-.9l6.8-4.2.3.9-6.4 4.2z"/><path id="XMLID_69_" class="st4" d="M58.4 81.1c-.3-.2-.5-.4-.7-.6l5-3.3.3 1-4.6 2.9z"/><path id="XMLID_68_" class="st5" d="M27.2 135.5h39.6l-7.2-11.7s-14.5 3.4-26.1.1l-6.3 11.6z"/><path id="XMLID_67_" class="st1" d="M28.5 135.5h37.2l-6.9-10.9s-12.6 3.2-24.4.3l-5.9 10.6z"/><circle id="XMLID_66_" class="st9" cx="46.4" cy="127.7" r=".7"/><circle id="XMLID_65_" class="st9" cx="55.8" cy="127.1" r=".6"/><circle id="XMLID_64_" class="st9" cx="36.9" cy="127.1" r=".6"/><path id="XMLID_63_" class="st9" d="M37 135.5h1l1.8-7.8-.7-.1s-.8 1.7-2.4 1.4c-1.6-.3-1.8-1.7-1.8-1.8l-.7-.1-4.2 8.5h1.1l3.4-6.8s1.7 1.7 4 .8l-1.5 5.9z"/><path id="XMLID_62_" class="st9" d="M52.2 135.5h.7l-1.8-7.7h-.9s-1 2.2-4 2c-3-.2-3.6-1.9-3.6-1.9l-.8-.2-1.6 7.8h.8l1.2-6.3s4.6 3.1 8.4-.3l1.6 6.6z"/><path id="XMLID_61_" class="st9" d="M62.6 135.5h1.2l-5.3-8.5-.8.3s.4.8-1.5 1.4c-1.9.6-2.8-1.2-2.8-1.2l-.8.1 2.4 7.9h1l-1.9-6.2c2.9 1.1 4.2-.9 4.2-.9l4.3 7.1z"/><path class="st5" d="M71.9 16.1h-1.2l-5.9 10.6c-11.9-2.9-24.5.3-24.5.3l-6.9-10.9h-1.2l7.2 11.7h.1c-.1.6-.3 1.9-.6 3.2-.5 2.4-1 5.1-1.1 5.5-.1.5-.3.3-.3.3-4.4-1-3.5 3.5-3.5 3.7.1 1 1 1.3 1.3 1.3.2.4.8.7 1 .8.2.5 1 .8 1.3.8.4.5 1.2.6 1.5.6.2.3.9.4 1.1.4.2.3.9.5 1.2.5.4.7 1.3.8 1.6.8 1.1 2.1 4.4.6 4.4.6.7-.4 1.2-1.1 1.6-1.9 5.9 4.8 8.8 3.7 9 3.6 2.6-.7 4.2-2.5 5.2-4.5.1.1.2.3.4.6s.4.8.6 1.3c.5 1.4 3.4 1.6 3.4 1.6.1 0 .7-.5 1.2-1.1.3-.4.5-.8.6-1.3v-.7c-.1-.4-.3-.7-.5-.9-.2-.2-.5-.3-.6-.4h-.1c-.1 0-.5.1-1 0-.3 0-.5-.1-.7-.1-.3-.1-1-2.5-1.5-4.1.7.8 1.6 1.4 1.6 1.4.1.1.4.2.8.2.3 0 .7 0 1-.1.3-.1.6-.3.8-.7.1-.3.2-.6.1-1.1-.2-1.7-1.1-1.6-1.8-1.5-.3 0-.6.1-.7-.1-.5-.4-1.5-4.8-1.7-5.6.1-1.4.3-2.6.3-3.2l1.3-2.4c1.3 3 5.7 3.9 6.8 3.9 1.1-.1.6-.8.6-.8s-1.4-3.4-1.9-5c-.4-1.4-1.8-3.4-2.3-3.9l2-3.4zm-7.8 25.1c.1-.2.1-.4.2-.7.2-.7.3-1.5.4-2.3.4 1.6 1.3 4.4 1.7 4.6.2.1.5.2.8.2h1c.1 0 .3.1.4.3.2.2.3.4.4.7v.6c-.1.4-.3.8-.6 1.2-.4.6-.9 1-.9 1h-.1v-.1c-.5-.3-3.2-5.5-3.3-5.5zm2.9 5.4c-.8-.1-2.2-.5-2.5-1.3-.2-.6-.4-1-.7-1.4-.1-.1-.1-.2-.2-.3-.1-.2-.2-.3-.3-.4 0-.1.1-.1.1-.2.2-.4.4-.9.6-1.4.5 1 2.1 4 3 5zM39.9 27.7c.2-.1.6-.1 1-.2-.2 2.1-.9 8.6-2.1 10.1 0 0-.1-.1-.1-.2-.2-.2-.4-.4-.6-.5H38c.1-.1.1-.2.2-.4.1-.4.7-3.1 1.1-5.5.2-1.4.5-2.7.6-3.3zM37.2 37c-.3.2-.7.5-1.2 1.1-1 1.1-.9 2.7-.9 3.2-.3-.1-.9-.3-.9-1 0 0-.8-4.1 3-3.3zm-1.7 4.4c-.1-.4-.2-2 .8-3 .6-.6.9-.9 1.2-1 .2-.1.3 0 .4 0 .1.1.3.3.5.4 0 .1.1.1.1.1-.3.1-.5.2-.8.4-.2.1-.4.3-.5.5-.8.9-.9 2.6-.9 3.3-.3-.1-.6-.3-.6-.6l-.2-.1zm1 .8c0-.4 0-2.3.8-3.2.2-.2.3-.3.5-.4.4-.3.7-.4 1.1-.4.3 0 .6.1.9.3-.3.1-.7.2-1 .5-.1.1-.2.1-.3.2-1 1-1.1 3-1.1 3.7-.3-.1-.8-.3-.9-.7zm1.3.9c0-.4-.1-2.6 1-3.6l.2-.2c.5-.4.9-.5 1.2-.5.3 0 .5.1.6.3h-.1c-.4.2-.9.6-1.3 1.2-.8 1.3-.7 2.8-.6 3.3-.2 0-.8-.1-1-.5zm1.4.5c-.1-.4-.2-1.9.6-3.1.3-.5.7-.9 1.1-1.1.3-.1.5-.2.8-.2.2 0 .4.1.5.2 0 0 .1.1.1.2-.4.1-.9.4-1.4.9-1.1 1.1-1 3-.9 3.6-.3 0-.7-.1-.7-.3l-.1-.2zm1.2.4c-.1-.5-.2-2.3.8-3.3.6-.6 1.1-.8 1.5-.8.3 0 .6.2.8.4-.4.1-.8.3-1.3.7-1.2.9-1.1 2.8-1 3.5-.3-.1-.7-.2-.8-.4V44zm1.2.6c-.1-.4-.3-2.4.9-3.3.7-.5 1.2-.7 1.6-.7.3 0 .6.1.8.4-.2 0-.3.1-.5.1-2 .6-1.7 3.5-1.6 4.3-.3-.1-.9-.2-1.2-.8zm1.5.7c-.1-.6-.4-3.4 1.3-4 .3-.1.5-.1.8-.1.4 0 .7.2 1 .4.3.3.4.6.5 1 .1.4.2.7.2 1-.3.5-1 1.5-1.5 1.5h-.2c-.3 0-.5-.2-.7-.5-.2-.3-.3-.6-.3-.8v-.2c0-.2.1-.3.2-.4.1-.1.2-.3.4-.3.1-.1.3-.1.4-.1.1 0 .1 0 .2.1.4.2.3.8.3.8h.3s.1-.8-.5-1.1c-.1-.1-.2-.1-.3-.1-.2 0-.4 0-.6.1-.2.1-.4.3-.5.5-.1.2-.2.3-.2.5v.3c0 .4.2.7.4 1 .2.3.6.5.9.6h.2c.7 0 1.4-1.1 1.8-1.7.1-.2.2-.3.2-.3.6-.9 1.2-2.5 1.5-4.4.7-3.1 1-6.7 1-7.4 0-1.1.8-4.6 1-5.3H52c-.4 1.9-1.7 9-1.7 10.7 0 1.2-.3 3.7-1.1 5.8-.5 1.3-1.2 2.5-2.1 3.1-.1 0-3 1.3-4-.7zm9.3-19c4.1-.1 8.6.2 12.8 1.3 0 .4-.1 1-.2 1.8h-1.4c-.7 0-3.5.4-3.6 2.7-.2 2.3-.1 3.2.1 3.8.2.5.9 2.1.7 2.7-.2.7-1.3 1.4-1.3 1.4s2-.1 2.1-1.6c0 0-.1-.5-.4-1.1-.4-.5-1.1-2.9-.6-2.9 0 0 .7 0 1 .5.4.4 1.3.9 1.1.6-.2-.4-1.2-1-.9-1.1.3-.1 2.5-.2 2.7-.5 0-.1.1-.1.1-.2-.1.7-.1 1.3-.1 1.6l-.1 1.4v.5c-.2 3-1.4 9.1-6.6 10.4 0 0-2.7 1.2-8.7-3.6.2-.3.3-.7.4-1.1.8-2.1 1-4.7 1.1-5.9 0-.7.3-2.3.6-4.1.3.1 1.1.4 1.3.6.2.2 1.8.8 2.5.8.6 0-.8.7-1 .9-.2.2 1.5 0 2.6-.8s1.1-1.1.8-1.5c-.3-.3 0-.5.2-.7.2-.1-.4-.8-.8-1-.3-.2-2.2-.8-4.6 0-.7.3-.4.5-.4.5s2.1-.6 2.7-.6c.6.1 2.3.2 2.6.8.3.6-.9 0-.9 0-.1-.1-2.4-.5-3.7.2-.9.4-1.3.6-1.5.7.7-2.5 1.2-5.4 1.4-6.5zm-3.6.2h.3c-.2 1.1-.8 5.3-.8 5.7 0 .2-.1 1.3-.3 2.4-.2 1.2-.4 2.5-.4 2.9 0 .3-.3 1.6-.6 2.6-.2.6-.4 1.1-.6 1.4-.2-.2-.5-.4-.9-.4.3-.6.6-1.7.9-3 .5-2.4.9-5.2 1-6.1 0-1.2.7-4.8.8-5.3l.6-.2zm-1 .1c-.1.8-.7 4-.8 5.2 0 .8-.4 3.7-.9 6-.3 1.3-.6 2.5-.9 2.9-.3-.3-.6-.5-.9-.5.3-.4.6-1.2.8-2.1.4-1.8.7-4.2.7-5.1 0-1.2.8-5.1 1.1-6.3l.9-.1zm-1.3.2c-.3 1.3-1 5-1.1 6.2 0 .9-.3 3.3-.7 5.1-.2 1-.5 1.8-.8 2.1-.2-.3-.5-.4-.8-.5.4-.4.7-1.5.9-2.7.3-1.4.5-2.8.5-3.2.1-.7.9-5.4 1.2-6.8l.8-.2zm-1.1.1c-.3 1.6-1.1 6.1-1.2 6.8 0 .4-.2 1.9-.5 3.2-.3 1.3-.6 2.5-.9 2.6v.1h-.1c-.1-.1-.1-.3-.2-.4-.1-.1-.3-.2-.5-.3.6-1.3 2.1-9.7 2.5-11.9l.9-.1zm-1.4.2c-.4 2.4-2 11.5-2.4 11.7l.1.1c-.2 0-.3 0-.5.1-.1-.1-.3-.3-.6-.4.6-1.3 1.9-9.3 2.2-11.3l1.2-.2zm-1.6.2c-.4 2.3-1.7 10.9-2.2 11.1v.1c-.1-.1-.1-.2-.2-.2-.3-.3-.7-.4-1.1-.5 1.3-1.8 2-8.4 2.2-10.3.3 0 .5-.1.8-.1l.5-.1zm7-.9c.4 0 .8 0 1.2-.1-.2.9-1 4.3-1 5.3 0 .7-.3 4.3-1 7.3-.4 1.7-.9 3.3-1.4 4.1 0-.2-.1-.4-.1-.6-.1-.3-.3-.7-.5-.9.2-.3.5-.9.7-1.5.4-1.1.7-2.3.7-2.7 0-.3.2-1.6.4-2.8.2-1.1.3-2.2.3-2.4-.1-.3.6-4.7.7-5.7zM65.1 32c.4 1.6 1.1 4.4 1.6 4.8.3.2.6.2 1 .1.6-.1 1.3-.1 1.4 1.2 0 .4 0 .7-.1.9-.1.3-.3.4-.6.5-.3.1-.6.1-.8.1-.3 0-.6-.1-.7-.1 0 0-1.8-1.1-2.1-2.4.1-.8.1-1.3.1-1.5v-.2l.2-2.3V32zM52 30.6c.1-.5 2.2-1.4 3.1-1.5.9-.1 2.6.4 2.9 1 .3.7-1 .3-1.9-.1-.8-.3-4.1.6-4.1.6zm1.2 1.9s-.2.9 0 1-1.1-.3-1.1-.5c.1-.3 1.1-.6 1.1-.5zm.8-.1s.1.9.9.8c.8 0 .8-.8.8-.8l.3.2s-.1 1.2-1.3 1c-1.2-.1-1.1-1-1.1-1.2h.4zm2.3.3s.7.3.7.5-.7.8-.9.6c-.2-.1.2-1.1.2-1.1zm8.5-1.7-.1.7c-1.2-1.2-3.9-.3-3.9-.3.5-1 1.7-1.3 1.7-1.3 2.2-.2 2.3.9 2.3.9zm-4.2 1.3s.9-.8 1.7-1c.8-.2 2.3.3 2.4.7 0 .4-.4.2-1.3-.1-1-.2-2.8.4-2.8.4zm1.6.3s.1.7.6.8c.5.1.8-.5.8-.5l.4.1s-.2 1-1.1 1c-.9 0-1.1-.9-1.1-1 0-.1.4-.4.4-.4zm-1 .2s.3.7.5.8c.2.1-.2.4-.5.2-.3-.1-.8-.6-.7-.8.2-.2.8-.2.7-.2zM57 37.5s-1.1 1-.4 1.6c.7.6 1.5-.3 1.6-.4.1-.1.7-.5 1-.2.3.3.1.8-.8 1.1-.9.3-1.9.2-2.2-.1-.3-.3-.7-.9.3-2.1 0 0 .3-.3.5-.2.2.1 0 .3 0 .3zm-1.4 4s1 .6 1.8.1.8.1.9.1c.1 0 .3.2.8-.1.5-.3.5-.2.9.1.4.2.6 0 .9-.2h.3V43s-.4-.1-.5-.1c-.1-.1-.9-.1-1.4 0-.5.2-1.2.4-2.1.2-1-.2-.6-.4-1.4-.2-.8.1-1 .1-.8-.2l.6-1.2zm.9 2.2s2.3.6 3.6 0c0 0 .3 0 0 .4-.4.4-1 .5-.7.9.3.4-.1.3-.4.1-.4-.2-1-.2-1.3.1-.3.3-.5.1-.2-.2.3-.3-.5-.7-.7-.7-.2-.1-.7-.5-.3-.6zm6.8-.5zm3.9-18.5.8-1.5c.1.1.3.2.3.3 0 .4.1.8.2.7.2-.1.7-.5.7.1.1.6.1 1 .3.8.2-.2.8-.2.8 0s-.1 1.5.2 1.5c.3.1.7 0 .7.5s.2.3.8.3c.6.1-.3-.6.2-.6.6 0 .4-.2.1-.3-.3-.1-1-.5-.7-.5.4 0 .4-.3.3-.3-.1 0-.2-.2-.6-.3-.3 0-.8-.4-.5-.4.3 0 .5-.3.3-.4-.1-.1-1.2-.9-1.1-.9.1 0 .8-.4.3-.4-.5-.1-1.3-.8-1.3-.8s.8-.3.7-.3c-.1 0-.5-.3-.7-.6l1-1.8c.7.5 1.4 2.3 1.6 2.7.2.5 2.3 6.1 2.3 6.1-4.8-.1-6.3-2.9-6.7-3.9z"/><path id="XMLID_26_" class="st1" d="M70.6 16.1H33.4L40.3 27s12.6-3.2 24.4-.3l5.9-10.6z"/><path class="st9" d="M52.7 23.2c.4 0 .7.3.7.7 0 .4-.3.7-.7.7-.4 0-.7-.3-.7-.7.1-.4.4-.7.7-.7zm-16.2-7.1h-1.2l5.3 8.5.8-.3s-.4-.8 1.5-1.4c1.9-.6 2.8 1.2 2.8 1.2l.8-.1-2.4-7.9h-1l1.9 6.2c-2.9-1.1-4.2.9-4.2.9l-4.3-7.1zm10.4 0h-.7l1.8 7.7h1s1-2.2 4-2c3 .2 3.6 1.9 3.6 1.9l.8.2 1.6-7.8h-.9l-1.2 6.3s-4.6-3.1-8.4.3l-1.6-6.6zm15.2 0h-1l-1.8 7.8.7.1s.8-1.7 2.4-1.4c1.6.3 1.8 1.7 1.8 1.8l.7.1 4.2-8.5H68l-3.4 6.8s-1.7-1.7-4-.8l1.5-5.9zm0 7.8c.3 0 .6.3.6.6s-.3.6-.6.6-.6-.3-.6-.6.3-.6.6-.6zm-18.8 0c.3 0 .6.3.6.6s-.3.6-.6.6-.6-.3-.6-.6.3-.6.6-.6z"/><path id="XMLID_19_" class="st5" d="M82.3 31.5V21.2l-9.9 10.3z"/><path id="XMLID_18_" class="st4" d="M82.3 30.8v-8.4l-8.2 8.4z"/><path id="XMLID_17_" class="st1" d="M82.3 29.7v-5.6l-5.8 5.6z"/><path class="st8" d="M17.1 136.5h65.6V15.1H16.6v121.4h.5zm.5-1V16.2h64v119.3h-64z"/></g></svg>