<svg xmlns="http://www.w3.org/2000/svg" viewBox="0 0 99.4 151.6" style="enable-background:new 0 0 99.4 151.6" xml:space="preserve"><style>.st1{fill-rule:evenodd;clip-rule:evenodd}.st1,.st2{fill:#e52529}.st3{fill:#231f20}.st4{fill-rule:evenodd;clip-rule:evenodd;fill:#231f20}</style><g id="Calque_2"><path id="XMLID_15_" d="M99.3 5.3v140.9c0 2.9-2.3 5.2-5.2 5.2H5.3c-2.9 0-5.2-2.3-5.2-5.2V5.3C.1 2.4 2.4.1 5.3.1H94c2.9 0 5.3 2.4 5.3 5.2z" style="fill:#fff;stroke:#000;stroke-width:.25;stroke-miterlimit:2.6131"/></g><g id="Calque_1"><path class="st1" d="M552.8 134.6c-3.2-4.4-4.1-8-4.1-8s-.9 3.7-4.1 8c-3.2 4.4-6.2 5.6-6.2 5.6s3 1.2 6.2 5.6c3.2 4.4 4.1 8 4.1 8s.9-3.7 4.1-8c3.2-4.4 6.2-5.6 6.2-5.6s-2.9-1.3-6.2-5.6zM510.8 134.6c-3.2-4.4-4.1-8-4.1-8s-.9 3.7-4.1 8c-3.2 4.4-6.2 5.6-6.2 5.6s3 1.2 6.2 5.6c3.2 4.4 4.1 8 4.1 8s.9-3.7 4.1-8c3.2-4.4 6.2-5.6 6.2-5.6s-3-1.3-6.2-5.6zM531.8 177.1c-3.2-4.4-4.1-8-4.1-8s-.9 3.7-4.1 8c-3.2 4.4-6.2 5.6-6.2 5.6s3 1.2 6.2 5.6c3.2 4.4 4.1 8 4.1 8s.9-3.7 4.1-8c3.2-4.4 6.2-5.6 6.2-5.6s-3-1.2-6.2-5.6zM552.8 219.7c-3.2-4.4-4.1-8-4.1-8s-.9 3.7-4.1 8c-3.2 4.4-6.2 5.6-6.2 5.6s3 1.2 6.2 5.6c3.2 4.4 4.1 8 4.1 8s.9-3.7 4.1-8c3.2-4.4 6.2-5.6 6.2-5.6s-2.9-1.3-6.2-5.6zM510.8 219.7c-3.2-4.4-4.1-8-4.1-8s-.9 3.7-4.1 8c-3.2 4.4-6.2 5.6-6.2 5.6s3 1.2 6.2 5.6c3.2 4.4 4.1 8 4.1 8s.9-3.7 4.1-8c3.2-4.4 6.2-5.6 6.2-5.6s-3-1.3-6.2-5.6z"/><path class="st2" d="M486.7 117.5h7.8v1.8h-6l-.2 3s2.8-1.6 5.5.7c.5.4 2.9 2.9 1.4 7.8-.3 1-2 3.6-5.6 3.1-.2 0-2.9-.7-3.9-3.7l1.7-.4s1.3 2.7 3.1 2.5c.9-.1 3.3-.7 3.2-4.6 0-.3 0-3.7-2.9-4.2-1-.2-2.2 0-3.9 1.7l-.8-.5.6-7.2zM568.8 247.8h-7.9V246h6l.2-3s-2.8 1.6-5.5-.7c-.5-.4-2.9-2.9-1.4-7.8.3-1 2-3.6 5.6-3.1.2 0 2.9.7 3.9 3.7l-1.7.4s-1.3-2.7-3.1-2.5c-.9.1-3.3.7-3.2 4.6 0 .3 0 3.7 2.9 4.2 1 .2 2.2 0 3.9-1.7l.8.5-.5 7.2zM490.8 137.7s1.4 4.5 4.7 6.3c0 0-3.2 1.7-4.7 6.2-1.5-4.6-4.7-6.2-4.7-6.2 3.3-1.8 4.7-6.3 4.7-6.3zM564.7 227.6s-1.4-4.5-4.7-6.3c0 0 3.2-1.7 4.7-6.2 1.5 4.6 4.7 6.2 4.7 6.2-3.3 1.8-4.7 6.3-4.7 6.3z"/><path class="st1" d="M552.8 134.6c-3.2-4.4-4.1-8-4.1-8s-.9 3.7-4.1 8c-3.2 4.4-6.2 5.6-6.2 5.6s3 1.2 6.2 5.6c3.2 4.4 4.1 8 4.1 8s.9-3.7 4.1-8c3.2-4.4 6.2-5.6 6.2-5.6s-2.9-1.3-6.2-5.6zM510.8 134.6c-3.2-4.4-4.1-8-4.1-8s-.9 3.7-4.1 8c-3.2 4.4-6.2 5.6-6.2 5.6s3 1.2 6.2 5.6c3.2 4.4 4.1 8 4.1 8s.9-3.7 4.1-8c3.2-4.4 6.2-5.6 6.2-5.6s-3-1.3-6.2-5.6zM531.8 177.1c-3.2-4.4-4.1-8-4.1-8s-.9 3.7-4.1 8c-3.2 4.4-6.2 5.6-6.2 5.6s3 1.2 6.2 5.6c3.2 4.4 4.1 8 4.1 8s.9-3.7 4.1-8c3.2-4.4 6.2-5.6 6.2-5.6s-3-1.2-6.2-5.6zM552.8 219.7c-3.2-4.4-4.1-8-4.1-8s-.9 3.7-4.1 8c-3.2 4.4-6.2 5.6-6.2 5.6s3 1.2 6.2 5.6c3.2 4.4 4.1 8 4.1 8s.9-3.7 4.1-8c3.2-4.4 6.2-5.6 6.2-5.6s-2.9-1.3-6.2-5.6zM510.8 219.7c-3.2-4.4-4.1-8-4.1-8s-.9 3.7-4.1 8c-3.2 4.4-6.2 5.6-6.2 5.6s3 1.2 6.2 5.6c3.2 4.4 4.1 8 4.1 8s.9-3.7 4.1-8c3.2-4.4 6.2-5.6 6.2-5.6s-3-1.3-6.2-5.6z"/><path class="st2" d="M486.7 117.5h7.8v1.8h-6l-.2 3s2.8-1.6 5.5.7c.5.4 2.9 2.9 1.4 7.8-.3 1-2 3.6-5.6 3.1-.2 0-2.9-.7-3.9-3.7l1.7-.4s1.3 2.7 3.1 2.5c.9-.1 3.3-.7 3.2-4.6 0-.3 0-3.7-2.9-4.2-1-.2-2.2 0-3.9 1.7l-.8-.5.6-7.2zM568.8 247.8h-7.9V246h6l.2-3s-2.8 1.6-5.5-.7c-.5-.4-2.9-2.9-1.4-7.8.3-1 2-3.6 5.6-3.1.2 0 2.9.7 3.9 3.7l-1.7.4s-1.3-2.7-3.1-2.5c-.9.1-3.3.7-3.2 4.6 0 .3 0 3.7 2.9 4.2 1 .2 2.2 0 3.9-1.7l.8.5-.5 7.2zM490.8 137.7s1.4 4.5 4.7 6.3c0 0-3.2 1.7-4.7 6.2-1.5-4.6-4.7-6.2-4.7-6.2 3.3-1.8 4.7-6.3 4.7-6.3zM564.7 227.6s-1.4-4.5-4.7-6.3c0 0 3.2-1.7 4.7-6.2 1.5 4.6 4.7 6.2 4.7 6.2-3.3 1.8-4.7 6.3-4.7 6.3z"/><path class="st1" d="M552.8 134.6c-3.2-4.4-4.1-8-4.1-8s-.9 3.7-4.1 8c-3.2 4.4-6.2 5.6-6.2 5.6s3 1.2 6.2 5.6c3.2 4.4 4.1 8 4.1 8s.9-3.7 4.1-8c3.2-4.4 6.2-5.6 6.2-5.6s-2.9-1.3-6.2-5.6zM510.8 134.6c-3.2-4.4-4.1-8-4.1-8s-.9 3.7-4.1 8c-3.2 4.4-6.2 5.6-6.2 5.6s3 1.2 6.2 5.6c3.2 4.4 4.1 8 4.1 8s.9-3.7 4.1-8c3.2-4.4 6.2-5.6 6.2-5.6s-3-1.3-6.2-5.6zM531.8 177.1c-3.2-4.4-4.1-8-4.1-8s-.9 3.7-4.1 8c-3.2 4.4-6.2 5.6-6.2 5.6s3 1.2 6.2 5.6c3.2 4.4 4.1 8 4.1 8s.9-3.7 4.1-8c3.2-4.4 6.2-5.6 6.2-5.6s-3-1.2-6.2-5.6zM552.8 219.7c-3.2-4.4-4.1-8-4.1-8s-.9 3.7-4.1 8c-3.2 4.4-6.2 5.6-6.2 5.6s3 1.2 6.2 5.6c3.2 4.4 4.1 8 4.1 8s.9-3.7 4.1-8c3.2-4.4 6.2-5.6 6.2-5.6s-2.9-1.3-6.2-5.6zM510.8 219.7c-3.2-4.4-4.1-8-4.1-8s-.9 3.7-4.1 8c-3.2 4.4-6.2 5.6-6.2 5.6s3 1.2 6.2 5.6c3.2 4.4 4.1 8 4.1 8s.9-3.7 4.1-8c3.2-4.4 6.2-5.6 6.2-5.6s-3-1.3-6.2-5.6z"/><path class="st2" d="M486.7 117.5h7.8v1.8h-6l-.2 3s2.8-1.6 5.5.7c.5.4 2.9 2.9 1.4 7.8-.3 1-2 3.6-5.6 3.1-.2 0-2.9-.7-3.9-3.7l1.7-.4s1.3 2.7 3.1 2.5c.9-.1 3.3-.7 3.2-4.6 0-.3 0-3.7-2.9-4.2-1-.2-2.2 0-3.9 1.7l-.8-.5.6-7.2zM568.8 247.8h-7.9V246h6l.2-3s-2.8 1.6-5.5-.7c-.5-.4-2.9-2.9-1.4-7.8.3-1 2-3.6 5.6-3.1.2 0 2.9.7 3.9 3.7l-1.7.4s-1.3-2.7-3.1-2.5c-.9.1-3.3.7-3.2 4.6 0 .3 0 3.7 2.9 4.2 1 .2 2.2 0 3.9-1.7l.8.5-.5 7.2zM490.8 137.7s1.4 4.5 4.7 6.3c0 0-3.2 1.7-4.7 6.2-1.5-4.6-4.7-6.2-4.7-6.2 3.3-1.8 4.7-6.3 4.7-6.3zM564.7 227.6s-1.4-4.5-4.7-6.3c0 0 3.2-1.7 4.7-6.2 1.5 4.6 4.7 6.2 4.7 6.2-3.3 1.8-4.7 6.3-4.7 6.3z"/><path id="XMLID_32_" class="st3" d="M25.3 42.8c3.1-3.8 2.4-9.4 2.4-9.4-.5 2.6-3.1 4.1-4.1 4.3-3.7.6-5.5-2.1-5.7-2.5-2.6-4.6 1.2-7.5 1.7-7.8 3.4-2.1 6.1.3 6.1.3.5.1.2-.5.2-.5-2.8-1.5-2.9-4.1-2.8-5 .6-5.2 5.7-5.1 5.7-5.1s5.1-.1 5.7 5.1c.1.9 0 3.5-2.8 5 0 0-.3.6.2.5 0 0 2.7-2.4 6.1-.3.6.3 4.3 3.2 1.7 7.8-.2.4-2 3.2-5.7 2.5-1.1-.2-3.7-1.7-4.1-4.3 0 0-.7 5.6 2.4 9.4h-7z"/><path id="XMLID_31_" class="st3" d="M67.1 42.8c3.1-3.8 2.4-9.4 2.4-9.4-.5 2.6-3.1 4.1-4.1 4.3-3.7.6-5.5-2.1-5.7-2.5-2.6-4.6 1.2-7.5 1.7-7.8 3.4-2.1 6.1.3 6.1.3.5.1.2-.5.2-.5-2.8-1.5-2.9-4.1-2.8-5 .6-5.2 5.7-5.1 5.7-5.1s5.1-.1 5.7 5.1c.1.9 0 3.5-2.8 5 0 0-.3.6.2.5 0 0 2.7-2.4 6.1-.3.6.3 4.3 3.2 1.7 7.8-.2.4-2 3.2-5.8 2.5-1.1-.2-3.7-1.7-4.1-4.3 0 0-.7 5.6 2.4 9.4h-6.9z"/><path id="XMLID_30_" class="st3" d="M25.3 73.4c3.1-3.8 2.4-9.4 2.4-9.4-.5 2.6-3.1 4.1-4.1 4.3-3.7.6-5.5-2.1-5.7-2.5-2.6-4.6 1.2-7.5 1.7-7.8 3.4-2.1 6.1.3 6.1.3.5.1.2-.5.2-.5-2.8-1.5-2.9-4.1-2.8-5 .6-5.2 5.7-5.1 5.7-5.1s5.1-.1 5.7 5.1c.1.9 0 3.5-2.8 5 0 0-.3.6.2.5 0 0 2.7-2.4 6.1-.3.6.3 4.3 3.2 1.7 7.8-.2.4-2 3.2-5.7 2.5-1.1-.2-3.7-1.7-4.1-4.3 0 0-.7 5.6 2.4 9.4h-7z"/><path id="XMLID_29_" class="st3" d="M67.1 73.4c3.1-3.8 2.4-9.4 2.4-9.4-.5 2.6-3.1 4.1-4.1 4.3-3.7.6-5.5-2.1-5.7-2.5-2.6-4.6 1.2-7.5 1.7-7.8 3.4-2.1 6.1.3 6.1.3.5.1.2-.5.2-.5-2.8-1.5-2.9-4.1-2.8-5 .6-5.2 5.7-5.1 5.7-5.1s5.1-.1 5.7 5.1c.1.9 0 3.5-2.8 5 0 0-.3.6.2.5 0 0 2.7-2.4 6.1-.3.6.3 4.3 3.2 1.7 7.8-.2.4-2 3.2-5.8 2.5-1.1-.2-3.7-1.7-4.1-4.3 0 0-.7 5.6 2.4 9.4h-6.9z"/><path id="XMLID_28_" class="st3" d="M74.1 108.8c-3.1 3.8-2.4 9.4-2.4 9.4.5-2.6 3.1-4.1 4.1-4.3 3.7-.6 5.5 2.1 5.7 2.5 2.6 4.6-1.2 7.5-1.7 7.8-3.4 2.1-6.1-.3-6.1-.3-.5-.1-.2.5-.2.5 2.8 1.5 2.9 4.1 2.8 5-.6 5.2-5.7 5.1-5.7 5.1s-5.1.1-5.7-5.1c-.1-.9 0-3.5 2.8-5 0 0 .3-.6-.2-.5 0 0-2.7 2.4-6.1.3-.6-.3-4.3-3.2-1.7-7.8.2-.4 2-3.2 5.7-2.5 1.1.2 3.7 1.7 4.1 4.3 0 0 .7-5.6-2.4-9.4h7z"/><path id="XMLID_27_" class="st3" d="M32.3 108.8c-3.1 3.8-2.4 9.4-2.4 9.4.5-2.6 3.1-4.1 4.1-4.3 3.7-.6 5.5 2.1 5.7 2.5 2.6 4.6-1.2 7.5-1.7 7.8-3.4 2.1-6.1-.3-6.1-.3-.5-.1-.2.5-.2.5 2.8 1.5 2.9 4.1 2.8 5-.6 5.2-5.7 5.1-5.7 5.1s-5.1.1-5.7-5.1c-.1-.9 0-3.5 2.8-5 0 0 .3-.6-.2-.5 0 0-2.7 2.4-6.1.3-.6-.3-4.3-3.2-1.7-7.8.2-.4 2-3.2 5.7-2.5 1.1.2 3.7 1.7 4.1 4.3 0 0 .7-5.6-2.4-9.4h7z"/><path id="XMLID_26_" class="st3" d="M74.1 78.2c-3.1 3.8-2.4 9.4-2.4 9.4.5-2.6 3.1-4.1 4.1-4.3 3.7-.6 5.5 2.1 5.7 2.5 2.6 4.6-1.2 7.5-1.7 7.8-3.4 2.1-6.1-.3-6.1-.3-.5-.1-.2.5-.2.5 2.8 1.5 2.9 4.1 2.8 5-.6 5.2-5.7 5.1-5.7 5.1s-5.1.1-5.7-5.1c-.1-.9 0-3.5 2.8-5 0 0 .3-.6-.2-.5 0 0-2.7 2.4-6.1.3-.6-.3-4.3-3.2-1.7-7.8.2-.4 2-3.2 5.7-2.5 1.1.2 3.7 1.7 4.1 4.3 0 0 .7-5.6-2.4-9.4h7z"/><path id="XMLID_25_" class="st3" d="M32.3 78.2c-3.1 3.8-2.4 9.4-2.4 9.4.5-2.6 3.1-4.1 4.1-4.3 3.7-.6 5.5 2.1 5.7 2.5 2.6 4.6-1.2 7.5-1.7 7.8-3.4 2.1-6.1-.3-6.1-.3-.5-.1-.2.5-.2.5 2.8 1.5 2.9 4.1 2.8 5-.6 5.2-5.7 5.1-5.7 5.1s-5.1.1-5.7-5.1c-.1-.9 0-3.5 2.8-5 0 0 .3-.6-.2-.5 0 0-2.7 2.4-6.1.3-.6-.3-4.3-3.2-1.7-7.8.2-.4 2-3.2 5.7-2.5 1.1.2 3.7 1.7 4.1 4.3 0 0 .7-5.6-2.4-9.4h7z"/><path id="XMLID_24_" class="st3" d="M46.2 58.1c3.1-3.8 2.4-9.4 2.4-9.4-.5 2.6-3.1 4.1-4.1 4.3-3.7.6-5.5-2.1-5.7-2.5-2.6-4.6 1.2-7.5 1.7-7.8 3.4-2.1 6.1.3 6.1.3.5.1.2-.5.2-.5-2.8-1.5-2.9-4.1-2.8-5 .6-5.2 5.7-5.1 5.7-5.1s5.1-.1 5.7 5.1c.1.9 0 3.5-2.8 5 0 0-.3.6.2.5 0 0 2.7-2.4 6.1-.3.6.3 4.3 3.2 1.7 7.8-.2.4-2 3.2-5.7 2.5-1.1-.2-3.7-1.7-4.1-4.3 0 0-.7 5.6 2.4 9.4h-7z"/><path id="XMLID_23_" class="st3" d="M53.2 93.5c-3.1 3.8-2.4 9.4-2.4 9.4.5-2.6 3.1-4.1 4.1-4.3 3.7-.6 5.5 2.1 5.7 2.5 2.6 4.6-1.2 7.5-1.7 7.8-3.4 2.1-6.1-.3-6.1-.3-.5-.1-.2.5-.2.5 2.8 1.5 2.9 4.1 2.8 5-.6 5.2-5.7 5.1-5.7 5.1s-5.1.1-5.7-5.1c-.1-.9 0-3.5 2.8-5 0 0 .3-.6-.2-.5 0 0-2.7 2.4-6.1.3-.6-.3-4.3-3.2-1.7-7.8.2-.4 2-3.2 5.8-2.5 1.1.2 3.7 1.7 4.1 4.3 0 0 .7-5.6-2.4-9.4h6.9z"/><path class="st4" d="M12.4 9.1c.8 0 1.3.8 1.3 1.5v10.7c0 .4-.5 1.3-1.3 1.3S11 22 11 21.4v-11s-.1-1.3 1.4-1.3zm-.1-2C9.4 7.1 9 10 9 10v11.5c.1.9.9 2.9 3.5 2.9 2.5 0 3.2-2.4 3.2-3v-11c0-1.7-1.5-3.3-3.4-3.3zm-6.9.2h1.8v17.2H5.4V7.3zM87 142.5c-.8 0-1.3-.8-1.3-1.5v-10.7c0-.4.5-1.3 1.3-1.3s1.4.6 1.4 1.2v11s.1 1.3-1.4 1.3zm.1 2c2.9 0 3.3-2.9 3.3-2.9V130c-.1-.9-.9-2.9-3.5-2.9-2.5 0-3.2 2.4-3.2 3v11c0 1.8 1.5 3.4 3.4 3.4zm6.9-.2h-1.8v-17.2H94v17.2z"/><path id="XMLID_16_" class="st3" d="M90.3 111.7c-1.4 1.7-1.1 4.2-1.1 4.2.2-1.2 1.4-1.8 1.8-1.9 1.6-.3 2.4.9 2.5 1.1 1.1 2-.5 3.3-.8 3.5-1.5.9-2.7-.1-2.7-.1-.2 0-.1.2-.1.2 1.2.7 1.3 1.8 1.3 2.2-.3 2.3-2.5 2.3-2.5 2.3s-2.2.1-2.5-2.3c0-.4 0-1.5 1.3-2.2 0 0 .1-.3-.1-.2 0 0-1.2 1.1-2.7.1-.2-.2-1.9-1.4-.8-3.5.1-.2.9-1.4 2.5-1.1.5.1 1.6.8 1.8 1.9 0 0 .3-2.5-1.1-4.2h3.2z"/><path id="XMLID_14_" class="st3" d="M9.1 39.9c1.4-1.7 1.1-4.2 1.1-4.2-.2 1.2-1.4 1.8-1.8 1.9-1.6.3-2.4-.9-2.5-1.1-1.1-2 .5-3.3.8-3.5 1.5-.9 2.7.1 2.7.1.2 0 .1-.2.1-.2-1.2-.7-1.3-1.8-1.3-2.2.3-2.3 2.5-2.3 2.5-2.3s2.2-.1 2.5 2.3c0 .4 0 1.5-1.3 2.2 0 0-.1.3.1.2 0 0 1.2-1.1 2.7-.1.2.1 1.9 1.4.8 3.5-.1.2-.9 1.4-2.5 1.1-.5-.1-1.6-.8-1.8-1.9 0 0-.3 2.5 1.1 4.2H9.1z"/></g></svg>