<svg xmlns="http://www.w3.org/2000/svg" viewBox="0 0 99.4 151.6" style="enable-background:new 0 0 99.4 151.6" xml:space="preserve"><style>.st1{fill-rule:evenodd;clip-rule:evenodd}.st1,.st2{fill:#e52529}.st3{fill-rule:evenodd;fill:#db4634}.st3,.st4{clip-rule:evenodd}.st4{fill-rule:evenodd;fill:#0d4f9e}.st6{clip-rule:evenodd}.st6{fill-rule:evenodd;fill:#231f20}.st7{fill-rule:evenodd;clip-rule:evenodd;fill:none;stroke:#0d4f9e;stroke-width:.8504;stroke-miterlimit:2.6131}.st8{fill:#0d4f9e}.st9{fill-rule:evenodd;clip-rule:evenodd;fill:none;stroke:#231f20;stroke-width:.8504;stroke-miterlimit:2.6131}.st10{stroke:#0d4f9e;stroke-width:.7087;stroke-miterlimit:2.6131}.st10,.st11{fill-rule:evenodd;clip-rule:evenodd;fill:none}.st11{stroke:#231f20;stroke-width:.7087;stroke-miterlimit:2.6131}.st13{clip-rule:evenodd}.st13{fill-rule:evenodd;fill:#fff}.st14{fill-rule:evenodd;fill:#e52529}.st14,.st15{clip-rule:evenodd;stroke:#0d4f9e;stroke-width:.7084;stroke-miterlimit:2.6131}.st15{fill-rule:evenodd;fill:none}.st16{fill-rule:evenodd;fill:#e52529;stroke:#0d4f9e;stroke-width:.7087;stroke-miterlimit:2.6131}.st16,.st17{clip-rule:evenodd}.st17{fill-rule:evenodd;fill:none;stroke:#10447f;stroke-width:.8504;stroke-miterlimit:2.6131}.st19{fill:#231f20}</style><g id="Calque_2"><path id="XMLID_15_" d="M99.3 5.3v140.9c0 2.9-2.3 5.2-5.2 5.2H5.3c-2.9 0-5.2-2.3-5.2-5.2V5.3C.1 2.4 2.4.1 5.3.1H94c2.9 0 5.3 2.4 5.3 5.2z" style="fill:#fff;stroke:#000;stroke-width:.25;stroke-miterlimit:2.6131"/></g><g id="Calque_1"><path class="st1" d="M552.8 134.6c-3.2-4.4-4.1-8-4.1-8s-.9 3.7-4.1 8c-3.2 4.4-6.2 5.6-6.2 5.6s3 1.2 6.2 5.6c3.2 4.4 4.1 8 4.1 8s.9-3.7 4.1-8c3.2-4.4 6.2-5.6 6.2-5.6s-2.9-1.3-6.2-5.6zM510.8 134.6c-3.2-4.4-4.1-8-4.1-8s-.9 3.7-4.1 8c-3.2 4.4-6.2 5.6-6.2 5.6s3 1.2 6.2 5.6c3.2 4.4 4.1 8 4.1 8s.9-3.7 4.1-8c3.2-4.4 6.2-5.6 6.2-5.6s-3-1.3-6.2-5.6zM531.8 177.1c-3.2-4.4-4.1-8-4.1-8s-.9 3.7-4.1 8c-3.2 4.4-6.2 5.6-6.2 5.6s3 1.2 6.2 5.6c3.2 4.4 4.1 8 4.1 8s.9-3.7 4.1-8c3.2-4.4 6.2-5.6 6.2-5.6s-3-1.2-6.2-5.6zM552.8 219.7c-3.2-4.4-4.1-8-4.1-8s-.9 3.7-4.1 8c-3.2 4.4-6.2 5.6-6.2 5.6s3 1.2 6.2 5.6c3.2 4.4 4.1 8 4.1 8s.9-3.7 4.1-8c3.2-4.4 6.2-5.6 6.2-5.6s-2.9-1.3-6.2-5.6zM510.8 219.7c-3.2-4.4-4.1-8-4.1-8s-.9 3.7-4.1 8c-3.2 4.4-6.2 5.6-6.2 5.6s3 1.2 6.2 5.6c3.2 4.4 4.1 8 4.1 8s.9-3.7 4.1-8c3.2-4.4 6.2-5.6 6.2-5.6s-3-1.3-6.2-5.6z"/><path class="st2" d="M486.7 117.5h7.8v1.8h-6l-.2 3s2.8-1.6 5.5.7c.5.4 2.9 2.9 1.4 7.8-.3 1-2 3.6-5.6 3.1-.2 0-2.9-.7-3.9-3.7l1.7-.4s1.3 2.7 3.1 2.5c.9-.1 3.3-.7 3.2-4.6 0-.3 0-3.7-2.9-4.2-1-.2-2.2 0-3.9 1.7l-.8-.5.6-7.2zM568.8 247.8h-7.9V246h6l.2-3s-2.8 1.6-5.5-.7c-.5-.4-2.9-2.9-1.4-7.8.3-1 2-3.6 5.6-3.1.2 0 2.9.7 3.9 3.7l-1.7.4s-1.3-2.7-3.1-2.5c-.9.1-3.3.7-3.2 4.6 0 .3 0 3.7 2.9 4.2 1 .2 2.2 0 3.9-1.7l.8.5-.5 7.2zM490.8 137.7s1.4 4.5 4.7 6.3c0 0-3.2 1.7-4.7 6.2-1.5-4.6-4.7-6.2-4.7-6.2 3.3-1.8 4.7-6.3 4.7-6.3zM564.7 227.6s-1.4-4.5-4.7-6.3c0 0 3.2-1.7 4.7-6.2 1.5 4.6 4.7 6.2 4.7 6.2-3.3 1.8-4.7 6.3-4.7 6.3z"/><path class="st1" d="M552.8 134.6c-3.2-4.4-4.1-8-4.1-8s-.9 3.7-4.1 8c-3.2 4.4-6.2 5.6-6.2 5.6s3 1.2 6.2 5.6c3.2 4.4 4.1 8 4.1 8s.9-3.7 4.1-8c3.2-4.4 6.2-5.6 6.2-5.6s-2.9-1.3-6.2-5.6zM510.8 134.6c-3.2-4.4-4.1-8-4.1-8s-.9 3.7-4.1 8c-3.2 4.4-6.2 5.6-6.2 5.6s3 1.2 6.2 5.6c3.2 4.4 4.1 8 4.1 8s.9-3.7 4.1-8c3.2-4.4 6.2-5.6 6.2-5.6s-3-1.3-6.2-5.6zM531.8 177.1c-3.2-4.4-4.1-8-4.1-8s-.9 3.7-4.1 8c-3.2 4.4-6.2 5.6-6.2 5.6s3 1.2 6.2 5.6c3.2 4.4 4.1 8 4.1 8s.9-3.7 4.1-8c3.2-4.4 6.2-5.6 6.2-5.6s-3-1.2-6.2-5.6zM552.8 219.7c-3.2-4.4-4.1-8-4.1-8s-.9 3.7-4.1 8c-3.2 4.4-6.2 5.6-6.2 5.6s3 1.2 6.2 5.6c3.2 4.4 4.1 8 4.1 8s.9-3.7 4.1-8c3.2-4.4 6.2-5.6 6.2-5.6s-2.9-1.3-6.2-5.6zM510.8 219.7c-3.2-4.4-4.1-8-4.1-8s-.9 3.7-4.1 8c-3.2 4.4-6.2 5.6-6.2 5.6s3 1.2 6.2 5.6c3.2 4.4 4.1 8 4.1 8s.9-3.7 4.1-8c3.2-4.4 6.2-5.6 6.2-5.6s-3-1.3-6.2-5.6z"/><path class="st2" d="M486.7 117.5h7.8v1.8h-6l-.2 3s2.8-1.6 5.5.7c.5.4 2.9 2.9 1.4 7.8-.3 1-2 3.6-5.6 3.1-.2 0-2.9-.7-3.9-3.7l1.7-.4s1.3 2.7 3.1 2.5c.9-.1 3.3-.7 3.2-4.6 0-.3 0-3.7-2.9-4.2-1-.2-2.2 0-3.9 1.7l-.8-.5.6-7.2zM568.8 247.8h-7.9V246h6l.2-3s-2.8 1.6-5.5-.7c-.5-.4-2.9-2.9-1.4-7.8.3-1 2-3.6 5.6-3.1.2 0 2.9.7 3.9 3.7l-1.7.4s-1.3-2.7-3.1-2.5c-.9.1-3.3.7-3.2 4.6 0 .3 0 3.7 2.9 4.2 1 .2 2.2 0 3.9-1.7l.8.5-.5 7.2zM490.8 137.7s1.4 4.5 4.7 6.3c0 0-3.2 1.7-4.7 6.2-1.5-4.6-4.7-6.2-4.7-6.2 3.3-1.8 4.7-6.3 4.7-6.3zM564.7 227.6s-1.4-4.5-4.7-6.3c0 0 3.2-1.7 4.7-6.2 1.5 4.6 4.7 6.2 4.7 6.2-3.3 1.8-4.7 6.3-4.7 6.3z"/><path class="st1" d="M552.8 134.6c-3.2-4.4-4.1-8-4.1-8s-.9 3.7-4.1 8c-3.2 4.4-6.2 5.6-6.2 5.6s3 1.2 6.2 5.6c3.2 4.4 4.1 8 4.1 8s.9-3.7 4.1-8c3.2-4.4 6.2-5.6 6.2-5.6s-2.9-1.3-6.2-5.6zM510.8 134.6c-3.2-4.4-4.1-8-4.1-8s-.9 3.7-4.1 8c-3.2 4.4-6.2 5.6-6.2 5.6s3 1.2 6.2 5.6c3.2 4.4 4.1 8 4.1 8s.9-3.7 4.1-8c3.2-4.4 6.2-5.6 6.2-5.6s-3-1.3-6.2-5.6zM531.8 177.1c-3.2-4.4-4.1-8-4.1-8s-.9 3.7-4.1 8c-3.2 4.4-6.2 5.6-6.2 5.6s3 1.2 6.2 5.6c3.2 4.4 4.1 8 4.1 8s.9-3.7 4.1-8c3.2-4.4 6.2-5.6 6.2-5.6s-3-1.2-6.2-5.6zM552.8 219.7c-3.2-4.4-4.1-8-4.1-8s-.9 3.7-4.1 8c-3.2 4.4-6.2 5.6-6.2 5.6s3 1.2 6.2 5.6c3.2 4.4 4.1 8 4.1 8s.9-3.7 4.1-8c3.2-4.4 6.2-5.6 6.2-5.6s-2.9-1.3-6.2-5.6zM510.8 219.7c-3.2-4.4-4.1-8-4.1-8s-.9 3.7-4.1 8c-3.2 4.4-6.2 5.6-6.2 5.6s3 1.2 6.2 5.6c3.2 4.4 4.1 8 4.1 8s.9-3.7 4.1-8c3.2-4.4 6.2-5.6 6.2-5.6s-3-1.3-6.2-5.6z"/><path class="st2" d="M486.7 117.5h7.8v1.8h-6l-.2 3s2.8-1.6 5.5.7c.5.4 2.9 2.9 1.4 7.8-.3 1-2 3.6-5.6 3.1-.2 0-2.9-.7-3.9-3.7l1.7-.4s1.3 2.7 3.1 2.5c.9-.1 3.3-.7 3.2-4.6 0-.3 0-3.7-2.9-4.2-1-.2-2.2 0-3.9 1.7l-.8-.5.6-7.2zM568.8 247.8h-7.9V246h6l.2-3s-2.8 1.6-5.5-.7c-.5-.4-2.9-2.9-1.4-7.8.3-1 2-3.6 5.6-3.1.2 0 2.9.7 3.9 3.7l-1.7.4s-1.3-2.7-3.1-2.5c-.9.1-3.3.7-3.2 4.6 0 .3 0 3.7 2.9 4.2 1 .2 2.2 0 3.9-1.7l.8.5-.5 7.2zM490.8 137.7s1.4 4.5 4.7 6.3c0 0-3.2 1.7-4.7 6.2-1.5-4.6-4.7-6.2-4.7-6.2 3.3-1.8 4.7-6.3 4.7-6.3zM564.7 227.6s-1.4-4.5-4.7-6.3c0 0 3.2-1.7 4.7-6.2 1.5 4.6 4.7 6.2 4.7 6.2-3.3 1.8-4.7 6.3-4.7 6.3z"/><g id="XMLID_14_"><path id="XMLID_333_" class="st3" d="M58.7 110.6c-3.5-.1-6-.6-9.8-2.4-6.6 1.5-9 1.8-13.2 1.6 0 0-4.9-8.3-8.4-10.8-3.5-2.4 7.8-.9 7.8-.9l27.7 1.1s-4.4 11.9-4.1 11.4z"/><path id="XMLID_332_" class="st3" d="m24.5 57.1 1.6-2.9h1.4l-2 3.7z"/><path id="XMLID_331_" class="st3" d="m19.9 69.3.7-.4.1-.7.3-1.2-.1-.7-1-.2-.5 1v1.2l-.1.8z"/><path class="st4" d="M19.5 65.9s-.5 2.4-.4 2.9c.1.5.4.8 1 .6.7-.3 1.1-2.2 1.1-2.4.3-.7-.9-1-1.7-1.1zm.5.3c.1-.2.9.4.9.4.1.5-.2 1.3-.4 1.3-.5.1-.3-.2-.4-.1-.3.3-.5 0-.5 0 .2-.3.2-1.4.4-1.6zm-.4 2.3c.3-.2.4-.1.6 0-.1.3-.2.7-.4.6-.3-.3-.2-.4-.2-.6z"/><path class="st4" d="m22.2 68 .2-.3-.5-.9.5-.9c-.1-.4-.3-.7 0-.7.2 0 .4-.2.3-.5-.1-.7 1.2-.5 1-1.5-.1-1.1.9-1.6.9-1.6s1.3-.1.8 1.1c-.4 1.1-.3 1.5-.3 1.5l.5.1s0-1.4.3-2.2c.2-.5-1.2-1.2-1.8-1.9-.7-.8-1.4-3.1-.1-2.6 1.3.4 1.6 1.2 1.6 1.2s3.6 2.8 3.6 3.9c0 .4.7.9.4-.1-.2-.8-1.3-2.5-2.3-3.2-1.3-.9-2.8-2.3-3.5-2.3-.7 0-1 .1-1.6.6-.5.4-.9.2-1.2.7-.3.5-.1.7-.8 1.2-.7.5-.8 1-.7 1.7.1.7-.5.3-.5 1.1-.1.8.5.8.3 1.3-.3.4-.7 1.1-.1 1.8s.3.7.3.7l1.8 1.1.9.7zm1.8-7.6c-1.4-.3-1.6.5-1.6.5s-1-.8-1.1-1.6c-.1-.8.3-.9.9-1.1.7-.2.9-.4.7.1-.1.4 1.1 2.1 1.1 2.1zm-1.2 1.7c-1.4 0-1.2.7-1.2.7-.4-.3-.9-.7-1.2-1.1-.3-.4-.5-1.1-.1-1.6.4-.4.5-.7.7-.2.2.5 1.8 2.2 1.8 2.2zm-1.5 1.1c.3.6-.4.9-.4.9-.4-.1-.6-.5-.9-.7-.3-.3-.5-.6-.4-1 .1-.4.3-.8.5-.5.3.3 1.2 1.3 1.2 1.3zm-.2 1.7c.2.4-.6.9-.6.9-.7-.2-1-.8-1.2-1.5-.1-.4.4-.8.6-.5.4.4 1.1.7 1.2 1.1zM20 66.2l.9.4c-.1 0-1.2-.5-.9-.4zm2.8-4.7c-.5-.8.7-.8 1.1-.6.4.3.1.8.1.8l-.6.3-.6-.5zm.4.9.2.5s.1.6-.1.7c-.2.2-.6.1-.9.1-.3 0-.7-.8-.4-1.1.4-.3.8-.4 1.2-.2zm-.9 1.9c.2.7-.6.6-.6.6l-.4-.4s.1-.1.2-.6.5-.1.5-.1l.3.5zm-1 1.1h.6l.2.4-.2.4s-.2.2-.5.2-.3-.5-.3-.5l.2-.5zm2.6-7.3c.2-.2.9 1 .9 1s-.5-.1-.8-.5c-.3-.4-.1-.5-.1-.5z"/><path id="XMLID_316_" class="st4" d="M73 60.4c2.5.7 5.4 2.1 8.5 4.6l.9-.6v-7.9c-2.1-.2-4.2-.6-6.1-1.4l-2.2 3.6h-.9l-.2 1.7z"/><path id="XMLID_315_" class="st4" d="M26.5 91.2c-2.6-.7-5.6-2.1-8.9-4.6l-1 .6v7.9c2.2.2 4.3.6 6.3 1.4l2.3-3.8h1l.3-1.5z"/><path id="XMLID_314_" class="st3" d="M18.2 86.1c2.4 2.5 5.9 4.2 10.4 4.7 9 1 17.1-7.6 17.2-14.1.1-6.5-1.1-8.6-2.8-10.8l.7-.8c.8 1.2 3 5.5 3 8.2.6 2.7-.4 9.1-4.8 13.1-4.3 4-11.9 9.6-24.2.3l.5-.6z"/><path id="XMLID_313_" d="M43.6 65.1c.8 1.2 3 5.5 3 8.2.6 2.7-.4 9.1-4.8 13.1-4.3 4-11.9 9.6-24.2.3" style="clip-rule:evenodd;fill-rule:evenodd;fill:none;stroke:#2aabe3;stroke-width:.7084;stroke-miterlimit:2.6131"/><path id="XMLID_312_" class="st3" d="M71.9 52.4H37.3l5-10.5h5c2.6 1.9 4.4 2.1 8.4 0h8.1c2.3 3.7 4.5 6.8 8.1 10.5z"/><path id="XMLID_311_" class="st1" d="M24.8 112.1c4.9 7.4 10.4 15.8 15.2 23.2h-4.1L22 113.7c.6-.4 1.7-.5 2.8-1.6z"/><path id="XMLID_310_" class="st1" d="M74.8 39.4c-4.9-7.4-10.1-15.7-15-23.2h3.8l13.9 21.6c-.7.5-1.7.6-2.7 1.6z"/><path id="XMLID_309_" class="st4" d="m24.3 48.7-.7-1.9 2 1c.7-1.6 3.4-1.3 3.8.1l2.2-.8-1.1 2.1c1.3 1 1 3.2-.5 3.5l.5 1.8-1.4-.7c-1.2 1.5-2.5 1.4-3.8-.1l-1.8.8.9-1.7c-1.1-.6-1.9-3-.1-4.1z"/><path id="XMLID_308_" class="st4" d="m24.3 48.7 1.2-.9c.7-1.6 3.4-1.3 3.8.1l1.2 1.2c1.3 1 1 3.2-.5 3.5l-.9 1.2c-1.2 1.5-2.5 1.4-3.8-.1l-.9-1c-1.1-.5-1.9-2.9-.1-4z"/><path id="XMLID_307_" class="st3" d="M48.1 73h-1.4c-.1-.9-.4-1.3-.4-2.2.1-5.8 1.9-12.8 6.1-18.4H55c-1.9 3.4-3.5 6.9-4.6 10.3-1.2 3.4-1.9 6.9-2.3 10.3z"/><path id="XMLID_306_" class="st6" d="M44 28.8c.3 5.5 1.2 10.2 3.2 12.8l.7.9-5.5-.1L44 28.8z"/><path id="XMLID_305_" class="st6" d="M82.6 49.9c-.9-.7-1.4-1.4-2-2.4C74 38.1 67 26.3 60.2 15.8h-2.5c6.5 13.5 9.9 17.6 14.7 26.9 4.8 9.2 6.1 10.7 10 11.7l.2-4.5z"/><path id="XMLID_304_" class="st7" d="M60.2 16.3h3.3l13.9 21.6c-.6.4-1.5.4-2.5 1.4"/><path id="XMLID_303_" class="st3" d="M82.3 38v-4c-2.6-1.3-4.7-10.8-3.7-17.7H63.5l13.7 21.6c-1.4-.1 5.1-1.2 5.1.1z"/><path id="XMLID_302_" class="st8" d="M49.9 16.3c-.3 1.4-1.1 3.4-2.3 5.1-1 1.4-2.1 2.6-3.3 3.2l-.3-.5c1.1-.5 2.2-1.6 3.1-3 1.1-1.7 2-3.6 2.2-4.9l.6.1z"/><path class="st8" d="M72.9 52.7c2.1.9 3.4 1 4.6 1.2.2 0 .4.1.6.1l-.4-.4c-1.9-2-4.9-2-7.4-3.3.8.8 1.7 1.7 2.6 2.4zm-27-36.6c0 .8-.2 1.5-.6 2.1-.3.6-.8 1-1.2 1.4l-.4-.4c.4-.4.8-.8 1.1-1.3.3-.5.5-1.1.5-1.8h.6zm1.4 0h-.5c0 .8-.4 1.7-.9 2.5-.6 1-1.4 1.8-2 2.1l.3.5c.6-.4 1.5-1.2 2.2-2.3.5-.9.9-1.8.9-2.8zm1.2 0H48c-.2 1.3-.8 2.7-1.6 3.9-.7 1.1-1.5 1.9-2.4 2.4l.2.5c1-.5 1.9-1.5 2.6-2.6.9-1.3 1.5-2.9 1.7-4.2zm1.4 0c.1 1.4.9 3.4 2.6 5 1.2 1.2 2.8 2.2 4.9 2.7-.1-.3-.1-.6-.2-.9-1.6-.4-3.1-1.3-4.3-2.4-1.2-1.2-2.1-2.7-2.4-4.4l.5-.1c.2 1.5 1.1 3 2.2 4.1 1.1 1 2.4 1.8 3.8 2.2-.1-.3-.1-.6-.2-.8-1.5-.5-2.6-1.3-3.4-2.1-1-1-1.6-2.2-1.6-3.3h.5c.1 1 .6 2 1.5 3 .7.7 1.7 1.4 3 1.9-.1-.4-.1-.8-.2-1.1-.9-.3-1.7-.8-2.3-1.5-.6-.6-.9-1.4-1-2.2h.5c0 .7.3 1.3.8 1.9.5.5 1.1 1 1.8 1.2 0-.2-.1-.5-.1-.7-.4-.1-.8-.4-1.1-.8-.3-.4-.5-.9-.5-1.6h.5c0 .5.2.9.4 1.3l.6.6c-.1-.7-.1-1.3-.2-1.8h.5c0 .8.1 1.7.3 2.7l1.8 1.5-2-4.3h.5c4.8 9.9 9.4 19.8 15.2 29.1 2.7 4.3 4.2 6.7 5.5 8 1.3 1.3 2.4 1.7 4.3 2.2l-.1.5c-1.8-.4-3.1-1.3-4.8-1.5-.8-.1-1.8-.2-3-.6.3.2.6.4.9.5 2.2 1.2 4.5 1.8 7 1.7v.5c-2.6 0-4.9-.5-7.2-1.8-.8-.5-1.6-1-2.4-1.6-.1 0-.2-.1-.3-.1V53c-1.4-1.1-2.8-2.6-4.3-4.4-5.7-6.9-8.6-15.6-10.6-24.2-2.3-.5-4.1-1.6-5.4-2.9-1.7-1.7-2.6-3.8-2.7-5.4h.7zm7.9 7.6 4.4 3.7c-1.1-2.3-2.8-3.4-4.7-5.1.1.4.2.9.3 1.4zm-.4-2.3 3.5 3.1c-1.2-2.4-1.7-3.3-3.8-5 0 .7.1 1.3.3 1.9zm18.8 30.4c-2.3-.5-6-1.5-7.7-3.5-.4-.5-.9-1.1-1.3-1.7 1.4.9 2.6 1.7 3.7 2.3 2.1 1.1 3.9 1 5.3 2.9zm-5-3.4c1.2.6 2.4 1.1 3.7 1.5-1.4-2.1-3.9-2.6-6-4-1.3-.9-2.6-1.8-3.9-2.9 1.5 2.8 3.4 3.9 6.2 5.4zm-2.1-2.9c1.5 1 3 1.8 4.5 2.5-1.7-2.6-3.6-3-6.2-4.7-1.3-.9-2.6-1.8-3.8-2.9 1.1 2.3 3.4 3.7 5.5 5.1zm-1.4-2.6c1.4.9 2.7 1.7 4.2 2.4-.4-.6-.8-1.2-1.1-1.8-1.6-.6-3.3-1.6-4.9-2.8-1.3-1-2.5-2.1-3.6-3.1 1 2.4 3.1 3.7 5.4 5.3zm-5.9-6.7c1.3 1.3 2.9 2.7 4.5 3.9 1.4 1 2.8 1.9 4.1 2.5-.4-.7-.9-1.5-1.3-2.2-3.1-1-5.7-3.3-7.9-5.7.2.6.4 1.1.6 1.5zm-1.1-2.8c2.1 2.6 4.8 5.1 8 6.4-.3-.6-.7-1.2-1-1.8-1.2-.6-2.8-1.7-4.4-3.1-1.2-1-2.3-2.1-3.2-3.2.2.6.4 1.2.6 1.7zm6.5 3.7c-.4-.7-.7-1.4-1.1-2.1-2.5-1.4-4.9-3.6-6.8-5.8 1 3.2 5.1 6.2 7.9 7.9zm-8.3-9.2c1.8 2.4 4.2 4.7 6.7 6.2-.4-.7-.8-1.5-1.2-2.3-2.2-1.4-4.1-3.2-5.8-5.1.1.5.2.8.3 1.2zm-.5-2.1c1.7 1.8 3.6 3.6 5.6 5.1-1.5-2.9-3.4-4.3-5.9-6.4 0 .4.1.9.3 1.3z"/><path id="XMLID_285_" class="st6" d="M63.9 16.3h1.7l-.7.9z"/><path id="XMLID_284_" class="st6" d="M66.9 16.3h1c-.2.6 1.1 1.5.1 1.6-.9.2-.8-.9-1.1-1.6z"/><path id="XMLID_283_" class="st9" d="M66.2 16.6s-.3 3.1 4.2 5.2c.1.4-1.3 5.2 4.7 7-.3 2.2.6 4.9 2.8 5.6-.2 1.9.3 2.6 1 3"/><path id="XMLID_282_" transform="rotate(-133.22 68.755 22.739)" class="st6" d="M68.4 22.4h.8v.8h-.8z"/><path id="XMLID_281_" transform="rotate(-133.173 73.541 29.733)" class="st6" d="M73.2 29.4h.8v.8h-.8z"/><path id="XMLID_280_" transform="scale(-1) rotate(57.604 64.464 -139.793)" class="st6" d="M76.5 35.1h.8v.8h-.8z"/><circle id="XMLID_279_" class="st6" cx="73.9" cy="23.1" r=".5"/><circle id="XMLID_278_" class="st6" cx="78.2" cy="30.1" r=".5"/><circle id="XMLID_277_" class="st6" cx="70.5" cy="18.1" r=".5"/><circle id="XMLID_276_" class="st6" cx="74.8" cy="25.1" r=".5"/><circle id="XMLID_275_" class="st6" cx="79.1" cy="31.9" r=".5"/><path id="XMLID_274_" class="st6" d="m72.4 19.6.3-1.5c.2-.5-1.3-.7-1 .3.3.9.8 1 .7 1.2z"/><path id="XMLID_273_" class="st6" d="M76.7 26.5 77 25c.2-.5-1.3-.7-1 .3.2 1 .8 1.1.7 1.2z"/><path id="XMLID_272_" class="st6" d="m73.1 21 .9 1.2c.2.5 1.4-.5.5-.9-.9-.5-1.4-.2-1.4-.3z"/><path id="XMLID_271_" class="st6" d="m77.4 28 .9 1.2c.2.5 1.4-.5.5-.9-.9-.5-1.4-.2-1.4-.3z"/><path id="XMLID_270_" class="st6" d="m72.7 20.2 1.8-.4c.6 0 .4-1.8-.6-1-1.1.8-1 1.5-1.2 1.4z"/><path id="XMLID_269_" class="st6" d="m77 27.2 1.8-.4c.6 0 .4-1.8-.6-1-1.1.8-1 1.5-1.2 1.4z"/><path id="XMLID_268_" class="st6" d="m71.6 19.6 1.3 2.1s-1.1.6-1.1 1.3c0 .7.1.7.4.7.3-.1.8.8.3 1-.5.1-1.3-.7-1.1-1.8.2-1.1.8-2.1.8-2.1s-1 .1-1.9-.1c-.8-.1-1.5-.5-1.6-.9-.3-.9.3-1.1.7-1 .4.1-.4 1.2.5 1.2.7 0 1 0 1.7-.4z"/><path id="XMLID_267_" class="st6" d="m75.9 26.5 1.3 2.1s-1.1.6-1.1 1.3c0 .7.1.7.4.7.3-.1.8.8.3 1-.5.1-1.3-.7-1.1-1.8.1-1.1.8-2.1.8-2.1s-1 .1-1.9-.1c-.8-.1-1.5-.5-1.6-.9-.3-.9.3-1.1.7-1 .4.1-.4 1.2.5 1.2.7.1 1 .1 1.7-.4z"/><path id="XMLID_266_" class="st6" d="m80.1 33.3.6 1c-.8 1.1-1.1 1.6-1.4 2.2-.3-.7.2-1.6.6-2.3 0 0-.2.3-1.1.1-.8-.1-1.5-.5-1.6-.9-.3-.9.3-1.1.7-1 .4.1-.4 1.2.5 1.2.8.2 1 .1 1.7-.3z"/><path class="st4" d="M44.4 27.2c2-.8 3.9.7 3.9.7-1.7-.5-3-.3-3.9 0v-.7zm.1 2.9c1.1.8 3.1-.2 3.2-.1.1.1-.6 1.1-1.3 1.6-.2.3 1.2-.6 1.2-.6l-.6 1.4s-.4 1.3.1 1.6c.5.2 1.3.5 1.7 1l-.1-.8s-.1-.1-.9-.4c-.7-.3-.3-1.6-.3-1.6s.4-1.5 1.1-3.5c.7-2-.2-3.1-1.1-3.7-.7-.4-2.5-.2-3.3-.1v-8.6h-.5v1.5c0 9.5 0 19.6 3.2 23.9.1.2.3.4.5.5 1.4 1.4 3.3 1.6 5.4 1.1.6-.2 1.3-.4 1.9-.7h9.6l-.6-1.3h-6.6c.6-.4 1.2-.8 1.7-1.2 1.2-.9 2.3-1.9 3.3-2.9l-.4-.4c-1 1-2.1 1.9-3.2 2.8-1.9 1.4-3.9 2.6-5.8 3.2-1.9.5-3.6.3-4.8-.9-.1-.1-.3-.3-.4-.5-1.9-2.3-2.6-6.5-3-11.3zm-.2-4.3v1c1.9-.8 4.1.3 4.1.6 0 .4.6-1.3-1-1.9-.9-.4-2.3 0-3.1.3zm.4 3.1.6-.2s.1.6.8.6c.7 0 .6-.7.6-.7s.4-.1.5.1c.1.2.1.6-.2.9-.7.7-2.2.8-2.3-.7zm7.8-.4.6-.2s0 .7.9.8c.9 0 .9-.8.9-.8s.4-.1.5.1c.1.2.1.7-.4 1.1-.6.4-2.4.3-2.5-1zm-5 0c.4-.1.7.2.9.6l-.9.4v-1zm8.3-.1c.4-.1.7.1 1 .2l-1 .6v-.8zm-3.9-3.6c.4-.2 2.1-.7 4.2-.1 2 .7 2.1 1.1 2.1 1.1s-1.3-.5-2.8-.8c-1.5-.3-2.3.1-3.3.6-1.1.4-.6-.6-.2-.8zm2 6.9-.3.1s-2.3-2-1.9-2.7c.4-.6 0-.6 0-.6l-.2-.7s1.1-1.9 3.1-1.6c1.9.3 2.6 1.2 3.4 1.7h.5l.2.7h-1.4s-.9.6-1.7.9c-.8.3-1.9.7-3.1-.1-.2.5-.2.9 1.4 2.3zm-1.6-4s.9-1.2 2.5-.9c1.6.2 2.5 1 2.7 1.7-.2-.7-4-1.7-5.2-.8zm-3.5 5.6s-.2-.6.8-.4c.2 0 .7.8 1.4.8.6 0 1.2.3 1-.7-.3-1.3.4-.1.3.5-.1.6-.7.7-1.5.6-.9 0-1.7-.4-2-.8zm-2.1 3.2c-.2-.7.3.1.8 0 .5-.2.6-.4 1.2-.2s1 .2 1.7 0c.6-.2 1 0 1.4.1.4 0 .6 0 1-.4s.4.8.4.8.5 1.2 0 .8c-.7-.6-1.4-.7-2.1-.4-.7.3-.9.8-2 .3-1.1-.4-1.6.4-1.6.4l-.8-1.4zm1.8 1.6s.7.3 1.4.2c.7-.1 1.2-.2 1.2-.2s-.7.6-1.3.5c-.5 0-.7.1-1.3-.5zm-.1 1.4c.8-.6 1.1-.6 2-.5.9.1 1.3.8 1.3.8s-1.1-.4-1.7-.5c-.7-.1-1.6.2-1.6.2z"/><path id="XMLID_251_" class="st10" d="M41.7 44.4h23.6"/><path id="XMLID_250_" class="st6" d="M44.4 46.2h2.3l-1.3 1.9h-2.3z"/><path id="XMLID_249_" class="st6" d="M60.3 51.1H58l1.3-2h2.3z"/><path id="XMLID_248_" class="st6" d="M67.2 51.1h-2.3l1.4-2h2.3z"/><path id="XMLID_247_" class="st6" d="M50.9 46.2h2.3l-1.3 1.9h-2.3z"/><path id="XMLID_246_" class="st6" d="M53.7 51.1h-2.2l1.3-2h2.3z"/><path id="XMLID_245_" class="st6" d="M57.8 46.2h2.3l-1.4 1.9h-2.3z"/><path id="XMLID_244_" class="st6" d="M47.1 51.1h-2.3l1.3-2h2.3z"/><path id="XMLID_243_" class="st6" d="M64.6 46.2h2.3l-1.4 1.9h-2.3z"/><path id="XMLID_242_" class="st6" d="M41.1 51.1h-2.3l1.3-2h2.3z"/><path id="XMLID_241_" class="st11" d="M40.8 46.2h25.9"/><path id="XMLID_240_" class="st11" d="M70.5 51H38.2"/><path id="XMLID_239_" class="st3" d="M39.5 64.7c2.4-1 4-3.4 4-6.2 0-6.2-7.4-6.3-4.2-6.3h4.1c1.7 1.2 2.9 4.2 2.7 7-.2 2.7-2 6-4.6 7.8l-2-2.3z"/><path id="XMLID_238_" d="M41.7 52.2c1.7 1.2 2.9 4.2 2.7 7-.2 2.7-1.9 5.6-3.8 6.6" style="clip-rule:evenodd;fill-rule:evenodd;fill:none;stroke:#2aabe3;stroke-width:.7087;stroke-miterlimit:2.6131"/><path id="XMLID_237_" class="st4" d="m36 53 .5 1.4-1.9 4.1 4.1 5c1.6-.9 2.7-2.8 2.7-5 0-3.1-2.1-5.6-4.6-5.6-.4 0-.6.1-.8.1z"/><path id="XMLID_236_" class="st6" d="m39.5 64.7-.9-1.2c1.6-.9 2.7-2.8 2.7-5 0-3.1-2.1-5.6-4.6-5.6-2 0 .5-.4 2.3-.9 2.7.9 4.6 3.4 4.6 6.5 0 2.8-1.7 5.2-4.1 6.2z"/><path id="XMLID_235_" class="st11" d="M71.9 52.4H37.7"/><path id="XMLID_234_" class="st1" d="M51.3 73h.9c1.7-6.5 6-12.4 13-13.6 7-1.2 9.4-.6 9.4-.6l2.1-3.5c-1.8 0-4.8-2.9-4.8-2.9h-8.7c-1.7-.1-5 3.5-7.6 8-2.4 4.2-4.4 9.5-4.3 12.6z"/><path id="XMLID_233_" class="st10" d="M52.2 73c1.7-6.5 6-12.4 13-13.6 7-1.2 9.4-.6 9.4-.6l2.1-3.5"/><path id="XMLID_232_" class="st6" d="M51.3 73H48c.4-7.5 2.3-14 7-20.7h8.3c-1.7-.1-5 3.5-7.6 8-2.5 4.3-4.5 9.6-4.4 12.7z"/><path id="XMLID_231_" class="st6" d="M46.6 71c-.2-1.6-1.4-4.2-2.7-6.5 2.9-5.1 2.6-8.3-.2-12.2h8.8c-1.6 2.8-2 4.1-3.6 8.5-1.8 4.5-2.1 8.1-2.3 10.2z"/><path id="XMLID_230_" class="st11" d="M46.6 71c-.2-1.6-1.4-4.2-2.7-6.5"/><path id="XMLID_229_" class="st13" d="m56.6 63.6 2.6-2.2s.2-1.6-.7-1.8c-.9-.2-2 .4-1.3 1.9-.4.1-2.3.7-.6 2.1z"/><path id="XMLID_228_" class="st13" d="M63.1 56.7s.3 1.6 1.3 1.3c1-.2.7-1 .6-2 .9-.8 0-3.2-1.9-1.6-2.3-.3-3.1 2.4 0 2.3z"/><path id="XMLID_227_" class="st13" d="M70 57.5s.4.8 1.3.6c.9-.2.6-.8.5-1.8.9-.8-.4-3-2-1.3-2.3-.5-2.9 2.6.2 2.5z"/><path id="XMLID_226_" class="st3" d="M57.8 56.8h-3.5l-.5 1.1H57c-.6.8-1.1 1.6-1.6 2.4h-2.7l-.5.7H55c-.6 1-1.1 1.9-1.5 2.7h-2.2l-.3.7h2.1c-.5 1-.8 1.9-1.1 2.7h-1.7l-.3.5h1.8c-.3.9-.5 1.8-.6 2.5h-1.7l-.1.5h1.8c-.1.7-.2 1.4-.3 2h-1.5l-.2.4h-.6c0-.4.1-.8.1-1.1H50l.3-.5h-1.5c.1-.7.2-1.4.3-2.2h1.4l.3-.8h-1.5c.1-.9.3-1.7.5-2.6h1.5l.4-.7h-1.8c.2-.8.4-1.7.6-2.5h2.4l.5-.9h-2.5l.3-.9c.2-.5.4-1 .6-1.4h2.7l.5-.7h-2.8c.5-1.1 1.1-2.1 1.6-3H57l.5-.6h-3.3c.6-.9 1.1-1.8 1.6-2.8h1.9L56.5 54h3.4c-.9 1-1.5 1.9-2.1 2.8z"/><path class="st3" d="M45.3 67.5c.4.9.7 1.8 1 2.5v-.8c0-.5 0-1.1.1-1.6h-1.1v-.1zm-.8-1.7c.2.4.4.8.6 1.1h1.4c.1-.8.3-1.7.5-2.7h-2.1l.1-.7h2.2c.2-.8.5-1.7.9-2.7h-2.4c-.1.3-.2.6-.3.8h1l-.3.9H45c-.3.7-.7 1.4-1.2 2 .1.2.2.3.3.5h1.4l-.2.7h-.8v.1zm1.6-6.4c0 .3-.1.5-.1.8h2.5c.3-.8.7-1.5 1.1-2.4h-3.2l.2-1.1h2.9c.4-.8.9-1.7 1.4-2.7H48l.8-1.7h-1.9c-.3 1-.7 1.9-1.1 2.8h3.3l-.4.6h-3c.3.9.4 2 .4 3h1.3l-.3.7h-1z"/><path id="XMLID_222_" class="st11" d="M43.5 52.1c1.7 1.2 2.9 4.2 2.7 7-.2 2.7-2 6-4.6 7.8"/><path id="XMLID_221_" class="st10" d="M43.6 65.1c.8 1.2 3 5.5 3 8.2.6 2.7-.4 9.1-4.8 13.1-4.3 4-11.9 9.6-24.2.3"/><path id="XMLID_220_" class="st6" d="m39.3 68.9 3.7-3c1.7 2.2 2.9 4.3 2.8 10.8-.1 6.5-8.1 15-17.2 14.1-4.4-.5-7.9-2.1-10.4-4.7l4-3.2c1.5 1.5 3.4 2.7 7.7 3 4.4.3 10.7-4.3 11-10.7.1-2.5-1-4.9-1.6-6.3z"/><path id="XMLID_219_" class="st3" d="m23.5 81.7-1.3 1.1c1.5 1.5 3.4 2.7 7.7 3 4.4.3 10.7-4.3 11-10.7.1-2.4-1-4.8-1.6-6.2l-1.6 1.3c.5 1.3 1.1 3.1 1.1 4.7-.3 6-5.2 9.2-9.2 9-2.8-.2-4.7-1.1-6.1-2.2z"/><path id="XMLID_218_" class="st4" d="m34.6 72.7 3.1-2.5c.5 1.3 1.1 3.1 1.1 4.7-.3 6-5.2 9.2-9.2 9-2.7-.2-4.6-1.1-6-2.2l3.1-2.5c.7.6 1.8 1.2 3.3 1.3 2.1.1 4.8-1.8 5.1-3.9.2-2.1-.2-3.2-.5-3.9z"/><path id="XMLID_217_" class="st1" d="M34.5 72.6c.3.7.8 1.8.5 4-.3 2.2-3 4.1-5.1 3.9-1.6-.1-2.7-.7-3.4-1.4l8-6.5z"/><path id="XMLID_216_" class="st3" d="m16.7 85.4 22.7-18.7 1.1 1.2-23.8 19.4z"/><path id="XMLID_215_" class="st4" d="M35.2 61.4 16.7 76.5v6.9l22-17.9z"/><path id="XMLID_214_" class="st14" d="M34.6 60.6 17 74.7v-2.4l16.5-13z"/><path class="st13" d="M32 67c.5 0 .9.4.9.9s-.4.9-.9.9-.9-.4-.9-.9.4-.9.9-.9zm-11.5 9.3c-.3-.3-.8-.4-1.2-.4-1.1 0-2.1.9-2.1 2.1 0 1.1.9 2.1 2.1 2.1 1.1 0 2.1-.9 2.1-2.1 0-.3-.1-.5-.1-.8l.3-.2.1.1c.4.4 1 .6 1.5.2.5-.3.6-1 .2-1.5l-.2-.2 1.5-1.2c.3.3.8.4 1.3.4 1.1 0 2-.9 2-2 0-.3-.1-.7-.2-.9l.2-.2.4.4c.4.4 1 .6 1.5.2.5-.3.6-1 .2-1.5l-.5-.5 1.3-1.1c.3.3.8.4 1.2.4 1.1 0 2-.9 2-2 0-.3-.1-.7-.2-1l.3-.3.3.4c.4.4.9.7 1.4.4.5-.3.7-1 .4-1.4l-.5-.6 1.6-1.3-.7-.9-1.7 1.5-.3-.4c-.4-.4-.9-.7-1.4-.4-.5.3-.7 1-.4 1.4l.5.6-.4.4c-.3-.2-.6-.3-1-.3-1.1 0-2 .9-2 2 0 .2 0 .5.1.7l-1.4 1.2-.4-.4c-.4-.4-1-.6-1.5-.2-.5.3-.6 1-.2 1.5l.4.5-.2.2c-.3-.2-.6-.3-1-.3-1.1 0-2 .9-2 2 0 .2 0 .4.1.6l-1.5 1.3-.4-.5c-.4-.4-1-.6-1.5-.2-.5.3-.6 1-.2 1.5l.4.5-.2.2zm0-2.2zm6.3-5.1zm6.4-5.4zM25.8 72c.5 0 .9.4.9.9s-.4.9-.9.9-.9-.4-.9-.9c.1-.5.4-.9.9-.9zm-6.6 5.1c.5 0 .9.4.9.9s-.4.9-.9.9-.9-.4-.9-.9c.1-.5.5-.9.9-.9z"/><path id="XMLID_206_" class="st3" d="M25 52.3c.7 0 1.2-.7 1.2-1.6 0-.9-.6-1.6-1.2-1.6-.7 0-1.2.7-1.2 1.6 0 .8.6 1.6 1.2 1.6z"/><path id="XMLID_205_" class="st3" d="M28.7 48.5c0 .8-.6 1.5-1.3 1.5-.7 0-1.4-.6-1.4-1.4 0-.8.6-1.5 1.3-1.5.8-.1 1.4.6 1.4 1.4z"/><path id="XMLID_204_" class="st3" d="M30.1 52.2c-.7.3-1.5-.1-1.9-.8-.4-.7-.1-1.6.6-1.9.7-.3 1.5.1 1.9.8.4.8.1 1.6-.6 1.9z"/><path id="XMLID_203_" class="st3" d="M25.9 53.7c-.3-.7-.1-1.4.7-1.8.8-.4 1.7-.1 2 .6.3.7.1 1.4-.7 1.8-.7.3-1.6.1-2-.6z"/><path id="XMLID_202_" class="st3" d="m27.2 49.4 1.1 1.3-1.1.9-1.3-1.1z"/><path id="XMLID_201_" class="st4" d="M25.6 50.4h2.9v.4h-2.9z"/><path id="XMLID_200_" class="st4" d="M27 49.2h.4v2.9H27z"/><path id="XMLID_199_" class="st3" d="M21.4 84.2 20 85.6l.5 1.9 1.4.8-.2-1.7c1.4.7 1.4 1.7 1.9 2.4l1.6.6-.7-1.5 1.6.6 1.6 1.6h1.5l-1-1.4h.9c.8.4 1.3 1 2.2 1.3l1.6-.2-1.3-1.1 1.3-.2 1.8.9c.5-.2 1-.4 1.4-.7-.4-.3-.9-.6-1.3-.8l1.5-.6 2 .3c.5-.3.9-.6 1.3-1.1l-1.3-.4 1.3-1.1 1.7-.1 1-1.2-1.3-.2c.9-1.8 1.3-1.6 2.8-2.2l.6-1.5-1.6.4.4-1.3c.6-.3 1.2-.6 1.7-1 .2-.5.2-1 .2-1.5l-1.4.7V76l1.4-2.4-.1-1.9-1.4 1.8-.3-1.7 1.2-2-.6-1.4-1.2 1.6c-.3-.8-.5-1.6-.9-2.4l-1 .8.6 1.9-1.2-.5c.2.6.3 1.2.7 1.6.3.2.6.6 1.2 1l.1 1.2-1.1-.7v1.5l1.3 1.2v1.3h-.1L41 75.7c-.1.5-.1 1-.1 1.5l1 1.6-.3 1-1.1-1.6c-.2.5-.3 1-.6 1.5l.6 1.7-.5 1.1-.4-1.7-1 1.2.1 2.1-.9.7.1-1.8-1.3.9-.3 1.9-1.4.7.5-1.6-1.4.6s-.8 2-2.2 2l.7-1.4c.1-.2-1-.2-1.4 0L30 87.6h-1.3l1.2-1.3h-1.7l-1.6 1.1-1.3-.4 1.8-.8-2.2-.8-1.9.5-1-.6 2.1-.4c-.1 0-1-1.1-2.7-.7z"/><path id="XMLID_198_" class="st15" d="m27.1 54.6-1.5 3.1"/><path id="XMLID_197_" class="st3" d="M24.6 56.9c-.8 0-.7-1.5-2.1-2.4-1.5-.9-3.5-2.2-3.5-2.2s-.9 2.3.8 3.7c1.7 1.4 3.2 1.4 3.2 1.4l1.6-.5z"/><path id="XMLID_196_" class="st15" d="m25.9 54-1.2 3.2"/><path id="XMLID_195_" class="st16" d="M42.5 16.3c0 5.4-1 14.3-5.9 22.7-3.5 6.1-1.8 13.3-.2 15.3 3.6-6.9 6.1-11.2 6.1-11.6.5-8.8 2.2-13.8 1.5-26.4h-1.5z"/><path id="XMLID_194_" class="st4" d="M20.5 54.6c1.1.8 2.2 1.5 3.5 2l.4.3-.3.3s-4-2-3.6-2.6z"/><path id="XMLID_193_" class="st3" d="M25.7 57.9s1.2-1.5 2.1-1.5c1-.1 5.2 0 5.2 0s-.5 1.3-1.6 1.8c-1.2.5-3.4.1-3.9.6-.6.5-.6.4-.6.4l-1.2-1.3z"/><path id="XMLID_192_" class="st4" d="M26.6 58.7s.9-.8 1.7-1c.8-.2 2.8-.5 2.2-.5-.6 0-3.6 0-4.2 1.2-.3.5.3.3.3.3z"/><path class="st4" d="m27.2 48.8 1.8 2-1.8 1.4-2-1.7 2-1.7zm0 .6-1.3 1.1 1.3 1.1 1.2-.9-1.2-1.3z"/><path id="XMLID_189_" class="st3" d="m74.9 94.5-1.6 2.9h-1.4l2-3.7z"/><path id="XMLID_188_" class="st3" d="m79.5 82.3-.7.4-.1.7-.3 1.2.1.7 1.1.2.4-1v-1.2l.1-.8z"/><path class="st4" d="M79.9 85.7s.5-2.4.4-2.9c-.1-.5-.4-.8-1-.6-.7.3-1.1 2.2-1.1 2.4-.3.7.9 1 1.7 1.1zm-.4-.3c-.1.2-.9-.4-.9-.4-.1-.5.2-1.3.4-1.3.5-.1.3.2.4.1.3-.3.5 0 .5 0-.3.3-.3 1.4-.4 1.6zm.3-2.3c-.3.2-.4.1-.6 0 .1-.3.2-.7.4-.6.3.3.3.4.2.6z"/><path class="st4" d="m77.2 83.6-.2.3.5.9-.5.9c.1.4.3.7 0 .7-.2 0-.4.2-.3.5.1.7-1.2.5-1 1.5.1 1.1-.9 1.6-.9 1.6s-1.3.1-.8-1.1c.4-1.1.3-1.5.3-1.5l-.5-.1s0 1.4-.3 2.2c-.2.5 1.2 1.2 1.8 1.9.7.8 1.4 3.1.1 2.6-1.3-.4-1.6-1.2-1.6-1.2s-3.6-2.8-3.6-4c0-.4-.7-.8-.4.1.2.8 1.3 2.5 2.3 3.2 1.3.9 2.8 2.3 3.5 2.3.7 0 1-.1 1.6-.6.5-.4.9-.2 1.2-.7.3-.5.1-.7.8-1.2.7-.5.8-1 .7-1.7-.1-.7.5-.3.5-1.1.1-.8-.5-.8-.3-1.3.3-.4.7-1.1.1-1.8s-.3-.7-.3-.7l-1.8-1.1-.9-.6zm-1.8 7.6c1.4.3 1.6-.5 1.6-.5s1 .8 1.1 1.6c.1.8-.3.9-.9 1.1-.7.2-.9.4-.7-.1.1-.4-1.1-2.1-1.1-2.1zm1.2-1.7c1.4 0 1.2-.7 1.2-.7.4.3.9.7 1.2 1.1.3.4.5 1.1.1 1.6-.4.4-.5.7-.7.2-.2-.5-1.8-2.2-1.8-2.2zm1.5-1.1c-.3-.6.4-.9.4-.9.4.1.6.5.9.7.3.3.5.6.4 1-.1.4-.3.8-.5.5-.3-.3-1.2-1.3-1.2-1.3zm.2-1.7c-.2-.4.6-.9.6-.9.7.2 1 .8 1.2 1.5.1.4-.4.8-.6.5-.4-.4-1.1-.7-1.2-1.1zm1.2-1.3-.9-.4s1.1.5.9.4zm-2.9 4.7c.5.8-.7.8-1.1.6-.4-.3-.1-.8-.1-.8l.6-.3.6.5zm-.3-.9-.3-.5s-.1-.6.1-.7c.2-.2.6-.1.9-.1.3 0 .7.8.4 1.1-.4.3-.8.4-1.1.2zm.8-1.9c-.2-.7.6-.6.6-.6l.4.4s-.1.1-.2.6-.5.1-.5.1l-.3-.5zm1-1.1h-.6l-.2-.4.2-.4s.2-.2.5-.2.3.5.3.5l-.2.5zm-2.6 7.3c-.2.2-.9-1-.9-1s.5.2.8.5c.3.4.1.5.1.5z"/><path id="XMLID_173_" class="st4" d="m75.1 102.9.7 1.9-2-1c-.7 1.6-3.4 1.3-3.8-.1l-2.2.8 1.1-2.1c-1.3-1-1-3.2.5-3.5l-.5-1.8 1.4.7c1.2-1.5 2.5-1.4 3.8.1l1.8-.8-.9 1.7c1.1.6 1.9 3 .1 4.1z"/><path id="XMLID_172_" class="st4" d="m75.1 102.9-1.2.9c-.7 1.6-3.4 1.3-3.8-.1l-1.2-1.2c-1.3-1-1-3.2.5-3.5l.9-1.2c1.2-1.5 2.5-1.4 3.8.1l.9 1c1.1.5 1.9 2.9.1 4z"/><ellipse id="XMLID_171_" class="st3" cx="74.4" cy="101" rx="1.2" ry="1.6"/><path id="XMLID_170_" class="st3" d="M70.7 103.1c0-.8.6-1.5 1.3-1.5.7 0 1.4.6 1.4 1.4 0 .8-.6 1.5-1.3 1.5-.8.1-1.4-.6-1.4-1.4z"/><path id="XMLID_169_" class="st3" d="M69.3 99.4c.7-.3 1.5.1 1.9.8.4.7.1 1.6-.6 1.9-.7.3-1.5-.1-1.9-.8-.4-.8-.1-1.6.6-1.9z"/><path id="XMLID_168_" class="st3" d="M73.5 97.9c.3.7.1 1.4-.7 1.8-.8.4-1.7.1-2-.6-.3-.7-.1-1.4.7-1.8.7-.3 1.6-.1 2 .6z"/><path id="XMLID_167_" class="st3" d="m72.2 102.2-1.1-1.3 1.2-.9 1.2 1.1z"/><path id="XMLID_166_" class="st4" d="M70.9 100.8h2.9v.4h-2.9z"/><path id="XMLID_165_" class="st4" d="M72 99.6h.4v2.9H72z"/><path id="XMLID_164_" class="st15" d="m72.3 97 1.5-3.1"/><path id="XMLID_163_" class="st3" d="M74.8 94.7c.8 0 .7 1.5 2.1 2.4 1.5.9 3.5 2.2 3.5 2.2s.9-2.3-.8-3.7c-1.7-1.4-3.2-1.4-3.2-1.4l-1.6.5z"/><path id="XMLID_162_" class="st15" d="m73.5 97.6 1.2-3.2"/><path id="XMLID_161_" class="st4" d="M78.9 97c-1.1-.8-2.2-1.5-3.5-2l-.4-.2.3-.3c0-.1 4 1.9 3.6 2.5z"/><path id="XMLID_160_" class="st3" d="M73.7 93.7s-1.2 1.5-2.1 1.5c-1 .1-5.2 0-5.2 0s.5-1.3 1.6-1.8c1.2-.5 3.4-.1 3.9-.6.6-.5.6-.4.6-.4l1.2 1.3z"/><path id="XMLID_159_" class="st4" d="M72.8 92.9s-.9.8-1.7 1c-.8.2-2.8.5-2.2.5.6 0 3.6 0 4.2-1.2.3-.5-.3-.3-.3-.3z"/><path class="st4" d="m72.2 102.8-1.8-2 1.8-1.4 2 1.7-2 1.7zm0-.6 1.3-1.1-1.3-1.1-1.2.9 1.2 1.3z"/><path id="XMLID_156_" class="st3" d="M51.3 78.6h1.4c.1.9.4 1.3.4 2.2-.1 5.8-2 12.8-6.1 18.4h-2.6c1.9-3.4 3.5-6.9 4.6-10.3 1.2-3.4 1.9-6.9 2.3-10.3z"/><path id="XMLID_155_" class="st6" d="M55.4 122.8c-.3-5.5-1.2-10.2-3.2-12.8l-.7-.9 5.5.1-1.6 13.6z"/><path id="XMLID_154_" class="st17" d="M42.4 135.6c-6.5-13.5-9.8-20.5-15.2-29.3-5.4-8.7-6.4-9.5-10.3-10.5"/><path id="XMLID_153_" class="st7" d="M39.2 135.3h-3.3L22 113.7c.6-.4 1.6-.5 2.6-1.5"/><path id="XMLID_152_" class="st3" d="M16.9 113.6v4c2.6 1.3 4.8 10.8 3.7 17.7h15.3L22 113.7c1.5.1-5.1 1.2-5.1-.1z"/><path id="XMLID_151_" class="st7" d="M53.7 135.6c0-1.6.9-2.6 1.7-3.4"/><path id="XMLID_150_" class="st7" d="M45.9 135.6c0-1.6-1.4-3-3.2-3.6"/><path id="XMLID_149_" class="st7" d="M44.5 135.6c0-1.3-.9-2.1-1.7-2.3"/><path id="XMLID_148_" class="st7" d="M52.3 135.6c.1-2 2-4.3 3.1-5"/><path id="XMLID_147_" class="st7" d="M47.4 135.6c-.1-2-1.9-4.4-5.2-5.4"/><path id="XMLID_146_" class="st7" d="M51.2 135.6c.5-2.5 2.1-5.6 4.1-6.6"/><path id="XMLID_145_" class="st7" d="M48.7 135.6c-.5-3.4-3.6-6.2-6.8-6.9"/><path id="XMLID_144_" class="st7" d="M49.8 135.6c.5-2.5 2.9-7.2 5.5-8.3"/><path id="XMLID_143_" class="st7" d="M49.8 135.6c-.2-2.7-2.7-7.2-8.2-8.3"/><path id="XMLID_142_" class="st6" d="M65.6 124.2c-2.5 0-4.5-2-4.5-4.5s2-4.5 4.5-4.5c2.3 0 4.1 1.6 4.4 3.7 0 0 .5-.1.5-.2-.1-3.5-.7-5.8-2-7.6h5.2c-1.4 2.4-1.9 5-1.9 7.7l.4.1c.4-2.1 2.2-3.8 4.5-3.8 2.5 0 4.5 2 4.5 4.5s-2 4.5-4.5 4.5c-1.1 0-2.1-.4-2.9-1l-.3.3c1.4.8 2.4 2.4 2.4 4.2 0 2.7-2.2 4.8-4.8 4.8-2.7 0-4.8-2.2-4.8-4.8 0-1.8 1-3.4 2.6-4.3l-.2-.4c-.9.8-2 1.3-3.1 1.3z"/><path id="XMLID_141_" class="st7" d="m42.8 132.7-2.9-2.3"/><path id="XMLID_140_" class="st7" d="m42.4 130-4.5-4"/><path id="XMLID_139_" class="st7" d="m41.9 127.8-5.6-4.7"/><path id="XMLID_138_" class="st7" d="M41.2 125.5c-2.1-2.3-4.4-4.4-6.5-5.7"/><path id="XMLID_137_" class="st7" d="M40.7 123.5c-1.9-2.5-5.6-5.8-7.8-6.9"/><path id="XMLID_136_" class="st7" d="M40 120.9c-1.9-2.5-6.3-6.1-8.5-7.2"/><path id="XMLID_135_" class="st7" d="M39.1 118.1c-2.1-2.6-5.5-5.8-9.1-6.9"/><path id="XMLID_134_" class="st7" d="M37.9 115.1c-2.7-2.6-6.3-5.7-9.5-6.8"/><path id="XMLID_133_" class="st7" d="M36.5 112.1c-3-2.7-6.4-4.9-9.8-6.4"/><path id="XMLID_132_" class="st17" d="M35.1 109.4c-3-2.7-6.5-4.9-9.9-6.5"/><path id="XMLID_131_" class="st7" d="M32.8 105.8c-3.4-2.4-5.7-3.7-8.9-4.5"/><path id="XMLID_130_" class="st17" d="M30.2 102.3c-3.4-2.1-5.7-2.3-7.4-2.7"/><path id="XMLID_129_" class="st17" d="M27 98.8c-3.3-1.4-4.9-1.2-6.6-1.6"/><path id="XMLID_128_" class="st6" d="M35.5 135.3h-1.7l.7-.9z"/><path id="XMLID_127_" class="st6" d="M32.6 135.1h-1c.2-.6-1.1-1.5-.1-1.6.8-.1.8 1 1.1 1.6z"/><path id="XMLID_126_" class="st9" d="M33.2 135.2s.3-3.2-4.2-5.3c-.1-.5 1.3-5.3-4.7-7.1.3-2.2-.6-4.9-2.8-5.7.2-1.9-.3-2.7-1-3"/><path id="XMLID_125_" transform="rotate(46.819 30.654 128.873)" class="st6" d="M30.3 128.5h.8v.8h-.8z"/><path id="XMLID_124_" transform="rotate(46.832 25.87 121.875)" class="st6" d="M25.5 121.5h.8v.8h-.8z"/><path id="XMLID_123_" transform="rotate(57.541 22.547 116.154)" class="st6" d="M22.2 115.8h.8v.8h-.8z"/><circle id="XMLID_122_" class="st6" cx="25.5" cy="128.5" r=".5"/><circle id="XMLID_121_" class="st6" cx="21.3" cy="121.5" r=".5"/><circle id="XMLID_120_" class="st6" cx="28.9" cy="133.5" r=".5"/><circle id="XMLID_119_" class="st6" cx="24.6" cy="126.5" r=".5"/><circle id="XMLID_118_" class="st6" cx="20.4" cy="119.7" r=".5"/><path id="XMLID_117_" class="st6" d="m27 132-.3 1.5c-.2.5 1.3.7 1-.3-.2-.9-.8-1-.7-1.2z"/><path id="XMLID_116_" class="st6" d="m22.7 125.1-.3 1.5c-.2.5 1.3.7 1-.3-.2-1-.8-1.1-.7-1.2z"/><path id="XMLID_115_" class="st6" d="m26.3 130.6-.9-1.2c-.2-.5-1.4.5-.5.9.9.5 1.4.2 1.4.3z"/><path id="XMLID_114_" class="st6" d="m22 123.6-.9-1.2c-.2-.5-1.4.5-.5.9 1 .5 1.4.2 1.4.3z"/><path id="XMLID_113_" class="st6" d="m26.7 131.4-1.8.4c-.6 0-.4 1.8.6 1 1.1-.8 1-1.5 1.2-1.4z"/><path id="XMLID_112_" class="st6" d="m22.4 124.4-1.8.4c-.6 0-.4 1.8.6 1 1.1-.8 1-1.5 1.2-1.4z"/><path id="XMLID_111_" class="st6" d="m27.8 132-1.3-2.1s1.1-.6 1.1-1.3c0-.7-.1-.7-.4-.7-.3.1-.8-.8-.3-1 .5-.1 1.3.7 1.1 1.8-.1 1.1-.8 2.1-.8 2.1s1-.1 1.9.1c.8.1 1.5.5 1.6.9.3.9-.3 1.1-.7 1-.4-.1.4-1.2-.5-1.2-.7 0-1 0-1.7.4z"/><path id="XMLID_110_" class="st6" d="m23.5 125.1-1.3-2.1s1.1-.6 1.1-1.3c0-.7-.1-.7-.4-.7-.3.1-.8-.8-.3-1 .5-.1 1.3.7 1.1 1.8-.1 1.1-.8 2.1-.8 2.1s1-.1 1.9.1c.8.1 1.5.5 1.6.9.3.9-.3 1.1-.7 1-.4-.1.4-1.2-.5-1.2-.7-.1-.9-.1-1.7.4z"/><path id="XMLID_109_" class="st6" d="m19.3 118.3-.6-1c.8-1.1 1.1-1.6 1.4-2.2.3.7-.2 1.6-.6 2.3 0 0 .2-.3 1.1-.1.8.1 1.5.5 1.6.9.3.9-.3 1.1-.7 1-.4-.1.4-1.2-.5-1.2-.7-.2-1-.1-1.7.3z"/><path class="st4" d="M55.5 124.1c-2.2 1.3-4.4-.4-4.4-.4 2 .6 3.5.2 4.4-.3 0-.6-.1-1.2-.3-1.6-1-1.4-3.4-.1-3.5-.2s.6-1.1 1.3-1.6c.2-.3-1.2.6-1.2.6l.6-1.4s.4-1.3-.1-1.6c-.5-.2-1.3-.5-1.7-1l.1.8s.1.1.9.4c.7.3.3 1.6.3 1.6s-.4 1.5-1.1 3.5c-.7 2 .2 3.1 1.1 3.7.9.6 3.5 0 3.5 0v-1c-.7.3-2.3.9-3.5.4-1.5-.6-1-2.3-1-1.9 0 .4 2.7 1.5 4.6.4v-.4zm-.8-1.4-.6.2s-.1-.6-.8-.6c-.7 0-.6.7-.6.7s-.4.1-.5-.1c-.1-.2-.1-.6.2-.9.7-.7 2.2-.8 2.3.7zm-7.8.4-.6.2s0-.7-.9-.8c-.9 0-.8.8-.8.8s-.4.1-.5-.1c-.1-.2-.1-.7.4-1.1.5-.3 2.3-.3 2.4 1zm5 0c-.4.1-.7-.2-.9-.6l.9-.4v1zm-8.3.1v-.8l-1 .6c.3.1.6.2 1 .2zm3.9 3.6c.4-.2.9-1.2-.2-.8-1.1.4-1.9.9-3.3.6-1.5-.3-2.8-.8-2.8-.8s.1.4 2.1 1.1c2.1.7 3.8.1 4.2-.1zm-2-6.9c1.6 1.4 1.6 1.8 1.4 2.2-1.2-.8-2.3-.4-3.1-.1-.8.3-1.7.9-1.7.9h-1.4l.2.7h.5c.8.5 1.5 1.4 3.4 1.7 1.9.3 3.1-1.6 3.1-1.6l-.2-.7s-.3 0 0-.6c.4-.7-1.9-2.7-1.9-2.7l-.3.2zm1.6 4c-1.2.8-5-.1-5.2-.8.2.7 1.1 1.5 2.7 1.7 1.6.3 2.5-.9 2.5-.9zm3.5-5.6s.2.6-.8.4c-.2 0-.7-.8-1.4-.8-.6 0-1.2-.3-1 .7.3 1.3-.4.1-.3-.5.1-.6.7-.7 1.5-.6.9 0 1.7.4 2 .8zm2.2-3.2-.7-1.3s-.5.8-1.6.4-1.3 0-2 .3-1.4.1-2.1-.4c-.5-.4 0 .8 0 .8s0 1.3.4.8c.4-.4.6-.5 1-.4.4 0 .7.3 1.4.1.6-.2 1-.2 1.7 0 .6.2.7 0 1.2-.2.4-.3.9.6.7-.1zm-1.9-1.6s-.7-.3-1.4-.2c-.7.1-1.2.2-1.2.2s.7-.6 1.3-.5c.5 0 .7-.1 1.3.5zm.1-1.4s-1 .3-1.6.2c-.7-.1-1.7-.5-1.7-.5s.4.7 1.4.8c.8.1 1.2.1 1.9-.5z"/><path id="XMLID_96_" class="st7" d="M55.4 135.3c0-9.9.2-20.8-3.2-25.3-3.4-4.5-10.5.3-14.7 4.6"/><path id="XMLID_95_" style="fill-rule:evenodd;clip-rule:evenodd;fill:#0d4f9e;stroke:#10447f;stroke-width:.5669;stroke-miterlimit:2.6131" d="M43 110.3h-7.4l-.5-1.3h10.1z"/><path id="XMLID_94_" class="st10" d="M57.7 107.2H33.9"/><path id="XMLID_93_" class="st6" d="M55 105.4h-2.3l1.4-1.9h2.2z"/><path id="XMLID_92_" class="st6" d="M39.2 100.5h2.2l-1.3 2h-2.3z"/><path id="XMLID_91_" class="st6" d="M32.2 100.5h2.3l-1.4 2h-2.2z"/><path id="XMLID_90_" class="st6" d="M48.5 105.4h-2.3l1.3-1.9h2.3z"/><path id="XMLID_89_" class="st6" d="M45.7 100.5H48l-1.4 2h-2.3z"/><path id="XMLID_88_" class="st6" d="M41.6 105.4h-2.3l1.4-1.9H43z"/><path id="XMLID_87_" class="st6" d="M52.4 100.5h2.2l-1.3 2H51z"/><path id="XMLID_86_" class="st6" d="M34.8 105.4h-2.2l1.3-1.9h2.3z"/><path id="XMLID_85_" class="st6" d="M58.3 100.5h2.3l-1.3 2H57z"/><path id="XMLID_84_" class="st11" d="M58.6 105.4H32.7"/><path id="XMLID_83_" class="st11" d="M28.9 100.6h32.3"/><path id="XMLID_82_" class="st3" d="M59.9 86.9c-2.4 1-4 3.4-4 6.2 0 6.2 7.4 6.3 4.2 6.3H56c-1.7-1.2-2.9-4.2-2.7-7 .2-2.7 2-6 4.6-7.8l2 2.3z"/><path id="XMLID_81_" class="st10" d="M57.7 99.4c-1.7-1.2-2.9-4.2-2.7-7 .2-2.7 1.9-5.6 3.8-6.6"/><path id="XMLID_80_" class="st4" d="m63.5 98.6-.5-1.4 1.9-4.1-4.1-5c-1.6.9-2.7 2.8-2.7 5 0 3.1 2.1 5.6 4.6 5.6.3 0 .5-.1.8-.1z"/><path id="XMLID_79_" class="st6" d="m59.9 86.9.9 1.2c-1.6.9-2.7 2.8-2.7 5 0 3.1 2.1 5.6 4.6 5.6 2 0-.5.4-2.3.9-2.7-.9-4.6-3.4-4.6-6.5.1-2.8 1.7-5.2 4.1-6.2z"/><path id="XMLID_78_" class="st11" d="M27.4 99.2h34.4"/><path id="XMLID_77_" class="st1" d="M48.1 78.6h-.9c-1.7 6.5-6 12.4-13 13.6-7 1.2-9.4.6-9.4.6l-2.1 3.5c1.8 0 4.8 2.9 4.8 2.9h8.7c1.7.1 5-3.5 7.6-8 2.4-4.2 4.4-9.5 4.3-12.6z"/><path id="XMLID_76_" class="st10" d="M47.2 78.6c-1.7 6.5-6 12.4-13 13.6-7 1.2-9.4.6-9.4.6l-2.1 3.5"/><path id="XMLID_75_" class="st6" d="M48.1 78.6h3.4c-.4 7.5-2.3 14-7 20.7h-8.3c1.7.1 5-3.5 7.6-8 2.4-4.3 4.4-9.6 4.3-12.7z"/><path id="XMLID_74_" class="st6" d="M52.8 80.6c.2 1.6 1.4 4.2 2.7 6.5-2.9 5.1-2.6 8.3.2 12.2H47c1.6-2.8 2-4.1 3.6-8.5 1.7-4.5 2-8.1 2.2-10.2z"/><path id="XMLID_73_" class="st11" d="M52.8 80.6c.2 1.6 1.4 4.2 2.7 6.5"/><path id="XMLID_72_" class="st13" d="m42.9 88-2.6 2.2s-.2 1.6.7 1.8c.9.2 2-.4 1.3-1.9.3-.1 2.2-.7.6-2.1z"/><path id="XMLID_71_" class="st13" d="M36.4 94.9s-.3-1.6-1.3-1.3c-1 .2-.7 1-.6 2-.9.8 0 3.2 1.9 1.6 2.2.3 3-2.4 0-2.3z"/><path id="XMLID_70_" class="st13" d="M29.4 94.1s-.4-.8-1.3-.6c-.9.2-.6.8-.5 1.8-.9.8.4 3 2 1.3 2.3.5 2.9-2.6-.2-2.5z"/><path id="XMLID_69_" class="st3" d="M41.7 94.8h3.5l.5-1.1h-3.2c.6-.8 1.1-1.6 1.6-2.4h2.7l.5-.7h-2.8c.6-1 1.1-1.9 1.5-2.7h2.2l.3-.7h-2.1c.5-1 .8-1.9 1.1-2.7h1.7l.3-.5h-1.8c.3-.9.5-1.8.6-2.5H50l.1-.5h-1.8c.1-.7.2-1.4.3-2H50l.2-.5h.6c0 .4-.1.8-.1 1.1h-1.3l-.3.5h1.5c-.1.7-.2 1.4-.3 2.2H49l-.3.8h1.5c-.1.9-.3 1.7-.5 2.6h-1.5l-.4.7h1.8c-.2.8-.4 1.7-.6 2.5h-2.4l-.5.9h2.5l-.3.9c-.2.5-.4 1-.6 1.4H45l-.5.7h2.8c-.5 1.1-1.1 2.1-1.6 3h-3.2l-.5.6h3.3c-.6.9-1.1 1.8-1.6 2.8H42l1.2-1.7h-3.4c.6-.9 1.3-1.8 1.9-2.7z"/><path class="st3" d="M54.1 84.1c-.4-.9-.7-1.8-1-2.5v.8c0 .5 0 1.1-.1 1.7h1.1zm.8 1.7c-.2-.4-.4-.8-.6-1.1h-1.4c-.1.8-.3 1.7-.5 2.7h2.1l-.1.6h-2.2c-.2.8-.5 1.7-.9 2.7h2.4c.1-.3.2-.6.3-.8h-1l.3-.9h1.1c.3-.7.7-1.4 1.2-2-.1-.2-.2-.3-.3-.5h-1.4l.2-.7h.8zm-1.6 6.4c0-.3.1-.5.1-.8H51c-.3.8-.7 1.5-1.1 2.4h3.2l-.2 1.1H50c-.4.8-.9 1.7-1.4 2.7h2.9l-.8 1.7h1.9c.3-1 .7-1.9 1.1-2.8h-3.3l.4-.6h3c-.3-.9-.4-2-.4-3H52l.3-.7h1z"/><path id="XMLID_65_" class="st11" d="M56 99.5c-1.7-1.2-2.9-4.2-2.7-7 .2-2.7 2-6 4.6-7.8"/><path id="XMLID_64_" class="st3" d="M81.2 65.5c-2.4-2.5-5.9-4.2-10.4-4.7-9-1-17.1 7.6-17.2 14.1-.1 6.5 1.1 8.6 2.8 10.8l-.7.8c-.8-1.2-3-5.5-3-8.2-.6-2.7.4-9.1 4.8-13.1 4.3-4 11.9-9.6 24.2-.3l-.5.6z"/><path id="XMLID_63_" class="st15" d="M55.8 86.5c-.8-1.2-3-5.5-3-8.2-.6-2.7.4-9.1 4.8-13.1 4.3-4 11.9-9.6 24.2-.3"/><path id="XMLID_62_" class="st6" d="m60.1 82.7-3.7 3c-1.7-2.2-2.9-4.3-2.8-10.8.1-6.5 8.1-15 17.2-14.1 4.4.5 7.9 2.1 10.4 4.7l-4 3.2c-1.5-1.5-3.4-2.7-7.7-3-4.4-.3-10.7 4.3-11 10.7-.1 2.5 1 4.9 1.6 6.3z"/><path id="XMLID_61_" class="st3" d="m75.9 69.9 1.3-1.1c-1.5-1.5-3.4-2.7-7.7-3-4.4-.3-10.7 4.3-11 10.7-.1 2.4 1 4.8 1.6 6.2l1.6-1.3c-.5-1.3-1.1-3-1.1-4.7.3-6 5.2-9.2 9.2-9 2.8.2 4.7 1.1 6.1 2.2z"/><path id="XMLID_60_" class="st4" d="m64.8 78.9-3.1 2.5c-.5-1.3-1.1-3-1.1-4.7.3-6 5.2-9.2 9.2-9 2.7.2 4.6 1.1 6 2.2l-3.1 2.5c-.7-.6-1.8-1.2-3.3-1.3-2.1-.1-4.8 1.8-5.1 3.9-.2 2.1.2 3.2.5 3.9z"/><path id="XMLID_59_" class="st1" d="M64.9 79c-.3-.7-.8-1.8-.5-4 .3-2.2 3-4.1 5.1-3.9 1.6.1 2.7.7 3.4 1.4l-8 6.5z"/><path id="XMLID_53_" class="st3" d="m59 83.7 23.4-19.4v1.9L59.9 84.8z"/><path id="XMLID_47_" class="st4" d="m64.3 90.2 18.4-15.1v-6.8l-22 17.8z"/><path id="XMLID_46_" class="st14" d="m64.7 91 17.6-14.3v2.5L66 92.4z"/><path class="st13" d="M67.4 84.7c-.5 0-.9-.4-.9-.9s.4-.9.9-.9.9.4.9.9-.4.9-.9.9zm11.5-9.4c.3.3.8.4 1.2.4 1.1 0 2.1-.9 2.1-2.1 0-1.1-.9-2.1-2.1-2.1-1.1 0-2.1.9-2.1 2.1 0 .3.1.5.1.8l-.3.2-.1-.1c-.4-.4-1-.6-1.5-.2-.5.3-.6 1-.2 1.5l.2.2-1.5 1.2c-.3-.3-.8-.4-1.3-.4-1.1 0-2 .9-2 2 0 .3.1.7.2.9l-.2.2-.4-.4c-.4-.4-1-.6-1.5-.2-.5.3-.6 1-.2 1.5l.5.5-1.3 1.1c-.3-.3-.8-.4-1.2-.4-1.1 0-2 .9-2 2 0 .3.1.7.2 1h-.2l-.3-.3c-.4-.4-.9-.7-1.4-.4-.5.3-.7 1-.4 1.4l.5.6-1.6 1.3.7.9 1.6-1.3.3.4c.4.4.9.7 1.4.4.5-.3.7-1 .4-1.4l-.5-.7.4-.3c.3.2.6.3 1 .3 1.1 0 2-.9 2-2 0-.2 0-.5-.1-.7l1.4-1.2.4.4c.4.4 1 .6 1.5.2.5-.3.6-1 .2-1.5l-.5-.5.2-.2c.3.2.6.3 1 .3 1.1 0 2-.9 2-2 0-.2 0-.4-.1-.6l1.5-1.3.4.4c.4.4 1 .6 1.5.2.5-.3.6-1 .2-1.5l-.4-.5.3-.1zm0 2.2zm-6.3 5.1zM66.2 88zm7.4-8.4c-.5 0-.9-.4-.9-.9s.4-.9.9-.9.9.4.9.9-.4.9-.9.9zm6.6-5.1c-.5 0-.9-.4-.9-.9s.4-.9.9-.9.9.4.9.9c-.1.5-.4.9-.9.9z"/><path id="XMLID_36_" class="st3" d="m78 67.4 1.4-1.4-.5-1.9-1.4-.8.2 1.7c-1.4-.7-1.4-1.7-1.9-2.4l-1.6-.6.7 1.5-1.6-.6-1.6-1.6h-1.5l1 1.4h-.9c-.8-.4-1.3-1-2.2-1.3l-1.6.2 1.3 1.1-1.3.2-1.9-.9c-.5.2-1 .4-1.4.7.4.3.9.6 1.3.8l-1.5.6-2-.3c-.5.3-.9.6-1.3 1.1l1.3.4-1.3 1.1-1.7.1-1 1.2 1.4.1c-.9 1.8-1.3 1.6-2.8 2.2l-.6 1.5 1.6-.4-.4 1.3c-.6.3-1.2.6-1.7 1-.2.5-.2 1-.2 1.5l1.4-.7v1.3l-1.4 2.4.2 1.8 1.4-1.8.3 1.7-1.2 2 .6 1.4 1.1-1.7c.3.8.5 1.6.9 2.4l1-.8-.6-1.6 1.2.5c-.2-.6-.3-1.2-.7-1.6-.3-.2-.6-.6-1.2-1l-.1-1.2 1.1.7v-1.5L57 76v-1.3h.1l1.3 1.2c.1-.5.1-1 .1-1.5l-1-1.6.3-1 1.1 1.6c.2-.5.3-1 .6-1.5l-.6-1.7.7-1.2.4 1.7 1-1.2-.1-2.1.9-.7-.1 1.8 1.3-.9.3-1.9 1.4-.7-.5 1.6 1.3-.7s.8-2 2.2-2l-.7 1.5c-.1.2 1 .2 1.4 0l1.1-1.3h1.3l-1.2 1.3h1.7l1.6-1.1 1.3.4-1.8.8 2.2.8 1.8-.6 1 .6-2.1.4c.1 0 1 1.1 2.7.7z"/><path id="XMLID_35_" class="st16" d="M56.9 135.3c0-5.4 1-14.3 5.9-22.7 3.5-6.1 1.8-13.3.2-15.3-3.6 6.9-6.1 11.2-6.1 11.6-.5 8.8-2.2 13.8-1.5 26.4h1.5z"/><path id="XMLID_34_" class="st7" d="M43.1 135.6c-.4-6.3-4.3-23-12-32.4-4.7-5.8-9-8-14.1-7.9"/><path id="XMLID_33_" class="st6" d="M46 73h7.3c-.2 1.8-.5 3.5-.2 5.5l-7.1.2c.4-1.9.4-3.9 0-5.7z"/><path id="XMLID_32_" class="st3" d="M48.4 74.3v2.5h-.3c-.7 0-1.2-.6-1.2-1.3 0-.7.5-1.3 1.2-1.3.1.1.2.1.3.1z"/><path id="XMLID_31_" class="st3" d="M51.3 77.1v-2.6c.7 0 1.2.6 1.2 1.3 0 .7-.5 1.3-1.2 1.3z"/><path id="XMLID_30_" class="st3" d="M50.8 74.7v2.1c-.2.3-.6.5-1 .5s-.8-.2-1-.6v-2c.2-.3.6-.6 1-.6.4.2.7.3 1 .6z"/><path id="XMLID_29_" class="st6" d="M16.8 101.7c.9.7 1.4 1.4 2 2.4 6.6 9.4 13.6 21.1 20.4 31.5h2.5c-6.5-13.4-9.9-17.5-14.7-26.7-4.8-9.2-6.1-10.7-10-11.7l-.2 4.5z"/><path id="XMLID_28_" class="st10" d="m34.5 58.5-1.1.8 7.1 8.6 1-.9z"/><path id="XMLID_27_" class="st10" d="m64.9 93.1 1.1-.8-7-8.6-1.1.9z"/><path class="st6" d="M15.5 23.9s-1.2.2-2.2-.6c-.8.7-1.8 1.1-2.9 1.1C8 24.4 6 22.5 6 20.1v-2.6H4.9v-1.9H6v-4.1c0-2.4 2-4.3 4.4-4.3 2.4 0 4.4 1.9 4.4 4.3v8.7c0 .6-.1 1.1-.3 1.6.3.3.7.4 1.1.5v1.6h-.1zm-5.1-1.3c.7 0 1.2-.2 1.7-.6-.6-.8-.9-1.6-1.6-2.3-.9-.9-1.7-1.4-2.5-1.7v2.3c-.1 1.2 1 2.3 2.4 2.3zm0-13.6C9 9 7.9 10.1 7.9 11.5v4.4c.2.1.5.1.7.2 2.2.8 3.4 2.4 4.2 3.5v-8.2c.1-1.3-1.1-2.4-2.4-2.4zM83.9 127.7s1.2-.2 2.2.6c.8-.7 1.8-1.1 2.9-1.1 2.4 0 4.4 1.9 4.4 4.3v2.6h1.1v1.9h-1.1v4.1c0 2.4-2 4.3-4.4 4.3-2.4 0-4.4-1.9-4.4-4.3v-8.7c0-.6.1-1.1.3-1.6-.3-.3-.7-.4-1.1-.5v-1.6h.1zm5.2 1.3c-.7 0-1.2.2-1.7.6.6.8.9 1.6 1.6 2.3.9.9 1.7 1.4 2.6 1.7v-2.3c-.1-1.2-1.2-2.3-2.5-2.3zm0 13.6c1.4 0 2.5-1.1 2.5-2.4v-4.4c-.3-.1-.5-.1-.8-.2-2.2-.8-3.4-2.4-4.2-3.5v8.2c0 1.2 1.1 2.3 2.5 2.3z"/><path id="XMLID_20_" class="st19" d="M90.3 111.7c-1.4 1.7-1.1 4.2-1.1 4.2.2-1.2 1.4-1.8 1.8-1.9 1.6-.3 2.4.9 2.5 1.1 1.1 2-.5 3.3-.8 3.5-1.5.9-2.7-.1-2.7-.1-.2 0-.1.2-.1.2 1.2.7 1.3 1.8 1.3 2.2-.3 2.3-2.5 2.3-2.5 2.3s-2.2.1-2.5-2.3c0-.4 0-1.5 1.3-2.2 0 0 .1-.3-.1-.2 0 0-1.2 1.1-2.7.1-.2-.2-1.9-1.4-.8-3.5.1-.2.9-1.4 2.5-1.1.5.1 1.6.8 1.8 1.9 0 0 .3-2.5-1.1-4.2h3.2z"/><path id="XMLID_19_" class="st19" d="M9.1 39.9c1.4-1.7 1.1-4.2 1.1-4.2-.2 1.2-1.4 1.8-1.8 1.9-1.6.3-2.4-.9-2.5-1.1-1.1-2 .5-3.3.8-3.5 1.5-.9 2.7.1 2.7.1.2 0 .1-.2.1-.2-1.2-.7-1.3-1.8-1.3-2.2.3-2.3 2.5-2.3 2.5-2.3s2.2-.1 2.5 2.3c0 .4 0 1.5-1.3 2.2 0 0-.1.3.1.2 0 0 1.2-1.1 2.7-.1.2.2 1.9 1.4.8 3.5-.1.2-.9 1.4-2.5 1.1-.5-.1-1.6-.8-1.8-1.9 0 0-.3 2.5 1.1 4.2H9.1z"/><path class="st8" d="M17.2 136.5h65.6V15.1H16.7v121.4h.5zm.5-1V16.2h64v119.3h-64z"/><path id="XMLID_16_" class="st6" d="m25.6 28.3.5-.5c-1.5-.8-2.4-2.3-2.4-4.1 0-2.6 2.1-4.7 4.7-4.7s4.7 2.1 4.7 4.7c0 1.8-1 3.4-2.5 4.1l.4.5c.8-.6 1.7-1 2.8-1 2.4 0 4.4 2 4.4 4.4 0 2.4-2 4.4-4.4 4.4-2.3 0-4.2-1.8-4.4-4h-.6c-.3 4.2 1.7 7.5 1.7 7.5H26c2.4-2.3 1.7-7.5 1.7-7.5l-.6-.1c-.1 2.2-2 4-4.4 4-2.4 0-4.4-2-4.4-4.4 0-2.4 2-4.4 4.4-4.4 1.1 0 2.1.4 2.9 1.1z"/></g></g></svg>