<svg xmlns="http://www.w3.org/2000/svg" viewBox="0 0 99.4 151.6" style="enable-background:new 0 0 99.4 151.6" xml:space="preserve"><style>.st1{fill-rule:evenodd;clip-rule:evenodd}.st1,.st2{fill:#e52529}.st3{fill-rule:evenodd;clip-rule:evenodd;fill:#231f20}.st4{stroke:#0d4f9e;stroke-width:.6236;stroke-linecap:round;stroke-linejoin:round;stroke-miterlimit:2.6131}.st4,.st5{fill-rule:evenodd;clip-rule:evenodd;fill:none}.st5{stroke:#0d4f9e;stroke-width:.5666;stroke-linecap:round;stroke-linejoin:round;stroke-miterlimit:2.6131}.st6{fill-rule:evenodd;fill:#db4634}.st6,.st7{clip-rule:evenodd}.st7{fill-rule:evenodd;fill:none;stroke:#0d4f9e;stroke-width:.7087;stroke-linecap:round;stroke-linejoin:round;stroke-miterlimit:2.6131}.st9{clip-rule:evenodd}.st9{fill-rule:evenodd;fill:#fff;stroke:#2aabe3;stroke-width:.5669;stroke-linecap:round;stroke-linejoin:round;stroke-miterlimit:2.6131}.st10{fill-rule:evenodd;fill:#0d4f9e}.st10,.st11{clip-rule:evenodd}.st11{fill-rule:evenodd;fill:none;stroke:#0d4f9e;stroke-width:.5669;stroke-linecap:round;stroke-linejoin:round;stroke-miterlimit:2.6131}.st12{fill-rule:evenodd;fill:#e52529;stroke:#0d4f9e;stroke-width:.6236;stroke-linecap:round;stroke-linejoin:round;stroke-miterlimit:2.6131}.st12,.st13{clip-rule:evenodd}.st13{fill-rule:evenodd;fill:#fff}.st14{fill-rule:evenodd;fill:#231f20;stroke:#231f20;stroke-width:.0037;stroke-linecap:round;stroke-linejoin:round;stroke-miterlimit:2.6131}.st14,.st15{clip-rule:evenodd}.st15{fill-rule:evenodd;fill:none;stroke:#231f20;stroke-width:.5669;stroke-linecap:round;stroke-linejoin:round;stroke-miterlimit:2.6131}.st16{stroke:#0d4f9e;stroke-width:1.1339;stroke-miterlimit:2.6131}.st16,.st17{fill-rule:evenodd;clip-rule:evenodd;fill:none}.st17{stroke:#231f20;stroke-width:.6236;stroke-linecap:round;stroke-linejoin:round;stroke-miterlimit:2.6131}.st20{fill:#231f20}</style><g id="Calque_2"><path id="XMLID_15_" d="M99.3 5.3v140.9c0 2.9-2.3 5.2-5.2 5.2H5.3c-2.9 0-5.2-2.3-5.2-5.2V5.3C.1 2.4 2.4.1 5.3.1H94c2.9 0 5.3 2.4 5.3 5.2z" style="fill:#fff;stroke:#000;stroke-width:.25;stroke-miterlimit:2.6131"/></g><g id="Calque_1"><path class="st1" d="M552.8 134.6c-3.2-4.4-4.1-8-4.1-8s-.9 3.7-4.1 8c-3.2 4.4-6.2 5.6-6.2 5.6s3 1.2 6.2 5.6c3.2 4.4 4.1 8 4.1 8s.9-3.7 4.1-8c3.2-4.4 6.2-5.6 6.2-5.6s-2.9-1.3-6.2-5.6zM510.8 134.6c-3.2-4.4-4.1-8-4.1-8s-.9 3.7-4.1 8c-3.2 4.4-6.2 5.6-6.2 5.6s3 1.2 6.2 5.6c3.2 4.4 4.1 8 4.1 8s.9-3.7 4.1-8c3.2-4.4 6.2-5.6 6.2-5.6s-3-1.3-6.2-5.6zM531.8 177.1c-3.2-4.4-4.1-8-4.1-8s-.9 3.7-4.1 8c-3.2 4.4-6.2 5.6-6.2 5.6s3 1.2 6.2 5.6c3.2 4.4 4.1 8 4.1 8s.9-3.7 4.1-8c3.2-4.4 6.2-5.6 6.2-5.6s-3-1.2-6.2-5.6zM552.8 219.7c-3.2-4.4-4.1-8-4.1-8s-.9 3.7-4.1 8c-3.2 4.4-6.2 5.6-6.2 5.6s3 1.2 6.2 5.6c3.2 4.4 4.1 8 4.1 8s.9-3.7 4.1-8c3.2-4.4 6.2-5.6 6.2-5.6s-2.9-1.3-6.2-5.6zM510.8 219.7c-3.2-4.4-4.1-8-4.1-8s-.9 3.7-4.1 8c-3.2 4.4-6.2 5.6-6.2 5.6s3 1.2 6.2 5.6c3.2 4.4 4.1 8 4.1 8s.9-3.7 4.1-8c3.2-4.4 6.2-5.6 6.2-5.6s-3-1.3-6.2-5.6z"/><path class="st2" d="M486.7 117.5h7.8v1.8h-6l-.2 3s2.8-1.6 5.5.7c.5.4 2.9 2.9 1.4 7.8-.3 1-2 3.6-5.6 3.1-.2 0-2.9-.7-3.9-3.7l1.7-.4s1.3 2.7 3.1 2.5c.9-.1 3.3-.7 3.2-4.6 0-.3 0-3.7-2.9-4.2-1-.2-2.2 0-3.9 1.7l-.8-.5.6-7.2zM568.8 247.8h-7.9V246h6l.2-3s-2.8 1.6-5.5-.7c-.5-.4-2.9-2.9-1.4-7.8.3-1 2-3.6 5.6-3.1.2 0 2.9.7 3.9 3.7l-1.7.4s-1.3-2.7-3.1-2.5c-.9.1-3.3.7-3.2 4.6 0 .3 0 3.7 2.9 4.2 1 .2 2.2 0 3.9-1.7l.8.5-.5 7.2zM490.8 137.7s1.4 4.5 4.7 6.3c0 0-3.2 1.7-4.7 6.2-1.5-4.6-4.7-6.2-4.7-6.2 3.3-1.8 4.7-6.3 4.7-6.3zM564.7 227.6s-1.4-4.5-4.7-6.3c0 0 3.2-1.7 4.7-6.2 1.5 4.6 4.7 6.2 4.7 6.2-3.3 1.8-4.7 6.3-4.7 6.3z"/><path class="st1" d="M552.8 134.6c-3.2-4.4-4.1-8-4.1-8s-.9 3.7-4.1 8c-3.2 4.4-6.2 5.6-6.2 5.6s3 1.2 6.2 5.6c3.2 4.4 4.1 8 4.1 8s.9-3.7 4.1-8c3.2-4.4 6.2-5.6 6.2-5.6s-2.9-1.3-6.2-5.6zM510.8 134.6c-3.2-4.4-4.1-8-4.1-8s-.9 3.7-4.1 8c-3.2 4.4-6.2 5.6-6.2 5.6s3 1.2 6.2 5.6c3.2 4.4 4.1 8 4.1 8s.9-3.7 4.1-8c3.2-4.4 6.2-5.6 6.2-5.6s-3-1.3-6.2-5.6zM531.8 177.1c-3.2-4.4-4.1-8-4.1-8s-.9 3.7-4.1 8c-3.2 4.4-6.2 5.6-6.2 5.6s3 1.2 6.2 5.6c3.2 4.4 4.1 8 4.1 8s.9-3.7 4.1-8c3.2-4.4 6.2-5.6 6.2-5.6s-3-1.2-6.2-5.6zM552.8 219.7c-3.2-4.4-4.1-8-4.1-8s-.9 3.7-4.1 8c-3.2 4.4-6.2 5.6-6.2 5.6s3 1.2 6.2 5.6c3.2 4.4 4.1 8 4.1 8s.9-3.7 4.1-8c3.2-4.4 6.2-5.6 6.2-5.6s-2.9-1.3-6.2-5.6zM510.8 219.7c-3.2-4.4-4.1-8-4.1-8s-.9 3.7-4.1 8c-3.2 4.4-6.2 5.6-6.2 5.6s3 1.2 6.2 5.6c3.2 4.4 4.1 8 4.1 8s.9-3.7 4.1-8c3.2-4.4 6.2-5.6 6.2-5.6s-3-1.3-6.2-5.6z"/><path class="st2" d="M486.7 117.5h7.8v1.8h-6l-.2 3s2.8-1.6 5.5.7c.5.4 2.9 2.9 1.4 7.8-.3 1-2 3.6-5.6 3.1-.2 0-2.9-.7-3.9-3.7l1.7-.4s1.3 2.7 3.1 2.5c.9-.1 3.3-.7 3.2-4.6 0-.3 0-3.7-2.9-4.2-1-.2-2.2 0-3.9 1.7l-.8-.5.6-7.2zM568.8 247.8h-7.9V246h6l.2-3s-2.8 1.6-5.5-.7c-.5-.4-2.9-2.9-1.4-7.8.3-1 2-3.6 5.6-3.1.2 0 2.9.7 3.9 3.7l-1.7.4s-1.3-2.7-3.1-2.5c-.9.1-3.3.7-3.2 4.6 0 .3 0 3.7 2.9 4.2 1 .2 2.2 0 3.9-1.7l.8.5-.5 7.2zM490.8 137.7s1.4 4.5 4.7 6.3c0 0-3.2 1.7-4.7 6.2-1.5-4.6-4.7-6.2-4.7-6.2 3.3-1.8 4.7-6.3 4.7-6.3zM564.7 227.6s-1.4-4.5-4.7-6.3c0 0 3.2-1.7 4.7-6.2 1.5 4.6 4.7 6.2 4.7 6.2-3.3 1.8-4.7 6.3-4.7 6.3z"/><path class="st1" d="M552.8 134.6c-3.2-4.4-4.1-8-4.1-8s-.9 3.7-4.1 8c-3.2 4.4-6.2 5.6-6.2 5.6s3 1.2 6.2 5.6c3.2 4.4 4.1 8 4.1 8s.9-3.7 4.1-8c3.2-4.4 6.2-5.6 6.2-5.6s-2.9-1.3-6.2-5.6zM510.8 134.6c-3.2-4.4-4.1-8-4.1-8s-.9 3.7-4.1 8c-3.2 4.4-6.2 5.6-6.2 5.6s3 1.2 6.2 5.6c3.2 4.4 4.1 8 4.1 8s.9-3.7 4.1-8c3.2-4.4 6.2-5.6 6.2-5.6s-3-1.3-6.2-5.6zM531.8 177.1c-3.2-4.4-4.1-8-4.1-8s-.9 3.7-4.1 8c-3.2 4.4-6.2 5.6-6.2 5.6s3 1.2 6.2 5.6c3.2 4.4 4.1 8 4.1 8s.9-3.7 4.1-8c3.2-4.4 6.2-5.6 6.2-5.6s-3-1.2-6.2-5.6zM552.8 219.7c-3.2-4.4-4.1-8-4.1-8s-.9 3.7-4.1 8c-3.2 4.4-6.2 5.6-6.2 5.6s3 1.2 6.2 5.6c3.2 4.4 4.1 8 4.1 8s.9-3.7 4.1-8c3.2-4.4 6.2-5.6 6.2-5.6s-2.9-1.3-6.2-5.6zM510.8 219.7c-3.2-4.4-4.1-8-4.1-8s-.9 3.7-4.1 8c-3.2 4.4-6.2 5.6-6.2 5.6s3 1.2 6.2 5.6c3.2 4.4 4.1 8 4.1 8s.9-3.7 4.1-8c3.2-4.4 6.2-5.6 6.2-5.6s-3-1.3-6.2-5.6z"/><path class="st2" d="M486.7 117.5h7.8v1.8h-6l-.2 3s2.8-1.6 5.5.7c.5.4 2.9 2.9 1.4 7.8-.3 1-2 3.6-5.6 3.1-.2 0-2.9-.7-3.9-3.7l1.7-.4s1.3 2.7 3.1 2.5c.9-.1 3.3-.7 3.2-4.6 0-.3 0-3.7-2.9-4.2-1-.2-2.2 0-3.9 1.7l-.8-.5.6-7.2zM568.8 247.8h-7.9V246h6l.2-3s-2.8 1.6-5.5-.7c-.5-.4-2.9-2.9-1.4-7.8.3-1 2-3.6 5.6-3.1.2 0 2.9.7 3.9 3.7l-1.7.4s-1.3-2.7-3.1-2.5c-.9.1-3.3.7-3.2 4.6 0 .3 0 3.7 2.9 4.2 1 .2 2.2 0 3.9-1.7l.8.5-.5 7.2zM490.8 137.7s1.4 4.5 4.7 6.3c0 0-3.2 1.7-4.7 6.2-1.5-4.6-4.7-6.2-4.7-6.2 3.3-1.8 4.7-6.3 4.7-6.3zM564.7 227.6s-1.4-4.5-4.7-6.3c0 0 3.2-1.7 4.7-6.2 1.5 4.6 4.7 6.2 4.7 6.2-3.3 1.8-4.7 6.3-4.7 6.3z"/><path id="XMLID_435_" class="st3" d="M18.2 87.1h-1L17 57.6l6.8-3.8-.2 19.2-3.8 12.2c-.8.2-1.4.9-1.6 1.9z"/><path id="XMLID_434_" class="st1" d="M18.2 87.1h-1L17 57.6l5.5-3.2.4 22.3-3.1 8.6c-.8.1-1.4.8-1.6 1.8z"/><path id="XMLID_433_" class="st4" d="m22.7 72.7-.1-18.3"/><path id="XMLID_432_" class="st5" d="M18.4 87h-1.1"/><path id="XMLID_431_" class="st1" d="m45.7 77-.8.8-1.1-.6.8-1.2-1.6-1.6V63.5c1.6 3.6 3.2 8.6 2.7 13.5z"/><path id="XMLID_430_" class="st6" d="M54.5 102.6c-.1.4-5.2-7.3-5.9-10.8-.8-3-2.7-11.7-2.7-11.7-2.5-.2-4.5-.1-5.5.6-.1.2.4 7.2-3.4 15.8l-3.4 6.8 1-.4 8.9-6.6 9.6 6.8 1.4-.5z"/><path id="XMLID_429_" class="st7" d="M49.7 93.9s-3-2.6-6.3-2.3c-3.3.2-5.5 2.7-5.5 2.7"/><path id="XMLID_428_" class="st7" d="M48.4 90.8s-1.6-2.2-5-1.9c-3.4.2-4.6 2.1-4.4 1.7"/><path id="XMLID_427_" class="st7" d="M47.6 87.6s-2-2-4-1.7c-2.1.2-3.8 1.5-3.8 1.5"/><path id="XMLID_426_" class="st7" d="M46.8 84.2s-1.9-1.4-3.7-1.2c-1.8.2-2.8.8-2.8.8"/><path id="XMLID_425_" class="st7" d="M45.9 80.1s-.9-.4-2.8-.2c-1.8.2-2.8.8-2.8.8"/><path id="XMLID_424_" class="st7" d="m45.9 79.2-1.3-1.1.9-.9"/><path id="XMLID_423_" class="st7" d="m51.6 98.2-8-5.5-7.3 5.1"/><path id="XMLID_422_" class="st7" d="m51.7 101.9-.1-3.6"/><path id="XMLID_421_" class="st7" d="m53.1 103.1-.1-2.2"/><path id="XMLID_420_" class="st1" d="m54 74.6.8-.8 1.1.6-.8 1.2 1.6 1.6v10.9c-1.6-3.5-3.3-8.6-2.7-13.5z"/><path id="XMLID_419_" class="st4" d="m28.6 50.6-11.8 7.3"/><path id="XMLID_418_" d="M81.4 64.5h1l.3 29.5-6.8 3.8.1-19.2 3.9-11.8c.8-.6 1.4-1.3 1.5-2.3z" style="clip-rule:evenodd;fill-rule:evenodd;fill:#e32285"/><path id="XMLID_417_" class="st3" d="M81.4 64.5h1l.3 29.5-6.8 3.8.1-19.2 3.8-12.2c.8-.2 1.5-.9 1.6-1.9z"/><path id="XMLID_416_" class="st1" d="M81.4 64.5h1l.3 29.5-5.5 3.2-.4-22.3 3.1-8.6c.7-.1 1.4-.8 1.5-1.8z"/><path id="XMLID_415_" class="st9" d="M74.7 75.3c-2.1.4-3.4-1.1-2.5-4.4.2-2.4.7-3.8 3.1-4.6 1.1-.6 2.6-.6 4.4-.4l.1 1.4c.8.2 1.2 1 1.1 2 .3.5.3 1-.1 1.5.4.4.4.6-.1 1.3 0 .3.1 1.5-.9 1.8l-2 .4-3.1 1z"/><path class="st10" d="M73.7 71.5s1.4-.6 1.6-1.8c.2-1.2-.1-1.5-.1-1.5s.7.1 1.3.1c.6 0-.3-.2 1.5-.1.7-.3 1.1-.6.8-.9 0 0-.8 0-1-.3-.2-.4 0-.7-1.3-.6-1.3.1-2.6.7-3 1-.4.3-1.1 1.5-1.1 2.2 0 .7-.7 3.5-.4 4.1.3.6 1.6 2.2 1.9 1.6.4-.5.7-.8.7-.8l.1-2.2c-.6-.8-1.3-.1-1-.8zm1.9-2.4c0-1 1 .6 1 .6s-.2.2-.4.6c-.2.4.2.7.5.9.2.3-.1.6-.1 1.1 0 .5.5.5.5.5v.6c0 .4.1.7.1.7s-.7-.1-1.1-.1c-.5 0-1 .4-1 .4l.1-1.3.3-.6s-.1 0-.4-.5c-.3-.5.2-.8.4-1.5.2-.8.1-1.4.1-1.4zm1.1-.2c0-.1-.1-.7.3-.5.4.2.7.3.7.3v.7c0 .1-1 .3-1-.5zm1.1 1.1-.1 1c-.7.2-.9-.3-.9-.7 0-.3.3-.8 1-.3zm.5 1.6-.1.8c-.8.2-1.1-.1-1.1-.4.1-.3.4-.8 1.2-.4zm.4 1.5-.1.8c-.8.2-1.1-.1-1.1-.4.1-.3.4-.8 1.2-.4zm-.6-4.6s.9-.3 1.3-.7c.3-.4.5-.4.8-.2.3.2.4 1.1.4 1.1s-2.2 1.1-2.3.9c-.4-.4-.6-1-.2-1.1zm.3 1.5s.5.1 1-.1.9-.7 1.2-.6c.3.1.2.9.2.9s-2.3 1.1-2.4.8c-.5-.1-.4-.9 0-1zm.5 1.4 1.9-.7c.3-.1.2.9.2.9s-2 1.1-2.1.8c-.5 0-.4-.8 0-1zm.7 1.5 1.1-.5c.3-.1 0 .8 0 .8s-1.2.9-1.3.6c-.6-.1-.3-.7.2-.9zm-1.8-6.7s.2 0 .8.1.9.3.9.3 0 .2-.1.4c-.1.1-.6-.1-1.1-.2-.5-.2-.5-.6-.5-.6zm-3.1 9.1c-2.1.4-3.4-1.1-2.5-4.4.2-2.4.7-3.8 3.1-4.6 1.1-.6 2.6-.6 4.4-.4l.1 1.4c.8.2 1.2 1 1.1 2 .3.5.3 1-.1 1.5.4.4.4.6-.1 1.3 0 .3.1 1.5-.9 1.8l-2 .4-3.1 1z"/><path id="XMLID_402_" class="st3" d="M73.3 56.2s-3.4 5.9-3.8 9.8c-.5 3.9-.7 8.5-.7 8.5l1.4.7 1.2 1.1h3.2l.3-.8s-.5.2-1.3-.1c-.7-.3-2.3-.1-1.9-3.2.5-3.1.5-3 .6-3.7.2-.7 2.2-2 2.2-2l.2-.2.3-.3s-3.2.1-3.4-.8-.7-1.3.2-1.6c.9-.3 1.6.1 1.6.1l.1-3.7-.2-3.8z"/><path id="XMLID_401_" class="st6" d="M73.3 56.2s-3.4 5.9-3.8 9.8c-.5 3.9-.7 8.5-.7 8.5l-1.4-.2c-1.3-7.2 3.9-20.4 6.1-21.4l-.2 3.3z"/><path id="XMLID_400_" class="st10" d="M71.3 85.8c.5.9.8 1.9 1.1 2.8.1-.8.4-1.8.9-2.8-.6.2-1.1.5-2 0z"/><path id="XMLID_399_" class="st6" d="M45.1 49c.1-.4 5 7.3 5.8 10.8.8 3 2.8 11.7 2.8 11.7 2.5.2 4.5.1 5.5-.6.1-.2-.4-7.2 3.4-15.8l3.4-6.8-1 .4-8.9 6.6-9.6-6.8-1.4.5z"/><path id="XMLID_398_" class="st6" d="m73.1 16-8.2 13.5c-7.4-1.4-15.3-1.8-24 .4L32.7 16h40.4z"/><path id="XMLID_397_" class="st3" d="m66.4 27-1.5 2.5c-7.4-1.4-15.4-1.8-24.1.4L39 26.7l4.5-.8 1.4 1 .7-1.3 6.2-.3.8 1 1.1-1c2.2 0 4.3.1 6.5.3l1.1 1.3.9-1c1.4.3 2.8.6 4.2 1.1z"/><path id="XMLID_396_" class="st1" d="m65.7 28.1-.4.6c-5.4-1.4-15.4-2-24.9.2l-.5-.7c6.1-1.2 18.2-2.3 25.8-.1z"/><path class="st3" d="m48.5 21.2-2.3 3.6h5l-2.7-3.6zm.1 1.6.9 1.2h-1.7l.8-1.2zM39.6 22.3l-1.3 2.9.3.8 4.2-.7-3.2-3zm.2 1.6 1.1 1-1.7.3.6-1.3zM66.4 22.6l1.1 3-.4.8-4.1-1 3.4-2.8zm-.4 1.6-1.2.9 1.6.4-.4-1.3zM57.3 21.4l-2.6 3.4 5 .4-2.4-3.8zm-.1 1.6.8 1.3-1.7-.1.9-1.2z"/><circle id="XMLID_387_" class="st3" cx="48.6" cy="19.7" r=".7"/><circle id="XMLID_386_" class="st3" cx="39.2" cy="21" r=".7"/><circle id="XMLID_385_" class="st3" cx="66.8" cy="21.2" r=".7"/><circle id="XMLID_384_" class="st3" cx="57.5" cy="19.9" r=".7"/><circle id="XMLID_383_" class="st3" cx="52.8" cy="21.8" r=".6"/><circle id="XMLID_382_" class="st3" cx="43.8" cy="22.4" r=".6"/><circle id="XMLID_381_" class="st3" cx="61.5" cy="22.3" r=".6"/><path id="XMLID_380_" class="st3" d="M54.6 23c-1.7.6-3.5 0-3.4 0 .5.9 1.1 1.3 1.7 1.3.7 0 1.4-.5 1.7-1.3z"/><path id="XMLID_379_" class="st3" d="M45.6 23.7c-1.7.5-3.5 0-3.4 0 .5.9 1.1 1.3 1.7 1.3.7 0 1.4-.6 1.7-1.3z"/><path id="XMLID_378_" class="st3" d="M63.2 23.7c-1.7.4-3.5-.3-3.4-.3.4.9 1 1.4 1.6 1.4.7.1 1.4-.4 1.8-1.1z"/><path id="XMLID_377_" class="st4" d="M57.7 28.6s1.1 3.8 1.2 5.7c.1 1.1.8 9.9 2 10.4"/><path id="XMLID_376_" class="st4" d="M59 28.5s1.1 3.8 1.2 5.7c.1 1.1.5 8.9 1.7 9.5"/><path id="XMLID_375_" class="st4" d="M60.4 28.9s1.1 3.8 1.2 5.7c.1 1.1.3 8.2 1.5 8.8"/><path id="XMLID_374_" class="st4" d="M62.1 29s.6 3.7.7 5.6c.1 1.1.4 7.7 1.6 8.3"/><path id="XMLID_373_" class="st4" d="M63.4 29.1s.6 3.7.7 5.6c.1 1.1.3 6.9 1.5 7.5"/><path id="XMLID_372_" class="st4" d="M64.6 29.4s.6 3.7.7 5.6c.1 1.1.5 6.2 1.7 6.8"/><path id="XMLID_371_" class="st4" d="M67.5 41.6c2.7.7 2.8 1.9 2.9 4.4"/><path id="XMLID_370_" class="st4" d="M66.2 42c1.8.5 3.3 2 2.6 4.5"/><path id="XMLID_369_" class="st4" d="M65 42.6c1.8.5 3.3 2.3 2.6 4.8"/><path id="XMLID_368_" class="st4" d="M63.9 43c1.8.5 3.3 2.4 2.6 4.9"/><path id="XMLID_367_" class="st4" d="M40.7 29.8s.5 5.9.4 7.4c-.1 1.5.8 5 1 5.6.2.6.3 3.6-1.5 4.3-1.6.7-4.3 1.9-4.8-1.1-.3-2.1 1-2.7 2.2-2.5 2.1.3 1.8 2.1 1.1 2.8-.8.8-2.5.1-1.4-1.2"/><path id="XMLID_366_" class="st4" d="M36.8 47.8s0 2 1.6 1.8c1.7-.1 3.6-1.3 4.4-3.1.7-1.8.6-2.1.6-2.1"/><path id="XMLID_365_" class="st4" d="M40.7 49.2s1.4 1.1 2.5-.2 1.6-3.3 1.6-3.3"/><path id="XMLID_364_" class="st4" d="M42.9 49.3s1.2.8 1.8-.4c.6-1.2 1.2-3.1 1.2-3.1"/><path id="XMLID_363_" class="st4" d="M44.8 48.8s1.1.3 1.8-.5c.7-.9.8-2.8.8-2.6"/><path id="XMLID_362_" class="st4" d="m37.5 43.3 4.3-1.5"/><path id="XMLID_361_" class="st4" d="m39.3 46.2 2.8-2.8"/><path id="XMLID_360_" class="st4" d="M39.2 42.8s1.9.8 1.4 2"/><path id="XMLID_359_" class="st4" d="M40.3 42.4s1.4.6 1.1 1.5"/><path id="XMLID_358_" class="st4" d="M40.7 31s-.8 2-.9 2.2c-.5-.1-1.7-.3-1.7.8s.3 1.5 1 1.5 1.9-1.2 1.9-1.2"/><path id="XMLID_357_" class="st4" d="M41 36.2s-1.7 2.2-1.8 2.4c-.5-.1-2-.4-2 .7s.5 1.5 1.1 1.5c1.4 0 2.9-1.9 2.9-1.9"/><path id="XMLID_356_" class="st4" d="M50.3 45.2s1.2 2.1 3.2 3.1c.6.3 4.3 1 4.3-.5"/><path id="XMLID_355_" class="st4" d="M51.8 45.5s2.8 3 4.6 2"/><path id="XMLID_354_" class="st4" d="M52.6 44.7s1.8 2.4 3.4 1.9"/><path id="XMLID_353_" class="st4" d="M53.7 44.2s1.8 1.6 2.6 1.3"/><path id="XMLID_352_" class="st4" d="M54.6 43.3s1.6 1.7 2.3 1.7"/><path id="XMLID_351_" class="st4" d="M55.9 42.5s1.9 2.1 2.6 2.4"/><path id="XMLID_350_" class="st4" d="M56.6 41.8s1.2 1.2 2 1.3"/><path class="st10" d="M40.7 31c-.1-.5 2.6-.9 3.1-1 1.5-.1 3 1.4 3.3 2.6.1.6.1 1.1 0 1.6-.2 1-1.1 3.8-.8 4.4.3.7.7.7 1.1.9.4.2 1.2.8.9 1.3 0 0-.6-.6-1.3-.8-1-.2-1.2-.7-1.2-1.1 0-.9.3-2.3.5-3.2l-.9.4.3-1.1c-1 .4-3.6.6-4.6-.4l-.4-3.6zm.5.6v.9s1.2-.9 2.4-.9 2.4.5 2.9.8c-.2-.6-.6-1.5-2.1-1.7-1.8-.1-3.2.6-3.2.9zm1 2.9c-.2-.2-.4-.7-.4-.7l-.6.2c.1 0 .1.9 1 .5zm0-.8c.3 1.6 1.5 1.1 2 1.1.7-.2 1-1.1 1-1.1l-.4-.1s.1 1.1-1.5.8c-.8-.1-.7-.8-.7-.8l-.4.1zm3.4.2-.3.7c.4 0 .6 0 .8-.2 0-.1.2-.1-.5-.5zm6-.1.2.7c-.3 0-.7-.1-.8-.4.1 0 .1 0 .6-.3zm3.1.8c.2-.2.6-1 .6-1l.6.2c0-.3-.2.9-1.2.8zm.1-1.2-.4-.1s0 .8-.7 1c-1 .2-1.3-.7-1.3-.7l-.4.1s.7 1.1 1.5 1.1c.4-.1 1.2-.5 1.3-1.4zm1.7.7c.2-.2 1 .6 1 .6l-.2-1-.8-.4c-.6-.3-1.6-.8-2.2-.8s-1.5 0-2.3.2c-.8.2-1.3.7-1.3.7s0-.2-.7-.3c-.7-.2-.3.3-.3.3l1 1.6.8.7.6.1s-.4-.9-.5-1c-.1-.1.7.5 2.2.3 1.3-.1 1.6.1 2.7-1zm-15.2-1.2v.3s1.2-.8 2.4-.8 2.4.7 2.9 1.1l.1-.4c-.3-.3-2.1-1.1-2.8-1.1-1.5.2-2.6.8-2.6.9z"/><path class="st10" d="M57 31.7s-2.2-1.1-3.9-1c-1.7.1-2.9.9-3.2.6-.3-.3-.4-.7.2-1 .5-.3 2.2-.6 3.4-.4 1.1.2 3.5 1.2 3.6 1.4.1.2-.1.4-.1.4zm-9 7.4s-.7.2-.7-.6c.1-1.2 1.4-.2 2.4.1 1 .2 1.2-.5 1.1-1-.1-.5-.3-.5-.7-.7-.2-.1.2-.1.6 0 .6.1.7.6.6 1.1-.1.5-.3 1-.6 1-.7.2-1.9-.2-2.7.1zm3.1 2.2c1.3.2 3.6.6 3.8-1.2.1-1.1-1.4-1.5-1.4-1.4 0 .2.6.5.9 1.1.1.6-.1.8-1.1 1-.8.2-1.7-.3-2.3-.8-.4-.3-1-.1-1.1.4-.2.9 1.2.9 1.2.9zm-3.5 2.5c.2 0 .4.3.9.3.7 0 .7-.1 1.1-.2.3-.1.3 0 .2.1-.1.1-1.1.9-1.7.5-.5-.5-.7-.9-.5-.7zm-.2-.8c-.6-.3-1.7.2-1.7.2v-.9s.9 0 1.1-.1c.2-.1.1-.4.6-.4s.7.2 1 .3c.3 0 .5 0 1-.1.5-.2.5-.2 1 .1.5.3 1 .4 1.2.3.3-.1.4.9.4.9s.3.4-.6.1c-1-.3-1.5-.5-1.8-.3-.5.1-1.2.3-2.2-.1zm-1.6-1.2s1.2-.4 1-1.2c-.1-.4-.6-.5-.9-.2-.5.5-1.1.9-1.8 1-.8-.1-1-.5-.9-1 .2-.6.7-1.1.7-1.3 0-.1-1.4.7-1.2 1.7.3 1.7 2.1 1.4 3.1 1z"/><path id="XMLID_333_" class="st11" d="M51 32.5s.8-1.1 3.1-.9c2.3.2 3.1 1.1 3.3 1.3"/><path id="XMLID_332_" class="st7" d="m48 53.4 8 5.5 7.3-5.1"/><path id="XMLID_331_" class="st7" d="M63.6 50.7v2.5"/><path id="XMLID_330_" class="st7" d="M64.8 48.6v1.9"/><path id="XMLID_329_" class="st7" d="M62.3 51.5v3.1"/><path id="XMLID_328_" class="st7" d="M61 52.4v2.9"/><path id="XMLID_327_" class="st7" d="M59.7 53.2v3"/><path id="XMLID_326_" class="st7" d="M58.4 54v3.1"/><path id="XMLID_325_" class="st7" d="m57.1 54.9.1 3.1"/><path id="XMLID_324_" class="st7" d="M56 55.6v3.1"/><path id="XMLID_323_" class="st7" d="m54.7 54.6.1 3.2"/><path id="XMLID_322_" class="st7" d="m53.3 53.6.1 3.4"/><path id="XMLID_321_" class="st7" d="m51.9 52.5.1 3.7"/><path id="XMLID_320_" class="st7" d="m46.5 48.5.1 2.2"/><path id="XMLID_319_" class="st7" d="M48 49.7v3.6"/><path id="XMLID_318_" class="st7" d="m49.2 50.5-.1 3.6"/><path id="XMLID_317_" class="st7" d="M50.6 51.6V55"/><path id="XMLID_316_" class="st7" d="M50 57.7s3 2.6 6.3 2.3c3.3-.2 5.5-2.7 5.5-2.7"/><path id="XMLID_315_" class="st7" d="M51.3 60.8s1.6 2.2 5 1.9c3.4-.2 4.6-2.1 4.4-1.7"/><path id="XMLID_314_" class="st7" d="M52 64s2 2 4 1.7c2.1-.2 3.8-1.5 3.8-1.5"/><path id="XMLID_313_" class="st7" d="M52.9 67.4s1.9 1.4 3.7 1.2c1.8-.2 2.8-.8 2.8-.8"/><path id="XMLID_312_" class="st7" d="M53.7 71.5s.9.4 2.8.2c1.8-.2 2.8-.8 2.8-.8"/><path id="XMLID_311_" class="st7" d="m56.2 68.5-1.5 2 1.4 1.3 1.6-1.3z"/><path id="XMLID_310_" class="st7" d="m56.3 74.3-1.2 1.3 1.5 1.6 1.4-1.6z"/><path id="XMLID_309_" class="st7" d="m59 71.6-1.5 1.6 1.7 1.5"/><path id="XMLID_308_" class="st7" d="m53.7 72.4 1.3 1.1-.9.9"/><circle id="XMLID_307_" class="st10" cx="56.2" cy="70.4" r=".6"/><circle id="XMLID_306_" class="st10" cx="56.5" cy="75.6" r=".6"/><path id="XMLID_305_" class="st12" d="M59.2 71c.1-.2-.4-7.2 3.4-15.8l3.4-6.8s3.4-2.5 4.8-2.3c1.4.2 2.8 1.3 2.8 1.4l-.1 5.4c-2.2 1-7.4 14.2-6.1 21.4-6.6-.4-6.7 2.7-7.9 3.4l-.3-6.7z"/><ellipse id="XMLID_304_" class="st7" cx="56.3" cy="73.2" rx="1.4" ry="1.3"/><path id="XMLID_303_" class="st3" d="m63.4 104.6 8.1-3.7c-5.3-2.6-10.1-5.6-14.4-12.5-2.4-5-2.4-9.5-3-14.3-1.1-8.4-3-17.1-8.9-25.2-1.4.5-1.5.7-2.2.4-1 .9-2.2.4-2.5-.2-1 1.1-3.8 1-3.8-1.2 0-.3-.5-.5-.6-.8L28 50.8c5.3 2.6 10.1 5.6 14.4 12.5 1.9 4.1 2.4 8 2.6 11.7.1 1.5.2 1.9.4 3.1 1.1 8.3 3.1 16.8 8.9 24.7 1.4-.5 1.5-.7 2.2-.4 1-.9 2.2-.4 2.5.2 1-1.1 3.8-1 3.8 1.2.1.3.6.5.6.8z"/><path class="st13" d="M50.2 75.9s1.9-1 1.9-2.5c0-1.4-.4-1.8-.6-1.9-.2-.1-1-.3-1.2.9-.2.7.2.4-.4.5-.5.2-2-1-1.8-2.3.1-.4.5 1 1.6.9 1.2-.1 1.8-.6 2-1.4.5-1.6 0-3-1.1-5.4.5-1.9 1-3.1-1.9-4.8-1.3-.6-2.3.3-2.2 2.9.1.8-.4 1.1-.8.9-.9-.4-.6-1.7-.9-2.5-.5-1.6-1.7-3.9-3.4-5.5-1.9-1.8-4.9-2.9-6.1-1.7 2.6-.1 4.2.8 5.1 2.4.2.5.7 1.1.2 2.3-.3.7.4.8.7.4.2-.3.3-.8.5-.8l.7.9c.7.7.5 2.9 1 4.1.5 1.6 1.4 2.3 2.1 2.3 1.4-.1 2.2-1.5 1.9-3.4 0-1.8 1.5-1.6 2.1-.6.7 1.2.6 2.2-.1 1.9-.3-.1-.5-.3-.4-.5.2-1-.5-1.4-.9-.6-.3.7-.1 2 .5 2.2 1.1.5 1.8 1.7 1.9 2.9.1 1.5.2 2.2-1.1 2.3-.6.1-1.2-.4-1.4-1.4-.1-.5 0-1.5-.9-1.3-.4.1-.5.7-.5 1.4-.8-.8-1 .7.1 1.5-.3 3.1.1 2.4.7 1.9.4.9 1.1 1.5 1.9 1.6 1.5.2 1.4 1.2.8 2.4zm-4.6-20c-2.1-.7-1.7.4-2.1 1.3-.5-.2-1.9-2.2-.6-2.8 1.8-.4 2.7 1.5 2.7 1.5zm1.9 3c-2.4-.5-1.9.9-2 1.6-.4-.5-1.9-1.5-1-2.8 1.6-1.2 3 1.2 3 1.2zm-9.4-7.4c1.8 1.2 2.6.4 3.2-.2 0 .9.6 2.1-1.2 2.1-1.9-.1-2-1.9-2-1.9zm-1.9-.2s.5 0 .7.4c.2.4.4 1.2-.6 1.4-1 .2-1-.6-1.4-.4-.7.3-1 .2-1.4.1-.4-.2-.5-1.2.1-1.9.7-.7 2-.4 2-.4s-.4.1-1.1.5c-.7.3-.3 1.2-.3 1.2s.6.1.8-.1c.1-.2 0-.8 1.2-.8zM69 50.8l-2-1.3c1-1.7 2.5-2.5 4.3-1.8 1.8.8 1.6 2.9.6 4.7v.1l-2-1.3c.4-.6.9-1.1.3-1.3-.6-.2-.8.3-1.2.9zm.7.7c-.3.5-.6 1-1.1.7-.5-.3-.1-.7.3-1.2l-2-1.2c-1 1.8-1 3.6.5 4.5 1.5.9 3.2.1 4.3-1.5l-2-1.3zM65.3 58.1l-2.2-.8c.7-1.9 2-3 3.9-2.6 1.9.4 2.2 2.5 1.5 4.5v.1l-2.2-.8c.2-.7.6-1.3 0-1.4-.6-.2-.8.3-1 1zm.8.6c-.2.6-.4 1.1-.9.9-.6-.2-.2-.6 0-1.2l-2.2-.8c-.6 1.9-.3 3.7 1.4 4.3 1.7.5 3.2-.5 3.9-2.3l-2.2-.9zM63 66l-2.3-.2c.2-2 1.1-3.4 3-3.5 2-.1 2.7 1.9 2.6 4v.1l-2.3-.3c0-.7.3-1.4-.3-1.3-.7 0-.6.5-.7 1.2zm.9.4c0 .6-.1 1.1-.6 1.1-.6 0-.4-.5-.3-1.2l-2.3-.2c-.1 2 .7 3.7 2.5 3.8 1.7.1 2.9-1.4 3.2-3.3l-2.5-.2zM62.8 74.2l-2.4.1c-.2-2 .6-3.5 2.5-3.9 1.9-.4 3 1.4 3.2 3.5v.1l-2.4.1c-.1-.7.1-1.4-.5-1.3-.6.2-.4.7-.4 1.4zm1 .3c.1.6.1 1.1-.4 1.2-.6.1-.5-.5-.5-1.1l-2.3.2c.2 2 1.3 3.5 3 3.3 1.7-.2 2.7-1.8 2.6-3.7l-2.4.1z"/><path id="XMLID_289_" class="st11" d="M73.6 63.6V28.3l2.5-2 2.9 2v34.4"/><path id="XMLID_288_" class="st6" d="M66.4 88.8c4.1 0 7.5-3.4 7.5-7.5s-3.4-7.5-7.5-7.5-7.5 3.4-7.5 7.5c0 4.2 3.3 7.5 7.5 7.5z"/><path id="XMLID_287_" class="st14" d="M66.4 73.8c1 0 2 .2 2.9.6-1.7 1.9-4 1.9-6.5.3 1.1-.5 2.3-.9 3.6-.9z"/><circle id="XMLID_286_" class="st3" cx="62.3" cy="76.5" r=".5"/><circle id="XMLID_285_" class="st3" cx="61.7" cy="80.5" r=".7"/><circle id="XMLID_284_" class="st3" cx="66" cy="80.9" r=".7"/><circle id="XMLID_283_" class="st3" cx="66" cy="84.6" r=".7"/><circle id="XMLID_282_" class="st3" cx="62.1" cy="84.2" r=".7"/><circle id="XMLID_281_" class="st3" cx="71" cy="80.8" r=".7"/><circle id="XMLID_280_" class="st3" cx="70.6" cy="84.7" r=".7"/><circle id="XMLID_279_" class="st3" cx="64" cy="77.1" r=".5"/><circle id="XMLID_278_" class="st3" cx="66.1" cy="77.3" r=".5"/><circle id="XMLID_277_" class="st3" cx="67.8" cy="77.1" r=".5"/><circle id="XMLID_276_" class="st3" cx="69.5" cy="76.8" r=".5"/><path id="XMLID_275_" class="st3" d="M70.9 75.5c.3 0 .5.2.5.5s-.2.5-.5.5-.5-.2-.5-.5.2-.5.5-.5z"/><path id="XMLID_274_" class="st14" d="M59.6 78.2s1 1.3 2.9.8c1.2.6 1.1.7 2.4.4.7.5 1.6.4 2.6 0 1.1.5 1.8.2 2.5-.4.7.6 1.4.5 1.9-.3.6.3 1.2.1 1.3-.8l-.7-1.1c-.5.4-.8 1-2 .8-.2.1-.8 1-1.7.3-.5.6-.9.4-1.7.1-.7.8-1.4.6-2.2-.1-.8.4-1.5.3-1.9-.4-1.1.3-1.9 0-2.3-.9l-1.1 1.6z"/><path id="XMLID_273_" class="st15" d="M59.2 78.9c.6 2.7 1.9 4 4.4 2.4 1.6.9 3.3 1.7 5 0 1.7 1.3 3.5 1.3 5.2-.9"/><path id="XMLID_272_" class="st15" d="M58.9 80.7c.8 2.3 2.4 2.8 4.8 1.6 1.6.9 3.2 1.8 5 .1 1.7 1.3 3.7 1.5 5.3-.7"/><path id="XMLID_271_" class="st15" d="M59.6 84.2c1.7 1.7 2.4 1.4 4.3.6 1.6.9 2.4 1.9 4.1.2 1.7 1.3 3.3 1.8 5-.4"/><path id="XMLID_270_" class="st15" d="M60.2 85.6c1.5 1.7 2 1.2 3.6.4 1.2.7 2.4 1.8 4.2.3 1.4.7 2.4 1.8 4-.3"/><path id="XMLID_269_" class="st6" d="m69 88.3 1.5 2.6c-1.9.4-3.3 1.1-3.9 2.2-.8-1.1-2-2-4-2.3l1.7-2.3c1.5.5 3.1.5 4.7-.2z"/><path id="XMLID_268_" class="st15" d="m65.3 88.8-.8 1.4c1 .3 1.5 1.1 2.3 1.6.5-.6 1-1.1 2-1.5l-.8-1.8"/><circle id="XMLID_267_" class="st3" cx="66.6" cy="89.8" r=".5"/><circle id="XMLID_266_" class="st10" cx="68.2" cy="94" r=".7"/><circle id="XMLID_265_" class="st10" cx="72.5" cy="92.8" r=".7"/><circle id="XMLID_264_" class="st10" cx="60" cy="86.7" r=".7"/><circle id="XMLID_263_" class="st10" cx="58.3" cy="77.1" r=".7"/><circle id="XMLID_262_" class="st10" cx="63.5" cy="91.9" r=".7"/><path id="XMLID_261_" class="st10" d="M67.2 95.1c.5 1 .8 2.1 1.1 3 .1-.9.4-1.9.9-3-.5.3-1 .5-2 0z"/><path id="XMLID_260_" class="st10" d="M71.5 93.9c.5 1 .8 2.1 1.1 3 .1-.9.4-1.9.9-3-.5.3-1 .5-2 0z"/><path id="XMLID_259_" class="st10" d="M59 87.8c.5 1 .8 2.1 1.1 3 .1-.9.4-1.9.9-3-.5.3-1 .5-2 0z"/><path id="XMLID_258_" class="st10" d="M57.2 78.2c.5 1 .8 2.1 1.1 3 .1-.9.4-1.9.9-3-.5.3-1 .5-2 0z"/><path id="XMLID_257_" class="st10" d="M62.5 93c.5 1 .8 2.1 1.1 3 .1-.9.4-1.9.9-3-.5.3-1 .5-2 0z"/><path id="XMLID_256_" class="st11" d="M74.7 75.3c-2.1.4-3.4-1.1-2.5-4.4.2-2.4.7-3.8 3.1-4.6 1.1-.6 2.6-.6 4.4-.4l.1 1.4c.8.2 1.2 1 1.1 2 .3.5.3 1-.1 1.5.4.4.4.6-.1 1.3 0 .3.1 1.5-.9 1.8l-2 .4-3.1 1z"/><path id="XMLID_255_" class="st11" d="M76.1 26.4s-.4 1.5-.4 2.6.3.9.1 2c-.2 1.1-.1 1.1.1 1.6s.1.1.1 1.2c0 1.1-.3 1.6-.2 2.5.2.9-.5 1.7-.1 2.1.4.4.2 1.1.1 2.1-.2 1 0 1.2.1 2.1.1.9-.2 1.7-.2 2.4s-.1.6.2 1.8c.2 1.2.7 2.4.7 3 0 .6.2 1.8 0 2.9-.2 1.1-.7 2.5-.4 3.2.2.7.4 1.1.4 2.3.1 1.2.1 1.2.2 2.1.1 1 .2 1.3 0 1.8s-.2 1.4-.2 1.4"/><path id="XMLID_254_" class="st11" d="M75.6 28.3h3.3"/><path id="XMLID_253_" class="st11" d="M75.7 29.8H79"/><path id="XMLID_252_" class="st11" d="M75.8 30.9h3"/><path id="XMLID_251_" class="st11" d="M75.8 32.2H79"/><path id="XMLID_250_" class="st11" d="M76 33.3h3"/><path id="XMLID_249_" class="st11" d="M75.8 36.1H79"/><path id="XMLID_248_" class="st11" d="M75.8 37.2H79"/><path id="XMLID_247_" class="st11" d="M75.7 38.6h3.2"/><path id="XMLID_246_" class="st11" d="M75.8 39.9H79"/><path id="XMLID_245_" class="st11" d="M75.8 41.4H79"/><path id="XMLID_244_" class="st11" d="M75.8 42.8H79"/><path id="XMLID_243_" class="st11" d="M75.9 44h3.2"/><path id="XMLID_242_" class="st11" d="M75.6 45.3h3.2"/><path id="XMLID_241_" class="st11" d="M75.7 46.5h3.2"/><path id="XMLID_240_" class="st11" d="M76.1 47.9h2.8"/><path id="XMLID_239_" class="st11" d="M76.4 49.3h2.7"/><path id="XMLID_238_" class="st11" d="M76.5 50.4h2.6"/><path id="XMLID_237_" class="st11" d="M76.5 51.8h2.6"/><path id="XMLID_236_" class="st11" d="M76.4 52.9H79"/><path id="XMLID_235_" class="st11" d="M76.2 54.4H79"/><path id="XMLID_234_" class="st11" d="M76 55.7h3"/><path id="XMLID_233_" class="st11" d="M76.4 56.9H79"/><path id="XMLID_232_" class="st11" d="M76.4 58.4H79"/><path id="XMLID_231_" class="st11" d="M76.6 59.7h2.3"/><path id="XMLID_230_" class="st5" d="M76.7 60.9H79"/><path id="XMLID_229_" class="st11" d="M76.5 62.3h2.6"/><path id="XMLID_228_" class="st11" d="M75.8 34.9H79"/><path id="XMLID_227_" class="st4" d="m71.1 101 11.4-7.1"/><path id="XMLID_226_" class="st16" d="m32.7 16 8 13.9c8.7-2.1 16.7-1.8 24.1-.4L73.1 16"/><path id="XMLID_225_" class="st1" d="M48.8 45.1c1.2 2.5 6.2 6.3 9.2 4.5 1.4-.8 1.9-2.7 1.5-3.5l1.6 2.1-5.4 3.5-7.7-4.4.8-2.2z"/><path id="XMLID_224_" class="st3" d="M64.7 48.8c-1.8 1.2-3.8-.3-3.6-.5l-5.4 3.5-7.7-4.5s-1.5 1.4-1.9 1.1l9.9 7.1 8.7-5.7v-1z"/><path id="XMLID_223_" class="st4" d="M46.3 48.4s.8.1 1.5-.8.7-2.9.7-2.7"/><path id="XMLID_222_" class="st4" d="M48.8 45.1c1.2 2.5 6.2 6.3 9.2 4.5 1.4-.8 1.9-2.7 1.5-3.5-.6-1.5-1.8-1.7-2.6-1.2-1.1.6-1.4 2.2-.2 2.8.8.4 2.3.2 1.4-1.4"/><path id="XMLID_221_" class="st4" d="M56.4 28.5c1.2 4.1 1.3 10.9 2.2 14.4.5 1.9 1.8 5.6 4 6.2 1.3.4 2.7 0 2.6-2.3-.1-2.3-1.2-2.9-2.2-3.1-2.9-.6-2.3 2.9-.9 3.5 1 .4 2.8-.5.7-2.2"/><path id="XMLID_220_" class="st4" d="m64.6 48.9 2-1"/><path id="XMLID_219_" class="st17" d="M66.4 88.8c4.1 0 7.5-3.4 7.5-7.5s-3.4-7.5-7.5-7.5-7.5 3.4-7.5 7.5c0 4.2 3.3 7.5 7.5 7.5z"/><path id="XMLID_218_" class="st9" d="M25 76.3c2.1-.4 3.4 1.1 2.5 4.4-.2 2.4-.7 3.8-3.1 4.6-1.1.6-2.6.6-4.4.4l-.1-1.4c-.8-.2-1.2-1-1.1-2-.3-.5-.3-1 .1-1.5-.4-.4-.4-.6.1-1.3 0-.3-.1-1.5.9-1.8l2-.4 3.1-1z"/><path class="st10" d="M26 80.1s-1.4.6-1.6 1.8c-.2 1.2.1 1.5.1 1.5s-.7-.1-1.3-.1c-.6 0 .3.2-1.5.1-.7.3-1.1.6-.8.9 0 0 .8 0 1 .3.2.4 0 .7 1.3.6 1.3-.1 2.6-.7 3-1 .4-.3 1.1-1.5 1.1-2.2 0-.7.7-3.5.4-4.1-.3-.6-1.6-2.2-1.9-1.6-.4.5-.7.8-.7.8l-.1 2.2c.6.8 1.2.1 1 .8zm-2 2.5c0 1-1-.6-1-.6s.2-.2.4-.6c.2-.4-.2-.7-.5-.9-.2-.3.1-.6.1-1.1 0-.5-.5-.5-.5-.5v-.6c0-.4-.1-.7-.1-.7s.7.1 1.1.1c.5 0 1-.4 1-.4l-.1 1.3-.3.6s.1 0 .4.5c.3.5-.2.8-.4 1.5s-.1 1.4-.1 1.4zm-1.1.1c0 .1.1.7-.3.5-.4-.2-.7-.3-.7-.3v-.7c.1-.1 1-.2 1 .5zm-1.1-1.1.1-1c.7-.2.9.3.9.7 0 .3-.3.8-1 .3zm-.5-1.6.1-.8c.8-.2 1.1.1 1.1.4 0 .3-.4.8-1.2.4zm-.4-1.5.1-.8c.8-.2 1.1.1 1.1.4-.1.3-.4.8-1.2.4zm.6 4.6s-.9.3-1.3.7c-.3.4-.5.4-.8.2-.3-.2-.4-1.1-.4-1.1s2.2-1.1 2.3-.9c.4.4.6 1 .2 1.1zm-.3-1.5s-.5-.1-1 .1-.9.7-1.2.6c-.3-.1-.2-.9-.2-.9s2.3-1.1 2.4-.8c.5.1.4.9 0 1zm-.5-1.4-1.9.7c-.2.1-.2-.9-.2-.9s2-1.1 2.1-.8c.5 0 .5.8 0 1zm-.6-1.5-1.1.5c-.3.1 0-.8 0-.8s1.2-.9 1.3-.6c.5.1.2.7-.2.9zm1.7 6.7s-.2 0-.8-.1c-.6-.1-.9-.3-.9-.3s0-.2.1-.4c.1-.1.6.1 1.1.3.5.1.5.5.5.5zm3.2-9.1c2.1-.4 3.4 1.1 2.5 4.4-.2 2.4-.7 3.8-3.1 4.6-1.1.6-2.6.6-4.4.4l-.1-1.4c-.8-.2-1.2-1-1.1-2-.3-.5-.3-1 .1-1.5-.4-.4-.4-.6.1-1.3 0-.3-.1-1.5.9-1.8l2-.4 3.1-1z"/><path id="XMLID_205_" class="st3" d="M26.3 95.4s3.4-5.9 3.8-9.8c.5-3.9.7-8.5.7-8.5l-1.4-.7-1.2-1.1H25l-.3.8s.5-.2 1.3.1c.7.3 2.2 0 1.9 3.2-.3 3.2-.5 3.4-.9 3.9s-1.9 1.8-1.9 1.8l.4.3s2.5 0 2.6.8c.1.8.7 1.3-.2 1.6-.9.3-1.4 0-1.4 0l-.2 7.6z"/><path id="XMLID_204_" class="st6" d="M26.3 95.4s3.4-5.9 3.8-9.8c.5-3.9.7-8.5.7-8.5l1.4.2c1.3 7.2-3.9 20.4-6.1 21.4l.2-3.3z"/><path id="XMLID_203_" class="st10" d="M28.4 65.8c-.5-.9-.8-1.9-1.1-2.8-.1.8-.4 1.8-.9 2.8.5-.2 1-.5 2 0z"/><path id="XMLID_202_" class="st6" d="m26.6 135.6 8.2-13.5c7.4 1.4 15.3 1.8 24-.4l8.2 13.9H26.6z"/><path id="XMLID_201_" class="st3" d="m33.2 124.6 1.5-2.5c7.4 1.4 15.4 1.8 24.1-.4l1.8 3.1-4.5.8-1.4-1-.7 1.3-6.2.3-.8-1-1.1 1c-2.2 0-4.3-.1-6.5-.3l-1.1-1.3-.9 1c-1.4-.2-2.8-.5-4.2-1z"/><path id="XMLID_200_" class="st1" d="m33.9 123.5.4-.6c5.4 1.4 15.4 2 24.9-.2l.5.7c-6.1 1.2-18.2 2.3-25.8.1z"/><path class="st3" d="m51.1 130.4 2.3-3.6h-5l2.7 3.6zm0-1.6-.9-1.2h1.7l-.8 1.2zM60.1 129.3l1.3-2.9-.3-.8-4.2.7 3.2 3zm-.3-1.6-1.1-1 1.7-.3-.6 1.3zM33.2 129l-1.1-3 .4-.8 4.1 1-3.4 2.8zm.4-1.6 1.2-.9-1.6-.4.4 1.3zM42.3 130.2l2.6-3.4-5-.4 2.4 3.8zm.1-1.6-.8-1.3 1.7.1-.9 1.2z"/><circle id="XMLID_191_" class="st3" cx="51" cy="131.9" r=".7"/><circle id="XMLID_190_" class="st3" cx="60.4" cy="130.6" r=".7"/><circle id="XMLID_189_" class="st3" cx="32.8" cy="130.4" r=".7"/><circle id="XMLID_188_" class="st3" cx="42.1" cy="131.7" r=".7"/><circle id="XMLID_187_" class="st3" cx="46.8" cy="129.8" r=".6"/><circle id="XMLID_186_" class="st3" cx="55.8" cy="129.2" r=".6"/><circle id="XMLID_185_" class="st3" cx="38.1" cy="129.3" r=".6"/><path id="XMLID_184_" class="st3" d="M45.1 128.6c1.7-.6 3.5 0 3.4 0-.5-.9-1.1-1.3-1.7-1.3-.7 0-1.4.5-1.7 1.3z"/><path id="XMLID_183_" class="st3" d="M54 127.9c1.7-.5 3.5 0 3.4 0-.5-.9-1.1-1.3-1.7-1.3-.7 0-1.4.6-1.7 1.3z"/><path id="XMLID_182_" class="st3" d="M36.4 127.9c1.7-.4 3.5.3 3.4.3-.4-.9-1-1.4-1.6-1.4-.7-.1-1.4.4-1.8 1.1z"/><path id="XMLID_181_" class="st4" d="M42 123s-1.1-3.8-1.2-5.7c-.1-1.1-.8-9.9-2-10.4"/><path id="XMLID_180_" class="st4" d="M40.6 123.1s-1.1-3.8-1.2-5.7c-.1-1.1-.5-8.9-1.7-9.5"/><path id="XMLID_179_" class="st4" d="M39.2 122.7s-1.1-3.8-1.2-5.7c-.1-1.1-.3-8.2-1.5-8.8"/><path id="XMLID_178_" class="st4" d="M37.5 122.6s-.6-3.7-.7-5.6c-.1-1.1-.4-7.7-1.6-8.3"/><path id="XMLID_177_" class="st4" d="M36.2 122.5s-.6-3.7-.7-5.6c-.1-1.1-.3-6.9-1.5-7.5"/><path id="XMLID_176_" class="st4" d="M35 122.2s-.6-3.7-.7-5.6c-.1-1.1-.5-6.2-1.7-6.8"/><path id="XMLID_175_" class="st4" d="m37.5 107.9-6.4 2.4c-1.2.3-2.3-.1-3-1.7-.3-1-.3-2.3.6-3.1"/><path id="XMLID_174_" class="st4" d="M32.1 110c-2.7-.7-2.8-1.9-2.9-4.4"/><path id="XMLID_173_" class="st4" d="M33.4 109.6c-1.8-.5-3.3-2-2.6-4.5"/><path id="XMLID_172_" class="st4" d="M34.7 109c-1.8-.5-3.3-2.3-2.6-4.8"/><path id="XMLID_171_" class="st4" d="M35.7 108.6c-1.8-.5-3.3-2.4-2.6-4.9"/><path id="XMLID_170_" class="st4" d="M59 121.8s-.5-5.9-.4-7.4c.1-1.5-.8-5-1-5.6-.2-.6-.3-3.6 1.5-4.3 1.5-.7 4.2-1.9 4.7 1.1.3 2.1-1 2.7-2.2 2.5-2.1-.3-1.8-2.1-1.1-2.8.8-.8 2.5-.1 1.4 1.2"/><path id="XMLID_169_" class="st4" d="M62.8 103.8s0-2-1.6-1.8c-1.7.1-3.6 1.3-4.4 3.1-.7 1.8-.6 2.1-.6 2.1"/><path id="XMLID_168_" class="st4" d="M59 102.4s-1.4-1.1-2.5.2-1.6 3.2-1.6 3.3"/><path id="XMLID_167_" class="st4" d="M56.7 102.3s-1.2-.8-1.8.4c-.6 1.2-1.2 3.1-1.2 3.1"/><path id="XMLID_166_" class="st4" d="M54.9 102.8s-1.1-.3-1.8.5c-.7.9-.8 2.8-.8 2.6"/><path id="XMLID_165_" class="st4" d="m62.2 108.3-4.3 1.5"/><path id="XMLID_164_" class="st4" d="m60.4 105.4-2.9 2.8"/><path id="XMLID_163_" class="st4" d="M60.5 108.9s-1.9-.8-1.4-2"/><path id="XMLID_162_" class="st4" d="M59.3 109.2s-1.4-.6-1.1-1.5"/><path id="XMLID_161_" class="st4" d="M58.9 120.6s.8-2 .9-2.2c.5.1 1.7.3 1.7-.8s-.3-1.5-1-1.5-1.9 1.2-1.9 1.2"/><path id="XMLID_160_" class="st4" d="M58.6 115.4s1.7-2.2 1.8-2.4c.5.1 2 .4 2-.7s-.5-1.5-1.1-1.5c-1.4 0-2.9 1.9-2.9 1.9"/><path id="XMLID_159_" class="st4" d="M49.3 106.4s-1.2-2.1-3.2-3.1c-.6-.3-4.3-1-4.3.5"/><path id="XMLID_158_" class="st4" d="M47.8 106.1s-2.8-3-4.6-2"/><path id="XMLID_157_" class="st4" d="M47 106.9s-1.8-2.4-3.4-1.9"/><path id="XMLID_156_" class="st4" d="M45.9 107.4s-1.8-1.6-2.6-1.3"/><path id="XMLID_155_" class="st4" d="M45 108.3s-1.6-1.7-2.3-1.7"/><path id="XMLID_154_" class="st4" d="M43.8 109.1s-1.9-2.1-2.6-2.4"/><path id="XMLID_153_" class="st4" d="M43.1 109.8s-1.2-1.2-2-1.3"/><path class="st10" d="M58.9 120.6c.1.5-2.6.9-3.1 1-1.5.1-3-1.4-3.3-2.6-.1-.6-.1-1.1 0-1.6.2-1 1.1-3.8.8-4.4-.3-.7-.7-.7-1.1-.9-.4-.2-1.2-.8-.9-1.3 0 0 .6.6 1.3.8 1 .2 1.2.7 1.2 1.1 0 .9-.3 2.3-.5 3.2l.9-.4-.3 1.1c1-.4 3.6-.6 4.6.4l.4 3.6zm-.4-.6v-.9s-1.2.9-2.4.9-2.4-.5-2.9-.8c.2.6.6 1.5 2.1 1.7 1.8.1 3.1-.6 3.2-.9zm-1.1-2.9c.2.2.4.7.4.7l.6-.2s0-.9-1-.5zm0 .8c-.3-1.6-1.5-1.1-2-1.1-.7.2-1 1.1-1 1.1l.4.1s-.1-1.1 1.5-.8c.8.1.7.8.7.8l.4-.1zm-3.3-.2.3-.7c-.4 0-.6 0-.8.2 0 .1-.3.1.5.5zm-6.1.1-.2-.7c.3 0 .7.1.8.4 0 0-.1 0-.6.3zm-3-.8c-.2.2-.6 1-.6 1l-.6-.2c-.1.3.1-.9 1.2-.8zm-.2 1.2.4.1s0-.8.7-1c1-.2 1.3.7 1.3.7l.4-.1s-.7-1.1-1.5-1.1c-.3.1-1.1.5-1.3 1.4zm-1.7-.7c-.2.2-1-.6-1-.6l.2 1 .8.4c.6.3 1.6.8 2.2.8.5 0 1.5 0 2.3-.2.8-.2 1.3-.7 1.3-.7s0 .2.7.3c.7.2.3-.3.3-.3l-1-1.6-.8-.7-.6-.1s.4.9.5 1c.1.1-.7-.5-2.2-.3-1.3.1-1.5-.1-2.7 1zm15.2 1.2v-.3s-1.2.8-2.4.8-2.4-.7-2.9-1.1l-.1.4c.3.3 2.1 1.1 2.8 1.1 1.6-.2 2.6-.8 2.6-.9z"/><path class="st10" d="M42.6 119.9s2.2 1.1 3.9 1c1.7-.1 2.9-.9 3.2-.6.3.3.4.7-.2 1-.5.3-2.2.6-3.3.4-1.1-.2-3.5-1.2-3.6-1.4-.1-.2 0-.4 0-.4zm9-7.4s.7-.2.7.6c-.1 1.2-1.4.2-2.4-.1-1-.2-1.2.5-1.1 1 .1.5.3.5.7.7.2.1-.2.1-.6 0-.6-.1-.7-.6-.6-1.1.1-.5.3-1 .6-1 .7-.2 1.9.2 2.7-.1zm-3.1-2.2c-1.3-.2-3.6-.6-3.8 1.2-.1 1.1 1.4 1.5 1.4 1.4 0-.2-.6-.5-.9-1.1-.1-.6.1-.8 1.1-1 .8-.2 1.7.3 2.3.8.4.3 1 .1 1.1-.4.2-.9-1.2-.9-1.2-.9zm3.5-2.5c-.2 0-.4-.3-.9-.3-.7 0-.7.1-1.1.2-.3.1-.3 0-.2-.1.1-.1 1.1-.9 1.7-.5.6.5.8.9.5.7zm.3.8c.6.3 1.7-.2 1.7-.2v.9s-.9 0-1.1.1c-.2.1-.1.4-.6.4s-.7-.2-1-.3c-.3 0-.5 0-1 .1-.5.2-.5.2-1-.1-.5-.3-1-.4-1.2-.3-.3.1-.4-.9-.4-.9s-.3-.4.6-.1c1 .3 1.5.5 1.8.3.5-.1 1.1-.3 2.2.1zm1.5 1.2s-1.2.4-1 1.2c.1.4.6.5.9.2.5-.5 1.1-.9 1.8-1 .8.1 1 .5.9 1-.2.6-.7 1.1-.7 1.3 0 .1 1.4-.7 1.2-1.7-.2-1.7-2.1-1.4-3.1-1z"/><path id="XMLID_136_" class="st11" d="M48.6 119.1s-.8 1.1-3.1.9c-2.3-.2-3.1-1.1-3.3-1.3"/><path id="XMLID_135_" class="st7" d="M36 100.9v-2.5"/><path id="XMLID_134_" class="st7" d="M34.8 103v-1.9"/><path id="XMLID_133_" class="st7" d="M37.3 100.1V97"/><path id="XMLID_132_" class="st7" d="M38.7 99.2v-2.9"/><path id="XMLID_131_" class="st7" d="M39.9 98.4v-3"/><path id="XMLID_130_" class="st7" d="M41.2 97.6v-3.1"/><path id="XMLID_129_" class="st7" d="M42.5 96.7v-3.1"/><path id="XMLID_128_" class="st7" d="M43.6 96v-3.1"/><path id="XMLID_127_" class="st7" d="M44.9 97v-3.2"/><path id="XMLID_126_" class="st7" d="M46.3 98v-3.4"/><path id="XMLID_125_" class="st7" d="M47.7 99.1v-3.6"/><path id="XMLID_124_" class="st7" d="m50.4 101.1.1-3.6"/><path id="XMLID_123_" class="st7" d="M49 100v-3.4"/><path id="XMLID_122_" class="st7" d="m43.4 83.1 1.5-2-1.4-1.3-1.6 1.3z"/><path id="XMLID_121_" class="st7" d="m43.3 77.3 1.3-1.3-1.6-1.6-1.4 1.6z"/><path id="XMLID_120_" class="st7" d="m40.6 80.1 1.5-1.7-1.7-1.5"/><circle id="XMLID_119_" class="st10" cx="43.5" cy="81.2" r=".6"/><circle id="XMLID_118_" class="st10" cx="43.2" cy="76" r=".6"/><path id="XMLID_117_" class="st12" d="M40.4 80.6c-.1.2.4 7.2-3.4 15.8l-3.4 6.8s-3.4 2.5-4.8 2.3c-1.4-.2-2.8-1.3-2.8-1.4l.1-5.4c2.2-1 7.4-14.2 6.1-21.4 6.6.4 6.7-2.7 7.9-3.4l.3 6.7z"/><ellipse id="XMLID_116_" class="st7" cx="43.3" cy="78.4" rx="1.4" ry="1.3"/><path class="st13" d="M49.4 75.7s-1.9 1-1.9 2.5c0 1.4.4 1.8.6 1.9.2.1 1 .3 1.2-.9.2-.7-.2-.4.4-.5.5-.2 2 1 1.8 2.3-.1.4-.5-1-1.6-.9-1.2.1-1.8.6-2 1.4-.5 1.6 0 3 1.1 5.4-.5 1.9-1 3.1 1.9 4.8 1.3.6 2.3-.3 2.2-2.9 0-.8.4-1.1.8-.9.9.4.6 1.7.9 2.5.5 1.6 1.7 3.9 3.4 5.5 1.9 1.8 4.9 2.9 6.1 1.7-2.6.1-4.2-.8-5.1-2.4-.2-.5-.7-1.1-.2-2.3.3-.7-.4-.8-.7-.4-.2.3-.3.8-.5.8l-.7-.9c-.7-.7-.5-2.9-1-4.1-.5-1.6-1.4-2.3-2.1-2.3-1.4.1-2.2 1.5-1.9 3.4 0 1.8-1.5 1.6-2.1.6-.7-1.2-.6-2.2.1-1.9.3.1.5.3.4.5-.2 1 .5 1.4.9.6.3-.7.1-2-.5-2.2-1.1-.5-1.8-1.7-1.9-2.9-.1-1.5-.2-2.2 1.1-2.3.6-.1 1.2.4 1.4 1.4.1.5 0 1.5.9 1.3.4-.1.5-.7.5-1.4.8.8 1-.7-.1-1.5.3-3.1-.1-2.4-.7-1.9-.4-.9-1.1-1.5-1.9-1.6-1.4-.2-1.3-1.2-.8-2.4zm4.7 20c2.1.7 1.7-.4 2.1-1.3.5.2 1.9 2.2.6 2.8-1.9.4-2.7-1.5-2.7-1.5zm-2-3c2.4.5 1.9-.9 2-1.6.4.5 1.9 1.5 1 2.8-1.6 1.2-3-1.2-3-1.2zm9.4 7.4c-1.8-1.2-2.6-.4-3.2.2 0-.9-.6-2.1 1.2-2.1 1.9.1 2 1.9 2 1.9zm2 .2s-.5 0-.7-.4c-.2-.4-.4-1.2.6-1.4 1-.2 1 .6 1.4.4.7-.3 1-.2 1.4-.1.4.2.5 1.2-.1 1.9-.7.7-2 .4-2 .4s.4-.1 1.1-.5.3-1.2.3-1.2-.6-.1-.8.1c-.2.2-.1.8-1.2.8zM30.6 100.8l2 1.3c-1 1.7-2.5 2.5-4.3 1.8-1.8-.8-1.6-2.9-.6-4.7v-.1l2 1.3c-.4.6-.9 1.1-.3 1.3.6.2.9-.3 1.2-.9zm-.7-.7c.3-.5.6-1 1.1-.7.5.3.1.7-.3 1.2l2 1.2c1-1.8 1-3.6-.5-4.5-1.5-.9-3.2-.1-4.3 1.5l2 1.3zM34.3 93.5l2.2.8c-.7 1.9-2 3-3.9 2.6-1.9-.4-2.2-2.5-1.5-4.5v-.1l2.2.8c-.2.7-.6 1.3 0 1.4.7.2.8-.3 1-1zm-.8-.6c.2-.6.4-1.1.9-.9.6.2.2.6 0 1.2l2.2.8c.6-1.9.3-3.7-1.4-4.3-1.7-.5-3.2.5-3.9 2.3l2.2.9zM36.6 85.6l2.3.2c-.2 2-1.1 3.4-3.1 3.5-2 .1-2.7-1.9-2.6-4v-.1l2.4.2c0 .7-.3 1.4.3 1.3.7.1.7-.4.7-1.1zm-.9-.4c0-.6.1-1.1.6-1.1.6 0 .4.5.3 1.2l2.3.2c.1-2-.7-3.7-2.5-3.8-1.7-.1-2.9 1.4-3.2 3.3l2.5.2zM36.8 77.4l2.4-.1c.2 2-.6 3.5-2.5 3.9-1.9.4-3-1.4-3.2-3.5v-.1l2.4-.1c.1.7-.1 1.4.5 1.3.6-.2.5-.7.4-1.4zm-1-.3c-.1-.6-.1-1.1.4-1.2.6-.1.5.5.5 1.1l2.3-.2c-.2-2-1.3-3.5-3-3.3-1.7.2-2.7 1.8-2.6 3.7l2.4-.1z"/><path id="XMLID_102_" class="st11" d="M26.1 88v35.3l-2.6 2-2.9-2V88.9"/><circle id="XMLID_101_" class="st6" cx="33.2" cy="70.3" r="7.5"/><path id="XMLID_100_" class="st14" d="M33.2 77.8c-1 0-2-.2-2.9-.6 1.7-1.9 4-1.9 6.5-.3-1 .5-2.3.9-3.6.9z"/><circle id="XMLID_99_" class="st3" cx="37.3" cy="75.1" r=".5"/><circle id="XMLID_98_" class="st3" cx="37.9" cy="71.1" r=".7"/><circle id="XMLID_97_" class="st3" cx="33.7" cy="70.7" r=".7"/><circle id="XMLID_96_" class="st3" cx="33.6" cy="67" r=".7"/><circle id="XMLID_95_" class="st3" cx="37.6" cy="67.4" r=".7"/><circle id="XMLID_94_" class="st3" cx="28.7" cy="70.8" r=".7"/><circle id="XMLID_93_" class="st3" cx="29.1" cy="66.9" r=".7"/><circle id="XMLID_92_" class="st3" cx="35.6" cy="74.5" r=".5"/><circle id="XMLID_91_" class="st3" cx="33.6" cy="74.3" r=".5"/><circle id="XMLID_90_" class="st3" cx="31.8" cy="74.5" r=".5"/><circle id="XMLID_89_" class="st3" cx="30.2" cy="74.8" r=".5"/><circle id="XMLID_88_" class="st3" cx="28.8" cy="75.6" r=".5"/><path id="XMLID_87_" class="st14" d="M40 73.4s-1-1.3-2.9-.8c-1.2-.6-1.1-.7-2.4-.4-.7-.5-1.6-.4-2.6 0-1.1-.5-1.8-.2-2.5.4-.7-.6-1.4-.5-1.9.3-.6-.3-1.2-.1-1.3.8l.7 1.1c.5-.4.8-1 2-.8.2-.1.8-1 1.7-.3.5-.6.9-.4 1.7-.1.7-.8 1.4-.6 2.1.1.8-.4 1.5-.3 1.9.4 1.1-.3 1.9 0 2.3.9l1.2-1.6z"/><path id="XMLID_86_" class="st15" d="M40.4 72.7c-.6-2.7-1.9-4-4.4-2.4-1.6-.9-3.3-1.7-5 0-1.7-1.3-3.5-1.3-5.2.9"/><path id="XMLID_85_" class="st15" d="M40.7 70.9c-.8-2.3-2.4-2.8-4.8-1.6-1.6-.9-3.2-1.8-4.9-.1-1.7-1.3-3.7-1.5-5.3.7"/><path id="XMLID_84_" class="st15" d="M40 67.4c-1.7-1.7-2.4-1.4-4.3-.6-1.6-.9-2.4-1.9-4.1-.2-1.7-1.3-3.3-1.8-5 .4"/><path id="XMLID_83_" class="st15" d="M39.4 66c-1.5-1.7-2-1.2-3.6-.4-1.2-.7-2.4-1.8-4.2-.3-1.4-.7-2.4-1.8-4 .3"/><path id="XMLID_82_" class="st6" d="m30.6 63.3-1.5-2.6c1.9-.4 3.3-1.1 3.9-2.2.8 1.1 2 2 4 2.3l-1.7 2.3c-1.5-.5-3.1-.5-4.7.2z"/><path id="XMLID_81_" class="st15" d="m34.4 62.8.8-1.4c-1-.3-1.5-1.1-2.3-1.6-.5.6-1 1.1-2 1.5l.8 1.7"/><circle id="XMLID_80_" class="st3" cx="33.1" cy="61.8" r=".5"/><circle id="XMLID_79_" class="st10" cx="31.4" cy="57.6" r=".7"/><circle id="XMLID_78_" class="st10" cx="27.1" cy="58.8" r=".7"/><circle id="XMLID_77_" class="st10" cx="39.6" cy="64.9" r=".7"/><circle id="XMLID_76_" class="st10" cx="41.3" cy="74.5" r=".7"/><circle id="XMLID_75_" class="st10" cx="36.1" cy="59.7" r=".7"/><path id="XMLID_74_" class="st10" d="M32.4 56.5c-.5-1-.8-2.1-1.1-3-.1.9-.4 1.9-.9 3 .5-.3 1-.5 2 0z"/><path id="XMLID_73_" class="st10" d="M28.1 57.7c-.5-1-.8-2.1-1.1-3-.1.9-.4 1.9-.9 3 .5-.2 1-.5 2 0z"/><path id="XMLID_72_" class="st10" d="M40.6 63.8c-.5-1-.8-2.1-1.1-3-.1.9-.4 1.9-.9 3 .5-.3 1-.5 2 0z"/><path id="XMLID_71_" class="st10" d="M42.4 73.4c-.5-1-.8-2.1-1.1-3-.1.9-.4 1.9-.9 3 .5-.3 1-.5 2 0z"/><path id="XMLID_70_" class="st10" d="M37.1 58.6c-.5-1-.8-2.1-1.1-3-.1.9-.4 1.9-.9 3 .5-.3 1-.5 2 0z"/><path id="XMLID_69_" class="st11" d="M25 76.3c2.1-.4 3.4 1.1 2.5 4.4-.2 2.4-.7 3.8-3.1 4.6-1.1.6-2.6.6-4.4.4l-.1-1.4c-.8-.2-1.2-1-1.1-2-.3-.5-.3-1 .1-1.5-.4-.4-.4-.6.1-1.3 0-.3-.1-1.5.9-1.8l2-.4 3.1-1z"/><path id="XMLID_68_" class="st11" d="M23.6 125.2s.4-1.5.4-2.6-.3-.9-.1-2c.2-1.1.1-1.1-.1-1.6s-.1-.1-.1-1.2.3-1.6.2-2.5c-.2-.9.5-1.7.1-2.1-.4-.4-.2-1.1-.1-2.1.2-1 0-1.2-.1-2.1-.1-.9.2-1.7.2-2.4s.1-.6-.2-1.8c-.2-1.2-.7-2.4-.7-3 0-.6-.2-1.8 0-2.9.2-1.1.7-2.5.4-3.2-.2-.7-.4-1.1-.4-2.3-.1-1.2-.1-1.2-.2-2.1-.1-1-.2-1.3 0-1.8s.2-1.4.2-1.4"/><path id="XMLID_67_" class="st11" d="M24 123.3h-3.3"/><path id="XMLID_66_" class="st11" d="M24 121.8h-3.4"/><path id="XMLID_65_" class="st11" d="M23.8 120.7h-3"/><path id="XMLID_64_" class="st11" d="M23.8 119.4h-3.2"/><path id="XMLID_63_" class="st11" d="M23.6 118.3h-3"/><path id="XMLID_62_" class="st11" d="M23.8 115.5h-3.2"/><path id="XMLID_61_" class="st11" d="M23.8 114.4h-3.2"/><path id="XMLID_60_" class="st11" d="M23.9 113h-3.2"/><path id="XMLID_59_" class="st11" d="M23.9 111.7h-3.3"/><path id="XMLID_58_" class="st11" d="M23.9 110.2h-3.3"/><path id="XMLID_57_" class="st11" d="M23.9 108.8h-3.3"/><path id="XMLID_56_" class="st11" d="M23.7 107.6h-3.2"/><path id="XMLID_55_" class="st11" d="M24 106.3h-3.2"/><path id="XMLID_54_" class="st11" d="M23.9 105.1h-3.2"/><path id="XMLID_53_" class="st11" d="M23.5 103.7h-2.8"/><path id="XMLID_52_" class="st11" d="M23.2 102.3h-2.7"/><path id="XMLID_51_" class="st11" d="M23.1 101.2h-2.5"/><path id="XMLID_50_" class="st11" d="M23.1 99.8h-2.6"/><path id="XMLID_49_" class="st11" d="M23.2 98.7h-2.6"/><path id="XMLID_48_" class="st11" d="M23.4 97.2h-2.8"/><path id="XMLID_47_" class="st11" d="M23.7 95.9h-3.1"/><path id="XMLID_46_" class="st11" d="M23.2 94.7h-2.6"/><path id="XMLID_45_" class="st11" d="M23.2 93.2h-2.6"/><path id="XMLID_44_" class="st11" d="M23.1 91.9h-2.4"/><path id="XMLID_43_" class="st11" d="M22.9 90.7h-2.3"/><path id="XMLID_42_" class="st11" d="M23.1 89.3h-2.5"/><path id="XMLID_41_" class="st11" d="M23.8 116.7h-3.2"/><path id="XMLID_40_" class="st16" d="m66.9 135.6-8-13.9c-8.7 2.1-16.7 1.8-24.1.4l-8.2 13.5"/><path id="XMLID_39_" d="M50.9 106.5c-1.2-2.5-6.2-6.3-9.2-4.5-1.4.8-1.9 2.7-1.5 3.5l-1.6-2.1 5.4-3.5 7.6 4.5-.7 2.1z" style="clip-rule:evenodd;fill-rule:evenodd;fill:#e52529;stroke:#0d4f9e;stroke-width:.5669;stroke-miterlimit:2.6131"/><path id="XMLID_38_" class="st3" d="M34.9 102.8c1.8-1.2 3.8.3 3.6.5l5.4-3.5 7.6 4.5s1.5-1.4 1.9-1.1L43.6 96l-8.7 5.7v1.1z"/><path id="XMLID_37_" class="st4" d="M53.4 103.2s-.8-.1-1.5.8-.7 2.9-.7 2.7"/><path id="XMLID_36_" class="st4" d="M50.9 106.5c-1.2-2.5-6.2-6.3-9.2-4.5-1.4.8-1.9 2.7-1.5 3.5.6 1.5 1.8 1.7 2.6 1.2 1.1-.6 1.4-2.2.2-2.8-.8-.4-2.3-.2-1.4 1.4"/><path id="XMLID_35_" class="st4" d="M43.2 123.2c-1.2-4.1-1.3-10.9-2.2-14.4-.4-1.9-1.8-5.6-4-6.2-1.3-.4-2.7 0-2.6 2.3.1 2.3 1.2 2.9 2.2 3.1 2.9.6 2.3-2.9.9-3.5-1-.4-2.8.5-.7 2.2"/><path id="XMLID_34_" class="st4" d="m35 102.7-2 1"/><circle id="XMLID_33_" class="st17" cx="33.2" cy="70.3" r="7.5"/><circle id="XMLID_32_" class="st6" cx="22.7" cy="75.1" r="2.3"/><path id="XMLID_31_" class="st10" d="M22.3 73.7c1 .3 1.7 1.2 1.7 2.3v.4c.3-.3.5-.7.5-1.2 0-.9-.7-1.7-1.7-1.7-.2.1-.4.1-.5.2z"/><path id="XMLID_30_" class="st6" d="M76.9 78.8c1.3 0 2.3-1 2.3-2.3 0-1.3-1-2.3-2.3-2.3-1.3 0-2.3 1-2.3 2.3 0 1.2 1 2.3 2.3 2.3z"/><path id="XMLID_29_" class="st10" d="M77.4 77.9c-1-.3-1.7-1.2-1.7-2.3v-.4c-.3.3-.5.7-.5 1.2 0 .9.7 1.7 1.7 1.7.2-.1.3-.1.5-.2z"/><path id="XMLID_28_" class="st3" d="m73.9 66.3 3.7-.6c1.3-.4 1.9.2 2.6.6l-.2.1c-.9-.3-1.4-.6-2.6-.5l-3.5.6v-.2z"/><path id="XMLID_27_" class="st3" d="m25.8 85.3-4.5.8c-1.1-.1-1.1-.5-1.8-.8l.2-.1c.9.3 1.4.6 2.6.5l3.5-.6v.2z"/><path id="XMLID_26_" class="st4" d="m76.9 78.9.2 18.3"/><path id="XMLID_25_" style="fill-rule:evenodd;fill:none;stroke:#2aabe3;stroke-width:.5666;stroke-linecap:round;stroke-linejoin:round;stroke-miterlimit:2.6131;clip-rule:evenodd" d="M81.2 64.6h1.1"/><path id="XMLID_24_" class="st6" d="M26.5 85.6c2 .3 2.4 2.5.6 2.6-2.1-.5.4-.5-5.4.5-2.5.3-3.4-1.1-3.3-1.5 0-1.3.8-2.4 1.9-1.4.8 1.1 4.2-.7 6.2-.2z"/><path id="XMLID_23_" class="st6" d="M73.2 66c-2-.3-2.4-2.5-.6-2.6 2.1.5-.4.5 5.4-.5 2.5-.3 3.4 1.1 3.3 1.5 0 1.3-.8 2.4-1.9 1.4-.9-1.1-4.3.7-6.2.2z"/><path id="XMLID_22_" class="st20" d="M90.3 111.7c-1.4 1.7-1.1 4.2-1.1 4.2.2-1.2 1.4-1.8 1.8-1.9 1.6-.3 2.4.9 2.5 1.1 1.1 2-.5 3.3-.8 3.5-1.5.9-2.7-.1-2.7-.1-.2 0-.1.2-.1.2 1.2.7 1.3 1.8 1.3 2.2-.3 2.3-2.5 2.3-2.5 2.3s-2.2.1-2.5-2.3c0-.4 0-1.5 1.3-2.2 0 0 .1-.3-.1-.2 0 0-1.2 1.1-2.7.1-.2-.2-1.9-1.4-.8-3.5.1-.2.9-1.4 2.5-1.1.5.1 1.6.8 1.8 1.9 0 0 .3-2.5-1.1-4.2h3.2z"/><path id="XMLID_21_" class="st20" d="M9.1 39.9c1.4-1.7 1.1-4.2 1.1-4.2-.2 1.2-1.4 1.8-1.8 1.9-1.6.3-2.4-.9-2.5-1.1-1.1-2 .5-3.3.8-3.5 1.5-.9 2.7.1 2.7.1.2 0 .1-.2.1-.2-1.2-.7-1.3-1.8-1.3-2.2.3-2.3 2.5-2.3 2.5-2.3s2.2-.1 2.5 2.3c0 .4 0 1.5-1.3 2.2 0 0-.1.3.1.2 0 0 1.2-1.1 2.7-.1.2.2 1.9 1.4.8 3.5-.1.2-.9 1.4-2.5 1.1-.5-.1-1.6-.8-1.8-1.9 0 0-.3 2.5 1.1 4.2H9.1z"/><path d="M17.2 136.5h65.6V15.1H16.7v121.4h.5zm.5-1V16.2h64v119.3h-64z" style="fill:#0d4f9e"/><path id="XMLID_18_" class="st3" d="M66 124.2c-2.5 0-4.5-2-4.5-4.5s2-4.5 4.5-4.5c2.3 0 4.1 1.6 4.4 3.7 0 0 .5-.1.5-.2-.1-3.5-.7-5.8-2-7.6H74c-1.3 2.4-1.9 5-1.9 7.7l.4.1c.4-2.1 2.2-3.8 4.5-3.8 2.5 0 4.5 2 4.5 4.5s-2 4.5-4.5 4.5c-1.1 0-2.1-.4-2.9-1l-.3.3c1.4.8 2.4 2.4 2.4 4.2 0 2.7-2.2 4.8-4.8 4.8-2.7 0-4.8-2.2-4.8-4.8 0-1.8 1-3.4 2.6-4.3l-.2-.3c-.8.7-1.9 1.2-3 1.2z"/><path id="XMLID_17_" class="st3" d="m25.6 28.3.5-.5c-1.5-.8-2.4-2.3-2.4-4.1 0-2.6 2.1-4.7 4.7-4.7s4.7 2.1 4.7 4.7c0 1.8-1 3.4-2.5 4.1l.4.5c.8-.6 1.7-1 2.8-1 2.4 0 4.4 2 4.4 4.4 0 2.4-2 4.4-4.4 4.4-2.3 0-4.2-1.8-4.4-4h-.6c-.3 4.2 1.7 7.5 1.7 7.5H26c2.4-2.3 1.7-7.5 1.7-7.5l-.6-.1c-.1 2.2-2 4-4.4 4-2.4 0-4.4-2-4.4-4.4 0-2.4 2-4.4 4.4-4.4 1.1 0 2.1.4 2.9 1.1z"/><path id="XMLID_16_" class="st3" d="M15.6 22.6v1.8h-4.7v-1.8h1.7l-2.7-6.2L8.3 19v3.6h1.5v1.8h-5v-1.8h1.4V9H4.8V7.1h4.8V9H8.3v6.2L12.2 9h-1.3V7.1h4.7V9h-1l-3.4 5.4 3.6 8.2z"/><path id="XMLID_14_" class="st3" d="M83.8 129v-1.8h4.7v1.8h-1.7l2.7 6.1 1.6-2.5V129h-1.5v-1.8h5v1.8h-1.4v13.6h1.4v1.9h-4.8v-1.9h1.3v-6.2l-3.9 6.2h1.3v1.9h-4.7v-1.9h1l3.4-5.4-3.6-8.2z"/></g></svg>