<svg xmlns="http://www.w3.org/2000/svg" viewBox="0 0 99.4 151.6" style="enable-background:new 0 0 99.4 151.6" xml:space="preserve"><style>.st1{fill-rule:evenodd;clip-rule:evenodd}.st1,.st2{fill:#e52529}.st3{fill:#ffdd09}.st4{fill:#111a16}.st5{fill:#dc3538}</style><g id="Calque_2"><path id="XMLID_15_" d="M99.3 5.3v140.9c0 2.9-2.3 5.2-5.2 5.2H5.3c-2.9 0-5.2-2.3-5.2-5.2V5.3C.1 2.4 2.4.1 5.3.1H94c2.9 0 5.3 2.4 5.3 5.2z" style="fill:#fff;stroke:#000;stroke-width:.25;stroke-miterlimit:2.6131"/></g><g id="Calque_1"><path class="st1" d="M552.8 134.6c-3.2-4.4-4.1-8-4.1-8s-.9 3.7-4.1 8c-3.2 4.4-6.2 5.6-6.2 5.6s3 1.2 6.2 5.6c3.2 4.4 4.1 8 4.1 8s.9-3.7 4.1-8c3.2-4.4 6.2-5.6 6.2-5.6s-2.9-1.3-6.2-5.6zM510.8 134.6c-3.2-4.4-4.1-8-4.1-8s-.9 3.7-4.1 8c-3.2 4.4-6.2 5.6-6.2 5.6s3 1.2 6.2 5.6c3.2 4.4 4.1 8 4.1 8s.9-3.7 4.1-8c3.2-4.4 6.2-5.6 6.2-5.6s-3-1.3-6.2-5.6zM531.8 177.1c-3.2-4.4-4.1-8-4.1-8s-.9 3.7-4.1 8c-3.2 4.4-6.2 5.6-6.2 5.6s3 1.2 6.2 5.6c3.2 4.4 4.1 8 4.1 8s.9-3.7 4.1-8c3.2-4.4 6.2-5.6 6.2-5.6s-3-1.2-6.2-5.6zM552.8 219.7c-3.2-4.4-4.1-8-4.1-8s-.9 3.7-4.1 8c-3.2 4.4-6.2 5.6-6.2 5.6s3 1.2 6.2 5.6c3.2 4.4 4.1 8 4.1 8s.9-3.7 4.1-8c3.2-4.4 6.2-5.6 6.2-5.6s-2.9-1.3-6.2-5.6zM510.8 219.7c-3.2-4.4-4.1-8-4.1-8s-.9 3.7-4.1 8c-3.2 4.4-6.2 5.6-6.2 5.6s3 1.2 6.2 5.6c3.2 4.4 4.1 8 4.1 8s.9-3.7 4.1-8c3.2-4.4 6.2-5.6 6.2-5.6s-3-1.3-6.2-5.6z"/><path class="st2" d="M486.7 117.5h7.8v1.8h-6l-.2 3s2.8-1.6 5.5.7c.5.4 2.9 2.9 1.4 7.8-.3 1-2 3.6-5.6 3.1-.2 0-2.9-.7-3.9-3.7l1.7-.4s1.3 2.7 3.1 2.5c.9-.1 3.3-.7 3.2-4.6 0-.3 0-3.7-2.9-4.2-1-.2-2.2 0-3.9 1.7l-.8-.5.6-7.2zM568.8 247.8h-7.9V246h6l.2-3s-2.8 1.6-5.5-.7c-.5-.4-2.9-2.9-1.4-7.8.3-1 2-3.6 5.6-3.1.2 0 2.9.7 3.9 3.7l-1.7.4s-1.3-2.7-3.1-2.5c-.9.1-3.3.7-3.2 4.6 0 .3 0 3.7 2.9 4.2 1 .2 2.2 0 3.9-1.7l.8.5-.5 7.2zM490.8 137.7s1.4 4.5 4.7 6.3c0 0-3.2 1.7-4.7 6.2-1.5-4.6-4.7-6.2-4.7-6.2 3.3-1.8 4.7-6.3 4.7-6.3zM564.7 227.6s-1.4-4.5-4.7-6.3c0 0 3.2-1.7 4.7-6.2 1.5 4.6 4.7 6.2 4.7 6.2-3.3 1.8-4.7 6.3-4.7 6.3z"/><path class="st1" d="M552.8 134.6c-3.2-4.4-4.1-8-4.1-8s-.9 3.7-4.1 8c-3.2 4.4-6.2 5.6-6.2 5.6s3 1.2 6.2 5.6c3.2 4.4 4.1 8 4.1 8s.9-3.7 4.1-8c3.2-4.4 6.2-5.6 6.2-5.6s-2.9-1.3-6.2-5.6zM510.8 134.6c-3.2-4.4-4.1-8-4.1-8s-.9 3.7-4.1 8c-3.2 4.4-6.2 5.6-6.2 5.6s3 1.2 6.2 5.6c3.2 4.4 4.1 8 4.1 8s.9-3.7 4.1-8c3.2-4.4 6.2-5.6 6.2-5.6s-3-1.3-6.2-5.6zM531.8 177.1c-3.2-4.4-4.1-8-4.1-8s-.9 3.7-4.1 8c-3.2 4.4-6.2 5.6-6.2 5.6s3 1.2 6.2 5.6c3.2 4.4 4.1 8 4.1 8s.9-3.7 4.1-8c3.2-4.4 6.2-5.6 6.2-5.6s-3-1.2-6.2-5.6zM552.8 219.7c-3.2-4.4-4.1-8-4.1-8s-.9 3.7-4.1 8c-3.2 4.4-6.2 5.6-6.2 5.6s3 1.2 6.2 5.6c3.2 4.4 4.1 8 4.1 8s.9-3.7 4.1-8c3.2-4.4 6.2-5.6 6.2-5.6s-2.9-1.3-6.2-5.6zM510.8 219.7c-3.2-4.4-4.1-8-4.1-8s-.9 3.7-4.1 8c-3.2 4.4-6.2 5.6-6.2 5.6s3 1.2 6.2 5.6c3.2 4.4 4.1 8 4.1 8s.9-3.7 4.1-8c3.2-4.4 6.2-5.6 6.2-5.6s-3-1.3-6.2-5.6z"/><path class="st2" d="M486.7 117.5h7.8v1.8h-6l-.2 3s2.8-1.6 5.5.7c.5.4 2.9 2.9 1.4 7.8-.3 1-2 3.6-5.6 3.1-.2 0-2.9-.7-3.9-3.7l1.7-.4s1.3 2.7 3.1 2.5c.9-.1 3.3-.7 3.2-4.6 0-.3 0-3.7-2.9-4.2-1-.2-2.2 0-3.9 1.7l-.8-.5.6-7.2zM568.8 247.8h-7.9V246h6l.2-3s-2.8 1.6-5.5-.7c-.5-.4-2.9-2.9-1.4-7.8.3-1 2-3.6 5.6-3.1.2 0 2.9.7 3.9 3.7l-1.7.4s-1.3-2.7-3.1-2.5c-.9.1-3.3.7-3.2 4.6 0 .3 0 3.7 2.9 4.2 1 .2 2.2 0 3.9-1.7l.8.5-.5 7.2zM490.8 137.7s1.4 4.5 4.7 6.3c0 0-3.2 1.7-4.7 6.2-1.5-4.6-4.7-6.2-4.7-6.2 3.3-1.8 4.7-6.3 4.7-6.3zM564.7 227.6s-1.4-4.5-4.7-6.3c0 0 3.2-1.7 4.7-6.2 1.5 4.6 4.7 6.2 4.7 6.2-3.3 1.8-4.7 6.3-4.7 6.3z"/><path class="st1" d="M552.8 134.6c-3.2-4.4-4.1-8-4.1-8s-.9 3.7-4.1 8c-3.2 4.4-6.2 5.6-6.2 5.6s3 1.2 6.2 5.6c3.2 4.4 4.1 8 4.1 8s.9-3.7 4.1-8c3.2-4.4 6.2-5.6 6.2-5.6s-2.9-1.3-6.2-5.6zM510.8 134.6c-3.2-4.4-4.1-8-4.1-8s-.9 3.7-4.1 8c-3.2 4.4-6.2 5.6-6.2 5.6s3 1.2 6.2 5.6c3.2 4.4 4.1 8 4.1 8s.9-3.7 4.1-8c3.2-4.4 6.2-5.6 6.2-5.6s-3-1.3-6.2-5.6zM531.8 177.1c-3.2-4.4-4.1-8-4.1-8s-.9 3.7-4.1 8c-3.2 4.4-6.2 5.6-6.2 5.6s3 1.2 6.2 5.6c3.2 4.4 4.1 8 4.1 8s.9-3.7 4.1-8c3.2-4.4 6.2-5.6 6.2-5.6s-3-1.2-6.2-5.6zM552.8 219.7c-3.2-4.4-4.1-8-4.1-8s-.9 3.7-4.1 8c-3.2 4.4-6.2 5.6-6.2 5.6s3 1.2 6.2 5.6c3.2 4.4 4.1 8 4.1 8s.9-3.7 4.1-8c3.2-4.4 6.2-5.6 6.2-5.6s-2.9-1.3-6.2-5.6zM510.8 219.7c-3.2-4.4-4.1-8-4.1-8s-.9 3.7-4.1 8c-3.2 4.4-6.2 5.6-6.2 5.6s3 1.2 6.2 5.6c3.2 4.4 4.1 8 4.1 8s.9-3.7 4.1-8c3.2-4.4 6.2-5.6 6.2-5.6s-3-1.3-6.2-5.6z"/><path class="st2" d="M486.7 117.5h7.8v1.8h-6l-.2 3s2.8-1.6 5.5.7c.5.4 2.9 2.9 1.4 7.8-.3 1-2 3.6-5.6 3.1-.2 0-2.9-.7-3.9-3.7l1.7-.4s1.3 2.7 3.1 2.5c.9-.1 3.3-.7 3.2-4.6 0-.3 0-3.7-2.9-4.2-1-.2-2.2 0-3.9 1.7l-.8-.5.6-7.2zM568.8 247.8h-7.9V246h6l.2-3s-2.8 1.6-5.5-.7c-.5-.4-2.9-2.9-1.4-7.8.3-1 2-3.6 5.6-3.1.2 0 2.9.7 3.9 3.7l-1.7.4s-1.3-2.7-3.1-2.5c-.9.1-3.3.7-3.2 4.6 0 .3 0 3.7 2.9 4.2 1 .2 2.2 0 3.9-1.7l.8.5-.5 7.2zM490.8 137.7s1.4 4.5 4.7 6.3c0 0-3.2 1.7-4.7 6.2-1.5-4.6-4.7-6.2-4.7-6.2 3.3-1.8 4.7-6.3 4.7-6.3zM564.7 227.6s-1.4-4.5-4.7-6.3c0 0 3.2-1.7 4.7-6.2 1.5 4.6 4.7 6.2 4.7 6.2-3.3 1.8-4.7 6.3-4.7 6.3z"/><g id="XMLID_14_"><path id="XMLID_364_" class="st3" d="M46.8 29.2c1.3.1 2.6.5 3.6.9 1.1.4 1.9.8 2.1.9.3.2 2.2 1.1 4.3 1.7 1 .3 2.1.5 3.1.7 1.3.2 2.5 0 3.1-.3.2-.1.5-.4.5-.4s.3-.8.1-1.3c0-.1.2-.6.2-1s-.2-.7-.3-1C64 28 69.1 17 69.1 17H35.8l4 8.8s-.4.5-.2 1.2c.1.3.4.8.7 1.1 0 .5.1.7.2.9.1.2.2.4.4.4.4-.2 1.4-.4 2.7-.4 1.1 0 2.1.1 3.2.2z"/><path id="XMLID_363_" class="st3" d="M63.5 54.9c.6-1 1.1-1.9 1.5-2.5.5-.9.8-1.2 1.1-1.6H53.2s-.8 2.4-3.1 4.7c-1.3 1.3-2.8 2.4-5 3.3-.2-1-.2-1.2-.3-1.6.7-.2 1.4-.4 1.8-.6.5-.2.7-.4.8-.5-.2-.6-.5-1.4-.8-2-.3-1-.6-1.8-.6-1.8l-.5.3c-.2.1-.6.3-1.3.4-.8.2-1.8.2-2.4.2.7 2.5 1.6 5.2 2.2 8.9.4 2.2.6 4.5.7 7.7.1 3.7.1 7.2-.3 10.6H46s.2-3.6.2-5.6v-5.4c0-2.6-.3-4.6-.6-6.2 2.3-.8 4.3-2.3 5.9-3.7 2.1-1.9 3.5-3.9 3.7-4.2h4.9s-.8 1.5-1.8 4.1c-.7 1.7-1.4 3.7-2.1 6.1-.2.8-.7 2.6-.7 2.6l3 4.6s.2-4.5 1.1-7.5c.8-2.8 1.6-5.1 2.6-7.3.4-1.3.8-2.1 1.3-3z"/><path id="XMLID_362_" class="st3" d="M71.5 77.9c-1.1 1.6-2.4 3.5-3.2 5.2-2.5 4.8-3.6 9.3-3.6 9.6 0 0-.2-.6-.5-1.2-.3-.7-.6-1.7-1.1-3-.4-1.2-.8-2.6-1.2-4.3-.6-2.8-.9-6.2-.9-9.6 0-2.1 0-4.1.3-6.2.2-1 .4-2 .7-3 1.4 2.3 6.3 9.8 7.7 11.5.8-1.1 1.6-2.2 2.5-3.1 1.3-1.4 2.4-2.4 2.4-2.4l-4.5-7-4.6-7.2c1.4-2.4 2.8-4.5 3.9-5.9 1-1.3 1.9-2.2 2-2.3h-2.3c0 .1-.8.9-1.2 1.6-.4.6-1.7 2.3-3.1 4.9-.6 1-1.2 2.1-1.7 3.2-.8 1.6-1.3 3.1-1.5 3.6-.8 2.2-1.1 3.9-1.6 6.5-.3 1.8-.4 3.9-.5 6 0 1.8.2 4.1.4 6.1.5 4.2 1.7 8.4 3.5 12.5.9 2.1 1.9 4.2 3.2 6l1.4-1-1.5-2.5-1.2-2.2 5.7-2.9s.2-1.4 1.1-3.4c.7-1.6 1.7-3.5 3.2-5.5 1.3-1.8 3-3.7 5.2-5.2v-7s-1.6.9-3.7 2.7c-1.8 1.3-3.7 3.2-5.3 5.5z"/><path id="XMLID_361_" class="st3" d="m80.3 59.4-.1-40-5.5 6.6v26.9z"/><path id="XMLID_360_" class="st3" d="M67.9 33c0 1.8.5 3.5 1.1 4.9.6 1.3 1.6 2.8 1.7 2.8.3-.9.7-2 1.2-2.8.6-.9 1.4-1.6 1.7-1.7-.6-.8-1-2-1-3.3 0-1.3.4-2.4.9-2.9-.8-.7-1.3-1.2-1.8-1.8-.6-.9-.8-2-1-2.8 0 0-1.1 1.4-1.7 2.7-.6 1.5-1.1 3-1.1 4.9z"/><path id="XMLID_359_" class="st2" d="M48.1 26.3c-3.8-.7-7.3-.5-8-.5-.3 0-.5.6-.2 1.3.1.3.3.6.6.7 0 0-.2.5-.1 1 .1.3.5.6.8.7.8-.1 1.4-.4 2.7-.4 1.1 0 3 .2 4.1.5 1.6.4 2.2.5 3.4 1 1.2.6 2.1 1.1 3 1.4.6.2 1.7.8 3.3 1.1.9.2 2.2.4 3 .4 2.3 0 3-.7 3-1.2 0-.8-.2-1.1-.2-1.1s.3-.6.3-1.1c0-.4-.3-1-.6-.8-1.2.3-2.8.5-4.1.4-2.5-.3-4.4-1.3-5.5-1.8-.5-.1-3.5-1.2-5.5-1.6z"/><path id="XMLID_358_" class="st2" d="M50.2 48c-.2.5-.7 1.1-1.7 2-.8.8-1.9 1.6-2.8 2.2.3.6 1.4 3.9 1.4 3.9s1.6-.8 3.1-2.9c.8-1.1 1.8-2.7 2.4-4.3-.6.1-1.6-.3-2.4-.9z"/><path id="XMLID_357_" class="st2" d="M57.2 62c.5-1.2 1-3 1.9-5 .4-.9.9-2 .9-2h-5s-1.3 2-3.5 4c-1.6 1.5-3.7 3-6.1 3.9.1.6.2 1.4.3 2.4.1.8.1 1.7.1 1.9h9.8s1-3.6 1.6-5.2z"/><path id="XMLID_356_" class="st2" d="m75.1 65.5-7.7-11.8c-.1.1-.5.7-1 1.6-.3.6-.6 1-1.1 1.8 1 1.4 3.3 5 5.4 8.2 2.1 3.2 3.8 5.9 3.8 5.9s-.9.8-2.3 2.4c-1.1 1.2-2.4 2.8-3.7 5-.9 1.5-1.8 3-2.5 4.5-1.6 3.5-2.6 6.8-2.6 6.8l1.1 2.7s1.2-3.7 2.2-6.4c.3-.7 1.3-2.9 2.5-5.1 1-1.8 2.2-3.4 2.9-4.4.7-1 3.1-3.3 3.6-3.9.6-.5 1.1-1 1.7-1.5 1.3-1 2.6-1.6 2.7-1.8v-2.8s-2.7 1.7-2.9 2l-2.1-3.2z"/><path id="XMLID_355_" class="st2" d="M80.4 79.5s-.9.8-1.8 1.7c-1 1-2.3 2.6-3.3 4.3-.7 1.1-1.4 2.6-1.6 3.8 1.2-.5 6.7-3.6 6.7-3.6v-6.2z"/><path id="XMLID_354_" class="st2" d="M80.1 41.4V21.7l-4 5.3V54.4l4.1 4.7z"/><g id="XMLID_1117_"><path id="XMLID_1223_" class="st4" d="M42.6 32.4c.5.1 1.5-.3 2.7-.1.7.1 1.7.7 2.2 1 1.4.9 1.1.8 1.2.9.3.3.7.4.3-.2-.2-.3-.6-.8-1.2-1.3s-1.5-1.1-2-1.3c-.5-.2-1.1-.3-1.6-.4-.7 0-1.4 0-1.8.2-.4.2-.5 1.1.2 1.2z"/><path id="XMLID_1222_" class="st4" d="M48.5 35.1c-.1-.1-1.4-1-2-1.4-1.1-.6-2.1-.8-2.8-.5-.4.1-.7.5-.1.5.4 0 1.3-.2 2.5.2.6.2 2 1.2 2.2 1.4.6.5.7.1.2-.2z"/><path id="XMLID_1218_" class="st4" d="M48 35.7c-.2-.1-.5-.3-.7-.5-.4-.3-.9-.6-1-.7-.1-.1-.6-.4-1-.5h-1.8c-.2 0-.5-.1-.6-.3-.3-.3-.6-.2-.4.2.1.4.5.8.4 1.4-.1.4.1.6.4.3.3-.3.6-.6.7 0 .1.7 0 .9-.4.5-.3-.3-.4 0-.6.2-.2.2 0 .9.2.9.1 0 .3.1.5.2s.5.3.7.5c.2.2.4.3.5.4.2.2.6 0 .4-.3-.1-.1-.5-.4-.8-.7-.2-.2-.2-.3.1-.4.4 0 .8-.2.9-.3.1-.1.8-.4 1.4-.5.3 0 .6 0 .8.1.4.2.7 0 .7-.2-.1.1-.2-.1-.4-.3zm-2.7-.2s-.1.4-.3.6c-.4.4-.4-.3-.2-.7.3-.4.6-.2.5.1zm.5.6c-.4.1-.5 0-.3-.4s.5-.4.6-.2c.2.2.1.5-.3.6z"/><path id="XMLID_1217_" class="st4" d="M47.2 43c.2-.3.2-.8.2-1.1-.1-.5-.5-.9-.9-1.1-.4-.3-.9.3-.4.5.2.1.5.2.6.4.1.2.1.4.1.8-.1.2-.2.5-.4.5-.3.1-.6 0-.9-.2-.5-.3-.7-.6-1.2-.9-.5-.2-1-.5-1.1-.5.7-.4.9-.7.9-1.2s-.2-1-.4-1.1c-.3-.3-.8-.2-.5.2.2.2.6.7.2 1.1-.3.3-.7.4-1.4-.4s-1.2-.2-1.2.1c0 .3 0 .6.4.6s.7.3.9.5c.2.2.6.2.6.2s-.3.3-.4.7c0 .2 0 .5.4.6.5.1 1 .3 1.5.4.5.2.9.4 1.3.6.5.4 1.3 0 1.7-.7z"/><path id="XMLID_1136_" class="st4" d="M64 29.6c-.1-.2 0-.7.5-1.8.4-.8 5.1-11 5.1-11H35.2l4.3 9.2s-.3.5-.2 1.2c.1.6.4.9.8 1.1-.2.7.1 1.2.5 1.4-.2 1.1 0 2.2.4 3.1.1.3.1 1.1-.1 2.1-.4 1.8-1.3 4.2-1.6 4.8-.2.5-.2 1 .1 1.4.2.3.8.4 1 .6.5.4.8.4.6 1.4-.1.4 0 .6.2.8.2.2.2.5 0 .7-.2.2-.1.3 0 .9.1.2.1.9-.2 1.5-.4.7-1.2 1.3-1.4 1.5-.4-.7-.8-1.2-1.3-1.4-.7-.3-1.5 0-2 .6-.8.8-.7 2.4-.6 2.7.2.5.3.9 1 1.6.3.3.7.7 1.2.9.9.5 2.1.5 2.4.5h1.2c.3 1 2.1 6 2.6 11.3.5 4.9.7 9.6.2 15.6h1.5s.6-7.3 0-15.5c0-.5-.1-1-.1-1.6.6-.3 2.8-1.3 4.9-3 1.2-.9 2.1-1.9 2.8-2.8.6-.8 1.3-1.5 1.8-2.1h4.4S58 58.9 57 62c-.9 2.7-1.6 5.6-1.6 5.6l3.1 4.7s.1-2 .5-4.5c.3-1.9.9-4.2 1.7-6.6.6-1.7 1.4-3.5 2.1-5 .7-1.5 1.4-2.5 2-3.4.9-1.4 1.4-2.1 1.5-2.2H53.1c-.1.3-.8 2.1-2.6 4.2-1.2 1.4-3 2.8-5.5 3.8-.1-.5-.2-1-.3-1.4 2.2-.6 4-1.6 5.6-3.9 1.1-1.5 1.8-3 2.2-3.9h15.9c-.5.7-1.7 2.3-3 4.4-1.2 1.9-2.3 3.9-3.4 6.3-1.2 2.5-2 5.6-2.4 8.8-.3 2.1-.4 4.2-.4 6.7 0 4.6.9 9.5 2.4 14 1.2 3.4 2.8 6.8 4.6 9.7l-.8.6c-.2-.3-2.9-5.1-4.6-9.9-2.8-8-2.4-14.6-2.4-17.9l-.3-.6-1 1.6-1.2-1.8-.1 1.7c0 .3-.4 4.6 0 10.3.2 2.9.7 6.2 1.5 9.3.6 2.4 1.3 4.3 2.3 6.2 0 0 .6-.2 1.3.1.5.2.6.8.6.8s.7.2 1.3.8c.4.5.8 1.4.8 1.4l6.6-4.7c.1.3.4.9.5 1.8.1.7.1 1.6 0 2.6 0 .3-.1.6.1.8.1.1.3.2.6.1.2-.1.6-.3.9-.7.2-.3.4-.7.4-.8 0-.2.2-.5.5.5.1.4.7 1.5 1.2 2.2.3.4.5.7.6.7.1.1.2.2.6.1.2-.1.6-.4.7-.5.5.5.9.6 1.2.4.4-.2.6-.8.5-1.3.5-.1.7-.5.8-.8.2-.7 0-1.5 0-1.7.2-.2.3-.5.4-.8.1-.4 0-.9-.1-1.4-.2-.7-2-4.9-2.5-5.8l4.1-2.9v-.6L68 97.8c-2-3.2-2-3.2-1.3-2.1.2.3-1.1-2.1-1.1-2.1l14.9-7.9-.2-67.2-5.8 7.3v4.5c-.2-.1-.4-.2-.7-.4-.6-.4-1.3-1-1.9-1.9-.7-1.1-1.1-3-1.3-4.1 0 0 0-.7-.4-.3-.1.1-.8.7-1.6 2.2-1 1.8-1.9 4.5-1.9 7.2 0 2 .6 4.5 1.5 6.3.8 1.6 2 2.7 2.1 2.9.1.2.2-.2.3-.7.1-.6.4-1.4.7-2.1.3-.8.7-1.7 1.3-2.3.7-.7 1.2-.9 1.5-1h.4l.1 16.1-3-3.5h-6.2c.2-.4.5-1 .6-1.8.2-1.2.1-2.8-.8-5-.2-.5-.8-2.6-1.3-4.3-.5-1.9-.9-2.9-1.1-3.8-.1-.4.5-.6.7-.8.2-.2.3-.8.2-1.4 0-.4-.1-.7.1-.9.4-.1.4-.7.2-1.1zm-4.6.1c-2.7-.3-6.3-2.5-10.6-3.5-3.3-.8-8.6-.8-8.6-.8l-3.8-8.2h32s-4 9.1-5.3 12.2c0 0-2.1.4-3.7.3zm-19.2-2.8c-.2-.6 0-.8.6-.8s3.9-.1 7.7.7c1.9.4 5.4 1.8 6 2 2 .9 3.2 1.3 4.6 1.4 1.9.2 3.3 0 3.7-.2.6-.3.6.1.5.5 0 .3-.5.5-1.1.6-1.3.2-3.5.2-4.5 0-.5-.1-1.4-.4-2.4-.9L52.6 29c-1.4-.6-2.6-1-3.3-1.2-1.1-.3-2.7-.5-4.1-.6-2.2-.1-3.9.1-4.2.1-.3 0-.6.2-.8-.4zm.6 1.8c-.2-.4.1-.8.8-.9 0 0 1.6-.1 3.2 0 .8 0 1.4.1 2.3.2 1.1.2 2.4.5 4.1 1.1 1.3.5 2.7 1.2 3.2 1.4.8.3 2.7 1.1 4.7 1.3 1.4.2 3-.1 3.4-.2.9-.2.9.2.9.4 0 .3-.1.5-.3.6-.2.2-.5.3-1 .4-.4.1-2.3.2-4.2-.3-.9-.2-1.9-.5-2.7-.8-1.6-.6-2.9-1.3-3.3-1.5-.4-.3-2.3-1.1-4-1.3-2.7-.4-5.5-.3-5.8-.2-.3 0-.6.2-.9.1-.1.1-.3-.1-.4-.3zM42 52.2c.1-.2 1.1-.9 1.9-1.9.8-1.2 1.4-2.6 1.5-2.8.1-.4-.2-1-.6 0-.1.2-.2.6-.4 1.1-.4.8-1 1.7-1.5 2.2-.6.6-1 1.2-1.7 1.5-.9.4-1.6.6-2 .6-1 0-1.1-.4-.2-.6 1.3-.3 2.4-1.1 3.2-2.1 1.1-1.2 1.7-2.4 1.8-2.7.2-.5 0-.9-.5.1-.2.3-.4.8-.8 1.3-.6.8-1.3 1.6-1.6 1.8-.8.6-1.7 1.1-2.4 1.1-1 .1-1.5-.3-1.5-.3-1.2-1.1-1.2-2.3-.7-3.1.5-.7 1.3-1 1.9-.7.6.3 1 1 1 1.5s-.4.8-.6 1c-.3.3-.4.1-.3 0 .3-.3.2-.8.2-1.1-.1-.5-.4-.8-.6-.9-.3-.1-.6-.1-.9.2-.4.3-.6.8-.3 1.6s1 1.2 1.6 1.2c.6 0 1.4-.4 2-.8 1.3-.9 2.1-2.5 2.3-2.8.3-.7-.4-.5-.6.1-.1.2-.3.6-.6 1-.4.6-1 1.1-1.5 1.3-.5.2-.5 0-.4-.4.1-.2.3-.5.5-.7.2-.2 1.1-1.1 1.4-1.8.4-.9.2-1.2.2-1.8 0-.5.2-.7.9-.7s1.3.2 1.6.5c.7.7.7.2.6-.2-.2-1-.6-1-.7-.9-.1.1-.4.2-.7-.1-.1-.1-.4-.3-.8-.5-.3-.1-.6-.1-.9-.2-.4-.2-.4-.4-.4-.6 0-.2 0-.6-.2-.9-.3-.4-.7-.8-1.2-1-.2-.1-.4-.3-.3-.7.2-1 1.1-2.8 1.3-3.7.1-.4.4-1.3.4-2 0-1.6-.5-3.2-.5-3.7 0-.3 0-.5.2-.7.3-.2 1-.3 1.2-.4.3-.1 2-.1 3.6 0 1.3.1 2.4.5 2.7.6.7.2.9.2 1 .8.2.6.5 2.8.9 4.8.3 1.4.8 2.7.9 3.1.2.8.7 2 1 3.5.2.8.3 1.7.3 2.6-.2-.3-.5-.4-.8-.5-.4-.1-.8 0-1.2.1-.6.2-1 .7-1.1 1.5-.1.4 0 1 .1 1.6 0 .2 0 .5-.1.8-.1.3-.4.5-.9 1.1-1.5 1.8-.9.5-.8.4.1-.1.4-.8.7-1.5.2-.6.4-1.1.5-1.4.1-.4 0-.7-.4 0-.2.4-.5 1.4-.9 2.2-.6 1.1-1.2 2.1-1.6 2.5-.9 1-.6.1-.4-.3.3-.4.7-1.2 1.1-2.1.5-1 .9-2.1 1-2.4.2-.6-.2-.9-.5.2-.1.5-.6 1.6-1.2 2.6-.8 1.4-1.7 2.8-2.1 3-.6.4-.6-.2-.4-.4.1-.1 1-1.4 1.7-2.6.5-1 1-2 1-2.2.1-.6-.3-.7-.5 0-.1.3-.9 2.1-1.5 3.1-.3.5-.7 1.1-1.1 1.6-.3.4-.7.5-1 .7-.7.3-.6-.4-.3-.7zM58.2 71l-2.3-3.5h2.8c-.4 2.3-.5 3.5-.5 3.5zm.6-4H56c.2-.9.5-1.9.8-2.9h2.7c-.4 1-.6 2-.7 2.9zm.8-3.4h-2.7c.1-.4.2-.7.3-1 .2-.5.4-1.1.5-1.6h2.7c-.3.9-.6 1.8-.8 2.6zm1-3h-2.8c.3-.9.6-1.7.9-2.4 0-.1 0-.1.1-.2h2.8c-.2.5-.6 1.5-1 2.6zm1.2-3.2-2.7-.1c.6-1.3 1.1-2 1.1-2.1h2.7c-.2.5-.6 1.1-1.1 2.2zm3.6-6.3-2.2 3.6h-2.6l1.9-3.6h2.9zM51 55c1.8-2 2.4-3.8 2.5-3.9h8.4L60 54.7h-5c-.1.1-.9 1.3-1.8 2.4-.8 1-1.8 1.9-2.5 2.5-1.3 1.1-2.5 1.9-3.5 2.4-.8.4-1.3.6-1.6.7-.1-1.2-.3-2.4-.5-3.5 2.7-1.2 4.6-2.7 5.9-4.2zm-5.5 9.7c.2 2 .3 3.4.3 5.9 0 5-.2 8.5-.3 9.3h-.8c.3-3 .3-5.1.3-7.6 0-2.7-.2-5.3-.4-7.8-.4-4.6-1.8-8.9-2.4-10.7-.1-.2.1-.5.5-.6.4-.1.7.2.7.4 1.1 3.2 1.8 6.9 2.1 11.1zm-.3-8.1c-.3.1-.5 0-.6 0-.3-1.1-.5-2.1-.9-3.1 0-.1.1-.3.5-.4.5-.1.6.1.6.1l.8 2.9c.1.1 0 .4-.4.5zm1.4-.6c-.3.1-.5 0-.5 0l-.8-2.8s-.1-.4.2-.5c.4-.1.5.1.5.1l.9 2.8c-.1.1-.1.3-.3.4zm3.5-3c-.9 1.2-2.9 2.5-2.9 2.5l-1.1-3.2s1.1-.8 2.2-1.8c.7-.6 1.4-1.4 1.9-2.1.5.4.9.6 1.2.7.2.1.4.1.7.1-.2 1-.9 2.4-2 3.8zm2.5-4.4c-.3.1-.7.2-1 .1-.6-.2-1.1-.7-1.1-1-.5-1.3-.1-2.1.4-2.6.5-.4 1.1-.4 1.4-.3.4.2.7.6.8 1 .1.3.1.7-.1 1.1-.2.4-.5.7-1 .7-.7 0-.8-.7-.8-1-.1-.7.9-1.1 1.2-.3.2.6.7.2.4-.3-.1-.3-.4-1-1.3-.7-.5.1-.7.6-.8 1.1 0 .6.3 1.3.8 1.5.3.1.8.2 1.2 0 .5-.3.9-.9 1-1.6.1-.6 0-1.3-.1-2.1-.3-1.8-.9-3.7-1-3.9-.1-.3-.7-2.1-1.1-4-.6-2.4-1.1-5-1.1-5.3 0-.6.6-.6.7.1 0 0 .4 1.7.8 3.6.4 1.9.9 3.9 1.1 4.6.2.7.6 2.1.9 3.6.3 1.5.5 3.1.3 3.8-.4.9-1 1.7-1.6 1.9zm1.1.1c-.1-.1 0-.4.3-.7.5-.5.6-1.5.6-2.5 0-2.1-.7-4.5-.8-4.9 0-.2-.6-1.8-1.1-3.6-.6-2.5-1.2-5.4-1.3-5.7-.1-.5.4-.5.6 0 0 0 .6 2.9 1.4 5.8.6 2.5 1.4 5.1 1.6 5.7.4 1.8.4 3 .3 3.9-.2 1-.6 1.5-.9 1.8-.4.3-.6.3-.7.2zm1.8-.1c-.5.5-.6.1-.4-.4.5-.8.6-1.7.6-2.7 0-2-.8-4.1-.9-4.4 0-.2-.4-1.7-.9-3.3-.6-2.4-1.4-5.3-1.4-5.7 0-.7 0-.7.3-.7.2 0 .2.2.4.7 0 0 .8 3 1.5 5.9.6 2.3 1.1 4.5 1.3 4.8.7 2.3.5 3.7.2 4.7-.2.6-.5.9-.7 1.1zm.8.2c-.1-.1-.1-.3.2-.9.4-.8.5-1.8.4-2.7-.1-1.8-.8-3.4-.8-3.5-.1-.7-.7-2.1-1.2-4.2-.6-2.4-1.1-4.9-1.2-5.1-.2-.5.5-.3.7.4 0 0 .8 3 1.5 5.9.7 2.5 1.3 5 1.3 5.3.2 1.1.3 1.9.2 2.6-.1 1.1-.5 1.7-.7 2-.1.1-.3.2-.4.2zm2.2-1c-.3.6-.5.9-.8.9-.3 0-.2-.4-.1-.5.4-.9.5-1.8.4-2.6-.1-1.4-.5-2.6-.6-2.8-.1-.2-.5-1.9-1-3.8-.6-2.7-1.4-5.6-1.4-6-.1-.6 0-.6.3-.5.2.1.4 0 .5.6 0 0 1.9 7.9 2.2 8.6.1.5.7 2.5.8 4.1.1.9-.1 1.7-.3 2zm.4.2c.2-.5.3-1.1.3-1.7 0-1-.1-1.9-.2-2.2 0-.2-.5-1.9-1-3.9-.8-3-1.7-6.6-1.8-7-.1-.5.7-.3.8.4 0 0 .7 2.9 1.4 5.7.3 1.1.6 2 .9 2.8.3 1.2.5 2.2.7 2.9.1.3.1 1.3-.1 2.2-.1.6-.3 1-.5 1.3-.6.6-.7.1-.5-.5zm1 .1c.4-.7.4-1.2.4-1.9 0-1-.1-1.9-.3-2.4-.1-.4-.8-2.7-1.5-5.1-.6-2.4-1.2-4.8-1.2-5.1 0-.6.6-.4.7.1 0 0 .8 3 1.4 5.3.3 1 .5 1.9.7 2.3.5 1.6.9 3 .9 4.1 0 1.7-.5 2.8-.7 3-.2.5-.7.5-.4-.3zm1.3-.1c.4-1.1.5-2.2.3-3.3-.2-1.6-.8-3-.9-3.5-.1-.3-.5-1.4-.8-2.5-.6-2.1-1.1-4.6-1.1-4.8 0-.3.3-.4.5.1 0 0 .4 1.8 1.1 3.9.4 1.3.9 2.7 1.3 3.9.4 1.5.6 2.7.7 2.9.2.8.2 1.5.1 2.2-.1 1-.5 1.7-.7 1.9-.5.3-.8 0-.5-.8zm1 .1c.3-.5.5-1.2.5-1.9.1-1.3-.3-2.7-.4-3-.1-.2-.7-2.4-1.4-4.6-.6-2.1-1.2-4.3-1.3-4.5-.1-.6.5-.5.7 0 0 0 1.3 4.1 2.1 7.2.4 1.3.7 2.6.8 3.1.2.8.3 1.8.2 2.6-.1.7-.5 1.1-.7 1.4-.3.7-.8.3-.5-.3zm2.1-.4c-.1.4-.3.5-.4.7-.3.6-.7.1-.3-.5.2-.3.3-.9.3-1.3.1-.5 0-.8 0-1.2-.1-1.3-.6-2.4-.6-2.6 0-.2-.6-1.8-1.2-3.7-.7-2.1-1.3-4.4-1.4-4.9-.2-.8.6-.7.6-.2 0 0 .9 3 1.7 5.7.6 1.9 1.1 3.7 1.2 4 .4 1.6.4 3.2.1 4zm.3.4c.4-.9.4-1.7.4-2.5-.1-1.5-.6-2.6-.7-3-.1-.3-.8-2.5-1.4-4.5-.6-2-1.2-3.9-1.2-4.1 0-.6.6-.5.7-.1 0 0 1.2 4.3 2 7.4.4 1.3.7 2.3.8 2.8.2 1.1.4 2 .3 2.6-.1 1.1-.6 1.7-.7 1.9-.2.3-.4.1-.2-.5zm-7.5 25.8.8 1.3-.9 1.3-.8-1.3.9-1.3zm-.1 3.4.9 1.1-.8 1.6-1-1.4.9-1.3zm0 3.5 1.2 1.1-.8 1.7-1.1-1.3.7-1.5zm-.2 5.2.8-1.6 1.3 1.3-.8 1.7-1.3-1.4zm1.5 2.2 1.4 1.2-.7 1.8-1.4-1.1.7-1.9zm.5 6.1.5-2.3 1.8 1.2-.5 2.2-1.8-1.1zm3.7 5.2-2-1.2.3-2.2 2.1 1.1-.4 2.3zm.9 1.6-.3-.7.8.3-.5.4zm3.7-9.5c-.2-.3-.4-.5-.6.1-.1.5-.2.8-.6.8-.3 0-.1-1 .3-1.8s.7-.6.8-.3c.9 1.7.3 1.5.1 1.2zM66 89.5c0-.2.1-.3.3-.3.2 0 .3.1.3.3 0 .2-.1.3-.3.3-.2 0-.3-.1-.3-.3zm2.3-2.7s.3 1 .7 1.4c.4.4.1.5-.1.5-.3 0-.8 0-1.5.4-.4.2-.5-.1-.4-.7.1-.6.4-1.4.5-1.7.2-.7.8-.5.8.1zm-.8-1.5c0-.2.1-.3.3-.3.2 0 .3.1.3.3 0 .2-.1.3-.3.3-.2 0-.3-.2-.3-.3zm2.5-2.4s.5 1.6.8 1.9c.3.3 0 .4-.3.3-.9-.3-1.5.1-1.7.1-.5.1-.4-.5-.1-1.1.2-.5.4-.9.6-1.2.3-.7.7-.4.7 0zm-.6-1.4c0-.2.1-.3.3-.3.2 0 .3.1.3.3 0 .2-.1.3-.3.3-.2 0-.3-.1-.3-.3zm2.7-2s.4 1.5.5 1.9c.2.4-.1.4-.3.3-.4-.2-.7-.2-1.5-.1-.4 0-.4-.4-.2-.9s.5-1 .8-1.3c.6-.6.6-.2.7.1zm-.5-1.3c0-.2.1-.3.3-.3.2 0 .3.1.3.3 0 .2-.1.3-.3.3-.2 0-.3-.1-.3-.3zm2.9-1.8s.2 1.5.5 2c.2.5 0 .5-.4.3-.6-.3-.7-.3-1.6-.3-.2 0-.3 0-.3-.1-.1-.4.7-1.5 1.1-1.9.4-.6.7-.4.7 0zm-.2-1.5c0-.2.1-.3.3-.3.2 0 .3.1.3.3 0 .2-.1.3-.3.3-.2 0-.3-.1-.3-.3zm5.5-2c.4.4-.2.3-.2.3l-1-.6c-.2-.1-.3-.4-.1-.7.2-.3.8-.7 1-1 .4-.5.3.3.3.4 0 0 0 .1-.3.4-.6.7-.1.8.3 1.2zm-1.3.3c.7.3 1.5.9 1.2 1.1-.1.1-1 .8-1.7 1.4-.7.6-.4-1.4-.4-1.9.1-.7.6-.7.9-.6zm-1-.6c-.2 0-.3-.1-.3-.3 0-.2.1-.3.3-.3.2 0 .3.1.3.3 0 .1-.2.3-.3.3zm-.2 1s-.1 1.3-.1 1.8-.2.6-.4.3-.8-.4-1.4-.5c-.6-.1.4-1.4 1.2-1.9.7-.3.7 0 .7.3zm-1.2 2.2.9.6c.2.3-.7 1.2-1.1 1.6-.4.4-.5 0-.6-.2-.1-.3-.3-.9-.4-1.6-.1-.7.8-.6 1.2-.4zm-2.9 3.1c1 0 1.7.3 1.3.8-.2.2-.9.9-1 1.4-.2.5-.5 0-.5 0s-.3-.9-.5-1.7c-.1-.7.5-.5.7-.5zm-.8 4c-.2.2-.6.7-.8 1.3-.1.2-.4.4-.5.2-.3-.3-.6-1.2-.6-1.5-.2-.6.1-.8.4-.8 0 0 .4 0 1 .1.6.2.7.5.5.7zM70.6 86c-.2.5-.5 1-.8 1.7-.1.3-.3.4-.6.2-.3-.3-.6-1.1-.7-1.5-.2-.6.4-.9.7-.9.8-.1 1.7-.1 1.4.5zm-1.9 5.1c-.2.5-.5.4-.7.4-.1 0-.3-.4-.6-1s0-.9.2-.9c2-.7 1.5.3 1.5.3s-.3.7-.4 1.2zm2.5-.8c.3-1.1.5-1.8 1-2.9.7-1.6 1.6-3.1 2.5-4.4 1.6-2.4 3.2-4.3 5.5-6v2.7l-.9.8c-.9.8-1.8 1.7-2.9 3.2-1.4 1.9-2.3 3.8-2.7 5.5-.1-.2-2 .8-2.5 1.1zm8.9-4.8c-.1.1-2.8 1.5-5.9 3.1.4-1.3 1.3-3 2.6-4.8 1-1.4 1.9-2.3 2.8-3.1l.5-.5v5.3zm0-9.2c-.9.5-3.6 3-5.8 6.3-1.8 2.6-3 5.3-3.7 7.9-.5.3-1 .5-1.5.8 1.7-5.1 5-11.9 11-16.6v1.6zm0-6.8c-.3.2-1.2.8-2.4 1.7-1.4 1.1-3.6 3-5.6 5.5-1.7 2.1-3.3 4.7-4.7 7.5-1.2 2.5-2.2 5-2.8 7.4-.3-.5-.5-1.1-.7-1.7l-.1.3c.1-.5.7-2.6 1.9-5.3 1-2.5 2.8-6.1 5.1-9.2 1.5-2.1 3.6-4.1 6.1-6 1.4-1 2.5-1.8 3.1-2.2h.1v2zm-5.9 1.8c-1.5 1.3-2.7 2.7-3.8 4.1-.2.3-.5.7-.7 1l-7.5-11.5c.8-2.7 2-5.2 3.1-7.3l8.9 13.7zm-8.6-14.2c.3-.5.5-1 .8-1.4.3-.6.7-1.1 1-1.6L77.1 69c-.1.1-.3.2-.4.3-.7.6-1.4 1.1-2.1 1.7l-9-13.9zM62.5 70c.3-1.5.5-.6.8-.3 0 0 1.5 2.4 2.9 4.5.7 1.1 1.4 2.1 1.9 2.8-.8 1.1-1.6 2.6-2.3 4-.9 1.8-1.6 3.4-1.8 3.8-.2.3-.3 1-.7-.1-.7-2-1-4.1-1.2-6.2-.2-4 .2-7.5.4-8.5zm17.2-49.4V22l-3.8 4.8v27.1l-.8-1-.1-26.8 4.7-5.5zm.1 21.9v15.9l-3.4-4 .1-27.5 3.2-4.1.1 19.7zm-8.5-14.4c.4.2.5.7.3 1.1-.1.2-.3.3-.4.3-.2 0-.3-.4-.3-.8-.2-.6.3-.7.4-.6zm-.7 3.5c-.2-.1-.3-.3-.5-.7-.1-.3-.1-.4.1-.5.2-.2.6-.2.6-.2.3 0 .3.1.3.3-.1.4-.2.6-.2.9 0 .2-.2.3-.3.2zm.2 1.1v1c0 .4-.4.1-.8-.2-.1-.1-.3-.3-.2-.5.1-.2.5-.4.6-.5.4-.2.4.2.4.2zm-.1-3c-.1.2-.3.2-.5.3-.1 0-.3.1-.4 0-.1-.2.1-.8.3-1.1.2-.5.3 0 .4.1.2.3.3.5.2.7zm-.5 1.9c.1.1.1.2 0 .4s-.3.3-.6.6c-.1.1-.2.1-.3 0-.1-.3 0-1 0-1.2 0-.3.3-.2.4-.1 0-.1.3.2.5.3zm-.5 2.2.4.4c.2.2 0 .4-.4.8-.3.3-.4-.5-.4-.9 0-.5.3-.4.4-.3zm.6 2.7c.3.1.4.2.4.4 0 .1-.1.3-.2.5-.1.1-.1.2-.2.2-.2 0-.4-.4-.5-.7 0-.4.2-.5.5-.4zm0-.5c-.3-.1-.3-.3-.3-.5.1-.3.4-.6.5-.7.4-.4.5.1.5.1l.2 1c0 .1.1.3 0 .3-.1.2-.7 0-.9-.2zm-.1 5.3c-.1 0-.3-.2-.6-.6-.1-.2-.8-1.2-1.3-2.2-.7-1.4-1.2-3.3-1.1-5.2 0-1.9.3-3.8.9-5.3.6-1.6 1.6-2.9 1.8-3.1.4-.5.5-.2.5.1l.1.6c-.3.5-1 1.3-1.6 2.6-.6 1.3-1.1 2.9-1.1 4.8 0 3.8 2.6 7.3 2.6 7.6 0 .3 0 .7-.2.7zm.6-1.7c-.1.1-.2.5-.7-.2-.3-.4-.7-1-1-1.8-.5-1.3-.9-2.9-.9-4.6 0-1.6.3-3.1.8-4.3.5-1.2 1.1-2 1.2-2.1.4-.6.7-.1.4.3-.1.2-.8 1.2-1.3 2.5-.4 1.1-.5 2.4-.5 3.7 0 1.5.4 3 .8 4.1.4 1.1.9 1.7.9 1.8.4.3.4.5.3.6zm1-2c-.1.2-.4.4-.7.5-.2 0-.2 0-.2-.2s.1-.6.3-.8c.1-.2.3-.2.5 0 .1.2.1.4.1.5zm1-1.2c-.4.3-.4.3-.6.4-.1 0-.3-.1-.4-.3-.5-1-.7-2.4-.7-3.6.1-1.6.5-2.8.6-3.1.2-.4.5-.2.7 0 .2.2.5.2.3.8-.2.5-.5 1.3-.5 2.5 0 .7.1 1.3.2 1.7.2.6.4.9.4.9.3.3.3.6 0 .7zm1.1-.8c-.3.1-.5.1-.6-.1-.2-.3-.5-1.2-.6-1.8-.1-1.2.2-2.5.4-2.9.1-.2.3-.3.3-.3.1 0 .3.1.4.1l.8.4v4.3c-.2.2-.5.3-.7.3zm-2.8 13.7h.3c.1.2 7.9 9.3 8.7 10.1v7.5l-.3.2c-.5.3-1.3.9-2.3 1.6l-9.8-15c1.6-2.5 3-4 3.4-4.4zm-4.5 49.5c-1.8-2.9-3.3-6.1-4.5-9.5-1.5-4.4-2.4-9.3-2.4-13.9 0-2.4.1-4.6.4-6.6.4-3.2 1.3-6.2 2.4-8.7 1.1-2.4 2.2-4.4 3.3-6.3 1.6-2.6 2.9-4.3 3.2-4.6h1.6c-.9.9-2.8 3.3-4.5 6.2-2.2 3.7-5 9.4-5.4 15.5-.1 1.1-.1 2.2-.1 3.3 0 5.4.8 10.4 2.6 15.2.1.2.1.4.2.6 1.6 4.2 3.7 7.3 4.2 8-.5.5-.8.7-1 .8zm4.7 2.9c-.4 0-.2-.5-.2-1s.5-.2.5-.1c0 .2.1.5.2.6 0 .2-.1.5-.5.5zm6.3-5.4c.5 1.2.9 2.4 1 2.7.4.9-.2.8-.4.7-.1-.1-.4-.4-.3-.9.1-.4.1-.6-.1-.6s-.3-.1-.3-.6c0-.2 0-.5-.1-.5-.2.2-.3.1-.4-.1-.1-.5-.4-.6-.5-.4-.2.2-.2.4-.1.6.1.1.5.8 1 1.6.4.8.8 1.7.9 2 .1.2 0 .9-.1 1.1-.2.3-.5.1-.5 0 0 0-.2-.5-.4-.9s-.5-.8-.4-1.1c.1-.6.1-.7-.2-.8-.1 0-.2-.1-.3-.3-.2-.3-.3-.7-.3-1 0-.5-.4-.4-.5-.2-.2.2-.3.5-.1.7.1.1.5.5.6.9.1.2 0 .5 0 .5-.2.2-.4.4.1.5.4.1.5.3.6.5.1.3 0 .5-.1.6-.2.2-.2.4.1.5.2 0 .3.1.4.2.2.1.3.4.4.7.1.3-.1.6-.3.7-.3.1-.7-.1-.8-.3-.1-.2-.4-.8-.7-1.5-.4-1-.8-2.2-.9-2.6-.1-.3-.3-.5-.5-.2s-.3.5 0 .7c.3.2.5.7.3 1.1-.2.5.1.3.3.5.2.2.4.3.7 1.4.1.4.1.7 0 .8-.2.2-.6 0-.8-.3-.1-.2-.6-1-1-1.9-.5-1-.8-2-.8-2.2 0-.3 0-1 .2-.6.1.2.3.1.4-.3.1-.2.2-.6.3-.7.2-.2 1.2-1.5 1.5-1.9.3-.5-.1-.5-.4-.1-.4.6-.6.8-.7.7-.2-.1 0-.9 0-1.2 0-.6-.5-.3-.5.3 0 .3-.1 1-.2 1.5-.2.5-.5.7-.6.7-.3.1-.3.5-.3.6 0 .2-.1 1.4-.2 1.9-.3 1.1-.5.4-.5.2 0-.3-.5-.7-.6-.8-.2-.2-.2-.8-.2-1.3-.1-.5-.3-1.2-.4-1.6l5.2-3.7c.2 0 .3.2.4.3-.2.5.5 1.9 1.1 3.4z"/><path id="XMLID_1135_" class="st4" d="M64.4 80.8c.3-.7 2-3.7 2-3.7l-2.3-3.6c-.3-.3-.7-.9-.7.3s-.3 4.7.2 6.4c.2.5.5 1.4.8.6z"/><path id="XMLID_1134_" class="st4" d="M76.2 74.3c-.3.3-.3.4 0 .7.3.3.7.6.7 0 0-.3-.2-.7-.2-.7-.1-.2-.3-.1-.5 0z"/><path id="XMLID_1133_" class="st4" d="M73.6 77.2c-.2.2-.4.8.3.8.6 0 .6-.1.4-.8-.1-.2-.4-.3-.7 0z"/><path id="XMLID_1132_" class="st4" d="M71.4 81.2c.4 0 .9.1.5-.9-.2-.4-.4-.2-.6.1-.2.3-.3.8.1.8z"/><path id="XMLID_1131_" class="st4" d="M69.1 83.8c-.1.4-.3.6.2.6s1 .1.4-.9c0-.2-.4-.3-.6.3z"/><path id="XMLID_1130_" class="st4" d="M67.9 88.4c.4 0 .8-.1.4-.8-.2-.2-.6-.3-.7.1-.2.5-.1.7.3.7z"/><circle id="XMLID_1129_" class="st4" cx="78.5" cy="79.6" r=".5"/><path id="XMLID_1128_" class="st4" d="M77.7 81c.3 0 .5-.2.5-.5s-.2-.5-.5-.5-.5.2-.5.5.2.5.5.5z"/><circle id="XMLID_1127_" class="st4" cx="76.9" cy="81.5" r=".5"/><circle id="XMLID_1126_" class="st4" cx="76.1" cy="82.5" r=".5"/><circle id="XMLID_1125_" class="st4" cx="75.4" cy="83.5" r=".5"/><circle id="XMLID_1124_" class="st4" cx="74.7" cy="84.5" r=".5"/><circle id="XMLID_1123_" class="st4" cx="74" cy="85.7" r=".5"/><circle id="XMLID_1122_" class="st4" cx="73.5" cy="86.8" r=".5"/><circle id="XMLID_1121_" class="st4" cx="73" cy="88" r=".5"/><path id="XMLID_1120_" class="st4" d="M72.5 88.7c-.3 0-.5.2-.5.5s.2.5.5.5.5-.2.5-.5-.2-.5-.5-.5z"/><circle id="XMLID_1119_" class="st4" cx="79.5" cy="78.8" r=".5"/><path id="XMLID_1118_" class="st4" d="M75.6 96.3c-.1.1-1.5 1.6-1.8 1.9-.2.2-.2.6.2.5.4-.1 1.8-2.2 1.9-2.2.1-.1.2-.8-.3-.2z"/></g><g id="XMLID_491_"><path id="XMLID_515_" class="st5" d="m56.8 51.4-1 1.6 1.1 1.3 1-1.3z"/><path id="XMLID_514_" class="st5" d="m59.5 51.5-1.1 1.4.9 1.4 1.1-1.3z"/><path id="XMLID_513_" class="st5" d="m53.8 51.5-.2 2.1 1.3.9.3-1.9z"/><path id="XMLID_512_" class="st5" d="m46.3 59.3-.5 1.5 1.2.9.4-1.6z"/><path id="XMLID_511_" class="st5" d="m50.1 56.5-.3 1.8 1.3.4.2-1.7z"/><path id="XMLID_510_" class="st5" d="m48 58.2-.2 1.9 1.3.4.2-1.8z"/><path id="XMLID_509_" class="st5" d="m51.7 54.6.2 1.8 1.3.2.1-1.9z"/><path id="XMLID_508_" class="st5" d="m62.7 51.7-1 2.1H63l1.2-2.1z"/><path id="XMLID_507_" class="st5" d="m61.3 55.3-1.3.9.8 1.1 1.3-.9z"/><path id="XMLID_506_" class="st5" d="m59.9 58-1.2 1.1.9 1.3 1.2-1.1z"/><path id="XMLID_505_" class="st5" d="m57.9 64.3-1.3 1.1 1 1.2 1.3-1z"/><path id="XMLID_504_" class="st5" d="m58.8 61.2-1.3 1.2.9 1 1.3-.9z"/><path id="XMLID_501_" class="st5" d="M69.6 66.3c-2.4-3.7-5-7.7-5-7.7s-.6 1.1-1.2 2.4c-.4.8-.7 1.8-.9 2.5.4.5 2.4 3.5 4.2 6.4 1.9 2.9 3.7 5.8 3.7 5.8s.9-1 1.7-2c.7-.7 1.3-1.4 1.4-1.4-.4-.5-2.1-3.2-3.9-6zm2.5 6.8c-.1.3-.3.4-.4.5-.3.4-.4.3-.4.2 0-.1 0-.4-.1-.7-.1-.4-.2-.9-.4-1-.3-.2-.6-.2-.8.1-.1.2-.1.5 0 .8.2.3-.1.5-.5.3-.3-.2-.5-.4-.5-1.1 0-.5.8-.8 1-.8.2 0 .3-.1.2-.2-.1-.1-.5-.3-.8-.3-.2 0-1.4-.2-2.1-.8-1-.9-1.6-2.3-1.7-2.6 0-.1-.2-.6-.3-1.2-.2-1-.3-2.4-.5-2.8-.1-.3-.3-.4-.5-.4-.3 0-.7.3-.7.8 0 .2-.3.6-.6.1-.2-.3-.2-.6-.2-.9.1-.4.5-.7.8-.7.5 0 .1-.5-.2-.5-.4 0-.2-.4 0-.7.2-.4.4-.3.6-.2.2.1.6.4 1.1.9.2.2.4.5.6.9.2.4.3 1.1.4 1.7.1.7.1 1.3.1 1.4 0 .6.2 1.3.4.5.1-.4.8-.9 1.4-.6.4.2.8.9.8 1.3 0 .7-.5.6-.5.4 0-.1-.2-.5-.4-.7-.3-.2-.8-.1-1 .3-.1.4-.1 1 .3 1.5.5.5 1.6 1 2.3 1.2.8.2 1.4.9 1.8 1.7.7.5.9 1.5.8 1.6z"/><path id="XMLID_500_" class="st5" d="M71.1 49s-.9 1-1.5 1.8l-1.5 2 10.1 15.7 2.1-1.5v-7.8L71.5 49h-.4z"/><path id="XMLID_493_" class="st5" d="M66 23.3c-.2-.1-.6-.2-.8-.1-.6.1-1.3.7-1.2 1.8-.7-.2-1.1.1-1.3.5-.3.5-.1 1.2.3 1.5.2.2.3.2.1.4-.1.1-.5.4-.9.5-.7 0-1.2-.3-1.4-.4-.4-.2-.3-.4.1-.3.5.1.8-.3 1-.8.1-.6 0-1.3-.7-1.8.6-1.4 0-2.3-.7-2.5-.7-.1-1.6.5-1.3 2-.7 0-1 .1-1.2.4-.5.7-.1 1.8.8 2 .3.1.2.3.1.4-.1.1-.6.2-1 .2-.6 0-1.1-.2-1.3-.3-.3-.2-.9-.6-.4-.8.5-.1.9-.6.9-1.2 0-.5-.2-1.1-.8-1.4.8-1 .5-2.1-.1-2.5-.8-.5-2-.2-2 1.7-.8 0-1.2.4-1.3.9-.1.6.2 1.4.6 1.5.3.1.2.3 0 .4-.1.1-.6.2-1 .1-.5-.1-.9-.3-1.2-.5-.5-.3-1-.8-.3-.8.5 0 .9-.6.9-1.1 0-.4-.2-.9-.9-1.3.7-1.1.2-1.9-.4-2.1-.8-.3-1.8 0-1.8 1.7-.4-.2-.9 0-1.1.4-.4.5-.4 1.4.5 1.8.4.2.2.3 0 .5s-.7.4-1.3.3c-.7 0-1.4-.5-1.4-.5-.4-.2-1.1-.7-.3-.6.6.1 1.2-.7 1.1-1.3-.1-.6-.5-1.1-1.2-1.2.3-1.2-.2-1.9-.8-2.1-.8-.2-1.7.4-1.4 2.1-1.1.2-1.3 1.1-1.1 1.8.2.5.6.8.9.9.2.1.4 0 .1.3-.1.1-.5.4-1 .4-.6.1-1.2 0-1.3-.1-.5-.1-.7-.4-.5-.5.5-.2.9-1 .6-1.6-.2-.4-.6-.6-1.5-.6-.1-.7-.1-1.1-.5-1.3-.5-.3-1.2-.1-1.2-.1l2.6 5.8s2.2-.1 5.2.2c2.1.2 4.5.5 6.5 1.3 3.6 1.5 5.2 2.4 7.1 2.5 2.9.3 4.5-.3 4.5-.3l2.7-6.2zm-25.9 1.4c-.1-.2.1-.1.5 0 1.2.3 2.2-.2 2.8-1.1.5-.7.1-1.5 0-1.6-.2-.4.1-1 .6-.9.5.1.5.6.3.8 0 0-.2.5-.1 1.1.1.4.3.9.9 1.3 1.3.9 2.5.6 3.2.3.9-.4 1.3-1.2.9-1.9-.3-.5.3-.9.7-.8.5.2.3.7.3.7s-.4.8-.2 1.5c.1.4.4.9.8 1.3.3.3.6.5.9.7.3.2.8.1 1.1.2.9 0 1.8-.6 1.8-2.1 0-.7.3-.9.8-.7.5.2.2.8-.1 1-.2.1-.5.7-.3 1.3.1.4.4.8 1 1.3.9.7 2.2.9 2.9.5.6-.3.8-.9.7-2.1-.1-.4.1-.9.7-.8.6.2.2.9.1.9-.1.1-.4.6-.4.6-.2 1.2.5 1.7 1.2 1.9.7.2 1.5 0 1.6 0 .3-.2.6 0 .4.2-.1.1-.4.6-1.1.7-.7.1-1.6-.2-2.6-1.3-.3.2-1.5 1-2.9.6-.8-.2-1.5-.9-2.2-2-.3.3-1.5.6-2.7.3-.9-.2-1.8-.8-2.4-1.9-.2.2-1.2.8-2.4.7-.9 0-2-.4-3-1.3-.1.1-1 .9-1.5 1-1.2.3-1.7.4-2.1 0 0-.1-.1-.2-.2-.4zm18.6 4.4c-.8-.1-.2-.6.8-.8 0 0 .4.2.8.6.5.5-.8.4-1.6.2zm-4.9-1.7c-.6-.3.4-.4.6-.4 0 0 .2.1.5.6.3.7-.5.1-1.1-.2zm-5.2-1.5c-.6-.2.5-.7.7-.4.7.8.3.8-.7.4zm-5.1-.6c-.7-.1.4-.7.5-.6.8.4.9.9-.5.6z"/><path id="XMLID_492_" class="st5" d="m80.5 86.4-15 7.9 2.4 3.9 12.6-8.8z"/></g><path id="XMLID_175_" class="st3" d="M52.6 122.4c-1.3-.1-2.6-.5-3.6-.9-1.1-.4-1.9-.8-2.1-.9-.3-.2-2.2-1.1-4.3-1.7-1-.3-2.1-.5-3.1-.7-1.3-.2-2.5 0-3.1.3-.2.1-.5.4-.5.4s-.3.8-.1 1.3c0 .1-.2.6-.2 1s.2.7.3 1c-.5 1.4-5.6 12.4-5.6 12.4l33.2-.1-4-8.8s.4-.5.2-1.2c-.1-.3-.4-.8-.7-1.1 0-.5-.1-.7-.2-.9-.1-.2-.2-.4-.4-.4-.4.2-1.4.4-2.7.4-1 .1-2 0-3.1-.1z"/><path id="XMLID_174_" class="st3" d="M35.9 96.7c-.6 1-1.1 1.9-1.5 2.5-.5.9-.8 1.2-1.1 1.6H46.2s.8-2.4 3.1-4.7c1.3-1.3 2.8-2.4 5.1-3.3.2 1 .2 1.2.3 1.6-.7.2-1.4.4-1.8.6-.5.2-.7.4-.8.5.2.6.5 1.4.8 2 .3 1 .6 1.9.6 1.9l.5-.3c.2-.1.6-.2 1.3-.4.8-.2 1.8-.2 2.4-.2-.7-2.5-1.6-5.2-2.2-8.9-.4-2.2-.6-4.5-.7-7.7-.1-3.8-.1-7.2.3-10.6h-1.6s-.2 3.7-.2 5.7v5.4c0 2.6.3 4.6.6 6.2-2.3.8-4.3 2.3-5.9 3.7-2.1 1.9-3.5 3.9-3.7 4.2h-4.9s.8-1.5 1.8-4.1c.7-1.7 1.4-3.7 2.1-6.1.2-.8.7-2.6.7-2.6l-3-4.6s-.2 4.5-1.1 7.5c-.8 2.8-1.6 5.1-2.6 7.3-.4 1.1-.9 1.9-1.4 2.8z"/><path id="XMLID_173_" class="st3" d="M28 73.7c1.1-1.6 2.4-3.5 3.2-5.2 2.5-4.8 3.6-9.3 3.6-9.6 0 0 .2.6.5 1.2.3.7.6 1.7 1.1 3 .4 1.2.8 2.6 1.2 4.3.6 2.8.9 6.1.9 9.6 0 2.1 0 4.1-.3 6.2-.2 1-.4 2-.7 3-1.4-2.3-6.3-9.8-7.7-11.5-.8 1.1-1.6 2.2-2.5 3.1-1.3 1.4-2.4 2.4-2.4 2.4l4.5 7 4.6 7.2c-1.4 2.4-2.8 4.5-3.9 5.9-1 1.3-1.9 2.2-2 2.3h2.3c0-.1.8-.9 1.2-1.6.4-.6 1.7-2.3 3.1-4.9.6-1 1.2-2.1 1.7-3.2.8-1.6 1.3-3.1 1.5-3.6.8-2.2 1.1-3.9 1.6-6.5.3-1.8.4-3.9.5-6 0-1.8-.2-4.1-.4-6.1-.5-4.2-1.7-8.4-3.5-12.5-.9-2.1-1.9-4.2-3.2-6l-1.4 1 1.5 2.5 1.2 2.2-5.7 2.9s-.2 1.4-1.1 3.4c-.7 1.6-1.7 3.5-3.2 5.5-1.3 1.8-3 3.7-5.2 5.2v7s1.6-.9 3.7-2.7c1.7-1.3 3.7-3.2 5.3-5.5z"/><path id="XMLID_172_" class="st3" d="m19.1 92.2.2 40 5.5-6.6-.1-26.9z"/><path id="XMLID_171_" class="st3" d="M31.5 118.6c0-1.8-.5-3.5-1.1-4.9-.6-1.3-1.6-2.8-1.7-2.8-.3.9-.7 2-1.2 2.8-.6.9-1.4 1.6-1.7 1.7.6.8 1 2 1 3.3 0 1.3-.4 2.4-.9 2.9.8.7 1.3 1.2 1.8 1.8.6.9.8 2 1 2.8 0 0 1.1-1.4 1.7-2.7.6-1.5 1.1-3 1.1-4.9z"/><path id="XMLID_170_" class="st2" d="M51.4 125.3c3.8.7 7.3.5 8 .5.3 0 .5-.6.2-1.3-.1-.3-.3-.6-.6-.7 0 0 .2-.5.1-1-.1-.3-.5-.6-.8-.7-.8.1-1.4.4-2.7.4-1.1 0-3-.2-4.1-.5-1.6-.4-2.2-.5-3.4-1-1.2-.6-2.1-1.1-3-1.4-.6-.2-1.7-.8-3.3-1.1-.9-.2-2.2-.4-3-.4-2.3 0-3 .7-3 1.2 0 .8.2 1.1.2 1.1s-.3.6-.3 1.1c0 .4.3 1 .6.8 1.2-.3 2.8-.5 4.1-.4 2.5.3 4.4 1.3 5.5 1.8.4.1 3.4 1.2 5.5 1.6z"/><path id="XMLID_169_" class="st2" d="M49.2 103.6c.2-.5.7-1.1 1.7-2 .8-.8 1.9-1.6 2.8-2.2-.3-.6-1.4-3.9-1.4-3.9s-1.6.8-3.1 2.9c-.8 1.1-1.8 2.7-2.4 4.3.6-.1 1.6.3 2.4.9z"/><path id="XMLID_168_" class="st2" d="M42.2 89.6c-.5 1.2-1 3-1.9 5-.4.9-.9 2-.9 2h5s1.3-2 3.5-4c1.6-1.5 3.7-3 6.1-3.9-.1-.6-.2-1.4-.3-2.4-.1-.8-.1-1.7-.1-1.9h-9.8s-1 3.6-1.6 5.2z"/><path id="XMLID_167_" class="st2" d="M24.3 86.1 32 97.9c.1-.1.5-.7 1-1.6.3-.5.6-1 1.1-1.8-1-1.4-3.3-5-5.4-8.2-2-3.3-3.7-6-3.7-6s.9-.8 2.3-2.4c1.1-1.2 2.4-2.8 3.7-5 .9-1.5 1.8-3 2.5-4.5 1.6-3.5 2.6-6.8 2.6-6.8L35 58.9s-1.2 3.7-2.2 6.4c-.3.7-1.3 2.9-2.5 5.1-1 1.8-2.2 3.4-2.9 4.4-.7 1-3.1 3.3-3.6 3.9-.6.5-1.1 1-1.7 1.5-1.3 1-2.6 1.6-2.7 1.8v2.8s2.7-1.8 2.9-2l2 3.3z"/><path id="XMLID_166_" class="st2" d="M19 72.1s.9-.8 1.8-1.7c1-1 2.3-2.6 3.3-4.3.7-1.1 1.4-2.6 1.6-3.8C24.5 63 19 66 19 66v6.1z"/><path id="XMLID_165_" class="st2" d="M19.3 110.2v19.7l4-5.3V97.2l-4.1-4.7z"/><g id="XMLID_1224_"><path id="XMLID_1330_" class="st4" d="M56.8 119.2c-.5-.1-1.5.3-2.7.1-.7-.1-1.7-.7-2.2-1-1.4-.9-1.1-.8-1.2-.9-.3-.3-.7-.4-.3.2.2.3.6.8 1.2 1.3s1.5 1.1 2 1.3c.5.2 1.1.3 1.6.4.7 0 1.4 0 1.8-.2.4-.2.5-1.1-.2-1.2z"/><path id="XMLID_1329_" class="st4" d="M50.9 116.5c.1.1 1.4 1 2 1.4 1.1.6 2.1.8 2.8.5.4-.1.7-.5.1-.5-.4 0-1.3.2-2.5-.2-.6-.2-2-1.2-2.2-1.4-.6-.5-.7-.1-.2.2z"/><path id="XMLID_1325_" class="st4" d="M51.4 115.9c.2.1.5.3.7.5.4.3.9.6 1 .7.1.1.6.4 1 .5.5.1.9.1 1.2.1h.5c.2 0 .5.1.6.3.3.3.6.2.4-.2-.1-.4-.5-.8-.4-1.4.1-.4-.1-.6-.4-.3-.3.3-.6.6-.7-.1-.1-.7 0-.9.4-.5.3.3.4 0 .6-.2.2-.2 0-.9-.2-.9-.1 0-.3-.1-.5-.2s-.5-.3-.7-.5c-.2-.2-.4-.3-.5-.4-.2-.2-.6 0-.4.3.1.1.5.4.8.7.2.2.2.4-.1.4-.4 0-.8.2-.9.3-.1.1-.8.4-1.4.5-.3 0-.6 0-.8-.1-.4-.2-.7 0-.7.2.2-.1.3.1.5.3zm2.7.2s.1-.4.3-.6c.4-.4.4.3.2.7-.2.4-.6.2-.5-.1zm-.5-.6c.4-.1.5 0 .3.4s-.5.4-.6.2c-.2-.2-.1-.5.3-.6z"/><path id="XMLID_1324_" class="st4" d="M52.2 108.6c-.2.3-.2.8-.2 1.1.1.5.5.9.9 1.1.4.3.9-.3.4-.5-.2-.1-.5-.2-.6-.4-.1-.2-.1-.4-.1-.8 0-.2.2-.5.4-.5.3-.1.6 0 .9.2.5.3.7.6 1.2.9.5.2 1 .5 1.1.5-.7.4-.9.7-.9 1.2s.2 1 .4 1.1c.3.3.8.2.5-.2-.2-.2-.6-.7-.2-1.1.3-.3.7-.4 1.4.4s1.2.2 1.2-.1c0-.3 0-.6-.4-.6s-.7-.3-.9-.5c-.2-.2-.6-.2-.6-.2s.3-.3.4-.7c0-.2 0-.5-.4-.6-.5-.1-1-.2-1.5-.4s-.9-.4-1.3-.6c-.5-.3-1.3 0-1.7.7z"/><path id="XMLID_1243_" class="st4" d="M35.5 122c.1.2 0 .7-.5 1.8-.4.8-5.1 11-5.1 11h34.3l-4.3-9.2s.3-.5.2-1.2c-.1-.6-.4-.9-.8-1.1.2-.7-.1-1.2-.5-1.4.2-1.1 0-2.2-.3-3.1-.1-.3-.1-1.1.1-2.1.4-1.8 1.3-4.2 1.6-4.8.2-.5.2-1-.1-1.4-.2-.3-.8-.4-1-.6-.5-.4-.8-.4-.6-1.4.1-.4 0-.6-.2-.8-.2-.2-.2-.5 0-.7.2-.2.1-.3 0-.9-.1-.2-.1-.9.2-1.5.4-.7 1.2-1.3 1.4-1.5.4.7.8 1.2 1.3 1.4.7.3 1.5 0 2-.6.8-.8.7-2.4.6-2.7-.2-.5-.3-.9-1-1.6-.3-.3-.7-.7-1.2-.9-.9-.5-2.1-.5-2.4-.5H58c-.3-1-2.1-6-2.6-11.3-.5-4.9-.7-9.6-.2-15.6h-1.5s-.6 7.3 0 15.5c0 .5.1 1 .1 1.6-.6.3-2.8 1.3-4.9 3-1.2.9-2.1 1.9-2.8 2.8-.6.8-1.3 1.5-1.8 2.1H40s1.7-3.7 2.7-6.8c.9-2.7 1.6-5.6 1.6-5.6L41 79.2s-.1 2-.5 4.5c-.3 1.9-.9 4.2-1.7 6.6-.6 1.7-1.4 3.5-2.2 5-.7 1.5-1.4 2.5-2 3.4-.9 1.4-1.4 2.1-1.5 2.2h13.2c.1-.3.8-2.1 2.6-4.2 1.2-1.4 3-2.8 5.5-3.8.1.5.2 1 .3 1.4-2.2.6-4 1.6-5.6 3.9-1.1 1.5-1.8 3-2.2 3.9H31c.5-.7 1.7-2.3 3-4.4 1.2-1.9 2.3-3.9 3.4-6.3 1.2-2.5 2-5.6 2.4-8.8.3-2.1.4-4.2.4-6.7 0-4.6-.8-9.5-2.4-14-1.2-3.4-2.8-6.8-4.6-9.7l.8-.6c.2.3 2.9 5.1 4.6 9.9 2.8 7.9 2.4 14.4 2.4 17.8l.3.6 1-1.6 1.2 1.8.1-1.7c0-.3.4-4.6 0-10.3-.2-2.9-.7-6.2-1.5-9.3-.6-2.4-1.3-4.3-2.3-6.2 0 0-.6.2-1.3-.1-.4.1-.5-.5-.5-.5s-.7-.2-1.3-.8c-.4-.5-.8-1.4-.8-1.4l-6.6 4.7c-.1-.3-.4-.9-.5-1.8-.1-.7-.1-1.6 0-2.6 0-.3.1-.6-.1-.8-.1-.1-.3-.2-.6-.1-.2.1-.6.3-.9.7-.2.3-.4.7-.4.8 0 .2-.2.5-.5-.5-.1-.4-.7-1.5-1.2-2.2-.3-.4-.5-.7-.6-.7-.1-.1-.2-.2-.6-.1-.2.1-.6.4-.7.5-.5-.5-.9-.6-1.2-.4-.4.2-.6.8-.5 1.3-.5.1-.7.5-.8.8-.2.7 0 1.5 0 1.7-.2.2-.3.5-.4.8-.1.4 0 .9.1 1.4.2.7 2 4.9 2.5 5.8l-4.1 2.8v.6l12.5-8.7c2 3.2 2 3.2 1.3 2.1-.2-.3 1.1 2.1 1.1 2.1l-14.9 7.9.2 67.2 5.8-7.3v-4.5c.2.1.4.2.7.4.6.4 1.3 1 1.9 1.9.7 1.1 1.1 3 1.3 4.1 0 0 0 .7.4.3.1-.1.8-.7 1.6-2.2 1-1.8 1.9-4.5 1.9-7.2 0-2-.6-4.5-1.5-6.3-.8-1.6-2-2.7-2.1-2.9-.1-.2-.2.2-.3.7-.1.6-.4 1.4-.7 2.1-.3.8-.7 1.7-1.3 2.3-.7.7-1.2.9-1.5 1h-.4l-.1-16.1 3 3.5h6.2c-.2.4-.5 1-.6 1.8-.2 1.2-.1 2.8.8 5 .2.5.8 2.6 1.3 4.3.5 1.9.9 2.9 1.1 3.8.1.4-.5.6-.7.8-.2.2-.3.8-.2 1.4 0 .4.1.7-.1.9-.3.1-.3.8 0 1.1zm4.5-.1c2.7.3 6.3 2.5 10.6 3.5 3.3.8 8.6.8 8.6.8l3.8 8.2H31s4-9.1 5.3-12.2c0 0 2.1-.4 3.7-.3zm19.2 2.8c.2.6 0 .8-.6.8s-3.9.1-7.7-.7c-1.9-.4-5.4-1.8-6-2-2-.9-3.2-1.3-4.6-1.4-1.9-.2-3.3 0-3.7.2-.6.3-.6-.1-.5-.5 0-.3.5-.5 1.1-.6 1.3-.2 3.5-.2 4.5 0 .5.1 1.4.4 2.4.9l2.7 1.2c1.4.6 2.6 1 3.3 1.2 1.1.3 2.7.5 4.1.6 2.2.1 3.9-.1 4.2-.1.3 0 .6-.2.8.4zm-.6-1.8c.2.4-.1.8-.8.9 0 0-1.6.1-3.2 0-.8 0-1.4-.1-2.3-.2-1.1-.2-2.4-.5-4.1-1.1-1.3-.5-2.7-1.2-3.2-1.4-.8-.3-2.7-1.1-4.7-1.3-1.4-.2-3 .1-3.4.2-.9.2-.9-.2-.9-.4 0-.3.1-.5.3-.6.2-.2.5-.3 1-.4.4-.1 2.3-.2 4.2.3.9.2 1.9.5 2.7.8 1.6.6 2.9 1.3 3.3 1.5.4.3 2.3 1.1 4 1.3 2.7.4 5.5.3 5.8.2.3 0 .6-.2.9-.1.2-.1.3.1.4.3zm-1.2-23.5c-.1.1-1.1.9-1.9 1.9-.8 1.2-1.4 2.6-1.5 2.8-.1.4.2 1 .6 0 .1-.2.2-.6.4-1.1.4-.8 1-1.7 1.5-2.2.6-.6 1-1.2 1.7-1.5.9-.4 1.6-.6 2-.6 1 0 1.1.4.2.6-1.3.3-2.4 1.1-3.2 2.1-1.1 1.2-1.7 2.4-1.8 2.7-.2.5 0 .9.5-.1.2-.3.4-.8.8-1.3.6-.8 1.3-1.6 1.6-1.8.8-.6 1.7-1.1 2.4-1.1 1-.1 1.5.3 1.5.3 1.2 1.1 1.2 2.3.7 3.1-.5.7-1.3 1-1.9.7-.6-.3-1-1-1-1.5s.4-.8.6-1c.3-.3.4-.1.3 0-.3.3-.2.8-.2 1.1.1.5.4.8.6.9.3.1.6.1 1-.2.4-.3.6-.8.3-1.6s-1-1.2-1.6-1.2c-.6 0-1.4.4-2 .8-1.2.9-2.1 2.5-2.3 2.8-.3.7.4.5.6-.1.1-.2.3-.6.6-1 .4-.6 1-1.1 1.5-1.3.5-.2.5 0 .4.4-.1.2-.3.5-.5.7-.2.2-1.1 1.1-1.4 1.8-.4.9-.2 1.2-.2 1.8 0 .5-.2.7-.9.7s-1.3-.2-1.6-.5c-.7-.7-.7-.2-.6.2.2 1 .6 1 .7.9.1-.1.4-.2.7.1.1.1.4.3.8.5.3.1.6.1.9.2.4.2.4.4.4.6 0 .2 0 .6.2.9.3.4.7.8 1.2 1 .2.1.4.3.3.7-.2 1-1.1 2.8-1.3 3.7-.1.4-.4 1.3-.4 2 0 1.6.5 3.2.5 3.7 0 .3 0 .5-.2.7-.3.2-1 .3-1.2.4-.3.1-2 .1-3.6 0-1.3-.1-2.4-.5-2.7-.6-.7-.2-.9-.2-1-.8-.2-.6-.5-2.8-.9-4.8-.3-1.4-.8-2.7-.9-3.1-.2-.8-.7-2-1-3.5-.2-.8-.3-1.7-.3-2.6.2.3.5.4.8.5.4.1.8 0 1.2-.1.6-.2 1-.7 1.1-1.5.1-.4 0-1-.1-1.6 0-.2 0-.5.1-.8.1-.3.4-.5.9-1.1 1.5-1.8.9-.5.8-.4-.1.1-.4.8-.7 1.5-.2.6-.4 1.1-.5 1.4-.1.4 0 .7.4 0 .2-.4.5-1.4.9-2.2.6-1.1 1.2-2.1 1.6-2.5.9-1 .6-.1.4.3-.3.4-.7 1.2-1.1 2.1-.5 1-.9 2.1-1 2.4-.2.6.2.9.5-.2.1-.5.6-1.6 1.2-2.6.8-1.4 1.7-2.8 2.1-3 .6-.4.6.2.4.4-.1.1-1 1.4-1.7 2.6-.5 1-1 2-1 2.2-.1.6.3.7.5 0 .1-.3.9-2.1 1.5-3.1.3-.5.7-1.1 1.1-1.6.3-.4.7-.5 1-.7.7-.3.5.4.2.7zM41.3 80.6l2.3 3.5h-2.8c.3-2.3.5-3.5.5-3.5zm-.7 4h2.8c-.2.9-.5 1.9-.8 2.9h-2.7c.4-1 .6-2 .7-2.9zm-.8 3.4h2.7c-.1.3-.2.7-.3 1-.2.5-.4 1.1-.5 1.6H39c.3-.9.6-1.8.8-2.6zm-1 3h2.8c-.3.9-.6 1.7-.9 2.4 0 .1 0 .1-.1.2h-2.8c.2-.5.6-1.5 1-2.6zm-1.2 3.2 2.7.1c-.6 1.3-1 2.1-1.1 2.1h-2.7c.2-.5.6-1.1 1.1-2.2zm-3.6 6.3 2.2-3.6h2.6l-1.9 3.6H34zm14.4-3.9c-1.8 2-2.4 3.8-2.5 3.9h-8.4l1.8-3.6h5c.1-.1.9-1.3 1.8-2.4.8-1 1.8-1.9 2.5-2.5 1.3-1.1 2.5-1.9 3.5-2.4.8-.4 1.3-.6 1.6-.7.1 1.2.3 2.4.5 3.5-2.6 1.2-4.5 2.7-5.8 4.2zm5.5-9.7c-.1-2-.3-3.4-.3-5.9 0-5 .2-8.5.3-9.3h.8c-.3 3-.3 5.1-.3 7.6 0 2.7.2 5.3.4 7.8.4 4.6 1.8 8.9 2.4 10.7.1.2-.1.5-.5.6-.4.1-.7-.2-.7-.4-1.1-3.2-1.8-6.9-2.1-11.1zm.3 8.1c.3-.1.5 0 .6 0 .3 1.1.5 2.1.9 3.1 0 .1-.1.3-.5.4-.5.1-.6-.1-.6-.1l-.8-2.9c0-.1 0-.4.4-.5zm-1.3.6c.3-.1.5 0 .5 0l.8 2.8s.1.4-.2.5c-.4.1-.5-.2-.5-.2l-.9-2.7s0-.3.3-.4zm-3.6 3c.9-1.2 2.9-2.5 2.9-2.5l1.1 3.2s-1.1.8-2.2 1.8c-.7.6-1.4 1.4-1.9 2.1-.5-.4-.9-.6-1.2-.7-.2-.1-.4-.1-.7-.1.2-1 .9-2.4 2-3.8zm-2.5 4.4c.3-.1.7-.2 1-.1.6.2 1.1.7 1.1 1 .5 1.3.1 2.1-.4 2.6-.5.4-1.1.4-1.4.3-.4-.2-.7-.6-.8-1-.1-.3-.1-.7.1-1.1.2-.4.5-.7 1-.7.7 0 .8.7.8 1 .1.7-.9 1.1-1.2.3-.2-.6-.7-.2-.4.3.1.3.4 1 1.3.7.5-.1.7-.6.8-1.1 0-.6-.3-1.3-.8-1.5-.3-.1-.8-.2-1.2 0-.5.3-.9.9-1 1.6-.1.6 0 1.3.1 2.1.3 1.8.9 3.7 1 3.9.1.3.7 2.1 1.1 4 .6 2.4 1.1 5 1.1 5.3 0 .6-.6.6-.7-.1 0 0-.4-1.7-.8-3.6-.4-1.9-.9-3.9-1.1-4.6-.2-.7-.6-2.1-.9-3.6-.3-1.5-.5-3.1-.3-3.8.4-.9 1-1.7 1.6-1.9zm-1.1-.1c.1.1 0 .4-.3.7-.5.5-.6 1.5-.6 2.5 0 2.1.7 4.5.8 4.9 0 .2.6 1.8 1.1 3.6.6 2.5 1.2 5.4 1.3 5.7.1.5-.4.5-.6 0 0 0-.6-2.9-1.4-5.8-.6-2.5-1.4-5.1-1.6-5.7-.4-1.8-.4-3-.3-3.9.2-1 .6-1.5.9-1.8.4-.3.6-.3.7-.2zm-1.8.1c.5-.5.6-.1.4.4-.5.8-.6 1.7-.6 2.7 0 2 .8 4.1.9 4.4 0 .2.4 1.7.9 3.3.6 2.4 1.4 5.3 1.4 5.7 0 .7 0 .7-.3.7-.2 0-.2-.2-.4-.7 0 0-.8-3-1.5-5.9-.6-2.3-1.1-4.5-1.3-4.8-.7-2.3-.5-3.7-.2-4.7.2-.6.5-.9.7-1.1zm-.8-.2c.1.1.1.3-.2.9-.4.8-.5 1.8-.4 2.7.1 1.8.8 3.4.8 3.6.1.7.7 2.1 1.2 4.2.6 2.4 1.1 4.9 1.2 5.1.2.5-.5.3-.7-.4 0 0-.8-3-1.5-5.9-.7-2.5-1.3-5-1.3-5.3-.2-1.1-.3-1.9-.2-2.6.1-1.1.5-1.7.7-2 .1-.2.3-.3.4-.3zm-2.2 1c.3-.6.5-.9.8-.9.3 0 .2.4.1.5-.4.9-.5 1.8-.4 2.6.1 1.4.5 2.6.6 2.8.1.2.5 1.9 1 3.8.7 2.6 1.4 5.5 1.5 5.8.1.6 0 .6-.3.5-.2-.1-.4 0-.5-.6 0 0-1.9-7.9-2.2-8.6-.1-.5-.7-2.5-.8-4.1-.1-.7.1-1.5.2-1.8zm-.4-.2c-.2.5-.3 1.1-.3 1.7 0 1 .1 1.9.2 2.2 0 .2.5 1.9 1 3.9.8 3 1.7 6.6 1.8 7 .1.5-.7.3-.8-.4 0 0-.7-2.9-1.4-5.7-.3-1.1-.6-2-.9-2.8-.3-1.2-.5-2.2-.7-2.9-.1-.3-.1-1.3.1-2.2.1-.6.4-1 .5-1.3.6-.6.7-.1.5.5zm-1-.1c-.4.7-.4 1.2-.4 1.9 0 1 .1 1.9.3 2.4.1.4.8 2.7 1.5 5.1.6 2.4 1.2 4.8 1.2 5.1 0 .6-.6.4-.7-.1 0 0-.8-3-1.4-5.3-.3-1-.5-1.9-.7-2.3-.5-1.6-.9-3-.9-4.1 0-1.7.5-2.8.7-3 .2-.5.7-.5.4.3zm-1.3.1c-.4 1.1-.5 2.2-.3 3.3.2 1.6.8 3 .9 3.5.1.3.5 1.4.8 2.5.6 2.1 1.1 4.6 1.1 4.8 0 .3-.3.4-.5-.1 0 0-.4-1.8-1.1-3.9-.4-1.3-.9-2.7-1.3-3.9-.4-1.5-.6-2.7-.7-2.9-.2-.8-.2-1.5-.1-2.2.1-1 .5-1.7.7-1.9.6-.3.8 0 .5.8zm-1-.1c-.3.5-.5 1.2-.5 1.9-.1 1.3.3 2.7.4 3 .1.2.7 2.4 1.4 4.6.6 2.1 1.2 4.3 1.3 4.5.1.6-.5.5-.7 0 0 0-1.3-4.1-2.1-7.2-.4-1.3-.7-2.6-.8-3.1-.2-.8-.3-1.8-.2-2.6.1-.7.5-1.1.7-1.4.4-.7.8-.3.5.3zm-2.1.4c.1-.4.3-.5.4-.7.3-.6.7-.1.3.5-.2.3-.3.9-.3 1.3-.1.5 0 .8 0 1.2.1 1.3.6 2.4.6 2.6 0 .2.6 1.8 1.2 3.7.7 2.1 1.3 4.4 1.4 4.9.2.8-.6.7-.6.2 0 0-.9-3-1.7-5.7-.6-1.9-1.1-3.7-1.2-4-.4-1.6-.4-3.2-.1-4zm-.3-.4c-.4.9-.4 1.7-.4 2.5.1 1.5.6 2.6.7 3 .1.3.8 2.5 1.4 4.5.6 2 1.2 3.9 1.2 4.1 0 .6-.6.5-.7.1 0 0-1.2-4.3-2-7.4-.4-1.3-.7-2.3-.8-2.8-.2-1.1-.4-2-.3-2.7.1-1.1.6-1.7.7-1.9.2-.2.4 0 .2.6zm7.5-25.8-.8-1.3.9-1.3.8 1.3-.9 1.3zm.1-3.4-.9-1.1.8-1.5 1 1.4-.9 1.2zm0-3.5-1.2-1.1.8-1.7 1.1 1.3-.7 1.5zm.2-5.2-.8 1.6-1.3-1.3.8-1.7 1.3 1.4zm-1.5-2.2-1.4-1.2.7-1.9 1.4 1.1-.7 2zm-.5-6.1-.5 2.3-1.8-1.2.5-2.2 1.8 1.1zm-3.7-5.2 2 1.2-.3 2.2-2.1-1.1.4-2.3zm-.9-1.6.3.7-.8-.2.5-.5zM32.4 60c.2.3.4.5.6-.1.1-.5.2-.8.6-.8.3 0 .1 1-.3 1.7-.4.8-.7.6-.8.3-1-1.6-.4-1.4-.1-1.1zm1 2.1c0 .2-.1.3-.3.3-.2 0-.3-.1-.3-.3 0-.2.1-.3.3-.3.2 0 .3.1.3.3zm-2.3 2.7s-.3-1-.7-1.4c-.4-.4-.1-.5.1-.5.3 0 .8 0 1.5-.4.4-.2.5.1.4.7-.1.6-.4 1.4-.5 1.7-.2.7-.8.5-.8-.1zm.8 1.5c0 .2-.1.3-.3.3-.2 0-.3-.1-.3-.3 0-.2.1-.3.3-.3.2 0 .3.2.3.3zm-2.5 2.4s-.5-1.6-.8-1.9c-.3-.3 0-.4.3-.3.9.3 1.5-.1 1.7-.1.5-.1.4.5.1 1.1-.2.5-.4.9-.6 1.2-.3.7-.7.4-.7 0zm.6 1.4c0 .2-.1.3-.3.3-.2 0-.3-.1-.3-.3 0-.2.1-.3.3-.3.2 0 .3.1.3.3zm-2.7 2s-.4-1.5-.5-1.9c-.2-.4.1-.4.3-.3.4.2.7.2 1.5.1.4 0 .4.4.2.9s-.5 1-.8 1.3c-.6.6-.6.2-.7-.1zm.5 1.3c0 .2-.1.3-.3.3-.2 0-.3-.1-.3-.3 0-.2.1-.3.3-.3.2 0 .3.1.3.3zm-2.9 1.8s-.2-1.5-.5-2c-.2-.5 0-.5.4-.3.6.3.7.3 1.6.3.2 0 .3 0 .3.1.1.4-.7 1.5-1.1 1.9-.4.6-.7.4-.7 0zm.2 1.5c0 .2-.1.3-.3.3-.2 0-.3-.1-.3-.3 0-.2.1-.3.3-.3.2 0 .3.1.3.3zm-5.5 2c-.4-.4.2-.3.2-.3.1 0 .5.3 1 .6.2.1.3.4.1.7-.2.3-.8.7-1 1-.4.5-.3-.3-.3-.4 0 0 0-.1.3-.4.6-.7.1-.8-.3-1.2zm1.3-.3c-.7-.3-1.5-.9-1.2-1.1.1-.1 1-.8 1.7-1.4.7-.6.4 1.4.4 1.9 0 .7-.5.8-.9.6zm1 .6c.2 0 .3.1.3.3 0 .2-.1.3-.3.3-.2 0-.3-.1-.3-.3.1-.1.2-.3.3-.3zm.2-1s.1-1.3.1-1.8.2-.6.4-.3.8.4 1.4.5c.6.1-.4 1.4-1.2 1.9-.7.3-.7 0-.7-.3zm1.2-2.2-.9-.6c-.2-.3.7-1.2 1.1-1.6.4-.4.5 0 .6.2.1.3.3.9.4 1.6.1.7-.8.6-1.2.4zm2.9-3.1c-1 0-1.7-.3-1.3-.8.2-.2.9-.9 1-1.4.2-.5.5 0 .5 0s.3.9.5 1.7c.1.7-.5.5-.7.5zm.8-4c.2-.2.6-.7.8-1.3.1-.2.4-.4.5-.2.3.3.6 1.2.6 1.5.2.6-.1.8-.4.8 0 0-.4 0-1-.1-.6-.2-.7-.5-.5-.7zm1.8-3.1c.2-.5.5-1 .8-1.7.1-.3.3-.4.6-.2.3.3.6 1.1.7 1.5.2.6-.4.9-.7.9-.8.1-1.7.1-1.4-.5zm2-5.1c.2-.5.5-.4.7-.4.1 0 .3.4.6 1s0 .9-.2.9c-2 .7-1.5-.3-1.5-.3s.2-.7.4-1.2zm-2.6.8c-.3 1.1-.5 1.8-1 2.9-.7 1.6-1.6 3.1-2.5 4.4-1.6 2.4-3.2 4.3-5.5 6v-2.7l.9-.8c.9-.8 1.8-1.7 2.9-3.2 1.4-1.9 2.3-3.8 2.7-5.5.1.2 2-.8 2.5-1.1zm-8.9 4.8c.1-.1 2.8-1.5 5.9-3.1-.4 1.3-1.3 3-2.6 4.8-1 1.4-1.9 2.3-2.8 3.1l-.5.5v-5.3zm0 9.2c.9-.5 3.6-3 5.8-6.3 1.8-2.6 3-5.3 3.7-7.9.5-.3 1-.5 1.5-.8-1.7 5.1-5 11.9-11 16.6v-1.6zm0 6.8c.3-.2 1.2-.8 2.4-1.7 1.4-1.1 3.6-3 5.6-5.5 1.7-2.1 3.3-4.7 4.7-7.5 1.2-2.5 2.2-5 2.8-7.4.3.5.5 1.1.7 1.7l.1-.3c-.1.5-.7 2.6-1.9 5.3-1 2.5-2.8 6.1-5.1 9.2-1.5 2-3.6 4.1-6.1 6-1.4 1-2.5 1.8-3.1 2.2h-.1v-2zm5.9-1.8c1.5-1.3 2.7-2.7 3.8-4.1.2-.3.5-.7.7-1l7.5 11.5c-.8 2.7-2 5.2-3.1 7.3l-8.9-13.7zm8.6 14.2c-.3.5-.5 1-.8 1.4-.3.6-.7 1.1-1 1.6l-9.7-14.8c.1-.1.3-.2.4-.3.7-.6 1.4-1.1 2.1-1.7l9 13.8zm3.1-12.9c-.3 1.5-.5.6-.8.3 0 0-1.5-2.4-2.9-4.5-.7-1.1-1.4-2.1-1.9-2.8.8-1.1 1.6-2.6 2.3-4 .9-1.8 1.6-3.4 1.8-3.8.2-.3.3-1 .7.1.7 2 1 4.1 1.2 6.2.2 4-.2 7.5-.4 8.5zM19.7 131v-1.4l3.8-4.8v-27l.8 1 .1 26.8-4.7 5.4zm-.1-21.9V93.2l3.4 4-.1 27.5-3.2 4.1-.1-19.7zm8.5 14.4c-.4-.2-.5-.7-.3-1.1.1-.2.3-.3.4-.3.2 0 .3.4.3.8.2.6-.3.7-.4.6zm.7-3.5c.2.1.3.3.5.7.1.3.1.4-.1.5-.2.2-.6.2-.6.2-.3 0-.3-.1-.3-.3.1-.4.2-.6.2-.9 0-.2.2-.3.3-.2zm-.2-1.1v-1c0-.4.4-.1.8.2.1.1.3.3.2.5-.1.2-.5.4-.6.5-.4.2-.4-.2-.4-.2zm.1 3c.1-.2.3-.2.5-.3.1 0 .3-.1.4 0 .1.2-.1.8-.3 1.1-.2.5-.3 0-.4-.1-.2-.3-.2-.5-.2-.7zm.6-1.9c-.1-.1-.1-.2 0-.4s.3-.3.6-.6c.1-.1.2-.1.3 0 .1.3 0 1 0 1.2 0 .3-.3.2-.4.1-.1.1-.4-.2-.5-.3zm.4-2.2-.4-.4c-.2-.2 0-.4.4-.8.3-.3.4.5.4.9 0 .5-.2.4-.4.3zm-.6-2.7c-.3-.1-.4-.2-.4-.4 0-.1.1-.3.2-.5.1-.1.1-.2.2-.2.2 0 .4.4.5.7 0 .4-.2.5-.5.4zm.1.5c.2.1.3.3.2.5-.1.3-.4.6-.5.7-.4.4-.5-.1-.5-.1l-.2-1c0-.1-.1-.3 0-.3.1-.2.7 0 1 .2zm0-5.3c.1 0 .3.2.6.6.1.2.8 1.2 1.3 2.2.7 1.4 1.2 3.3 1.1 5.2 0 1.9-.3 3.8-.9 5.3-.6 1.6-1.6 2.9-1.8 3.1-.4.5-.5.2-.5-.1v-.6c.3-.5 1-1.3 1.6-2.6.6-1.3 1.1-2.9 1.1-4.8 0-3.8-2.6-7.3-2.6-7.6-.1-.3 0-.7.1-.7zm-.6 1.7c.1-.1.2-.5.7.2.3.4.7 1 1 1.8.5 1.3.9 2.9.9 4.6 0 1.6-.3 3.1-.8 4.3-.5 1.2-1.1 2-1.2 2.1-.4.6-.7.1-.4-.3.1-.2.8-1.2 1.3-2.5.4-1.1.5-2.4.5-3.7 0-1.5-.4-3-.8-4.1-.4-1.1-.9-1.7-.9-1.8-.4-.3-.4-.5-.3-.6zm-1 2c.1-.2.4-.4.7-.5.2 0 .2 0 .2.2s-.1.6-.3.8c-.1.2-.3.2-.5 0-.1-.2-.1-.4-.1-.5zm-1 1.2c.4-.3.4-.3.6-.4.1 0 .3.1.4.3.5 1 .7 2.4.7 3.6-.1 1.6-.5 2.8-.6 3.1-.2.4-.5.2-.7 0-.2-.2-.5-.2-.3-.8.2-.5.5-1.3.5-2.5 0-.7-.1-1.3-.2-1.7-.2-.6-.4-.9-.4-.9-.3-.3-.3-.6 0-.7zm-1.1.8c.3-.1.5-.1.6.1.2.3.5 1.2.6 1.8.1 1.2-.2 2.5-.4 2.9-.1.2-.3.3-.3.3-.1 0-.3-.1-.4-.1l-.8-.4v-4.3c.2-.2.5-.3.7-.3zm2.8-13.7H28c-.1-.2-7.9-9.3-8.7-10.1v-7.5l.3-.2c.5-.3 1.3-.9 2.3-1.6l9.8 15c-1.6 2.5-3 4-3.4 4.4zm4.5-49.5c1.8 2.9 3.3 6.1 4.5 9.5 1.5 4.4 2.4 9.3 2.4 13.9 0 2.4-.1 4.6-.4 6.6-.4 3.2-1.3 6.2-2.4 8.7-1.1 2.4-2.2 4.4-3.3 6.3-1.6 2.6-2.9 4.3-3.2 4.6h-1.6c.9-.9 2.7-3.3 4.5-6.2 2.2-3.7 5-9.4 5.4-15.5.1-1.1.1-2.2.1-3.3 0-5.4-.8-10.4-2.6-15.2-.1-.2-.1-.4-.2-.6-1.6-4.2-3.7-7.3-4.2-8 .5-.5.8-.7 1-.8zm-4.6-2.9c.4 0 .2.5.2 1s-.5.2-.5.1c0-.2-.1-.5-.2-.6-.1-.2 0-.5.5-.5zm-6.4 5.4c-.5-1.2-.9-2.4-1-2.7-.4-.9.2-.8.4-.7.1.1.4.4.3.9-.1.4-.1.6.1.6s.3.1.3.6c0 .2 0 .5.1.5.2-.2.3-.1.4.1.1.5.4.6.5.4.2-.2.2-.4.1-.6-.1-.1-.5-.8-1-1.6-.4-.8-.8-1.7-.9-2-.1-.2 0-.9.1-1.1.2-.3.5-.1.5 0 0 0 .2.5.4.9s.5.8.4 1.1c-.1.6-.1.7.2.8.1 0 .2.1.3.3.2.3.3.7.3 1 0 .5.4.4.5.2.2-.2.3-.5.1-.7-.1-.1-.5-.5-.6-.9-.1-.2 0-.5 0-.5.2-.2.4-.4-.1-.5-.4-.1-.5-.3-.6-.5-.1-.3 0-.5.1-.6.2-.2.2-.4-.1-.5-.2 0-.3-.1-.4-.2-.2-.1-.3-.4-.4-.7-.1-.3.1-.6.3-.7.3-.1.7.1.8.3.1.2.4.8.7 1.5.4 1 .8 2.2.9 2.6.1.3.3.5.5.2s.3-.5 0-.7c-.3-.2-.5-.7-.3-1.1.2-.5-.1-.3-.3-.5-.2-.2-.4-.3-.7-1.4-.1-.4-.1-.7 0-.8.2-.2.6 0 .8.3.1.2.6 1 1 1.9.5 1 .8 2 .8 2.2 0 .3 0 1-.2.6-.1-.2-.3-.1-.4.3-.1.2-.2.6-.3.7-.2.2-1.2 1.5-1.5 1.9-.3.5.1.5.4.1.4-.6.6-.8.7-.7.2.1 0 .9 0 1.2 0 .6.5.3.5-.3 0-.3.1-1 .2-1.5.2-.5.5-.7.6-.7.3-.1.3-.5.3-.6 0-.2.1-1.4.2-1.9.3-1.1.5-.4.5-.2 0 .3.5.7.6.8.2.2.2.8.2 1.3.1.5.3 1.2.4 1.6L23.3 59c-.2 0-.3-.2-.4-.3.2-.5-.5-1.9-1.1-3.4z"/><path id="XMLID_1242_" class="st4" d="M35 70.8c-.3.7-2 3.7-2 3.7l2.3 3.6c.3.3.7.9.7-.3s.3-4.7-.2-6.4c-.2-.5-.4-1.4-.8-.6z"/><path id="XMLID_1241_" class="st4" d="M23.2 77.3c.3-.3.3-.4 0-.7-.3-.3-.7-.6-.7 0 0 .3.2.7.2.7.1.2.3.1.5 0z"/><path id="XMLID_1240_" class="st4" d="M25.8 74.4c.2-.2.4-.8-.3-.8-.6 0-.6.1-.4.8.1.2.4.3.7 0z"/><path id="XMLID_1239_" class="st4" d="M28 70.4c-.4 0-.9-.1-.5.9.2.4.4.2.6-.1.2-.3.3-.8-.1-.8z"/><path id="XMLID_1238_" class="st4" d="M30.3 67.8c.1-.4.3-.6-.2-.6s-1-.1-.4.9c0 .2.4.3.6-.3z"/><path id="XMLID_1237_" class="st4" d="M31.5 63.2c-.4 0-.8.1-.4.8.2.2.6.3.7-.1.2-.5.1-.7-.3-.7z"/><circle id="XMLID_1236_" class="st4" cx="20.9" cy="72" r=".5"/><circle id="XMLID_1235_" class="st4" cx="21.7" cy="71.1" r=".5"/><circle id="XMLID_1234_" class="st4" cx="22.5" cy="70.1" r=".5"/><circle id="XMLID_1233_" class="st4" cx="23.3" cy="69.1" r=".5"/><path id="XMLID_1232_" class="st4" d="M24 68.6c.3 0 .5-.2.5-.5s-.2-.5-.5-.5-.5.2-.5.5c.1.3.3.5.5.5z"/><circle id="XMLID_1231_" class="st4" cx="24.7" cy="67.1" r=".5"/><path id="XMLID_1230_" class="st4" d="M25.4 66.4c.3 0 .5-.2.5-.5s-.2-.5-.5-.5-.5.2-.5.5.2.5.5.5z"/><circle id="XMLID_1229_" class="st4" cx="25.9" cy="64.8" r=".5"/><circle id="XMLID_1228_" class="st4" cx="26.4" cy="63.6" r=".5"/><circle id="XMLID_1227_" class="st4" cx="26.9" cy="62.4" r=".5"/><circle id="XMLID_1226_" class="st4" cx="19.9" cy="72.8" r=".5"/><path id="XMLID_1225_" class="st4" d="M23.8 55.3c.1-.1 1.5-1.6 1.8-1.9.2-.2.2-.6-.2-.5-.4.1-1.8 2.2-1.9 2.2 0 .1-.2.8.3.2z"/></g><g id="XMLID_516_"><path id="XMLID_540_" class="st5" d="m42.6 100.2 1-1.5-1.1-1.4-1 1.3z"/><path id="XMLID_539_" class="st5" d="m39.9 100.1 1.1-1.4-.9-1.4-1.1 1.3z"/><path id="XMLID_538_" class="st5" d="m45.6 100.1.2-2.1-1.3-.9-.3 1.9z"/><path id="XMLID_537_" class="st5" d="m53.2 92.3.5-1.5-1.3-.9-.4 1.6z"/><path id="XMLID_536_" class="st5" d="m49.3 95.1.3-1.8-1.3-.4-.2 1.7z"/><path id="XMLID_535_" class="st5" d="m51.4 93.4.2-1.9-1.3-.4-.2 1.8z"/><path id="XMLID_534_" class="st5" d="m47.7 97-.1-1.8-1.4-.2-.1 1.9z"/><path id="XMLID_533_" class="st5" d="m36.7 99.9 1-2.1h-1.3l-1.2 2.1z"/><path id="XMLID_532_" class="st5" d="m38.1 96.3 1.3-.9-.8-1.1-1.2.9z"/><path id="XMLID_531_" class="st5" d="m39.5 93.6 1.2-1.1-.9-1.3-1.2 1.1z"/><path id="XMLID_530_" class="st5" d="m41.5 87.3 1.3-1.1-1-1.2-1.3 1z"/><path id="XMLID_529_" class="st5" d="m40.6 90.4 1.3-1.2-.9-1-1.3.9z"/><path id="XMLID_526_" class="st5" d="M29.8 85.3c2.4 3.7 5 7.7 5 7.7s.6-1.1 1.2-2.4c.4-.8.7-1.8.9-2.5-.4-.5-2.4-3.5-4.2-6.4-1.9-2.9-3.7-5.8-3.7-5.8s-.9 1-1.7 2c-.7.7-1.3 1.4-1.4 1.4.4.5 2.1 3.2 3.9 6zm-2.5-6.8c.1-.3.3-.4.4-.5.3-.4.4-.3.4-.2 0 .1 0 .4.1.7.1.4.2.9.4 1 .3.2.6.2.8-.1.1-.2.1-.5 0-.8-.2-.3.1-.5.5-.3.3.2.5.4.5 1.1 0 .5-.8.8-1 .8-.2 0-.3.1-.2.2.1.1.5.3.8.3.2 0 1.4.2 2.1.8 1 .9 1.6 2.3 1.7 2.6 0 .1.2.6.3 1.2.2 1 .3 2.4.5 2.8.1.3.3.4.5.4.3 0 .7-.3.7-.8 0-.2.3-.6.6-.1.2.3.2.6.2.9-.1.4-.5.7-.8.7-.5 0-.1.5.2.5.4 0 .2.4 0 .7-.2.4-.4.3-.6.2-.2-.1-.6-.4-1.1-.9-.2-.2-.4-.6-.6-.9-.2-.4-.3-1.1-.4-1.7-.1-.7-.1-1.3-.1-1.4 0-.6-.2-1.3-.4-.5-.1.4-.8.9-1.4.6-.4-.2-.8-.9-.8-1.3 0-.7.5-.6.5-.4 0 .1.2.5.4.7.3.2.8.1 1-.3.1-.4.1-1-.3-1.5-.5-.5-1.6-1-2.3-1.2-.8-.2-1.4-.8-1.8-1.7-.7-.5-.9-1.5-.8-1.6z"/><path id="XMLID_525_" class="st5" d="M28.3 102.6s.9-1 1.5-1.8l1.5-2-10.1-15.7-2.1 1.5v7.8l8.9 10.2h.3z"/><path id="XMLID_518_" class="st5" d="M33.4 128.3c.2.1.6.2.8.1.6-.1 1.3-.7 1.2-1.8.7.2 1.1-.1 1.3-.5.3-.5.1-1.2-.3-1.5-.2-.2-.3-.2-.1-.4.1-.1.5-.4.9-.5.7 0 1.2.3 1.4.4.4.2.3.4-.1.3-.5-.1-.8.3-1 .8-.1.6 0 1.3.7 1.8-.6 1.4 0 2.3.7 2.5.7.1 1.6-.5 1.3-2 .7 0 1-.1 1.2-.4.5-.6.1-1.8-.8-2-.3-.1-.2-.3-.1-.4.1-.1.6-.2 1-.2.6 0 1.1.2 1.3.3.3.2.9.6.4.8-.5.1-.9.6-.9 1.2 0 .5.2 1.1.8 1.4-.8 1-.5 2.1.1 2.5.8.5 2 .2 2-1.7.8 0 1.2-.4 1.3-.9.1-.6-.2-1.4-.6-1.5-.3-.1-.2-.3 0-.4.1-.1.6-.2 1-.1.5.1.9.3 1.2.5.5.3 1 .8.3.8-.5 0-.9.6-.9 1.1 0 .4.2.9.9 1.3-.7 1.1-.2 1.9.4 2.1.8.3 1.8 0 1.8-1.7.4.2.9 0 1.1-.4.4-.5.4-1.4-.5-1.8-.4-.2-.2-.3 0-.5s.7-.4 1.3-.3c.7 0 1.4.5 1.4.5.4.2 1.1.7.3.6-.6-.1-1.2.7-1.1 1.3.1.6.5 1.1 1.2 1.2-.3 1.2.2 1.9.8 2.1.8.2 1.7-.4 1.4-2.1 1.1-.2 1.3-1.1 1.1-1.8-.2-.5-.6-.8-.9-1-.2-.1-.4 0-.1-.3.1-.1.5-.4 1-.4.6-.1 1.2 0 1.3.1.2.1.5.4.2.5-.5.2-.9 1-.6 1.6.2.4.6.7 1.5.6.1.7.1 1.1.5 1.3.5.3 1.2.1 1.2.1l-2.6-5.8s-2.2.1-5.2-.2c-2.1-.2-4.5-.5-6.5-1.3-3.6-1.5-5.2-2.4-7.1-2.5-2.9-.3-4.5.3-4.5.3l-2.4 6.3zm25.9-1.4c.1.2-.1.1-.5 0-1.2-.3-2.2.2-2.8 1.1-.5.7-.1 1.5 0 1.6.2.4-.1 1-.6.9-.5-.1-.5-.6-.3-.8 0 0 .2-.5.1-1.1-.1-.4-.3-.9-.9-1.3-1.3-.9-2.5-.6-3.2-.3-.9.4-1.3 1.2-.9 1.9.3.5-.3 1-.8.8-.5-.2-.3-.7-.3-.7s.4-.8.2-1.5c-.1-.4-.4-.9-.8-1.3-.3-.3-.6-.5-.9-.7-.3-.2-.8-.1-1.1-.2-.9 0-1.8.6-1.8 2.1 0 .7-.3.9-.8.7-.5-.2-.2-.8.1-1 .2-.1.5-.7.3-1.3-.1-.4-.4-.8-1-1.3-.9-.7-2.2-.9-2.9-.5-.6.3-.8.9-.7 2.1.1.4-.1.9-.7.8-.6-.2-.2-.9-.1-.9.1-.1.4-.6.4-.6.2-1.2-.5-1.7-1.2-1.9-.7-.2-1.5 0-1.6 0-.3.2-.6 0-.4-.2.1-.1.4-.6 1.1-.7.7-.1 1.6.2 2.6 1.3.3-.2 1.5-1 2.9-.6.8.2 1.5.9 2.2 2 .3-.3 1.5-.6 2.7-.3.9.2 1.8.8 2.4 1.9.2-.2 1.2-.8 2.4-.7.9 0 2 .4 3 1.3.1-.1 1-.9 1.5-1 1.2-.3 1.7-.4 2.1 0 .2.1.2.2.3.4zm-18.6-4.4c.8.1.2.6-.8.8 0 0-.4-.2-.8-.6-.5-.5.8-.4 1.6-.2zm5 1.7c.6.3-.4.4-.6.4 0 0-.2-.1-.5-.6-.4-.7.4-.1 1.1.2zm5.1 1.5c.6.2-.5.7-.7.4-.7-.8-.3-.8.7-.4zm5.1.6c.7.1-.4.7-.5.6-.8-.4-.8-.9.5-.6z"/><path id="XMLID_517_" class="st5" d="m18.9 65.2 15-7.9-2.3-3.9-12.7 8.8z"/></g><path id="XMLID_27_" class="st3" d="M80.4 63.9h-3.1v2.2h-2l-.1 3.1h2.2v2.3h3.2v-2.3h1.8l.1-3.2h-2v-2.1h-.1z"/><path class="st5" d="M82.8 66.1c-.1 1.4-.1 2.7-.1 4.2-.1 3.7.2 6.1.2 6.1h-9.7l-2.8-4.3.1-.9h4.4l.2-.1c.2-2.1.2-3.9.3-6.2.1-3.7-.2-6.1-.2-6.1h9.7l2.8 4.3-.1.9H83c-.1.1-.2 1.5-.2 2.1zm-.4.1h-2v-2.1h-2.8v2.2h-2l-.1 2.6h2.2v2.3h2.8V69h1.9v-2.8zm-2.3.3H78v2.1h2.1v-2.1z"/><path class="st4" d="M18.9 135.2H81V16.4H18.4v118.7h.5v.1zm.4-1V17.4H80v116.8H19.3z"/><path id="XMLID_21_" class="st1" d="M33 27.2c-2.6-3.6-3.3-6.6-3.3-6.6s-.7 3-3.4 6.6c-2.6 3.6-5.1 4.6-5.1 4.6s2.4 1 5.1 4.6C29 40 29.7 43 29.7 43s.7-3 3.3-6.6c2.6-3.6 5.1-4.6 5.1-4.6s-2.4-1-5.1-4.6z"/><path id="XMLID_20_" class="st1" d="M66.4 124.4c2.6 3.6 3.3 6.6 3.3 6.6s.7-3 3.4-6.6c2.6-3.6 5.1-4.6 5.1-4.6s-2.4-1-5.1-4.6c-2.6-3.6-3.4-6.6-3.4-6.6s-.7 3-3.3 6.6c-2.6 3.6-5.1 4.6-5.1 4.6s2.4 1 5.1 4.6z"/><path id="XMLID_19_" class="st2" d="M12.7 30.9s1.4 4.5 4.6 6.3c0 0-3.2 1.7-4.6 6.2-1.4-4.6-4.6-6.2-4.6-6.2 3.2-1.9 4.6-6.3 4.6-6.3z"/><path id="XMLID_18_" class="st2" d="M86.7 120.7s-1.4-4.5-4.6-6.3c0 0 3.2-1.7 4.6-6.2 1.4 4.6 4.6 6.2 4.6 6.2-3.2 1.9-4.6 6.3-4.6 6.3z"/><path id="XMLID_17_" class="st1" d="M17.4 25.3v1.8h-4.5v-1.8h1.6l-2.6-5.8-1.5 2.4v3.4h1.4v1.8H7.2v-1.8h1.3V12.4H7.2v-1.7h4.4v1.7h-1.2v5.9l3.7-5.9h-1.2v-1.7h4.5v1.7h-1l-3.2 5.2 3.4 7.7z"/><path id="XMLID_16_" class="st1" d="M82 126.3v-1.8h4.5v1.8h-1.6l2.6 5.8 1.5-2.4v-3.4h-1.4v-1.8h4.7v1.8h-1.4v12.9h1.4v1.7h-4.5v-1.7H89v-5.9l-3.7 5.9h1.2v1.7H82v-1.7h1l3.3-5.2-3.5-7.7z"/></g></g></svg>