<svg xmlns="http://www.w3.org/2000/svg" viewBox="0 0 99.4 151.6" style="enable-background:new 0 0 99.4 151.6" xml:space="preserve"><style>.st1{fill-rule:evenodd;clip-rule:evenodd}.st1,.st2{fill:#e52529}.st3{fill:#ffdd09}.st4{fill:#111a16}.st5{fill:#dc3538}</style><g id="Calque_2"><path id="XMLID_15_" d="M99.3 5.3v140.9c0 2.9-2.3 5.2-5.2 5.2H5.3c-2.9 0-5.2-2.3-5.2-5.2V5.3C.1 2.4 2.4.1 5.3.1H94c2.9 0 5.3 2.4 5.3 5.2z" style="fill:#fff;stroke:#000;stroke-width:.25;stroke-miterlimit:2.6131"/></g><g id="Calque_1"><path class="st1" d="M552.8 134.6c-3.2-4.4-4.1-8-4.1-8s-.9 3.7-4.1 8c-3.2 4.4-6.2 5.6-6.2 5.6s3 1.2 6.2 5.6c3.2 4.4 4.1 8 4.1 8s.9-3.7 4.1-8c3.2-4.4 6.2-5.6 6.2-5.6s-2.9-1.3-6.2-5.6zM510.8 134.6c-3.2-4.4-4.1-8-4.1-8s-.9 3.7-4.1 8c-3.2 4.4-6.2 5.6-6.2 5.6s3 1.2 6.2 5.6c3.2 4.4 4.1 8 4.1 8s.9-3.7 4.1-8c3.2-4.4 6.2-5.6 6.2-5.6s-3-1.3-6.2-5.6zM531.8 177.1c-3.2-4.4-4.1-8-4.1-8s-.9 3.7-4.1 8c-3.2 4.4-6.2 5.6-6.2 5.6s3 1.2 6.2 5.6c3.2 4.4 4.1 8 4.1 8s.9-3.7 4.1-8c3.2-4.4 6.2-5.6 6.2-5.6s-3-1.2-6.2-5.6zM552.8 219.7c-3.2-4.4-4.1-8-4.1-8s-.9 3.7-4.1 8c-3.2 4.4-6.2 5.6-6.2 5.6s3 1.2 6.2 5.6c3.2 4.4 4.1 8 4.1 8s.9-3.7 4.1-8c3.2-4.4 6.2-5.6 6.2-5.6s-2.9-1.3-6.2-5.6zM510.8 219.7c-3.2-4.4-4.1-8-4.1-8s-.9 3.7-4.1 8c-3.2 4.4-6.2 5.6-6.2 5.6s3 1.2 6.2 5.6c3.2 4.4 4.1 8 4.1 8s.9-3.7 4.1-8c3.2-4.4 6.2-5.6 6.2-5.6s-3-1.3-6.2-5.6z"/><path class="st2" d="M486.7 117.5h7.8v1.8h-6l-.2 3s2.8-1.6 5.5.7c.5.4 2.9 2.9 1.4 7.8-.3 1-2 3.6-5.6 3.1-.2 0-2.9-.7-3.9-3.7l1.7-.4s1.3 2.7 3.1 2.5c.9-.1 3.3-.7 3.2-4.6 0-.3 0-3.7-2.9-4.2-1-.2-2.2 0-3.9 1.7l-.8-.5.6-7.2zM568.8 247.8h-7.9V246h6l.2-3s-2.8 1.6-5.5-.7c-.5-.4-2.9-2.9-1.4-7.8.3-1 2-3.6 5.6-3.1.2 0 2.9.7 3.9 3.7l-1.7.4s-1.3-2.7-3.1-2.5c-.9.1-3.3.7-3.2 4.6 0 .3 0 3.7 2.9 4.2 1 .2 2.2 0 3.9-1.7l.8.5-.5 7.2zM490.8 137.7s1.4 4.5 4.7 6.3c0 0-3.2 1.7-4.7 6.2-1.5-4.6-4.7-6.2-4.7-6.2 3.3-1.8 4.7-6.3 4.7-6.3zM564.7 227.6s-1.4-4.5-4.7-6.3c0 0 3.2-1.7 4.7-6.2 1.5 4.6 4.7 6.2 4.7 6.2-3.3 1.8-4.7 6.3-4.7 6.3z"/><path class="st1" d="M552.8 134.6c-3.2-4.4-4.1-8-4.1-8s-.9 3.7-4.1 8c-3.2 4.4-6.2 5.6-6.2 5.6s3 1.2 6.2 5.6c3.2 4.4 4.1 8 4.1 8s.9-3.7 4.1-8c3.2-4.4 6.2-5.6 6.2-5.6s-2.9-1.3-6.2-5.6zM510.8 134.6c-3.2-4.4-4.1-8-4.1-8s-.9 3.7-4.1 8c-3.2 4.4-6.2 5.6-6.2 5.6s3 1.2 6.2 5.6c3.2 4.4 4.1 8 4.1 8s.9-3.7 4.1-8c3.2-4.4 6.2-5.6 6.2-5.6s-3-1.3-6.2-5.6zM531.8 177.1c-3.2-4.4-4.1-8-4.1-8s-.9 3.7-4.1 8c-3.2 4.4-6.2 5.6-6.2 5.6s3 1.2 6.2 5.6c3.2 4.4 4.1 8 4.1 8s.9-3.7 4.1-8c3.2-4.4 6.2-5.6 6.2-5.6s-3-1.2-6.2-5.6zM552.8 219.7c-3.2-4.4-4.1-8-4.1-8s-.9 3.7-4.1 8c-3.2 4.4-6.2 5.6-6.2 5.6s3 1.2 6.2 5.6c3.2 4.4 4.1 8 4.1 8s.9-3.7 4.1-8c3.2-4.4 6.2-5.6 6.2-5.6s-2.9-1.3-6.2-5.6zM510.8 219.7c-3.2-4.4-4.1-8-4.1-8s-.9 3.7-4.1 8c-3.2 4.4-6.2 5.6-6.2 5.6s3 1.2 6.2 5.6c3.2 4.4 4.1 8 4.1 8s.9-3.7 4.1-8c3.2-4.4 6.2-5.6 6.2-5.6s-3-1.3-6.2-5.6z"/><path class="st2" d="M486.7 117.5h7.8v1.8h-6l-.2 3s2.8-1.6 5.5.7c.5.4 2.9 2.9 1.4 7.8-.3 1-2 3.6-5.6 3.1-.2 0-2.9-.7-3.9-3.7l1.7-.4s1.3 2.7 3.1 2.5c.9-.1 3.3-.7 3.2-4.6 0-.3 0-3.7-2.9-4.2-1-.2-2.2 0-3.9 1.7l-.8-.5.6-7.2zM568.8 247.8h-7.9V246h6l.2-3s-2.8 1.6-5.5-.7c-.5-.4-2.9-2.9-1.4-7.8.3-1 2-3.6 5.6-3.1.2 0 2.9.7 3.9 3.7l-1.7.4s-1.3-2.7-3.1-2.5c-.9.1-3.3.7-3.2 4.6 0 .3 0 3.7 2.9 4.2 1 .2 2.2 0 3.9-1.7l.8.5-.5 7.2zM490.8 137.7s1.4 4.5 4.7 6.3c0 0-3.2 1.7-4.7 6.2-1.5-4.6-4.7-6.2-4.7-6.2 3.3-1.8 4.7-6.3 4.7-6.3zM564.7 227.6s-1.4-4.5-4.7-6.3c0 0 3.2-1.7 4.7-6.2 1.5 4.6 4.7 6.2 4.7 6.2-3.3 1.8-4.7 6.3-4.7 6.3z"/><path class="st1" d="M552.8 134.6c-3.2-4.4-4.1-8-4.1-8s-.9 3.7-4.1 8c-3.2 4.4-6.2 5.6-6.2 5.6s3 1.2 6.2 5.6c3.2 4.4 4.1 8 4.1 8s.9-3.7 4.1-8c3.2-4.4 6.2-5.6 6.2-5.6s-2.9-1.3-6.2-5.6zM510.8 134.6c-3.2-4.4-4.1-8-4.1-8s-.9 3.7-4.1 8c-3.2 4.4-6.2 5.6-6.2 5.6s3 1.2 6.2 5.6c3.2 4.4 4.1 8 4.1 8s.9-3.7 4.1-8c3.2-4.4 6.2-5.6 6.2-5.6s-3-1.3-6.2-5.6zM531.8 177.1c-3.2-4.4-4.1-8-4.1-8s-.9 3.7-4.1 8c-3.2 4.4-6.2 5.6-6.2 5.6s3 1.2 6.2 5.6c3.2 4.4 4.1 8 4.1 8s.9-3.7 4.1-8c3.2-4.4 6.2-5.6 6.2-5.6s-3-1.2-6.2-5.6zM552.8 219.7c-3.2-4.4-4.1-8-4.1-8s-.9 3.7-4.1 8c-3.2 4.4-6.2 5.6-6.2 5.6s3 1.2 6.2 5.6c3.2 4.4 4.1 8 4.1 8s.9-3.7 4.1-8c3.2-4.4 6.2-5.6 6.2-5.6s-2.9-1.3-6.2-5.6zM510.8 219.7c-3.2-4.4-4.1-8-4.1-8s-.9 3.7-4.1 8c-3.2 4.4-6.2 5.6-6.2 5.6s3 1.2 6.2 5.6c3.2 4.4 4.1 8 4.1 8s.9-3.7 4.1-8c3.2-4.4 6.2-5.6 6.2-5.6s-3-1.3-6.2-5.6z"/><path class="st2" d="M486.7 117.5h7.8v1.8h-6l-.2 3s2.8-1.6 5.5.7c.5.4 2.9 2.9 1.4 7.8-.3 1-2 3.6-5.6 3.1-.2 0-2.9-.7-3.9-3.7l1.7-.4s1.3 2.7 3.1 2.5c.9-.1 3.3-.7 3.2-4.6 0-.3 0-3.7-2.9-4.2-1-.2-2.2 0-3.9 1.7l-.8-.5.6-7.2zM568.8 247.8h-7.9V246h6l.2-3s-2.8 1.6-5.5-.7c-.5-.4-2.9-2.9-1.4-7.8.3-1 2-3.6 5.6-3.1.2 0 2.9.7 3.9 3.7l-1.7.4s-1.3-2.7-3.1-2.5c-.9.1-3.3.7-3.2 4.6 0 .3 0 3.7 2.9 4.2 1 .2 2.2 0 3.9-1.7l.8.5-.5 7.2zM490.8 137.7s1.4 4.5 4.7 6.3c0 0-3.2 1.7-4.7 6.2-1.5-4.6-4.7-6.2-4.7-6.2 3.3-1.8 4.7-6.3 4.7-6.3zM564.7 227.6s-1.4-4.5-4.7-6.3c0 0 3.2-1.7 4.7-6.2 1.5 4.6 4.7 6.2 4.7 6.2-3.3 1.8-4.7 6.3-4.7 6.3z"/><path id="XMLID_304_" class="st2" d="M42.7 71.5s5 1 7.6 1.3c2.8.3 6 .4 6 .4s-.2 3.6.5 7c0 0-6.5-1.6-13.5-1.8-.1 0 .2-3.4-.6-6.9z"/><path id="XMLID_303_" class="st3" d="M33.3 58 18.9 73.9v7l10.4 11.7.1-.7c.2-2 1.2-9.1 3.8-15.1 2.5-5.7 6.6-10 7.4-10.8l.1-.1-.1-.2c-2.6-5-6.3-7.3-7-7.8l-.2-.1-.1.2z"/><path id="XMLID_302_" class="st3" d="M27.5 45.2c-.6 0-1.2.6-1.5 1h-.1c-.4-.3-.9-.5-1.5-.4-.7.1-1.3.5-1.5.8-.4.6-.6 1.5-.4 2.4.1.5.4.8.6 1l.2.2c0 .1-.1.3-.1.5l-.2.6c0 .4.2 1.6.7 2.1.6.7 1.9.5 2.3.4l.6-.5.2-.2c.1 0 .2.1.2.1.3.2.6.4 1.1.5.7.1 1.5-.3 1.9-1.1.4-.8.2-2.6-.2-3.1-.3-.3-.1-.6 0-.8.2-.3.4-.8.1-1.9-.4-1-1.5-1.6-2.4-1.6z"/><path id="XMLID_301_" class="st3" d="M20.2 53.9c.1-.2.5-.3.8-.2.4 0 1 .1 1.2.1.3 0 .7.1 1 .2.2.1.4.1.7.2.3.1.7.1.9.3.2.2.5.4.8.7.2.2.4.4.3.6-.1.2-.5.2-.8.2-.3 0-.6.2-.9.2-.3 0-1 .1-1.3 0-.3-.1-.9-.2-1.2-.4-.3-.2-.9-.5-1-.8-.2-.1-.7-.8-.5-1.1z"/><path id="XMLID_300_" class="st3" d="M28.1 55.6c.3-.2.9-.4 1.3-.6.4-.1.9-.3 1.2-.4.3-.2 1.1-.4 1.3-.3.2.1.3.3.3.7 0 .4-.2.7-.5 1-.3.3-.7.8-.9.9-.2.2-.9.5-1.4.6-.4 0-.9-.3-1.2-.4-.3-.1-.6-.4-.8-.5-.3-.1-.1-.6.7-1z"/><path id="XMLID_299_" class="st3" d="M22.2 65.2c.3.1.7.2.8.7.1.5 0 .8 0 1.1 0 .3-.2 1.1-.2 1.3 0 .2-.1.5-.2.7-.1.2-.5.4-.7.4-.3 0-.7 0-.8-.3-.1-.3-.2-.6-.1-1.1 0-.5.3-1.2.3-1.4 0-.2.2-1 .3-1.2 0-.2.4-.2.6-.2z"/><path id="XMLID_298_" class="st3" d="M25.8 59.5c.3-.1.4.1.4.3 0 .2-.1.5 0 .6 0 .2-.1.5-.1.7 0 .2-.3.6-.4.8-.1.1-.3.6-.4.7-.1.1-.4.4-.3-.2.1-.6.3-1 .3-1.3 0-.3.1-.7.3-1 0-.3.1-.6.2-.6z"/><path id="XMLID_297_" class="st3" d="m59.3 17.1 13.5 20.7c1.7-.9 5.6-1.4 5.6-1.4-4-10.7-2.2-19.4-2.2-19.4l-16.9.1z"/><path id="XMLID_296_" class="st3" d="M74.5 52.1c-5.4-3.5-8.8-9.3-8.8-9.3C53.8 49 46 43.9 46 43.9l-8.6 9.5s3.7 2.9 10.7 4.4l-2.9 9.8s1 .6 2.9.9c1.9.3 2.7.1 2.7.1l3.4-10.1h1.9c10 .1 18.4-6.4 18.4-6.4z"/><path id="XMLID_295_" class="st2" d="M80.5 59.3v-9.9l-21-32.3h-3.6z"/><path id="XMLID_294_" class="st2" d="m41.6 59.9 4.1 1.4-1.6 5.8-3.4-1.2-.6-1.2z"/><path id="XMLID_293_" class="st2" d="M59.4 62.5s-.9 1.6-1.6 3.3c-.7 1.8-1 3.2-1 3.2l-4-.1-.1-1.5 1.8-4.8 4.9-.1z"/><ellipse id="XMLID_292_" class="st2" cx="26.4" cy="49.6" rx="1" ry="1.2"/><path id="XMLID_291_" class="st2" d="M36.4 71.2c-1.3 1.9-2.4 3.8-3.2 5.7-2.4 5.6-3.4 12.1-3.7 14.7l-.1.4.4-.2c1.2-.6 5.1-2.9 7.2-9.4 1.5-4.8 0-10.1-.3-11.1l-.1-.5-.2.4z"/><path id="XMLID_290_" class="st2" d="M46.7 34.3s-1.8 2.8-2.7 6c-.9 3.2-.9 5.5-1 6.9l4.8-5.4s-1.1-3.2-1.1-7.5z"/><g id="XMLID_799_"><g id="XMLID_802_"><path id="XMLID_925_" class="st4" d="M60.3 31.2c0-.3-.4-.7-.8-1.1-.4-.4-1-1.1-1.7-1.6-.7-.4-1.7-.4-2.2-.1-.5.2-1.4.8-1.7 1 0 0-.7-.2-.8.1-.1.2.3 1 .4 1.2.2.2 0 .6 0 .9 0 .3.5.9.9 1.3.3.4 1.2 1.4 1.5 1.6.3.2.4 0 .3-.1-.1-.1-.2-.3-.5-.5-.2-.2-.3-.4-.5-.8s.3-.4.5-.3c.3.1.5.1.8 0 .3 0 .7 0 1-.2.3-.2.8-.4 1.2-.5.3-.1.9-.1 1.2-.2.3-.3.4-.4.4-.7zm-5.4.5c-.3-.2-.6-.6-.3-.9.2-.1.3.1.4.2.1.1.3.4.3.5 0 .2-.1.4-.4.2zm2.7-.4c-.1.2-.3.9-.9.9-.7.1-1-.2-1.2-.7-.2-.5 0-.8.1-.8.2-.1.2.1.2.3 0 .2.2.9.5.9s.6-.3.7-.5c.1-.2.1-.5.3-.5.3-.1.3.1.3.4zm1 .2c-.1.1-.3.3-.4.3-.2 0-.3-.1-.3-.4 0-.3.2-.2.3-.3.1 0 .3 0 .4.1.1 0 .1.2 0 .3zm-.7-1.9c-.3-.2-1.2-.3-1.6-.3-.4 0-1.1.2-1.3.3-.2.1-.7 0-.2-.3.5-.4 1-.6 1.6-.6.6 0 1.2.2 1.5.4.3.2.9.6.9.8-.1.1-.6-.1-.9-.3z"/><path id="XMLID_924_" class="st4" d="M54 28.4c.2-.2.3-.3.9-.5.6-.3 1.8-.2 2.7 0 .9.2 2.5 1.2 2.8 1.5.3.3.6.5.7.4.1-.1-.1-.6-.3-.8-.3-.2-.4-.5-1.1-1.1-.7-.6-1.9-1.2-2.7-1.4-.8-.1-1.8-.1-2.6.3-.5.2-.8.5-1.1 1.1-.4.4.2.8.7.5z"/><path id="XMLID_807_" class="st4" d="M56.2 16.8h-.8l1.6 2.8c-1.6-1.2-2.3-2.8-2.3-2.8h-.6c0 .1 1.2 2.6 3.5 3.8l.7 1.3c-3.7-1.9-4.8-5-4.9-5.1h-.6c.1.2 1.5 4 5.9 5.9l.6 1.1c-5.7-1.9-7.3-6.9-7.3-7h-.6c0 .1 1.9 5.8 8.3 7.7l.8 1.4c-4.7-1.4-7.5-4.6-8.7-6.5l-.8-1.5c.2-.6.3-1 .4-1.1h-.5s-1.1 3.5-3.8 6.2v-1.1c2.2-2.3 3.3-4.9 3.3-5.1h-.6s-.8 2.1-2.7 4.3v-1.2c1.5-1.1 1.9-3 1.9-3.1h-.6s-.3 1.4-1.3 2.4v-2.4h-.5s-.3 13.9-.1 18.4c.1 2.1.3 4.4 1.1 6.4L31 60.2c-.3-1.7-1.1-2.4-1.1-2.4s.7-.4 1.5-1.2c.8-.8.9-1.8 1-2.3.1-.4 0-.8-.2-.7-.2 0-.6.2-1 .4-.5.2-1.1.4-1.5.5-.4.1-1.4.4-1.7.7-.3.2-.4.1-.4.1v-.9c0-.2.1-.2.1-.2.7.1 1.5-.2 2-.8.5-.6.7-1.6.7-1.9 0-.6-.2-1.1-.2-1.4 0-.2.4-.5.6-.6.1-.1.1-.3 0-.5-.2-.1-.7-.6-.7-.6s.1-.7-.1-1.4c-.2-.9-.9-1.6-1.5-1.8-.6-.3-1.4-.1-1.6 0-.2.1-.3.1-.4 0-.2-.1-.8-.7-.8-.7-.1 0-.7 1.1-.7 1.1s-.9-.1-1.5.1c-.6.3-1.3 1.1-1.4 2-.1.9.2 1.7.1 2-.1.3-.4.8-.5 1 0 .4.8.6.8.6s0 .6.1 1.1c.1.5.5.9.4 1.1-.1.2-1 .1-1.5.1-.5-.1-1.3-.5-1.6-.5-.3 0-.5.2-.2.8.2.6.5 1.1 1 1.6s1.4.8 1.7.8c.3 0 .3.2 0 .4s-.5.4-.6.8c0 .5-.3.5-.5.9s-.2.7-.2 1.1c0 .4-.1.7-.2.9-.1.2-.3.5-.3.8 0 .3 0 .8.1 2s.5 1.5.6 1.8c.1.3-.1 1-.2 1.5-.1.6-.4 1.4-.4 2.2 0 .8.7 1 1.3.9.5-.1 1-.9 1.1-1.2.1-.3.2-1.2.2-1.6 0-.4 0-.8.2-.8s.3.2.6.5c.2.2.5.4.8.6L18.6 74l-.1.1v18l3.9 6.8 2.6 1.3.1-.1c5.3-4.2 11.4-5.8 11.5-5.8h.2c.1-.1 6.2-5.7 6.8-15.4 0-.7.1-1.3.1-1.9 0-5.2-1.4-9.2-3.1-12.1l2.6-8.5c-2.1-.8-4.7-2.2-5.3-2.7 3.9-4.4 7.5-8.3 9.2-10.3.3.2 1 .5 2 .7.8 1 2 1.6 3.5 1.8 1.8.2 3.4-.4 4.8-1.4 3.4-.3 6.9-1.8 7.8-2.2.8 1.5 1.7 2.9 2.8 4.2 4.7 5.6 7.7 6.7 8.6 6.9l4.3 7.2v-1.7L56.2 16.8zM29.4 55.2c.3-.1.8-.3 1.1-.4.3-.1 1.2-.4 1.3-.3.1.1.2.6 0 1s-1.1 1.2-1.4 1.3c-.3.2-.8.4-1 .4-.3 0-.6-.1-.8-.2-.2-.1-.3-.2.2-.3.5-.2 1-.3 1.3-.4.3-.2.9-.6.8-.8 0-.2-.4-.2-.8 0s-.9.4-1.3.5c-.4.1-.8.4-1 .5-.2.1-.6 0-.4-.3.4-.3 1.1-.7 2-1zM23 51.5c0-.3.4-.9.3-1.2 0-.3-.5-.5-.7-1.3-.2-.8 0-1.7.4-2.2.4-.5 1.6-1.2 2.7-.4.1.1.3.1.5 0 .3-.4.8-.9 1.4-1 .8 0 1.8.5 2.1 1.5.3 1 .1 1.5-.1 1.7-.2.3-.3.7.1 1.1.4.4.5 2.1.2 2.8-.4.7-1.1 1.1-1.7 1-.6-.1-1.2-.6-1.3-.6-.2 0-.6.6-1 .7-.4.2-1.6.2-2-.3-.7-.4-.9-1.5-.9-1.8zm4.3 3v1.4c0 .2-.2.4-.4.4s-.4-.2-.4-.5v-1.1c0-.2 0-.6.3-.7.1 0 .5.2.5.5zm-1.4.8c-.3-.2-.9-.7-.9-.9 0 0 .9-.3 1.1-.4.1-.1.2.2.2.4v.9c-.1.2-.1.2-.4 0zm.2 1.4c0 .2-.4.3-.7.3-.3 0-.9 0-.9-.2-.1-.2.2-.4.6-.4.2-.1 1 0 1 .3zm-3.6-.8c-.5-.1-1-.4-1.5-.8s-.8-1-.6-1.2c.1-.2 1.4 0 1.8 0 .4 0 1.4.4 1.9.5.5.1 1 .7 1.3.9.3.2.4.5 0 .3s-2-.9-2.4-.9c-.4 0-.8.2-.2.4.5.2 1.2.3 1.5.4.3.1.4.4 0 .4-.5 0-1.2.1-1.8 0zm.3 1.2c.3-.2 1.2-.4 1.2-.1 0 .2 0 .3.1.5.1.1 0 .3-.2.2-.2-.1-.6.1-.3.3.3.2.6.5.8.6.2.1.2.1 0 .3-.2.2-.6.4-.5.7.1.3.2.2.4 0 .1-.2.5-.4.8-.4.2 0 .4.3.4.5s-.3.5-.6.5c-.4 0-.8 0-1.3-.5s-.9-1.2-1-1.7c-.2-.4-.1-.7.2-.9zm1.2 4.8c-.3-.2 0-.7.3-1 .2-.2.5 0 .6.2.1.2 0 .6-.1.8-.2.1-.5.3-.8 0zm.4 1.6c-.3.1-.5.2-.7 0-.2-.2.1-.6.3-.7.2-.2.6 0 .7.1 0 .1 0 .4-.3.6zM22 58.8c.1 0 .3.2.5.4.2.3.5.7.7.9.3.2.4.4.6.5.1.1-.2.3-.2.5-.1.2-.1.6-.3.5-.2 0-.5-.2-.9-.6-.3-.4-.8-.9-.8-1.4 0-.4.1-.8.4-.8zm.5 9.9c-.1.2-.5.5-.8.6-.3 0-.4 0-.6-.3-.1-.3.1-.4.5-.6.2-.1.4-.2.6-.2.3.1.3.3.3.5zm.3-1.4c0 .3-.1.5-.4.5-.3 0-.8.2-.8.2-.1 0-.4.1-.4-.3s.3-.8.3-1.2c0-.4.1-1 .7-1 .3 0 .5.2.7.6 0 .4-.1.9-.1 1.2zm-.4-2.3c-.4-.1-.6-.1-.9-.6-.3-.4-.4-.8-.3-1 .1-.3.5-.1.6 0 .1.1.4.5.6.5.2 0 .2.2.3.3 0 .1.1.5.2.7 0 .1-.2.2-.5.1zm.6-1.8c0 .1-.3.3-.5.2-.3-.1-1-.8-1.2-1.1-.2-.3-.3-.7-.2-1 .1-.4.2-.5.4-.5.1 0 .4.3.5.4.1.1.5.7.8.8.3.2.4.3.6.4.2 0 .1.2 0 .4-.2.1-.3.3-.4.4zm.3 1.5c-.2-.2-.2-.4-.2-.4 0-.2.1-.1.4-.1.3 0 .5.4.3.6-.1.1-.3.1-.5-.1zm.5 1.3c-.2-.1-.1-.5 0-.6.2-.1.4-.4.4-.7 0-.3.3-.6.5-.8.2-.2.3-.6.3-1 0-.3.1-.7.2-.9.1-.3.1-.8.3-1.2.1-.5.3-1.1.5-1 .2.1 0 .4-.1 1s.3.4.4.1c.1-.3.2-.6.4-.6.1 0 .2.4.1.9v1.4c.1.5.3.8.4.8.1 0 0-.5-.1-.9-.1-.5 0-.7 0-1.2s.3-1 .3-1.3c0-.3-.4-.5-.7-.6-.3-.1-.3-.3-.5-.5s-.4-.2-.8-.4-.8-.6-.8-.9c.1-.2.5-.1 1-.2.5 0 .7-.3.9-.5.3-.2.9.1.9.1s1.2.5 1.7.9c1 .9 1.3 2 1.3 2.7l-5.5 6.1c-.2-.2-.9-.6-1.1-.7zm6.1 30.4L19 84.6v-3.3l12.5 14.2c-.5.3-1.1.6-1.6.9zM37.6 70c.1-.2.3-.4.4-.5.5 1.4 2.3 6.8.8 13.1-1.6 6.3-7 10.3-8.2 11.1l-.5-.5c1-.6 5.9-3.7 7.8-10 1.9-6.3.1-12.1-.3-13.2zm.8-1.1c.1-.2.3-.3.4-.5.6 1.6 2.5 7.3 1 13.8-1.7 7.2-7.3 11.4-8.4 12.2L31 94c1.4-.9 6.8-5 8.4-11.4 1.7-6.9-.7-12.9-1-13.7zm-1.6 13.5c-2.1 6.5-6.1 8.8-7.1 9.2.3-2.5 1.3-9 3.7-14.6.9-2.1 2-4 3.1-5.6.4 1 1.9 6.3.3 11zm-4.7 12.9-.3-.3c1.3-.9 6.9-5.3 8.6-12.5 1.6-7.1-.7-13.3-1.2-14.5l.4-.4c.6 1.5 2.9 7.2 1.6 13.8-.7 3.3-1.8 6-3.6 8.5-1.4 1.9-3.2 3.8-5.2 5.4-.1-.1-.2 0-.3 0zm8.6-28.9C42 69.1 43 72.6 43 76.9c0 .6 0 1.2-.1 1.9-.6 9.1-6.1 14.6-6.6 15-.2.1-1.1.3-2.3.7 1.5-1.3 2.8-2.7 3.9-4.3 1.8-2.6 3-5.4 3.7-8.7 1.4-7.1-1.2-13.3-1.7-14.4.4-.3.6-.6.8-.7zm-.3-.5c-.8.8-5 5.2-7.5 10.9-2.6 6-3.5 13-3.8 15.2L19 80.4v-6.1c.1-.1 7.2-8.1 14.5-16.1.8.5 4.4 2.8 6.9 7.7zM65 33.4c-.5 1.8-.6 4.4-.6 5.9-.2-.4-.3-.9-.5-1.3 0-.5.2-3.3.8-5l.3.4zm-.6-1c-.6 1.1-.8 2.9-.9 4.2-.2-.6-.3-1.2-.5-1.8l.9-3.2.5.8zm-.8-1.5-.8 2.8c-.1-.5-.2-1-.3-1.4l.6-2.1.5.7zm-.9-1.4-.4 1.4c-.1-1-.2-1.9-.2-2.5l.6 1.1zm-15.6-5.8c1.9-1.7 3.1-3.8 3.7-5.2.1.2.3.5.5.8-1.4 2.9-3.3 4.7-4.2 5.4v-1zm3.1 5.9c-.3-.1-1.1-.4-1.6-.4s-1.2.3-1.3.4c-.1.1-.2 0-.3 0V29.3c.3-.3 1-.5 1.5-.5.4 0 1 .1 1.4.2.4.1.9.5.9.6 0 .3-.3.2-.6 0zm.4 2.1c-.2.1-.4.3-.6.1-.2-.2.1-.5.3-.6.2-.1.4-.1.6 0 .1.2-.1.4-.3.5zm-.9-.2c-.1.2-.4.7-1 .8-.5 0-.9-.2-1-.5-.1-.3-.2-.8.1-.8.1 0 .2.1.2.2s.2.8.7.8c.4 0 .6-.3.6-.6s.2-.5.3-.5c.2 0 .1.4.1.6zm-2.7-.1c0-.1.1-.1 0 0 .3-.2.3.1.4.2.1.1.2.4.1.5-.2.1-.3 0-.4-.2 0-.1 0-.1-.1-.2v-.3zm3.4-2.4c-.4-.2-1.1-.6-1.6-.6s-1 .2-1.2.3c-.2.1-.5 0-.5-.2s.3-.4 1-.6c.4-.1 1-.1 1.3 0 .3.1.8.4 1 .6.1.2.4.6 0 .5zm-3.1 13.8c.2-.3.4-.5.6-.6.2.4.4.7.6 1.1-.6-.2-1-.3-1.2-.5zm5.2 2.4c-4.5-.4-5.3-5.9-5.4-10 0-.7 0-1.6-.1-2.6.1 0 .3.1.4.1.3 0 .7.2 1.1.2.4 0 .8-.1 1.1-.2.3-.1.6-.1.5.1-.2.2-.4.4-.6.8-.3.4.2.5.3.3.1-.1.4-.4.5-.4.2 0 0 .6-.3 1.1-.3.7-.4 1.2-.4 1.6 0 .4.9.9 1.3 1.1.4.3.6.8.8.7.2-.1-.2-.7-.3-.9-.1-.3.3-.5.7-.2.4.3.7.4 1.3.3.6-.1.8-.8.7-1.3-.1-.5-.3-1.1-.6-1.2-.3-.1-.5.4-.2.5.2.1.4.2.5.5.2.3.1.7-.1.9-.2.1-.7.1-1.1-.1-.4-.3-.4-.6-1.1-.7-.7-.1-.5.6-.7.7-.2 0-.4 0-.5-.3-.1-.3-.1-.7 0-1.1.1-.4.5-1.6.8-2.3.2-.8.3-1.2.2-2.7-.1-1.5-1.2-2.9-2.3-3.1-.8-.1-1.8.3-2.1.4v-1.8c.6-.4 2.9-2.2 4.5-5.6 1.6 2 4.6 5.2 9.6 6.5l.5.9c0 1 .2 4.9 1.5 9.4-.1.1-4.5 8.9-10.5 8.4zm5.7-1.5c.2-.1.3-.3.5-.4l.2.3c-.2 0-.5.1-.7.1zm1.3-.2-.4-.5.3-.3.4.8c-.1-.1-.2 0-.3 0zm.9-.2-.5-1.1c.1-.1.2-.3.4-.4l.7 1.3c-.3.1-.5.1-.6.2zm1-.3-.8-1.6c.1-.2.3-.3.4-.5l.9 2c-.2 0-.3 0-.5.1zm1-.4-1-2.3c.1-.2.2-.3.4-.5l1.1 2.6c-.2.1-.4.2-.5.2zm.9-.3-1.2-3c.1-.2.2-.4.3-.5l1.4 3.3c-.1.1-.3.1-.5.2zm1-.4-1.5-3.6c.2-.3.3-.6.4-.8.4 1.4 1 2.8 1.6 4.2-.1 0-.3.1-.5.2zm1.2-.1c-.2-.4-.4-.8-.5-1.1 0-.5-.1-4.1.4-6.6l.6 1c-.6 1.8-.6 4.9-.5 6.7zm1.1 1.8c-.2-.3-.3-.5-.5-.8 0-.6-.4-4.8.2-7.2l.5.9c-.6 2.3-.4 5.4-.2 7.1zm.6 1.1c-.1-.6-.7-4.7 0-7.4l.5.8c-.6 2.3-.1 5.8.3 7.6-.3-.4-.5-.7-.8-1zm1.5 1.8c-.1-.5-1.2-4.9-.7-7.8l.6 1c-.2 3 .6 6.2 1 7.9-.2-.3-.5-.7-.9-1.1zm1.8 2c-.2-.5-1.4-4.3-1.4-7.9l.8 1.4c-.2 2.6.5 5.4.9 6.9 0-.2-.2-.3-.3-.4zm1.2 1.1c-.2-.5-1.3-3.7-1.2-6.8l.9 1.5c.1 2.1.8 4.7 1.2 6-.3-.2-.6-.4-.9-.7zm1.6 1.3c-.2-.5-1.1-3.2-1.4-5.6l.9 1.5c.2 1.5.9 3.5 1.2 4.6-.2-.1-.4-.3-.7-.5zm1.4 1c-.1-.4-.7-2-1.1-3.6l2.5 4.3c-.3-.2-.8-.4-1.4-.7z"/><path id="XMLID_806_" class="st4" d="M80.9 49.9S73.5 38.7 73.1 38c.4-.2.9-.4 1.4-.5l.4-.1c1-.2 2.8-.6 3.4-.6h.5l-.2-.5c0-.1-2.6-6.5-2.6-14 0-1.8.2-3.6.5-5.5h-.8c-.3 1.9-.5 3.6-.5 5.4 0 6.6 1.9 12.3 2.5 13.9-.7.1-1.9.3-3 .6l-.4.1c-.9.2-1.9.7-2 .8l-.4.2 8.3 12.6.7-.5z"/><path id="XMLID_803_" class="st4" d="M25 48.9c.2.1.2.3.2.4v1c0 .3.2.4.1.6-.1.2-.8 1-1 1.4-.2.4.2.6.3.4.2-.3 1.1-1.6 1.3-1.6.2 0 .5.2.8.1.3 0 .5-.3.6-.2.1.1.9.8 1.2 1.1.3.2.4-.1.2-.3-.2-.2-.8-.9-.9-1-.1-.1-.3-.2-.2-.4v-.6c0-.3-.1-.8-.2-1-.1-.1 0-.3.1-.4.1-.1.8-1.1 1-1.4.1-.3-.2-.4-.3-.2-.1.2-.9 1.2-1 1.3-.2.1-.3.2-.5.2-.3-.1-.9 0-1 .1-.1.1-.5.2-.6.1-.1-.1-.6-.5-.8-.7-.2-.2-.5-.4-.6-.3-.1.2 0 .5.2.6.1.2.9.6 1.1.8zm1.4-.2c.4 0 .8.4.8.9s-.4.9-.8.9-.8-.4-.8-.9.3-.9.8-.9z"/></g><path id="XMLID_801_" class="st4" d="M49.8 39c.2-.1.4.1.6 0 .2-.1.6-.5 1.1-.3.5.2.6.1.8 0 .1-.1.7 0 1 .1.3.2.4.1.6.2.2.1.4-.1.6-.2.1-.2.3-.3.4-.1.1.2.1.8.3.9.1.1 0 .6 0 .8-.1.2-.1.2-.4 0-.3-.2-.6-.3-1-.2-.4.1-.6.2-1 .3-.4 0-.6 0-.9-.1-.4-.1-.8-.3-1.2-.1-.5.2-.4.3-.5.5-.1.2-.5.1-.5-.3s.1-.2.2-.6c-.2-.5-.4-.8-.1-.9z"/><path id="XMLID_800_" class="st4" d="M52.1 41.4c.6 0 .9 0 1-.2.1-.1.3-.3.5-.2.2.1 0 .6-.3.7-.2.1-1 .2-1.5.1s-.7-.2-.9-.4c-.2-.2 0-.3.4-.2.3.2.8.2.8.2z"/></g><g id="XMLID_824_"><path id="XMLID_887_" class="st5" d="M72.2 38c.7-.5 1.7-.8 1.7-.8L61.1 17.1h-2.5L72.2 38z"/><path id="XMLID_886_" class="st5" d="M62.9 17.1c-.1-.1.1 2.9 1.4 4.7 1.2 1.6 2.3 2 2.5 2.1.1.4.5 2.7 1.5 4.4 1 1.6 2.9 2.5 3.3 2.6 0 .4.2 2.6 1.6 4.6.4.5.8 1 1.4 1.5l.3-.1c-2.8-2.2-3-6.1-3-6.1v-.1h-.1s-2.2-.9-3.2-2.6c-1.1-1.7-1.5-4.3-1.5-4.3v-.1H67s-1.2-.3-2.4-2-1.4-4.7-1.3-4.5h-.4z"/><path id="XMLID_885_" class="st5" d="M63.8 17s-.7 4.1 3.9 6.5c0 0-.2 5 4.7 6.7 0 0 .2 4.6 3.2 6.5l1.5-.3s-1.7-1-2-2.8c0 0-2.2-.6-2.2-3.2 0-.5.4-.5.4 0s.1 1.5 1.3 1.5c1 0 1.1-1.7.7-2.4 0 0 .7-.7.6-1.6-.2-1-.6-1.5-.9-1.6-.6-.2-1 .2-1.1.3-.1.1-.2.3-.6-.3-.4-.5-1.4-.6-1.8.1-.4.7-.4 1.7.6 2.4.4.3-.1.4-.6.1-.5-.3-1.3-1.5-1.4-2.7 0 0-1.6-.8-1.6-2.8 0-.9.3-.4.3-.1 0 .3.2 1.5 1.2 1.5s1.3-.9 1-2.3c0 0 1.1-.3 1.1-1.9 0-1.7-1.8-2.2-2.7-.7 0 0-.9-1-1.6-.5-.7.5-1 1.9.1 2.8 0 0-2.1-.1-2-3.7 0 0-.6-1-.5-1.6h-1.6z"/><path id="XMLID_850_" class="st5" d="M60.5 57.9c3-.5 6.2-1.5 9.4-3.2 1.5-.8 2.9-1.7 4.4-2.7l.3.3-1.2.8c-1.6 1.1-3.2 2-4.8 2.7-17 8-31.3-2.1-31.4-2.2l.3-.3c.2 0 10 6.8 23 4.6zm2.8-4.8c-.9.3-1.8.5-2.7.7l.4 2.5c.9-.2 1.9-.5 2.9-.8l-.6-2.4zm-18.1-8.4c11.5 5.3 21.1-1 21.1-1l-.7-1.2c-4.9 2.6-9.4 3.2-12.8 2.9-4-.3-6.6-1.8-6.6-1.8l-1 1.1zm-.1 4.8c-.3-.1-.6-.2-.8-.4-.5-.3-1.1-.5-1.6-.8l-.9 2.7c.7.3 1.5.7 2.5 1.1l.8-2.6zM50 51c-.8-.1-1.5-.3-2.3-.6l-.5 2.6c.8.2 1.6.4 2.5.6L50 51zm5.1.3h-2.6l-.1 2.6c.9.1 1.8.1 2.7.1v-2.7zm2.7 2.6c.9-.1 1.8-.2 2.7-.4l-.3-2.7c-.3.1-.7.1-1 .2-.4.1-.9.2-1.3.2l-.1 2.7zm5.4-1.2c.8-.3 1.6-.6 2.5-.9l-.8-2.5c-.2.1-.5.2-.7.3-.5.2-1 .3-1.5.5l.5 2.6zm-18.7-7.1-4.4 5s.4.3 1.5.8l-1 2.1c-1.2-.6-1.9-1.1-2-1.2l-.3.3c.2.1 13.1 8.8 28.2 2.5 1.9-.8 3.9-1.8 5.9-3.2.2-.1.6-.4.8-.6l-.4-.3c-.2.2-.5.4-.8.6l-.8-1.9-.5-.5c-.7.5-1.7 1-2.4 1.4l-.8-2.4c.8-.4 1.5-.9 1.5-.9l-1.3-1.6-.9-1.3c-1.2.7-2.6 1.4-3.7 1.9-3.1 1.2-6.2 1.6-8.9 1.5-2.5-.1-4.7-.5-6.3-1-2.2-.6-3.4-1.2-3.4-1.2zm2.4 7.7c-1-.3-1.9-.6-2.7-.9l-.7 2.3c.9.3 1.8.7 2.9 1l.5-2.4zm5.4 1c-1-.1-1.9-.2-2.8-.4l-.2 2.5c.9.2 1.9.3 2.8.4l.2-2.5zm5.5-.1c-.9.1-1.9.1-2.7.1l.1 2.5c.9 0 1.8 0 2.8-.1l-.2-2.5zm10.5-3.3c-.8.5-1.7.9-2.5 1.2l.8 2.3c.8-.4 1.7-.8 2.5-1.2l-.8-2.3zm-2.2-5.7 1.1 2.6c-.6.3-1.4.6-2.3 1l-.8-2.7c.8-.3 1.2-.5 2-.9zm-6 5.1-.3-2.7c.6-.1 1.3-.3 2-.5l.6 2.7c-.8.1-1.5.3-2.3.5zm-4.9.6v-2.8c.7 0 1.3 0 2-.1l.2 2.8c-.7.1-1.5.1-2.2.1zm-2.6-.1c-.8 0-1.7-.1-2.5-.2l.5-2.8c.6.1 1.3.2 2 .3v2.7zM48 47.2l-.5 2.8c-.8-.2-1.5-.5-2.3-.9l.6-2.6c.6.2 1.4.5 2.2.7zm-3.7-.6c.3 0 .5.3.5.6s-.2.6-.5.6-.5-.3-.5-.6c0-.4.2-.6.5-.6zm4.8 1.8c.3 0 .5.3.5.6s-.2.6-.5.6-.5-.3-.5-.6c-.1-.4.1-.6.5-.6zm4.7.5c.3 0 .5.3.5.6s-.2.6-.5.6-.5-.3-.5-.6.2-.6.5-.6zm4.9-.2c.3 0 .5.3.5.6s-.2.6-.5.6-.5-.3-.5-.6c0-.4.2-.6.5-.6zm4.6-1.3c.3 0 .5.3.5.6s-.2.6-.5.6-.5-.3-.5-.6.2-.6.5-.6zm3.3 1.8c.3 0 .5.3.5.6s-.2.6-.5.6-.5-.3-.5-.6c-.1-.3.2-.6.5-.6zm-5 1.8c-.3 0-.6.3-.6.6s.3.6.6.6.6-.3.6-.6c-.1-.3-.3-.6-.6-.6zm-5.1 1c-.3 0-.6.3-.6.6s.3.6.6.6.6-.3.6-.6-.3-.6-.6-.6zm-5.3-.1c-.3 0-.6.3-.6.6 0 .4.3.6.6.6s.6-.3.6-.6-.3-.6-.6-.6zm-5.1-1.3c.3 0 .6.3.6.6s-.3.6-.6.6-.6-.3-.6-.6.3-.6.6-.6zm-3.7 1.9c-.3 0-.6.3-.6.6s.3.6.6.6.6-.3.6-.6-.3-.6-.6-.6zm5.7 2c-.3 0-.6.3-.6.6s.3.6.6.6.6-.3.6-.6c-.1-.4-.3-.6-.6-.6zm5.5.8c-.3 0-.6.3-.6.6s.3.6.6.6.6-.3.6-.6c0-.4-.3-.6-.6-.6zm5.8-.6c-.3 0-.6.3-.6.6 0 .4.3.6.6.6s.6-.3.6-.6-.3-.6-.6-.6zm5.5-1.3c-.3 0-.6.3-.6.6 0 .4.3.6.6.6s.6-.3.6-.6c-.1-.3-.3-.6-.6-.6zm5.4-2.6c-.3 0-.6.3-.6.6s.3.6.6.6.6-.3.6-.6-.3-.6-.6-.6z"/><path id="XMLID_845_" class="st5" d="m43.9 66.8 1.5-5.4-3.7-1.2.2-.5 3.7 1.3.3-1.3-3.7-1.4.7-2.2c4.1 1.7 8.8 2.4 12.3 2.4 4.4.1 7.9-.9 7.9-.9-1 1-1.9 2.1-2.6 3.1l-5 .3-.4 1.3 4.5-.2-.3.6-4.4.1-1.7 4.7.1 1.1 3.7.1c-.2 1-.4 1.9-.5 2.6-.2 1.4-.2 2.2-.2 2.2-5.7.2-13.4-1.7-13.4-1.7-.4-2.2-1.6-5-2.3-6.3l3.3 1.3zm4.8-7.7c-.1.3.4.4.4.8s-1 .6-1 .8c0 .2.6.5.4.9-.1.4-.8.3-.8.6s.4.6.3.9c-.1.3-.8.5-.9.8-.1.2.4.7.4.9 0 .2-.5.4-.7.5-.3.1-.3.3 0 .5.2.2.4.5.3.7-.1.2-.3.3-.6.4-.3.1 0 .4.2.4s.5 0 .6-.3c.1-.3 2.4-7.5 2.6-8 .1-.2 0-.3-.3-.3-.4.1-.9.2-.9.4zm-1.1 8.6c.2 0 .4-.3.4-.6 0-.2.2-.3.4-.3s.3.4.2.7c0 .3.3.2.4 0 .2-.6.6-2.2 1-3.3.4-1.1 1.4-4.2 1.6-4.6.2-.5.1-.6-.1-.7-.2 0-.4.1-.4.3 0 .2-.2.4-.4.3-.2 0-.2-.3-.2-.7 0-.4-.3-.3-.4 0-.1.3-2.5 7.5-2.6 8-.1.5-.1.9.1.9zm4.5-8.3c-.1.3-2.2 6.4-2.4 7-.1.5-.3 1.2-.2 1.5.2.3 1 .1 1.1-.1 0-.2-.5-.5-.4-.8.1-.3.8-.4.8-.7.1-.3-.7-.7-.6-1.1.1-.3 1.2-.3 1.2-.7 0-.3-.6-.7-.5-1.1.1-.4 1-.5 1.1-.8 0-.3-.7-.6-.6-.9.1-.3.9-.2 1-.5s-.4-.7-.4-.9c.1-.2.3-.4.6-.4s.4-.2.4-.4-.5-.6-.7-.7c-.1.1-.3.3-.4.6z"/><path id="XMLID_832_" class="st5" d="m20.1 74.5 13.5-14.9s1.5.9 3.1 2.9c1.7 2 2 3.1 2 3.1s-9.1 8.9-10.5 23.8l-8-9.4-.1-5.5zm13.1-10.2c0 .5-.2.6-.4.2-.1-.4-.9-1.5-1.4-1.2-.5.2-.1 1.6 0 2.1s-.1.5-.5.5-1.6-.1-1.6.5 1 .8 1.4.9c.5.1.4.4 0 .6-.3.2-1.5 1.5-1.2 1.9.3.4 1.4-.2 1.7-.3.4-.2.4.1.3.5-.1.5-.1 1.9.4 2 .6.1 1.2-2 1.2-2.2 0-.2.1-.5.4 0 .2.5.9.9 1.2.7.3-.2.1-1.2 0-1.5-.1-.3-.2-.5-.1-.6.1-.1.3 0 .8.1s1-.1 1.1-.5c.1-.4-.6-.8-1.1-.9-.4-.1-.2-.3 0-.4.2-.1 1.9-1.6 1.3-2.1-.6-.5-2 .7-2.2.6-.2-.1.1-.8.2-1.5s-.1-1.2-.3-1.2c-.8-.2-1.2 1.3-1.2 1.8zm-4.9 3.5c-.5 0-.8.4-.8.9s.4.9.8.9.8-.4.8-.9c.1-.5-.3-.9-.8-.9zm4.7-2.5c-.9 0-1.5.8-1.5 1.8s.7 1.8 1.5 1.8c.9 0 1.5-.8 1.5-1.8s-.7-1.8-1.5-1.8zm.9 1.8c0-.6-.4-1-.9-1s-.9.5-.9 1c0 .6.4 1 .9 1 .5.1.9-.4.9-1zm-6.2 7c-.4 0-.8.4-.8.9s.3.9.8.9c.4 0 .8-.4.8-.9-.1-.5-.4-.9-.8-.9zm-6.1 2.3c-.4 0-.8.4-.8.9s.4.9.8.9.8-.4.8-.9-.3-.9-.8-.9zm6.1 6.2c-.4 0-.7.4-.7.8 0 .5.3.8.7.8.4 0 .7-.4.7-.8.1-.5-.2-.8-.7-.8zM25.6 73c-.4.5-1.6.5-1.6.5 0 .8-.1 2.4-.1 2.4l4.5-5.1c-.5.2-2.4.2-2.4.2s.1 1.2-.4 2zm3.9 5.1s0-.9.3-1.6c.3-.8 1.4-.9 1.4-.9l.2-2-4.3 4.7 2.4-.2zm-6.5 3s-.5-.8-1.4-1.2c-.8-.4-.9.2-.7.5.3.3 1.4 1.5 1.4 1.5s1.6-1 2.4 0c.8 1 .1 2.9.1 2.9s1.8 2.1 2.3 1.4c.4-.7-1.6-3.1-1.6-3.1s3.1-2.4 2.5-2.9c-.6-.5-3.2 1.2-3.2 1.2s.3-.4.3-1.4c0-.9-.1-2.5-.4-2.5-1.2.1-1.7 3.6-1.7 3.6zm1 2.7c.1.1.5-.2.5-.5s-.2-.9-.7-.9c-.5 0-.8.4-.6.6 0 0 .6.7.8.8z"/><path id="XMLID_831_" class="st5" d="m43.3 46.8-4.9 5.5c-1-17.2 8.3-26.9 8.3-26.9-.1 2.7-.1 4.8-.1 6.7 0 1 0 1.9.1 2.7 0 0-3.2 4.3-3.4 12z"/><path id="XMLID_830_" class="st5" d="M18.9 81.5v3.4l10.9 11.8 2.1-1.1-.2-.2-12.8-14.6z"/><circle id="XMLID_829_" transform="matrix(.9991 -.0421 .0421 .9991 -2.503 2.182)" class="st5" cx="50.5" cy="60.5" r=".4"/><circle id="XMLID_828_" transform="matrix(.9991 -.04322 .04322 .9991 -2.626 2.225)" class="st5" cx="50.1" cy="61.8" r=".4"/><circle id="XMLID_827_" transform="rotate(-2.55 49.738 63.165) scale(.99999)" class="st5" cx="49.7" cy="63.2" r=".4"/><circle id="XMLID_826_" transform="rotate(-2.471 49.34 64.488) scale(1.00003)" class="st5" cx="49.3" cy="64.5" r=".4"/><circle id="XMLID_825_" transform="matrix(.9991 -.0432 .0432 .9991 -2.798 2.176)" class="st5" cx="48.9" cy="65.8" r=".4"/></g><path id="XMLID_167_" class="st3" d="m66.1 93.6 14.3-15.9v-7L70.1 58.9l-.1.7c-.2 2-1.2 9.1-3.8 15.1-2.5 5.7-6.6 10-7.4 10.8l-.1.1.1.2c2.6 5 6.3 7.3 7 7.8l.2.1.1-.1z"/><path id="XMLID_166_" class="st3" d="M71.9 106.4c.6 0 1.2-.6 1.5-1h.1c.4.3.9.5 1.5.4.7-.1 1.3-.5 1.5-.8.4-.6.6-1.5.4-2.4-.1-.5-.4-.8-.6-1l-.2-.2c0-.1.1-.3.1-.5l.2-.6c0-.4-.2-1.6-.7-2.1-.6-.7-1.9-.5-2.3-.4l-.7.5-.2.2c-.1 0-.2-.1-.2-.1-.3-.2-.6-.4-1.1-.5-.7-.1-1.5.3-1.9 1.1-.4.8-.2 2.6.2 3.1.3.3.1.6 0 .8-.2.3-.4.8-.1 1.9.5 1 1.6 1.6 2.5 1.6z"/><path id="XMLID_165_" class="st3" d="M79.2 97.7c-.1.2-.5.3-.8.2-.4 0-1-.1-1.2-.1-.3 0-.7-.1-1-.2-.2-.1-.4-.1-.7-.2-.3-.1-.7-.1-.9-.3-.2-.2-.5-.4-.8-.7-.2-.2-.4-.4-.3-.6.1-.2.4-.2.8-.2.3 0 .6-.2.9-.2.3 0 1-.1 1.3 0 .3 0 .9.2 1.2.4.3.2.9.5 1 .8.2.1.7.8.5 1.1z"/><path id="XMLID_164_" class="st3" d="M71.3 96.1c-.3.2-.9.4-1.3.6-.4.1-.9.3-1.2.4-.3.2-1.1.4-1.3.3-.2-.1-.3-.3-.3-.7 0-.4.2-.7.5-1 .3-.3.7-.8.9-.9.2-.2.9-.5 1.4-.6.4-.1.9.3 1.2.4.3.1.6.4.8.5.3 0 .1.5-.7 1z"/><path id="XMLID_163_" class="st3" d="M77.3 86.4c-.3-.1-.7-.2-.8-.7-.1-.5 0-.8 0-1.1 0-.3.2-1.1.2-1.3 0-.2.1-.5.2-.7.1-.2.5-.4.7-.4.3 0 .7 0 .8.3.1.3.2.6.1 1.1 0 .5-.3 1.2-.3 1.4 0 .2-.2 1-.3 1.2-.1.2-.5.2-.6.2z"/><path id="XMLID_162_" class="st3" d="M73.6 92.1c-.3.1-.4-.1-.4-.3 0-.2.1-.5 0-.6 0-.2.1-.5.1-.7 0-.2.3-.6.4-.8.1-.1.3-.6.4-.7.1-.1.4-.4.3.2-.1.6-.3 1-.3 1.3 0 .3-.1.7-.3 1 0 .3-.1.6-.2.6z"/><path id="XMLID_161_" class="st3" d="m40.2 134.5-13.5-20.7c-1.7.9-5.6 1.4-5.6 1.4 3.9 10.7 2.1 19.4 2.1 19.4l17-.1z"/><path id="XMLID_160_" class="st3" d="M24.9 99.5c5.4 3.5 8.8 9.3 8.8 9.3 11.9-6.2 19.7-1.1 19.7-1.1l8.6-9.5s-3.7-2.9-10.7-4.4l2.9-9.8s-1-.6-2.9-.9c-1.9-.3-2.7-.1-2.7-.1l-3.4 10.1h-1.9c-10-.1-18.4 6.4-18.4 6.4z"/><path id="XMLID_159_" class="st2" d="M18.9 92.3v9.9l21 32.3h3.6z"/><path id="XMLID_158_" class="st2" d="m57.8 91.7-4-1.4 1.5-5.8 3.4 1.2.6 1.2z"/><path id="XMLID_157_" class="st2" d="M40 89.1s.9-1.6 1.6-3.3c.7-1.8 1-3.2 1-3.2l4 .1.1 1.5-1.8 4.8-4.9.1z"/><ellipse id="XMLID_156_" class="st2" cx="73.1" cy="102" rx="1" ry="1.2"/><path id="XMLID_155_" class="st2" d="M63 80.4c1.3-1.9 2.4-3.8 3.2-5.7 2.4-5.6 3.4-12.1 3.7-14.7l.1-.4-.4.2c-1.2.5-5.1 2.9-7.2 9.4-1.6 4.8 0 10.1.3 11.1l.1.5.2-.4z"/><path id="XMLID_154_" class="st2" d="M52.7 117.3s1.8-2.8 2.7-6c.9-3.2.9-5.5 1-6.9l-4.8 5.3c0 .1 1.1 3.4 1.1 7.6z"/><g id="XMLID_931_"><g id="XMLID_934_"><path id="XMLID_1035_" class="st4" d="M39.2 120.4c0 .3.4.8.8 1.1.4.4 1 1.1 1.7 1.6.7.4 1.7.4 2.2.1.5-.2 1.4-.8 1.7-1 0 0 .7.2.8-.1.1-.2-.3-1-.4-1.2-.2-.2 0-.6 0-.9 0-.3-.5-.9-.9-1.3-.3-.4-1.2-1.4-1.5-1.6-.3-.2-.4 0-.3.1.1.1.2.3.5.5.2.2.3.4.5.8s-.3.4-.5.3c-.3-.1-.5-.1-.8 0-.3 0-.7 0-1 .2-.3.2-.8.4-1.2.5-.3.1-.9.1-1.2.2-.4.3-.5.4-.4.7zm5.3-.5c.3.2.6.6.3.9-.2.1-.3-.1-.4-.2-.1-.1-.3-.4-.3-.5 0-.2.1-.4.4-.2zm-2.7.4c.1-.2.3-.9.9-.9.6-.1 1 .2 1.2.7.2.5 0 .8-.1.8-.2.1-.2-.1-.2-.3 0-.2-.2-.9-.5-.9s-.6.3-.7.5c-.1.2-.1.5-.3.5-.3.1-.3-.1-.3-.4zm-1-.2c.1-.1.3-.3.4-.2.2 0 .3.1.3.4 0 .3-.2.2-.3.3-.1 0-.3 0-.4-.1-.1-.1-.1-.3 0-.4zm.7 1.9c.3.2 1.2.3 1.6.3.4 0 1.1-.2 1.3-.3.2-.1.7 0 .2.3-.5.4-1 .6-1.6.6-.6 0-1.2-.2-1.5-.4-.3-.2-.9-.6-.9-.8.1-.1.6.1.9.3z"/><path id="XMLID_1034_" class="st4" d="M45.4 123.2c-.2.2-.3.3-.9.5-.6.3-1.8.2-2.7 0-.9-.2-2.5-1.2-2.8-1.5-.3-.3-.6-.5-.7-.4-.1.1.1.6.3.8.3.2.4.5 1.1 1.1.7.6 1.9 1.2 2.7 1.4.7.1 1.8.1 2.6-.3.5-.2.8-.5 1.1-1.1.4-.4-.2-.8-.7-.5z"/><path id="XMLID_939_" class="st4" d="M43.2 134.8h.8l-1.6-2.8c1.6 1.2 2.3 2.8 2.3 2.8h.6c0-.1-1.2-2.6-3.5-3.8l-.7-1.3c3.6 1.9 4.8 5 4.9 5.1h.6c-.1-.2-1.5-4-5.9-5.9l-.6-1.1c5.7 1.9 7.3 6.9 7.3 7h.6c0-.1-1.9-5.8-8.3-7.7l-.8-1.4c4.7 1.4 7.5 4.6 8.7 6.5l.8 1.5c-.2.6-.3 1-.4 1.1h.5s1.1-3.5 3.8-6.2v1.1c-2.2 2.3-3.3 4.9-3.3 5.1h.6s.8-2.1 2.7-4.2v1.2c-1.5 1.1-1.9 3-1.9 3.1h.6s.3-1.4 1.3-2.4v2.4h.5s.3-13.9.1-18.4c-.1-2-.3-4.4-1.1-6.4l16.6-18.5c.3 1.7 1.1 2.4 1.1 2.4s-.7.2-1.5 1-.9 1.8-1 2.3c-.1.4 0 .8.2.7.2 0 .6-.2 1-.4.5-.2 1.1-.4 1.5-.5.4-.1 1.4-.4 1.7-.7.3-.2.4-.1.4-.1v.9c0 .2-.1.2-.1.2-.7-.1-1.5.2-2 .8-.5.6-.7 1.6-.7 1.9 0 .6.2 1.1.2 1.4 0 .2-.4.5-.6.6-.1.1-.1.3 0 .5.2.1.7.6.7.6s-.1.7.1 1.4c.2.9.9 1.6 1.5 1.8.6.3 1.4.1 1.6 0 .2-.1.3-.1.4 0 .2.1.8.7.8.7.1 0 .7-1.1.7-1.1s.8.1 1.5-.1c.6-.3 1.3-1.1 1.4-2s-.2-1.7-.1-2c.1-.3.4-.8.5-1 0-.4-.8-.6-.8-.6s0-.6-.1-1.1c-.1-.5-.5-.9-.4-1.1.1-.2 1-.1 1.5-.1.5.1 1.3.5 1.6.5.3 0 .5-.2.2-.8-.2-.6-.5-1.1-1-1.6s-1.4-.8-1.7-.8c-.3 0-.3-.2 0-.4s.5-.4.6-.8c0-.5.3-.5.5-.9s.2-.7.2-1.1c0-.4.1-.7.2-.9.1-.2.3-.5.3-.8 0-.3 0-.8-.1-2s-.5-1.5-.6-1.8c-.1-.3.1-1 .2-1.5.1-.6.4-1.4.4-2.2 0-.8-.7-1-1.3-.9-.5.1-1 .9-1.1 1.2-.1.3-.2 1.2-.2 1.6 0 .4 0 .8-.2.8s-.3-.2-.6-.5c-.2-.2-.5-.4-.8-.6l6.1-6.8.1-.1v-18L77 52.7l-2.6-1.3-.1.1c-5.3 4.2-11.4 5.8-11.5 5.8h-.1c-.1.1-6.2 5.7-6.8 15.4 0 .7-.1 1.3-.1 1.9 0 5.2 1.4 9.2 3.1 12.1l-2.6 8.5c2.1.8 4.7 2.2 5.3 2.7-3.9 4.4-7.5 8.3-9.2 10.3-.3-.2-1-.5-2-.7-.8-1-2-1.7-3.5-1.8-1.8-.2-3.4.4-4.8 1.4-3.4.3-6.9 1.8-7.8 2.2-.8-1.5-1.7-2.9-2.8-4.2-4.7-5.6-7.7-6.7-8.6-6.9L18.6 91v1.7l24.6 42.1zm26.9-38.4c-.3.1-.8.3-1.1.4-.3.1-1.2.4-1.3.3-.1-.1-.2-.6 0-1s1.1-1.2 1.4-1.3c.3-.2.8-.4 1-.4.3 0 .6.1.8.2.2.1.3.2-.2.3-.5.2-1 .3-1.3.4-.3.2-.9.6-.8.8 0 .2.4.2.8 0s.9-.4 1.3-.5c.4-.1.8-.4 1-.5.2-.1.6 0 .4.3-.5.3-1.2.7-2 1zm6.3 3.7c0 .3-.4.9-.3 1.2 0 .3.5.5.7 1.3.2.8 0 1.7-.4 2.2-.4.5-1.6 1.2-2.7.4-.1-.1-.3-.1-.5 0-.3.4-.8.9-1.4 1-.8 0-1.8-.5-2.1-1.5-.3-1-.1-1.5.1-1.7.2-.3.3-.7-.1-1.1-.4-.4-.5-2.1-.2-2.8.4-.7 1.1-1.1 1.7-1 .6.1 1.2.6 1.3.6.2 0 .6-.6 1-.7.4-.2 1.6-.2 2 .3.7.4.9 1.5.9 1.8zm-4.3-3v-1.4c0-.2.2-.4.4-.4s.4.2.4.5v1.1c0 .2 0 .6-.3.7-.1 0-.5-.2-.5-.5zm1.4-.8c.3.2.9.7.9.9 0 0-.9.3-1.1.4-.1.1-.2-.2-.2-.4v-.9c.1-.2.1-.2.4 0zm-.2-1.4c0-.2.4-.3.7-.3.3 0 .9 0 .9.2.1.2-.2.4-.6.4-.2.1-1 0-1-.3zm3.6.8c.5.1 1 .4 1.5.8s.8 1 .6 1.2c-.1.2-1.4 0-1.8 0-.4 0-1.4-.4-1.9-.5-.5-.1-1-.7-1.3-.9-.3-.2-.4-.5 0-.3s2 .9 2.4.9c.4 0 .8-.2.2-.4-.5-.2-1.2-.3-1.5-.4-.3-.1-.4-.4 0-.4.5 0 1.2-.1 1.8 0zm-.3-1.2c-.3.2-1.2.4-1.2.1 0-.2 0-.3-.1-.5-.1-.1 0-.3.2-.2.2.1.6-.1.3-.3-.3-.2-.6-.5-.8-.6-.2-.1-.2-.1 0-.3.2-.2.6-.4.5-.7-.1-.3-.2-.2-.4 0-.1.2-.5.4-.8.4-.2 0-.4-.3-.4-.5s.3-.5.6-.5c.4 0 .8 0 1.3.5s.9 1.2 1 1.7c.3.4.1.7-.2.9zm-1.2-4.8c.3.2 0 .7-.3 1-.2.2-.5 0-.6-.2-.1-.2 0-.6.1-.8.2-.1.5-.3.8 0zm-.4-1.6c.3-.1.5-.2.7 0 .2.2-.1.6-.3.7-.2.2-.6 0-.7-.1.1-.1.1-.4.3-.6zm2.4 4.7c-.1 0-.3-.2-.5-.4-.2-.3-.5-.7-.7-.9-.3-.2-.4-.4-.6-.5-.1 0 .2-.3.2-.5.1-.2.1-.6.3-.5.2 0 .5.2.8.6.3.4.8.9.8 1.4.1.4 0 .8-.3.8zm-.5-9.9c.1-.2.5-.5.8-.6.3 0 .4 0 .6.3.1.3-.1.4-.5.6-.2.1-.4.2-.6.2-.2-.1-.3-.3-.3-.5zm-.3 1.4c0-.3.1-.5.4-.5.3 0 .8-.2.8-.2.1 0 .4-.1.4.3s-.3.8-.3 1.2c0 .4-.1 1-.7 1-.3 0-.5-.2-.7-.6 0-.4.1-.9.1-1.2zm.5 2.3c.4.1.6.1.9.6.3.4.4.8.3 1-.1.3-.5.1-.6 0-.1-.1-.4-.5-.6-.5-.2 0-.2-.2-.3-.3 0-.1-.1-.5-.2-.7-.1-.1.1-.2.5-.1zm-.7 1.8c0-.1.3-.3.5-.2.3.1 1 .8 1.2 1.1.2.3.3.7.2 1-.1.4-.2.5-.4.5-.1 0-.4-.3-.5-.4-.1-.1-.5-.7-.8-.8-.3-.2-.4-.3-.6-.4-.2 0-.1-.2 0-.4.2-.1.3-.3.4-.4zm-.3-1.5c.2.2.2.4.2.4 0 .2-.1.1-.4.1-.3 0-.5-.4-.3-.6.1-.1.3-.1.5.1zm-.5-1.3c.2.1.1.5 0 .6-.2.1-.4.4-.4.7 0 .3-.3.6-.5.8-.2.2-.3.6-.3 1 0 .3-.1.7-.2.9-.1.3-.1.8-.3 1.2-.1.5-.3 1.1-.5 1-.2-.1 0-.4.1-1s-.3-.4-.4-.1c-.1.3-.2.6-.4.6s-.2-.4-.1-.9V89c-.1-.5-.3-.8-.4-.8-.1 0 0 .5.1.9.1.5 0 .7 0 1.2s-.3 1-.3 1.3c0 .3.4.5.7.6.3.1.3.3.5.5s.4.2.8.4.8.6.8.9c-.1.2-.5.1-1 .2-.5 0-.7.3-.9.5-.3.2-.9-.1-.9-.1s-1.2-.5-1.7-.9c-1-.9-1.3-2.1-1.3-2.7l5.5-6.1c.2.2.9.6 1.1.7zm-6.1-30.4L80.4 67v3.3L67.9 56.1c.5-.3 1.1-.6 1.6-.9zm-7.7 26.4c-.1.2-.3.4-.4.5-.5-1.4-2.3-6.8-.8-13.1 1.6-6.3 7-10.3 8.2-11.1l.5.5c-1 .6-5.9 3.7-7.8 10-1.9 6.3 0 12.2.3 13.2zm-.8 1.1c-.1.2-.3.3-.4.5-.6-1.6-2.5-7.3-1-13.8 1.7-7.2 7.3-11.4 8.4-12.2l.4.5c-1.4.9-6.8 5-8.4 11.4-1.7 6.8.7 12.8 1 13.6zm1.6-13.5c2.1-6.5 6.1-8.7 7.1-9.2-.3 2.5-1.3 9-3.7 14.6-.9 2.1-2 4-3.2 5.6-.3-1-1.8-6.3-.2-11zm4.7-12.9.3.3c-1.3.9-6.9 5.3-8.6 12.5-1.6 7.1.7 13.3 1.2 14.5l-.4.4c-.6-1.5-2.9-7.2-1.6-13.8.7-3.3 1.8-6 3.6-8.5 1.4-1.9 3.2-3.8 5.2-5.4.2.1.2 0 .3 0zm-8.6 28.9c-1.3-2.7-2.3-6.2-2.3-10.5 0-.6 0-1.2.1-1.9.6-9.1 6.1-14.6 6.6-15 .2-.1 1.1-.3 2.3-.7-1.5 1.3-2.8 2.7-3.9 4.3-1.8 2.6-3 5.4-3.7 8.7-1.4 7.1 1.2 13.3 1.7 14.4-.4.3-.6.6-.8.7zm.3.5c.8-.8 5-5.2 7.5-10.9 2.6-6 3.5-13 3.8-15.2l10.1 11.5v6.1c-.1.1-7.2 8.1-14.5 16.1-.8-.4-4.4-2.7-6.9-7.6zm-24.6 32.5c.5-1.8.6-4.4.6-5.9.2.4.3.9.5 1.3 0 .5-.2 3.3-.8 5l-.3-.4zm.6 1c.6-1.1.8-2.9.9-4.2.2.6.3 1.2.5 1.8l-.9 3.2-.5-.8zm.9 1.5.8-2.8c.1.5.2 1 .3 1.4l-.6 2.1-.5-.7zm.8 1.4.4-1.4c.1 1 .2 1.9.2 2.5l-.6-1.1zm15.6 5.8c-1.9 1.7-3.1 3.8-3.7 5.2-.1-.2-.3-.5-.5-.8 1.4-2.9 3.3-4.7 4.2-5.4v1zm-3.1-5.9c.3.1 1.1.4 1.6.4s1.2-.3 1.3-.4c.1-.1.2 0 .3 0V122.3c-.3.3-1 .5-1.5.5-.4 0-1-.1-1.4-.3-.4-.1-.9-.5-.9-.6 0-.2.3-.1.6.1zm-.4-2.1c.2-.1.4-.2.6-.1.2.2-.1.5-.3.6-.2.1-.4.1-.6 0-.1-.2.1-.4.3-.5zm.9.2c.1-.2.4-.7 1-.8.5 0 .8.2 1 .5.1.3.2.8-.1.8-.1 0-.2-.1-.2-.3 0-.1-.2-.8-.7-.8-.4 0-.6.3-.6.6s-.2.5-.3.5c-.2.1-.1-.3-.1-.5zm2.7.1c0 .1 0 .1 0 0-.3.2-.3-.1-.4-.2-.1-.1-.2-.4-.1-.5.2-.1.3 0 .4.2 0 .1 0 .1.1.2v.3zm-3.4 2.4c.4.2 1.1.6 1.6.6s1-.2 1.2-.3c.2-.1.5 0 .5.2s-.3.4-1 .6c-.4.1-1 .1-1.3 0-.3-.1-.8-.4-1-.6 0-.2-.3-.6 0-.5zm3.2-13.8c-.2.3-.4.5-.6.6-.2-.4-.4-.7-.6-1.1.5.2.9.3 1.2.5zm-5.3-2.4c4.5.4 5.3 5.9 5.4 10 0 .7 0 1.6.1 2.6-.1 0-.3 0-.4-.1-.3 0-.7-.2-1.1-.2-.4 0-.8.1-1.1.2-.3.1-.6.1-.5-.1.2-.2.4-.4.6-.8.3-.4-.2-.5-.3-.3-.1.1-.4.4-.5.4-.2 0 0-.6.3-1.1.3-.7.4-1.2.4-1.6 0-.4-.9-.9-1.3-1.1-.4-.3-.6-.8-.8-.7-.2.1.2.7.3.9.1.3-.3.5-.7.2-.4-.3-.7-.4-1.3-.3-.6.1-.8.8-.7 1.3.1.5.3 1.1.6 1.2.3.1.5-.4.2-.5-.2-.1-.4-.2-.5-.5-.2-.3-.1-.7.1-.9.2-.1.7-.1 1.1.1.4.3.4.6 1.1.7.7.1.5-.6.7-.7.2 0 .4 0 .5.3.1.3.1.7 0 1.1-.1.4-.5 1.6-.8 2.3-.2.8-.3 1.2-.2 2.7.1 1.5 1.2 2.9 2.3 3.1.8.1 1.8-.3 2.1-.4v1.8c-.6.4-2.9 2.2-4.5 5.6-1.4-2.1-4.4-5.4-9.4-6.7l-.5-.9c0-1-.2-4.9-1.5-9.4-.1.1 4.3-8.7 10.3-8.2zm-5.7 1.5c-.2.1-.3.3-.5.4l-.2-.3c.2 0 .5-.1.7-.1zm-1.3.2.4.5c-.1.1-.2.2-.4.3l-.4-.8c.2.1.3 0 .4 0zm-.9.2.5 1.1c-.1.1-.2.3-.4.4l-.7-1.3c.3-.1.5-.1.6-.2zm-1 .3.8 1.6c-.1.2-.3.3-.4.5l-.9-2c.2 0 .4 0 .5-.1zm-1 .4 1 2.3c-.1.2-.2.3-.4.5l-1.1-2.6c.2-.1.4-.2.5-.2zm-.9.3 1.2 3c-.1.2-.2.4-.3.5l-1.4-3.3c.1-.1.3-.1.5-.2zm-1 .4 1.5 3.6c-.2.3-.3.6-.4.8-.4-1.4-1-2.8-1.6-4.2.1 0 .3-.1.5-.2zm-1.2.1c.2.4.4.8.5 1.1 0 .5.1 4.1-.4 6.6l-.6-1c.7-1.8.6-4.9.5-6.7zm-1.1-1.8c.2.3.3.5.5.8 0 .6.4 4.8-.2 7.2l-.5-.9c.7-2.3.4-5.4.2-7.1zm-.6-1c.1.6.7 4.7 0 7.4l-.5-.8c.6-2.3.1-5.8-.3-7.6.3.3.5.6.8 1zm-1.5-1.9c.1.5 1.2 4.9.7 7.8l-.6-1c.2-3-.6-6.2-1-7.9.2.3.6.7.9 1.1zm-1.8-2c.2.5 1.4 4.3 1.4 7.9l-.8-1.4c.2-2.6-.5-5.4-.9-6.9.1.2.2.3.3.4zm-1.2-1.1c.2.5 1.3 3.7 1.2 6.8l-.9-1.5c-.1-2.1-.8-4.7-1.2-6 .3.2.6.4.9.7zm-1.6-1.3c.2.5 1.1 3.2 1.4 5.6l-.9-1.5c-.2-1.5-.9-3.5-1.2-4.6.2.1.5.3.7.5zm-1.4-1c.1.4.7 2 1.1 3.6L23.3 99l1.4.7z"/><path id="XMLID_938_" class="st4" d="M18.5 101.7s7.4 11.2 7.8 11.9c-.4.2-.9.4-1.4.5l-.4.1c-1 .2-2.8.6-3.4.6h-.5l.2.5c0 .1 2.6 6.5 2.6 14 0 1.8-.2 3.6-.5 5.5h.8c.3-1.9.5-3.6.5-5.4 0-6.6-1.9-12.3-2.5-13.9.7-.1 1.9-.3 3-.6l.4-.1c.9-.2 1.9-.7 2-.8l.4-.2-8.3-12.6-.7.5z"/><path id="XMLID_935_" class="st4" d="M74.4 102.7c-.2-.1-.2-.3-.2-.4v-1c0-.3-.2-.4-.1-.6.1-.2.8-1 1-1.4.2-.4-.2-.6-.3-.4-.2.3-1.1 1.6-1.3 1.6-.2 0-.5-.2-.8-.1-.3 0-.5.3-.6.2-.1-.1-.9-.8-1.2-1.1-.3-.2-.4.1-.2.3.2.2.8.9.9 1 .1.1.3.2.2.4v.6c0 .3.1.8.2 1 .1.1 0 .3-.1.4-.1.1-.8 1.1-1 1.4-.1.3.2.4.3.2.1-.2.9-1.2 1-1.3.2-.1.3-.2.5-.2.3.1.9 0 1-.1.1-.1.5-.2.6-.1.1.1.6.5.8.7.2.2.5.4.6.3.1-.2 0-.5-.2-.6-.1-.2-.9-.6-1.1-.8zm-1.4.2c-.4 0-.8-.4-.8-.9s.4-.9.8-.9.8.4.8.9-.3.9-.8.9z"/></g><path id="XMLID_933_" class="st4" d="M49.6 112.6c-.2 0-.4-.1-.6 0-.2.1-.6.5-1.1.3-.5-.2-.6-.1-.8 0-.1.1-.7 0-1-.1-.3-.2-.4-.1-.6-.2-.2-.1-.4.1-.6.2-.1.2-.3.3-.4.1-.1-.2-.1-.8-.3-.9-.1-.1 0-.6 0-.8.1-.2.1-.2.4 0 .3.2.6.3 1 .2.4-.1.6-.2 1-.3.4 0 .6 0 .9.1.4.1.8.3 1.2.1.5-.2.4-.3.5-.5.1-.2.5-.1.5.3s-.1.2-.2.6c.2.5.4.8.1.9z"/><path id="XMLID_932_" class="st4" d="M47.3 110.2c-.6 0-.9 0-1 .2-.1.1-.3.3-.5.2-.2-.1 0-.6.3-.7.2-.1 1-.2 1.5-.1s.7.2.9.4c.2.2 0 .3-.4.2-.3-.2-.8-.2-.8-.2z"/></g><g id="XMLID_756_"><path id="XMLID_998_" class="st5" d="M27.2 113.6c-.7.5-1.7.8-1.7.8l12.8 20.1h2.5l-13.6-20.9z"/><path id="XMLID_997_" class="st5" d="M36.5 134.5c.1.1-.1-2.9-1.4-4.7-1.2-1.6-2.3-2-2.5-2.1-.1-.4-.5-2.7-1.5-4.4-1-1.6-2.9-2.5-3.3-2.6 0-.4-.2-2.6-1.6-4.6-.4-.5-.8-1-1.4-1.5l-.3.1c2.8 2.2 3 6.1 3 6.1v.1h.1s2.2.9 3.2 2.6c1.1 1.7 1.5 4.3 1.5 4.3v.1h.1s1.2.3 2.4 2 1.4 4.7 1.3 4.5h.4z"/><path id="XMLID_996_" class="st5" d="M35.6 134.6s.7-4.1-3.9-6.5c0 0 .2-5-4.7-6.7 0 0-.2-4.6-3.2-6.5l-1.5.3s1.7 1 2 2.8c0 0 2.2.6 2.2 3.2 0 .5-.4.5-.4 0s-.1-1.5-1.3-1.5c-1 0-1.1 1.7-.7 2.4 0 0-.7.7-.6 1.6.2 1 .6 1.5.9 1.6.6.2 1-.2 1.1-.3.1-.1.2-.3.6.3.4.5 1.4.6 1.8-.1.4-.7.4-1.7-.6-2.4-.4-.3.1-.4.6-.1.5.3 1.3 1.5 1.4 2.7 0 0 1.6.8 1.6 2.8 0 .9-.3.4-.3.1 0-.3-.2-1.5-1.2-1.5s-1.3.9-1 2.3c0 0-1.1.3-1.1 1.9 0 1.7 1.8 2.2 2.7.7 0 0 .9 1 1.6.5.7-.5 1-1.9-.1-2.8 0 0 2.1.1 2 3.7 0 0 .6 1 .5 1.6h1.6z"/><path id="XMLID_961_" class="st5" d="M39 93.7c-3 .5-6.2 1.5-9.4 3.2-1.5.8-2.9 1.7-4.4 2.7l-.3-.3 1.2-.8c1.6-1.1 3.2-2 4.8-2.7 17-8 31.3 2.1 31.4 2.2l-.3.3c-.3 0-10.1-6.8-23-4.6zm-2.8 4.8c.9-.3 1.8-.5 2.7-.7l-.4-2.5c-.9.2-1.9.5-2.9.8l.6 2.4zm18 8.4c-11.5-5.3-21.1 1-21.1 1l.7 1.2c4.9-2.6 9.4-3.2 12.8-2.9 4 .3 6.6 1.8 6.6 1.8l1-1.1zm.1-4.8c.3.1.6.2.8.4.5.3 1.1.5 1.6.8l.9-2.7c-.7-.3-1.5-.7-2.6-1.1l-.7 2.6zm-4.8-1.5c.8.1 1.5.3 2.3.5l.4-2.5c-.8-.2-1.6-.4-2.5-.6l-.2 2.6zm-5.2-.3h2.6l.1-2.6c-.9-.1-1.8-.1-2.7-.1v2.7zm-2.7-2.6c-.9.1-1.8.2-2.7.4l.3 2.7c.3-.1.7-.1 1-.2.4-.1.9-.1 1.3-.2v-2.7h.1zm-5.4 1.2c-.8.3-1.6.6-2.5.9l.8 2.5c.2-.1.5-.2.7-.3.5-.2 1-.3 1.5-.5l-.5-2.6zm18.7 7.1 4.4-5s-.4-.3-1.5-.8l1-2.1c1.2.6 1.9 1.1 2 1.2l.3-.3c-.1-.1-13-8.7-28.1-2.4-1.9.8-3.9 1.8-5.9 3.2-.2.1-.6.4-.8.6l.4.3c.2-.2.5-.4.8-.6l.8 1.9.5.5c.7-.5 1.7-1 2.4-1.4l.8 2.4c-.8.4-1.5.9-1.5.9l1.3 1.6.9 1.3c1.2-.7 2.6-1.4 3.7-1.9 3.1-1.2 6.2-1.6 8.9-1.5 2.5.1 4.7.5 6.3 1 2.1.5 3.3 1.1 3.3 1.1zm-2.4-7.7c1 .3 1.9.6 2.7.9l.7-2.3c-.9-.3-1.8-.7-2.9-1l-.5 2.4zm-5.4-1c1 .1 1.9.2 2.8.4l.2-2.5c-.9-.2-1.8-.3-2.8-.4l-.2 2.5zm-5.5.1c.9-.1 1.9-.1 2.7-.1l-.1-2.5c-.9 0-1.8 0-2.8.1l.2 2.5zm-10.5 3.3c.8-.5 1.7-.9 2.5-1.2l-.8-2.3c-.8.4-1.7.8-2.5 1.2l.8 2.3zm2.3 5.7-1.1-2.6c.6-.3 1.4-.6 2.3-1l.8 2.7c-.8.3-1.3.5-2 .9zm5.9-5.1.3 2.7c-.6.1-1.3.3-2 .5l-.6-2.7c.8-.1 1.5-.3 2.3-.5zm4.9-.6v2.8c-.7 0-1.3 0-2 .1l-.2-2.8c.7-.1 1.5-.1 2.2-.1zm2.6.1c.8 0 1.7.1 2.5.2l-.5 2.8c-.6-.1-1.3-.2-2-.3v-2.7zm4.6 3.6.5-2.8c.8.2 1.6.5 2.3.9l-.6 2.6c-.6-.2-1.4-.5-2.2-.7zm3.7.6c-.3 0-.5-.3-.5-.6s.2-.6.5-.6.5.3.5.6c0 .4-.2.6-.5.6zm-4.7-1.8c-.3 0-.5-.3-.5-.6s.2-.6.5-.6.5.3.5.6c0 .4-.2.6-.5.6zm-4.8-.5c-.3 0-.5-.3-.5-.6s.2-.6.5-.6.5.3.5.6-.2.6-.5.6zm-4.9.2c-.3 0-.5-.3-.5-.6s.2-.6.5-.6.5.3.5.6c0 .4-.2.6-.5.6zm-4.6 1.3c-.3 0-.5-.3-.5-.6s.2-.6.5-.6.5.3.5.6-.2.6-.5.6zm-3.3-1.8c-.3 0-.5-.3-.5-.6s.2-.6.5-.6.5.3.5.6c.1.3-.2.6-.5.6zm5-1.8c.3 0 .6-.3.6-.6 0-.4-.3-.6-.6-.6s-.6.3-.6.6c.1.3.3.6.6.6zm5.1-1c.3 0 .6-.3.6-.6s-.3-.6-.6-.6-.6.3-.6.6c.1.3.3.6.6.6zm5.3.1c.3 0 .6-.3.6-.6s-.3-.6-.6-.6-.6.3-.6.6c.1.4.3.6.6.6zm5.1 1.3c-.3 0-.6-.3-.6-.6 0-.4.3-.6.6-.6s.6.3.6.6-.3.6-.6.6zm3.7-1.9c.3 0 .6-.3.6-.6 0-.4-.3-.6-.6-.6s-.6.3-.6.6.3.6.6.6zm-5.6-2c.3 0 .6-.3.6-.6 0-.4-.3-.6-.6-.6s-.6.3-.6.6c0 .4.2.6.6.6zm-5.6-.8c.3 0 .6-.3.6-.6s-.3-.6-.6-.6-.6.3-.6.6c0 .4.3.6.6.6zm-5.8.6c.3 0 .6-.3.6-.6 0-.4-.3-.6-.6-.6s-.6.3-.6.6.3.6.6.6zm-5.5 1.3c.3 0 .6-.3.6-.6s-.3-.6-.6-.6-.6.3-.6.6c.1.3.3.6.6.6zm-5.4 2.6c.3 0 .6-.3.6-.6 0-.4-.3-.6-.6-.6s-.6.3-.6.6.3.6.6.6z"/><path id="XMLID_956_" class="st5" d="M55.5 84.8 54 90.2l3.8 1.2-.2.5-3.7-1.3-.3 1.3 3.7 1.4-.7 2.2c-4.1-1.7-8.8-2.4-12.3-2.4-4.4-.1-7.9 1-7.9 1 1-1 1.9-2.1 2.6-3.1l5-.3.4-1.3-4.5.2.3-.6 4.4-.1 1.7-4.7-.2-1.2-3.7-.1c.2-1 .4-1.9.5-2.6.2-1.4.2-2.2.2-2.2 5.7-.2 13.4 1.7 13.4 1.7.4 2.2 1.6 5 2.3 6.3l-3.3-1.3zm-4.8 7.7c.1-.3-.4-.4-.4-.8s1-.6 1-.8c0-.2-.6-.5-.4-.9.1-.4.8-.3.9-.6.1-.3-.4-.6-.3-.9.1-.3.8-.5.9-.8.1-.2-.4-.7-.4-.9 0-.2.5-.4.7-.5.3-.1.3-.3 0-.5-.2-.2-.4-.5-.3-.7.1-.2.3-.3.6-.4.3-.1 0-.4-.2-.4s-.5 0-.6.3c-.1.3-2.4 7.5-2.6 8-.1.2 0 .3.3.3.3-.1.8-.2.8-.4zm1.1-8.6c-.2 0-.4.3-.4.6 0 .2-.2.3-.4.3s-.3-.4-.2-.7c0-.3-.3-.2-.4 0-.2.6-.6 2.2-1 3.3-.4 1.1-1.4 4.2-1.6 4.6-.2.5-.1.6.1.7.2 0 .4-.1.4-.3 0-.2.2-.4.4-.3.2 0 .2.3.2.7 0 .4.3.3.4 0 .1-.3 2.5-7.5 2.6-8 .1-.5.1-.9-.1-.9zm-4.5 8.3c.1-.3 2.2-6.4 2.4-7 .1-.5.3-1.2.2-1.5-.2-.3-1-.1-1.1.1 0 .2.5.5.4.8-.1.3-.8.4-.8.7-.1.3.7.7.6 1.1-.1.3-1.2.3-1.2.7 0 .3.6.7.5 1.1-.1.4-1 .5-1.1.8 0 .3.7.6.6.9-.1.3-.9.2-1 .5-.1.3.4.7.4.9-.1.2-.3.4-.6.4s-.4.2-.4.4.5.6.7.7c.2-.1.3-.3.4-.6z"/><path id="XMLID_765_" class="st5" d="m79.3 77.1-13.5 15s-1.5-.9-3.1-2.9c-1.7-2-2-3.1-2-3.1s9.1-8.9 10.5-23.8l8.1 9.3v5.5zM66.2 87.3c0-.5.2-.6.4-.2.1.4.9 1.5 1.4 1.2.5-.2.1-1.6 0-2.1s.1-.5.5-.5 1.6.1 1.6-.5-1-.8-1.4-.9c-.5-.1-.4-.4 0-.6.3-.2 1.5-1.5 1.2-1.9-.3-.4-1.4.2-1.7.3-.4.2-.4-.1-.3-.5.1-.5.1-1.9-.4-2-.6-.1-1.2 2-1.2 2.2 0 .2-.1.5-.4 0-.2-.5-.9-.9-1.2-.7-.3.2-.1 1.2 0 1.5.1.3.2.5.1.6-.1.1-.3 0-.8-.1-.4-.1-1.1.1-1.1.5-.1.4.6.8 1.1.9.4.1.2.3 0 .4-.2.1-1.9 1.6-1.3 2.1.6.5 2-.7 2.2-.6.2.1-.1.8-.2 1.5s.1 1.2.3 1.2c.8.2 1.2-1.3 1.2-1.8zm4.9-3.5c.5 0 .8-.4.8-.9s-.4-.9-.8-.9c-.5 0-.8.4-.8.9s.3.9.8.9zm-4.7 2.5c.9 0 1.5-.8 1.5-1.8s-.7-1.8-1.5-1.8c-.9 0-1.5.8-1.5 1.8s.7 1.8 1.5 1.8zm-.9-1.8c0 .6.4 1 .9 1s.9-.5.9-1c0-.6-.4-1-.9-1-.5-.1-.9.4-.9 1zm6.3-7c.4 0 .8-.4.8-.9s-.3-.9-.8-.9c-.4 0-.8.4-.8.9s.3.9.8.9zm6-2.3c.4 0 .8-.4.8-.9s-.4-.9-.8-.9-.8.4-.8.9.3.9.8.9zM71.7 69c.4 0 .7-.4.7-.8 0-.5-.3-.8-.7-.8-.4 0-.7.4-.7.8-.1.5.3.8.7.8zm2.1 9.6c.4-.5 1.6-.5 1.6-.5 0-.8.1-2.4.1-2.4L71 80.8c.5-.2 2.4-.2 2.4-.2s-.1-1.2.4-2zm-3.9-5.1s0 .9-.3 1.6c-.3.8-1.4.9-1.4.9l-.2 2 4.3-4.7-2.4.2zm6.6-3s.5.8 1.4 1.2c.8.4.9-.2.7-.5-.3-.3-1.4-1.5-1.4-1.5s-1.6 1-2.4 0c-.8-1-.1-2.9-.1-2.9s-1.8-2.1-2.3-1.4c-.4.7 1.6 3.1 1.6 3.1s-3.1 2.4-2.5 2.9c.6.5 3.2-1.2 3.2-1.2s-.3.4-.3 1.4c0 .9.1 2.5.4 2.5 1.1-.1 1.7-3.6 1.7-3.6zm-1.1-2.7c-.1-.1-.5.2-.5.5s.2.9.7.9c.5 0 .8-.4.6-.6 0 0-.6-.7-.8-.8z"/><path id="XMLID_764_" class="st5" d="m56.1 104.8 4.9-5.5c1 17.2-8.3 26.9-8.3 26.9.1-2.7.1-4.8.1-6.7 0-1 0-1.9-.1-2.7 0 0 3.2-4.3 3.4-12z"/><path id="XMLID_763_" class="st5" d="M80.5 70.1v-3.4L69.6 54.9 67.5 56l.2.2 12.8 14.6z"/><circle id="XMLID_762_" transform="matrix(-.999 .04566 -.04566 -.999 101.83 179.85)" class="st5" cx="48.9" cy="91.1" r=".4"/><circle id="XMLID_761_" transform="matrix(-.9991 .04318 -.04318 -.9991 102.36 177.316)" class="st5" cx="49.3" cy="89.8" r=".4"/><circle id="XMLID_760_" transform="matrix(-.999 .04567 -.04567 -.999 103.326 174.518)" class="st5" cx="49.7" cy="88.4" r=".4"/><path id="XMLID_759_" class="st5" d="M49.7 87.1c0-.2.2-.4.4-.4s.4.2.4.4-.2.4-.4.4-.4-.1-.4-.4z"/><circle id="XMLID_757_" transform="rotate(177.387 50.478 85.79) scale(1.00004)" class="st5" cx="50.5" cy="85.8" r=".4"/></g><path class="st4" d="M18.9 135.2H81V16.4H18.4v118.7h.5v.1zm.4-1V17.4H80v116.8H19.3z"/><path id="XMLID_24_" class="st1" d="M33.6 27.2c-2.6-3.6-3.4-6.6-3.4-6.6s-.7 3-3.4 6.6c-2.6 3.6-5.1 4.6-5.1 4.6s2.4 1 5.1 4.6c2.6 3.6 3.4 6.6 3.4 6.6s.7-3 3.4-6.6c2.6-3.6 5.1-4.6 5.1-4.6s-2.4-1-5.1-4.6z"/><path id="XMLID_23_" class="st1" d="M65.8 124.4c2.6 3.6 3.4 6.6 3.4 6.6s.7-3 3.3-6.6c2.6-3.6 5.1-4.6 5.1-4.6s-2.4-1-5.1-4.6c-2.6-3.6-3.3-6.6-3.3-6.6s-.7 3-3.4 6.6c-2.6 3.6-5.1 4.6-5.1 4.6s2.5 1 5.1 4.6z"/><path id="XMLID_22_" class="st2" d="M12.7 30.9s1.4 4.5 4.6 6.3c0 0-3.2 1.7-4.6 6.2-1.4-4.6-4.6-6.2-4.6-6.2 3.2-1.9 4.6-6.3 4.6-6.3z"/><path id="XMLID_21_" class="st2" d="M86.7 120.7s-1.4-4.5-4.6-6.3c0 0 3.2-1.7 4.6-6.2 1.4 4.6 4.6 6.2 4.6 6.2-3.2 1.9-4.6 6.3-4.6 6.3z"/><path class="st1" d="M17.3 26.6s-1.1.2-2.1-.6c-.7.7-1.7 1.1-2.8 1.1-2.3 0-4.1-1.8-4.1-4.1v-2.5H7.2v-1.8h1.1v-3.9c0-2.3 1.9-4.1 4.1-4.1 2.3 0 4.1 1.8 4.1 4.1V23c0 .5-.1 1.1-.3 1.5.3.3.7.4 1 .5v1.6h.1zm-4.9-1.2c.6 0 1.2-.2 1.6-.6-.5-.8-.9-1.5-1.5-2.2-.9-.9-1.7-1.3-2.4-1.6v2.1c-.1 1.2 1 2.3 2.3 2.3zm0-12.9c-1.3 0-2.4 1-2.4 2.3V19c.2.1.5.1.7.2 2 .8 3.2 2.2 4 3.4v-7.8c0-1.3-1-2.3-2.3-2.3zM82.2 125s1.1-.2 2.1.5c.7-.7 1.7-1.1 2.8-1.1 2.3 0 4.1 1.8 4.1 4.1v2.5h1.1v1.8h-1.1v3.9c0 2.3-1.9 4.1-4.1 4.1-2.3 0-4.1-1.8-4.1-4.1v-8.2c0-.5.1-1.1.3-1.5-.3-.3-.7-.4-1-.5V125h-.1zm4.8 1.2c-.6 0-1.2.2-1.6.6.5.8.9 1.5 1.5 2.2.9.9 1.7 1.3 2.4 1.6v-2.1c.1-1.2-1-2.3-2.3-2.3zm0 12.9c1.3 0 2.4-1 2.4-2.3v-4.2c-.2-.1-.5-.1-.7-.2-2-.8-3.2-2.2-4-3.4v7.8c0 1.3 1 2.3 2.3 2.3z"/></g></svg>