<svg xmlns="http://www.w3.org/2000/svg" viewBox="0 0 99.4 151.6" style="enable-background:new 0 0 99.4 151.6" xml:space="preserve"><style>.st1{fill-rule:evenodd;clip-rule:evenodd}.st1,.st2{fill:#e52529}</style><g id="Calque_2"><path id="XMLID_15_" d="M99.3 5.3v140.9c0 2.9-2.3 5.2-5.2 5.2H5.3c-2.9 0-5.2-2.3-5.2-5.2V5.3C.1 2.4 2.4.1 5.3.1H94c2.9 0 5.3 2.4 5.3 5.2z" style="fill:#fff;stroke:#000;stroke-width:.25;stroke-miterlimit:2.6131"/></g><g id="Calque_1"><path class="st1" d="m13.1 13.9 1.5 7.2h-2.9l1.4-7.2zM7.7 27.1h4.6v-1.8h-1.4l.5-2.5H15l.5 2.5h-1.2v1.8h4.5v-1.8h-1.2l-3.2-14.7H12L8.8 25.3H7.7v1.8zM86.3 137.7l-1.5-7.2h2.9l-1.4 7.2zm5.5-13.2h-4.6v1.8h1.4l-.5 2.5h-3.6l-.5-2.5h1.2v-1.8h-4.5v1.8h1.2l3.2 14.7h2.2l3.2-14.6h1.1v-1.9h.2z"/><path id="XMLID_17_" class="st2" d="M49.7 69.5s1.4 4.5 4.7 6.3c0 0-3.2 1.7-4.7 6.2-1.5-4.6-4.7-6.2-4.7-6.2 3.3-1.8 4.7-6.3 4.7-6.3z"/><path id="XMLID_16_" class="st2" d="M49.7 82.1s-1.4-4.5-4.7-6.3c0 0 3.2-1.7 4.7-6.2 1.5 4.6 4.7 6.2 4.7 6.2-3.3 1.8-4.7 6.3-4.7 6.3z"/><path id="XMLID_14_" class="st2" d="M49.7 100.1s-5.5-17.4-18.2-24.4c0 0 12.5-6.4 18.2-24.2 5.7 17.7 18.2 24.2 18.2 24.2-12.7 7-18.2 24.4-18.2 24.4z"/></g></svg>