<svg xmlns="http://www.w3.org/2000/svg" viewBox="0 0 99.4 151.6" style="enable-background:new 0 0 99.4 151.6" xml:space="preserve"><style>.st1{fill-rule:evenodd;clip-rule:evenodd}.st1,.st2{fill:#e52529}.st3{fill:#ffdd09}.st4{fill-rule:evenodd;fill:#ffdd09}.st4,.st5{clip-rule:evenodd}.st5{fill-rule:evenodd}.st5,.st6{fill:#111a16}.st7{fill:#dc3538}</style><g id="Calque_2"><path id="XMLID_15_" d="M99.3 5.3v140.9c0 2.9-2.3 5.2-5.2 5.2H5.3c-2.9 0-5.2-2.3-5.2-5.2V5.3C.1 2.4 2.4.1 5.3.1H94c2.9 0 5.3 2.4 5.3 5.2z" style="fill:#fff;stroke:#000;stroke-width:.25;stroke-miterlimit:2.6131"/></g><g id="Calque_1"><path class="st1" d="M552.8 134.6c-3.2-4.4-4.1-8-4.1-8s-.9 3.7-4.1 8c-3.2 4.4-6.2 5.6-6.2 5.6s3 1.2 6.2 5.6c3.2 4.4 4.1 8 4.1 8s.9-3.7 4.1-8c3.2-4.4 6.2-5.6 6.2-5.6s-2.9-1.3-6.2-5.6zM510.8 134.6c-3.2-4.4-4.1-8-4.1-8s-.9 3.7-4.1 8c-3.2 4.4-6.2 5.6-6.2 5.6s3 1.2 6.2 5.6c3.2 4.4 4.1 8 4.1 8s.9-3.7 4.1-8c3.2-4.4 6.2-5.6 6.2-5.6s-3-1.3-6.2-5.6zM531.8 177.1c-3.2-4.4-4.1-8-4.1-8s-.9 3.7-4.1 8c-3.2 4.4-6.2 5.6-6.2 5.6s3 1.2 6.2 5.6c3.2 4.4 4.1 8 4.1 8s.9-3.7 4.1-8c3.2-4.4 6.2-5.6 6.2-5.6s-3-1.2-6.2-5.6zM552.8 219.7c-3.2-4.4-4.1-8-4.1-8s-.9 3.7-4.1 8c-3.2 4.4-6.2 5.6-6.2 5.6s3 1.2 6.2 5.6c3.2 4.4 4.1 8 4.1 8s.9-3.7 4.1-8c3.2-4.4 6.2-5.6 6.2-5.6s-2.9-1.3-6.2-5.6zM510.8 219.7c-3.2-4.4-4.1-8-4.1-8s-.9 3.7-4.1 8c-3.2 4.4-6.2 5.6-6.2 5.6s3 1.2 6.2 5.6c3.2 4.4 4.1 8 4.1 8s.9-3.7 4.1-8c3.2-4.4 6.2-5.6 6.2-5.6s-3-1.3-6.2-5.6z"/><path class="st2" d="M486.7 117.5h7.8v1.8h-6l-.2 3s2.8-1.6 5.5.7c.5.4 2.9 2.9 1.4 7.8-.3 1-2 3.6-5.6 3.1-.2 0-2.9-.7-3.9-3.7l1.7-.4s1.3 2.7 3.1 2.5c.9-.1 3.3-.7 3.2-4.6 0-.3 0-3.7-2.9-4.2-1-.2-2.2 0-3.9 1.7l-.8-.5.6-7.2zM568.8 247.8h-7.9V246h6l.2-3s-2.8 1.6-5.5-.7c-.5-.4-2.9-2.9-1.4-7.8.3-1 2-3.6 5.6-3.1.2 0 2.9.7 3.9 3.7l-1.7.4s-1.3-2.7-3.1-2.5c-.9.1-3.3.7-3.2 4.6 0 .3 0 3.7 2.9 4.2 1 .2 2.2 0 3.9-1.7l.8.5-.5 7.2zM490.8 137.7s1.4 4.5 4.7 6.3c0 0-3.2 1.7-4.7 6.2-1.5-4.6-4.7-6.2-4.7-6.2 3.3-1.8 4.7-6.3 4.7-6.3zM564.7 227.6s-1.4-4.5-4.7-6.3c0 0 3.2-1.7 4.7-6.2 1.5 4.6 4.7 6.2 4.7 6.2-3.3 1.8-4.7 6.3-4.7 6.3z"/><path class="st1" d="M552.8 134.6c-3.2-4.4-4.1-8-4.1-8s-.9 3.7-4.1 8c-3.2 4.4-6.2 5.6-6.2 5.6s3 1.2 6.2 5.6c3.2 4.4 4.1 8 4.1 8s.9-3.7 4.1-8c3.2-4.4 6.2-5.6 6.2-5.6s-2.9-1.3-6.2-5.6zM510.8 134.6c-3.2-4.4-4.1-8-4.1-8s-.9 3.7-4.1 8c-3.2 4.4-6.2 5.6-6.2 5.6s3 1.2 6.2 5.6c3.2 4.4 4.1 8 4.1 8s.9-3.7 4.1-8c3.2-4.4 6.2-5.6 6.2-5.6s-3-1.3-6.2-5.6zM531.8 177.1c-3.2-4.4-4.1-8-4.1-8s-.9 3.7-4.1 8c-3.2 4.4-6.2 5.6-6.2 5.6s3 1.2 6.2 5.6c3.2 4.4 4.1 8 4.1 8s.9-3.7 4.1-8c3.2-4.4 6.2-5.6 6.2-5.6s-3-1.2-6.2-5.6zM552.8 219.7c-3.2-4.4-4.1-8-4.1-8s-.9 3.7-4.1 8c-3.2 4.4-6.2 5.6-6.2 5.6s3 1.2 6.2 5.6c3.2 4.4 4.1 8 4.1 8s.9-3.7 4.1-8c3.2-4.4 6.2-5.6 6.2-5.6s-2.9-1.3-6.2-5.6zM510.8 219.7c-3.2-4.4-4.1-8-4.1-8s-.9 3.7-4.1 8c-3.2 4.4-6.2 5.6-6.2 5.6s3 1.2 6.2 5.6c3.2 4.4 4.1 8 4.1 8s.9-3.7 4.1-8c3.2-4.4 6.2-5.6 6.2-5.6s-3-1.3-6.2-5.6z"/><path class="st2" d="M486.7 117.5h7.8v1.8h-6l-.2 3s2.8-1.6 5.5.7c.5.4 2.9 2.9 1.4 7.8-.3 1-2 3.6-5.6 3.1-.2 0-2.9-.7-3.9-3.7l1.7-.4s1.3 2.7 3.1 2.5c.9-.1 3.3-.7 3.2-4.6 0-.3 0-3.7-2.9-4.2-1-.2-2.2 0-3.9 1.7l-.8-.5.6-7.2zM568.8 247.8h-7.9V246h6l.2-3s-2.8 1.6-5.5-.7c-.5-.4-2.9-2.9-1.4-7.8.3-1 2-3.6 5.6-3.1.2 0 2.9.7 3.9 3.7l-1.7.4s-1.3-2.7-3.1-2.5c-.9.1-3.3.7-3.2 4.6 0 .3 0 3.7 2.9 4.2 1 .2 2.2 0 3.9-1.7l.8.5-.5 7.2zM490.8 137.7s1.4 4.5 4.7 6.3c0 0-3.2 1.7-4.7 6.2-1.5-4.6-4.7-6.2-4.7-6.2 3.3-1.8 4.7-6.3 4.7-6.3zM564.7 227.6s-1.4-4.5-4.7-6.3c0 0 3.2-1.7 4.7-6.2 1.5 4.6 4.7 6.2 4.7 6.2-3.3 1.8-4.7 6.3-4.7 6.3z"/><path class="st1" d="M552.8 134.6c-3.2-4.4-4.1-8-4.1-8s-.9 3.7-4.1 8c-3.2 4.4-6.2 5.6-6.2 5.6s3 1.2 6.2 5.6c3.2 4.4 4.1 8 4.1 8s.9-3.7 4.1-8c3.2-4.4 6.2-5.6 6.2-5.6s-2.9-1.3-6.2-5.6zM510.8 134.6c-3.2-4.4-4.1-8-4.1-8s-.9 3.7-4.1 8c-3.2 4.4-6.2 5.6-6.2 5.6s3 1.2 6.2 5.6c3.2 4.4 4.1 8 4.1 8s.9-3.7 4.1-8c3.2-4.4 6.2-5.6 6.2-5.6s-3-1.3-6.2-5.6zM531.8 177.1c-3.2-4.4-4.1-8-4.1-8s-.9 3.7-4.1 8c-3.2 4.4-6.2 5.6-6.2 5.6s3 1.2 6.2 5.6c3.2 4.4 4.1 8 4.1 8s.9-3.7 4.1-8c3.2-4.4 6.2-5.6 6.2-5.6s-3-1.2-6.2-5.6zM552.8 219.7c-3.2-4.4-4.1-8-4.1-8s-.9 3.7-4.1 8c-3.2 4.4-6.2 5.6-6.2 5.6s3 1.2 6.2 5.6c3.2 4.4 4.1 8 4.1 8s.9-3.7 4.1-8c3.2-4.4 6.2-5.6 6.2-5.6s-2.9-1.3-6.2-5.6zM510.8 219.7c-3.2-4.4-4.1-8-4.1-8s-.9 3.7-4.1 8c-3.2 4.4-6.2 5.6-6.2 5.6s3 1.2 6.2 5.6c3.2 4.4 4.1 8 4.1 8s.9-3.7 4.1-8c3.2-4.4 6.2-5.6 6.2-5.6s-3-1.3-6.2-5.6z"/><path class="st2" d="M486.7 117.5h7.8v1.8h-6l-.2 3s2.8-1.6 5.5.7c.5.4 2.9 2.9 1.4 7.8-.3 1-2 3.6-5.6 3.1-.2 0-2.9-.7-3.9-3.7l1.7-.4s1.3 2.7 3.1 2.5c.9-.1 3.3-.7 3.2-4.6 0-.3 0-3.7-2.9-4.2-1-.2-2.2 0-3.9 1.7l-.8-.5.6-7.2zM568.8 247.8h-7.9V246h6l.2-3s-2.8 1.6-5.5-.7c-.5-.4-2.9-2.9-1.4-7.8.3-1 2-3.6 5.6-3.1.2 0 2.9.7 3.9 3.7l-1.7.4s-1.3-2.7-3.1-2.5c-.9.1-3.3.7-3.2 4.6 0 .3 0 3.7 2.9 4.2 1 .2 2.2 0 3.9-1.7l.8.5-.5 7.2zM490.8 137.7s1.4 4.5 4.7 6.3c0 0-3.2 1.7-4.7 6.2-1.5-4.6-4.7-6.2-4.7-6.2 3.3-1.8 4.7-6.3 4.7-6.3zM564.7 227.6s-1.4-4.5-4.7-6.3c0 0 3.2-1.7 4.7-6.2 1.5 4.6 4.7 6.2 4.7 6.2-3.3 1.8-4.7 6.3-4.7 6.3z"/><path id="XMLID_324_" class="st3" d="M62.9 77.3c-.2-2.2-.1-2.5-.1-3.3 0-1.2 0-5 .6-7.7.1-.6.4-1.9.4-1.9l-.4-.4h-2.9l-.1-3.4-3-.3-6.7 8 2.6.3.1 3.7 3.1.1.3 3.3 2.6.3.3 3.5 2.5.2.4 3.2 1.2-.1c-.1-.1-.6-1.9-.9-5.5z"/><path id="XMLID_323_" class="st4" d="M41.7 33.2c-.2.1-.2.4-.2.4l-.1.5c-.2.9-.5 1.7-.6 1.7-.1.2-.1.3-.2.3h-.2c-.3-.2-.7-.2-.9-.1-.7.4-.7 1.1-.7 1.1 0 .4.1.7.4.9.4.3.9.2 1 .2.8-.1 1.4-1 1.7-1.7.6-1.7.3-3 .3-3.1l-.2-.1c-.1-.1-.3-.1-.3-.1z"/><path id="XMLID_322_" class="st3" d="M43.8 62.3c-.3.1-.5.4-.6.6-.2.3-1.4 2.1-2.3 3.7-.7 1.2-1.1 2.3-1.1 2.3s0 1.8.3 1.9c.2.1.8-1.6 1.3-2.5.8-1.4 1.5-2.6 1.7-2.9 1.1-1.5 1.7-2.4 1.5-2.7-.3-.4-.6-.5-.8-.4z"/><path id="XMLID_321_" class="st3" d="M36.7 49.7v19.2l-1.3-1.7-.3-.8V53.1c0 .1 1.1-2.1 1.6-3.4z"/><path id="XMLID_320_" class="st3" d="M78.2 58.3c-.9.2-2.3 0-2.3 0v49.5l4.3 4.3V56.9s-.9 1.2-2 1.4z"/><path id="XMLID_319_" class="st3" d="M42.1 48c.4.1 1.1.3 1.8.4 1.8.3 2.2.2 2.2.2.1 0 .3-.1.4-.1.1 0 .1-.1.1-.2 0-.3-.3-.7-1-.6 0 0-.1 0-.1.1.1-.1.1-.2.1-.3 0-.2 0-.3-.2-.4-.2-.2-.6-.1-.7 0 .1-.1.2-.3.2-.4 0-.1-.1-.5-.4-.7-.1-.1-.2-.1-.4 0 0-.1.1-.2.1-.3 0 0 0-.4-.3-.6-.1-.1-.2-.1-.4-.1.1-.2.2-.3.2-.5 0-.1-.1-.7-.5-.8h-.3c.2-.3.2-.6.2-.8v-.1c0-.4-.1-.8-.4-.9-.1 0-.2-.3-.2-.5.1-.3.1-.6.1-.9 0-.4 0-.6-.1-.7 0 0-.1-.5-.5-.4-.3.1-.3.4-.3.4-.1.4-.3 1.1-.4 1.4 0 0-.1.2-.3.5-.1.1-.3.1-.3-.1-.2-.7-.6-1.1-.9-1.2-.6-.2-1.1-.2-1.5.1-.7.4-.7 1.5-.8 1.9 0 .4.2 1.5.2 1.5l-.4.2-2.7 1.7-8.4 4.6-3 1.7V63c1.4-.8 4.3-4 7-7.9 2.4-3.5 4.2-7.5 4.4-8.7v-.2c.2.4.9 1.5 2 2.9.9 1.1 2.1 2.3 3.5 3.4.6.4 1.6 1.1 2.6 1.5.9.4 1.7.6 1.7.6l-.4 1.1s-.8.9-1.2 1.9c-.3.6-.3 1.4-.3 1.8 0 .9.4 1.7.8 2.3.6.8 1.4 1.1 2.3 1.1 1.1 0 1.9-.4 2.5-1.2.5-.6.8-1.2.8-2.2 0-.4.1-1.4.1-1.6.1-.9.6-2.4.6-2.4h.1c.4 0 1.5.2 3.1-.1 1.3-.2 3-.7 4.9-1.6 1.2-.5 2.8-1.6 4.4-2.9.9-.8 2.5-2.6 2.5-2.6s.5.1 1.3 0c.4 0 .8-.2 1.2-.2 1-.2 1.6-.9 1.8-1.2.2-.3.8-.6 1.2-.9.4-.4.9-1.3.9-2.1s-.4-2-1.3-2.3c-.9-.3-1.4.1-1.7.2-.4.1-.5.1-.9-.9s-1.1-3-1.6-4.3c-.2-.6-.9-3.1-1.3-4.7-.3-1.2-.5-2.2-.6-2.8-.1-.3 0-.2-.1-.4-.1-.6-1.3-.6-1.3-.6-.5-.5-1.1-.3-1.1-.3-.4-.6-1-.2-1-.2-.3-.6-1-.3-1-.3-.5-.5-1 0-1 0 0-.2-.3-.5-.7-.5-.3 0-.5.3-.5.3-.1-.3-.4-.4-.6-.4-.4.1-.6.5-.5.8.6 4.3 2.2 10.1 2.2 10.1s-.7.5-1.2 1.6c-.5 1-1.1 2.8-.1 5.1.2.5.5.9.8 1.3.6.7 1.6 1.3 1.9 1.5.1.1 0 .3-.2.5-.3.3-.9.7-1.1.8-.7.5-1.7 1.1-2.8 1.6-1.4.7-4.1 1-4.1 1h-.4c-.1-.7-.2-1-.7-1.5-.6-.7-1.6-.7-1.6-.7-.9.1-1.6 1.1-2 2 0 0-2.2-.6-4.5-2.5-.1-.1-.4-.4.1-.2z"/><path id="XMLID_318_" class="st3" d="m75.7 25.3 4.4-5v28.2l-4.2 1.6V37.9s-2.6-1-4.8-3.5c-1.4-1.6-2.7-3.9-3.2-6.9 0 0 3.8 2.9 7.9 4.1v-6.3z"/><path class="st2" d="m34.6 17.1 7.2 9.9s5.6-1.2 11.2-.8c2.3.1 4.3.5 6.1.9 2.4.6 4.5 1.4 4.5 1.4L70.4 17l-35.8.1zm8 7.4-4.2-7h1.4l3.3 5.6 2.4-.5-1.6-5.1H45l1.8 6.2c-2.8.3-4.2.8-4.2.8zm14.3-.4c-4.1-.8-7.9-.6-7.9-.6l-1.6-6.1h1.1l1.3 4.9s2.1-.1 3 0c.9.1 3.1.3 3.1.3l.8-5.2h1.1l-.9 6.7zm6.5 1.4c-2.2-.7-4.5-1.2-4.5-1.2l1.3-6.9h1.3l-1.2 5.8c1.2.4 2.6.7 2.6.7l3.4-6.6h1.3l-4.2 8.2z"/><path id="XMLID_313_" class="st2" d="M68.9 55.1c-.9 1.5-1.8 3.4-2.6 5.7-1 2.8-1.9 6.1-2.2 10.3-.1 2.2-.1 4.6.2 6.8.2 2.2.6 4.3 1.1 6 .3 1 .5 1.9.8 2.7 1.2 3.2 2.3 4.9 2.3 4.9l1.5-1.8c-.6-.9-1.3-2.3-1.9-4.3-1.2-3.4-2.3-8.1-2-12.8.2-3.5 1.1-7.8 2.5-11.4 1.8-4.8 4.6-7.8 4.6-7.8l-.7-3c0-.1-1.7 1.4-3.6 4.7z"/><path id="XMLID_312_" class="st2" d="M73.1 58.4s-1.7 2.5-2.9 6.1c-.9 2.9-1.5 6.7-1.4 10.2.1 3.1.8 6 1.4 8.2.7 2.2 2 4.5 2 4.5s1.4-1.2 1.9-1.6c.5-.4 1.9-1.4 1.9-1.4V58.7s-1.6-.7-1.7-.7c-.9-.3-1.2.3-1.2.4z"/><path id="XMLID_311_" class="st2" d="M44.6 62.9s-1.6 2.3-2.8 4.3c-.5.9-1.1 1.9-1.5 2.9-.5 1.2-.6 1.7-.7 2.3l.9 1.1 1.2-1.4s.3-1.9 1.6-3.8c1-1.4 2.7-3.7 3-4.7 0 0 .2-.5 0-.7-.1-.1-.6-.3-.8-.3-.7-.1-.9.3-.9.3z"/><path id="XMLID_310_" class="st2" d="M35.3 52.8v14s-1-3.3-1.6-4.6c-.5-1.1-1.9-3.5-1.9-3.5s2.3-3.4 3.5-5.9z"/><g id="XMLID_1058_"><path id="XMLID_1161_" class="st5" d="M48.5 38.2s-.4-.2-.7.1c-.2.1-.3.4-.3.9 0 0 .2.6.7.2 0 0 .3-.2.6.1 0 0 1.2.7 1.9.1.2-.2.6-.7.4-1.4-.1-.2-.2-.5-.5-.8 0 0-.2-.2-.3-.1 0 0-.1.1 0 .4.1.2.2.3.3.5 0 0 .1.3 0 .6-.1.1-.2.3-.5.3 0 0-.4.1-.7-.2.1-.1-.5-.5-.9-.7z"/><path id="XMLID_1156_" class="st5" d="M56.1 33.7c-1.2-1.2-1.9-1.8-2.9-2-2.1-.4-2.9.8-3.1.5-.2-.1.4-.4.6-.5.8-.5 2-.5 2-.5 1.3 0 3 1.8 3 1.8.5.4.3-.2.3-.2-.4-.4-1.5-1.4-1.5-1.4-2.2-1.8-4.7.3-4.7.3-.4.3-.5 0-.5 0-.2-.2-.3 0-.3.1 0 .2.2.5.3.7.2.2.2.5.2.5 0 .5.3 1 .3 1 .9 1.6 2.3 2.5 2.3 2.5.6.2.2-.4.2-.4-.7-.5-1.2-1.2-1.2-1.2-.2-.2 0-.3 0-.3 1.7.8 3.5-.6 3.5-.6.1-.2.6 0 .6 0 .5.1.8.1.9 0 .3 0 0-.3 0-.3zm-5 .4c-.2.1-.5-.1-.7-.3-.2-.2-.1-.4 0-.5.2-.1.4 0 .4 0 .2.2.5.8.3.8zm1.4.4s-.5.1-.8-.3c-.1-.1-.3-.4-.4-1 0 0 .1-.4.3-.1 0 0 .2 1.1.7 1.1.5 0 .8-.6.8-1.1 0 0 .2-.2.3.1 0-.1-.2 1.3-.9 1.3zm1.3-.3c-.4.1-.5 0-.3-.2.1-.2.3-.8.3-.8.3-.3.8.3.8.3.1.4-.5.5-.8.7z"/><g id="XMLID_1152_"><path id="XMLID_1155_" class="st6" d="M47.3 41.6c-.4-.3-.7 0-.7 0-.6.5-1.2 0-1.2 0-.1 0-.2 0-.2.3 0 .4-.1 1.2-.1 1.5.1.6.4.1.4.1.2-.5.7-.5.7-.5.2 0 .4-.1.7.1.5.2 1 .1 1 .1.6 0 1.4-.4 1.4-.4 1-.2 1.6.5 1.6.5.2.2.3.2.4.1.1-.1 0-.4 0-.4s-.3-1.2-.3-1.4c-.1-.3-.3-.1-.4 0-.6.4-1.2.1-1.2.1-.7-.4-1.3 0-1.3 0-.3.3-.8-.1-.8-.1z"/><path id="XMLID_1154_" class="st6" d="M49.8 43.9c.1-.1.1-.3 0-.3-.1-.1-.3.1-.3.1-.4.2-1 .3-1.5.3-.8 0-1.4-.4-1.4-.4-.4-.1-.3.2-.3.2.3.4 1 .7 1.8.7 1.2 0 1.7-.6 1.7-.6z"/><path id="XMLID_1153_" class="st6" d="M49.7 45.6c-.5-.3-.8-.4-1.4-.5-1.1-.1-1.7.6-1.7.6-.2.2 0 .4 0 .4.2.1.5-.1.5-.1 1-.6 2.3 0 2.3 0 .7.3.6.1.6.1.2-.2-.3-.5-.3-.5z"/></g><g id="XMLID_1059_"><path id="XMLID_1151_" class="st6" d="M49 30.9s.3.1.7-.1c0 0 1.7-1 4.1-.5 0 0 1.3.3 1.8.7 0 0 .5.3.3-.3 0 0-1.2-1.6-3.9-1.7 0 0-1.5-.1-2.8.7 0 0-1.1.8-.2 1.2z"/><path id="XMLID_1060_" class="st6" d="M75.4 25.2v6.1s-4.8-1.5-8-4.6c0 0 .8 7.9 8 11.1v6.1s.2 1-.4.7c0 0-.5-.3-.8.6 0 0-.4 1-.5 1.8 0 0-.2.9-1.2.5-.5-.1-1.4-.9-2.2-1.7.7-.9.9-1.7.8-2.3 0-.2-.1-.8-.3-1.3-.3-.6-.9-.9-1.1-1-.8-.2-1.5.2-1.5.2-.2.1-.4.1-.5 0-.3-.2-.4-.7-.4-.7-.3-.3-1.6-3.7-2.3-6-.5-1.6-.9-3.2-1.1-4.6-.1-.3-.1-.7-.2-.8v-.2l.5-1 6.4-11h-.9L63.4 28s-5.2-1.8-10.6-2.1c-5.6-.4-10.8.7-10.8.7L35.2 17h-1.1l7.5 10.4c.2.7.1.9.1 2.2-.1 1.3-.1 2.2-.4 3.3-.3 1.3-.2 1.1-.6 2.5-.1.4-.4.3-.4.3-1.4-.3-1.6 1-1.6 1-.2 1.9 1.4 1.6 1.4 1.6 1.1-.1 1.7-1.6 1.7-1.6.6-.5 0 2.6 0 2.6-.4 2.3-.8 1.8-.8 1.8-1-2.1-2.4-1.1-2.4-1.1-1.5.7-.9 3.3-.9 3.3-2.5 2-14.6 8.2-14.6 8.2v15.9c2.9-1.7 5.6-4.4 7.7-7.4 3.9-5.2 6.1-10.5 6.1-10.5.4.6 2.4 2.2 2.4 2.2V72l.3.3c0-.8 1.1-3.4 2.2-5.3 1.2-2 2.9-4.3 2.9-4.3.2-.4 1-.2 1-.2.6.1.4.5.4.5-.2.9-3 4.8-3 4.8-1.1 1.6-1.7 4-1.7 4l-1.1 1.3.2.2 16.5-19c5-2.3 7.6-6 7.6-6 1 .1 1.9-.1 1.9-.1.3-.1.5-.1.6.2-1.1 1.4-7.5 9-9.3 11.1-1.9 2.3-7.3 8.6-7.3 8.6l.6.1.8-.9h1.8l.2-.3h-1.8l.9-1h1.8l.3-.3h-1.8l.7-1h2l.3-.4h-1.9l.9-1h1.9l.2-.3h-1.8l.8-.9h1.8l.2-.4h-1.8l.8-1 2.7.2.1 3.1-.8.9-.2-2.4-.3.3.2 2.5-.9 1-.1-2.4-.3.3.2 2.3-.8.9V65l-.3.3v2.6l-.7.8-.1-2.2-.2.2.1 2.3-.9 1.1-.1-2.2-.2.2.1 2.4-1.3 1.7h.3l1-1.2 1.9.1.3-.3-1.9-.1.8-1 2 .1.3-.4-2-.1.7-.9 2 .1.4-.4-2.1-.1.8-1h2.1l.3-.4-2.1-.2.8-.9h2.2l.3-.3-2.1-.1.8-1 3.1.2s-.3 1-.4 1.8c-.1.8-.3 2.2-.3 2.2l-.2-2.1-.3.3.2 2-.8 1.1-.1-2.3-.3.4.1 2.2-.8 1.1v-2.4l-.3.3-.1 2.4-.9 1.2v-2.4l-.3.3v2.5l-.8 1v-2.5l-.3.3.1 2.5-1.1 1.3h.5l.7-.9H60l.2-.3h-1.8l.7-.9 2-.1.1-.3h-1.8l.9-1.1h2v-.3h-1.7l1-1.2 1 .1s-.1 1.5-.1 2.6.1 2.9.1 2.9l-.4.3-.2-2.1h-.3l.1 2.6-.6.8-.1-2.3-.2.2V78l-1.3 1.4.5.1 1.1-1.2h1.5s.2 2.2.7 4.6c.4 2 1.1 4.8 2.7 8.1.3.7 1.3 2.2 1.3 2.2s2.9-3.6 4.6-5.3c1.8-1.8 3.8-3.1 3.8-3.1V108l4.7 5.1V19.4l-5.1 5.8zM41.6 36.4c-.3.7-.8 1.5-1.5 1.6 0 0-1 .2-1-.8 0 0-.1-.6.5-.9 0 0 .4-.2.8.2 0 0 .4.2.6-.5 0 0 .6-1.5.7-2.3 0 0 .1-.4.3-.2-.1 0 .2 1.3-.4 2.9zm20.2 33.8.9-1.2-.1 1.2h-.8zm-.2 7.7 1-1.2v1.1l-1 .1zM68.1 28s5 4.5 11.7 4.5v5.8c0 .1-8.9.1-11.7-10.3zm9.5 29c-.2-.3.1-.4.1-.4.2-.1 1.3-.6 1.3-.6.7-.3.7.6.7.6-.2 1.1-1.6 1.4-1.6 1.4-.6.1-.5-.3-.5-.3.2-.3 0-.7 0-.7zm-.4-2c-.4-.3.1-.5.1-.5.5-.1 1.6-.7 1.6-.7.8-.3.8.7.8.7 0 .9-1.7 1.5-1.7 1.5-.9.4-.7-.2-.7-.2.1-.4-.1-.8-.1-.8zm-.6-4.6s-.2 0-.1.2c.1.1.2.3.2.6 0 .4-.3.8-.7.8-.4 0-.7-.3-.7-.8 0-.2.1-.4.2-.5 0 0 .2-.5 2.6-1.3 0 0 .7-.3 1.1.2 0 0 .7.9-.2 1.4 0 0-1.2.5-1.5.6 0 0-.6.3-.6-.3.1 0 .3-.9-.3-.9zm.6 2.4c-.4-.7.4-.7.4-.7.4-.1.8-.4 1-.5.7-.3.8-.1.8-.1.5.7 0 1.4 0 1.4-.2.3-1.5.9-1.5.9-.6.3-.6-.2-.6-.2.2-.4-.1-.8-.1-.8zm0 4.6c0 .3-.2.5-.4.5s-.4-.2-.4-.5.2-.5.4-.5.4.2.4.5zm.5-8.2c-.6.3-1.6.5-1.6.5V38s.9.4 1.8.6c.7.1 1.9.3 1.9.3v9.4c0-.1-.8.4-2.1.9zm-3.3-3.1c.1-.4.3-.8.5-.7.2 0 .2.4.1.9-.1.4-.3.8-.5.7-.1-.1-.1-.5-.1-.9zm-1.1 2.8s.4-1.6 1.2-1.4c0 0 .2.1.4-.1.2-.1.3-1.3.6-.9 0 0 .2 1.3-.3 1.9 0 0 .1 1.5 0 2.2 0 .1-.1.4-.1.5.1.6.3 1.9.1 2.1 0 0-.4 1.2-.2 1.5 0 0 .6-.6.5.1 0 0-.1 1.2.2 1.7l-.1.9s.3 1.3-1.2.5c0 0-.7-.2-.8-2.5 0 0 0-1.9-.3-2.8-.1.1-.6-2.1 0-3.7zm-1.3-.8c-.2.7-.6 1.1-1 1.3l-2-2.2c.1-.4.6-.6.8-.6.1-.1.6-.2 2.2 1.5zm-1.9 2.3c0 .5-.2.8-.7 1.1l-2.1-2.3c.1-.4.4-.9.8-.8l2 2zm-7.2-21.9c.4-.1.5.5.6.8 0 0 .8 3.8 1.8 7.3.6 1.8 1.7 4.9 2.2 5.7l-.2.4c-.1.2-.1.6-.1.6s-1.1-1.5-2.4-5.7c-.7-2.5-1.7-5.6-2.1-8.3 0-.1-.3-.7.2-.8zm-1.1-.3c.3 0 .6 1.5.6 1.5.4 2.4 2.1 8.1 2.1 8.1 1 3.5 2.8 6.5 2.8 6.5.5.6.8.9 1.4.9 1.3 0 1.4-1.2 1.4-1.2 0-1.4-1-1.3-1-1.3-1.2 0-.8 1.1-.8 1.1.2-.4.4-.6.7-.6.4 0 .7.4.7.4.2 1.3-.9 1.4-.9 1.4-.6-.1-.9-.4-1.2-1-.3-1.2.6-1.7.6-1.7 2.3-1.3 2.7 1.5 2.7 1.5-.1 2.5-1.9 2.5-1.9 2.5-1.2 0-2.4-1.4-3.1-2.8-1.2-2.7-1.4-3.4-2.1-5.5-.7-2.1-2.3-9.2-2.3-9.2-.2-.7.3-.6.3-.6zm-1.2-.4c.3 0 .4.4.4.4l1.6 6c1 4.6 2.8 8.6 2.8 8.6.5 1 .8 1.6 1.2 2.3.8.9 1.6 1.2 1.6 1.2.9.3.4.8.4.8-.9.4-1.8-.6-1.8-.6-2-1.6-4-8.5-4-8.5-.3-.8-2.4-9.4-2.4-9.4-.1-.4-.1-.8.2-.8zm-4.2-.7c.3 0 .4.4.4.6 0 .1.6 3.8 1.7 8.4.5 1.9 1.1 3.8 1.9 5.8.7 1.8 1.4 3.7 2.1 5 .1.2.3.5.1.6-.3.2-.5-.2-.7-.5-.8-1.5-1.5-3.2-2.2-5-1.3-3.6-2.3-7.4-2.9-10.1-.5-2.4-.7-3.9-.7-4 0-.6.1-.8.3-.8zm-7.5 26.4c1-1.4.6-2.7.4-2.8-.4-.3-.7-.3-.9-.3-.7.1-1.1 1.3-1.1 1.3-.6 1.4-.6 3.7-.6 4.6l-1.2 1.5-.2-2.2-1 .1s.5-.7.9-1.7c.3-.5.6-1.1.8-1.6 0 0 .3-.9.8-1.7.5-.8 1-1.6 1.7-1.6 0 0 2.3 0 2 2.9 0 0-.2.7-.4 1.3-.2.5-.4 1.1-.4 1.2 0 0-.9 2.4-.9 3.3l-.6-1.2-1.3 1.5v-1.6c.4-.6 1.5-2.1 2-3zm-1.1-2.1s.5-1.1 1.3-.4c0 0 .5.9-.5 2.2 0 0-1.1 1.9-1.6 2.2 0 .1-.1-1.7.8-4zm-7.4-5.9c1.1 0 1.9-.9 1.9-.9.6-.8.7-.9.7-.9.5-.4.6.5.6.5 0 .6-.9 1.1-1.3 1.5-.8.6-1.6.7-1.6.7-.6 0-.8-.7-.8-.7-.1-.2.5-.2.5-.2zm-1.5-.8c-.1-.4.6-.2.6-.2 1.5 0 2.4-1.3 2.4-1.3.7-1 .7-1.1.7-1.1.4-.5.5.5.5.5 0 .7-.6 1.5-1.1 1.9-.9.8-1.9.8-1.9.8-1 .1-1.2-.6-1.2-.6zm2.7 1.7c.9-.2 1.3-.8 1.3-.8.4-.4.8-.7.8-.7.5-.2.5.4.5.4 0 .5-.8.9-1.2 1.2-.7.6-1.2.6-1.2.6-.8.2-.8-.3-.8-.3-.1-.3.6-.4.6-.4zm3.4 1.5s-.4.3-1 .2c0 0-.3-.2 0-.5 0 0 .4-.3.6-.5 0 0 .5-.5.8-.1 0 .1.4.4-.4.9zm.8-.1c.7-.1.7.4.7.4-.5.3-1 0-1 0-.2-.2.3-.4.3-.4zm-1.9-.4c-.5.5-.8.5-.8.5-.7.1-.7-.3-.7-.3 0-.2.5-.5.5-.5.6-.4.8-.5.8-.5.3-.4.7-.6.7-.6.4-.2.4.5.4.5-.1.3-.7.6-.9.9zm-1.2.9c.2.1.6.2.9.2 1.6.3 3.5.3 3.5.3.4-.1.4.1.4.3 0 0-.7 1.2-.9 1.3-.1.1-.7-.1-1.1-.3-.7-.2-1.8-.8-2.7-1.5-.2-.1-.3-.3-.3-.3s0-.1.2 0zm7.1.7c-.2-.1-.2-.1-.2-.2 0-.2.2-.2.2-.2 1.5 0 2.8-.5 3.8-1.1 1.5-.9 3.1-2.7 3.1-2.7.8 1.4 2.3 2.2 2.3 2.2.4.2-.1.5-.1.5-1.1.9-2.5 1.8-3.9 2.4-2.1.8-4.1.9-4.1.9-.1-.4-.2-.7-.3-.9-.3-.6-.8-.9-.8-.9zm8.5-3c-.6-.5-1.1-1.2-1.5-2.3-.5-1.1-.4-2.4-.2-3.2.3-1.2 1-2.1 1.2-2.3.1-.2.3-.3.4-.1.2.2.3.6-.1 1.1-.3.4-.8 1.2-.8 2.3 0 .5 0 1.1.3 1.9.8 2.5 2.9 2.6 3.1 2.6.4 0 .8.4.8.8 0 .3-.6.2-.9.2-.4 0-1.4-.3-2.3-1zm.2-5.4s-.6 1.3-.1 2.3c.3.7.8 1.3 1.9 1.6.4.1.5.6.4.8-.1.2-.6.1-.9.1-.9-.2-1.7-1.3-2-2.3-.6-1.6.1-3.1.1-3.1.1-.2.4-.6.6-.5.2.1.4.6 0 1.1zm.5.4c.1.6 1 2.6 1 2.6.2.6-.2.4-.2.4-1.7-.9-1.2-2.9-1.2-2.9.2-.5.4-.1.4-.1zM42.2 27.5c.6-.2 1.3-.3 2-.4 1.1-.1 2.4-.3 4-.4 2.1-.1 4.6-.1 7.4.3.2.1.2.4.2.4.2 2 .7 3.9 1.1 5.6.6 2.6 1.1 4.5 1.1 4.5-3.2 3.1-1.4 6.9-1.4 6.9-.8 1.3-3.3 2.6-3.3 2.6-4.7 2.5-6.9.5-6.9.5-1.9-1.4-3-4.1-3.4-6.7-.5-3.1-.6-5.7-.6-5.7-.1-.4.4-.3.4-.3.7.7 2.7.4 2.7.4-.1.5-.7.9-.7.9-.5.4-.1.5-.1.5.6-.2 1.3-1 1.3-1 .2-.3.4 0 .4 0-.1.7-.7 3.3-.7 3.3-.4 1.1.3 1 .3 1 1.1.2 1.6.6 1.6.6.3.4.3.1.3.1.2-1.2-1.5-1.5-1.5-1.5-.7-.1-.3-1.3-.3-1.3.3-1.2.5-2.4.7-3.3.2-1.7.2-2.8.2-2.8.1-2-1.7-2.6-1.7-2.6-1.3-.5-2.6.4-2.6.4-.2.2-.4.3-.5 0-.1-.1 0-2 0-2zm.1 6.3c0-.2.1-.4.2-.4.2 0 .3.2.3.2.3.7.1.8.1.8-.4 0-.6-.6-.6-.6zm1.2-.3s.1.4.4.7c.1.2.5.3.7 0 0 0 .2-.3.3-.8 0 0 .2-.3.3 0 0 0 0 .7-.5 1.1-.3.3-.8.3-1.2-.1 0 0-.3-.1-.4-.9-.1-.3.2-.4.4 0zm1.7.9c.2-.1.3-.9.3-.9.5-.2.6.4.6.4-.1.7-.9.5-.9.5zm-3.1-2.2c-.1-.3-.1-1 .2-1.3 0 0 .5-.8 2.2-.7 0 0 1.6.1 2.1 1.9 0 0 .1.5-.4.1-.1-.1-.6-.6-1.4-.9-.5-.2-1.2-.2-2.1.2 0 0-.6.4-.1.4 0 0 1.7-1 3.2.4 0 0 .1.4-.4.1 0 0-1-.9-2.6 0 0 0-.6.3-.7-.2zM38 42.1s.2-2.2 2.1-1.6c0 0 .9.4.7 1.6 0 0-.1.6-.8.7 0 0-.5.2-.9-.5 0-.2-.1-.4 0-.7l.2-.2c.2-.1.3-.2.3-.3 0 0-.2-.3-.6.1 0 0-.5.7-.1 1.3 0 0 .3.6.9.6.4 0 .7-.1 1.2-.7 0 0 .6-1 .7-1.4.2-.4.4-1.4.4-1.4s0-.2.2-.3c.1 0 .2 0 .3.2 0 0 .3 1.1-.3 2.6 0 0-.5.9-1.2 1.5-.5.4-1 .6-1.7.5 0 0-.8-.1-1.2-.9-.2-.2-.3-.6-.2-1.1zm-3.4 4.1c-.3 2-3.2 7.2-5.9 10.8-3.3 4.4-5 5.5-5 5.5v-1.7c1-1 3-3.1 5-5.9 1.9-2.5 4.1-7.1 4.5-8l1.4-.7zm-2 1.1c-.4 1-2 4.5-4.2 7.4-2.2 2.9-3.4 4.6-4.7 5.5v-2.4c.6-.8 1.8-2.1 2.9-3.7 1.4-1.9 2.7-4 3.1-5.3l2.9-1.5zm-3.5 1.9c-.4.9-1.3 2.6-2.6 4.4-.8 1.2-1.7 2.4-2.9 3.4v-1.7s1.3-1.5 1.9-2.4c.6-.9 1.5-2.5 1.5-2.5l2.1-1.2zm-5.4 3.1 2.4-1.3c-.6 1.9-2.4 3.6-2.4 3.6v-2.3zm12.1-1.6s-1.1.5-1.5.7c0 .5.1 1.9.1 1.9 0 .2-.1.4-.3.5 0 0-1.1.5-1.5.6v2.2c0 .2-.2.4-.4.5 0 0-1.1.2-1.6.3 0 .5-.1 2.1-.1 2.1 0 .2-.2.4-.4.5 0 0-1.1.1-1.6.2-.1.5-.3 1.9-.3 1.9 0 .2-.2.4-.5.4h-1.6c-.1.5-.4 1.7-.4 1.7 0 .2-.2.4-.5.4h-1.1c-.3 0-.5-.2-.5-.5s.2-.5.5-.5h.8c.1-.5.4-1.7.4-1.7.1-.2.2-.4.5-.4h1.6c.1-.6.3-1.9.3-1.9 0-.2.2-.4.4-.4 0 0 1-.1 1.5-.2 0-.6.1-2 .1-2 0-.2.2-.4.4-.4 0 0 1.1-.2 1.6-.3v-2.2c0-.2.1-.4.3-.5 0 0 1.1-.5 1.5-.6 0-.5-.1-1.9-.1-1.9 0-.2.1-.4.3-.4 0 0 1.1-.5 1.5-.7 0-.5-.1-1.8-.1-1.8 0-.3.2-.5.4-.5.3 0 .5.2.5.4l.2 2.1c-.2.3-.3.4-.4.5zm-.8-4.8 3.1-1.9c3.1 5.3 8.4 6.8 8.4 6.8s-.6 1.3-.9 1.9l-.8 1.6c-6.5-1.6-9.8-8.4-9.8-8.4zm4.8 6.4.2.2-.2.2v-.4zm0 .9.6-.5c.1.1.3.2.4.3l-1 .9v-.7zm0 1.2 1.4-1.2c.2.1.4.2.6.4l-2 1.6v-.8zm0 1.4 2.4-2 .6.3-3 2.5v-.8zm0 1.5 3.4-3c.3.1.5.2.7.3L39.8 58v-.7zm0 1.1 4.5-3.6s-.2.4-.5.8c-.2.3-.5.6-.8 1l-3.3 2.5.1-.7zm0 1.5 2.8-2.3c-.1.3-.2.6-.2.9l-2.6 2.1v-.7zm0 1.3 2.6-2v.8l-2.6 2.2v-1zm0 1.4 2.7-2.3.3.6-3 2.5v-.8zm0 1.4 3.2-2.7c.1.2.2.4.4.5l-3.6 3.1V64zm0 1.4 2.9-2.4c-.3.5-.6 1.1-1 1.7L39.8 66v-.6zm0 1.3 1.3-.9c-.6 1-1.1 1.9-1.3 2.1v-1.2zm4.1-2.8c-.2.4-.6.8-1 1.4 0 0-.7 1-1.5 2.4-.5.9-1 1.9-1.4 2.8l-.1-1.5s.4-1 1.1-2.2c.9-1.7 2.1-3.4 2.4-3.8 0 0 .3-.4.6-.4.1 0 .3.1.4.3-.1-.1 0 .1-.5 1zm1.7-1.4c-1.6 0-3-1.5-3-3.4 0-1.6 1-3.1 2.3-3.1l.3 2.5 1.2-1.3.1 1.8 1.4-1.7c.5.1.6 1.1.6 1.8.1 1.9-1.2 3.4-2.9 3.4zM42.4 71s0-.3.2-1l.3.4-.5.6zm.8-1-.4-.5c.1-.2.2-.3.3-.5l.5.6-.4.4zm.7-.8-.6-.7c.1-.2.2-.4.4-.6l.6.8-.4.5zm.7-.8-.6-.9c.1-.2.2-.3.3-.5l.8.9-.5.5zm.8-1-.7-.9c.2-.2.3-.4.5-.7l.7 1-.5.6zm.8-.9c-.2-.4-.5-.8-.7-1.1.1-.2.3-.4.5-.7l.8 1.2-.6.6zm.8-1c-.2-.4-.6-.9-.8-1.2.1-.2.3-.5.4-.7l1 1.3-.6.6zm.8-1c-.3-.4-.8-1.1-1.1-1.4 0-.2 0-.3-.1-.4 0 0 .2 0 .5-.2l1.1 1.4-.4.6zm.7-.8c-.3-.5-.7-1.1-1-1.4.2-.2.4-.3.6-.6L49 63l-.5.7zm.9-1c-.3-.4-.7-1-1-1.3.1-.2.3-.4.4-.7l1.1 1.4-.5.6zm.7-.9-1.3-1.6c.1-.4.2-.9.1-1.3l1.8 2.2-.6.7zm1-1.1-2-2.5c0-.2.1-.6.1-1l2.4 3-.5.5zm.8-1c-.8-1-2.6-3.2-2.6-3.2s.1-.6.2-.8h.1l2.6 3.5-.3.5zm.8-.9-2.4-3h1.1l1.9 2.4-.6.6zm.8-1L52 55.7c.3 0 .7 0 1-.1l1 1.6-.5.6zm.8-.9-.9-1.3c.3 0 .6-.1.8-.2l.5 1-.4.5zm.7-.9-.4-.7c.2-.1.4-.1.6-.2l.2.4-.4.5zm2.7-2.5c-4.7 2.4-8.1 1.7-8.1 1.7s.5-1.6.7-2c.5-.9.5-1.9.5-1.9s3.1-.3 4.6-1.1c2.4-1.2 4.4-2.9 4.4-2.9l4.2 1c-1.8 2.7-4.7 4.5-6.3 5.2zm6.5-5.6c-.3.1-.8-.2-.9-.4-1.2-2-2.9-6.2-4.1-10.6-1.3-4.7-2-9.2-2-9.2 0-.2 0-.6.3-.6.3-.1.6.3.6.4 0 0 .6 4.4 1.8 9.1.7 2.4 1.5 4.7 2.3 6.6.5 1.2 1.5 3.2 2.1 4.1.1.3 0 .5-.1.6zm1.7 0c-.1.1-.6.2-1-.2-1.1-1-2.8-4.7-3.7-7.6-.3-1-.7-2.1-1-3.2-1.2-4.6-1.8-8.6-1.9-9.1 0-.3 0-.4.1-.5.2 0 .5.2.5.3.1.3.6 3.5 1.6 7.4.7 2.7 1.6 5.6 2.6 8 .8 1.9 1.6 3.4 2.5 4.3.3.3.4.5.3.6zm0-.8s-1.7-1.7-3.4-6.8c0 0-1.7-5.3-2.5-9 0 0-.5-2.6-.6-3.4 0 0-.1-.6.4-.3 0 0 .2 0 .3.5 0 0 .7 3.9 1.9 8.1 0 0 .5 1.9 1.3 4.2.9 2.5 2.1 5.6 4.1 6.7 0 0 .7.2.3.5 0 .1-.7.6-1.8-.5zm.5 3.3 2.3 2.1c-.2.6-.2.9-.8 1.1l-2.2-2.4c-.1-.4.3-.9.7-.8zm-1.6 1.8 2.3 2.6c-.1.7-.1 1-.6 1.1L64 53.2c.1-.5.3-.8.8-1zm-1.7 2.1 2.9 3.2c.1.4-.3 1-.8.9l-2.8-3.3c0-.3.3-.8.7-.8zm.4 9.7-4.4-5.1c0-.2.1-.4.2-.6.2-.2.4-.2.6-.2l3.9 4.5c.1.8 0 1.1-.3 1.4zm-2.8-7c.1-.4.5-.8.8-.8l3.3 3.6c0 .6-.1 1-.5 1.3L60.7 57zm7.9 34s-2.1-3.2-3.4-9.4c-.6-2.9-1-6.1-.8-10.6.2-3.7 1-6.8 1.9-9.3 2.5-7.7 6.1-10.9 6.1-10.9l.7 2.9.2 1.7s-1.8 1.7-3.7 6.6c-1.3 3.3-1.9 7-2.1 10.8-.1 1.9.2 4.7.5 6.5 1 5.7 3 9.1 3 9.1L68.6 91zm7.1-6.8s-1.2.9-1.7 1.3-1.6 1.3-1.6 1.3-1-1.8-1.7-3.9c-.7-2.1-1.4-5.1-1.5-8.3-.2-8.2 2.4-13 4.3-16.1 0 0 .4-.3.9-.2 0 0 .6.2 1 .5.2.1.4.3.4.5l-.1 24.9zm0-30.8c0-.4.3-.7.6-.7.4 0 .6.3.6.7 0 .4-.3.7-.6.7s-.6-.3-.6-.7zm.1 2c0-.3.2-.6.5-.6s.5.3.5.6-.2.6-.5.6c-.2 0-.5-.2-.5-.6zm4.1 55.8-3.6-3.7v-49s.8.2 1.1.2c1.5 0 2.4-1 2.4-1v53.5h.1zm0-79.2c-.9 0-1.6 0-2.5-.1-.9-.2-1.4-.3-1.4-.3v-6.1l3.9-4.6V32z"/></g></g><g id="XMLID_418_"><path id="XMLID_435_" class="st7" d="M36.5 50.2v18.4l2 2.4V50.9s-1-.9-1.6-1.8c0 .1-.1.5-.4 1.1z"/><path id="XMLID_429_" class="st7" d="M80 33.8c-5.1.3-9.6-2.7-9.6-2.7 2.7 6.1 9.6 6.2 9.6 6.2v-3.5zm-7.1-.3c-.2 0-.4-.2-.4-.4s.2-.4.4-.4.4.2.4.4c-.1.2-.2.4-.4.4zm1.4 1.1c-.3 0-.5-.3-.5-.6s.2-.6.5-.6.5.3.5.6c0 .4-.2.6-.5.6zm2.1.9c-.4 0-.6-.3-.6-.7 0-.4.3-.7.6-.7.4 0 .6.3.6.7 0 .4-.3.7-.6.7zm2.2.7c-.4 0-.8-.4-.8-.9s.4-.9.8-.9.8.4.8.9-.3.9-.8.9z"/><path id="XMLID_428_" class="st7" d="m80 22.1-3.4 4v5.7s.4.1.6.2c.2 0 .7.1.7.1s.1-2-.2-2.9c0 0-.2-.7-.3-1.6-.1-.8 0-1.7.3-2.2 0 0 .7-1.3 1.1-.7v.3c-.1.5-.2 1.4-.2 1.9 0 .6 0 1.4.3 2.3 0 0 .2.6.2 1.2.1.7.1 1.4-.2 1.7H80v-10z"/><path id="XMLID_427_" class="st7" d="m76.8 49.7.8-.3s.4-1.7.5-3.7c.1-1.1.1-2.3-.1-3.4 0 0-.8-3.5-.2-3.5 0 0 .7-.3 1 1 0 0 .6 2.2.6 4.9 0 1.3-.1 3-.5 4.3l1.1-.4v-9.7l-1.6-.2c-.7-.1-1.3-.3-1.6-.4v11.4z"/><path id="XMLID_426_" class="st7" d="M40.5 48.6c-1.2-1.1-2.4-2.4-3.4-4.2l-1.4.8s1.6 2.9 4.6 5.4c1.4 1.1 3.1 2.3 5.1 2.9l.8-1.6s-2.9-.8-5.7-3.3z"/><path id="XMLID_425_" class="st7" d="M50.4 52.4s2.1.3 5.7-1.3c2.4-.9 4.2-2.7 4.9-3.5l2.2.5s-1.9 2.6-6.4 4.6c-4.6 2-7 1.4-7 1.4s.4-.9.6-1.7z"/><path id="XMLID_424_" class="st7" d="M62.1 50.8c-.8.7-1.9 1.6-2.2 1.7l-18.4 22 1.2 1.5 23.4-27.7s-.4.1-.8.1c-.3 0-.9-.1-.9-.1s-.7 1.1-2.3 2.5z"/><path id="XMLID_423_" class="st7" d="m57.1 60.6 1.7-1.9 5 5.7-3.5-.1-.1-3.4z"/><g id="XMLID_419_"><path id="XMLID_422_" class="st7" d="M79.8 103.8c-.4 1.5-.5 5.3-.5 5.3-1.6-.8-1-3.2-1-3.2 1.2-4.4.3-6.3.3-6.3-1.4-2.8-.5-4.8-.5-4.8.6-1.8.8-3.1.9-4 .1-1.5-.3-2.2-.3-2.2-.2-1-.5-1.9-.6-2.6-.3-2-.2-3-.2-3 .1-1.2.6-2.2.8-3 .4-2.7-.4-4-.4-4-1.1-2.8-.4-5.3-.4-5.3.2-1.2.6-2.2.7-3.2.2-2-.3-3.4-.3-3.4-1.2-4.6-.1-5.6-.1-5.6h-1v48.9l2.9 3V102c-.2 1-.3 1.8-.3 1.8z"/><path id="XMLID_421_" class="st7" d="M79.2 98.2c.3.7.8 1.1.8 2v-8.1c-1.7 3.5-.8 6.1-.8 6.1z"/><path id="XMLID_420_" class="st7" d="M79.1 58.1c-.2.4-.3 1.7-.2 2.8 0 1.1.2 2.1.2 2.1.2.9.4 1.6.5 2.5.1.6.1 1.1.1 1.5 0 .8-.1 1.3-.1 1.3-.1.6-.2 1-.4 1.4-.7 2.7-.2 3.9-.2 3.9 1.6 4.3.8 6.9.8 6.9-1.1 2.4-.6 5-.6 5 .4 1 .8 2.4.8 3.8v-32c-.4.5-.9.8-.9.8z"/></g></g><path id="XMLID_195_" class="st3" d="M36.5 74.3c.2 2.2.1 2.5.1 3.3 0 1.2 0 5-.6 7.6-.1.6-.4 1.9-.4 1.9l.4.4h2.9L39 91l3 .3 6.7-8-2.6-.3-.1-3.6-3.1-.1-.3-3.3-2.6-.4-.3-3.5-2.4-.1-.4-3.2-1.2.1s.5 1.8.8 5.4z"/><path id="XMLID_194_" class="st4" d="M57.7 118.4c.2-.1.2-.4.2-.4l.1-.5c.2-.9.5-1.7.6-1.7.1-.2.1-.3.2-.3h.2c.3.2.7.2.9.1.7-.4.7-1.1.6-1.1 0-.4-.1-.7-.4-.9-.4-.3-.9-.2-1-.2-.8.1-1.4 1-1.7 1.7-.6 1.7-.3 3-.3 3.1l.1.2h.5z"/><path id="XMLID_193_" class="st3" d="M55.7 89.3c.3-.1.5-.4.6-.6.2-.3 1.4-2.1 2.3-3.7.7-1.2 1.1-2.3 1.1-2.3s0-1.8-.3-1.9c-.2-.1-.8 1.6-1.3 2.5-.8 1.4-1.5 2.6-1.7 2.9-1.1 1.5-1.7 2.4-1.5 2.7.3.4.5.5.8.4z"/><path id="XMLID_192_" class="st3" d="M62.7 101.9V82.7l1.3 1.7.3.8v13.3c0-.1-1.1 2.1-1.6 3.4z"/><path id="XMLID_191_" class="st3" d="M21.2 93.3c.9-.2 2.3 0 2.3 0V43.8l-4.3-4.3v55.2s.9-1.2 2-1.4z"/><path id="XMLID_190_" class="st3" d="M57.3 103.6c-.4-.1-1.1-.3-1.8-.4-1.8-.3-2.2-.2-2.2-.2-.1 0-.3.1-.4.1-.1 0-.1.1-.1.2 0 .3.3.7 1 .6 0 0 .1 0 .1-.1-.1.1-.1.2-.1.3 0 .2 0 .3.2.4.2.2.6.1.7 0-.1.1-.2.3-.2.4 0 .1.1.5.4.7.1.1.2.1.4 0 0 .1-.1.2-.1.3 0 0 0 .4.3.6.1.1.2.1.4.1-.1.2-.2.3-.2.5 0 .1.1.7.5.8h.3c-.2.3-.2.6-.2.8v.1c0 .4.1.8.4.9.1 0 .2.3.2.5-.1.3-.1.6-.1.9 0 .4 0 .6.1.7 0 0 .1.5.5.4.3-.1.3-.4.3-.4.1-.4.3-1.1.4-1.4 0 0 .1-.2.3-.5.1-.1.3-.1.3.1.2.7.6 1.1.9 1.2.6.2 1.1.2 1.5-.1.7-.4.7-1.5.8-1.9 0-.4-.2-1.5-.2-1.5l.4-.2 2.7-1.7 8.4-4.6 3-1.7V88.7c-1.4.8-4.3 4-7 7.9-2.4 3.5-4.2 7.5-4.4 8.7v.2c-.2-.4-.9-1.5-2-2.9-.9-1.1-2-2.3-3.5-3.4-.6-.4-1.6-1.1-2.6-1.5-.9-.4-1.7-.6-1.7-.6l.6-1.1s.8-.9 1.2-1.9c.3-.6.3-1.4.3-1.8 0-.9-.4-1.7-.8-2.3-.6-.8-1.4-1.1-2.3-1.1-1.1 0-1.9.4-2.5 1.2-.5.6-.8 1.2-.8 2.2 0 .4-.1 1.4-.1 1.6-.1.9-.6 2.4-.6 2.4h-.1c-.4 0-1.5-.2-3.1.1-1.3.2-3 .7-4.9 1.6-1.2.5-2.8 1.6-4.4 2.9-.9.8-2.5 2.6-2.5 2.6s-.5-.1-1.3 0c-.4 0-.8.2-1.2.2-1 .2-1.6.9-1.8 1.2-.2.3-.8.6-1.2.9-.4.4-.9 1.3-.9 2.1s.4 2 1.3 2.3c.9.3 1.4-.1 1.7-.2.4-.1.5-.1.9.9s1.1 3 1.6 4.3c.2.6.9 3 1.3 4.7.3 1.2.5 2.2.6 2.8.1.3 0 .2.1.4.1.6 1.3.6 1.3.6.5.5 1.1.3 1.1.3.4.6 1 .2 1 .2.3.6 1 .3 1 .3.5.5 1 0 1 0 0 .2.3.5.7.5.3 0 .5-.3.5-.3.1.3.4.4.6.4.4-.1.6-.5.5-.8-.6-4.3-2.2-10.1-2.2-10.1s.7-.5 1.2-1.6c.5-1 1.1-2.8.1-5.1-.2-.5-.5-.9-.8-1.3-.6-.7-1.6-1.3-1.9-1.5-.1-.1 0-.3.2-.5.3-.3.9-.7 1.1-.8.7-.5 1.7-1.1 2.8-1.6 1.4-.7 4.1-1 4.1-1h.4c.1.7.2 1 .7 1.5.6.7 1.6.7 1.6.7.9-.1 1.6-1.1 2-2 0 0 2.2.6 4.5 2.4-.1.1.2.4-.3.2z"/><path id="XMLID_189_" class="st3" d="m23.7 126.3-4.4 5v-28.2l4.2-1.6v12.3s2.6 1 4.8 3.5c1.4 1.6 2.7 3.9 3.2 6.9 0 0-3.8-2.9-7.9-4.1v6.2z"/><path class="st2" d="m64.8 134.5-7.2-9.9s-5.6 1.2-11.2.8c-2.3-.1-4.3-.5-6.1-.9-2.4-.6-4.5-1.4-4.5-1.4L29 134.6l35.8-.1zm-8-7.4 4.2 7h-1.4l-3.3-5.6-2.3.5 1.6 5.1h-1.1l-1.8-6.2c2.7-.3 4.1-.8 4.1-.8zm-14.3.4c4.1.8 7.9.6 7.9.6l1.6 6.1h-1l-1.3-4.9s-2.1.1-3 0c-.9-.1-3.1-.3-3.1-.3l-.8 5.2h-1.1l.8-6.7zm-6.5-1.4c2.2.7 4.5 1.2 4.5 1.2l-1.3 6.9h-1.3l1.2-5.8c-1.2-.4-2.6-.7-2.6-.7l-3.4 6.6h-1.3l4.2-8.2z"/><path id="XMLID_166_" class="st2" d="M30.5 96.5c.9-1.5 1.8-3.4 2.6-5.7 1-2.8 1.9-6.1 2.2-10.3.1-2.2.1-4.6-.2-6.8-.2-2.2-.6-4.3-1.1-6-.3-1-.5-1.9-.8-2.7-1.2-3.2-2.3-4.9-2.3-4.9L29.3 62c.6.9 1.3 2.3 1.9 4.3 1.2 3.4 2.3 8.1 2 12.8-.2 3.5-1.1 7.8-2.5 11.4-1.8 4.8-4.6 7.8-4.6 7.8l.7 3c.1 0 1.8-1.5 3.7-4.8z"/><path id="XMLID_147_" class="st2" d="M26.4 93.2s1.7-2.5 2.9-6.1c.9-2.9 1.5-6.7 1.4-10.2-.1-3.1-.8-6-1.4-8.2-.7-2.2-2-4.5-2-4.5s-1.4 1.2-1.9 1.6c-.5.4-1.9 1.4-1.9 1.4V92.8l1.6.6c.9.5 1.2-.1 1.3-.2z"/><path id="XMLID_146_" class="st2" d="M54.8 88.7s1.6-2.3 2.8-4.3c.5-.9 1.1-1.9 1.5-2.9.5-1.2.6-1.7.7-2.3l-.9-1.1-1.2 1.4s-.3 1.9-1.6 3.8c-1 1.4-2.7 3.7-3 4.7 0 0-.2.5 0 .7.1.1.6.3.8.3.7.1.9-.3.9-.3z"/><path id="XMLID_145_" class="st2" d="M64.2 98.8v-14s1 3.3 1.6 4.6c.5 1.1 1.9 3.5 1.9 3.5s-2.4 3.4-3.5 5.9z"/><g id="XMLID_1162_"><path id="XMLID_1265_" class="st5" d="M50.9 113.4s.4.2.7-.1c.2-.1.3-.4.3-.9 0 0-.2-.6-.7-.2 0 0-.3.2-.6-.1 0 0-1.2-.7-1.9-.1-.2.2-.6.7-.4 1.4.1.2.2.5.5.8 0 0 .2.2.3.1 0 0 .1-.1 0-.4-.1-.2-.2-.3-.3-.5 0 0-.1-.3 0-.6.1-.1.2-.3.5-.3 0 0 .4-.1.7.2-.1.1.5.5.9.7z"/><path id="XMLID_1260_" class="st5" d="M43.3 117.9c1.2 1.2 1.9 1.8 2.9 2 2.1.4 2.9-.8 3.1-.5.2.1-.4.4-.6.5-.8.5-2 .5-2 .5-1.3 0-3-1.8-3-1.8-.5-.4-.3.2-.3.2.4.4 1.5 1.4 1.5 1.4 2.2 1.8 4.7-.3 4.7-.3.4-.3.5 0 .5 0 .2.2.3 0 .3-.1 0-.2-.2-.5-.3-.7-.2-.2-.2-.5-.2-.5 0-.5-.3-1-.3-1-.9-1.6-2.3-2.5-2.3-2.5-.6-.2-.2.4-.2.4.7.5 1.2 1.2 1.2 1.2.2.2 0 .3 0 .3-1.7-.8-3.5.6-3.5.6-.1.2-.6 0-.6 0-.5-.1-.8-.1-.9 0-.2 0 0 .3 0 .3zm5-.4c.2-.1.5.1.7.3.2.2.1.4 0 .5-.2.1-.4 0-.4 0-.2-.2-.5-.8-.3-.8zm-1.3-.4s.5-.1.8.3c.1.1.3.4.4 1 0 0-.1.4-.3.1 0 0-.2-1.1-.7-1.1-.5 0-.8.6-.8 1.1 0 0-.2.2-.3-.1-.1.1.1-1.3.9-1.3zm-1.4.3c.4-.1.5 0 .3.2-.1.2-.3.8-.3.8-.3.3-.8-.3-.8-.3 0-.4.5-.5.8-.7z"/><g id="XMLID_1256_"><path id="XMLID_1259_" class="st6" d="M52.1 110c.4.3.7 0 .7 0 .6-.5 1.2 0 1.2 0 .1 0 .2 0 .2-.3 0-.4.1-1.2.1-1.5-.1-.6-.4-.1-.4-.1-.2.5-.7.5-.7.5-.2 0-.4.1-.7-.1-.5-.2-1-.1-1-.1-.6 0-1.4.4-1.4.4-1 .2-1.6-.5-1.6-.5-.2-.2-.3-.2-.4-.1-.1.1 0 .4 0 .4s.3 1.2.4 1.5c.1.3.3.1.4 0 .6-.4 1.2-.1 1.2-.1.7.4 1.3 0 1.3 0 .2-.4.7 0 .7 0z"/><path id="XMLID_1258_" class="st6" d="M49.6 107.7c-.1.1-.1.3 0 .3.1.1.3-.1.3-.1.5-.3 1.1-.3 1.5-.3.8 0 1.4.4 1.4.4.4.1.3-.2.3-.2-.3-.4-1-.7-1.8-.7-1.2 0-1.7.6-1.7.6z"/><path id="XMLID_1257_" class="st6" d="M49.7 106c.5.3.8.4 1.4.5 1.1.1 1.7-.6 1.7-.6.2-.2 0-.4 0-.4-.2-.1-.5.1-.5.1-1 .6-2.3 0-2.3 0-.7-.3-.6-.1-.6-.1-.2.2.3.5.3.5z"/></g><g id="XMLID_1163_"><path id="XMLID_1255_" class="st6" d="M50.4 120.7s-.3-.1-.7.1c0 0-1.7 1-4.1.5 0 0-1.3-.3-1.8-.7 0 0-.5-.3-.3.3 0 0 1.2 1.6 3.9 1.7 0 0 1.5.1 2.8-.7 0 0 1.1-.8.2-1.2z"/><path id="XMLID_1164_" class="st6" d="M24 126.4v-6.1s4.8 1.5 8 4.6c0 0-.8-7.9-8-11.1v-6.1s-.2-1 .4-.7c0 0 .5.3.8-.6 0 0 .4-1 .5-1.8 0 0 .2-.9 1.2-.5.5.1 1.4.9 2.2 1.7-.7.9-.9 1.7-.8 2.3 0 .2.1.8.3 1.3.3.6.9.9 1.1 1 .8.2 1.5-.2 1.5-.2.2-.1.4-.1.5 0 .3.2.4.7.4.7.3.5 1.5 3.9 2.2 6.3.5 1.6.9 3.2 1.1 4.6.1.3.1.7.2.8v.2l-.5 1-6.4 11h.9l6.4-10.9s5.2 1.8 10.5 2.1c5.7.3 10.9-.8 10.9-.8l6.8 9.6h1.1l-7.5-10.4c-.2-.7-.1-.9-.1-2.2.1-1.3.1-2.2.4-3.3.3-1.3.2-1.1.6-2.5.1-.4.4-.3.4-.3 1.4.3 1.6-1 1.6-1 .2-1.9-1.4-1.6-1.4-1.6-1.1.1-1.7 1.6-1.7 1.6-.6.5 0-2.6 0-2.6.4-2.3.8-1.8.8-1.8 1 2.1 2.4 1.1 2.4 1.1 1.5-.7.9-3.3.9-3.3 2.5-2 14.6-8.2 14.6-8.2V84.4c-2.9 1.7-5.6 4.4-7.7 7.4-3.9 5.2-6.1 10.5-6.1 10.5-.4-.6-2.4-2.2-2.4-2.2V79.8l-.4-.8c0 .8-1.1 3.4-2.2 5.3-1.2 2-2.9 4.3-2.9 4.3-.2.4-1 .2-1 .2-.6-.1-.4-.5-.4-.5.2-.9 3-4.8 3-4.8 1.1-1.6 1.7-4 1.7-4l1.1-1.3-.2-.2-16.4 19.3c-5 2.3-7.6 6-7.6 6-1-.1-1.9.1-1.9.1-.3.1-.5.1-.6-.2 1.1-1.4 7.5-9 9.3-11.1 1.9-2.3 7.3-8.6 7.3-8.6l-.6-.1-.8.9h-1.8l-.2.3h1.8l-.9 1.1h-1.8l-.3.3h1.8l-.7 1h-2l-.4.3h1.9l-.9 1h-1.9l-.2.3h1.8l-.7 1h-1.8l-.3.4h1.8l-.8 1-2.7-.2-.1-3.1.8-.9.2 2.4.3-.3-.2-2.5.9-1 .1 2.4.3-.3-.2-2.3.8-.9v2.4l.3-.3v-2.6l.7-.8.1 2.2.2-.2-.1-2.4.9-1.1.1 2.2.2-.2-.1-2.4 1.3-1.7h-.3l-1 1.2-1.9-.1-.3.3 1.9.1-.8 1-2-.1-.3.4 2 .1-.7.9-2-.1-.3.4 2.1.1-.8 1h-2.1l-.3.4 2.1.2-.9.8h-2.2l-.3.3 2.1.1-.8 1-2.9-.2s.3-1 .4-1.8c.1-.8.3-2.2.3-2.2l.2 2.1.3-.3-.2-2 .8-1.1.1 2.3.3-.4-.1-2.2.8-1.1v2.4l.3-.3.1-2.4.9-1.2v2.4l.3-.3v-2.5l.8-1v2.5l.3-.3-.1-2.5 1.1-1.3h-.5l-.7.9h-1.9l-.2.3h1.8l-.6.8-2 .1-.1.3h1.8l-.9 1.1h-2v.3H39L38 81l-1-.1s.1-1.5.1-2.6-.1-2.9-.1-2.9l.4-.3.2 2.3h.3l-.1-2.6.6-.8.1 2.3.2-.2v-2.5l1.3-1.4-.5-.1-1.1 1.2h-1.5s-.2-2.2-.7-4.6c-.4-2-1.1-4.8-2.7-8.1-.3-.7-1.3-2.2-1.3-2.2s-2.9 3.6-4.6 5.3c-1.8 1.8-3.8 3.1-3.8 3.1V43.6l-4.7-5.1v93.7l4.9-5.8zm33.8-11.2c.3-.7.8-1.5 1.5-1.6 0 0 1-.2 1 .8 0 0 .1.6-.5.9 0 0-.4.2-.8-.2 0 0-.4-.2-.6.5 0 0-.6 1.5-.7 2.3 0 0-.1.4-.3.2.1 0-.2-1.3.4-2.9zM37.7 81.4l-.9 1.2.1-1.2h.8zm.1-7.7-1 1.2v-1.1l1-.1zm-6.5 49.9s-5-4.5-11.7-4.5v-5.8c0-.1 8.9-.1 11.7 10.3zm-9.5-29c.2.3-.1.4-.1.4-.2.1-1.3.6-1.3.6-.7.3-.7-.6-.7-.6.2-1.1 1.6-1.4 1.6-1.4.6-.1.5.3.5.3-.1.3 0 .7 0 .7zm.4 2c.4.3-.1.5-.1.5-.5.1-1.6.7-1.6.7-.8.3-.8-.7-.8-.7 0-.9 1.7-1.5 1.7-1.5.9-.4.7.2.7.2-.1.4.1.8.1.8zm.6 4.6s.2 0 .1-.2c-.1-.1-.2-.3-.2-.6 0-.4.3-.8.7-.8.4 0 .7.3.7.8 0 .2-.1.4-.2.5 0 0-.2.5-2.6 1.3 0 0-.7.3-1.1-.2 0 0-.7-.9.2-1.4 0 0 1.2-.5 1.5-.6 0 0 .6-.3.6.3-.1 0-.3.9.3.9zm-.6-2.4c.4.7-.4.7-.4.7-.4.1-.8.4-1 .5-.7.3-.8.1-.8.1-.5-.7 0-1.4 0-1.4.2-.3 1.5-.9 1.5-.9.6-.3.6.2.6.2-.1.4.1.8.1.8zm0-4.6c0-.3.2-.5.4-.5s.4.2.4.5-.2.5-.4.5-.4-.2-.4-.5zm-.5 8.2c.6-.3 1.6-.5 1.6-.5v11.7s-.9-.4-1.8-.6c-.7-.1-1.9-.2-1.9-.2v-9.4s.8-.5 2.1-1zm3.3 3.1c-.1.4-.3.8-.5.7-.2 0-.2-.4-.1-.9.1-.4.3-.8.5-.7.1.1.2.5.1.9zm1.1-2.8s-.4 1.6-1.2 1.4c0 0-.2-.1-.4.1-.2.1-.3 1.2-.6.9 0 0-.2-1.3.3-1.9 0 0-.1-1.5 0-2.2 0-.1.1-.4.1-.5-.1-.6-.3-1.9-.1-2.1 0 0 .4-1.2.2-1.5 0 0-.6.6-.5-.1 0 0 .1-1.2-.2-1.7l.1-.9s-.3-1.3 1.2-.5c0 0 .7.2.8 2.5 0 0 0 1.9.3 2.8.1-.1.6 2.1 0 3.7zm1.3.8c.2-.7.6-1.1 1-1.3l2 2.2c-.1.4-.6.6-.8.6 0 .1-.6.2-2.2-1.5zm1.9-2.3c0-.5.2-.8.7-1.1l2.1 2.3c-.1.4-.4.9-.8.8l-2-2zm7.2 21.9c-.4.1-.5-.5-.6-.8 0 0-.8-3.8-1.8-7.3-.6-1.8-1.7-4.9-2.2-5.7l.2-.4c.1-.2.1-.6.1-.6s1.1 1.5 2.4 5.7c.7 2.5 1.7 5.6 2.1 8.3.1.1.3.7-.2.8zm1.1.2c-.3 0-.6-1.5-.6-1.5-.4-2.4-2.1-8.1-2.1-8.1-1-3.5-2.8-6.5-2.8-6.5-.5-.6-.8-.9-1.4-.9-1.3 0-1.4 1.2-1.4 1.2 0 1.4 1 1.3 1 1.3 1.2 0 .8-1.1.8-1.1-.2.4-.4.6-.7.6-.4 0-.7-.4-.7-.4-.2-1.3.9-1.4.9-1.4.6.1.9.4 1.2 1 .3 1.2-.6 1.7-.6 1.7-2.3 1.3-2.7-1.5-2.7-1.5.1-2.5 1.9-2.5 1.9-2.5 1.2 0 2.4 1.4 3.1 2.8 1.2 2.7 1.4 3.4 2.1 5.5.7 2.1 2.3 9.2 2.3 9.2.2.8-.3.6-.3.6zm1.2.5c-.3 0-.4-.4-.4-.4l-1.6-6c-1-4.6-2.8-8.6-2.8-8.6-.5-1-.8-1.6-1.2-2.3-.8-.9-1.6-1.2-1.6-1.2-.9-.3-.4-.8-.4-.8.9-.4 1.8.6 1.8.6 2 1.6 4 8.5 4 8.5.3.8 2.4 9.4 2.4 9.4.1.4.1.8-.2.8zm4.2.7c-.3 0-.4-.4-.4-.6 0-.1-.6-3.8-1.7-8.4-.5-1.9-1.1-3.8-1.9-5.8-.7-1.8-1.4-3.7-2.1-5-.1-.2-.3-.5-.1-.6.3-.2.5.2.7.5.8 1.5 1.5 3.2 2.2 5 1.3 3.6 2.3 7.4 2.9 10.1.5 2.4.7 3.9.7 4 0 .6-.1.8-.3.8zm7.5-26.4c-1 1.4-.6 2.7-.4 2.8.4.3.7.3.9.3.7-.1 1.1-1.3 1.1-1.3.6-1.4.6-3.7.6-4.6l1.2-1.5.2 2.2 1-.1s-.5.7-.9 1.7c-.3.5-.6 1.1-.8 1.6 0 0-.3.9-.8 1.7-.5.8-1 1.6-1.7 1.6 0 0-2.3 0-2-2.9 0 0 .2-.7.4-1.3.2-.5.4-1.1.4-1.2 0 0 .9-2.4.9-3.3l.6 1.2 1.3-1.5v1.6c-.4.6-1.5 2.1-2 3zm1.1 2.1s-.5 1.1-1.3.4c0 0-.5-.9.5-2.2 0 0 1.1-1.9 1.6-2.2 0-.1.1 1.7-.8 4zm7.4 5.9c-1.1 0-1.9.9-1.9.9-.6.8-.7.9-.7.9-.5.4-.6-.5-.6-.5 0-.6.9-1.1 1.3-1.5.8-.6 1.6-.7 1.6-.7.6 0 .8.7.8.7.1.2-.5.2-.5.2zm1.5.8c.1.4-.6.2-.6.2-1.5 0-2.4 1.3-2.4 1.3-.7 1-.7 1.1-.7 1.1-.4.5-.5-.5-.5-.5 0-.7.6-1.5 1.1-1.9.9-.8 1.9-.8 1.9-.8 1-.1 1.2.6 1.2.6zm-2.7-1.7c-.9.2-1.3.8-1.3.8-.4.4-.8.6-.8.6-.5.2-.5-.4-.5-.4 0-.5.8-.9 1.2-1.2.7-.6 1.2-.6 1.2-.6.7-.1.7.4.7.4.2.3-.5.4-.5.4zm-3.4-1.5s.4-.3 1-.2c0 0 .3.2 0 .5 0 0-.4.3-.6.5 0 0-.5.5-.8.1 0-.1-.4-.4.4-.9zm-.8.1c-.7.1-.7-.4-.7-.4.5-.3 1 0 1 0 .2.2-.3.4-.3.4zm1.9.4c.5-.5.8-.5.8-.5.7-.1.7.3.7.3 0 .2-.5.5-.5.5-.6.4-.8.5-.8.5-.3.4-.6.6-.6.6-.4.2-.4-.5-.4-.5 0-.3.6-.6.8-.9zm1.2-.9c-.2-.1-.6-.2-.9-.2-1.6-.3-3.5-.3-3.5-.3-.4.1-.4-.1-.4-.3 0 0 .7-1.2.9-1.3.1-.1.7.1 1.1.3.7.2 1.8.8 2.7 1.5.2.1.3.3.3.3s0 .1-.2 0zm-7.1-.7c.2.1.2.1.2.2 0 .2-.2.2-.2.2-1.5 0-2.8.5-3.8 1.1-1.5.9-3.1 2.7-3.1 2.7-.7-1.3-2.3-2.1-2.3-2.1-.4-.2.1-.5.1-.5 1.1-.9 2.5-1.8 3.9-2.4 2.1-.8 4.1-.9 4.1-.9.1.4.2.7.3.9.3.5.8.8.8.8zm-8.5 3c.6.5 1.1 1.2 1.5 2.3.5 1.1.4 2.4.2 3.2-.3 1.2-1 2.1-1.2 2.3-.1.2-.3.3-.4.1-.2-.2-.3-.6.1-1.1.3-.4.8-1.3.8-2.3 0-.5 0-1.1-.3-1.9-.8-2.5-2.9-2.6-3.1-2.6-.4 0-.8-.4-.8-.8 0-.3.6-.2.9-.2.5 0 1.4.3 2.3 1zm-.2 5.4s.6-1.3.1-2.3c-.3-.8-.8-1.3-1.9-1.6-.4-.1-.5-.6-.4-.8.1-.2.6-.1.9-.1.9.2 1.6 1.3 2 2.3.6 1.6-.1 3.1-.1 3.1-.1.2-.4.6-.6.5-.2-.1-.3-.6 0-1.1zm-.5-.4c-.1-.6-1-2.6-1-2.6-.2-.6.2-.4.2-.4 1.7.9 1.2 2.9 1.2 2.9-.2.5-.4.1-.4.1zm16.9 13.5c-.6.2-1.3.3-2 .4-1.1.2-2.4.3-4 .4-2.1.1-4.6.1-7.4-.3-.2-.1-.2-.4-.2-.4-.2-2-.7-3.9-1.1-5.6-.6-2.6-1.1-4.5-1.1-4.5 3.2-3.1 1.4-6.9 1.4-6.9.8-1.3 3.3-2.6 3.3-2.6 4.7-2.5 6.9-.5 6.9-.5 1.9 1.4 3 4.1 3.4 6.7.5 3.1.6 5.7.6 5.7.1.4-.4.3-.4.3-.7-.7-2.7-.3-2.7-.3.1-.5.7-.9.7-.9.5-.4.1-.5.1-.5-.6.2-1.3 1-1.3 1-.2.3-.4 0-.4 0 .1-.7.7-3.3.7-3.3.1-1.2-.5-1.1-.5-1.1-1.1-.2-1.6-.6-1.6-.6-.3-.4-.3-.1-.3-.1-.2 1.2 1.5 1.5 1.5 1.5.7.1.3 1.3.3 1.3-.3 1.2-.5 2.4-.7 3.3-.2 1.7-.2 2.8-.2 2.8-.1 2 1.7 2.6 1.7 2.6 1.3.5 2.6-.4 2.6-.4.2-.2.4-.3.5 0 .2.1.2 2 .2 2zm-.2-6.3c0 .3-.1.4-.2.4-.2 0-.3-.2-.3-.2-.3-.7-.1-.8-.1-.8.4 0 .6.6.6.6zm-1.2.3s-.1-.4-.4-.7c-.1-.2-.5-.3-.7 0 0 0-.2.3-.3.8 0 0-.2.3-.3 0 0 0 0-.7.5-1.1.3-.3.8-.3 1.2.1 0 0 .3.1.4.9.1.2-.2.4-.4 0zm-1.7-.9c-.2.1-.3.9-.3.9-.5.2-.6-.4-.6-.4.1-.7.9-.5.9-.5zm3.1 2.2c.1.3.1 1-.2 1.3 0 0-.5.8-2.2.7 0 0-1.6-.1-2.1-1.9 0 0-.1-.5.4-.1.1.1.6.6 1.4.9.5.2 1.2.2 2.1-.2 0 0 .6-.4.1-.4 0 0-1.7 1-3.2-.4 0 0-.1-.4.4-.1 0 0 1 .9 2.6 0 .1 0 .6-.3.7.2zm4.2-9.9s-.2 2.2-2.1 1.6c0 0-.9-.4-.7-1.6 0 0 .1-.6.8-.7 0 0 .5-.2.9.5 0 .2.1.3 0 .7 0 0-.1.2-.2.2-.2.1-.3.2-.3.3 0 0 .2.3.6-.1 0 0 .5-.7.1-1.3 0 0-.3-.6-.9-.6-.4 0-.7.1-1.2.7 0 0-.6 1-.7 1.4-.2.4-.4 1.4-.4 1.4s0 .2-.2.3c-.1 0-.2 0-.3-.2 0 0-.3-1.1.3-2.6 0 0 .5-.9 1.2-1.5.5-.4 1-.6 1.7-.5 0 0 .8.1 1.2.9.1.2.2.6.2 1.1zm3.3-4.1c.3-2 3.2-7.2 5.9-10.8 3.3-4.4 5-5.5 5-5.5v1.7c-1 1-3 3.1-5 5.9-1.9 2.5-4.1 7.1-4.5 8l-1.4.7zm2-1.1c.4-1 2-4.5 4.2-7.4 2.2-2.9 3.4-4.6 4.7-5.5v2.4c-.6.8-1.8 2.1-2.9 3.7-1.4 1.9-2.6 4-3.1 5.3l-2.9 1.5zm3.5-1.9c.4-.9 1.3-2.6 2.6-4.4.8-1.2 1.7-2.4 2.9-3.4v1.7s-1.3 1.5-1.9 2.4c-.6.9-1.5 2.5-1.5 2.5l-2.1 1.2zm5.4-3.1-2.4 1.3c.6-1.9 2.4-3.6 2.4-3.6v2.3zm-12 1.6s1.1-.5 1.5-.7c0-.5-.1-1.9-.1-1.9 0-.2.1-.4.3-.5 0 0 1.1-.5 1.5-.6V95c0-.2.2-.4.4-.5 0 0 1.1-.2 1.6-.3 0-.5.1-2.1.1-2.1 0-.2.2-.4.4-.5 0 0 1.1-.1 1.6-.2.1-.5.3-1.9.3-1.9 0-.2.2-.4.5-.4h1.6c.1-.5.4-1.7.4-1.7 0-.2.2-.4.5-.4h1.1c.3 0 .5.2.5.5s-.2.5-.5.5h-.8c-.1.5-.4 1.7-.4 1.7 0 .2-.2.4-.5.4h-1.6c-.1.6-.3 1.9-.3 1.9 0 .2-.2.4-.4.4 0 0-1 .1-1.5.2 0 .6-.1 2-.1 2 0 .2-.2.4-.4.4 0 0-1.1.2-1.6.3v2.2c0 .2-.1.4-.3.5 0 0-1.1.5-1.5.6 0 .5.1 1.9.1 1.9 0 .2-.1.4-.3.4 0 0-1.1.5-1.5.7 0 .5.1 1.8.1 1.8 0 .3-.2.5-.4.5-.3 0-.5-.2-.5-.4l-.2-2.1c.1-.3.2-.4.4-.5zm.7 4.8-3.1 1.9c-3.1-5.3-8.4-6.8-8.4-6.8s.6-1.3.9-1.9l.8-1.6c6.5 1.6 9.8 8.4 9.8 8.4zm-4.8-6.4-.2-.2.2-.2v.4zm0-.9-.6.5c-.1-.1-.3-.2-.4-.3l1-.9v.7zm0-1.2-1.4 1.2c-.2-.1-.4-.2-.6-.4l2-1.6v.8zm0-1.4-2.4 2-.6-.3 3-2.5v.8zm0-1.5-3.4 3c-.3-.1-.5-.2-.7-.3l4.1-3.4v.7zm0-1.1-4.5 3.6s.2-.4.5-.8c.2-.3.5-.6.8-1l3.3-2.5-.1.7zm0-1.5L56.7 94c.1-.3.2-.6.2-.9l2.6-2.1.1.7zm0-1.3-2.6 2v-.8l2.6-2.2v1zm0-1.4-2.7 2.3-.3-.6 3-2.5v.8zm0-1.4-3.2 2.7c-.1-.2-.2-.4-.4-.5l3.6-3.1v.9zm0-1.4-2.9 2.4c.3-.5.6-1.1 1-1.7l1.9-1.3v.6zm0-1.3-1.3.9c.6-1 1.1-1.9 1.3-2.1v1.2zm-4.1 2.8c.2-.4.6-.8 1-1.4 0 0 .7-1 1.5-2.4.5-.9 1-1.9 1.4-2.8l.1 1.5s-.4 1-1.1 2.2c-.9 1.7-2.1 3.4-2.4 3.8 0 0-.3.4-.6.4-.1 0-.3-.1-.4-.3.1.1 0-.1.5-1zm-1.7 1.4c1.6 0 3 1.5 3 3.4 0 1.6-1 3.1-2.3 3.1l-.3-2.5-1.2 1.3-.1-1.8-1.4 1.7c-.5-.1-.6-1.1-.6-1.8-.1-1.9 1.2-3.4 2.9-3.4zm3.2-8.5s0 .3-.2 1l-.3-.4.5-.6zm-.8 1 .4.5c-.1.2-.2.3-.3.5l-.5-.6.4-.4zm-.7.8.6.7c-.1.2-.2.4-.4.6l-.6-.8.4-.5zm-.7.8.6.9c-.1.2-.2.3-.3.5l-.8-.9.5-.5zm-.7 1 .7.9c-.2.2-.3.4-.5.7l-.7-1 .5-.6zm-.9.9c.2.4.5.8.7 1.1-.1.2-.3.4-.5.7l-.8-1.2.6-.6zm-.8 1c.2.4.6.9.8 1.2-.1.2-.3.5-.4.7l-1-1.3.6-.6zm-.8 1c.3.4.8 1.1 1.1 1.4 0 .2 0 .3.1.4 0 0-.2 0-.5.2l-1.1-1.4.4-.6zm-.7.8c.3.5.7 1.1 1 1.4-.2.2-.4.3-.6.6l-.9-1.3.5-.7zm-.9 1c.3.4.7 1 1 1.3-.1.2-.3.4-.4.7l-1.1-1.4.5-.6zm-.7.9 1.3 1.6c-.1.4-.2.9-.1 1.3l-1.8-2.2.6-.7zm-1 1.1 2 2.5c0 .2-.1.6-.1 1l-2.4-3 .5-.5zm-.8 1c.8 1 2.6 3.2 2.6 3.2s-.1.6-.2.8h-.1l-2.6-3.5.3-.5zm-.8.9 2.4 3H48l-1.9-2.4.6-.6zm-.8 1 1.5 2.1c-.3 0-.7 0-1 .1l-1-1.6.5-.6zm-.7.9.9 1.3c-.3 0-.6.1-.8.1l-.5-1 .4-.4zm-.8.9.4.7c-.2.1-.4.1-.6.2l-.2-.4.4-.5zm-2.7 2.5c4.7-2.4 8.1-1.7 8.1-1.7s-.5 1.6-.7 2c-.5.9-.5 1.9-.5 1.9s-3.1.3-4.6 1.1c-2.4 1.2-4.4 2.9-4.4 2.9l-4.2-1c1.8-2.7 4.7-4.5 6.3-5.2zm-6.5 5.6c.3-.1.8.2.9.4 1.2 2 2.9 6.2 4.1 10.6 1.3 4.7 2 9.2 2 9.2 0 .2 0 .6-.3.6-.3.1-.6-.3-.6-.4 0 0-.6-4.4-1.8-9.1-.7-2.4-1.5-4.7-2.3-6.6-.5-1.2-1.5-3.2-2.1-4.1-.1-.3 0-.5.1-.6zm-1.7 0c.1-.1.6-.2 1 .2 1.1 1 2.8 4.7 3.7 7.6.3 1 .7 2.1 1 3.2 1.2 4.6 1.8 8.6 1.9 9.1 0 .3 0 .4-.1.5-.2 0-.5-.2-.5-.3-.1-.3-.6-3.5-1.6-7.4-.7-2.7-1.6-5.5-2.6-8-.8-1.9-1.6-3.4-2.5-4.3-.3-.3-.4-.5-.3-.6zm0 .8s1.7 1.7 3.4 6.8c0 0 1.7 5.3 2.5 9 0 0 .5 2.6.6 3.4 0 0 .1.6-.4.3 0 0-.2 0-.3-.5 0 0-.7-3.9-1.9-8.1 0 0-.5-1.9-1.3-4.2-.9-2.5-2.1-5.6-4.1-6.7 0 0-.7-.2-.3-.5.1-.1.8-.6 1.8.5zm-.5-3.3-2.3-2.1c.2-.6.2-.8.8-1.1l2.2 2.4c.1.4-.3.9-.7.8zm1.6-1.8-2.3-2.6c.1-.7.1-1 .6-1.1l2.6 2.8c-.2.4-.4.7-.9.9zm1.7-2.1-2.9-3.2c-.1-.4.3-1 .8-.9l2.8 3.3c.1.3-.3.8-.7.8zm-.4-9.7 4.4 5.1c0 .2-.1.4-.2.6-.2.2-.4.2-.6.2L35.6 89c-.1-.8.1-1.1.3-1.4zm2.8 7c0 .4-.5.8-.8.8l-3.3-3.6c0-.6.1-1 .5-1.3l3.6 4.1zm-7.9-34s2.1 3.2 3.4 9.4c.6 2.9 1 6.1.8 10.6-.2 3.7-1 6.8-1.9 9.3-2.5 7.7-6.1 10.9-6.1 10.9l-.7-2.9-.2-1.7s1.8-1.7 3.7-6.6c1.3-3.3 1.9-7 2.1-10.8.1-1.9-.2-4.7-.5-6.5-1-5.7-3-9.1-3-9.1l2.4-2.6zm-7.1 6.8s1.2-.9 1.7-1.3 1.6-1.3 1.6-1.3 1 1.8 1.7 3.9c.7 2.1 1.4 5.1 1.5 8.3.2 8.2-2.4 13-4.3 16.1 0 0-.4.3-.9.2 0 0-.6-.2-1-.5-.2-.1-.4-.3-.4-.5l.1-24.9zm0 30.8c0 .4-.3.7-.6.7-.4 0-.6-.3-.6-.7 0-.4.3-.7.6-.7s.6.3.6.7zm-.1-2c0 .3-.2.6-.5.6s-.5-.3-.5-.6.2-.6.5-.6c.2 0 .5.2.5.6zm-4-55.8 3.6 3.7v49s-.8-.2-1.1-.2c-1.5 0-2.4 1-2.4 1V40.4h-.1zm0 79.2c.9 0 1.6 0 2.5.1.9.2 1.4.3 1.4.3v6.1l-3.9 4.6v-11.1z"/></g></g><g id="XMLID_436_"><path id="XMLID_453_" class="st7" d="M62.9 101.4 63 83l-2-2.4v20.1s1 .9 1.6 1.8c-.1-.1 0-.5.3-1.1z"/><path id="XMLID_447_" class="st7" d="M19.4 117.8c5.1-.3 9.6 2.7 9.6 2.7-2.7-6.1-9.6-6.2-9.6-6.2v3.5zm7.2.3c.2 0 .4.2.4.4s-.2.4-.4.4-.4-.2-.4-.4.2-.4.4-.4zm-1.5-1.1c.3 0 .5.3.5.6s-.2.6-.5.6-.5-.2-.5-.6.2-.6.5-.6zm-2-.9c.4 0 .6.3.6.7 0 .4-.3.7-.6.7-.4 0-.6-.3-.6-.7-.1-.4.2-.7.6-.7zm-2.3-.7c.4 0 .8.4.8.9s-.4.9-.8.9-.8-.4-.8-.9.3-.9.8-.9z"/><path id="XMLID_446_" class="st7" d="m19.4 129.5 3.4-4v-5.7s-.4-.1-.6-.2c-.2 0-.7-.1-.7-.1s-.1 2 .2 2.9c0 0 .2.7.3 1.6.1.8 0 1.7-.3 2.2 0 0-.7 1.3-1.1.7v-.3c.1-.5.2-1.4.2-1.9 0-.6 0-1.4-.3-2.3 0 0-.2-.6-.2-1.2-.1-.7-.1-1.4.2-1.7h-1.1v10z"/><path id="XMLID_445_" class="st7" d="m22.6 101.9-.8.3s-.4 1.7-.5 3.7c-.1 1.1-.1 2.3.1 3.4 0 0 .8 3.5.2 3.5 0 0-.7.3-1-1 0 0-.6-2.2-.6-4.9 0-1.3.1-3 .5-4.3l-1.1.4v9.7l1.6.2c.7.1 1.3.3 1.6.4v-11.4z"/><path id="XMLID_444_" class="st7" d="M58.9 103c1.2 1.1 2.4 2.4 3.4 4.2l1.4-.8s-1.6-2.9-4.6-5.4c-1.4-1.1-3.1-2.3-5.1-2.9l-.8 1.6s2.9.8 5.7 3.3z"/><path id="XMLID_443_" class="st7" d="M49 99.2s-2.1-.3-5.7 1.3c-2.4.9-4.2 2.7-4.9 3.5l-2.2-.5s1.9-2.6 6.4-4.6c4.6-2 7-1.4 7-1.4s-.4.9-.6 1.7z"/><path id="XMLID_442_" class="st7" d="M37.3 100.8c.8-.7 1.9-1.6 2.2-1.7l18.4-22-1.2-1.5-23.4 27.7s.4-.1.8-.1c.3 0 .9.1.9.1s.7-1.1 2.3-2.5z"/><path id="XMLID_441_" class="st7" d="m42.3 91-1.7 1.9-5-5.7 3.5.1.1 3.4z"/><g id="XMLID_437_"><path id="XMLID_440_" class="st7" d="M19.6 47.8c.4-1.4.5-5.3.5-5.3 1.6.8 1 3.2 1 3.2-1.2 4.4-.3 6.3-.3 6.3 1.4 2.8.5 4.8.5 4.8-.6 1.8-.8 3.1-.9 4-.1 1.5.3 2.2.3 2.2.2 1 .5 1.9.6 2.6.3 2 .2 3 .2 3-.1 1.2-.6 2.2-.8 3-.4 2.7.4 4 .4 4 1.1 2.8.4 5.3.4 5.3-.2 1.2-.6 2.2-.7 3.2-.2 2 .3 3.4.3 3.4 1.2 4.6.1 5.6.1 5.6h1V44.2l-2.9-3v8.4c.2-1 .3-1.8.3-1.8z"/><path id="XMLID_439_" class="st7" d="M20.2 53.4c-.3-.7-.8-1.1-.8-2v8.1c1.7-3.5.8-6.1.8-6.1z"/><path id="XMLID_438_" class="st7" d="M20.3 93.5c.2-.4.3-1.7.2-2.8 0-1.1-.2-2.1-.2-2.1-.2-.9-.4-1.7-.5-2.5-.1-.6-.1-1.1-.1-1.5 0-.8.1-1.3.1-1.3.1-.6.2-1 .4-1.4.7-2.7.2-3.9.2-3.9-1.6-4.3-.8-6.9-.8-6.9 1.1-2.4.6-5 .6-5-.4-1-.8-2.4-.8-3.8v31.9c.4-.4.9-.7.9-.7z"/></g></g><path id="XMLID_23_" class="st7" d="M63.9 83.8c-.2-.9-.3-1.6-.3-1.6H63l-.4-3.2-2.5-.1-.1-3.3-2.7-.3-.3-3.4-3-.1-.1-3.6-3-.4-7.3 8.5-7.2-8.6-1.4-1.6s.3 1.3.5 1.9c.1.6.3 1.5.3 1.5l.7-.1.4 3.2 2.4.2.3 3.3 2.6.3.3 3.4 3.2.1v3.5l3.1.3 7.3-8.5 8.4 10.2c-.5-.8-.5-.8-.6-1.6z"/><path class="st6" d="M18.9 135.2H81V16.4H18.4v118.7h.5v.1zm.4-1V17.4H80v116.8H19.3z"/><path id="XMLID_20_" class="st1" d="M33.6 27.2c-2.6-3.6-3.3-6.6-3.3-6.6s-.7 3-3.3 6.6c-2.6 3.6-5.1 4.6-5.1 4.6s2.4 1 5.1 4.6c2.6 3.6 3.3 6.6 3.3 6.6s.7-3 3.3-6.6c2.6-3.6 5.1-4.6 5.1-4.6s-2.4-1-5.1-4.6z"/><path id="XMLID_19_" class="st1" d="M65.8 124.4c2.6 3.6 3.3 6.6 3.3 6.6s.7-3 3.3-6.6c2.6-3.6 5.1-4.6 5.1-4.6s-2.4-1-5.1-4.6c-2.6-3.6-3.3-6.6-3.3-6.6s-.7 3-3.3 6.6c-2.6 3.6-5.1 4.6-5.1 4.6s2.5 1 5.1 4.6z"/><path id="XMLID_18_" class="st2" d="M12.7 30.9s1.4 4.5 4.6 6.3c0 0-3.2 1.7-4.6 6.2-1.4-4.6-4.6-6.2-4.6-6.2 3.2-1.9 4.6-6.3 4.6-6.3z"/><path id="XMLID_17_" class="st2" d="M86.7 120.7s-1.4-4.5-4.6-6.3c0 0 3.2-1.7 4.6-6.2 1.4 4.6 4.6 6.2 4.6 6.2-3.2 1.9-4.6 6.3-4.6 6.3z"/><path id="XMLID_16_" class="st2" d="M11.3 10.7v1.9h2.4v10.5c0 .3-.1.8-.3 1.2-.2.3-.6.6-1.1.6-.5 0-1.9.2-2.2-1.2-.1-.5-.1-1.5-.1-1.5H8s0 1.5.1 2.1c.2 1 1.3 2.6 3.9 2.6.9 0 3.3-.4 3.6-3.1.1-1.1.1-11.2.1-11.2h2v-1.9h-6.4z"/><path id="XMLID_14_" class="st2" d="M88.1 140.9V139h-2.4v-10.5c0-.3.1-.8.3-1.2.2-.3.6-.6 1.1-.6.5 0 1.9-.2 2.2 1.2.1.5.1 1.5.1 1.5h2s0-1.5-.1-2.1c-.2-1-1.3-2.6-3.9-2.6-.9 0-3.3.4-3.6 3.1-.1 1.1-.1 11.2-.1 11.2h-2v1.9h6.4z"/></g></svg>