<svg xmlns="http://www.w3.org/2000/svg" viewBox="0 0 99.4 151.6" style="enable-background:new 0 0 99.4 151.6" xml:space="preserve"><style>.st1{fill-rule:evenodd;clip-rule:evenodd}.st1,.st2{fill:#e52529}</style><g id="Calque_2"><path id="XMLID_15_" d="M99.3 5.3v140.9c0 2.9-2.3 5.2-5.2 5.2H5.3c-2.9 0-5.2-2.3-5.2-5.2V5.3C.1 2.4 2.4.1 5.3.1H94c2.9 0 5.3 2.4 5.3 5.2z" style="fill:#fff;stroke:#000;stroke-width:.25;stroke-miterlimit:2.6131"/></g><g id="Calque_1"><path id="XMLID_20_" class="st1" d="M53.8 27.7c-3.2-4.4-4.1-8-4.1-8s-.9 3.7-4.1 8c-3.2 4.4-6.2 5.6-6.2 5.6s3 1.2 6.2 5.6c3.2 4.4 4.1 8 4.1 8s.9-3.7 4.1-8c3.2-4.4 6.2-5.6 6.2-5.6s-3-1.3-6.2-5.6z"/><path id="XMLID_19_" class="st1" d="M53.8 112.8c-3.2-4.4-4.1-8-4.1-8s-.9 3.7-4.1 8c-3.2 4.4-6.2 5.6-6.2 5.6s3 1.2 6.2 5.6c3.2 4.4 4.1 8 4.1 8s.9-3.7 4.1-8c3.2-4.4 6.2-5.6 6.2-5.6s-3-1.3-6.2-5.6z"/><path id="XMLID_18_" class="st2" d="M91.3 135.7s.9 2.1-.6 3.8c-.4.5-2.3 2.4-5.8 1-.9-.3-3.2-1.8-2.4-4.9.1-.5 0-2 3.2-4.1.6-.4 2.9-2 3.8-5.2h-5.2v2.2h-1.9v-4.1h9.3s.2 3.2-2.7 6.5c-.3.3-2.1 2.1-3 2.7-.6.4-2 1.4-1.7 3.3.1.4.3 1.7 2 1.9.6.1 2.1.3 2.9-.9.1-.2.5-1 .3-1.8l1.8-.4z"/><path id="XMLID_17_" class="st2" d="M8.1 15.9s-.9-2.1.6-3.8c.4-.4 2.3-2.4 5.8-1 .9.3 3.2 1.8 2.4 4.8-.1.5 0 2-3.2 4.1-.6.4-2.9 2-3.8 5.2h5.2V23H17v4.1H7.7s-.2-3.2 2.7-6.5c.3-.3 2.1-2.1 3-2.7.6-.4 2-1.4 1.7-3.3-.1-.4-.3-1.7-2-1.9-.6-.1-2.1-.3-2.9.9-.1.2-.5 1-.3 1.8l-1.8.5z"/><path id="XMLID_16_" class="st2" d="M12.8 30.9s1.4 4.5 4.7 6.3c0 0-3.2 1.7-4.7 6.2-1.5-4.6-4.7-6.2-4.7-6.2 3.2-1.9 4.7-6.3 4.7-6.3z"/><path id="XMLID_14_" class="st2" d="M86.6 120.7s-1.4-4.5-4.7-6.3c0 0 3.2-1.7 4.7-6.2 1.5 4.6 4.7 6.2 4.7 6.2-3.2 1.9-4.7 6.3-4.7 6.3z"/></g></svg>