<svg xmlns="http://www.w3.org/2000/svg" viewBox="0 0 99.4 151.6" style="enable-background:new 0 0 99.4 151.6" xml:space="preserve"><style>.st1{fill-rule:evenodd;clip-rule:evenodd}.st1,.st2{fill:#e52529}.st3{fill-rule:evenodd;fill:#fff}.st3,.st4{clip-rule:evenodd}.st4{fill-rule:evenodd;fill:#6fc8e5}.st6{clip-rule:evenodd}.st6{fill-rule:evenodd;fill:none;stroke:#0d4f9e;stroke-width:.8504;stroke-linecap:round;stroke-linejoin:round;stroke-miterlimit:2.6131}.st7{fill-rule:evenodd;fill:#3b160e}.st7,.st8{clip-rule:evenodd}.st8{fill-rule:evenodd;fill:#6fc8e5;stroke:#0d4f9e;stroke-width:.7087;stroke-linecap:round;stroke-linejoin:round;stroke-miterlimit:2.6131}.st10{fill-rule:evenodd;fill:#bf1818}.st10{clip-rule:evenodd}.st13{clip-rule:evenodd}.st13{stroke:#0d4f9e;stroke-width:.652;stroke-linecap:round;stroke-linejoin:round;stroke-miterlimit:2.6131}.st13,.st14{fill-rule:evenodd;fill:none}.st14{clip-rule:evenodd;stroke:#10447f;stroke-width:.652;stroke-linecap:round;stroke-linejoin:round;stroke-miterlimit:2.6131}.st16{clip-rule:evenodd}.st16{fill-rule:evenodd;fill:none;stroke:#0d4f9e;stroke-width:.5669;stroke-miterlimit:2.6131}.st17{fill:#bf1818}.st18{stroke:#0d4f9e;stroke-width:1.4173;stroke-linecap:round;stroke-linejoin:round;stroke-miterlimit:2.6131}.st18,.st19{fill-rule:evenodd;clip-rule:evenodd;fill:none}.st19{stroke:#2aabe3;stroke-width:.652;stroke-linecap:round;stroke-linejoin:round;stroke-miterlimit:2.6131}.st20{fill-rule:evenodd;fill:none;stroke:#0d4f9e;stroke-width:2.126;stroke-linecap:round;stroke-linejoin:round;stroke-miterlimit:2.6131}.st20{clip-rule:evenodd}.st22{fill-rule:evenodd;fill:#6fc8e5}.st22,.st23{clip-rule:evenodd;stroke:#0ca551;stroke-width:.8504;stroke-linecap:round;stroke-linejoin:round;stroke-miterlimit:2.6131}.st23{fill-rule:evenodd;fill:none}.st24{fill-rule:evenodd;fill:none;stroke:#0d4f9e;stroke-width:.9921;stroke-linecap:round;stroke-linejoin:round;stroke-miterlimit:2.6131}.st24,.st25{clip-rule:evenodd}.st25{fill-rule:evenodd;fill:#6fc8e5;stroke:#0ca551;stroke-width:.5669;stroke-miterlimit:2.6131}</style><g id="Calque_2"><path id="XMLID_15_" d="M99.3 5.3v140.9c0 2.9-2.3 5.2-5.2 5.2H5.3c-2.9 0-5.2-2.3-5.2-5.2V5.3C.1 2.4 2.4.1 5.3.1H94c2.9 0 5.3 2.4 5.3 5.2z" style="fill:#fff;stroke:#000;stroke-width:.25;stroke-miterlimit:2.6131"/></g><g id="Calque_1"><path class="st1" d="M552.8 134.6c-3.2-4.4-4.1-8-4.1-8s-.9 3.7-4.1 8c-3.2 4.4-6.2 5.6-6.2 5.6s3 1.2 6.2 5.6c3.2 4.4 4.1 8 4.1 8s.9-3.7 4.1-8c3.2-4.4 6.2-5.6 6.2-5.6s-2.9-1.3-6.2-5.6zM510.8 134.6c-3.2-4.4-4.1-8-4.1-8s-.9 3.7-4.1 8c-3.2 4.4-6.2 5.6-6.2 5.6s3 1.2 6.2 5.6c3.2 4.4 4.1 8 4.1 8s.9-3.7 4.1-8c3.2-4.4 6.2-5.6 6.2-5.6s-3-1.3-6.2-5.6zM531.8 177.1c-3.2-4.4-4.1-8-4.1-8s-.9 3.7-4.1 8c-3.2 4.4-6.2 5.6-6.2 5.6s3 1.2 6.2 5.6c3.2 4.4 4.1 8 4.1 8s.9-3.7 4.1-8c3.2-4.4 6.2-5.6 6.2-5.6s-3-1.2-6.2-5.6zM552.8 219.7c-3.2-4.4-4.1-8-4.1-8s-.9 3.7-4.1 8c-3.2 4.4-6.2 5.6-6.2 5.6s3 1.2 6.2 5.6c3.2 4.4 4.1 8 4.1 8s.9-3.7 4.1-8c3.2-4.4 6.2-5.6 6.2-5.6s-2.9-1.3-6.2-5.6zM510.8 219.7c-3.2-4.4-4.1-8-4.1-8s-.9 3.7-4.1 8c-3.2 4.4-6.2 5.6-6.2 5.6s3 1.2 6.2 5.6c3.2 4.4 4.1 8 4.1 8s.9-3.7 4.1-8c3.2-4.4 6.2-5.6 6.2-5.6s-3-1.3-6.2-5.6z"/><path class="st2" d="M486.7 117.5h7.8v1.8h-6l-.2 3s2.8-1.6 5.5.7c.5.4 2.9 2.9 1.4 7.8-.3 1-2 3.6-5.6 3.1-.2 0-2.9-.7-3.9-3.7l1.7-.4s1.3 2.7 3.1 2.5c.9-.1 3.3-.7 3.2-4.6 0-.3 0-3.7-2.9-4.2-1-.2-2.2 0-3.9 1.7l-.8-.5.6-7.2zM568.8 247.8h-7.9V246h6l.2-3s-2.8 1.6-5.5-.7c-.5-.4-2.9-2.9-1.4-7.8.3-1 2-3.6 5.6-3.1.2 0 2.9.7 3.9 3.7l-1.7.4s-1.3-2.7-3.1-2.5c-.9.1-3.3.7-3.2 4.6 0 .3 0 3.7 2.9 4.2 1 .2 2.2 0 3.9-1.7l.8.5-.5 7.2zM490.8 137.7s1.4 4.5 4.7 6.3c0 0-3.2 1.7-4.7 6.2-1.5-4.6-4.7-6.2-4.7-6.2 3.3-1.8 4.7-6.3 4.7-6.3zM564.7 227.6s-1.4-4.5-4.7-6.3c0 0 3.2-1.7 4.7-6.2 1.5 4.6 4.7 6.2 4.7 6.2-3.3 1.8-4.7 6.3-4.7 6.3z"/><path class="st1" d="M552.8 134.6c-3.2-4.4-4.1-8-4.1-8s-.9 3.7-4.1 8c-3.2 4.4-6.2 5.6-6.2 5.6s3 1.2 6.2 5.6c3.2 4.4 4.1 8 4.1 8s.9-3.7 4.1-8c3.2-4.4 6.2-5.6 6.2-5.6s-2.9-1.3-6.2-5.6zM510.8 134.6c-3.2-4.4-4.1-8-4.1-8s-.9 3.7-4.1 8c-3.2 4.4-6.2 5.6-6.2 5.6s3 1.2 6.2 5.6c3.2 4.4 4.1 8 4.1 8s.9-3.7 4.1-8c3.2-4.4 6.2-5.6 6.2-5.6s-3-1.3-6.2-5.6zM531.8 177.1c-3.2-4.4-4.1-8-4.1-8s-.9 3.7-4.1 8c-3.2 4.4-6.2 5.6-6.2 5.6s3 1.2 6.2 5.6c3.2 4.4 4.1 8 4.1 8s.9-3.7 4.1-8c3.2-4.4 6.2-5.6 6.2-5.6s-3-1.2-6.2-5.6zM552.8 219.7c-3.2-4.4-4.1-8-4.1-8s-.9 3.7-4.1 8c-3.2 4.4-6.2 5.6-6.2 5.6s3 1.2 6.2 5.6c3.2 4.4 4.1 8 4.1 8s.9-3.7 4.1-8c3.2-4.4 6.2-5.6 6.2-5.6s-2.9-1.3-6.2-5.6zM510.8 219.7c-3.2-4.4-4.1-8-4.1-8s-.9 3.7-4.1 8c-3.2 4.4-6.2 5.6-6.2 5.6s3 1.2 6.2 5.6c3.2 4.4 4.1 8 4.1 8s.9-3.7 4.1-8c3.2-4.4 6.2-5.6 6.2-5.6s-3-1.3-6.2-5.6z"/><path class="st2" d="M486.7 117.5h7.8v1.8h-6l-.2 3s2.8-1.6 5.5.7c.5.4 2.9 2.9 1.4 7.8-.3 1-2 3.6-5.6 3.1-.2 0-2.9-.7-3.9-3.7l1.7-.4s1.3 2.7 3.1 2.5c.9-.1 3.3-.7 3.2-4.6 0-.3 0-3.7-2.9-4.2-1-.2-2.2 0-3.9 1.7l-.8-.5.6-7.2zM568.8 247.8h-7.9V246h6l.2-3s-2.8 1.6-5.5-.7c-.5-.4-2.9-2.9-1.4-7.8.3-1 2-3.6 5.6-3.1.2 0 2.9.7 3.9 3.7l-1.7.4s-1.3-2.7-3.1-2.5c-.9.1-3.3.7-3.2 4.6 0 .3 0 3.7 2.9 4.2 1 .2 2.2 0 3.9-1.7l.8.5-.5 7.2zM490.8 137.7s1.4 4.5 4.7 6.3c0 0-3.2 1.7-4.7 6.2-1.5-4.6-4.7-6.2-4.7-6.2 3.3-1.8 4.7-6.3 4.7-6.3zM564.7 227.6s-1.4-4.5-4.7-6.3c0 0 3.2-1.7 4.7-6.2 1.5 4.6 4.7 6.2 4.7 6.2-3.3 1.8-4.7 6.3-4.7 6.3z"/><path class="st1" d="M552.8 134.6c-3.2-4.4-4.1-8-4.1-8s-.9 3.7-4.1 8c-3.2 4.4-6.2 5.6-6.2 5.6s3 1.2 6.2 5.6c3.2 4.4 4.1 8 4.1 8s.9-3.7 4.1-8c3.2-4.4 6.2-5.6 6.2-5.6s-2.9-1.3-6.2-5.6zM510.8 134.6c-3.2-4.4-4.1-8-4.1-8s-.9 3.7-4.1 8c-3.2 4.4-6.2 5.6-6.2 5.6s3 1.2 6.2 5.6c3.2 4.4 4.1 8 4.1 8s.9-3.7 4.1-8c3.2-4.4 6.2-5.6 6.2-5.6s-3-1.3-6.2-5.6zM531.8 177.1c-3.2-4.4-4.1-8-4.1-8s-.9 3.7-4.1 8c-3.2 4.4-6.2 5.6-6.2 5.6s3 1.2 6.2 5.6c3.2 4.4 4.1 8 4.1 8s.9-3.7 4.1-8c3.2-4.4 6.2-5.6 6.2-5.6s-3-1.2-6.2-5.6zM552.8 219.7c-3.2-4.4-4.1-8-4.1-8s-.9 3.7-4.1 8c-3.2 4.4-6.2 5.6-6.2 5.6s3 1.2 6.2 5.6c3.2 4.4 4.1 8 4.1 8s.9-3.7 4.1-8c3.2-4.4 6.2-5.6 6.2-5.6s-2.9-1.3-6.2-5.6zM510.8 219.7c-3.2-4.4-4.1-8-4.1-8s-.9 3.7-4.1 8c-3.2 4.4-6.2 5.6-6.2 5.6s3 1.2 6.2 5.6c3.2 4.4 4.1 8 4.1 8s.9-3.7 4.1-8c3.2-4.4 6.2-5.6 6.2-5.6s-3-1.3-6.2-5.6z"/><path class="st2" d="M486.7 117.5h7.8v1.8h-6l-.2 3s2.8-1.6 5.5.7c.5.4 2.9 2.9 1.4 7.8-.3 1-2 3.6-5.6 3.1-.2 0-2.9-.7-3.9-3.7l1.7-.4s1.3 2.7 3.1 2.5c.9-.1 3.3-.7 3.2-4.6 0-.3 0-3.7-2.9-4.2-1-.2-2.2 0-3.9 1.7l-.8-.5.6-7.2zM568.8 247.8h-7.9V246h6l.2-3s-2.8 1.6-5.5-.7c-.5-.4-2.9-2.9-1.4-7.8.3-1 2-3.6 5.6-3.1.2 0 2.9.7 3.9 3.7l-1.7.4s-1.3-2.7-3.1-2.5c-.9.1-3.3.7-3.2 4.6 0 .3 0 3.7 2.9 4.2 1 .2 2.2 0 3.9-1.7l.8.5-.5 7.2zM490.8 137.7s1.4 4.5 4.7 6.3c0 0-3.2 1.7-4.7 6.2-1.5-4.6-4.7-6.2-4.7-6.2 3.3-1.8 4.7-6.3 4.7-6.3zM564.7 227.6s-1.4-4.5-4.7-6.3c0 0 3.2-1.7 4.7-6.2 1.5 4.6 4.7 6.2 4.7 6.2-3.3 1.8-4.7 6.3-4.7 6.3z"/><g id="XMLID_14_"><path id="XMLID_403_" class="st1" d="M44.4 59.9c-.5-5.1-9.6-16.9-8.4-16l1.2-.6.9 1c0 .6.5 1.1 1.2 1.6l1.2 1.3.6 1 1.7.2 2.4-.6.8-1 1.5-.7.2-1.6h.9l1.2 2.7 1.7 1.4 2.5.6 2.6-.6c-.2-.2-12.3 11.1-12.2 11.3z"/><path id="XMLID_402_" class="st1" d="M55.5 90.6c.5 5.1 9.5 17.1 8.3 16.2l-1.2.6-.8-1.3-1.3-1.3-1.2-1.3-.6-1-1.7-.2-2.4.6-.8 1-1.5.7-.2 1.6h-.9l-1.2-2.7-1.7-1.4-3.1-.6-2.1.6c.3.2 12.6-11.4 12.4-11.5z"/><path id="XMLID_401_" class="st3" d="m61.2 46.2 10.1-.1c-20.9 22.4-12.4 44.5 1.5 57.7l-9.6 3.3c-9.9-17.4-16.4-37.7-2-60.9z"/><path id="XMLID_400_" class="st3" d="m38.6 104.5-10.1.1c21-22.4 12.4-44.5-1.5-57.7l9.7-3.3C46.5 61 53 81.3 38.6 104.5z"/><path id="XMLID_399_" class="st4" d="m72.8 103.5-6.4-7.3 7.6-5.3 8.6-6 .2 11.7c-2.9 3-6.3 5.1-10 6.9z"/><path id="XMLID_398_" class="st4" d="m26.9 47.1 6.4 7.3-7.6 5.3-8.9 6.3-.3-11.7c2.9-3 6.7-5.3 10.4-7.2z"/><path id="XMLID_397_" class="st1" d="m62.6 90.5 3.1-.4 2.2-1.5 1.7.1 2.4 1.2 2.1 2.2c-2.2 1.7-4.8 3.3-7.7 4.5l-3.8-6.1z"/><path id="XMLID_396_" d="m37.2 60.2-3.1.4-2.2 1.5-1.7-.1-2.4-1.2-2.1-2.2c2.2-1.8 4.8-3.3 7.7-4.5l3.8 6.1z" style="clip-rule:evenodd;fill-rule:evenodd;fill:#e52529;stroke:#2aabe3;stroke-width:.216;stroke-miterlimit:2.6131"/><path id="XMLID_395_" class="st6" d="M74.2 92s-5.2 3.6-7.6 4.4"/><path id="XMLID_394_" class="st6" d="M25.5 58.6s5.2-3.6 7.6-4.4"/><path id="XMLID_393_" class="st7" d="M46.9 70.9h6v8h-6z"/><path id="XMLID_392_" class="st7" d="M67.5 97.7s1.3 2 2 2.1c.6.1 12.1-6.9 13.2-10v-3.1c-.1 0-5.8 6.7-15.2 11z"/><path id="XMLID_391_" class="st7" d="M32.3 53s-1.3-2-2-2.1c-.6-.1-12.6 7.4-13.7 10.4v3.1c.1 0 6.3-7.1 15.7-11.4z"/><path id="XMLID_390_" class="st7" d="M69.9 100.4s.6 1.9 1.2 2c.6-.1 10.5-5.7 11.6-7.9v-3.1c.1-.1-3.4 4.7-12.8 9z"/><path id="XMLID_389_" class="st7" d="M29.8 50.3s-.6-1.9-1.2-2c-.7 0-10.6 5.7-11.7 7.9v3.1s3.5-4.8 12.9-9z"/><path id="XMLID_388_" class="st1" d="m68.2 75.6.6 7 2.4-1.4 2.4-1.6 3.3-.3.2-18.3v-.9l-5.5-4.9 1.6 8.1-1.6 8.3z"/><path id="XMLID_387_" class="st1" d="m31.5 75-.6-7.2-2.4 1.6-2.4 1.7-3.3.3-.1 18.3v.8l5.4 4.9-1.6-8 1.6-8.3z"/><path id="XMLID_386_" class="st8" d="M68.3 49.8s-5.6 7.2-7.2 12.4c-1.6 5.3-2.3 9.6-2.2 12.4.1 2.8.1 6.1.6 6.4.5.4 11.7-4.1 13.3-13.3 1.7-9.2-2.7-15.4-4.5-17.9z"/><path id="XMLID_385_" class="st8" d="M31.4 100.9s5.6-7.2 7.3-12.4c1.6-5.3 2.3-9.6 2.2-12.4-.1-2.8-.1-6.1-.6-6.4-.5-.4-11.7 4.1-13.3 13.3-1.8 9.2 2.6 15.4 4.4 17.9z"/><path id="XMLID_384_" class="st7" d="m64.4 55.3 2.7-4.1c4.3 3.3 5.6 10.7 4.6 15.4-1.2 5.9-4.5 11.5-12.5 13.8l-.1-5.4c8-4.4 11.4-11.9 5.3-19.7z"/><path id="XMLID_383_" class="st7" d="M59.2 72.5c1.2-.1 2.3-.7 2.6-1.2.3-.4.5-1.9 1.2-2.2.7-.3 1.5-1.4 1.6-1.8.1-.5-.1-1.1.2-1.8.3-.7.7-1 .9-1.6.2-.5.1-1.7-.3-2.3-1.2-1.5-.3-.5-.4-2.4-.1-.9-1.8-2.3-1.8-2.3l.4-.9c2.8 3.2 3.2 6.8 2.4 10-1 3.8-4 6.9-7 7.9l.2-1.4z"/><path id="XMLID_382_" class="st7" d="M62.2 59.6s.7 1.3.7 3.2c.1 1.6-.3 4.1-2.2 6-1.7 1.5-1.5.9-1.5.9l-.1 1.2s2.1-1.1 2.6-1.6.4-.7.6-1.1c.3-.4.2-.9.9-1.9.9-1 .5-1.2.4-2-.4-1-.2-1.9.1-2.4.3-.5.4-.9-.1-1.4-.7-.5-1.1-1.6-1.1-1.6l-.3.7z"/><path id="XMLID_381_" class="st7" d="m61.8 60.5-2.2 7.9s1.9-1.4 2.4-3.5c.4-2.1.2-2.9-.2-4.4z"/><path id="XMLID_380_" class="st7" d="m35.4 95.4-2.7 4.1c-4.3-3.3-5.6-10.7-4.6-15.4 1.2-5.9 4.5-11.5 12.5-13.8l.1 5.4c-8.1 4.3-11.4 11.9-5.3 19.7z"/><path id="XMLID_379_" class="st7" d="M40.6 78.1c-1.2.1-2.3.7-2.6 1.2-.3.4-.5 1.9-1.2 2.2-.7.3-1.5 1.4-1.6 1.8-.1.5.1 1.1-.2 1.8-.3.7-.7 1-.9 1.6-.2.5-.1 1.7.3 2.3 1.2 1.5.3.5.4 2.4.1.9 1.8 2.3 1.8 2.3l-.6.8c-2.8-3.2-3.2-6.8-2.4-10 1-3.8 4-6.9 7.1-7.9l-.1 1.5z"/><path id="XMLID_378_" class="st7" d="M37.5 91.1s-.7-1.3-.7-3.2c-.1-1.6.3-4.1 2.2-6 1.7-1.5 1.5-.9 1.5-.9l.1-1.2s-2.1 1.1-2.6 1.6-.4.7-.6 1.1c-.3.4-.2.9-.9 1.9-.9 1-.5 1.2-.4 2 .4 1 .2 1.9-.1 2.4-.3.5-.4.9.1 1.4.7.5 1.1 1.6 1.1 1.6l.3-.7z"/><path id="XMLID_377_" class="st7" d="m38 90.2 2.2-7.9s-1.9 1.4-2.4 3.5c-.4 2.1-.3 2.9.2 4.4z"/><path id="XMLID_376_" d="M59.5 81s4.3-1.2 5.2-2.1c1-.9 4-3.3 4-3.3l.3 6.9-1.7.2c.7.4 1.3 5.6.2 6.6-1.7 1.6-3.6 1.3-4.5 1.4-.3 0 .1.7.2 1.4l-3.4-.6-4.5-3.8 1.7-2.1.2-2.4-1.1-1.8c.8-1 1.7-2 2.5-2.9l.9 2.5z" style="clip-rule:evenodd;fill-rule:evenodd;fill:#bf1818;stroke:#0d4f9e;stroke-width:.5669;stroke-miterlimit:2.6131"/><path id="XMLID_375_" class="st10" d="M40.3 69.7s-4.3 1.2-5.2 2.1c-1 .9-4 3.3-4 3.3l-.3-6.9 1.7-.2c-.7-.4-1.4-5.6-.2-6.6 1.7-1.6 3.6-1.3 4.6-1.4.3 0-.1-.7-.2-1.4l3.4.6 4.6 3.8-1.7 2.1-.2 2.4 1.1 1.8c-.8 1-1.7 2-2.5 2.9l-1.1-2.5z"/><path id="XMLID_374_" class="st10" d="M67.9 40.5s1-1.3 1-2-.8-1-.3-2c.6-1 .8-1.2.8-1.2-.1.1-.1-1.1.5-1.5 0 0-.5-.2-.5.2s-.7.6-.7.9c-.7.8-2.1.5-2.6-.1-.6-.7-.7-1.8.6-2.2 1.1 0 1 .1.7-1.1-.3-.6-2.7-.2-2.7-.2l-1.3.1-.7-3.5 1.4-1.9 2.9.1s-.5-2.1.7-2.9c1.1-.8 1.2-1 2.3-.6 1.1.5 1.1 1.3 1 1.7-.1.4-.3.6.1.8.5.2 1.7-.7 2.2.3.2.3 1-.1 1.6.3.7-.2 1.2-.1 1.8.7.7-.2 1.2-.4 1.6.6 1.6-.8 3.1.9 2.9 2.2-.2 1.2-.8 2.7-3 2-.2-.4-.1 1.4-1.6 2.7.7.2 1.1 1.2.6 1.7.9.6 1.2 2.1.2 2.7-.2 1.4 3.7 8.6 3.9 7.8l-15.1.2c1.7-2 2.2-3.9 1.7-5.8z"/><path id="XMLID_373_" class="st10" d="M31.8 110.1s-1 1.3-1 2 .8 1 .3 2c-.6 1-.8 1.2-.8 1.2.1-.1.1 1.1-.5 1.5 0 0 .5.2.5-.2s.7-.6.7-.9c.7-.8 2.1-.5 2.6.1.6.7.7 1.8-.6 2.2-1.1 0-1-.1-.7 1.1.3.6 2.7.2 2.7.2l1.3-.1.7 3.5-1.4 1.9-2.9-.1s.5 2.1-.7 2.9c-1.2.8-1.2 1-2.4.6-1.2-.5-1.1-1.3-1-1.7.1-.4.3-.6-.1-.8-.5-.2-1.7.7-2.3-.3-.2-.3-1 .1-1.6-.3-.7.2-1.2.1-1.8-.7-.7.2-1.2.4-1.6-.6-1.7.8-3.1-.9-3-2.2.2-1.2.8-2.7 3-2 .2.4.1-1.4 1.6-2.7-.7-.2-1.2-1.2-.6-1.7-.9-.6-1.2-2.1-.2-2.7.2-1.4-3.7-8.6-3.9-7.8l15.1-.2c-1.4 2-1.9 3.9-1.4 5.8z"/><path id="XMLID_372_" d="M67.9 40.5s1-1.3 1-2-.8-1-.3-2c.6-1 .8-1.2.8-1.2-.1.1-.1-1.1.5-1.5-.5-.2 4.9.8 6.8 0 .7.2 1.1 1.2.6 1.7.9.6 1.2 2.1.2 2.7-.2 1.4 3.7 8.6 3.9 7.8l-15.1.2c1.6-1.9 2.1-3.8 1.6-5.7z" style="fill-rule:evenodd;fill:#0ca551;clip-rule:evenodd"/><path id="XMLID_371_" class="st10" d="M31.8 110.1s-1 1.3-1 2 .8 1 .3 2c-.6 1-.8 1.2-.8 1.2.1-.1.1 1.1-.5 1.5.5.2-4.9-.8-6.8 0-.7-.2-1.2-1.2-.6-1.7-.9-.6-1.2-2.1-.2-2.7.2-1.4-3.7-8.6-3.9-7.8l15.1-.2c-1.6 1.9-2.1 3.8-1.6 5.7z"/><path id="XMLID_370_" class="st4" d="m40.7 27-8.9-11 41.2-.2-10.5 12c-6.5-2.2-13.8-2.4-21.8-.8z"/><path id="XMLID_369_" class="st4" d="m59.1 123.6 9.1 12.3H26.8l10.4-13.1c6.6 2.3 13.9 2.5 21.9.8z"/><path id="XMLID_368_" class="st7" d="m39.9 26.3-1.6-2 3.4-.8 1 .8.9-1.1 6.1-.3.8.9 1.2-.9 6.3.5.9 1 1.8-.7 4.4 1-2 2.4-.6.2-7.8-1z"/><path id="XMLID_367_" class="st7" d="m60 124.4 1.6 2-3.5.8-.9-.8-1 1-6.1.4-.8-.9-1.2.9-6.4-.5-.8-1.1-1.8.8-4.5-1.1 2-2.3.7-.2 7.8 1z"/><path class="st7" d="m46 19.2 2.3 3-4.3.3 2-3.3zm.1 1.4-.7 1.1 1.5-.1-.8-1zM53.8 131.9l-2.3-3 4.4-.3-2.1 3.3zm-.1-1.4.7-1.1-1.5.1.8 1zM55.4 19.4l1.9 3.3-4.3-.3 2.4-3zm-.1 1.4-.8 1 1.5.1-.7-1.1zM44.4 131.7l-1.9-3.3 4.4.3-2.5 3zm.1-1.5.8-1-1.5-.1.7 1.1zM64 20.7l1.2 3.6-4.2-1.2 3-2.4zm-.4 1.3-1 .8 1.4.4-.4-1.2zM35.7 130l-1.2-3.6 4.2 1.1-3 2.5zm.4-1.4 1-.8-1.4-.4.4 1.2zM37.8 20l3.1 3.1-3.3.6-.9-.9 1.1-2.8zm.3 1.5-.5 1.3 1.8-.4-1.3-.9zM62.1 131.1 59 128l3.3-.6.8 1.2-1 2.5zm-.3-1.5.5-1.3-1.8.3 1.3 1z"/><ellipse id="XMLID_350_" transform="matrix(-.08727 -.9962 .9962 -.08727 31.908 65.746)" class="st7" cx="46.1" cy="18.3" rx=".8" ry=".9"/><ellipse id="XMLID_349_" transform="matrix(.08613 .9963 -.9963 .08613 181.463 67.844)" class="st7" cx="53.8" cy="132.8" rx=".8" ry=".9"/><path id="XMLID_348_" class="st7" d="M55.6 17.3c-.5 0-.9.3-.9.8s.3.9.8.9.9-.3.9-.8c.1-.4-.3-.8-.8-.9z"/><ellipse id="XMLID_347_" transform="rotate(94.456 44.203 132.92) scale(1.00002)" class="st7" cx="44.2" cy="132.9" rx=".8" ry=".9"/><ellipse id="XMLID_346_" transform="rotate(-74.133 64.46 19.491)" class="st7" cx="64.5" cy="19.5" rx=".8" ry=".9"/><ellipse id="XMLID_345_" transform="rotate(105.867 35.295 131.598)" class="st7" cx="35.3" cy="131.6" rx=".8" ry=".9"/><path id="XMLID_344_" class="st7" d="M37.5 17.9c-.5.1-.8.5-.7 1 .1.4.6.7 1 .6.5-.1.8-.5.7-1-.1-.4-.6-.7-1-.6z"/><ellipse id="XMLID_343_" transform="rotate(78.012 62.218 132.338)" class="st7" cx="62.2" cy="132.3" rx=".8" ry=".9"/><path id="XMLID_342_" class="st1" d="M27 25.2c.1.5.2 1.1.3 1.6.1.9.8 1.4 1.1.1.1-.3.2-.8.3-1.3.8-4.2 6.9-3.3 7.6.1.7 3.4-.3 6-3.3 9.8-3 3.8-4.4 6.3-5.1 8.6-.6-3-6.2-9.7-7.7-12.8-1.5-3.1-1-7.1 1.4-8.1 2.3-1.1 5.1 0 5.4 2z"/><path id="XMLID_341_" class="st1" d="M72.9 125.5c-.1-.5-.2-1.1-.3-1.6-.1-.9-.8-1.4-1.1-.1-.1.3-.2.8-.3 1.3-.8 4.2-6.9 3.3-7.6-.1-.7-3.4.3-6 3.3-9.8 3-3.8 4.4-6.3 5.1-8.6.6 3 6.2 9.7 7.7 12.8 1.5 3.1 1 7.1-1.4 8.1-2.3 1-5.1-.1-5.4-2z"/><path id="XMLID_340_" class="st1" d="M39.5 25.6c9.4-1.9 13.9-1.8 24.3.3l-.6 1.5c-7.5-1.5-14.9-1.5-22.2-.4l-1.5-1.4z"/><path id="XMLID_339_" d="M60.3 125.1c-9.5 1.9-13.9 1.8-24.4-.3l.6-1.5c7.5 1.5 15 1.5 22.3.5l1.5 1.3z" style="clip-rule:evenodd;fill-rule:evenodd;fill:#e32285"/><path id="XMLID_338_" class="st13" d="M40.9 27.3s.2 6.4.2 9.4c0 3.1.3 3.2.7 4.2.4 1 0 2.4-.7 3-2.9 2.3-4.5-1.4-4.1-2.6"/><path id="XMLID_337_" class="st13" d="M59 123.4s-.2-6.4-.2-9.4c0-3.1-.3-3.2-.7-4.2-.4-1 0-2.4.7-3 2.9-2.3 4.5 1.4 4.1 2.6"/><path id="XMLID_336_" class="st13" d="m40.9 30.1-1.4 3.7s-1.9-.5-2 .5c-.1 1 .3 2.4 1.7 2.2 1.4-.2 1.7-1.7 1.7-1.7"/><path id="XMLID_335_" class="st13" d="m58.9 120.6 1.4-3.7s1.9.5 2-.5c.1-1-.3-2.4-1.7-2.2-1.4.2-1.7 1.7-1.7 1.7"/><path id="XMLID_334_" class="st14" d="M37.8 40.7s2.6-1.1 3.2-3.4"/><path id="XMLID_333_" class="st13" d="M62.1 110s-2.6 1.1-3.2 3.4"/><path id="XMLID_332_" class="st14" d="M39 40.1s-1-2-2.2-.8c-1.1 1.2.1 2.6 1.2 2.6 1.1 0 3.2-1.8 3.2-2.2"/><path id="XMLID_331_" class="st13" d="M60.8 110.6s1 2 2.2.8c1.1-1.2-.1-2.6-1.2-2.6-1.1 0-3.2 1.8-3.2 2.2"/><path id="XMLID_330_" class="st14" d="M36.9 41.4s-.4 2.7 2.9 1.5c.8-.8 1-1 1.8-2.6"/><path id="XMLID_329_" class="st13" d="M63 109.2s.4-2.7-2.9-1.5c-.8.8-1 1-1.8 2.6"/><path id="XMLID_328_" class="st14" d="M38 44.3c-.3.3 1.5 2.9 3.5 1.2s1.7-2.3 1.6-2.7"/><path id="XMLID_327_" class="st13" d="M61.8 106.3c.3-.3-1.5-2.9-3.5-1.2s-1.7 2.3-1.6 2.7"/><path id="XMLID_326_" class="st13" d="M39.4 45.9c.1 0 .3 2.3 3.3.7 1.2-.9 1-1.4 1.5-2.7"/><path id="XMLID_325_" class="st13" d="M60.5 104.8c-.1 0-.3-2.3-3.3-.7-1.2.9-1 1.4-1.5 2.7"/><path id="XMLID_324_" class="st13" d="M40.2 47.1s1.7 2.2 3.3.6c1.6-1.7 1.7-3.1 1.7-3.1"/><path id="XMLID_323_" class="st13" d="M59.6 103.6s-1.7-2.2-3.3-.6c-1.6 1.7-1.7 3.1-1.7 3.1"/><path id="XMLID_322_" class="st13" d="M43.4 48s2.3-.2 2.6-1.4c.3-1.2.4-2.2.4-2.2"/><path id="XMLID_321_" class="st13" d="M56.4 102.7s-2.3.2-2.6 1.4c-.3 1.2-.4 2.2-.4 2.2"/><path id="XMLID_320_" class="st13" d="M48.6 44.5s1.1 3.7 3.3 4.2"/><path id="XMLID_319_" class="st13" d="M51.3 106.2s-1.1-3.7-3.3-4.2"/><path id="XMLID_318_" class="st14" d="M45.9 46.6s1.3.3 1.8-2.1"/><path id="XMLID_317_" class="st13" d="M53.9 104.1s-1.3-.3-1.8 2.1"/><path id="XMLID_316_" class="st13" d="M54.3 47.7s-3.8.7-4.8-3.2"/><path id="XMLID_315_" class="st13" d="M45.5 103s3.8-.7 4.8 3.2"/><path id="XMLID_314_" class="st14" d="M53.6 46.5s-1.1.3-3.1-2.4"/><path id="XMLID_313_" class="st13" d="M46.2 104.1s1.1-.3 3.1 2.4"/><path id="XMLID_312_" class="st14" d="M53.8 45.7s-1.3-.2-1.9-1.7"/><path id="XMLID_311_" class="st13" d="M46 105s1.3.2 1.9 1.7"/><path id="XMLID_310_" class="st14" d="M54.4 45s-1.4-.9-1.8-1.7"/><path id="XMLID_309_" class="st13" d="M45.3 105.6s1.5.9 1.8 1.7"/><path id="XMLID_308_" class="st14" d="m55.5 44.8-1.4-2"/><path id="XMLID_307_" class="st13" d="m44.3 105.9 1.4 2"/><path id="XMLID_306_" class="st14" d="M57 44.1s-1.8-1.5-2.1-2.3"/><path id="XMLID_305_" class="st13" d="M42.8 106.6s1.8 1.5 2.1 2.3"/><path id="XMLID_304_" class="st14" d="M57.4 43.4s-.9-2.1-1.3-2.7"/><path id="XMLID_303_" class="st13" d="M42.4 107.3s.9 2.1 1.3 2.7"/><path id="XMLID_302_" class="st14" d="M57.8 42.7s-.3-2-1.2-3.2"/><path id="XMLID_301_" class="st13" d="M41.9 107.9s.3 2 1.2 3.2"/><path id="XMLID_300_" class="st14" d="M58.9 42.5s-.5-3.2-1.2-4.2"/><path id="XMLID_299_" class="st13" d="M40.8 108.2s.5 3.2 1.2 4.2"/><path id="XMLID_298_" class="st14" d="M60 42.8s-.4-5.3-1.6-6.1"/><path id="XMLID_297_" class="st13" d="M39.8 107.8s.4 5.3 1.6 6.1"/><path id="XMLID_296_" class="st13" d="M60.3 43.6c.8.1 1.8-1.2.7-3.4-1-2.3-4.1-10-4.5-13.3"/><path id="XMLID_295_" class="st13" d="M39.5 107.1c-.8-.1-1.8 1.2-.7 3.4 1.1 2.3 4.1 10 4.5 13.3"/><path id="XMLID_294_" class="st13" d="M59.3 27.1c-.4-.4-.1 4.4 1.7 7.6 1.8 3.1 5.4 9.6.8 11.4-1.8 0-1.1.3-1.5.2"/><path id="XMLID_293_" class="st13" d="M40.4 123.6c.4.4-.5-5.7-1.7-7.6-.6-1.1-5.5-9.6-.8-11.4 1.8 0 1.1-.3 1.5-.2"/><path id="XMLID_292_" class="st13" d="M60.7 27.2c-1.4 5.7 5.9 11.2 4.3 17.3-.4 1.6-.6 2.2-2.7 1.6"/><path id="XMLID_291_" class="st13" d="M39.1 123.5s.8-1.6-.1-3.8c-.9-2.1-3.8-7.4-4-8.2-.3-.8-.9-3.8-.2-5.3.8-1.5.6-2.2 2.7-1.6"/><path class="st10" d="M41 30.2s1-1.2 3-.9c2 .3 2.4 1.4 2.5 2 .2.6-.1 2.6-.6 4.1-.5 1.5-.8 2.3-.1 2.7.7.4 1 .4 1 .4s.2.6-.2.4c-.4-.2-2.1-.7-1.9-1.3.2-.6.6-2.2.6-2.2s-1.3.9-1.6.7c-.3-.2 1.5-1.5 1.6-2 .1-.4-2 .9-2.9.2-.9-.6-1.3-.5-1.3-.5l-.1-3.6zm.4.5c-.1.2 0 .5 0 .5s.2-.2 1.3-.4 1.8 0 2.4.3c.5.3.5 0 .5 0s-.2-.3-.8-.7c-.7-.4-1.5-.4-2-.4-.5.1-1.4.7-1.4.7zm.2 1c-.2.1-.1.4-.1.4s1-.3 1.6-.4c.6-.1 1.6.4 2 .5.3.1-.1-.5-.1-.5s0-.2-1.2-.4c-1.2-.3-2.2.4-2.2.4zm.7 1.1s0 .3.2.8 1 .5 1.5.4c.5-.1.5-1.1.5-1.1h-.3s0 .1-.1.5-.7.4-1 .2c-.3-.1-.5-.8-.5-.8h-.3zm8.9-.2h.3s.4.7.7.7c.3 0 .6.1.7-.2.2-.4.1-.4.1-.4h.3s-.1 1.3-1.2 1.1c-.5-.2-.9-.6-.9-1.2zm-6.3.4s-.2.5.1.6c.3 0 .3-.2.3-.2l-.4-.4zm8.9-.3c.3 0 .5 0 .7.1l-.2.4s-.1.2-.4.2c-.3-.1-.1-.7-.1-.7zm-12.3.2c-.1.2.1.4.1.5s.4 0 .4 0l-.2-.6h-.3v.1zm8.7-.2h.3l.2.6s-.4.2-.4 0c0-.3-.2-.4-.1-.6zm-.1-2.5s-2.4.7-.8-.7c1.6-1.4 4.1-.4 4.3-.4.3.1 2.8 1.2 2.8 1.2s.4.8-.2.5c-.7-.3-2.9-1.4-4.4-1.1-1.4.3-1.7.5-1.7.5zm-1.6 1.4c-.1.1-.2 0-.3.3-.1.3.4.5.7.7.3.2.1.3 0 .7-.1.3.3.2.8.5s.9.8 1.5 1.5 1.2.3 1.2.3 0-.1-.5-.4c-.5-.3-.7-1-.7-1s1.1 0 2.4-.2c1.3-.2 1.4-.9 1.4-.9s.4 0 .9.2.6-.4.6-.4-.4-.4-1.4-1c-1-.7-3-.7-4.1-.4-1.1.3-1 .4-1 .2 0-.3.4-.5 2-.8 1.6-.3 4.1 1.2 4.5 1.5.4.3.3-.3.3-.3s-.9-.7-3.1-1.5-3.3.2-4.1.9c-.8.6-1.1.1-1.1.1zm-1.7 5.5c-.9-.1-.9.5-.7.8 0 .2 1.2.5 2.2.8 1 .3 1.7-.3 1.9-.8.2-.5-.4-1.3-.9-1.5-.5-.2-.5.3-.3.4.2.1.6.2.6.9s-1 .4-1.5 0-.7-.6-1.3-.6zM44 41.2s.3-.9.8-1c.5 0 .5.3 1.2-.2.6-.5.9.2 1.1.2.2.1.4.1.5-.1.2-.2.7-.3 1.2-.1.5.2.8.2 1.2.2.5.1.7.5.7.8s-.1.5-.6.3c-.5-.3-.5-.3-.7-.3-.2.1-1.4.6-2.1.5-.7-.1-1.3-.5-2-.4-.6.2-1.3.6-1.3.1zm1.3.7c0 .5 1.1 1 2 1.1.9.1 1.5-.8 1.6-.9.1-.1.1-.6-.8.1-.8.7-1.7.1-2.1-.2-.5-.2-.7-.1-.7-.1zM58.9 120.5s-1 1.2-3 .9c-2-.3-2.4-1.4-2.5-2-.2-.6.1-2.6.6-4.1.5-1.5.8-2.3.1-2.7-.7-.4-1-.4-1-.4s-.2-.6.2-.4c.4.2 2.1.7 1.9 1.3-.2.6-.6 2.2-.6 2.2s1.3-.9 1.6-.7c.3.2-1.5 1.5-1.6 2-.1.4 2-.9 2.9-.2.9.6 1.3.5 1.3.5l.1 3.6zm-.5-.5c.1-.2 0-.5 0-.5s-.2.2-1.3.4-1.8 0-2.4-.3c-.5-.3-.5 0-.5 0s.2.3.8.7c.7.4 1.5.4 2 .4.5-.2 1.4-.7 1.4-.7zm-.2-1.1c.2-.1.1-.4.1-.4s-1 .3-1.6.4c-.6.1-1.6-.4-2-.5-.3-.1.1.5.1.5s0 .2 1.2.4c1.2.3 2.2-.4 2.2-.4zm-.7-1.1s0-.3-.2-.8-1-.5-1.5-.4c-.5.1-.5 1.1-.5 1.1h.3s0-.1.1-.5.7-.4 1-.2c.3.1.5.8.5.8h.3zm-8.9.3h-.3s-.4-.7-.7-.7c-.3 0-.6-.1-.7.2-.2.4-.1.4-.1.4h-.3s.1-1.3 1.2-1.1c.5.2.9.6.9 1.2zm6.4-.4s.2-.5-.1-.6c-.3 0-.3.2-.3.2l.4.4zm-9 .3c-.3 0-.5 0-.7-.1l.2-.4s.1-.2.4-.2c.3.1.1.7.1.7zm12.4-.2c.1-.2-.1-.4-.1-.5 0-.2-.4 0-.4 0l.2.6h.3v-.1zm-8.8.2h-.3l-.2-.6s.4-.2.4 0 .2.3.1.6zm.1 2.5s2.4-.7.8.7c-1.6 1.4-4.1.4-4.4.4-.3-.1-2.8-1.2-2.8-1.2s-.4-.8.2-.5c.7.3 2.9 1.4 4.4 1.1 1.6-.4 1.8-.5 1.8-.5zm1.6-1.5c.1-.1.2 0 .3-.3.1-.3-.4-.5-.7-.7-.3-.2-.1-.3 0-.7.1-.3-.3-.2-.8-.5s-.9-.8-1.5-1.5-1.2-.3-1.2-.3 0 .1.5.4c.5.3.7 1 .7 1s-1.1 0-2.4.2c-1.3.2-1.4.9-1.4.9s-.4 0-.9-.2-.6.4-.6.4.4.4 1.4 1c1 .7 3 .7 4.1.4 1.1-.3 1-.4 1-.1 0 .3-.4.5-2 .8-1.6.3-4.1-1.2-4.5-1.5-.4-.3-.3.3-.3.3s.9.7 3.1 1.5 3.3-.2 4.2-.9c.7-.7 1-.2 1-.2zm1.7-5.4c.9.1.9-.5.7-.8 0-.2-1.2-.5-2.2-.8-1-.3-1.7.3-1.9.8-.2.5.5 1.3.9 1.5.5.2.5-.3.3-.4-.2-.1-.6-.2-.6-.9s1-.4 1.5 0 .8.6 1.3.6zm2.8-4.1s-.3.9-.8 1c-.5 0-.5-.3-1.2.2-.6.5-.9-.2-1.1-.2-.2-.1-.4-.1-.5.1-.2.2-.7.3-1.2.1-.5-.2-.8-.2-1.2-.2-.5-.1-.7-.5-.7-.8 0-.3.1-.5.6-.3.5.3.5.4.7.3.2-.1 1.4-.6 2.1-.5.7.1 1.3.5 2 .4.7-.2 1.4-.6 1.3-.1zm-1.3-.7c0-.5-1.1-1-2-1.1-.9-.1-1.5.8-1.6.9-.1.1-.1.6.8-.1.8-.7 1.7-.1 2.2.2.4.2.6.1.6.1z"/><path id="XMLID_262_" d="M73.4 44.7c3.1-4.3 1.3-5.5 5.3 0l1.6 1.6-6.3-.2-7.2.1 1.1-2 .3-1c0-.1 3.2-2.2 5.2 1.5z" style="clip-rule:evenodd;fill-rule:evenodd;fill:#e52529;stroke:#0d4f9e;stroke-width:.216;stroke-miterlimit:2.6131"/><path id="XMLID_261_" class="st1" d="M26.4 106c-3.1 4.3-1.3 5.5-5.3 0l-1.6-1.6 6.2.2 7.2-.1-1.1 2-.3 1s-3.2 2.2-5.1-1.5z"/><path id="XMLID_260_" class="st3" d="M70.7 40c.7 1.6 1.8 2.9 2.7 4.4.8-1.6 2-3.1 2.2-4.4l3 4.7-3.1-2.3-2.3 3-2.5-3-2.7 1.7.3-1c-.1.3 1.6-1.7 2.4-3.1z"/><path id="XMLID_259_" class="st3" d="M29 110.7c-.7-1.6-1.8-2.9-2.7-4.4-.8 1.6-2 3.1-2.2 4.4l-3-4.7 3.1 2.3 2.4-3 2.5 3 2.7-1.7-.3 1c0-.3-1.7 1.7-2.5 3.1z"/><path id="XMLID_258_" class="st16" d="m78.9 44.9-3.4-2.4-2.3 3.3-2.6-3.3-2.8 1.6"/><path id="XMLID_257_" class="st16" d="m20.6 105.6 3.6 2.6 2.4-3.3 2.5 3.3 2.9-1.7"/><path id="XMLID_256_" class="st4" d="M66.6 34.8s-.9-1.2.4-1.5c1.3-.3 1.3-.6 1.1-1.6-.2-1-.7-4.1-.5-5.2.2-1-.1-3.1 1.1-3.5 1.2-.4 1.6.1 1.8.7.2.6.1 1.3-.8 1.2-.8-.2-.8-.3-1.1.1-.3.4 1 .2.9 1.3-.2 1-.4 4.8-.3 5.4.2.7.1 2.1-.2 2.4-.3.3-1.5 1.1-2.4.7z"/><path id="XMLID_255_" class="st4" d="M33.1 115.9s.9 1.2-.4 1.5c-1.3.3-1.3.6-1.1 1.6.2 1 .7 4.1.5 5.2-.2 1 .1 3.1-1.2 3.5-1.2.4-1.6-.1-1.8-.7-.2-.6-.1-1.3.8-1.2.8.2.8.3 1.2-.1.3-.4-1-.2-.9-1.3.2-1 .4-4.8.3-5.4-.2-.7-.1-2.1.2-2.4.3-.4 1.5-1.2 2.4-.7z"/><path id="XMLID_254_" class="st3" d="M69.9 27.8s-.4 2-.2 3.3c.3 1.3.2 2 .9 2.4.8.4 2.3 1 4.5.6 2.2-.5 1.7-1 2-1.5.4-.5.5-1.5-.2-1.5-.6-.1-2.6.6-2.6.6s-.4-.7.2-.7c.5 0 .6-.1.6-.1l-.5-.3-1.6.1s.8 1 .5 1.4c-.3.3-.5-.2-.6-.5-.1-.3-1-1.1-1.4-1.7-.4-.6-.3-2.5-.3-2.5l-1.3.4z"/><path id="XMLID_253_" class="st3" d="M29.8 122.9s.4-2 .2-3.3c-.3-1.3-.2-2-.9-2.4-.8-.4-2.4-1-4.6-.6-2.2.5-1.7 1-2 1.5-.4.5-.5 1.5.2 1.5.6.1 2.6-.6 2.6-.6s.4.7-.2.7c-.5 0-.6.1-.6.1l.5.3 1.6-.1s-.8-1-.5-1.4c.3-.3.5.2.6.5.1.3 1 1.1 1.4 1.7.4.6.3 2.5.3 2.5l1.4-.4z"/><path id="XMLID_252_" class="st4" d="M70.5 34.2s-.6.5-.3.8c.9.9 5.7 1.2 6.5.2.3-.4.2-1-.3-1-1 .3-2.6.8-5.9 0z"/><path id="XMLID_251_" class="st4" d="M29.2 116.4s.6-.5.3-.8c-.9-.9-5.7-1.2-6.5-.2-.3.4-.2 1 .3 1 1.1-.2 2.6-.8 5.9 0z"/><path id="XMLID_250_" class="st3" d="M70 27.2s-.1-1.2.6-1.5c.7-.3.7-.2.7 0s.1 1 .1 1-1 .6-1.4.5z"/><path id="XMLID_249_" class="st3" d="M29.7 123.5s.1 1.2-.6 1.5c-.7.3-.7.2-.7 0s-.1-1-.1-1 1-.6 1.4-.5z"/><path id="XMLID_248_" class="st3" d="M72.5 25.5s-.8 0-.7.8c.1.8 0 1.8.7 2 .7.2.8 0 .8-.4s-.1-2.7-.8-2.4z"/><path id="XMLID_247_" class="st3" d="M27.2 125.2s.8 0 .7-.8 0-1.8-.7-2c-.7-.2-.8 0-.8.4 0 .6.1 2.6.8 2.4z"/><path id="XMLID_246_" class="st3" d="M74.3 25.8s-.5-.1-.5.3-.2 1.8.3 2.3c.5.5.8.2.8-.5-.1-.7-.3-1.9-.6-2.1z"/><path id="XMLID_245_" class="st3" d="M25.5 124.8s.5.1.5-.3.2-1.8-.3-2.3c-.5-.5-.8-.2-.8.5 0 .8.2 1.9.6 2.1z"/><path id="XMLID_244_" class="st3" d="M75.7 26.1h-.6s.4.6.4 1.1c0 .4-.2 1.5.2 1.5s.8 0 .8-.7c-.1-.6-.1-1.9-.8-1.9z"/><path id="XMLID_243_" class="st3" d="M24 124.5h.6s-.4-.6-.4-1.1c0-.4.2-1.5-.2-1.5s-.8 0-.8.7c.1.7.1 1.9.8 1.9z"/><path id="XMLID_242_" class="st3" d="M77.5 26.8s-.7 0-.6.4l.3 1.2.9.2c-.1 0 0-1.6-.6-1.8z"/><path id="XMLID_241_" class="st3" d="M22.2 123.8s.7 0 .6-.4l-.3-1.2-.9-.2c.1 0 0 1.7.6 1.8z"/><path id="XMLID_240_" class="st4" d="M78.6 28.8s.2-.4.1-.7c-.1-.3.1-.8.5-.7.4.1.9.2 1.3.7.4.5.5 1 .2 1.7s-.6 1.2-1.7 1c-.9-.1-.6-.3-.7-.7.1-.4-.1 0 .7 0 .8 0 1.3-.4 1.3-1.1 0-.7-.3-1-.6-1-.4 0-.5.3-.3.6.3 0 .3.7-.2.7s-.6 0-.6-.5z"/><path id="XMLID_239_" class="st4" d="M21.1 121.9s-.2.4-.1.7c.1.3-.1.8-.5.7-.4-.1-.9-.2-1.3-.7-.4-.5-.5-1-.2-1.7s.6-1.2 1.7-1c.9.1.6.3.7.7-.1.4.1 0-.7 0-.8 0-1.3.4-1.3 1.1 0 .7.3 1 .6 1 .4 0 .5-.3.3-.6-.3 0-.3-.7.2-.7s.6 0 .6.5z"/><path id="XMLID_238_" class="st3" d="m72.1 29 .8-.1s.3.7 0 .8c-.2.2-.7-.3-.8-.7z"/><path id="XMLID_237_" class="st3" d="m27.6 121.6-.8.1s-.3-.7 0-.8c.3-.1.7.4.8.7z"/><path id="XMLID_236_" class="st3" d="M73.9 29.9s-.3-.5 0-.6c.3-.1 1 0 1 0l-.4.6s-.6.1-.6 0z"/><path id="XMLID_235_" class="st3" d="M25.9 120.7s.3.5 0 .6c-.3.1-1 0-1 0l.4-.6h.6z"/><path id="XMLID_234_" class="st3" d="M75.6 30.1s-.4-.8.3-.8c.6 0 .6 0 .6.3-.1.4-.2.8-.9.5z"/><path id="XMLID_233_" class="st3" d="M24.1 120.6s.4.8-.3.8c-.6 0-.6 0-.6-.3.1-.4.2-.8.9-.5z"/><path id="XMLID_232_" class="st3" d="M77.1 30.1s-.1-.7.1-.9c.2-.2.4.2.4.2s0 .7-.3.7c-.2.1-.2 0-.2 0z"/><path id="XMLID_231_" class="st3" d="M22.6 120.6s.1.7-.1.9c-.2.2-.4-.2-.4-.2s0-.7.3-.7c.2-.1.2 0 .2 0z"/><path id="XMLID_230_" class="st4" d="M70 36s-.6.3-.6.9c0 .6 0 1.4.6 1.5.5 0 .5-.9.5-1.3s-.1-1-.5-1.1z"/><path id="XMLID_229_" class="st4" d="M29.8 114.7s.6-.3.6-.9c0-.6 0-1.4-.6-1.5-.5 0-.5.9-.5 1.3-.1.5 0 1 .5 1.1z"/><path id="XMLID_228_" class="st4" d="M71.1 37.9s-.4-.8 0-1.2c.4-.3.5-.5.8-.2.3.3.3.6.4 1 0 .4-.3.4-.5.7-.3.3-.7.3-.7-.3z"/><path id="XMLID_227_" class="st4" d="M28.6 112.8s.4.8 0 1.2c-.4.3-.5.5-.8.2-.3-.3-.3-.6-.4-1 0-.4.3-.4.5-.7.3-.4.7-.3.7.3z"/><path id="XMLID_226_" class="st4" d="M73 38.1s-.4-.5 0-1.1c.4-.6.5-.6.5-.6s.5.1.6.8c0 .6 0 1-.2 1.2-.3.2-.8.2-.9-.3z"/><path id="XMLID_225_" class="st4" d="M26.7 112.6s.4.5 0 1.1c-.4.6-.5.6-.5.6s-.5-.1-.6-.8c0-.6 0-1 .2-1.3.4-.1.8-.1.9.4z"/><path id="XMLID_224_" class="st4" d="M75 38.1s-.7-.7-.2-1.4c.5-.7.9.2 1.1.1.1 0 .1 1.1-.2 1.3-.4.3-.6.5-.7 0z"/><path id="XMLID_223_" class="st4" d="M24.7 112.5s.7.7.2 1.4c-.5.7-1-.2-1.1-.1s-.1-1.1.2-1.3c.4-.3.6-.5.7 0z"/><path id="XMLID_222_" class="st4" d="M76.6 37.6s-.4-.4-.1-1.2c.3-.7.7-.3.8 0 .1.3.4.6.3 1.1-.2.5-.4.5-.4.5l-.6-.4z"/><path id="XMLID_221_" class="st4" d="M23.1 113.1s.4.4.1 1.2c-.3.7-.7.3-.8 0-.1-.3-.4-.6-.3-1.1.2-.5.4-.4.4-.4l.6.3z"/><path id="XMLID_220_" class="st4" d="M75.9 39.6s-.3-.6.3-.6.9-.2 1 .3c.1.5.8 2.9 1.1 3.3.2.4.2.8-.4.2-.7-.6-1.9-2.6-2-3.2z"/><path id="XMLID_219_" class="st4" d="M23.8 111.1s.3.6-.3.6-.9.2-1-.3c-.1-.5-.8-2.9-1.1-3.3-.2-.4-.2-.8.4-.2.8.6 1.9 2.5 2 3.2z"/><path id="XMLID_218_" class="st4" d="m68.3 41.3 1.1-2.3h1.1s.2.5-.5 1.5c-.7 1.1-1.3 1.9-1.5 1.7-.3-.3-.2-.9-.2-.9z"/><path id="XMLID_217_" class="st4" d="m31.5 109.4-1.1 2.3h-1.1s-.2-.5.5-1.5c.7-1.1 1.3-1.9 1.5-1.7.2.2.2.9.2.9z"/><path id="XMLID_216_" class="st4" d="M71.1 39.1h.8l1.1 2.2s.3.5.8-.5c.5-1.1.9-1.5.9-1.5s.7-.5.4.4c-.2.8-1.6 3.8-1.6 3.8s-2.3-2.8-2.4-4.4z"/><path id="XMLID_215_" class="st4" d="M28.6 111.6h-.8l-1.1-2.2s-.3-.5-.8.5c-.5 1.1-.9 1.5-.9 1.5s-.7.5-.4-.4c.2-.8 1.6-3.8 1.6-3.8s2.3 2.8 2.4 4.4z"/><path id="XMLID_214_" class="st3" d="m65 26.5.1 4.4 2.3.1v-.7l-1.6-.1V27l1.4-.1v-.4z"/><path id="XMLID_213_" class="st3" d="M34.7 124.2v-4.4l-2.4-.1v.7H34l-.1 3.3-1.4.1v.4z"/><path id="XMLID_212_" class="st3" d="M64.1 26.6h.4l.1.3h-.5z"/><path id="XMLID_211_" class="st3" d="M35.6 124.1h-.4v-.3h.4z"/><path id="XMLID_210_" class="st3" d="m63.5 27.8.2-.5h.8v.5z"/><path id="XMLID_209_" class="st3" d="m36.3 122.9-.2.5h-.8v-.5z"/><path id="XMLID_208_" class="st3" d="M63 28.2h1.4v.7H63z"/><path id="XMLID_207_" class="st3" d="M35.3 121.8h1.4v.7h-1.4z"/><path id="XMLID_206_" class="st3" d="M63.2 29.3h1.2v.7h-1.2z"/><path id="XMLID_205_" class="st3" d="M35.3 120.7h1.2v.7h-1.2z"/><path id="XMLID_204_" class="st3" d="M63.5 30.3h1v.7h-1z"/><path id="XMLID_203_" class="st3" d="M35.3 119.7h1v.7h-1z"/><path id="XMLID_202_" class="st4" d="m44.7 59.7 11.8-11.4c.6-.6.7-1.7.7-2.7l1 1h1.3l1.8-.5-4.2 7.9-1.8 3.5-9.3 8.1-1.3-5.9z"/><path id="XMLID_201_" class="st4" d="m55.2 91-11.8 11.4c-.6.6-.7 1.7-.7 2.7l-1-1h-1.3l-1.8.5 4.1-7.9 1.8-3.5 9.3-8.1 1.4 5.9z"/><path id="XMLID_200_" class="st17" d="M46.2 65.6c0 .1 0 .2-.1.2s-.2 0-.2-.1l-1.4-5.9c0-.1 0-.1.1-.2l11.8-11.4c.3-.3.4-.6.5-1.1.1-.5.1-1 .1-1.5 0-.1.1-.2.2-.2s.2.1.2.2c0 .5 0 1.1-.1 1.6s-.3 1-.6 1.3L44.9 59.8l1.3 5.8z"/><path class="st17" d="M53.6 85.1c0-.1 0-.2.1-.2s.2 0 .2.1l1.4 5.9c0 .1 0 .1-.1.2l-11.8 11.4c-.3.3-.4.6-.5 1.1-.1.5-.1 1-.1 1.5 0 .1-.1.2-.2.2s-.2-.1-.2-.2c0-.5 0-1.1.1-1.6s.3-1 .6-1.3L55 90.9l-1.4-5.8zm1.7 6c-.1 0 0 0 0 0z"/><path id="XMLID_197_" class="st10" d="M45.2 61.8s.8-1 1.2-.9c.4.2.5 1 .6 1.6.1.6.7 1.1.7 1.1l2-2.4-1.7-1.5 1.4-1.4.8.6-.4 1 1.1.7 1.8-1.9-2-1.7 1.3-1.4.8.7v.7l1 1.2L56 56l-1.9-2.1 1.4-1.5 1.2 1.4 1.3-1.9-1-1.1 2.7-1.6 1.3-3.1-1.5.6-14.7 13.9.4 1.2z"/><path id="XMLID_196_" class="st10" d="M54.7 88.8s-.8 1-1.2.9c-.4-.2-.5-1-.6-1.6-.1-.6-.7-1.1-.7-1.1l-2 2.4 1.7 1.6-1.4 1.4-.8-.6.4-1-1.1-.7-1.8 1.9 1.9 1.7-1.3 1.4-.9-.7.2-.7-1-1.2-2.3 2.2 1.9 2.1-1.4 1.5-1.2-1.4-1.3 1.9 1 1.1-2.7 1.6-1.3 3.1 1.5-.6L55 90.1l-.3-1.3z"/><path id="XMLID_195_" class="st18" d="M31.5 15.9 41 27.2c7.9-1.7 14.9-1.2 21.8.5l10.2-12"/><path id="XMLID_194_" class="st18" d="m68.7 135.7-9.8-12.2c-8 1.7-15 1.2-21.9-.5l-10.2 12.5"/><path id="XMLID_193_" class="st19" d="M64.4 46.1h18.4"/><path id="XMLID_192_" class="st19" d="M35.4 104.5H16.9"/><path id="XMLID_191_" class="st1" d="m46.8 71 6-.1c.8-3.6.9-7.1 2-10.7l-8.4 6.9.4 3.9z"/><path id="XMLID_190_" class="st1" d="m53 78.8-5.8.1c-.8 3.6-1.1 7.9-2.2 11.6l8.4-6.9-.4-4.8z"/><path id="XMLID_189_" class="st7" d="m46.4 67.4-.6-1.9 9.9-8.4-.9 3.1z"/><path id="XMLID_188_" class="st7" d="m53.5 83.3.5 1.9-9.9 8.4.9-3.2z"/><path id="XMLID_187_" class="st3" d="M60.2 85.1c-.2 0-.9-.7 0-.8.9-.1 2.2 0 2.2 0s.6-.6 0-.6-1.3-.1-1.2-.6c.1-.5.2-.6 1.3-.8 1.2-.2 2.7-.3 3.4-.2.7.2 1.6 1.2 1.7 2.5.1 1.9.6 4.8-2 5.2-1.3.2-2.5.5-3 .2s-1.1-.6-1.1-1.1c-.1-.5.7.1 1.1.1.3 0 .9.2.9 0s0-.6-.2-.6-2.8 0-3.1-.1c-.2-.1-1-.1-.9-.7.1-.6.8-.4 1.4-.3.6.1 2.1 0 2.1 0s.1-.3-.3-.5-3.5-.2-3.5-.2-.8-.6-.2-.9c.7-.3 3-.1 3.2-.2.2-.1.1-.2 0-.3-.2-.2-1.8-.1-1.8-.1z"/><path id="XMLID_186_" class="st3" d="M39.5 65.6c.2 0 .9.7 0 .8-.9.1-2.2 0-2.2 0s-.6.6 0 .6 1.4.1 1.2.6c-.1.5-.2.6-1.3.8-1.2.2-2.7.3-3.4.2-.7-.2-1.6-1.2-1.7-2.5-.1-1.9-.6-4.8 2-5.2 1.3-.2 2.5-.5 3-.2s1.1.6 1.2 1.1c.1.5-.8-.1-1.1-.1-.3 0-.9-.2-.9 0s0 .6.2.6 2.9 0 3.1.1c.2.1 1 .1.9.7-.1.6-.8.4-1.4.3-.6-.1-2.1 0-2.1 0s-.1.3.3.5 3.5.2 3.5.2.8.6.2.9c-.7.3-3 .1-3.2.2-.2.1-.1.2 0 .3.1.1 1.7.1 1.7.1z"/><path id="XMLID_185_" class="st13" d="M51.8 48.8s4.2.9 5-1c.8-1.9-.2-2.8-1.5-2.8s-2.3 1.3-1.6 2.3c.7.9 2.2.9 2-.8"/><path id="XMLID_184_" class="st13" d="M48 101.9s-4.2-.9-5 1c-.9 1.9.2 2.8 1.5 2.8s2.3-1.3 1.6-2.3c-.7-.9-2.2-.9-2 .8"/><path id="XMLID_183_" class="st13" d="M58.6 44.5c-.2 1 2.9.8 1.6-1.3-1.3-1.3-2.4-.5-2.8.1-.3.6-.4 2.3.7 3.1 1.9.5 4.1-1 4.2-2.9.7-3.1-.9-5.9-2.8-10.2-1.5-4-1-6.3-1.3-6.6"/><path id="XMLID_182_" class="st13" d="M41.2 106.1c.2-1-2.9-.8-1.6 1.3 1.3 1.3 2.4.5 2.8-.1.3-.6.4-2.3-.7-3.1-2-.5-4.1 1-4.2 2.9-.7 3.1.9 5.9 2.8 10.2 1.6 4 1 6.3 1.3 6.6"/><path id="XMLID_181_" class="st20" d="M63.3 46.6c.1 2.6-.9 5-4.3 4.3"/><path id="XMLID_180_" class="st20" d="M36.5 104.1c-.1-2.6.9-5 4.3-4.3"/><path id="XMLID_179_" class="st20" d="M69 48.1c-.6-.2-1.4-.4-1-1.6"/><path id="XMLID_178_" class="st20" d="M30.7 102.6c.6.2 1.4.4 1 1.6"/><path id="XMLID_177_" class="st20" d="M58.5 52.1c2.2 1.8 1.1 4.3.3 5.1-.7.7-1.6 1.7-3.1 1.4"/><path id="XMLID_176_" class="st20" d="M41.3 98.6c-2.3-1.8-1.1-4.3-.3-5.1.7-.7 1.6-1.7 3.1-1.4"/><path id="XMLID_175_" class="st20" d="M68.2 48.8c-3-2.4-8.1 2.3-3.8 5.4"/><path id="XMLID_174_" class="st20" d="M31.5 101.8c3.1 2.4 8.2-2.3 3.9-5.4"/><path id="XMLID_173_" class="st20" d="M64.2 54.8c-2.8-2.1-7.2 2.4-3.1 5.3"/><path id="XMLID_172_" class="st20" d="M35.5 95.9c2.8 2.1 7.3-2.4 3.1-5.3"/><path id="XMLID_171_" class="st20" d="M61.1 61c-2.5-1.2-5.8 3.1-1.8 5.6"/><path id="XMLID_170_" class="st20" d="M38.7 89.7c2.5 1.2 5.9-3.1 1.8-5.6"/><path id="XMLID_169_" class="st20" d="M59.2 67.1c-2.4-.2-4.8 3.7-.7 5.9"/><path id="XMLID_168_" class="st20" d="M40.6 83.6c2.5.2 4.8-3.7.7-5.9"/><path id="XMLID_167_" class="st20" d="M58.5 73.1c-2.3-.3-4.3 5.3.2 5.5"/><path id="XMLID_166_" class="st20" d="M41.3 77.5c2.3.3 4.4-5.3-.2-5.5"/><path id="XMLID_165_" class="st20" d="M63.3 92.2c-2.8.5-1.6 7.4 3.4 5.5"/><path id="XMLID_164_" class="st20" d="M36.5 58.5c2.8-.5 1.7-7.4-3.4-5.5"/><path id="XMLID_163_" class="st20" d="M67.3 98.1c-2 1-1.4 7.1 2.7 6.3"/><path id="XMLID_162_" class="st20" d="M32.4 52.5c2-1 1.3-7.3-2.9-6.5"/><path id="XMLID_161_" class="st20" d="M55.6 58.9c2.1 1.7 1.4 4.1 1 4.9-.4.9-1.2 1.8-2.8 1.8"/><path id="XMLID_160_" class="st20" d="M44.2 91.7c-2.2-1.7-1.4-4.1-1-4.9.4-.9 1.2-1.8 2.8-1.8"/><path id="XMLID_159_" class="st20" d="M53.8 66.2c2.6 1 2.8 5.9-.5 6.7"/><path id="XMLID_158_" class="st20" d="M46 84.5c-2.6-1-2.8-5.9.5-6.7"/><path id="XMLID_157_" class="st20" d="M53.2 73.5c2.9.9 3.3 4.6.3 6"/><path id="XMLID_156_" class="st20" d="M46.5 77.2c-2.9-.9-3.3-4.6-.3-6"/><path id="XMLID_155_" class="st20" d="M53.7 80c3.6.7 5 5.1 1.3 7.3"/><path id="XMLID_154_" class="st20" d="M46.1 70.7c-3.6-.7-5-5.1-1.3-7.3"/><path id="XMLID_153_" class="st20" d="M55.5 87.9c3.5.6 5.7 4.1 2 6.7"/><path id="XMLID_152_" class="st20" d="M44.3 62.7c-3.5-.6-5.7-4.1-2.1-6.7"/><path id="XMLID_151_" class="st20" d="M57.8 94.5c3.5.6 6.8 4.9 3.1 7.5"/><path id="XMLID_150_" class="st20" d="M41.9 56.1c-3.6-.6-6.8-4.9-3.1-7.5"/><path id="XMLID_149_" class="st20" d="M61 102c2.6-1.3 5.9.9 4.7 3.8"/><path id="XMLID_148_" class="st20" d="M38.8 48.7c-2.7 1.3-5.9-.9-4.8-3.8"/><path id="XMLID_147_" class="st3" d="M57.3 82.9s.9-2.4 1.4-2.7c.6-.3.8 1.2.8 1.2l.1 1.4s-1.3.7-1.7.6c-.4-.1-.5 0-.6-.5z"/><path id="XMLID_146_" class="st3" d="M42.5 67.7s-.9 2.4-1.4 2.7c-.6.3-.8-1.2-.8-1.2l-.1-1.4s1.3-.7 1.7-.6c.4.2.5.1.6.5z"/><path id="XMLID_145_" class="st3" d="M58.1 84.8s-.2-.6.3-.7c.5-.1.6-.2.8.1.2.3.4.5 0 .7-.4.2-1.1.4-1.1-.1z"/><path id="XMLID_144_" class="st3" d="M41.7 65.9s.2.6-.3.7c-.5.1-.6.2-.8-.1-.2-.3-.4-.5 0-.7.4-.2 1.1-.4 1.1.1z"/><path id="XMLID_143_" class="st3" d="M57.4 86.6s-.3-.8.2-.8c.5.1.5.2.5.6.1.5-.3.5-.7.2z"/><path id="XMLID_142_" class="st3" d="M42.4 64.1s.3.8-.2.8c-.5-.1-.5-.2-.5-.6-.2-.5.3-.5.7-.2z"/><path id="XMLID_141_" class="st3" d="M57.8 87.9s-.3-.4.5-.6c.7-.1.7.3.6.8 0 .2-1.1.3-1.1-.2z"/><path id="XMLID_140_" class="st3" d="M42 62.8s.3.4-.5.6c-.8.1-.7-.3-.6-.8 0-.3 1.1-.4 1.1.2z"/><path id="XMLID_139_" class="st3" d="M59.7 89.5s0-.5.6-.5.6.4.6.4.2.5-.3.6c-.6.1-.8-.4-.9-.5z"/><path id="XMLID_138_" class="st3" d="M40.1 61.2s0 .5-.6.5-.6-.4-.6-.4-.2-.5.3-.6c.6-.1.8.3.9.5z"/><path id="XMLID_137_" class="st3" d="m56.5 86.8.8.6s.1.3-.4.5c-.5.1-1.1-.1-1-.3 0-.4.6-.8.6-.8z"/><path id="XMLID_136_" class="st3" d="m43.3 63.9-.8-.6s-.1-.3.4-.5c.5-.1 1.1.1 1 .3 0 .4-.6.8-.6.8z"/><path id="XMLID_135_" d="m67.5 82.6 1.8-.1s1 1 .8 3.6c-.2 2.5.1 2.2-.5 2.5-.7.2-1.5.1-1.5.1s.5-4.1-.6-6.1z" style="fill-rule:evenodd;fill:#6fc8e5;stroke:#0d4f9e;stroke-width:.8504;stroke-linecap:round;stroke-linejoin:round;stroke-miterlimit:2.6131;clip-rule:evenodd"/><path id="XMLID_134_" class="st22" d="m32.3 68-1.8.1s-1-1-.8-3.6c.2-2.5-.1-2.2.5-2.5.7-.2 1.5-.1 1.5-.1s-.5 4.1.6 6.1z"/><path id="XMLID_133_" class="st22" d="m69.5 82.6 4.2-3.2 9 .1v6.1c-2.9 2.7-5.7 5.4-8.4 6.5-1-1.2-2.3-2.4-4.2-3.6.1-2.5.4-4.5-.6-5.9z"/><path id="XMLID_132_" class="st22" d="M30.3 68 26 71.3l-9.4-.1v-5.8c2.9-2.7 6.2-5.6 8.8-6.8 1 1.2 2.3 2.4 4.2 3.6 0 2.4-.3 4.4.7 5.8z"/><path id="XMLID_131_" class="st23" d="M70.1 84s1.6.6 2.6-1.5c.9-2.1 1.1-3.1 1.1-3.1"/><path id="XMLID_130_" class="st23" d="M29.6 66.6s-1.7-.6-2.6 1.5c-.9 2.1-1.1 3.1-1.1 3.1"/><path id="XMLID_129_" class="st23" d="M71.4 84s2.5.3 2.7 1.3c.4 1.6-3 2.4-4 2.1"/><path id="XMLID_128_" class="st23" d="M28.4 66.6s-2.5-.3-2.7-1.3c-.4-1.6 3-2.4 4-2.1"/><path id="XMLID_127_" class="st23" d="M70.2 85.1s2-.2 2 .4c0 .6-1.3.7-1.7.9"/><path id="XMLID_126_" class="st23" d="M29.5 65.6s-2 .2-2-.4c0-.6 1.3-.7 1.7-.9"/><path id="XMLID_125_" class="st23" d="M74.5 79.5s-.7 4-.3 4.4c.4.3 2.3.7 2.5 1.2.2.5-2 2.6-2.2 2.8-.2.2-.7 3.4-.2 3.9"/><path id="XMLID_124_" class="st23" d="M25.2 71.2s.7-4 .3-4.4c-.4-.3-2.3-.7-2.5-1.2-.2-.5 2-2.6 2.2-2.8.2-.2.7-3.4.2-3.9"/><path id="XMLID_123_" class="st23" d="m71.8 87.2 2.3 4.1"/><path id="XMLID_122_" class="st23" d="m27.9 63.4-2.3-4"/><path id="XMLID_121_" class="st23" d="M74.2 88.9s5.9-2.3 8.5-4.5"/><path id="XMLID_120_" class="st23" d="M25.5 61.8s-5.9 2.3-8.5 4.5"/><path id="XMLID_119_" class="st23" d="M74.2 90.1s4.2-1 5.2-1.5"/><path id="XMLID_118_" class="st23" d="M25.5 60.6s-4.2 1-5.2 1.5"/><path id="XMLID_117_" class="st23" d="M76.4 85.8s5.7-2.1 6.3-3.7"/><path id="XMLID_116_" class="st23" d="M23.3 64.9s-5.7 2.1-6.4 3.7"/><path id="XMLID_115_" class="st23" d="M76.2 84.9s5.9-3.6 6.3-4.5"/><path id="XMLID_114_" class="st23" d="M23.5 65.8s-5.9 3.6-6.3 4.5"/><path id="XMLID_113_" class="st23" d="M74.3 83.5s4.6-1.8 7.1-4"/><path id="XMLID_112_" class="st23" d="M25.5 67.1s-4.6 1.8-7.1 4"/><path id="XMLID_111_" class="st23" d="M74.3 82.2s3.5-1.5 4.4-2.7"/><path id="XMLID_110_" class="st23" d="M25.4 68.5s-3.5 1.5-4.5 2.7"/><path id="XMLID_109_" class="st23" d="M74.2 80.6s1.5-.2 2.1-.9"/><path id="XMLID_108_" class="st23" d="M25.5 70.1s-1.5.2-2.1.9"/><path class="st3" d="M61 78.8c-.4.5-1.2.5-1.2.5l-.2-2 1.4 1.5zm2.4-1.2c-.4.6-1.5.8-1.5.8l-.3-2.5 1.8 1.7zm1.9-1.4-2.2-1.7.8 2.8c.5-.1.8-.3 1.4-1.1zm1.9-1.8c-.5.8-.8 1.1-1.3 1.2l-1.1-2.5 2.4 1.3zm1.3-1.8-2.4-1.1 1.6 2.1c.6-.2.4-.2.8-1zm1.2-2.2c-.1.5-.3.8-.7 1.2l-1.9-1.8 2.6.6zm1-2.5c-.1.5-.3 1.3-.7 1.7l-2.1-1.7h2.8zm.4-2.7c0 .5 0 1.3-.3 1.8l-2.4-1.1 2.7-.7zm.2-2.6c.1.5.2 1.3 0 1.8l-2.5-.6 2.5-1.2zm-.4-2.5c.1.5.3 1.3.1 1.8l-2.5-.4 2.4-1.4zm-.6-2.4c.1.4.4 1.1.2 1.6l-2.3-.2 2.1-1.4zm-1.1-2.2c.2.4.7 1.2.7 1.7l-2.6.2 1.9-1.9zM68 53.3l-1.5 2.2 2.5-.7c-.1-.4-.7-1.1-1-1.5zm-1.4-1.7c.3.3.8.7.8 1.2l-2.3.9 1.5-2.1zM38.7 71.8c.4-.5 1.2-.5 1.2-.5l.2 2-1.4-1.5zm-2.3 1.3c.4-.6 1.5-.8 1.5-.8l.3 2.5-1.8-1.7zm-1.9 1.4 2.2 1.7-.8-2.8c-.5.1-.8.3-1.4 1.1zm-2 1.7c.5-.8.8-1.1 1.3-1.2l1.1 2.5-2.4-1.3zM31.3 78l2.4 1.1-1.6-2.1c-.6.2-.5.3-.8 1zM30 80.2c.1-.5.3-.8.7-1.2l1.9 1.8-2.6-.6zm-1 2.6c.1-.5.3-1.3.7-1.7l2.1 1.7H29zm-.4 2.7c0-.5 0-1.3.3-1.8l2.4 1.1-2.7.7zm-.1 2.5c-.1-.5-.2-1.3 0-1.8l2.5.6-2.5 1.2zm.3 2.6c-.1-.5-.3-1.3-.1-1.8l2.6.4-2.5 1.4zm.7 2.3c-.1-.4-.4-1.1-.2-1.6l2.3.2-2.1 1.4zm1 2.2c-.2-.4-.7-1.2-.7-1.7l2.6-.2-1.9 1.9zm1.3 2.2 1.5-2.2-2.5.7c.1.5.7 1.2 1 1.5zm1.4 1.8c-.3-.3-.8-.7-.8-1.2l2.3-.9-1.5 2.1z"/><path id="XMLID_79_" class="st24" d="M63 90.8c2.5 4.9 6 9.2 9.9 12.9l-9.6 3.3c-9.9-17.3-16.4-37.6-2-60.8l10.1-.1C59 59.2 56.9 72.2 60 83.4"/><path id="XMLID_78_" class="st24" d="M36.9 60.2c-2.5-5-6.1-9.5-10.1-13.2l9.9-3.4c10 17.3 16.2 37.8 1.8 61l-10.1.1c12.3-13.1 14.5-26.1 11.3-37.3"/><path id="XMLID_77_" class="st10" d="M71.3 45.9h11.5v33.8h-6V60.6l-5.2-5-3.5-6z"/><path id="XMLID_76_" class="st10" d="M28.4 104.8H16.8V71h6.1v19.1l5.2 5 3.5 6z"/><path id="XMLID_75_" class="st7" d="m68.4 49.7 3-3.5h11v5.3H69.8z"/><path id="XMLID_74_" class="st7" d="m31.3 101-3 3.4H17.2v-5.2H30z"/><path id="XMLID_73_" class="st25" d="m71.9 54.5.7 1.3s2.5.4 4.6-.3c2.1-.8 1.9-.5 1.9-.5s.8.9 2 1.1l1.2.2v-1.2s-2.4-.5-2.6-1c-.3-.5-.7-.2-1.1 0-.4 0-1.6 1.1-6.7.4z"/><path id="XMLID_72_" class="st25" d="m27.9 96.1-.7-1.3s-2.5-.4-4.6.4c-2.1.8-1.9.5-1.9.5s-.8-.9-2-1.1l-1.2-.2v1.2s2.4.5 2.6 1c.3.5.7.2 1.1 0 .3-.1 1.5-1.2 6.7-.5z"/><path id="XMLID_71_" class="st25" d="m74 56.8 1.7-.4 6.7 6.9v1.4z"/><path id="XMLID_70_" class="st25" d="m25.7 93.9-1.7.4-6.7-6.9V86z"/><path id="XMLID_69_" class="st3" d="M77.4 60.8v18.1h1V61.7z"/><path id="XMLID_68_" class="st3" d="M22.3 89.9V71.7h-1V89z"/><path id="XMLID_67_" class="st3" d="M79.1 62.6v1.1h1.2z"/><path id="XMLID_66_" class="st3" d="M20.6 88.1V87h-1.2z"/><path id="XMLID_65_" class="st3" d="M79.1 64.6v.8h3.2l-.8-.8z"/><path id="XMLID_64_" class="st3" d="M20.6 86v-.7h-3.2l.8.7z"/><path id="XMLID_63_" class="st3" d="M79 66.5h3.4v1.2H79z"/><path id="XMLID_62_" class="st3" d="M17.3 83h3.4v1.2h-3.4z"/><path id="XMLID_61_" class="st3" d="M79 68.6h3.4v1.2H79z"/><path id="XMLID_60_" class="st3" d="M17.3 80.9h3.4v1.2h-3.4z"/><path id="XMLID_59_" class="st3" d="M79 70.8h3.4v1H79z"/><path id="XMLID_58_" class="st3" d="M17.3 78.9h3.4v1h-3.4z"/><path id="XMLID_57_" class="st3" d="M79 72.7h3.4v.8H79z"/><path id="XMLID_56_" class="st3" d="M17.3 77.1h3.4v.8h-3.4z"/><path id="XMLID_55_" class="st3" d="M79 74.6h3.4v.8H79z"/><path id="XMLID_54_" class="st3" d="M17.3 75.3h3.4v.8h-3.4z"/><path id="XMLID_53_" class="st3" d="M79 76.4h3.4v.8H79z"/><path id="XMLID_52_" class="st3" d="M17.3 73.5h3.4v.8h-3.4z"/><path id="XMLID_51_" class="st3" d="M79 78.1h3.4v.8H79z"/><path id="XMLID_50_" class="st3" d="M17.3 71.8h3.4v.8h-3.4z"/><path id="XMLID_49_" class="st24" d="M72.5 103.9s9-4.8 10-6.8"/><path id="XMLID_48_" class="st24" d="M27.2 46.8s-9.5 5.1-10.5 7.2"/><path id="XMLID_47_" class="st3" d="m69.4 97.5.4-.5.6 1.1-.4.2z"/><path id="XMLID_46_" class="st3" d="m30.4 53.2-.5.4-.6-1 .5-.2z"/><path id="XMLID_45_" class="st3" d="m72 96 .5-.3.6.9-.4.3z"/><path id="XMLID_44_" class="st3" d="m27.7 54.6-.5.4-.5-1 .3-.3z"/><path id="XMLID_43_" class="st3" d="m74.6 94.3.4-.3.7 1-.5.4z"/><path id="XMLID_42_" class="st3" d="m25.1 56.3-.4.4-.7-1 .5-.4z"/><path id="XMLID_41_" class="st3" d="m76.9 92.7.7-.3.6.9-.5.3z"/><path id="XMLID_40_" class="st3" d="m22.8 58-.7.3-.6-.9.5-.3z"/><path id="XMLID_39_" class="st3" d="m79.7 90.3.5-.4.7 1-.4.3z"/><path id="XMLID_38_" class="st3" d="m20 60.3-.5.4-.7-.9.4-.3z"/><path id="XMLID_37_" class="st3" d="m80.6 94.3.5-.6.6.8-.6.6z"/><path id="XMLID_36_" class="st3" d="m19 56.4-.4.6-.6-.9.6-.5z"/><path id="XMLID_35_" class="st3" d="m78 96.4.6-.4.6 1-.8.2z"/><path id="XMLID_34_" class="st3" d="m21.7 54.3-.6.4-.6-1 .8-.2z"/><path id="XMLID_33_" class="st3" d="m75.6 98.2.6-.5.5.8-.6.5s-.6-.8-.5-.8z"/><path id="XMLID_32_" class="st3" d="m24.2 52.5-.6.5-.5-.8.6-.4c0-.1.5.6.5.7z"/><path id="XMLID_31_" class="st3" d="m73 99.8.6-.4.6.9-.5.2z"/><path id="XMLID_30_" class="st3" d="m26.7 50.9-.6.4-.6-.9.5-.3z"/><path id="XMLID_29_" class="st3" d="m70.6 101.1.7-.3.3.7-.4.3z"/><path id="XMLID_28_" class="st3" d="m29.1 49.6-.7.2-.3-.7.4-.2z"/><path id="XMLID_27_" class="st13" d="M64.5 45.8c2.8 1.9 3-3.7 1.6-6.3-2.2-4.3-4.2-7.3-4.6-12.2l1.3.2s.7 5.5 2.6 8.2c1.9 2.7 2.9 6 2.7 7.1-.2 1.1-.5 3.4-2.2 3.1"/><path id="XMLID_26_" class="st13" d="M35.3 104.9s-1.5-1-1.8.8c-.4 1.8-.8 3.4.2 5.5 2 4.4 4.2 7.3 4.6 12.2l-1.3-.2s-.7-5.5-2.6-8.2c-1.9-2.7-2.9-6-2.7-7.1.2-1.1.5-3.4 2.2-3.1"/><circle id="XMLID_25_" class="st4" cx="49.7" cy="77.2" r=".9"/><path id="XMLID_24_" class="st4" d="M49.7 73.5c.5 0 .9-.4.9-.9s-.4-.9-.9-.9-.9.4-.9.9c.1.5.5.9.9.9z"/><path id="XMLID_23_" class="st4" d="m48 72.5 3.8 3.9v.9L48 73.4z"/><path id="XMLID_22_" class="st4" d="m51.6 72.5-3.8 3.9v.9l3.8-3.9z"/><path class="st17" d="M17 136.9h66V14.8H16.5v122.1h.5zm.5-1.1V15.7h64.4v120.1H17.5z"/><path id="XMLID_19_" class="st1" d="M15.4 22.2v1.9h-4.7v-1.9h1.7l-2.8-6.1L8 18.6v3.6h1.5v1.9H4.6v-1.9H6V8.5H4.6V6.7h4.7v1.8H8v6.3l4-6.3h-1.3V6.7h4.7v1.8h-1L10.9 14l3.7 8.2z"/><path id="XMLID_18_" class="st1" d="M84 129.4v-1.9h4.7v1.9H87l2.8 6.1 1.6-2.5v-3.6h-1.5v-1.9h4.9v1.9h-1.4v13.7h1.4v1.8h-4.7v-1.8h1.3v-6.3l-4 6.3h1.3v1.8H84v-1.8h1l3.5-5.5-3.7-8.2z"/><path id="XMLID_17_" class="st1" d="M9.5 29.4c0 .3.1.6.1.9 0 .5.4.8.6 0 0-.2.1-.4.2-.7.4-2.2 3.7-1.8 4.1 0 .4 1.8-.2 3.2-1.8 5.3-1.6 2-2.4 3.4-2.8 4.6-.3-1.6-3.3-5.2-4.1-6.9-.8-1.7-.5-3.8.8-4.4 1.3-.4 2.8.2 2.9 1.2z"/><path id="XMLID_16_" class="st1" d="M89.9 122.1c0-.3-.1-.6-.2-.9 0-.5-.4-.8-.6 0 0 .2-.1.4-.2.7-.4 2.2-3.7 1.8-4.1 0-.4-1.8.2-3.2 1.8-5.3 1.6-2 2.4-3.4 2.8-4.6.3 1.6 3.3 5.2 4.1 6.9.8 1.7.5 3.8-.8 4.4-1.2.4-2.7-.2-2.8-1.2z"/></g></g></svg>