<svg xmlns="http://www.w3.org/2000/svg" viewBox="0 0 99.4 151.6" style="enable-background:new 0 0 99.4 151.6" xml:space="preserve"><style>.st1{fill-rule:evenodd;clip-rule:evenodd}.st1,.st2{fill:#e52529}.st3{fill-rule:evenodd;clip-rule:evenodd;fill:#bf1818}.st4,.st5{fill-rule:evenodd;clip-rule:evenodd;fill:#6fc8e5}.st5,.st6{stroke:#0d4f9e;stroke-width:.5669;stroke-miterlimit:2.6131}.st6{fill-rule:evenodd;fill:none}.st6,.st7{clip-rule:evenodd}.st7{fill-rule:evenodd;fill:#3b160e}.st8{fill-rule:evenodd;fill:#6fc8e5}.st8,.st9{clip-rule:evenodd;stroke:#0d4f9e;stroke-width:.2835;stroke-miterlimit:2.6131}.st9{fill-rule:evenodd;fill:none}.st10{fill-rule:evenodd;fill:#e52529;stroke:#0d4f9e;stroke-width:.2835;stroke-miterlimit:2.6131}.st10,.st11{clip-rule:evenodd}.st11{fill-rule:evenodd;fill:none;stroke:#fbea26;stroke-width:.0037;stroke-miterlimit:2.6131}.st12{stroke:#231f20;stroke-width:.5669;stroke-miterlimit:2.6131}.st12,.st13{fill-rule:evenodd;clip-rule:evenodd;fill:#e52529}.st13{stroke:#231f20;stroke-width:.2835;stroke-miterlimit:2.6131}.st14{fill-rule:evenodd;clip-rule:evenodd;fill:#fff}</style><g id="Calque_2"><path id="XMLID_15_" d="M99.3 5.3v140.9c0 2.9-2.3 5.2-5.2 5.2H5.3c-2.9 0-5.2-2.3-5.2-5.2V5.3C.1 2.4 2.4.1 5.3.1H94c2.9 0 5.3 2.4 5.3 5.2z" style="fill:#fff;stroke:#000;stroke-width:.25;stroke-miterlimit:2.6131"/></g><g id="Calque_1"><path class="st1" d="M552.8 134.6c-3.2-4.4-4.1-8-4.1-8s-.9 3.7-4.1 8c-3.2 4.4-6.2 5.6-6.2 5.6s3 1.2 6.2 5.6c3.2 4.4 4.1 8 4.1 8s.9-3.7 4.1-8c3.2-4.4 6.2-5.6 6.2-5.6s-2.9-1.3-6.2-5.6zM510.8 134.6c-3.2-4.4-4.1-8-4.1-8s-.9 3.7-4.1 8c-3.2 4.4-6.2 5.6-6.2 5.6s3 1.2 6.2 5.6c3.2 4.4 4.1 8 4.1 8s.9-3.7 4.1-8c3.2-4.4 6.2-5.6 6.2-5.6s-3-1.3-6.2-5.6zM531.8 177.1c-3.2-4.4-4.1-8-4.1-8s-.9 3.7-4.1 8c-3.2 4.4-6.2 5.6-6.2 5.6s3 1.2 6.2 5.6c3.2 4.4 4.1 8 4.1 8s.9-3.7 4.1-8c3.2-4.4 6.2-5.6 6.2-5.6s-3-1.2-6.2-5.6zM552.8 219.7c-3.2-4.4-4.1-8-4.1-8s-.9 3.7-4.1 8c-3.2 4.4-6.2 5.6-6.2 5.6s3 1.2 6.2 5.6c3.2 4.4 4.1 8 4.1 8s.9-3.7 4.1-8c3.2-4.4 6.2-5.6 6.2-5.6s-2.9-1.3-6.2-5.6zM510.8 219.7c-3.2-4.4-4.1-8-4.1-8s-.9 3.7-4.1 8c-3.2 4.4-6.2 5.6-6.2 5.6s3 1.2 6.2 5.6c3.2 4.4 4.1 8 4.1 8s.9-3.7 4.1-8c3.2-4.4 6.2-5.6 6.2-5.6s-3-1.3-6.2-5.6z"/><path class="st2" d="M486.7 117.5h7.8v1.8h-6l-.2 3s2.8-1.6 5.5.7c.5.4 2.9 2.9 1.4 7.8-.3 1-2 3.6-5.6 3.1-.2 0-2.9-.7-3.9-3.7l1.7-.4s1.3 2.7 3.1 2.5c.9-.1 3.3-.7 3.2-4.6 0-.3 0-3.7-2.9-4.2-1-.2-2.2 0-3.9 1.7l-.8-.5.6-7.2zM568.8 247.8h-7.9V246h6l.2-3s-2.8 1.6-5.5-.7c-.5-.4-2.9-2.9-1.4-7.8.3-1 2-3.6 5.6-3.1.2 0 2.9.7 3.9 3.7l-1.7.4s-1.3-2.7-3.1-2.5c-.9.1-3.3.7-3.2 4.6 0 .3 0 3.7 2.9 4.2 1 .2 2.2 0 3.9-1.7l.8.5-.5 7.2zM490.8 137.7s1.4 4.5 4.7 6.3c0 0-3.2 1.7-4.7 6.2-1.5-4.6-4.7-6.2-4.7-6.2 3.3-1.8 4.7-6.3 4.7-6.3zM564.7 227.6s-1.4-4.5-4.7-6.3c0 0 3.2-1.7 4.7-6.2 1.5 4.6 4.7 6.2 4.7 6.2-3.3 1.8-4.7 6.3-4.7 6.3z"/><path class="st1" d="M552.8 134.6c-3.2-4.4-4.1-8-4.1-8s-.9 3.7-4.1 8c-3.2 4.4-6.2 5.6-6.2 5.6s3 1.2 6.2 5.6c3.2 4.4 4.1 8 4.1 8s.9-3.7 4.1-8c3.2-4.4 6.2-5.6 6.2-5.6s-2.9-1.3-6.2-5.6zM510.8 134.6c-3.2-4.4-4.1-8-4.1-8s-.9 3.7-4.1 8c-3.2 4.4-6.2 5.6-6.2 5.6s3 1.2 6.2 5.6c3.2 4.4 4.1 8 4.1 8s.9-3.7 4.1-8c3.2-4.4 6.2-5.6 6.2-5.6s-3-1.3-6.2-5.6zM531.8 177.1c-3.2-4.4-4.1-8-4.1-8s-.9 3.7-4.1 8c-3.2 4.4-6.2 5.6-6.2 5.6s3 1.2 6.2 5.6c3.2 4.4 4.1 8 4.1 8s.9-3.7 4.1-8c3.2-4.4 6.2-5.6 6.2-5.6s-3-1.2-6.2-5.6zM552.8 219.7c-3.2-4.4-4.1-8-4.1-8s-.9 3.7-4.1 8c-3.2 4.4-6.2 5.6-6.2 5.6s3 1.2 6.2 5.6c3.2 4.4 4.1 8 4.1 8s.9-3.7 4.1-8c3.2-4.4 6.2-5.6 6.2-5.6s-2.9-1.3-6.2-5.6zM510.8 219.7c-3.2-4.4-4.1-8-4.1-8s-.9 3.7-4.1 8c-3.2 4.4-6.2 5.6-6.2 5.6s3 1.2 6.2 5.6c3.2 4.4 4.1 8 4.1 8s.9-3.7 4.1-8c3.2-4.4 6.2-5.6 6.2-5.6s-3-1.3-6.2-5.6z"/><path class="st2" d="M486.7 117.5h7.8v1.8h-6l-.2 3s2.8-1.6 5.5.7c.5.4 2.9 2.9 1.4 7.8-.3 1-2 3.6-5.6 3.1-.2 0-2.9-.7-3.9-3.7l1.7-.4s1.3 2.7 3.1 2.5c.9-.1 3.3-.7 3.2-4.6 0-.3 0-3.7-2.9-4.2-1-.2-2.2 0-3.9 1.7l-.8-.5.6-7.2zM568.8 247.8h-7.9V246h6l.2-3s-2.8 1.6-5.5-.7c-.5-.4-2.9-2.9-1.4-7.8.3-1 2-3.6 5.6-3.1.2 0 2.9.7 3.9 3.7l-1.7.4s-1.3-2.7-3.1-2.5c-.9.1-3.3.7-3.2 4.6 0 .3 0 3.7 2.9 4.2 1 .2 2.2 0 3.9-1.7l.8.5-.5 7.2zM490.8 137.7s1.4 4.5 4.7 6.3c0 0-3.2 1.7-4.7 6.2-1.5-4.6-4.7-6.2-4.7-6.2 3.3-1.8 4.7-6.3 4.7-6.3zM564.7 227.6s-1.4-4.5-4.7-6.3c0 0 3.2-1.7 4.7-6.2 1.5 4.6 4.7 6.2 4.7 6.2-3.3 1.8-4.7 6.3-4.7 6.3z"/><path class="st1" d="M552.8 134.6c-3.2-4.4-4.1-8-4.1-8s-.9 3.7-4.1 8c-3.2 4.4-6.2 5.6-6.2 5.6s3 1.2 6.2 5.6c3.2 4.4 4.1 8 4.1 8s.9-3.7 4.1-8c3.2-4.4 6.2-5.6 6.2-5.6s-2.9-1.3-6.2-5.6zM510.8 134.6c-3.2-4.4-4.1-8-4.1-8s-.9 3.7-4.1 8c-3.2 4.4-6.2 5.6-6.2 5.6s3 1.2 6.2 5.6c3.2 4.4 4.1 8 4.1 8s.9-3.7 4.1-8c3.2-4.4 6.2-5.6 6.2-5.6s-3-1.3-6.2-5.6zM531.8 177.1c-3.2-4.4-4.1-8-4.1-8s-.9 3.7-4.1 8c-3.2 4.4-6.2 5.6-6.2 5.6s3 1.2 6.2 5.6c3.2 4.4 4.1 8 4.1 8s.9-3.7 4.1-8c3.2-4.4 6.2-5.6 6.2-5.6s-3-1.2-6.2-5.6zM552.8 219.7c-3.2-4.4-4.1-8-4.1-8s-.9 3.7-4.1 8c-3.2 4.4-6.2 5.6-6.2 5.6s3 1.2 6.2 5.6c3.2 4.4 4.1 8 4.1 8s.9-3.7 4.1-8c3.2-4.4 6.2-5.6 6.2-5.6s-2.9-1.3-6.2-5.6zM510.8 219.7c-3.2-4.4-4.1-8-4.1-8s-.9 3.7-4.1 8c-3.2 4.4-6.2 5.6-6.2 5.6s3 1.2 6.2 5.6c3.2 4.4 4.1 8 4.1 8s.9-3.7 4.1-8c3.2-4.4 6.2-5.6 6.2-5.6s-3-1.3-6.2-5.6z"/><path class="st2" d="M486.7 117.5h7.8v1.8h-6l-.2 3s2.8-1.6 5.5.7c.5.4 2.9 2.9 1.4 7.8-.3 1-2 3.6-5.6 3.1-.2 0-2.9-.7-3.9-3.7l1.7-.4s1.3 2.7 3.1 2.5c.9-.1 3.3-.7 3.2-4.6 0-.3 0-3.7-2.9-4.2-1-.2-2.2 0-3.9 1.7l-.8-.5.6-7.2zM568.8 247.8h-7.9V246h6l.2-3s-2.8 1.6-5.5-.7c-.5-.4-2.9-2.9-1.4-7.8.3-1 2-3.6 5.6-3.1.2 0 2.9.7 3.9 3.7l-1.7.4s-1.3-2.7-3.1-2.5c-.9.1-3.3.7-3.2 4.6 0 .3 0 3.7 2.9 4.2 1 .2 2.2 0 3.9-1.7l.8.5-.5 7.2zM490.8 137.7s1.4 4.5 4.7 6.3c0 0-3.2 1.7-4.7 6.2-1.5-4.6-4.7-6.2-4.7-6.2 3.3-1.8 4.7-6.3 4.7-6.3zM564.7 227.6s-1.4-4.5-4.7-6.3c0 0 3.2-1.7 4.7-6.2 1.5 4.6 4.7 6.2 4.7 6.2-3.3 1.8-4.7 6.3-4.7 6.3z"/><path class="st3" d="M74.6 102.8s-.5 1.1-1.2 1.2c-.7.2-6.8-.9-8.9 2.3 0 0-.8 2.2-.7 2.5.1.3.9.1 1.3-.1.4-.1 1.6-.7 2.9-.7 1.3 0 5.3.3 6.6-1.1 1.3-1.4 1.2-2.7 1.2-2.7s2.1 1.4 2.5-1.2c0 0 1.7-.4 1.3-2.1 0 0-.1 0 .3-.4.5-.4.4-1.4.2-1.9 0 0 .7-.9.2-1.5-.5-.6-.7-.8-.6-1.4.1-.6.1-2-.1-2.3-.2-.3-1-.1-1.2.3-.2.4-.6-.2-.8-.5l-.3-.6-.4.4 1 1.5.1.8s-1.4-.1-1.2 1.4c0 0-1.1.6-1 1.5 0 0-.9.6-.9.9 0 .3-.4 0-.4 0s.1-2.5-.6-2.9l-.4-.9-.1.7s1.8 2.5.6 3.7c0 0 .7.6.7 1s.8-.1.9-.3c.1-.2.8-.5.7.1-.1.6-.4 2-1.1 2-.7 0-1.8 0-2.1-.5-.3-.5-1.7-1.2-1.7-2.5l-.9-1.5-.2.4s.8 1.8.8 2.1c-.1.2 1.4 2.7 3.5 2.3zm1.6 1.4s-1-.5-.8-1.1c.2-.6 1-1 1.5-.9.5.1 1.1.8.7 1.4-.2.6-1 .7-1.4.6zm2.1-1.5s-.8-.1-1-.8c0 0 .6-.7.3-1.4s-.4-1.2.1-1c.5.2 1.3 1.3 1.3 1.5.1 0 .6 1.1-.7 1.7zm1.2-2.5s-1.1-.3-1.5-1.1c-.3-.8.1-1.5.6-1.2.5.3 1 .7 1.2.9.2.1.3 1.3-.3 1.4zm.5-2.1s-1 .3-1.5-.9c0 0 .1-1.1.7-.9.6.1 1 .9 1 1.1.1.3 0 .7-.2.7zm-1.9-1.5s-.6.2-.6-.2.5-.8.8-.8c.3 0 .6.5-.2 1zm1.3-.9s-.5.5-.6-.4c-.1-.9.4-1.9.7-1.4.2.6 0 1.7-.1 1.8zm-2.4 3s-.6-.1-.6-.6.3-.9.7-.8c.5.1.6 1-.1 1.4zm-.3.5c.1.3-.2.3-.7.4-.5.1-.6-.3-.6-.3.9-1.1 1.3-.1 1.3-.1zm-.2 2.2s-.2-.7.3-1c.5-.3.8.3.4.6-.4.5-.7.4-.7.4z"/><path id="XMLID_401_" class="st3" d="M75.2 103.3s-1.3 1.4-2.1 1.5c-.7.2-5-.6-7.1 1.3-3.5 3.1 1.4.9 3.5.9 1.3 0 3.3.3 4.6-1.1 1.3-1.4 1.3-2 1.3-2l-.2-.6z"/><path id="XMLID_400_" class="st4" d="M75.5 104.6s-.2 1.4-1.8 2c-1.6.6-2.8.7-2.9.7-.2 0-4.3.2-6 .9 0 0-.6-2.7 4-3.6 0 0 3.2-.1 3.7.1.6.2 2-.7 2.3-1 .3-.3 0 .7-.3.9-.2.2-.9.9-2 .9s-5-.2-5.7.7c0 0 4.3.5 5.7.1 1.4-.4 2-.9 2.4-1.4.4-.6.6-.4.6-.3z"/><path id="XMLID_399_" class="st3" d="m75.7 104.6-.2-.1-.6-1 .2-.5.5.8z"/><path id="XMLID_398_" class="st5" d="M76.2 23.2s-1.3 2.3-.4 6.2l-2 2.2 2.4 2.1s-.8 3.6-.5 5c0 .1 0 .2.1.3.2.4.5.9.8 1.3 0 0 1-4 2.8-4.6v-7.4s-3.1-2.7-3-5.3l-.1.1-.1.1z"/><path class="st6" d="M75.6 25.8h1.6-1.6m2.4 1h-2.4H78m.9 1h-3.3 3.3zm.4 1h-3.6 3.6zm0 .9h-3.8 3.8zm0 .9h-4.6 4.6zm0 1.1H74h5.3zm0 1.2h-4 4zm0 1.1h-3.2 3.2zm0 1.2h-3.4 3.4zm-.9 1.1h-2.6 2.6m-.8 1.2h-2 2zm-.5 1.1h-1.4 1.4zm-.4 1.2h-.4.4"/><path id="XMLID_383_" class="st5" d="M22.7 128.4s1.3-2.3.4-6.2l2.1-2.2-2.4-2.1s.8-3.6.5-5c0-.1 0-.2-.1-.3-.2-.4-.5-.9-.8-1.3 0 0-1 4-2.8 4.6v7.4s3.1 2.7 3 5.3l.1-.1v-.1z"/><path class="st6" d="M23.3 125.8h-1.6 1.6m-2.3-1h2.4H21m-1-1h3.3H20zm-.4-1h3.6-3.6zm0-.9h3.8-3.8zm0-.9h4.6-4.6zm0-1.1h5.3-5.3zm0-1.2h4-4zm0-1.1h3.2-3.2zm0-1.2H23h-3.4zm.9-1.1h2.6-2.6m.8-1.2h2-2zm.5-1.1h1.4-1.4zm.4-1.2h.4-.4"/><path id="XMLID_368_" class="st7" d="M82.3 89V71.7l-2.7 1.8c-.8-14.2-9.3-19.4-9.3-19.4l4.9-7.3-1-1c-4.8 2.9-5.2.2-5.2.2L49.2 72.2l-.5 11.1c3.7 16.3 10.9 23.4 10.9 23.4L82.3 89z"/><path id="XMLID_367_" class="st4" d="M54.9 78.6s3.8-2.1 3.4-7l.7-1.3s1.3 5.4-3.6 8.8l-.5-.5z"/><path class="st4" d="M59.4 73.8c.3-1.4.2-2.6.2-3.2.9 0 1.6.7 1.6 1.6 0 .9-.7 1.6-1.6 1.6h-.2zm-2 4.1c.8-.9 1.3-1.8 1.6-2.8.5.3.8.8.8 1.4 0 .9-.7 1.6-1.6 1.6-.3 0-.6-.1-.8-.2zm-.9.8c-.3.2-.6.5-.9.7L54 80.7c.3.5.8.8 1.4.8.9 0 1.6-.7 1.6-1.6.1-.4-.1-.9-.5-1.2zM61.8 63.9s-.6 0-.7-.2c-.1-.2-.4 2.6-1.3 3.4-.9.8-1.1 1.5-1.1 1.5s-.4-.3-.5-.6c0-.3-2.2.5-2.5-1.3-.3-1.8.7-3.7 1.3-3.8.7-.1 1.6.3 1.1.9 0 0-.3.3-.7.3-.4 0-.8 1.5-.3 1.6.5.2 1.4 0 1.1-.4-.2-.4-.2-.5.2-.7.4-.2 1.3-1 1.3-1.8 0-.7.1-3.7 1.2-5.3 1.1-1.6 2.1-1.8 2.8-1.8 0 0 1.6 0 1.6 1.2 0 0 0 1-.7 1-.7-.1-.5-.3-.6-.8-.1-.5-1.6-.6-2.2.7-.6 1.4-1.2 3.2-.4 4.1.8.9 1.2.9 1.5.8.2.1-.7 1.3-1.1 1.2zm2.2-3.5s-.7.2-1.1 0c-.4-.2-1.1 0-.4.5 0 0 .9.8 1.7.5 0 0 .4-.3.1-.8-.1-.3-.3-.2-.3-.2zm-4.4 4.9s-.7 1.3-1.9 1.3-1.4-1.2-1.4-1.3c0-.2-.5 1.7 1.4 1.8 1.9 0 1.9-1.8 1.9-1.8zm3.6-7.6s-1-.3-1 .8.7 1.4 1.3 1.4c.5 0 2.7-.2 3.4-3 .7-2.8.4-3 .4-3.3 0-.3.6-2 1.1-2.3.6-.3 1.1-.6.7-.8-.4-.2 0-.5.3-.5s1 .2.8.9c0 0-.2.8-.8 1-.5.2-.5.8-.2 1 .3.2 1.6.1 1.9-.9.3-1 .8-2.7.3-3.5-.6-.8-2.2-.6-2.2-.6-.1.1-.4-.8-.8-.2-.5.5-2.2 2.6-1.9 4.3 0 0-1.7-.1-1.8.6 0 0 0 .3.4.3s2 1.9 1.1 3.9c0 0-.8 2.1-2.2 1.8-.8-.2-.8-.8-.8-.9zm2.1-2.2s-.9-.6-1.2-.4c-.4.2-.6.1-.7 0-.2-.1-.8-1.2.2-1.4 1.3-.2 2.2 1.8 1.7 1.8zm5.6-5s-.2-1.9-2.5-.8c0 0-.2.1 0-.2.2-.3 1.9-1.3 2.7.4.1.9-.2.4-.2.6z"/><path id="XMLID_357_" class="st7" d="M16.6 62.6v17.3l2.6-1.7c.8 14.2 9.5 19.3 9.5 19.3l-4.9 7.3 1 1c4.7-2.8 5.1-.1 5.1-.1l19.2-23 1.3-14.8C47.2 53.9 39.2 45 39.2 45L16.6 62.6z"/><path id="XMLID_356_" class="st3" d="m40.3 45.4 2.3 4.3c3.3 6.2 4.7 9.3 7.8 18.4l13.3-18.3 3.9-5-.6-1.1H42.9l-2.6 1.7z"/><path id="XMLID_355_" class="st1" d="M26.6 22.8c.1.5.2 1.1.3 1.6.1.9.8 1.4 1.1.1.1-.3.2-.8.3-1.4.8-4.2 7-3.3 7.8.1.8 3.4-.3 6.1-3.4 10-3.1 3.9-4.5 6.3-5.3 8.8-.6-3-6.3-9.9-7.9-13-1.6-3.1-1-7.2 1.4-8.2 2.6-1.2 5.5 0 5.7 2z"/><path id="XMLID_354_" class="st8" d="M66.6 27.3s1.5 5.1 1.6 7.3c.1 2.2 1.5 6.1 2.7 6.4 0 0 .6-1.5 2.7-1 0 0 2.5.6 2.2 3.2 0 0-.1 1.3-1.2 2.1 0 0-2.8 2.1-6.2-.4 0 0-1.7-1.4-1.8-1.7l-19-.2s8.5-2.6 8.3-11.5c0 0-.4-5.5-2.3-6.9 6.4-.1 13 2.7 13 2.7z"/><path id="XMLID_353_" class="st3" d="M75.8 15.5H33L40.4 26s14.4-3.2 26 1.6l9.4-12.1z"/><path class="st9" d="M62.7 26.4s1.4 8.3 1.5 9.6c0 1.3.8 4.6 2.2 6.6 1.3 2 3.9 4.4 7.2 3.4 0 0 3.1-1 2.2-4.1 0 0-.9-2.5-3.7-1.9 0 0-1.6.6-1.2 2.2.4 1.5 1.8.6 1.6-.1-.2-.6-.4-1.1.7-1 1.1.1 2.3 1.9 1.6 2.8-.7.9-2.3 1.8-4 1-1.8-.8-3.9-2.6-4.8-5.9-.9-3.3-2.3-12.4-2.3-12.4m2 .8s1.4 6.8 1.4 8.2c0 1.4 1.7 6.3 3.6 6.7m-6-15.4s1.1 6 1.3 7.6c.2 1.7 1.6 6.3 2.5 7.5.9 1.2 3 2.6 4.5 1.9 1.5-.7.4-1.6-.4-1.6M61.5 26.1s1.3 6.6 1.4 8.5c.1 1.9 1.8 7.1 2.4 8.3m-5-17.1s1.6 8.1 1.6 9.4c0 1.3 1.1 5.9 2.3 7.7M59 25.6s1.5 5.8 1.6 9C60.7 37.8 63 43 63 43m-5.1-17.6s1.5 6.5 1.6 8.9c.1 2.5 2.3 8.2 2.5 8.5m-5.3-17.6s1.8 6.3 1.8 7.9c0 1.6 1.3 8.6 2.4 9.8m-5.4-17.7s2.1 6.7 2.1 9.7c0 3 2 8.1 2 8.1M56 33.4s2.1 9 2.5 9.6m-3.1-6.8 2.3 6.8m-3.1-5.4 1.8 5.3m-2.5-4.1 1.4 4.1m-2.2-3.2 1.2 3.2m-2.2-2.3.8 2.4m-1.6-1.7.4 1.6m-1.4-1 .2 1"/><path id="XMLID_335_" class="st7" d="M48.6 42.9c-1.3.5-2.6.8-3.4.9l21.9.1-.7-.9-17.8-.1z"/><path id="XMLID_334_" class="st6" d="M40.7 25.6s-.5 1.1.1 1.8.3 2.1.1 2.4c-.2.3-2.2 3.7-2.2 3.7s-.6.9 0 1.4c0 0 1.7 1 2.1 1.6.4.6.3.9.3 1.5s-.2.7.1 1c.3.4.5.7.4 1.2 0 .5.7 1 .9 1.2.2.2.1 1.6.1 1.6s1 2.2 7-.7c6-2.9 8.2-9.9 4.8-17.5-7.9-1-13.7.8-13.7.8z"/><path class="st3" d="M42.1 26.9s1 .2 2.1.2 4.1.8 5.2 2.4c0 0-.2.2-.5-.2s-3.2-1.7-4.7-1.4c-1.4.2-2.5-.4-2.1-1zm.3 2.2c-.2 0 .2.4.5.8.3.3.2 1.2-.1 1.4-.3.3-.1.5.4.5s1 .4 1.1.5c.1.1 0 .5.1.5s.5.1.7.2c.2.1.8.4.8.2 0-.1-.3-.3-.8-.8s-.4-.8-.4-.8 1.4.1 1.9-.1.5-.4 1.6-.1c1.1.3 1.1-.1 1.1-.1s-1-.6-1.8-1.1c-.8-.6-1.9-.9-2.6-1-.7-.1-.6-.3-.6-.3 2.2-.5 4.7 1.6 4.7 1.6 0-.2-.8-1.1-2-1.5-1.2-.5-2.5-.5-2.7-.3-.2.2-1.9.4-1.9.4zm2 1.5s.3-.4.6-.2c.4.2.1.8-.2 1-.3.2-.7.2-.5-.4.1-.5.1-.4.1-.4zm1.1.8s0-.8.3-.9c.3-.1.6.1.7.3.1.2.3.4 0 .5-.3.1-1 .1-1 .1zm-5.2 3.2s.4-.3 1 0c.7.2.8.3.9.6.2.3 1 .3 1.1-.2.1-.4.1-.8-.2-1.1-.3-.3 0-.5.2-.3 0 0 .6.4.6 1.2 0 .8-.7 1-1.5.8-.8-.2-1.2-.5-1.2-.5s-.2-.1-.9 0c-.6.1 0-.5 0-.5zm2.3 2.6c-.1.1-.2.6.9.5 1-.1 1.1.3 2.3.7 1.2.4 2.1-.2 2.5-1.1.3-.9-.6-1.3-1-1.4-.4-.1-.3.2-.1.4.2.1.8.5.4 1s-1.4.7-1.7.3c-.3-.4-1.4-.8-2.2-.9-.8-.2-1.1.5-1.1.5zM41 38.6s0-.5.6-.4c.6.1 1.2.1 1.4.3.2.2.9.2 1.2.2.2 0 .4.1.4.3 0 .2.3.6.4.6.1.1-.3.2-.6-.1-.3-.2-1.2-.5-1.6 0-.5.5-.7.7-.5.9.1.2-.5.1-.5-.5-.2-.5-.8-1.3-.8-1.3zm12.4-4.1s-.2.7.2 1.1c.4.3 1 .7 1.5-.1.5-.8.6-1 .6-1s-.2 2-1.4 2.3c-1.2.2-1.7-1.1-1.7-1.3 0-.3-.1-1.5.8-1z"/><path class="st4" d="M46.8 61.9s.3 1.1-.5 1.5c0 0-.2.4.2.2.4-.1.9-.7.8-1.4 0 0-.2-.4-.5-.3-.1-.1 0 0 0 0zm-1.4-5.8s0 .3.1.4c.1.1.4.9 0 1.1-.4.2-.7-.3-.7-.8.1-.4.3-.9.6-.7zm-2.7.2s-.5.2 0 .8c.5.6 1.6 1.9 2.3 2 .6.1 1.1.1 1.1-.1 0-.3.6-.1.4.4-.1.5-.2.5-.4.7-.2.1 1.6.9 1.7 2.1.1 1.2 0 1.5 0 1.5s.4.2.5.2c.1 0-.3.5-.8.5h-.7s-1.1 1-2.3 0c-1.2-1-.5-2.1-.2-2.2.3-.1.2.2.3.4.1.3 1.1 1.2 1.6-.1 0 0-.6 0-.3-.5s-.1-.9-.5-1.2c-.4-.3-1.7-1.5-2-1.7-.3-.2-1.4-1.1-1.4-2.1s0-1.4.5-1.4c.4-.2.3.4.2.7zm-1.3-1.6s-.1 0 0 .6.6.2.6-.5-.1-.8-.3-.8c-.3 0-.3.7-.3.7zm-1.8-4.4s-.6-.4.1-.8c.7-.3 1 0 1.1.2.2.3.4 1 .5 0 .2-1-.3-1.5-.9-1.6-.7-.2-1.8.2-2.3.5-.4.3-.8.2-.8.2s-.5.3 0 .5.2 1 .5 1.4c.3.4 1 1.7 1.7 1.9 0 0 .2 0 0 .3-.2.4 0 .8.5.6.6-.2 1.1-.2 1.5 0 .4.2 1.5.8 1.8 1.3.3.5.4.7.2 1-.1.3 0 1.1.4.6.4-.5.6-1.4 0-2.1-.6-.7-2.6-1.9-2.9-2 0 0-1.6-1.1-1.6-1.4 0-.4 0-.5.2-.6.4-.1.2-.1 0 0zm-.5-1.2s-.5.7-.4 1c.1.3.1.6-.2.4-.3-.2-.5-1 .1-1.4.6-.4.5 0 .5 0zm-.6-2.7c0-.2.4-.2.6-.2.2 0 .3.3.6.9.3.6-.4.1-.4.2-.1.2-.5.5-.5.5-1.1.6-2.2-.2-2.2-.2l.7-.6s.4.3.9.3.3-.9.3-.9z"/><path id="XMLID_318_" class="st4" d="m45.9 66.6 1.1.1s.4-.8.8-.4c.4.3.4.4.4.5 0 .1 1.1-.1 1.1-.1s-.1-1.8-1.2-1.9c-1.1-.1-1.8.5-1.9.7-.4.4-.3 1.1-.3 1.1z"/><path id="XMLID_317_" class="st4" d="M34.5 48.7s6.8 9.3 8.1 15l.9-.4s-4.3-11.4-8.2-15c-.3 0-.8.4-.8.4z"/><path class="st4" d="M39.1 60.1c1.4 0 2.5 1.1 2.5 2.5s-1.1 2.5-2.5 2.5-2.5-1.1-2.5-2.5 1.1-2.5 2.5-2.5zm0 1.6c-.5 0-1 .4-1 1 0 .5.4 1 1 1 .5 0 1-.4 1-1 0-.5-.4-1-1-1zM36.9 55c1.3 0 2.3 1 2.3 2.3s-1 2.3-2.3 2.3c-1.3 0-2.3-1-2.3-2.3s1.1-2.3 2.3-2.3zm.1 1.5c-.5 0-.9.4-.9.9s.4.9.9.9.9-.4.9-.9-.4-.9-.9-.9zm-3.3-7.3-3 2.4v.1c0 1.4 1.1 2.5 2.5 2.5s2.5-1.1 2.5-2.5c0-1.2-.8-2.2-2-2.5zm-.4 1.6c.5 0 1 .4 1 1 0 .5-.4 1-1 1-.5 0-1-.4-1-1s.5-1 1-1z"/><path id="XMLID_310_" class="st4" d="m36.3 68-.4-1c-3.4 3.4-5.5 8.1-5.5 13.3 0 3.3.8 6.3 2.3 9l.7-.7c-1.3-2.5-2-5.3-2-8.3 0-4.8 1.9-9.1 4.9-12.3z"/><path id="XMLID_309_" class="st4" d="m43.7 64.6-.1-.8c-6.7 2.3-11.5 8.9-11.5 16.4 0 2.8.7 5.4 1.9 7.8l.6-.4c-1.1-2.2-1.7-4.7-1.7-7.3 0-7.2 4.5-13.4 10.8-15.7z"/><path class="st4" d="M40.7 66.8c1.5-1.1 2.8-1.8 3.4-2.2.3.4.6.9.6 1.4 0 1.1-.9 2.1-2.1 2.1-.9 0-1.6-.5-1.9-1.3zm-5 5.2c1-1.5 2.1-2.7 3.3-3.8.5.5.9 1.1.9 1.9 0 1.4-1.1 2.5-2.5 2.5-.7 0-1.3-.3-1.7-.6zm-2.4 6.5c.2-1.8.7-3.4 1.4-4.8 1 .3 1.8 1.3 1.8 2.4 0 1.4-1.1 2.5-2.5 2.5-.3 0-.5 0-.7-.1zm1 6.9c-.6-1.7-.9-3.4-1-4.9.2-.1.4-.1.7-.1 1.4 0 2.5 1.1 2.5 2.5-.1 1.3-1 2.4-2.2 2.5z"/><path class="st3" d="M24.3 48.8s.5-1.1 1.2-1.2c.7-.1 6.8.9 8.9-2.3 0 0 .8-2.2.7-2.5-.1-.3-.9-.1-1.3.1s-1.6.7-2.9.7c-1.3 0-5.3-.3-6.6 1.1-1.3 1.4-1.2 2.7-1.2 2.7S21 46 20.5 48.6c0 0-1.7.4-1.3 2.1 0 0 .1 0-.3.4-.5.4-.4 1.4-.2 1.9 0 0-.7.9-.2 1.5.5.6.7.8.6 1.4-.1.6-.1 2 .1 2.3s1 .1 1.2-.3c.2-.4.6.2.8.5l.3.6.4-.4-1-1.5-.1-.8s1.4.1 1.2-1.4c0 0 1.1-.6 1-1.5 0 0 .9-.6.9-.9 0-.3.4 0 .4 0s-.1 2.5.6 2.9l.4.9.4-.7s-1.8-2.5-.6-3.7c0 0-.7-.6-.7-1s-.8.1-.9.3c-.1.2-.8.5-.7-.1.1-.6.4-2 1.1-2 .7 0 1.8 0 2.1.5.3.5 1.7 1.2 1.7 2.5l.9 1.4.2-.4S28 51.3 28 51c-.1-.1-1.6-2.6-3.7-2.2zm-1.6-1.4s1 .5.8 1.1c-.2.6-1 1-1.5.9-.5-.1-1.1-.8-.7-1.4.3-.6 1.1-.7 1.4-.6zm-2.1 1.5s.8.1 1 .8c0 0-.6.7-.3 1.4.2.7.4 1.2-.1 1-.5-.2-1.3-1.3-1.3-1.5-.1 0-.6-1.1.7-1.7zm-1.2 2.5s1.1.3 1.5 1.1c.3.8-.1 1.5-.6 1.2-.5-.3-1-.7-1.2-.9-.2-.1-.3-1.3.3-1.4zm-.5 2.1s1-.3 1.5.9c0 0-.1 1.1-.7.9-.6-.2-1-.9-1-1.1-.1-.3 0-.7.2-.7zm1.9 1.5s.6-.2.6.2-.5.8-.8.8c-.3 0-.5-.5.2-1zm-1.3.9s.5-.5.6.4c.1.9-.4 1.9-.7 1.4-.1-.6.1-1.7.1-1.8zm2.4-3s.6.1.6.6-.3.9-.7.8c-.5-.1-.6-1 .1-1.4zm.3-.5c-.1-.3.2-.3.7-.4.5-.1.6.3.6.3-.9 1.1-1.3.1-1.3.1zm.3-2.2s.2.7-.3 1c-.5.3-.8-.3-.4-.6.3-.5.7-.4.7-.4z"/><path id="XMLID_294_" class="st3" d="M23.7 48.3s1.3-1.4 2.1-1.5c.7-.1 5 .6 7.1-1.3 3.5-3.1-1.4-.9-3.5-.9-1.3 0-3.3-.3-4.6 1.1-1.3 1.4-1.3 2-1.3 2l.2.6z"/><path id="XMLID_293_" class="st4" d="M23.4 47s.2-1.4 1.8-2c1.6-.6 2.8-.7 2.9-.7.2 0 4.3-.2 6-.9 0 0 .7 2.7-4 3.6 0 0-3.2.1-3.7-.1-.6-.2-2 .7-2.3 1-.3.3 0-.7.3-.9.2-.2.9-.9 2-.9s5 .2 5.7-.7c0 0-4.3-.5-5.7-.1-1.4.4-2 .9-2.4 1.4-.4.6-.6.4-.6.3z"/><path class="st4" d="M37.1 87.7s.6 0 .7.2c.1.2.4-2.6 1.3-3.4.9-.8 1.1-1.5 1.1-1.5s.4.3.5.6c0 .3 2.2-.5 2.5 1.3.3 1.8-.7 3.7-1.3 3.8-.7.1-1.6-.3-1.1-.9 0 0 .3-.3.7-.3.4 0 .8-1.5.3-1.6-.5-.2-1.4 0-1.1.4.2.4.2.5-.2.7-.4.2-1.3 1-1.3 1.8 0 .7-.1 3.7-1.2 5.3-1.1 1.6-2.1 1.8-2.8 1.8 0 0-1.6 0-1.6-1.2 0 0 0-1 .7-1 .7.1.5.3.6.8.1.5 1.6.6 2.2-.7.6-1.4 1.2-3.2.4-4.1-.8-.9-1.2-.9-1.5-.8-.2-.1.8-1.3 1.1-1.2zm-2.2 3.5s.7-.2 1.1 0c.4.2 1.1 0 .4-.5 0 0-.9-.8-1.7-.5 0 0-.4.3-.1.8.1.3.3.2.3.2zm4.4-4.9S40 85 41.2 85s1.4 1.2 1.4 1.3c0 .2.5-1.7-1.4-1.8-1.9 0-1.9 1.8-1.9 1.8zm-3.6 7.6s1 .3 1-.8-.7-1.4-1.3-1.4c-.5 0-2.7.2-3.4 3-.7 2.8-.4 3-.4 3.3 0 .4-.6 2-1.1 2.3-.6.3-1.1.6-.7.8.4.2 0 .5-.3.5s-1-.2-.8-.9c0 0 .2-.8.8-1 .5-.2.5-.8.2-1-.3-.2-1.6-.1-1.9.9-.3 1-.8 2.7-.3 3.5.6.8 2.2.6 2.2.6.1-.1.4.8.8.2.5-.5 2.2-2.6 1.9-4.3 0 0 1.7.1 1.8-.6 0 0 0-.3-.4-.3s-2-1.9-1.1-3.9c0 0 .8-2.1 2.2-1.8.8.2.8.8.8.9zm-2.1 2.2s.9.6 1.2.4c.4-.2.6-.1.7 0 .2.1.8 1.2-.2 1.4-1.3.2-2.2-1.8-1.7-1.8zm-5.6 5s.2 1.9 2.5.8c0 0 .2-.1 0 .2-.2.3-1.9 1.3-2.7-.4-.1-.9.2-.4.2-.6z"/><path id="XMLID_286_" class="st6" d="M79.3 35.6v-7.4s-3.1-2.7-3-5.3c0 0-6.8 6.6.2 17.3.1 0 1-4 2.8-4.6z"/><path id="XMLID_285_" class="st5" d="M79.2 48.5V26.7l3.3-2.3v26.9z"/><path id="XMLID_284_" class="st10" d="m82.4 25.8-2 1.3v22.1l2 2.1z"/><path id="XMLID_283_" class="st4" d="M44 73s-3.8 2.1-3.4 7l-.7 1.3s-1.3-5.4 3.6-8.8l.5.5z"/><path id="XMLID_282_" class="st4" d="m17.9 78.8 1.5-.7c.8 14.2 9.3 19.4 9.3 19.4l-4.9 7.3.6.8-.3.6-1.3-1 4.7-6.7c.1-.1-8.2-7.8-9.6-19.7z"/><path id="XMLID_281_" class="st11" d="m22.8 105.1 4.7-6.7s-8.1-7-9.5-18.8"/><path id="XMLID_280_" class="st3" d="M16.6 78.7v22.1l5.9 4.5.3-.2 4.7-6.7s-8.1-7-9.5-18.8l-.2-1.5-1.2.6z"/><path id="XMLID_279_" class="st12" d="m34.6 63.8-2.5-5.2S30.2 70.5 19.8 78c0 0 .3 13.1 9.1 19.2l2.1-2.7s-12.2-17.2 3.6-30.7z"/><path id="XMLID_278_" class="st4" d="m39.7 45.4 2.9 4.3h21.3l3.9-5.1-.8-.9H42.9z"/><path id="XMLID_277_" class="st13" d="m67.8 44.5 1.8 1.3-16.8 22h-2.3z"/><path id="XMLID_276_" class="st3" d="M45.4 67.3h13.9l.6 1.3-3.1 5H44.3v-3.8z"/><path id="XMLID_275_" class="st14" d="M46.9 68.5h1.4l-2.5 4.6h-1.4z"/><path id="XMLID_274_" class="st14" d="M49.6 68.5h1.3l-2.5 4.6h-1.3z"/><path id="XMLID_273_" class="st14" d="M51.9 68.5h1.4l-2.5 4.6h-1.4z"/><path id="XMLID_272_" class="st14" d="M54.5 68.5h1.3l-2.5 4.6H52z"/><path id="XMLID_271_" class="st14" d="M44.3 71.3v-1.5l.6-1.3h.9z"/><path id="XMLID_270_" class="st14" d="M57.2 68.5h1.3L56 73.1h-1.3z"/><path id="XMLID_269_" class="st3" d="M56 83.5H39.5l4-6.3H56V81z"/><path id="XMLID_268_" class="st14" d="M53.4 82.3H52l2.5-4.6h1.4z"/><path id="XMLID_267_" class="st14" d="M50.7 82.3h-1.3l2.5-4.6h1.3z"/><path id="XMLID_266_" class="st14" d="M48.4 82.3H47l2.5-4.6h1.4z"/><path id="XMLID_265_" class="st14" d="M45.8 82.3h-1.3l2.5-4.6h1.3z"/><path id="XMLID_264_" class="st14" d="M56 79.5V81l-.6 1.3h-.9z"/><path id="XMLID_263_" class="st14" d="M43.1 82.3h-1.3l2.5-4.6h1.3z"/><path id="XMLID_262_" class="st1" d="M46.1 76.9c.8 0 1.4-.6 1.4-1.4 0-.8-.6-1.4-1.4-1.4-.8 0-1.4.6-1.4 1.4 0 .8.6 1.4 1.4 1.4z"/><path id="XMLID_261_" class="st1" d="M54.3 76.9c.8 0 1.4-.6 1.4-1.4 0-.8-.6-1.4-1.4-1.4-.8 0-1.4.6-1.4 1.4 0 .8.6 1.4 1.4 1.4z"/><path class="st4" d="M39.5 77.8c-.3 1.4-.2 2.6-.2 3.2-.9 0-1.6-.7-1.6-1.6 0-.9.7-1.6 1.6-1.6h.2zm2-4.1c-.8.9-1.3 1.8-1.6 2.7-.5-.3-.8-.8-.8-1.4 0-.9.7-1.6 1.6-1.6.3.1.6.2.8.3zm.9-.8c.3-.2.6-.5.9-.7l1.6-1.3c-.3-.5-.8-.8-1.4-.8-.9 0-1.6.7-1.6 1.6-.1.4.1.9.5 1.2z"/><path id="XMLID_257_" class="st4" d="M32.6 58.3s2.2 4.1 2.4 4.9l-.2.3-2.6-5.1.4-.1z"/><path id="XMLID_256_" class="st1" d="M16.6 63.5v4.1c3.2-1.3 5.2-8.4 5.2-8.4l-5.2 4.3z"/><path id="XMLID_255_" class="st1" d="M34 15.5h41.4l-8.3 10.3C55.3 21.3 40 24 40 24l-6-8.5z"/><path class="st14" d="M43.6 21.9c.4 0 .6.3.6.6 0 .4-.3.6-.6.6-.4 0-.6-.3-.6-.6-.1-.4.2-.6.6-.6zm8.6-.6c.4 0 .6.3.6.6 0 .4-.3.6-.6.6-.4 0-.6-.3-.6-.6s.3-.6.6-.6zm10.6 1.5c.4 0 .6.3.6.6 0 .4-.3.6-.6.6-.4 0-.6-.3-.6-.6-.1-.3.2-.6.6-.6zm-23.4-7.3h-1.5l3 7.3.8-.2s0-2.1 1.8-1.9c1.9.1 2 1.4 2 1.4l1-.1-2.1-6.4h-1.9l1.2 4c-1.7-.3-2.3.6-2.3.6l-2-4.7zm16.9 0-1.4 4.9c-.6-1-2.3-1.3-2.3-1.3-1-.3-2.8.7-2.8.7l-.7-4.3h-1.5l1 6.2h1.8s.4-2 1.9-1.7c1.5.3 1.8 1.9 1.8 2H56l1.8-6.6h-1.5v.1zm13.3 0-4.3 6.3c-1.2-1.6-3.5-1.1-3.5-1.1l2.2-5.2h-1.6l-2.9 7 1.5.4s.9-1.9 2.5-1.2c0 0 .9.4 1.1 1.9l1.2.4 5.9-8.5h-2.1z"/><path class="st7" d="M40.4 44.8h27.2l-2.9 3.7H43.4l-3-3.7zm.8.5 1.4 2.1 2.8-2.1h-4.2zm.3.5 1 1.4c.2-.2.3-.4.3-.6 0-.5-.4-.9-.9-.9-.1 0-.2 0-.4.1zm21.8-.1c-.5 0-.9.4-.9.9s.4.9.9.9.9-.4.9-.9c-.1-.5-.5-.9-.9-.9zm-.7-.4L59 47.9h4.3l3.4-2.6h-4.1zm-6.8 0-3.5 2.6h4.3l3.4-2.6h-4.2zm.7.4c-.5 0-.9.4-.9.9s.4.9.9.9.9-.4.9-.9-.4-.9-.9-.9zm-7.7-.4-3.5 2.6h4.3l3.4-2.6h-4.2zm.7.4c-.5 0-.9.4-.9.9s.4.9.9.9.9-.4.9-.9c-.1-.5-.4-.9-.9-.9z"/><path class="st3" d="M38.2 46.7s-.8-3.4 1.1-4.3c0 0 1.9-.9 3.9 1.1 0 0 .4.3-.4.7-.9.3-4.6 2.5-4.6 2.5zm.2-1.2s.4-1 .7-.8c.3.2.5-.1.4-.5-.1-.3.4-.5.9-.3s.5 0 .5-.3.2-.4.6-.1c0 0 .8.5 1-.1.2-.6-1.9-.9-2.8-.6-.9.3-1.9 2-1.3 2.7z"/><path id="XMLID_237_" class="st4" d="m29.6 52.4-.1.1c0 .1-.1.2-.3.2 5.4 6.1 7.4 14.6 7.4 14.6l.5-.1c-.7-6.3-6.5-13.6-7.5-14.8z"/><path class="st4" d="M17.1 71.1v2.1c1.1-.1 2-1 2-2.1 0-.6-.2-1.1-.6-1.5-.9.9-1.4 1.5-1.4 1.5zm10.2-16.9-2.8 2.2v.5c.3.1.5.1.8.1 1.2 0 2.1-1 2.1-2.1 0-.2 0-.4-.1-.7zm-6.1 11.7c.6.4 1 1 1 1.8 0 1.2-1 2.1-2.1 2.1-.5 0-1-.2-1.4-.5.7-.9 1.6-2.1 2.5-3.4zm2.1-4c-.6 1.3-1.3 2.6-2 3.7.3.2.7.3 1.2.3 1.2 0 2.1-1 2.1-2.1 0-.9-.5-1.6-1.3-1.9zm1.2-4.4c-.1 1.4-.5 2.8-1.1 4.1.2.1.4.1.6.1 1.2 0 2.1-1 2.1-2.1.1-1.1-.6-1.9-1.6-2.1zm-5.6 15.3s1.3.7 2.7.4l.6 1.2-3 2.5-.7-.6s.3-3 0-3.2c-.2-.2.4-.3.4-.3zm3.6-3.6s1.9.4 2.7-.4l1.1 1.1-2.2 2.7-1.2-.4s.2-1.9-.1-2.1c-.2-.2-.3-.9-.3-.9zm2.2-4.2s1.6.2 2.1-.3.9-.8.9-.8l1.2 1-1.3 2.9-1.6-.2v-1.1L24.7 65zm5-10.9s-1.2 1-1.4 1l-.1.2s1.2.9 1.3 1.7c.1.8.2 1 .2 1h1.2l.2-1.7-1.4-2.2zM26.4 60s2.1-.1 2.7-1.1l.2-.1 1.1.8s-.5 2.9-.7 3.1c-.2.2-1.6.2-1.6.2s-.6-2.6-1.7-2.9z"/><path id="XMLID_226_" class="st4" d="M16.6 68.1v11.2l.3-.1c12.7-6.3 15.2-21.3 15.2-21.3l-.8-1.1s.4.6-1.3 6.8c-2.9 9.7-12.9 15-12.9 15v-8.4c6.2-6.8 6.9-11.5 7-13.3l-1.6 1.3c-.3 5.4-4.7 9-5.9 9.9z"/><path class="st4" d="M29.3 91.1c.3.7.7 1.3.9 1.9h.1c.7 0 1.2-.5 1.2-1.2s-.5-1.2-1.2-1.2c-.4 0-.8.2-1 .5zm-1.2-3c.2.6.4 1.2.7 1.8.1 0 .2.1.4.1.7 0 1.2-.5 1.2-1.2s-.5-1.2-1.2-1.2c-.5 0-.9.2-1.1.5zm-.9-3.1c.1.7.3 1.3.5 1.9.1 0 .3.1.4.1.7 0 1.2-.5 1.2-1.2s-.5-1.2-1.2-1.2c-.3 0-.6.1-.9.4zm-.4-3.6c0 .8.1 1.6.2 2.3h.2c.7 0 1.2-.5 1.2-1.2s-.5-1.2-1.2-1.2c-.1.1-.3.1-.4.1zm.1-3.2c-.1.7-.1 1.5-.1 2.2.2.1.4.1.6.1.7 0 1.2-.5 1.2-1.2s-.5-1.2-1.2-1.2c-.2 0-.4.1-.5.1zm.6-3.3c-.2.7-.4 1.4-.5 2.1.2.2.5.3.7.3.7 0 1.2-.5 1.2-1.2s-.5-1.2-1.2-1.2c0-.1-.1 0-.2 0zm1.3-3.3-.9 2.1c.2.2.5.3.8.3.7 0 1.2-.5 1.2-1.2 0-.6-.5-1.2-1.1-1.2zm1.5-2.7c-.5.7-.9 1.4-1.3 2.1.2.1.4.2.7.2.7 0 1.2-.5 1.2-1.2.1-.5-.2-.9-.6-1.1zm2.2-2.7c-.6.6-1.1 1.2-1.6 1.9.2.2.5.3.8.3.7 0 1.2-.5 1.2-1.2.1-.4-.1-.7-.4-1zm2.2-2.1c-.6.5-1.2 1.1-1.7 1.6.2.1.4.2.7.2.7 0 1.2-.5 1.2-1.2 0-.2-.1-.4-.2-.6z"/><path class="st6" d="m19.3 65-2.5-1.7 2.5 1.7m2.1-4.3-2.3.7 2.3-.7z"/><path id="XMLID_213_" class="st4" d="M16.6 98v2.2l5.9 4.5.8-1.4z"/><path class="st14" d="M16.6 87.8V89l7 5.7V94c-.2-.3-.5-.7-.7-1l-6.3-5.2zm0-1.9 4.3 3.5c.3.7.7 1.4 1.1 2L16.6 87v-1.1zm0-2 3.1 2.5c.2.6.4 1.2.7 1.7l-3.8-3v-1.2zm0-1.9v1.2l2.7 2.2c-.2-.5-.3-1-.5-1.5L16.6 82zm0-1.3 1.8 1.5c.1.5.2 1 .3 1.4l-2.2-1.8v-1.1h.1zm0-1.5v1.2l1.8 1.4c-.1-.4-.2-.9-.2-1.3l-1.6-1.3zM24.2 101.4l-1-.8v-1.4l1 .8v1.4zm-7.6-4.9v.9l.8.6v-.9l-.8-.6zm0-2.3v1.4l.8.6v-1.4l-.8-.6zm0-2.5v1.4l.8.6v-1.4l-.8-.6zm0-1.9v.9l.9.7v-.9l-.9-.7zm7.6 13.4v-1l-1-.8v1.1l1 .7zm2.2-3.1-.3.4-.7-.6v-1.4l1 .8v.8zm-6.7-2.2-1-.8v-1.4l1 .8v1.4zm2.2 1.7-1-.8v-1.4l1 .8v1.4zm-2.2.3v-1.1l-1-.8v1l1 .9zm2.2 1.6-1-.8v-.9l1 .8v.9zm2.3-2.5-1-.8v-1.4l1 .8V99zm-4.5-3.5-1-.8v-1.4l1 .8v1.4zm2.2 1.7-1-.8V95l1 .8v1.4zm2.4-.5-1-.8v-1l1 .8v1zm-4.5-3.4-1-.8v-1l1 .8v1zm2.2 1.6-1-.8v-.9l1 .8v.9z"/><path id="XMLID_189_" class="st14" d="M59.9 68.5v.1l-2.8 4.5h-.2l2.5-4.6z"/><path id="XMLID_188_" class="st14" d="m43.2 77.7-2.9 4.6h.4l2.5-4.6z"/><path class="st3" d="M80.4 28.8v-.3l2-1.1v.3l-2 1.1zm0 1.4v-.3c.7-.4 1.3-.7 2-1.1v.3c-.7.4-1.3.7-2 1.1zm0 1.3v-.3c.7-.4 1.3-.7 2-1.1v.3c-.7.4-1.3.8-2 1.1zm0 1.4v-.3c.7-.4 1.3-.7 2-1.1v.3c-.7.4-1.3.7-2 1.1zm0 1.3V34c.7-.4 1.3-.7 2-1.1v.3c-.7.3-1.3.7-2 1zm0 1.4v-.3c.7-.4 1.3-.7 2-1.1v.3c-.7.4-1.3.8-2 1.1zm0 1.4v-.3c.7-.4 1.3-.7 2-1.1v.3c-.7.4-1.3.7-2 1.1zm0 1.3V38c.7-.4 1.3-.7 2-1.1v.3c-.7.4-1.3.8-2 1.1zm0 1.4v-.3c.7-.4 1.3-.7 2-1.1v.3c-.7.4-1.3.7-2 1.1zm0 1.3v-.3c.7-.4 1.3-.7 2-1.1v.4c-.7.3-1.3.7-2 1zm0 1.4v-.3c.7-.4 1.3-.7 2-1.1v.3c-.7.4-1.3.8-2 1.1zm0 1.4v-.3c.7-.4 1.3-.7 2-1.1v.3c-.7.4-1.3.7-2 1.1zm0 1.3v-.3c.7-.4 1.3-.7 2-1.1v.3c-.7.4-1.3.8-2 1.1zm0 1.4v-.3c.7-.4 1.3-.7 2-1.1v.3c-.7.4-1.3.7-2 1.1zm0 1.3v-.3c.7-.4 1.3-.7 2-1.1v.3c-.7.4-1.3.8-2 1.1zm0 1.4v-.3c.7-.4 1.3-.7 2-1.1v.3c-.7.4-1.3.8-2 1.1zm.8.9-.2-.2 1.3-.7v.3l-1.1.6z"/><path id="XMLID_170_" class="st3" d="m59.2 106.1-3-4.1c-3.3-6.2-4.5-10.2-7.4-18.9l-13.9 18.8-3.6 5 .7 1.1h24l3.2-1.9z"/><path id="XMLID_169_" class="st1" d="M72.3 128.8c-.1-.5-.2-1.1-.3-1.6-.1-.9-.8-1.4-1.1-.1-.1.3-.2.8-.3 1.4-.8 4.2-7 3.3-7.8-.1-.8-3.4.3-6.1 3.4-10 3.1-3.9 4.5-6.3 5.3-8.8.6 3 6.3 9.9 7.9 13 1.6 3.1 1 7.2-1.4 8.2-2.5 1.2-5.5 0-5.7-2z"/><path id="XMLID_168_" class="st8" d="M32.3 124.3s-1.5-5.1-1.6-7.3c-.1-2.2-1.5-6.1-2.7-6.4 0 0-.6 1.5-2.7 1 0 0-2.5-.6-2.2-3.2 0 0 .1-1.3 1.2-2.1 0 0 2.8-2.1 6.2.4 0 0 1.7 1.4 1.8 1.7l19 .2s-8.5 2.6-8.3 11.5c0 0 .4 5.5 2.3 6.9-6.4.1-13-2.7-13-2.7z"/><path id="XMLID_167_" class="st3" d="M23.2 136.1H66l-7.4-10.5s-14.4 3.2-26-1.6l-9.4 12.1z"/><path id="XMLID_166_" class="st6" d="M58.3 126s.5-1.1-.1-1.8-.3-2.1-.1-2.4c.2-.3 2.2-3.7 2.2-3.7s.6-.9 0-1.4c0 0-1.7-1-2.1-1.6-.4-.6-.3-.9-.3-1.5s.2-.7-.1-1c-.3-.4-.5-.7-.4-1.2 0-.5-.7-1-.9-1.2-.2-.2-.1-1.6-.1-1.6s-1-2.2-7 .7c-6 2.9-8.2 9.9-4.8 17.5 7.9 1 13.7-.8 13.7-.8z"/><path class="st3" d="M56.8 124.7s-1-.2-2.1-.2-4.1-.8-5.2-2.4c0 0 .2-.2.5.2s3.2 1.7 4.7 1.4c1.4-.2 2.5.4 2.1 1zm-.3-2.2c.2 0-.2-.4-.5-.8-.3-.3-.2-1.2.1-1.4.3-.3.1-.5-.4-.5s-1-.4-1.1-.5c-.1-.1 0-.5-.1-.5s-.5-.1-.7-.3c-.2-.1-.8-.4-.8-.2 0 .1.3.3.8.8s.4.8.4.8-1.4-.1-1.9.1-.5.4-1.6.1c-1.1-.3-1.1.1-1.1.1s1 .6 1.8 1.1c.8.6 1.9.9 2.6 1 .7.1.6.3.6.3-2.1.5-4.7-1.6-4.7-1.6 0 .2.8 1.1 2 1.5 1.2.5 2.5.5 2.7.3.2 0 1.9-.3 1.9-.3zm-2-1.5s-.3.4-.6.2c-.4-.2-.1-.8.2-1 .3-.2.7-.2.5.4-.1.5-.1.4-.1.4zm-1.1-.8s0 .8-.3.9c-.3.1-.6-.1-.7-.3-.1-.2-.3-.4.1-.5.3-.1.9-.1.9-.1zm5.2-3.2s-.4.3-1 0c-.7-.2-.8-.3-.9-.6-.1-.3-1-.3-1.1.2-.1.4-.1.8.2 1.1.3.3 0 .5-.2.3 0 0-.6-.4-.6-1.2 0-.8.7-1 1.5-.8.8.2 1.2.5 1.2.5s.2.1.9 0c.6-.1 0 .5 0 .5zm-2.3-2.6c.1-.1.2-.6-.9-.5-1 .1-1.1-.3-2.3-.7-1.2-.4-2.1.2-2.5 1.1-.3.9.6 1.3 1 1.4.4.1.3-.2.1-.4-.2-.1-.8-.5-.4-1s1.4-.7 1.7-.3c.3.4 1.4.8 2.2.9.8.2 1.1-.5 1.1-.5zM58 113s0 .5-.6.4c-.6-.1-1.2-.1-1.4-.3-.2-.2-.9-.2-1.2-.2-.2 0-.4-.1-.4-.3 0-.2-.3-.6-.4-.6-.1-.1.3-.2.6.1.3.2 1.2.5 1.6 0 .5-.5.7-.7.5-1-.1-.2.5-.1.5.5.1.6.7 1.4.8 1.4zm-12.5 4.1s.2-.7-.2-1.1c-.4-.3-1-.7-1.5.1-.5.8-.6 1-.6 1s.2-2 1.4-2.3c1.2-.2 1.7 1.1 1.7 1.3 0 .3.1 1.5-.8 1z"/><path class="st4" d="M52.1 89.7s-.3-1.1.5-1.5c0 0 .2-.4-.2-.2-.4.1-.9.7-.8 1.4 0 .1.2.4.5.3.1.1 0 0 0 0zm1.4 5.8s0-.3-.1-.4c-.1-.1-.4-.9 0-1.1.4-.2.7.3.7.8-.1.4-.3.9-.6.7zm2.7-.2s.5-.2 0-.8c-.5-.6-1.6-1.9-2.3-2-.6-.1-1.1-.1-1.1.1 0 .3-.6.1-.4-.4.1-.5.2-.5.3-.7.2-.1-1.6-.9-1.7-2.1-.1-1.2 0-1.5 0-1.5s-.3-.2-.5-.2.3-.5.8-.5h.7s1.1-1 2.3 0c1.2 1 .5 2.1.2 2.2-.3.1-.2-.2-.3-.4-.1-.3-1.1-1.2-1.6.1 0 0 .6 0 .3.5s.1.9.5 1.2c.4.3 1.7 1.5 2 1.7.3.2 1.4 1.1 1.4 2.1s0 1.4-.5 1.4c-.3.2-.2-.4-.1-.7zm1.3 1.6s.1 0 0-.6-.6-.2-.6.5.1.8.3.8c.3 0 .3-.7.3-.7zm1.8 4.4s.6.4-.1.8c-.7.3-1 0-1.1-.2-.2-.3-.4-1-.5 0-.2 1 .3 1.5.9 1.6.7.2 1.8-.2 2.3-.5.4-.3.8-.2.8-.2s.5-.3 0-.5-.2-1-.5-1.4c-.3-.4-1-1.7-1.7-1.9 0 0-.2 0 0-.3.2-.4 0-.8-.5-.6-.6.2-1.1.2-1.5 0-.4-.2-1.5-.8-1.8-1.3-.3-.5-.4-.7-.2-1 .1-.3 0-1.1-.4-.6-.4.5-.6 1.4 0 2.1.6.7 2.6 1.9 2.9 2 0 0 1.6 1.1 1.6 1.4 0 .4 0 .5-.2.6-.4.1-.1.1 0 0zm.5 1.2s.5-.7.4-1c-.1-.3-.1-.6.2-.4.3.2.5 1-.1 1.4-.6.4-.5 0-.5 0zm.6 2.7c0 .2-.4.2-.6.2-.2 0-.3-.3-.7-.9-.3-.6.4-.1.4-.2.1-.2.5-.5.5-.5 1.1-.6 2.2.2 2.2.2l-.7.6s-.4-.3-.9-.3c-.4 0-.2.9-.2.9z"/><path id="XMLID_150_" class="st4" d="m53 85-1.1-.1s-.4.8-.8.4c-.4-.3-.4-.4-.4-.5 0-.1-1.1.1-1.1.1s.1 1.8 1.2 1.9c1.1.1 1.8-.5 1.9-.7.5-.4.3-1.1.3-1.1z"/><path id="XMLID_149_" class="st4" d="M64.4 103s-6.8-9.3-8.1-15l-.9.4s4.3 11.4 8.2 15c.3-.1.8-.4.8-.4z"/><path class="st4" d="M59.8 91.5c-1.4 0-2.5-1.1-2.5-2.5s1.1-2.5 2.5-2.5 2.5 1.1 2.5 2.5c.1 1.3-1.1 2.5-2.5 2.5zm0-1.6c.5 0 1-.4 1-1 0-.5-.4-1-1-1-.5 0-1 .4-1 1 0 .5.4 1 1 1zm2.2 6.7c-1.3 0-2.3-1-2.3-2.3 0-1.3 1-2.3 2.3-2.3 1.3 0 2.3 1 2.3 2.3 0 1.3-1 2.3-2.3 2.3zm-.1-1.5c.5 0 .9-.4.9-.9s-.4-.9-.9-.9-.9.4-.9.9c.1.5.5.9.9.9zm3.3 7.3 3-2.3v-.1c0-1.4-1.1-2.5-2.5-2.5s-2.5 1.1-2.5 2.5c0 1.1.9 2.1 2 2.4zm.4-1.6c-.5 0-1-.4-1-1 0-.5.4-1 1-1 .5 0 1 .4 1 1s-.4 1-1 1z"/><path id="XMLID_142_" class="st4" d="m62.6 83.6.3 1.1c3.4-3.4 5.5-8.1 5.5-13.3 0-3.3-.8-6.3-2.3-9l-.7.7c1.3 2.5 2 5.3 2 8.3.1 4.7-1.8 9-4.8 12.2z"/><path id="XMLID_141_" class="st4" d="m55.2 87 .1.8c6.7-2.3 11.5-8.9 11.5-16.4 0-2.8-.7-5.4-1.9-7.7l-.6.4c1.1 2.2 1.7 4.7 1.7 7.3 0 7.1-4.5 13.3-10.8 15.6z"/><path class="st4" d="M58.2 84.8c-1.5 1.1-2.8 1.8-3.4 2.2-.3-.4-.6-.9-.6-1.4 0-1.1.9-2.1 2.1-2.1.9 0 1.6.5 1.9 1.3zm5-5.2c-1 1.5-2.1 2.7-3.3 3.8-.5-.5-.9-1.1-.9-1.9 0-1.4 1.1-2.5 2.5-2.5.7 0 1.3.3 1.7.6zm2.4-6.5c-.2 1.8-.7 3.4-1.4 4.8-1-.3-1.8-1.3-1.8-2.4 0-1.4 1.1-2.5 2.5-2.5.3 0 .5 0 .7.1zm-.9-6.9c.6 1.7.9 3.4 1 4.9-.2.1-.4.1-.7.1-1.4 0-2.5-1.1-2.5-2.5 0-1.3.9-2.4 2.2-2.5z"/><path id="XMLID_136_" class="st6" d="M19.6 116v7.4s3.1 2.7 3 5.3c0 0 6.8-6.6-.2-17.3 0 0-1 4-2.8 4.6z"/><path id="XMLID_135_" class="st5" d="M20 103.1v21.8l-3.4 2.3v-26.9z"/><path id="XMLID_134_" class="st4" d="m81.1 72.6-1.6.9c-.8-14.2-9.3-19.4-9.3-19.4l4.9-7.3-.6-.8.3-.6 1.3 1-4.7 6.6c0 .2 8.3 7.7 9.7 19.6z"/><path id="XMLID_133_" class="st11" d="m76.1 46.5-4.7 6.6s8.1 7 9.5 18.8"/><path id="XMLID_132_" class="st3" d="M82.3 72.9v-22l-5.9-4.5-.3.2-4.7 6.6s8.1 7 9.5 18.8l.2 1.5 1.2-.6z"/><path id="XMLID_131_" class="st12" d="m64.3 87.8 2.5 5.2s1.9-11.9 12.3-19.4c0 0-.3-13.1-9.1-19.2l-2.1 2.7s12.2 17.2-3.6 30.7z"/><path class="st9" d="M36.2 125.2s-1.4-8.3-1.5-9.6c0-1.3-.8-4.6-2.2-6.6-1.3-2-3.9-4.4-7.2-3.4 0 0-3.1 1-2.2 4.1 0 0 .9 2.5 3.7 1.9 0 0 1.6-.6 1.2-2.2-.4-1.5-1.8-.6-1.6.1.2.6.4 1.1-.7 1-1.1-.1-2.3-1.9-1.6-2.8.7-1 2.3-1.8 4-1 1.7.8 3.8 2.6 4.7 5.9.9 3.3 2.3 12.4 2.3 12.4m-1.9-.8s-1.4-6.8-1.4-8.2c0-1.4-1.7-6.3-3.6-6.7m6 15.4s-1.1-6-1.3-7.6c-.2-1.7-1.6-6.3-2.5-7.5-.9-1.2-3-2.6-4.5-1.9-1.5.7-.4 1.6.4 1.6m11.1 16.2s-1.3-6.6-1.4-8.5c-.1-1.9-1.7-7.2-2.3-8.4m4.9 17.2s-1.6-8.1-1.6-9.4c0-1.3-1.1-5.9-2.3-7.8m5.2 17.4s-1.5-5.8-1.6-9c-.1-3.2-2.3-8.4-2.3-8.4m5 17.6s-1.5-6.5-1.6-8.9c-.1-2.5-2.3-8.4-2.5-8.7m5.4 17.8s-1.8-6.3-1.8-7.9c0-1.6-1.3-8.6-2.4-9.9m5.3 17.8s-2.1-6.7-2.1-9.7c0-3-2-8.2-2-8.2m3.6 9.7s-2.1-9.1-2.5-9.7m3.2 6.9-2.2-6.8m2.9 5.4-1.8-5.3m2.5 4.1-1.4-4.2m2.2 3.3-1.2-3.3m2.2 2.4-.8-2.4m1.7 1.7-.5-1.7m1.4 1.1-.2-1.1"/><path id="XMLID_113_" class="st7" d="M50.7 108.7c1.3-.5 2.2-.8 3-.9H32.3v.9h18.4z"/><path id="XMLID_112_" class="st4" d="m58.6 106.2-2.8-4.3H35l-3.7 4.9.6 1.1H56z"/><path id="XMLID_111_" class="st13" d="m31.1 107.1-1.4-1.5 16.8-22.2h2.2z"/><path id="XMLID_110_" class="st4" d="M66.3 93.3s-2.2-4.1-2.4-4.9l.2-.3 2.6 5.1-.4.1z"/><path id="XMLID_109_" class="st1" d="M82.3 88.1V84c-3.2 1.3-5.2 8.4-5.2 8.4l5.2-4.3z"/><path id="XMLID_108_" class="st1" d="M64.9 136.1H23.5l8.3-10.3c11.7 4.5 27.1 1.8 27.1 1.8l6 8.5z"/><path class="st14" d="M55.3 129.7c-.4 0-.6-.3-.6-.6 0-.4.3-.6.6-.6.4 0 .6.3.6.6.1.4-.2.6-.6.6zm-8.6.6c-.4 0-.6-.3-.6-.6 0-.4.3-.6.6-.6.4 0 .6.3.6.6s-.3.6-.6.6zm-10.5-1.5c-.4 0-.6-.3-.6-.6 0-.4.3-.6.6-.6.4 0 .6.3.6.6s-.3.6-.6.6zm23.3 7.3H61l-3-7.3-.8.2s0 2.1-1.8 1.9c-1.9-.1-2-1.4-2-1.4l-1 .1 2.1 6.4h1.9l-1.2-4c1.7.3 2.3-.6 2.3-.6l2 4.7zm-16.9 0 1.4-4.9c.6 1 2.3 1.3 2.3 1.3 1 .3 2.8-.7 2.8-.7l.7 4.3h1.5l-1-6.2h-1.8s-.4 2-1.9 1.7c-1.5-.3-1.8-1.9-1.8-2h-1.9l-1.8 6.6h1.5v-.1zm-13.3 0 4.3-6.3c1.2 1.6 3.5 1.1 3.5 1.1l-2.2 5.2h1.6l2.9-7-1.5-.4s-.9 1.9-2.5 1.2c0 0-.9-.4-1.1-1.9l-1.2-.4-5.9 8.5h2.1z"/><path class="st7" d="M58 106.8H31.2l2.9-3.7h21.3l2.6 3.7zm-.3-.5-1.4-2.1-2.8 2.1h4.2zm-.3-.5-1-1.4c-.2.2-.3.4-.3.6 0 .5.4.9.9.9.1 0 .2 0 .4-.1zm-21.8.1c.5 0 .9-.4.9-.9s-.4-.9-.9-.9-.9.4-.9.9c.1.5.5.9.9.9zm.7.4 3.5-2.6h-4.3l-3.4 2.6h4.2zm6.8 0 3.5-2.6h-4.3l-3.4 2.6h4.2zm-.7-.4c.5 0 .9-.4.9-.9s-.4-.9-.9-.9-.9.4-.9.9.4.9.9.9zm7.7.4 3.5-2.6h-4.3l-3.4 2.6h4.2zm-.7-.4c.5 0 .9-.4.9-.9s-.4-.9-.9-.9-.9.4-.9.9c.1.5.5.9.9.9z"/><path class="st3" d="M60.8 104.9s.8 3.4-1.1 4.3c0 0-1.9.9-3.9-1.1 0 0-.4-.3.4-.7.8-.3 4.6-2.5 4.6-2.5zm-.3 1.2s-.4 1-.7.8c-.3-.2-.5.1-.4.5.1.3-.4.5-.9.3s-.5 0-.5.3-.2.4-.6.1c0 0-.8-.5-1 .1-.2.6 1.9.9 2.8.6 1-.3 1.9-2 1.3-2.7z"/><path id="XMLID_90_" class="st4" d="m69.3 99.2.1-.1c0-.1.1-.2.3-.2-5.4-6.1-7.4-14.6-7.4-14.6l-.5.1c.7 6.3 6.5 13.6 7.5 14.8z"/><path class="st4" d="M81.9 80.5v-2.1c-1.1.1-2 1-2 2.1 0 .6.2 1.1.6 1.5.8-1 1.3-1.5 1.4-1.5zM71.6 97.4l2.8-2.2v-.5c-.2-.1-.5-.1-.7-.1-1.2 0-2.1 1-2.1 2.1-.1.2-.1.4 0 .7zm6.1-11.7c-.6-.4-1-1-1-1.8 0-1.2 1-2.1 2.1-2.1.5 0 1 .2 1.4.5-.7.9-1.6 2.1-2.5 3.4zm-2.1 4c.6-1.3 1.3-2.6 2-3.7-.3-.2-.7-.3-1.2-.3-1.2 0-2.1 1-2.1 2.1 0 .9.5 1.6 1.3 1.9zm-1.2 4.4c.1-1.4.5-2.8 1.1-4.1-.2-.1-.4-.1-.6-.1-1.2 0-2.1 1-2.1 2.1-.1 1.1.6 1.9 1.6 2.1zM80 78.8s-1.3-.7-2.7-.4l-.6-1.2 3-2.5.7.6s-.3 3 0 3.2c.2.2-.4.3-.4.3zm-3.6 3.6s-1.9-.4-2.7.4l-1.1-1.1 2.2-2.7 1.2.4s-.2 1.9.1 2.1c.3.2.3.9.3.9zm-2.2 4.2s-1.6-.2-2.1.3-.9.8-.9.8l-1.2-1 1.3-2.9 1.7.2v1.1c-.1 0 1.3 1.5 1.2 1.5zm-4.9 10.9s1.2-1 1.4-1l.1-.2s-1.2-.9-1.3-1.7c-.1-.8-.2-1-.2-1h-1.2l-.2 1.7 1.4 2.2zm3.2-5.9s-2.1.1-2.7 1.1l-.2.1-1.1-.8s.5-2.9.6-3.1c.2-.2 1.6-.2 1.6-.2s.7 2.6 1.8 2.9z"/><path id="XMLID_79_" class="st4" d="M82.3 83.5V72.3l-.3.1c-12.7 6.3-15.2 21.3-15.2 21.3l.8 1.1s-.4-.6 1.3-6.8c2.9-9.7 12.9-15 12.9-15v8.4c-6.2 6.8-6.9 11.5-7 13.3l1.6-1.3c.3-5.4 4.7-9 5.9-9.9z"/><path class="st4" d="M69.6 60.5c-.3-.7-.7-1.3-.9-1.9h-.1c-.7 0-1.2.5-1.2 1.2S68 61 68.6 61c.4 0 .8-.2 1-.5zm1.2 3c-.2-.6-.4-1.2-.7-1.8-.1 0-.2-.1-.4-.1-.7 0-1.2.5-1.2 1.2S69 64 69.7 64c.5 0 .9-.2 1.1-.5zm.9 3.1c-.1-.7-.3-1.3-.5-1.9-.1-.1-.3-.1-.4-.1-.7 0-1.2.5-1.2 1.2s.5 1.2 1.2 1.2c.3 0 .6-.1.9-.4zm.4 3.6c0-.8-.1-1.6-.2-2.3h-.2c-.7 0-1.2.5-1.2 1.2s.5 1.2 1.2 1.2c.1-.1.3-.1.4-.1zm-.1 3.2c.1-.7.1-1.5.1-2.2-.1-.1-.3-.2-.5-.2-.7 0-1.2.5-1.2 1.2s.5 1.2 1.2 1.2c.1.1.3 0 .4 0zm-.6 3.3c.2-.7.4-1.4.5-2.1-.2-.2-.5-.3-.7-.3-.7 0-1.2.5-1.2 1.2s.5 1.2 1.2 1.2c0 .1.1 0 .2 0zM70.2 80l.9-2.1c-.2-.2-.5-.3-.8-.3-.7 0-1.2.5-1.2 1.2-.1.6.4 1.2 1.1 1.2zm-1.6 2.7c.5-.7.9-1.4 1.3-2.1-.2-.1-.4-.2-.7-.2-.7 0-1.2.5-1.2 1.2-.1.5.2.9.6 1.1zm-2.2 2.7c.6-.6 1.1-1.2 1.6-1.9-.2-.2-.5-.3-.8-.3-.7 0-1.2.5-1.2 1.2-.1.4.1.7.4 1zm-2.2 2.1c.6-.5 1.2-1.1 1.7-1.6-.2-.1-.4-.2-.7-.2-.7 0-1.2.5-1.2 1.2 0 .2.1.4.2.6z"/><path class="st6" d="m79.6 86.6 2.6 1.7-2.6-1.7m-2 4.3 2.3-.7-2.3.7z"/><path id="XMLID_66_" class="st4" d="M82.3 53.6v-2.2l-5.9-4.5-.8 1.4z"/><path class="st14" d="M82.3 63.8v-1.2l-7-5.7v.7c.2.3.5.7.7 1l6.3 5.2zm0 1.9L78 62.2c-.3-.7-.7-1.4-1.1-2l5.4 4.4v1.1zm0 2-3.1-2.5c-.2-.6-.4-1.2-.7-1.7l3.8 3v1.2zm0 1.9v-1.2l-2.7-2.2c.2.5.3 1 .5 1.5l2.2 1.9zm0 1.3-1.8-1.5c-.1-.5-.2-1-.3-1.4l2.2 1.8v1.1h-.1zm0 1.5v-1.2l-1.8-1.4c.1.4.2.9.2 1.3l1.6 1.3zM74.7 50.3l1 .8v1.4l-1-.8v-1.4zm7.6 4.8v-.9l-.8-.6v.9l.8.6zm0 2.3V56l-.8-.6v1.4l.8.6zm0 2.5v-1.4l-.8-.6v1.4l.8.6zm0 1.9v-.9l-.9-.7v.9l.9.7zm-7.6-13.4v1l1 .8v-1.1l-1-.7zm-2.2 3.1.3-.4.7.6v1.4l-1-.8v-.8zm6.7 2.2 1 .8v1.4l-1-.8v-1.4zM77 52l1 .8v1.4l-1-.8V52zm2.2-.3v1.1l1 .8v-1.1l-1-.8zM77 50.1l1 .8v.9l-1-.8v-.9zm-2.3 2.5 1 .8v1.4l-1-.8v-1.4zm4.5 3.5 1 .8v1.4l-1-.8v-1.4zM77 54.4l1 .8v1.4l-1-.8v-1.4zm-2.4.5 1 .8v1l-1-.8v-1zm4.5 3.4 1 .8v1l-1-.8v-1zm-2.2-1.6 1 .8v.9l-1-.8v-.9z"/><path id="XMLID_42_" class="st4" d="M50 76.9c.8 0 1.4-.6 1.4-1.4 0-.8-.6-1.4-1.4-1.4-.8 0-1.4.6-1.4 1.4.1.8.7 1.4 1.4 1.4z"/><path id="XMLID_41_" class="st6" d="m16.8 62.3 21.9-16.9"/><path id="XMLID_40_" class="st6" d="m60.7 105.7 21.9-16.9"/><path id="XMLID_39_" class="st3" d="m23.2 47 .3.1.5 1-.1.5-.6-.8z"/><path id="XMLID_38_" class="st2" d="M9.4 6.7v2h2.5v11.2c0 .3-.1.9-.4 1.3-.2.3-.6.6-1.1.7-.6.1-2 .2-2.4-1.3-.1-.5-.1-1.6-.1-1.6H5.8s0 1.6.1 2.2c.2 1 1.4 2.7 4.1 2.7.9 0 3.5-.4 3.8-3.3.1-1.2.1-11.9.1-11.9H16v-2H9.4z"/><path id="XMLID_37_" class="st2" d="M90.8 144.9v-2h-2.5v-11.2c0-.3.1-.9.4-1.3.2-.3.6-.6 1.1-.7.6-.1 2-.2 2.4 1.3.1.5.1 1.6.1 1.6h2.1s0-1.6-.1-2.2c-.2-1-1.4-2.7-4.1-2.7-.9 0-3.5.4-3.8 3.3-.1 1.2-.1 11.9-.1 11.9h-2.1v2h6.6z"/><path id="XMLID_36_" class="st2" d="M9.8 30.3c.2 0 .2-.1.2-.6.1-.5.6-1.8 2.3-1.6.7.1 2.5 1 2.2 3.2-.1.8-.3 1.4-1.3 3.1-.2.3-2 3-3.4 5.3-1.4-2.3-3.2-5-3.4-5.3-1.1-1.6-1.2-2.3-1.3-3.1-.2-2.2 1.5-3.1 2.2-3.2 1.7-.1 2.2 1.1 2.3 1.6 0 .5 0 .6.2.6z"/><path id="XMLID_35_" class="st2" d="M88.5 121.3c-.2 0-.2.1-.2.6-.1.5-.6 1.8-2.3 1.6-.7-.1-2.5-1-2.2-3.2.1-.8.3-1.4 1.3-3.1.2-.3 2-3 3.4-5.3 1.4 2.3 3.2 5 3.4 5.3 1.1 1.6 1.2 2.3 1.3 3.1.2 2.2-1.5 3.1-2.2 3.2-1.7.1-2.2-1.1-2.3-1.6 0-.5 0-.6-.2-.6z"/><path d="M16.9 136.8h66v-122H16.4v122.1h.5v-.1zm.5-1V15.7h64.4v120.1H17.4z" style="fill:#bf1818"/><path id="XMLID_32_" class="st10" d="m17.1 126.6 2-1.4v-22.1l-2-2.1z"/><path class="st3" d="M19.1 123.5v.3l-2 1.1v-.3l2-1.1zm0-1.4v.3c-.7.4-1.3.7-2 1.1v-.3c.7-.3 1.4-.7 2-1.1zm0-1.3v.3c-.7.4-1.3.7-2 1.1v-.3c.7-.4 1.4-.8 2-1.1zm0-1.4v.3c-.7.4-1.3.7-2 1.1v-.3c.7-.4 1.4-.7 2-1.1zm0-1.3v.3c-.7.4-1.3.7-2 1.1v-.3c.7-.4 1.4-.8 2-1.1zm0-1.4v.3c-.7.4-1.3.7-2 1.1v-.3c.7-.4 1.4-.7 2-1.1zm0-1.3v.3c-.7.4-1.3.7-2 1.1v-.3c.7-.4 1.4-.8 2-1.1zm0-1.4v.3c-.7.4-1.3.7-2 1.1v-.3c.7-.4 1.4-.8 2-1.1zm0-1.4v.3c-.7.4-1.3.7-2 1.1v-.3c.7-.4 1.4-.7 2-1.1zm0-1.3v.3c-.7.4-1.3.7-2 1.1v-.3c.7-.4 1.4-.8 2-1.1zm0-1.4v.3c-.7.4-1.3.7-2 1.1v-.3c.7-.4 1.4-.7 2-1.1zm0-1.3v.3c-.7.4-1.3.7-2 1.1v-.3c.7-.4 1.4-.8 2-1.1zm0-1.4v.3c-.7.4-1.3.7-2 1.1v-.3c.7-.4 1.4-.8 2-1.1zm0-1.4v.3c-.7.4-1.3.7-2 1.1v-.3c.7-.4 1.4-.7 2-1.1zm0-1.3v.3c-.7.4-1.3.7-2 1.1v-.3c.7-.4 1.4-.8 2-1.1zm0-1.4v.3c-.7.4-1.3.7-2 1.1v-.3c.7-.4 1.4-.7 2-1.1zm-.8-.9.2.2-1.3.7v-.3l1.1-.6z"/></g></svg>