<svg xmlns="http://www.w3.org/2000/svg" viewBox="0 0 99.4 151.6" style="enable-background:new 0 0 99.4 151.6" xml:space="preserve"><style>.st1{fill-rule:evenodd;clip-rule:evenodd}.st1,.st2{fill:#e52529}</style><g id="Calque_2"><path id="XMLID_15_" d="M99.3 5.3v140.9c0 2.9-2.3 5.2-5.2 5.2H5.3c-2.9 0-5.2-2.3-5.2-5.2V5.3C.1 2.4 2.4.1 5.3.1H94c2.9 0 5.3 2.4 5.3 5.2z" style="fill:#fff;stroke:#000;stroke-width:.25;stroke-miterlimit:2.6131"/></g><g id="Calque_1"><path class="st1" d="M552.8 134.6c-3.2-4.4-4.1-8-4.1-8s-.9 3.7-4.1 8c-3.2 4.4-6.2 5.6-6.2 5.6s3 1.2 6.2 5.6c3.2 4.4 4.1 8 4.1 8s.9-3.7 4.1-8c3.2-4.4 6.2-5.6 6.2-5.6s-2.9-1.3-6.2-5.6zM510.8 134.6c-3.2-4.4-4.1-8-4.1-8s-.9 3.7-4.1 8c-3.2 4.4-6.2 5.6-6.2 5.6s3 1.2 6.2 5.6c3.2 4.4 4.1 8 4.1 8s.9-3.7 4.1-8c3.2-4.4 6.2-5.6 6.2-5.6s-3-1.3-6.2-5.6zM531.8 177.1c-3.2-4.4-4.1-8-4.1-8s-.9 3.7-4.1 8c-3.2 4.4-6.2 5.6-6.2 5.6s3 1.2 6.2 5.6c3.2 4.4 4.1 8 4.1 8s.9-3.7 4.1-8c3.2-4.4 6.2-5.6 6.2-5.6s-3-1.2-6.2-5.6zM552.8 219.7c-3.2-4.4-4.1-8-4.1-8s-.9 3.7-4.1 8c-3.2 4.4-6.2 5.6-6.2 5.6s3 1.2 6.2 5.6c3.2 4.4 4.1 8 4.1 8s.9-3.7 4.1-8c3.2-4.4 6.2-5.6 6.2-5.6s-2.9-1.3-6.2-5.6zM510.8 219.7c-3.2-4.4-4.1-8-4.1-8s-.9 3.7-4.1 8c-3.2 4.4-6.2 5.6-6.2 5.6s3 1.2 6.2 5.6c3.2 4.4 4.1 8 4.1 8s.9-3.7 4.1-8c3.2-4.4 6.2-5.6 6.2-5.6s-3-1.3-6.2-5.6z"/><path class="st2" d="M486.7 117.5h7.8v1.8h-6l-.2 3s2.8-1.6 5.5.7c.5.4 2.9 2.9 1.4 7.8-.3 1-2 3.6-5.6 3.1-.2 0-2.9-.7-3.9-3.7l1.7-.4s1.3 2.7 3.1 2.5c.9-.1 3.3-.7 3.2-4.6 0-.3 0-3.7-2.9-4.2-1-.2-2.2 0-3.9 1.7l-.8-.5.6-7.2zM568.8 247.8h-7.9V246h6l.2-3s-2.8 1.6-5.5-.7c-.5-.4-2.9-2.9-1.4-7.8.3-1 2-3.6 5.6-3.1.2 0 2.9.7 3.9 3.7l-1.7.4s-1.3-2.7-3.1-2.5c-.9.1-3.3.7-3.2 4.6 0 .3 0 3.7 2.9 4.2 1 .2 2.2 0 3.9-1.7l.8.5-.5 7.2zM490.8 137.7s1.4 4.5 4.7 6.3c0 0-3.2 1.7-4.7 6.2-1.5-4.6-4.7-6.2-4.7-6.2 3.3-1.8 4.7-6.3 4.7-6.3zM564.7 227.6s-1.4-4.5-4.7-6.3c0 0 3.2-1.7 4.7-6.2 1.5 4.6 4.7 6.2 4.7 6.2-3.3 1.8-4.7 6.3-4.7 6.3z"/><path class="st1" d="M552.8 134.6c-3.2-4.4-4.1-8-4.1-8s-.9 3.7-4.1 8c-3.2 4.4-6.2 5.6-6.2 5.6s3 1.2 6.2 5.6c3.2 4.4 4.1 8 4.1 8s.9-3.7 4.1-8c3.2-4.4 6.2-5.6 6.2-5.6s-2.9-1.3-6.2-5.6zM510.8 134.6c-3.2-4.4-4.1-8-4.1-8s-.9 3.7-4.1 8c-3.2 4.4-6.2 5.6-6.2 5.6s3 1.2 6.2 5.6c3.2 4.4 4.1 8 4.1 8s.9-3.7 4.1-8c3.2-4.4 6.2-5.6 6.2-5.6s-3-1.3-6.2-5.6zM531.8 177.1c-3.2-4.4-4.1-8-4.1-8s-.9 3.7-4.1 8c-3.2 4.4-6.2 5.6-6.2 5.6s3 1.2 6.2 5.6c3.2 4.4 4.1 8 4.1 8s.9-3.7 4.1-8c3.2-4.4 6.2-5.6 6.2-5.6s-3-1.2-6.2-5.6zM552.8 219.7c-3.2-4.4-4.1-8-4.1-8s-.9 3.7-4.1 8c-3.2 4.4-6.2 5.6-6.2 5.6s3 1.2 6.2 5.6c3.2 4.4 4.1 8 4.1 8s.9-3.7 4.1-8c3.2-4.4 6.2-5.6 6.2-5.6s-2.9-1.3-6.2-5.6zM510.8 219.7c-3.2-4.4-4.1-8-4.1-8s-.9 3.7-4.1 8c-3.2 4.4-6.2 5.6-6.2 5.6s3 1.2 6.2 5.6c3.2 4.4 4.1 8 4.1 8s.9-3.7 4.1-8c3.2-4.4 6.2-5.6 6.2-5.6s-3-1.3-6.2-5.6z"/><path class="st2" d="M486.7 117.5h7.8v1.8h-6l-.2 3s2.8-1.6 5.5.7c.5.4 2.9 2.9 1.4 7.8-.3 1-2 3.6-5.6 3.1-.2 0-2.9-.7-3.9-3.7l1.7-.4s1.3 2.7 3.1 2.5c.9-.1 3.3-.7 3.2-4.6 0-.3 0-3.7-2.9-4.2-1-.2-2.2 0-3.9 1.7l-.8-.5.6-7.2zM568.8 247.8h-7.9V246h6l.2-3s-2.8 1.6-5.5-.7c-.5-.4-2.9-2.9-1.4-7.8.3-1 2-3.6 5.6-3.1.2 0 2.9.7 3.9 3.7l-1.7.4s-1.3-2.7-3.1-2.5c-.9.1-3.3.7-3.2 4.6 0 .3 0 3.7 2.9 4.2 1 .2 2.2 0 3.9-1.7l.8.5-.5 7.2zM490.8 137.7s1.4 4.5 4.7 6.3c0 0-3.2 1.7-4.7 6.2-1.5-4.6-4.7-6.2-4.7-6.2 3.3-1.8 4.7-6.3 4.7-6.3zM564.7 227.6s-1.4-4.5-4.7-6.3c0 0 3.2-1.7 4.7-6.2 1.5 4.6 4.7 6.2 4.7 6.2-3.3 1.8-4.7 6.3-4.7 6.3z"/><path class="st1" d="M552.8 134.6c-3.2-4.4-4.1-8-4.1-8s-.9 3.7-4.1 8c-3.2 4.4-6.2 5.6-6.2 5.6s3 1.2 6.2 5.6c3.2 4.4 4.1 8 4.1 8s.9-3.7 4.1-8c3.2-4.4 6.2-5.6 6.2-5.6s-2.9-1.3-6.2-5.6zM510.8 134.6c-3.2-4.4-4.1-8-4.1-8s-.9 3.7-4.1 8c-3.2 4.4-6.2 5.6-6.2 5.6s3 1.2 6.2 5.6c3.2 4.4 4.1 8 4.1 8s.9-3.7 4.1-8c3.2-4.4 6.2-5.6 6.2-5.6s-3-1.3-6.2-5.6zM531.8 177.1c-3.2-4.4-4.1-8-4.1-8s-.9 3.7-4.1 8c-3.2 4.4-6.2 5.6-6.2 5.6s3 1.2 6.2 5.6c3.2 4.4 4.1 8 4.1 8s.9-3.7 4.1-8c3.2-4.4 6.2-5.6 6.2-5.6s-3-1.2-6.2-5.6zM552.8 219.7c-3.2-4.4-4.1-8-4.1-8s-.9 3.7-4.1 8c-3.2 4.4-6.2 5.6-6.2 5.6s3 1.2 6.2 5.6c3.2 4.4 4.1 8 4.1 8s.9-3.7 4.1-8c3.2-4.4 6.2-5.6 6.2-5.6s-2.9-1.3-6.2-5.6zM510.8 219.7c-3.2-4.4-4.1-8-4.1-8s-.9 3.7-4.1 8c-3.2 4.4-6.2 5.6-6.2 5.6s3 1.2 6.2 5.6c3.2 4.4 4.1 8 4.1 8s.9-3.7 4.1-8c3.2-4.4 6.2-5.6 6.2-5.6s-3-1.3-6.2-5.6z"/><path class="st2" d="M486.7 117.5h7.8v1.8h-6l-.2 3s2.8-1.6 5.5.7c.5.4 2.9 2.9 1.4 7.8-.3 1-2 3.6-5.6 3.1-.2 0-2.9-.7-3.9-3.7l1.7-.4s1.3 2.7 3.1 2.5c.9-.1 3.3-.7 3.2-4.6 0-.3 0-3.7-2.9-4.2-1-.2-2.2 0-3.9 1.7l-.8-.5.6-7.2zM568.8 247.8h-7.9V246h6l.2-3s-2.8 1.6-5.5-.7c-.5-.4-2.9-2.9-1.4-7.8.3-1 2-3.6 5.6-3.1.2 0 2.9.7 3.9 3.7l-1.7.4s-1.3-2.7-3.1-2.5c-.9.1-3.3.7-3.2 4.6 0 .3 0 3.7 2.9 4.2 1 .2 2.2 0 3.9-1.7l.8.5-.5 7.2zM490.8 137.7s1.4 4.5 4.7 6.3c0 0-3.2 1.7-4.7 6.2-1.5-4.6-4.7-6.2-4.7-6.2 3.3-1.8 4.7-6.3 4.7-6.3zM564.7 227.6s-1.4-4.5-4.7-6.3c0 0 3.2-1.7 4.7-6.2 1.5 4.6 4.7 6.2 4.7 6.2-3.3 1.8-4.7 6.3-4.7 6.3z"/><path id="XMLID_29_" class="st2" d="M27.8 21.6c.4 0 .3-.3.4-1.3.1-1 1.3-3.7 4.8-3.4 1.5.1 5.2 2.1 4.7 6.7-.2 1.7-.6 3-2.8 6.5-.3.5-4.1 6.3-7.1 11.1-3-4.9-6.8-10.6-7.1-11.1-2.3-3.5-2.6-4.8-2.8-6.5-.5-4.5 3.2-6.5 4.7-6.7 3.5-.3 4.7 2.4 4.8 3.4 0 1 0 1.3.4 1.3z"/><path id="XMLID_28_" class="st2" d="M71.7 21.6c.4 0 .3-.3.4-1.3.1-1 1.3-3.7 4.8-3.4 1.5.1 5.2 2.1 4.7 6.7-.2 1.7-.6 3-2.8 6.5-.3.5-4.1 6.3-7.1 11.1-3-4.9-6.8-10.6-7.1-11.1-2.3-3.5-2.6-4.8-2.8-6.5-.5-4.5 3.2-6.5 4.7-6.7 3.5-.3 4.7 2.4 4.8 3.4 0 1 0 1.3.4 1.3z"/><path id="XMLID_27_" class="st2" d="M27.8 52.7c.4 0 .3-.3.4-1.3.1-1 1.3-3.7 4.8-3.4 1.5.1 5.2 2.1 4.7 6.7-.2 1.7-.6 3-2.8 6.5-.3.5-4.1 6.3-7.1 11.1-3-4.9-6.8-10.6-7.1-11.1-2.3-3.5-2.6-4.8-2.8-6.5-.5-4.5 3.2-6.5 4.7-6.7 3.5-.3 4.7 2.4 4.8 3.4 0 1.1 0 1.3.4 1.3z"/><path id="XMLID_26_" class="st2" d="M71.7 52.7c.4 0 .3-.3.4-1.3.1-1 1.3-3.7 4.8-3.4 1.5.1 5.2 2.1 4.7 6.7-.2 1.7-.6 3-2.8 6.5-.3.5-4.1 6.3-7.1 11.1-3-4.9-6.8-10.6-7.1-11.1-2.3-3.5-2.6-4.8-2.8-6.5-.5-4.5 3.2-6.5 4.7-6.7 3.5-.3 4.7 2.4 4.8 3.4 0 1.1 0 1.3.4 1.3z"/><path id="XMLID_25_" class="st2" d="M71.7 130c-.4 0-.3.3-.4 1.3-.1 1-1.3 3.7-4.8 3.4-1.5-.1-5.2-2.1-4.7-6.7.2-1.7.6-3 2.8-6.5.3-.5 4.1-6.3 7.1-11.1 3 4.9 6.8 10.6 7.1 11.1 2.3 3.5 2.6 4.8 2.8 6.5.5 4.5-3.2 6.5-4.7 6.7-3.5.3-4.7-2.4-4.8-3.4-.1-1-.1-1.3-.4-1.3z"/><path id="XMLID_24_" class="st2" d="M27.7 130c-.4 0-.3.3-.4 1.3-.1 1-1.3 3.7-4.8 3.4-1.5-.1-5.2-2.1-4.7-6.7.2-1.7.6-3 2.8-6.5.3-.5 4.1-6.3 7.1-11.1 3 4.9 6.8 10.6 7.1 11.1 2.3 3.5 2.6 4.8 2.8 6.5.5 4.5-3.2 6.5-4.7 6.7-3.5.3-4.7-2.4-4.8-3.4 0-1 0-1.3-.4-1.3z"/><path id="XMLID_23_" class="st2" d="M71.7 98.9c-.4 0-.3.3-.4 1.3-.1 1-1.3 3.7-4.8 3.4-1.5-.1-5.2-2.1-4.7-6.7.2-1.7.6-3 2.8-6.5.3-.5 4.1-6.3 7.1-11.1 3 4.9 6.8 10.6 7.1 11.1 2.3 3.5 2.6 4.8 2.8 6.5.5 4.5-3.2 6.5-4.7 6.7-3.5.3-4.7-2.4-4.8-3.4-.1-1.1-.1-1.3-.4-1.3z"/><path id="XMLID_22_" class="st2" d="M27.7 98.9c-.4 0-.3.3-.4 1.3-.1 1-1.3 3.7-4.8 3.4-1.5-.1-5.2-2.1-4.7-6.7.2-1.7.6-3 2.8-6.5.3-.5 4.1-6.3 7.1-11.1 3 4.9 6.8 10.6 7.1 11.1 2.3 3.5 2.6 4.8 2.8 6.5.5 4.5-3.2 6.5-4.7 6.7-3.5.3-4.7-2.4-4.8-3.4 0-1.1 0-1.3-.4-1.3z"/><path id="XMLID_21_" class="st2" d="M49.7 68.3c.4 0 .3-.3.4-1.3.1-1 1.3-3.7 4.8-3.4 1.5.1 5.2 2.1 4.7 6.7-.2 1.7-.6 3-2.8 6.5-.3.5-4.1 6.3-7.1 11.1-3-4.9-6.8-10.6-7.1-11.1-2.3-3.5-2.6-4.8-2.8-6.5-.5-4.5 3.2-6.5 4.7-6.7 3.5-.3 4.7 2.4 4.8 3.4.1 1 0 1.3.4 1.3z"/><path class="st1" d="M10.1 8.6c2.1 0 3.6 1.6 3.6 4.2 0 2.5-1.6 4.1-3.2 4.1s-3.4-1.5-3.4-4c0-2.7 1.5-4.3 3-4.3zm.2-1.9C5.4 7 4.9 12 5.1 13.4c.5 4 3.7 5.2 4.3 5.3 2.7.4 4.3-1.1 4.3-1.1-.1 4.5-2.4 4.9-3.1 4.9-2.6 0-3.4-2-3.4-2l-1.6 1C6.9 23.2 8 23.8 8.8 24c2.6.6 3.9-.3 4.7-.8 2.6-1.9 2.4-8.4 2.4-9.5-.2-5.5-3.4-7-5.6-7zM89.3 143c-2.1 0-3.6-1.6-3.6-4.2 0-2.5 1.6-4.1 3.2-4.1s3.4 1.5 3.4 4c0 2.7-1.5 4.3-3 4.3zm-.2 1.9c4.9-.2 5.4-5.3 5.2-6.7-.5-4-3.7-5.2-4.3-5.3-2.7-.4-4.3 1.2-4.3 1.2.1-4.5 2.4-4.9 3.1-4.9 2.6 0 3.4 2 3.4 2l1.6-1c-1.2-1.7-2.4-2.4-3.1-2.5-2.6-.6-3.9.3-4.7.8-2.6 1.9-2.4 8.4-2.4 9.5.1 5.4 3.3 6.9 5.5 6.9z"/><path id="XMLID_16_" class="st2" d="M10.3 30.3c.2 0 .2-.1.2-.6.1-.5.6-1.8 2.3-1.6.7.1 2.5 1 2.2 3.2-.1.8-.3 1.4-1.3 3.1-.2.2-2 3-3.4 5.3-1.4-2.3-3.2-5-3.4-5.3-1.1-1.6-1.2-2.3-1.3-3.1-.2-2.2 1.5-3.1 2.2-3.2 1.7-.1 2.2 1.1 2.3 1.6.1.5.1.6.2.6z"/><path id="XMLID_14_" class="st2" d="M89.1 121.3c-.2 0-.2.1-.2.6-.1.5-.6 1.8-2.3 1.6-.7-.1-2.5-1-2.2-3.2.1-.8.3-1.4 1.3-3.1.2-.3 2-3 3.4-5.3 1.4 2.3 3.2 5 3.4 5.3 1.1 1.6 1.2 2.3 1.3 3.1.2 2.2-1.5 3.1-2.2 3.2-1.7.1-2.2-1.1-2.3-1.6-.1-.5-.1-.6-.2-.6z"/></g></svg>