<svg xmlns="http://www.w3.org/2000/svg" viewBox="0 0 99.4 151.6" style="enable-background:new 0 0 99.4 151.6" xml:space="preserve"><style>.st1{fill-rule:evenodd;clip-rule:evenodd}.st1,.st2{fill:#e52529}.st3{fill-rule:evenodd;fill:#3b160e;stroke:#231f20;stroke-width:.5669;stroke-miterlimit:2.6131}.st3,.st4{clip-rule:evenodd}.st4{fill-rule:evenodd;fill:#6fc8e5;stroke:#0d4f9e;stroke-width:.9921;stroke-miterlimit:2.6131}.st5{fill-rule:evenodd;fill:#3b160e}.st5,.st6{clip-rule:evenodd}.st6{stroke:#0d4f9e;stroke-width:1.1339;stroke-miterlimit:2.6131}.st6,.st7{fill-rule:evenodd;fill:none}.st7{clip-rule:evenodd;stroke:#0d4f9e;stroke-width:.9921;stroke-miterlimit:2.6131}.st8{fill-rule:evenodd;fill:#bf1818}.st8,.st9{clip-rule:evenodd}.st9{fill-rule:evenodd;fill:none;stroke:#0d4f9e;stroke-width:.5669;stroke-miterlimit:2.6131}.st10{fill-rule:evenodd;fill:#6fc8e5}.st10,.st11{clip-rule:evenodd}.st11{fill-rule:evenodd;fill:none;stroke:#0d4f9e;stroke-width:.4819;stroke-miterlimit:2.6131}.st12{fill-rule:evenodd;fill:#e52529;stroke:#0d4f9e;stroke-width:.5669;stroke-miterlimit:2.6131}.st12,.st13{clip-rule:evenodd}.st13{fill-rule:evenodd;fill:none;stroke:#0d4f9e;stroke-width:.8504;stroke-miterlimit:2.6131}.st14{fill-rule:evenodd;fill:none}.st14,.st15{clip-rule:evenodd;stroke:#0d4f9e;stroke-width:.7087;stroke-miterlimit:2.6131}.st15{fill-rule:evenodd;fill:#e52529}.st16{fill-rule:evenodd;fill:#3b160e}.st16,.st17{clip-rule:evenodd;stroke:#0d4f9e;stroke-width:.8504;stroke-miterlimit:2.6131}.st17{fill-rule:evenodd;fill:#e52529}.st18{fill-rule:evenodd;clip-rule:evenodd;fill:#fff}</style><g id="Calque_2"><path id="XMLID_15_" d="M99.3 5.3v140.9c0 2.9-2.3 5.2-5.2 5.2H5.3c-2.9 0-5.2-2.3-5.2-5.2V5.3C.1 2.4 2.4.1 5.3.1H94c2.9 0 5.3 2.4 5.3 5.2z" style="fill:#fff;stroke:#000;stroke-width:.25;stroke-miterlimit:2.6131"/></g><g id="Calque_1"><path class="st1" d="M552.8 134.6c-3.2-4.4-4.1-8-4.1-8s-.9 3.7-4.1 8c-3.2 4.4-6.2 5.6-6.2 5.6s3 1.2 6.2 5.6c3.2 4.4 4.1 8 4.1 8s.9-3.7 4.1-8c3.2-4.4 6.2-5.6 6.2-5.6s-2.9-1.3-6.2-5.6zM510.8 134.6c-3.2-4.4-4.1-8-4.1-8s-.9 3.7-4.1 8c-3.2 4.4-6.2 5.6-6.2 5.6s3 1.2 6.2 5.6c3.2 4.4 4.1 8 4.1 8s.9-3.7 4.1-8c3.2-4.4 6.2-5.6 6.2-5.6s-3-1.3-6.2-5.6zM531.8 177.1c-3.2-4.4-4.1-8-4.1-8s-.9 3.7-4.1 8c-3.2 4.4-6.2 5.6-6.2 5.6s3 1.2 6.2 5.6c3.2 4.4 4.1 8 4.1 8s.9-3.7 4.1-8c3.2-4.4 6.2-5.6 6.2-5.6s-3-1.2-6.2-5.6zM552.8 219.7c-3.2-4.4-4.1-8-4.1-8s-.9 3.7-4.1 8c-3.2 4.4-6.2 5.6-6.2 5.6s3 1.2 6.2 5.6c3.2 4.4 4.1 8 4.1 8s.9-3.7 4.1-8c3.2-4.4 6.2-5.6 6.2-5.6s-2.9-1.3-6.2-5.6zM510.8 219.7c-3.2-4.4-4.1-8-4.1-8s-.9 3.7-4.1 8c-3.2 4.4-6.2 5.6-6.2 5.6s3 1.2 6.2 5.6c3.2 4.4 4.1 8 4.1 8s.9-3.7 4.1-8c3.2-4.4 6.2-5.6 6.2-5.6s-3-1.3-6.2-5.6z"/><path class="st2" d="M486.7 117.5h7.8v1.8h-6l-.2 3s2.8-1.6 5.5.7c.5.4 2.9 2.9 1.4 7.8-.3 1-2 3.6-5.6 3.1-.2 0-2.9-.7-3.9-3.7l1.7-.4s1.3 2.7 3.1 2.5c.9-.1 3.3-.7 3.2-4.6 0-.3 0-3.7-2.9-4.2-1-.2-2.2 0-3.9 1.7l-.8-.5.6-7.2zM568.8 247.8h-7.9V246h6l.2-3s-2.8 1.6-5.5-.7c-.5-.4-2.9-2.9-1.4-7.8.3-1 2-3.6 5.6-3.1.2 0 2.9.7 3.9 3.7l-1.7.4s-1.3-2.7-3.1-2.5c-.9.1-3.3.7-3.2 4.6 0 .3 0 3.7 2.9 4.2 1 .2 2.2 0 3.9-1.7l.8.5-.5 7.2zM490.8 137.7s1.4 4.5 4.7 6.3c0 0-3.2 1.7-4.7 6.2-1.5-4.6-4.7-6.2-4.7-6.2 3.3-1.8 4.7-6.3 4.7-6.3zM564.7 227.6s-1.4-4.5-4.7-6.3c0 0 3.2-1.7 4.7-6.2 1.5 4.6 4.7 6.2 4.7 6.2-3.3 1.8-4.7 6.3-4.7 6.3z"/><path class="st1" d="M552.8 134.6c-3.2-4.4-4.1-8-4.1-8s-.9 3.7-4.1 8c-3.2 4.4-6.2 5.6-6.2 5.6s3 1.2 6.2 5.6c3.2 4.4 4.1 8 4.1 8s.9-3.7 4.1-8c3.2-4.4 6.2-5.6 6.2-5.6s-2.9-1.3-6.2-5.6zM510.8 134.6c-3.2-4.4-4.1-8-4.1-8s-.9 3.7-4.1 8c-3.2 4.4-6.2 5.6-6.2 5.6s3 1.2 6.2 5.6c3.2 4.4 4.1 8 4.1 8s.9-3.7 4.1-8c3.2-4.4 6.2-5.6 6.2-5.6s-3-1.3-6.2-5.6zM531.8 177.1c-3.2-4.4-4.1-8-4.1-8s-.9 3.7-4.1 8c-3.2 4.4-6.2 5.6-6.2 5.6s3 1.2 6.2 5.6c3.2 4.4 4.1 8 4.1 8s.9-3.7 4.1-8c3.2-4.4 6.2-5.6 6.2-5.6s-3-1.2-6.2-5.6zM552.8 219.7c-3.2-4.4-4.1-8-4.1-8s-.9 3.7-4.1 8c-3.2 4.4-6.2 5.6-6.2 5.6s3 1.2 6.2 5.6c3.2 4.4 4.1 8 4.1 8s.9-3.7 4.1-8c3.2-4.4 6.2-5.6 6.2-5.6s-2.9-1.3-6.2-5.6zM510.8 219.7c-3.2-4.4-4.1-8-4.1-8s-.9 3.7-4.1 8c-3.2 4.4-6.2 5.6-6.2 5.6s3 1.2 6.2 5.6c3.2 4.4 4.1 8 4.1 8s.9-3.7 4.1-8c3.2-4.4 6.2-5.6 6.2-5.6s-3-1.3-6.2-5.6z"/><path class="st2" d="M486.7 117.5h7.8v1.8h-6l-.2 3s2.8-1.6 5.5.7c.5.4 2.9 2.9 1.4 7.8-.3 1-2 3.6-5.6 3.1-.2 0-2.9-.7-3.9-3.7l1.7-.4s1.3 2.7 3.1 2.5c.9-.1 3.3-.7 3.2-4.6 0-.3 0-3.7-2.9-4.2-1-.2-2.2 0-3.9 1.7l-.8-.5.6-7.2zM568.8 247.8h-7.9V246h6l.2-3s-2.8 1.6-5.5-.7c-.5-.4-2.9-2.9-1.4-7.8.3-1 2-3.6 5.6-3.1.2 0 2.9.7 3.9 3.7l-1.7.4s-1.3-2.7-3.1-2.5c-.9.1-3.3.7-3.2 4.6 0 .3 0 3.7 2.9 4.2 1 .2 2.2 0 3.9-1.7l.8.5-.5 7.2zM490.8 137.7s1.4 4.5 4.7 6.3c0 0-3.2 1.7-4.7 6.2-1.5-4.6-4.7-6.2-4.7-6.2 3.3-1.8 4.7-6.3 4.7-6.3zM564.7 227.6s-1.4-4.5-4.7-6.3c0 0 3.2-1.7 4.7-6.2 1.5 4.6 4.7 6.2 4.7 6.2-3.3 1.8-4.7 6.3-4.7 6.3z"/><path class="st1" d="M552.8 134.6c-3.2-4.4-4.1-8-4.1-8s-.9 3.7-4.1 8c-3.2 4.4-6.2 5.6-6.2 5.6s3 1.2 6.2 5.6c3.2 4.4 4.1 8 4.1 8s.9-3.7 4.1-8c3.2-4.4 6.2-5.6 6.2-5.6s-2.9-1.3-6.2-5.6zM510.8 134.6c-3.2-4.4-4.1-8-4.1-8s-.9 3.7-4.1 8c-3.2 4.4-6.2 5.6-6.2 5.6s3 1.2 6.2 5.6c3.2 4.4 4.1 8 4.1 8s.9-3.7 4.1-8c3.2-4.4 6.2-5.6 6.2-5.6s-3-1.3-6.2-5.6zM531.8 177.1c-3.2-4.4-4.1-8-4.1-8s-.9 3.7-4.1 8c-3.2 4.4-6.2 5.6-6.2 5.6s3 1.2 6.2 5.6c3.2 4.4 4.1 8 4.1 8s.9-3.7 4.1-8c3.2-4.4 6.2-5.6 6.2-5.6s-3-1.2-6.2-5.6zM552.8 219.7c-3.2-4.4-4.1-8-4.1-8s-.9 3.7-4.1 8c-3.2 4.4-6.2 5.6-6.2 5.6s3 1.2 6.2 5.6c3.2 4.4 4.1 8 4.1 8s.9-3.7 4.1-8c3.2-4.4 6.2-5.6 6.2-5.6s-2.9-1.3-6.2-5.6zM510.8 219.7c-3.2-4.4-4.1-8-4.1-8s-.9 3.7-4.1 8c-3.2 4.4-6.2 5.6-6.2 5.6s3 1.2 6.2 5.6c3.2 4.4 4.1 8 4.1 8s.9-3.7 4.1-8c3.2-4.4 6.2-5.6 6.2-5.6s-3-1.3-6.2-5.6z"/><path class="st2" d="M486.7 117.5h7.8v1.8h-6l-.2 3s2.8-1.6 5.5.7c.5.4 2.9 2.9 1.4 7.8-.3 1-2 3.6-5.6 3.1-.2 0-2.9-.7-3.9-3.7l1.7-.4s1.3 2.7 3.1 2.5c.9-.1 3.3-.7 3.2-4.6 0-.3 0-3.7-2.9-4.2-1-.2-2.2 0-3.9 1.7l-.8-.5.6-7.2zM568.8 247.8h-7.9V246h6l.2-3s-2.8 1.6-5.5-.7c-.5-.4-2.9-2.9-1.4-7.8.3-1 2-3.6 5.6-3.1.2 0 2.9.7 3.9 3.7l-1.7.4s-1.3-2.7-3.1-2.5c-.9.1-3.3.7-3.2 4.6 0 .3 0 3.7 2.9 4.2 1 .2 2.2 0 3.9-1.7l.8.5-.5 7.2zM490.8 137.7s1.4 4.5 4.7 6.3c0 0-3.2 1.7-4.7 6.2-1.5-4.6-4.7-6.2-4.7-6.2 3.3-1.8 4.7-6.3 4.7-6.3zM564.7 227.6s-1.4-4.5-4.7-6.3c0 0 3.2-1.7 4.7-6.2 1.5 4.6 4.7 6.2 4.7 6.2-3.3 1.8-4.7 6.3-4.7 6.3z"/><path id="XMLID_358_" class="st1" d="M9.5 29.4c0 .3.1.6.1.9 0 .5.4.8.6 0 0-.2.1-.4.2-.7.4-2.2 3.7-1.8 4.1 0 .4 1.8-.2 3.2-1.8 5.3-1.6 2-2.4 3.4-2.8 4.6-.3-1.6-3.3-5.2-4.1-6.9-.8-1.7-.5-3.8.8-4.4 1.2-.4 2.7.2 2.9 1.2z"/><path id="XMLID_357_" class="st1" d="M89.9 122.1c0-.3-.1-.6-.2-.9 0-.5-.4-.8-.6 0 0 .2-.1.4-.2.7-.4 2.2-3.7 1.8-4.1 0-.4-1.8.2-3.2 1.8-5.3 1.6-2 2.4-3.4 2.8-4.6.3 1.6 3.3 5.2 4.1 6.9.8 1.7.5 3.8-.8 4.4-1.1.4-2.6-.2-2.8-1.2z"/><path id="XMLID_356_" class="st3" d="M64.6 67c1.4-5.5 2.8-9.9 6.4-13.8l-.7-1.4-7.5 2.8-1 13.2c.7-.7 1.7-.7 2.8-.8z"/><path id="XMLID_355_" class="st3" d="M34.8 84.1c-1.4 5.5-2.6 10.2-6.5 14.2l.8 1.6 7.5-2.8 1-13.7c-.8.7-1.7.7-2.8.7z"/><path id="XMLID_354_" class="st1" d="M27.7 23.6c.1.5.2 1.1.3 1.6.1.9.8 1.4 1.1.1.1-.3.2-.8.3-1.4.8-4.2 6.9-3.4 7.6.1.7 3.4-.3 6.2-3.3 10.1-3 3.9-4.4 6.4-5.1 8.8-.6-3.1-6.2-9.9-7.7-13.1-1.5-3.1-1-7.2 1.4-8.3 2.2-1 5.1.1 5.4 2.1z"/><path id="XMLID_353_" class="st4" d="M78 15.3c-1.2 7.5-.5 15.1 1.5 21.9-2.4-.6-4.7-.7-6.7.1h.1l-7.5-22H78z"/><path id="XMLID_352_" class="st5" d="M42 40c.1-5.3 3.4-8.9 4.6-10.2-.2-1.9-.3-4.2-.4-6.3-3.8 2.2-9.9 10.5-9.9 19.8L42 40z"/><path id="XMLID_351_" class="st6" d="M47.6 15.3c0 .1-.7 1.6-1.8 1.5"/><path id="XMLID_350_" class="st6" d="M57.8 15.3c0 .2 1.5 1.7 3.3 1.7"/><path id="XMLID_349_" class="st6" d="M49.1 15.3s-2 2.7-3.3 2.8"/><path id="XMLID_348_" class="st6" d="M56.1 15.4s2.9 3.1 5.3 3.2"/><path id="XMLID_347_" class="st6" d="M50.3 15.3c0 .4-3.1 4.1-4.4 4"/><path id="XMLID_346_" class="st6" d="M54.7 15.3c.7 1.9 3.8 4.7 7 4.8"/><path id="XMLID_345_" class="st6" d="M51.8 15.3c-.1.6-3.3 4.8-5.8 5.3"/><path id="XMLID_344_" class="st6" d="M53.4 15.3c.4 2.1 5.1 6.3 8.6 6.1"/><path id="XMLID_343_" class="st7" d="M62.9 25.1c-.3 0-2.3 2.7-1.2 5.7 1.1 3 2.2 3.6 3.4 4.1"/><path id="XMLID_342_" class="st7" d="M63.4 27.1s-.7 1.3-.5 2.9c.2 1.5 1 2 1.7 2.6"/><path id="XMLID_341_" class="st7" d="M65.7 37.9s-.7 1.5-.5 3c.2 1.5 1.3 2.5 2.1 3.1"/><path id="XMLID_340_" class="st7" d="M48.2 35.5c-.6.5-1 1.4-1 2.2"/><path id="XMLID_339_" class="st7" d="M47.7 34.5c-.6.3-2 2.2-1.8 3.8"/><path id="XMLID_338_" class="st7" d="M47.2 32.7c-1.4 1.1-3.2 3.7-3.2 6.5"/><path id="XMLID_337_" class="st5" d="M71.1 15.4c-.2.7-.8 1.3-1.6 1.4-.8.1-1.9-.5-2.6-1.3.2-.1.5 0 .7-.1.4.3 1 .6 1.4.6.3 0 .7-.2.9-.8.3.1 1 .2 1.2.2z"/><path id="XMLID_336_" class="st5" d="M68.1 18.4c0 .1 1.6-.9 2.9-.6-.3.6-1.2 1.2-2.7 1.1 0 .5.8 1.1.5 2.1-1-.6-.7-1.6-.9-2.3-.4-.6-.9-1.3-.8-2.2.5.4.9 1 1 1.9z"/><path id="XMLID_335_" class="st5" d="M70.8 26.7c0 .1 1.6-.9 2.9-.6-.3.6-1.2 1.2-2.7 1.1 0 .5.8 1.1.5 2.1-.9-.6-.7-1.6-.9-2.3-.4-.6-.9-1.3-.8-2.2.5.4 1 1.1 1 1.9z"/><path id="XMLID_334_" class="st5" d="M73.6 34.9c0 .1 1.6-.9 2.9-.6-.3.6-1.3 1.2-2.7 1.1-.6-.2-1.2-1.6-1.1-2.3.4.3.9 1 .9 1.8z"/><circle id="XMLID_333_" class="st5" cx="73.5" cy="21.9" r=".7"/><circle id="XMLID_332_" class="st5" cx="76.3" cy="30.3" r=".7"/><path id="XMLID_331_" class="st5" d="M71.3 20.2c.7.4.6.9.5 1.2-.1.2.8 0 .7-1-.1-1-1.3-1.8-2-1-.8.8-1.3 1.6-1.5 3.7.8.9 1.7 2.2 3 2.4 1.3.2 1.8-1 1.6-1.7-.3-.7-1-.8-.9-.6.1.2.2 1.2-.6 1.4-.8.2-2.2-.9-2.4-1.2-.1-.3 1-.7 1.1-.4.1.3.2.4.2.9.7-.5.7-1 .1-1.5 0 0 .5-1-.8-1.2.2.5.3.8-.1 1-.4.3-1 .6-.7-.3.3-.8 1.1-2.1 1.8-1.7z"/><path id="XMLID_330_" class="st5" d="M74.1 28.5c.7.3.6.9.5 1.2-.1.2.8 0 .7-1-.1-1-1.3-1.8-2-1-.8.8-1.3 1.6-1.5 3.7.8.9 1.7 2.2 3 2.4 1.3.2 1.8-1 1.6-1.7-.3-.7-1-.8-.9-.6.1.2.2 1.2-.6 1.4-.8.2-2.2-.9-2.4-1.2-.1-.3 1-.7 1.1-.4.1.3.1.4.2.9.7-.5.7-1 .1-1.5 0 0 .5-1-.8-1.2.2.5.3.8-.1 1-.4.3-1 .6-.7-.3.3-.8 1.1-2.1 1.8-1.7z"/><path id="XMLID_329_" class="st8" d="M24 104.3c-.3-.9-1-1.6-1.9-1.6s-1.7.7-1.9 1.6h-1.3v1.4c-.8.3-1.3 1.1-1.3 1.9 0 .8.5 1.6 1.3 1.9v1.7h1.8c.4.6 1 1 1.8 1 .7 0 1.4-.4 1.8-1h1.3v-1.8c.9-.2 1.6-1 1.6-2 0-.9-.7-1.8-1.6-2v-1H24z"/><path id="XMLID_328_" class="st9" d="M22.7 103s.1-5.3.1-6.7c0-1.4-.3-3-.3-3"/><path id="XMLID_327_" class="st9" d="m21.3 103.2.2-9.8"/><path id="XMLID_326_" class="st10" d="M21.4 93.3v4.6l-3.2 4.4s-.5-2.5-.2-4.2c.4-1.7 1.8-4.6 3.4-4.8z"/><path id="XMLID_325_" class="st10" d="M22.7 93.4c1.1.2 1.6.8 2.3 1.5.9.8 1.7 1.4 1.9 2.4.2 1 .4 1.4.4 1.4-.1 0-1.2.2-2.6-1-1.4-1.2-1.6-1.5-2-1.8v-2.5z"/><path id="XMLID_324_" class="st9" d="M22.8 95.9c.4.3.6.6 2 1.8 1.4 1.2 2.5 1 2.6 1 .1 0-.2-.4-.4-1.4-.2-1-1-1.6-1.9-2.4-.9-.8-1.8-1.6-3.5-1.6s-3.2 3-3.5 4.7c-.4 1.7.2 4.2.2 4.2l3.3-4.5"/><path id="XMLID_323_" class="st8" d="M25.6 96.9s-1.9-1.4-2.9-1.7v-.8c-.1-.2 2.7 1.3 2.9 2.5z"/><path id="XMLID_322_" class="st8" d="M19.2 99.1s1-2.6 2.3-3.8v-.8c.1-.2-2.5 2.6-2.3 4.6z"/><path class="st8" d="M46.2 22.1s2.5-.7 3.5-.3c1.1.4 2.4 1.6 2.2 3-.2 1.4-1 4.8-1.2 5.6-.2.8.4.8 1 1.2.3.2.5 0 .5-.3s.9-.5 1.3-.2c.9.6 1.2.5 1.4.4.3-.1.7-.3.3-.9-.4-.7.7.4.3 1.1-.4.7-.8.7-1.6.2-.8-.4-1.5-.4-1.5.4s-2-1-2-.9c0 .1-.4-.8-.2-1.6.3-.8.5-2.4.5-2.4s-.6.5-1.2.9c-.5.4.7-1.3.7-1.3s.5-.8-.6-.4-2.8.1-3.3-.4l-.1-4.1zm.9 1.3c1.3-.8 3.9.5 3.9.5s-.1-1.1-1.2-1.4c-1.1-.3-1.5-.2-2.4.1-.9.4-.3.8-.3.8zm-.1 1.2c1.5-1.2 4 .3 4 .4.1.1.2.1.3-.4 0-.3-.9-.6-1.6-.7-.7-.1-1.4-.2-2 0-.7.1-.7.7-.7.7zm7.4-1.5c.8-1.3 5.3-.2 6.3.8-.8-1.2-3.5-2.1-4.3-2.2-.8 0-1.8-.1-2.5.7-.7.9.5.9.5.7zm.3 1.6c1.2-2 5.1-.8 5.9.4-.7-1.1-2.8-1.8-3.6-1.8-.8 0-2.1 0-2.7.7-.6.5.4.8.4.7zm-.1 0s0 1.5-.6 1.8c-.4.2.6 0 .8.1l2.5 1.6.1-.1-1.8-1.4s-.2-.3.5-.3 1.2.2 1.8.1c.7-.1 1.6-.7 1.6-.7s.4-.4 1 0c.2-.3-.1-.4-.4-.6-.5-.4-1.1-.8-1.7-.9-1.2-.1-2.2-.4-3.8.4zm-7.3.5s-.4 0-.3.3c.1.4.1.6.2.6s.2.2.5.1c-.1-.2-.3-.7-.4-1zm2.9.1c0 .3-.1.6-.3.8.5 0 .8-.4.9-.6.2-.3-.6-.2-.6-.2zm-1.8-.2-.5.2s.2.9.8 1c.6.1 1.2-.3 1.2-1h-.5s-.1.4-.4.4c-.5 0-.6-.5-.6-.6zm8.3 0c0 .1 0 .7.6.7.5 0 .5-.3.5-.5.1-.2.5-.3.5.1-.1 1-.8 1.1-1.4 1-.6-.1-.7-1.2-.7-1.2l.5-.1zm-.9.3c0-.1-.6-.3-.6.2 0 .4-.1.4 0 .5.1.1.4.1.6.1v-.8zm3-.2.5.5c-.2.2-.6.4-.8.3.1-.2.3-.5.3-.8zm-8.4 8.6c0 .4.1 1 .4 1.3.1.1.6-.1.9-.2.3-.2 1.3.8 2 .3.6-.4 1.3-.2 1.3-.2.2 0 .4.1.5.2h.2l-.1-1.2s-.3-.2-.6 0-.7.3-1.4-.1c-.3-.2-.6.2-1 .2-.2 0-.6-.2-.8-.3-.6.2-1.4.7-1.4 0zm4 1.8c-.3.3-.5.6-1.3.7-.8 0-1.4-.6-1.4-.6s.5.2 1.2.3c.7 0 1.5-.4 1.5-.4zm-2.1 1.9c.3-.2.6-.2 1-.2.6.1 1.2.3 1.2.3s-.7-.6-1.5-.5c-.4 0-.8 0-1 .2-.3.3.1.3.3.2z"/><path id="XMLID_306_" class="st5" d="m17.2 58.3 12-9.9c1.8 1.9 7.4 5.7 9.6 6.7-2.8 2.5-6.7 4.7-8.9 12.2-2.2 7.5-1.3 9.1-2.1 14.4-.6 4.1.2-.9-4.9.1-.9.2-2.5 1.3-3.8 1.7-1.3.4-1.8.7-1.8.9V58.3z"/><path id="XMLID_305_" class="st11" d="M38.7 55.1c-2.8 2.5-6.7 4.7-8.9 12.2-2.2 7.5-1.3 9.1-2.1 14.4l-.3 1.5"/><path class="st5" d="m61.9 42.3-.2-.8c-.6.2-1.3.3-2.1.4l.2.8c.7-.2 1.4-.3 2.1-.4zm.7-1.1.2.8c.3-.1.5-.2.8-.3l-.2-.8c-.2.1-.5.2-.8.3zm-17-1.5c-.7-.3-1.2-.5-1.2-.5l-.7.5c0 .1.6.4 1.6.8l.3-.8zm2.6 1c-.6-.2-1.2-.4-1.7-.7l-.3.8c.5.2 1.1.5 1.7.7l.3-.8zm2.4.7c-.5-.1-1-.3-1.6-.4l-.3.8c.6.2 1.2.4 1.7.5l.2-.9zm.8.2h.3c.4.1 1 .1 1.5.2v.8c-.6 0-1.1-.1-1.6-.1h-.3l.1-.9zm4.9.4c-.8 0-1.6 0-2.3-.1v.8c.7 0 1.5.1 2.3.1V42zm2.6-.1c-.6 0-1.2.1-1.8.1l.1.8c.6 0 1.3 0 1.9-.1l-.2-.8z"/><path id="XMLID_296_" class="st10" d="M31.8 46.7s9.3 7.8 19.3 8.5c10 .6 15.5-1.9 19-3.2.3-3.4-2.5-5.5-5.2-7.5-.8-.6-1.5-2.9-1.7-4.3-2.7 1.5-8.6 1.3-11.4.9-2.8-.4-7.1-2.4-7.1-2.4l-12.9 8z"/><path id="XMLID_295_" class="st1" d="M31.5 46.6s4.4 3.6 10.3 6.1l.3 2c-4.3-1.7-8.5-4.1-11.6-6.8l1-1.3z"/><path class="st5" d="M66.2 51.4c.9-.3 1.7-.6 2.4-.8l-1.5-1.1-.9 1.9zm-7.4 1.5c1.3-.1 2.5-.3 3.6-.5l-2-1.8-1.6 2.3zm-7.2.1c1.2.1 2.3.1 3.3.1l-1.6-2-1.7 1.9zM44 51.5c1.3.4 2.6.8 3.9 1.1l-1.4-2.8-2.5 1.7zm-6.4-3c1 .6 2.1 1.1 3.3 1.7l-.7-2.7-2.6 1zM33 45.6c.5.4 1.1.8 1.8 1.3l-.1-2.2-1.7.9z"/><path class="st5" d="M51.5 45.2h-.2c-.3 0-.6-.1-.9-.1 0 .2-.1.3-.1.5l-3.1 2-1.8-3.4c-.1 0 0-.3 0-.5-.2-.1-.3-.1-.5-.2-.2.3-.3.4-.3.4l-3.3 1.3-1-3.1-.7.4.9 3.2-3.9 1.6-.2-3.4-.9.4.1 3.2c.3.2.7.4 1.1.7l4-1.6 1.1 4.2c.3.1.6.3 1 .4l4.1-2.5 2.5 4.3c.4.1.8.1 1.2.1l3-3.2 2.5 3.3c.4 0 .8 0 1.2-.1l2.8-3.7 3.8 2.7 1.2-.3 1.6-3.6 2.4 1.6-.3-1.3-1.8-1.2.7-1.4-.9-.1-.4 1.1-3.4-2.3c-.3.1-.6.2-.8.2L60 48.2l-2.9-2.5c-.3 0-.6 0-.9.1l-2.5 2.7-2-2.8c-.1 0-.2-.2-.2-.5zm5.2 2.6c.6 0 1.1.5 1.1 1.1 0 .6-.5 1.1-1.1 1.1-.6 0-1.1-.5-1.1-1.1 0-.6.5-1.1 1.1-1.1zm6.8-1c.6 0 1.1.5 1.1 1.1 0 .6-.5 1.1-1.1 1.1-.6 0-1.1-.5-1.1-1.1 0-.6.5-1.1 1.1-1.1zm-13 .8c.6 0 1.1.5 1.1 1.1 0 .6-.5 1.1-1.1 1.1-.6 0-1.1-.5-1.1-1.1 0-.6.5-1.1 1.1-1.1zm-6.3-1.5c.6 0 1.1.5 1.1 1.1 0 .6-.5 1.1-1.1 1.1-.6 0-1.1-.5-1.1-1.1-.1-.6.4-1.1 1.1-1.1zm-5.8-2.6c.6 0 1.1.5 1.1 1.1 0 .6-.5 1.1-1.1 1.1-.6 0-1.1-.5-1.1-1.1 0-.6.5-1.1 1.1-1.1zm3.1 2.6 3.4-1.4 1.6 3-3.8 2.3-1.2-3.9zm6.1 2.1 3.2-2 2.1 3-3.1 3.1-2.2-4.1zm6.5.9 2.3-2.6 2.9 2.3-2.8 3.7-2.4-3.4zm6.5-.6 2.3-3.1 3.1 2.1-1.7 3.7-3.7-2.7zM58 45.4c1.1-.1 2.1-.2 3-.3l.1.1-1.3 2-1.5-1.5c-.1-.2-.2-.3-.3-.3zm-5.7-.1c.9.1 1.9.1 2.8.1 0 .1-.1.2-.2.4l-1.2 1.4-1.1-1.4c-.2-.2-.3-.4-.3-.5zm-5.5-1.1c.8.3 1.7.5 2.6.7l-.3.4-1.5 1.1-.7-1.7c-.1-.2-.1-.4-.1-.5zm-5.1-2.3c.6.3 1.3.7 2.3 1.1-.1.2-.2.3-.3.4l-1.7.9-.4-1.8c0-.2 0-.4.1-.6z"/><path id="XMLID_274_" class="st8" d="M46.9 56.9s-1.4 1.5-.7 3.5 1.3 3.1 1.3 3.1-.4.3-.6.6c-.4.4-.3.8.2.6.8-.3.4-.9 1.6-.1 1.2.7 2.9 1.2 3.5 3 .6 1.8-1.6 4.3-3.5 2.1-1.9-2.2-.5-3.2-.4-3.3.3-.3.2.3.9.4.7.1.9-.8.3-1-.6-.2-1.9-.1-2.1 1.3-.2 1.4.3 2.2 1.3 3.1 1.1.9 2.3.8 2.9.8.3 0 .2.5.4.6.3.1.7-.7.6-1.1-.3-1.1-.1-.9.2-1.2.3-.3.2-2.2-.6-2.9-.9-.9.9-.1 1.2-.9.2-.5-.1-.7-.5-.6-.4.1-.8.2-1 .2-1.7.2-3.3-.9-4.1-2.3-.8-1.3-1.4-3.1-.6-4.7.8-1.6 1.6-2 3.4-2 1.8.1 3.4 1.9 3.6 3.7.1 1.8-1.5 3.6-2.4 2.8-.9-.8-1.7 0-1.2.8s1.4.9 2.3.6c.9-.3 2-2.3 1.9-3.4-.1-1.2-.3-2.3-.3-2.3s1.3-.1 1.3-.9-.4-1.4-1-.8c-.6.6-.4 1.1-1.2.4-.8-.7-2.4-1.3-4-1.2-1.6.1-1.8.7-2 .4-.2-.2-.2-1.1-1.2-1.3-1-.2-1.3 1.2-.6 1.1.9-.2.8.6 1.1.9z"/><path id="XMLID_273_" class="st1" d="M53.1 61.7c-.3-.2-.6-.2-1 0 0 0 .5-.6.8-.5.3 0 .5.4.2.5z"/><path id="XMLID_272_" class="st1" d="M51.3 67.2c-.2 0-.5.1-.9-.1 0 0 .4.5.7.5.4 0 .4-.5.2-.4z"/><path id="XMLID_271_" class="st1" d="M48.4 67.1c.2 0 .4.1.7-.1 0 0-.3.4-.6.4-.2.1-.3-.3-.1-.3z"/><path id="XMLID_270_" class="st1" d="M51.4 68.6c-.2 0-.5 0-.8-.4 0 0 .3.8.6.9.4.1.4-.5.2-.5z"/><path id="XMLID_269_" class="st1" d="M48.8 68.2c.2 0 .4-.2.7-.5 0 0-.1.9-.5 1.1-.5.1-.4-.6-.2-.6z"/><path id="XMLID_268_" class="st1" d="M49.7 68.8c.2-.2.2-.6.3-1.2 0 0 .6 1.1.3 1.7-.4.5-.8-.3-.6-.5z"/><path id="XMLID_267_" class="st1" d="M53.1 60.5c-.7.1-1 .4-1.4.9 0 0 .2-1.1.9-1.3.7-.3.9.2.5.4z"/><path id="XMLID_266_" class="st1" d="M52.4 59.2c-.8.2-1.2 1.3-1.4 1.9 0 0 .2-1.8.9-2.3.6-.5 1.3.1.5.4z"/><path id="XMLID_265_" class="st1" d="M51.2 58.3c-.7.5-.7 1.6-.7 2.2 0 0-.4-1.7 0-2.3.5-.7 1.4-.4.7.1z"/><path id="XMLID_264_" class="st1" d="M49 57.9c.7.1 1 .9 1.2 1.4 0 0-.2-1.4-.8-1.7-.5-.3-1.1.2-.4.3z"/><path id="XMLID_263_" class="st1" d="M48.4 59.3c.7-.1 1.2.6 1.5 1 0 0-.6-1.3-1.2-1.5-.5-.1-1 .6-.3.5z"/><path id="XMLID_262_" class="st1" d="M48.6 61.2c.6-.4 1.5.3 1.9.6 0 0-.8-1.5-1.9-1.5-1.1.1-.6 1.3 0 .9z"/><path id="XMLID_261_" class="st1" d="M48.7 62.3c.4-.3.9.2 1.2.4 0 0-.5-1-1.2-.9-.7 0-.4.8 0 .5z"/><path id="XMLID_260_" class="st7" d="M69.9 50.8s.8 2.7 2.1 3.6"/><path id="XMLID_259_" class="st8" d="m41.7 52.7 2.9 16.9c1 .1 9.4 3.8 10.2 4.8.9.6.6-.4.6-.5l-.8-.5L61 54.7l-3.9.6-4.5 17.1c-1.9-1-3.6-1.8-5.6-2.7L44.9 54l-3.2-1.3z"/><path id="XMLID_258_" class="st12" d="m55.4 74.1-.8-.7L61 54.7l1.8-.2-.8 13c-3.1.6-5.3 7.8-6.6 6.6z"/><path id="XMLID_257_" class="st9" d="m60.3 56.4 2.3-.3"/><path id="XMLID_256_" class="st9" d="m59.8 58.3 2.6-.5"/><path id="XMLID_255_" class="st5" d="M44.8 69.9c3.3 1.2 6.8 2.8 10.1 5l-.3 1.8-1.3-1.1-.5.4-1.9-2-.7.4-1.7-1.7-.5.5-2.1-1.3-.4.2c.1 0-.3-2-.7-2.2z"/><path id="XMLID_254_" class="st7" d="M38.1 55.2s2.1 1.3 4.6 1.9"/><path class="st10" d="m24.9 60 .5-.7c-.3-.3-.7-.3-.9-.8.5.1.9 0 1.4-.2.5-.2-.6-.7-.8-1.4-.2-.7-.6-1-1-1-.7 0 .3-2.1 1.5-2 1.2.1.9.6.8 1.2-.1.6 0 1.7.8 2 .7.3-.2-.9.6-1.1.7-.2 1 .2.8 1.3-.2 1.1-.3 1.2-1.1 1.8-.7.6-1.1 1.4-1.1 1.4l.6.8s.6.3 1.3-.6c.6-.9 1.3-2.5 1.5-3.8.2-1.3 1.5-2.6 2.5-2.6 1 .1 1.4.8 1.5 1.6.1.8-.2 1.1-.6 1-.4-.1-.6-.4-.6-.4s.3-1.3-.1-1.5c-.4-.2-1.3-.2-1.1 1.2.1 1.3.5 1.4.2 2-.3.6-1 .4-1.1-.2 0-.5-.8.9-.1 1.4.6.5 1.4.3 1.9-1.3.3-.9 0-.5.9-.2 1 .3 1.8-.9 1.7-2.5-.2-1.6-1-2-1.5-2.1-.5-.2-1.9.1-2.7 1-.8.9-1 1-1 1s-.7-1.8-1.9-2.2c-1.2-.4-1.3-.5-2.5-.1-1.1.4-1.7 1.4-1.9 2.3-.1.4-1.1 1-1 1.8.1.4.3.9.2 1.2-.1.4-.4.5-.1.7.8 0 1.5-.6 1.5-.6.1.8.5 1.3.9 1.6zm1.8 14.1.8-.7s.3.5 0 1.3c-.2.7-1.1 1.3-1.1 1.3s.3 1.3 0 2.3c-.3 1-1.5 2.2-2.7 2.1-1.2 0-2.5-.6-2.4-.5.1.1-.4 1.7-1.4 2.1-1 .3-2-.3-2.2-1.4-.1-1.1.2-1.5.9-1.5.8 0 1 .7.9 1.2-.1.4 0 .5-.6.5s-.5.5.3.6c.8.1 1.2-.8.9-1.7-.2-.9-.9-2.6-.7-3.4.2-.8.8-1.7.8-1.7s.8 2.2 1.2 2.4c.4.2.7.3.9-.5.1-.5 1.1.1.9.8-.2.6-1 1-.6 1.7.5.8 1.9.5 2.5 0 .5-.5.8-1.9-.1-2.6-.5-.3-1.2-.4-1.1-1.3 0-.9.7-1 1.1-.9 1.5.1 1.6.1 1.7-.1zm-3.6-9.7c.5-.1 1.2-.2 1.7-.3.2.1.5.1.7.3.4.6.9 1.6 1.3 2.2-1.1.1-1.5.6-2.2 1l.1.1 2.2-.3c.1.5.2 1.3.2 1.5 0 .2.1 1-.8 1.3-.9.3-1.6 1.5-1.6.9-.1-.6-.6-1.4-1-2.1l-.2.1.3 2.4c-.7 0-1.6.1-2.3.1-.5-.8-.9-1.5-1.4-2.3.8-.3 1.5-.5 2.4-1.2l.2-.1c-1.2 0-1.9.2-2.7.4V67s-.4-1.2.2-1.4c.6-.3 1.5-.9 2-1.2.1.5.7 1.7 1.2 2.6l.2-.1-.5-2.5zm.9.9c0 1 .2 1.5.2 1.5.3-.1.7-.3 1.3-.9-.5-.1-1-.3-1.5-.6zm2.1 3h-1.5c.1.3.3.7.8 1.4.1-.5.3-.9.7-1.4zm-2.9 2.1c0-1-.1-1.5-.1-1.5-.3.1-.7.3-1.3.9.4.1.9.2 1.4.6zm-2.1-3c1 0 1.5-.1 1.5-.1-.1-.3-.3-.7-.8-1.4-.2.5-.4 1-.7 1.5z"/><path id="XMLID_246_" class="st1" d="M21.1 73.6c-.3.4-1.6.2-1.3-.6.3-.8.9-1.3 1.8-1.2.9.1 1.2 1.1 1 1.7-.2.6-.4.9-.9.7-.5-.2-.6-.6-.6-.6z"/><path id="XMLID_245_" class="st1" d="M26.5 61.9c.4-.3 1.6.3 1.1 1s-1.2 1-2 .6c-.9-.4-.8-1.5-.5-2 .3-.5.6-.7 1-.4.4.4.4.8.4.8z"/><path id="XMLID_244_" class="st13" d="M21.9 93c.4-.2.6-.2 1.8-1.3 1.2-1.1 3.3-4.8 3.7-8.9"/><path id="XMLID_243_" class="st13" d="M19.8 94.3s-.3-1.5.1-1.9c.5-.3 1.8-.4 1.8.4 0 .2.1.5.3.4"/><path id="XMLID_242_" class="st13" d="m19.8 92.2 2.4-1.8s-.5 0-.3-.2c.3-.3 1-.5.8-1-.3-.9-1.2-.9-1.9-.2l-2.3 1.9c-.4.3.7 1.7 1.3 1.3z"/><path id="XMLID_241_" class="st13" d="m17.8 88.9 1.8-1.4c2-1.6 2.7.3 1.4 1.2l-2.6 1.8c-.3.5-1.3-1-.6-1.6z"/><path id="XMLID_240_" class="st13" d="m18.4 88.4 1.7-1.2c1.8-1.3.5-2.1-.3-1.6l-2.2 1.3c-.6.6-.2 2.2.8 1.5z"/><path id="XMLID_239_" class="st13" d="m17.4 84.8 1.5-.6c1.5-.6 1.7.9.9 1.4l-2.2 1.3c-.6.6-.7-1.9-.2-2.1z"/><path id="XMLID_238_" class="st8" d="M22.6 88.7s.2-.3.1-1.1l.6-1.2h-.2l-1.3 2 .8.3z"/><path id="XMLID_237_" class="st13" d="M18.9 84.3s4.2-2.5 6-1.8c1.7.7 2.2 1.9 2.1 3"/><path id="XMLID_236_" class="st11" d="M18.9 84.3c0 .5 0 1 .4 1.5"/><path id="XMLID_235_" class="st11" d="M19.4 85.7c0 .5.4 1.2.8 1.2"/><path id="XMLID_234_" class="st11" d="M20.1 87.1c0 .5.6 1.3.9 1.4"/><path id="XMLID_233_" class="st11" d="M20.6 88.9c0 .5.7 1.1 1 1.2"/><path class="st8" d="M39.1 56.1s-6.1 4.2-8.4 10.1-1.9 13.5-2.3 16.1c-.4 2.6-1.4 7.4-5.1 11.2l2.2 1.8.5.5h1.2l.2-2.9 1.8-.6-.6-1.8 2.6-1.3-1.5-2.6 1.8-.7-.9-1.8 1.7-1.5-1.4-2.3 1.5-1.1-1.3-1.5 1.8-1.8L32 74l1.3-.9-1-1.5 1.6-1.3-.5-2.2c.6-.2 1-.2 1.3-.6l-.6-1.4 1.8-.5-.5-2.2 2-.1-.5-2 2.1-.2.6-2.2 1.7.4.5-2.7-2.7-.5zM24.9 92.4l.9-1s1 .9 1.1 1.5c0 .7-.1 1.9-.1 2.1 0 .2-.7.4-1.2.3-.5-.1-.4-2-.7-2.9zm2.9-5 .5-1.5c.2.1 1 .5 1.3 1.2l1 2.1-2.6 1.3c-.2.1-1 0-1.5-.1L27 89c.6-.3 1.5-.4 2.1-.4-.6-.3-1-.8-1.3-1.2zm1.1-5.9.2-1.8c.2 0 .6-.2 1.1.5l1.6 2.3-1.8 1.6c-.1.1-.8.3-1.4.3l.2-1.4c.5-.4 1-.7 1.5-.8-.5-.2-1-.2-1.4-.7zm.5-6.8.2-1.7c.2 0 1.5.4 1.8 1l1 1.7-1.7 1.9c-.1.1-1 .1-1.5.2l.2-1.5c.5-.4 1.4-.5 2-.6-.8-.1-1.6-.7-2-1zm1.2-6.1.5-1.7c.2.1 1.4.6 1.6 1.3l.7 2-2.1 1.7c-.1.1-.9.2-1.5.1l.4-1.7c.6-.3 1.2-.5 1.8-.5-.7-.3-1.1-.7-1.4-1.2zm7-10.5 1.3-1.2c.1.2.5.8.3 1.5l-.5 2.6-2.5.1c-.6 0-.7-.2-1.2-.6l1.3-1.3 1.7.8-.4-1.9zm-4.5 5.1 1-1.6c.2.1.7.8.8 1.5l.3 2.5-2.5.9c-.6.2-.7.1-1.3-.1l.8-1.7c.6-.1 1.2-.1 1.8.1-.6-.4-.9-.9-.9-1.6zm6.3-6.7s.8.3 1.6.7c.5.3.2.6 0 .6-.8-.3-1.3-.6-1.6-1.3z"/><path id="XMLID_223_" class="st14" d="M42.5 60.6c-.5 0-6.1 4.1-7.1 8.5s-1.4 12-2.2 16.6c-.8 4.6-3.9 10.2-6.1 11.6"/><path id="XMLID_222_" class="st14" d="M42.9 61.9c-1.9.8-6.4 5-7.1 9.3-.7 4.3-.6 9.2-1.1 13.3"/><path id="XMLID_221_" class="st7" d="M36.4 69c1.3.8 2.3 3 2.2 5.2-.2 2.5-1.7 4.7-3.6 4.9"/><path id="XMLID_220_" class="st15" d="M35.2 77.5c.1-2.1.3-4.3.6-6.3 0-.3.1-.5.2-.8.6.9 1 2.2.9 3.5-.2 1.5-.8 2.8-1.7 3.6z"/><path id="XMLID_219_" class="st8" d="m37.9 82-.5-.9 1-.6c-.3-.4-.7-.7-1.1-.8-.9-.2-1.5.5-1.5 1.5 0 .3.1.6.1.8l.9-.6.4.8c-.7.2-1.4.4-2.1.4h-.3c0 .6-.1 1.2-.2 1.8h.8c5 0 9.2-4.8 9.2-10.8 0-4.1-2-7.7-4.9-9.5-.5.5-1.1 1.2-1.6 1.8 1 .6 1.8 1.4 2.5 2.4l-.6.7-.7-.7c-.3.3-.5.5-.6.9-.1.8.5 1.3 1.4 1.3.3 0 .5-.1.7-.2l-.5-.8.8-.5c.5.9.9 1.9 1.1 2.9l-1 .1-.2-1c-.5.1-.7.2-1 .6-.5.7-.3 1.5.6 2 .2.1.6.2.8.2l-.1-1 1-.1c.1.4.1.9.1 1.4 0 .5 0 1.1-.1 1.6l-1.1-.1.2-1.2c-.5-.1-.9 0-1.2.3-.7.6-.7 1.4 0 2.1.2.2.5.3.7.4l.2-1 1 .1c-.3 1.2-.8 2.3-1.4 3.3l-.8-.7.6-.9c0-.1-.6-.4-.8-.3-.9.1-1.5.9-1.3 1.9.1.3.2.6.4.8l.7-.9.9.7c-.8.7-1.6 1.4-2.5 1.8z"/><path id="XMLID_218_" class="st8" d="M36.8 68.3s1.3.2 1.8-.5c.3-.4-.9-.9-.9-1l-.9 1.5z"/><path id="XMLID_217_" class="st10" d="M26.7 107.3c0 .9-.8 1.6-1.7 1.6-1 0-1.7-.7-1.7-1.6 0-.9.8-1.6 1.7-1.6.9 0 1.7.7 1.7 1.6z"/><path id="XMLID_216_" class="st10" d="M22.4 111.6c-.9 0-1.7-.8-1.7-1.8s.8-1.8 1.7-1.8c.9 0 1.7.8 1.7 1.8s-.8 1.8-1.7 1.8z"/><ellipse id="XMLID_215_" class="st10" cx="19.7" cy="107.5" rx="1.7" ry="1.6"/><path id="XMLID_214_" class="st10" d="M22.1 103.2c.9 0 1.6.8 1.6 1.8s-.7 1.8-1.6 1.8c-.9 0-1.6-.8-1.6-1.8s.7-1.8 1.6-1.8z"/><path id="XMLID_213_" class="st6" d="M45.9 15.3c.2 7.3.7 15.6 1.9 19.1 1.2 3.5 3.2 7 7.8 5.8 4.6-1.2 7.5-5.3 7.9-6.3"/><path id="XMLID_212_" class="st7" d="M44.8 38.7s4.3 2 7.1 2.4c2.8.4 8.7.6 11.4-.9"/><path id="XMLID_211_" class="st7" d="M42.1 40.4s5.9 3 10 3.4c4.1.5 8.2.4 11.7-.9"/><path id="XMLID_210_" class="st7" d="M40.6 41.3s5.7 3.4 10.7 3.9c5 .5 9.7.2 13.1-1.1"/><path id="XMLID_209_" class="st7" d="M48.8 36.7c-1 .6-8 4.1-14.7 8.4C25.5 50.7 17 58.4 17 58.6"/><path id="XMLID_208_" class="st7" d="M65.3 35.7s-2.2 1.6-1.9 5.2c.3 3.6 2.9 4.8 4.2 5"/><path id="XMLID_207_" class="st7" d="M42.3 55c-4.5-1.8-8.8-4.5-11.9-7.1"/><path id="XMLID_206_" class="st16" d="m60.8 15.3 8 35.7 4.8-.9-11.4-34.6z"/><path id="XMLID_205_" class="st17" d="m65.4 15.3 7.5 21.9-3.2 1-7.5-22.7z"/><circle id="XMLID_204_" class="st18" cx="43.4" cy="55.1" r=".9"/><circle id="XMLID_203_" class="st18" cx="58.2" cy="56.9" r=".9"/><path id="XMLID_202_" class="st18" d="M43.9 57.1c.5 0 .9.4.9.9s-.4.9-.9.9-.9-.4-.9-.9.4-.9.9-.9z"/><ellipse id="XMLID_201_" class="st18" cx="57.2" cy="59.9" rx=".8" ry="1"/><circle id="XMLID_200_" class="st18" cx="44.3" cy="60.9" r=".8"/><path id="XMLID_199_" class="st18" d="M56.7 61.6c-.5 0-.8.4-.8.9s.4.9.8.9c.5 0 .8-.4.8-.9s-.4-.9-.8-.9z"/><circle id="XMLID_198_" class="st18" cx="44.8" cy="63.7" r=".7"/><ellipse id="XMLID_197_" class="st18" cx="55.9" cy="65" rx=".7" ry=".8"/><circle id="XMLID_196_" class="st18" cx="45.1" cy="66.1" r=".6"/><ellipse id="XMLID_195_" class="st18" cx="55.2" cy="67.4" rx=".6" ry=".8"/><path id="XMLID_194_" class="st18" d="M54.7 70.3c.3 0 .5-.3.5-.6s-.2-.6-.5-.6-.5.3-.5.6c-.1.3.2.6.5.6z"/><ellipse id="XMLID_193_" class="st18" cx="53.8" cy="72" rx=".4" ry=".5"/><path id="XMLID_192_" class="st7" d="M31.8 46.7s9.3 7.8 19.3 8.5c10 .6 15.4-2 19.2-3.3"/><path id="XMLID_191_" class="st9" d="M22.4 110.2v-5.4"/><path id="XMLID_190_" class="st9" d="M19.7 107.5H25"/><ellipse id="XMLID_189_" class="st12" cx="22.3" cy="107.5" rx="1" ry="1.1"/><path id="XMLID_188_" class="st1" d="M71.7 128c-.1-.5-.2-1.1-.3-1.6-.1-.9-.8-1.4-1.1-.1-.1.3-.2.8-.3 1.4-.8 4.2-6.9 3.4-7.6-.1-.7-3.4.3-6.2 3.3-10.1 3-3.9 4.4-6.4 5.1-8.8.6 3.1 6.2 9.9 7.7 13.1 1.5 3.1 1 7.2-1.4 8.3-2.2 1-5.1-.1-5.4-2.1z"/><path id="XMLID_187_" class="st4" d="M21.4 135.6c1.2-7.5.5-15.1-1.5-21.9 2.4.6 4.7.7 6.7-.1h-.1l7.5 22H21.4z"/><path id="XMLID_186_" class="st5" d="M57.4 111.5c-.1 5.3-3.4 9.1-4.7 10.4.2 1.9.3 4.2.4 6.3 3.8-2.2 10-10.7 9.9-20l-5.6 3.3z"/><path id="XMLID_185_" class="st6" d="M51.9 135.9c0-.1.7-1.6 1.8-1.5"/><path id="XMLID_184_" class="st6" d="M41.7 135.9c0-.2-1.5-1.7-3.3-1.7"/><path id="XMLID_183_" class="st6" d="M50.3 135.9s2-2.7 3.3-2.8"/><path id="XMLID_182_" class="st6" d="M43.4 135.8s-2.9-3.1-5.3-3.2"/><path id="XMLID_181_" class="st6" d="M49.1 135.9c0-.4 3.1-4.1 4.4-4"/><path id="XMLID_180_" class="st6" d="M44.8 135.9c-.7-1.9-3.8-4.7-7-4.8"/><path id="XMLID_179_" class="st6" d="M47.6 135.9c.1-.6 3.3-4.8 5.8-5.3"/><path id="XMLID_178_" class="st6" d="M46 135.9c-.4-2.1-5.1-6.3-8.6-6.1"/><path id="XMLID_177_" class="st7" d="M36.6 126.5c.3 0 2.3-2.7 1.2-5.7-1.1-3-2.2-3.6-3.4-4.1"/><path id="XMLID_176_" class="st7" d="M36 124.5s.7-1.3.5-2.9c-.2-1.5-1-2-1.7-2.6"/><path id="XMLID_175_" class="st7" d="M33.7 113.7s.7-1.5.5-3c-.2-1.5-1.3-2.5-2.1-3.1"/><path id="XMLID_174_" class="st7" d="M51.3 116.1c.6-.5 1-1.4 1-2.2"/><path id="XMLID_173_" class="st7" d="M51.7 117.1c.6-.3 1.9-2.2 1.8-3.8"/><path id="XMLID_172_" class="st7" d="M52.2 118.9c1.4-1.1 3.2-3.7 3.2-6.5"/><path id="XMLID_171_" class="st5" d="M28.3 135.5c.2-.7.8-1.3 1.6-1.4.8-.1 1.9.5 2.6 1.3-.2.1-.5 0-.7.1-.4-.3-1-.6-1.4-.6-.3 0-.7.2-.9.8-.3-.1-1-.2-1.2-.2z"/><path id="XMLID_170_" class="st5" d="M31.4 132.5c0-.1-1.6.9-2.9.6.3-.6 1.2-1.2 2.7-1.1 0-.5-.8-1.1-.5-2.1 1 .6.7 1.6.9 2.3.4.6.9 1.3.8 2.2-.6-.4-1-1.1-1-1.9z"/><path id="XMLID_169_" class="st5" d="M28.6 124.1c0-.1-1.6.9-2.9.6.3-.6 1.2-1.2 2.7-1.1 0-.5-.8-1.1-.5-2.1 1 .6.7 1.6.9 2.3.4.6.9 1.3.8 2.2-.5-.3-1-1-1-1.9z"/><path id="XMLID_168_" class="st5" d="M25.8 115.9c0-.1-1.6.9-2.9.6.3-.6 1.3-1.2 2.7-1.1.6.2 1.2 1.6 1.1 2.3-.4-.2-.9-.9-.9-1.8z"/><circle id="XMLID_167_" class="st5" cx="25.9" cy="129" r=".7"/><circle id="XMLID_166_" class="st5" cx="23.1" cy="120.6" r=".7"/><path id="XMLID_165_" class="st5" d="M28.1 130.7c-.7-.4-.6-.9-.5-1.2.1-.2-.8 0-.7 1 .1 1 1.3 1.8 2 1 .8-.8 1.3-1.6 1.5-3.7-.8-.9-1.7-2.2-3-2.4-1.3-.2-1.8 1-1.6 1.7.3.7 1 .8.9.6-.1-.2-.2-1.2.6-1.4.8-.2 2.2.9 2.4 1.2.1.3-1 .7-1.1.4-.1-.3-.1-.4-.2-.9-.7.5-.7 1-.1 1.5 0 0-.5 1 .8 1.2-.2-.5-.3-.8.1-1 .4-.3 1-.6.7.3-.3.8-1.1 2.1-1.8 1.7z"/><path id="XMLID_164_" class="st5" d="M25.3 122.4c-.7-.4-.6-.9-.5-1.2.1-.2-.8 0-.7 1 .1 1 1.3 1.8 2 1 .8-.8 1.3-1.6 1.5-3.7-.8-.9-1.7-2.2-3-2.4-1.3-.2-1.8 1-1.6 1.7.3.7 1 .8.9.6-.1-.2-.2-1.2.6-1.4.8-.2 2.2.9 2.4 1.2.1.3-1 .7-1.1.4-.1-.3-.2-.4-.2-.9-.7.5-.7 1-.1 1.5 0 0-.5 1 .8 1.2-.2-.5-.3-.8.1-1 .4-.3 1-.6.7.3-.3.8-1.1 2.1-1.8 1.7z"/><path id="XMLID_163_" class="st8" d="M75.4 47.3c.3.9 1 1.6 1.9 1.6.9 0 1.7-.7 1.9-1.6h1.3V46c.8-.3 1.3-1.1 1.3-1.9 0-.8-.5-1.6-1.3-1.9v-1.7h-1.8c-.4-.6-1-1-1.8-1-.7 0-1.4.4-1.8 1h-1.3v1.8c-.9.2-1.6 1-1.6 2 0 .9.7 1.8 1.6 2v1h1.6z"/><path id="XMLID_162_" class="st9" d="M76.7 48.6s-.1 5.3-.1 6.7c0 1.4.3 3 .3 3"/><path id="XMLID_161_" class="st9" d="m78.1 48.4-.2 9.8"/><path id="XMLID_160_" class="st10" d="M78 58.3v-4.6l3.2-4.4s.5 2.5.2 4.2c-.4 1.7-1.8 4.6-3.4 4.8z"/><path id="XMLID_159_" class="st10" d="M76.7 58.2c-1.1-.2-1.6-.8-2.3-1.5-.9-.8-1.7-1.4-1.9-2.4-.2-1-.4-1.4-.4-1.4.1 0 1.2-.2 2.6 1 1.4 1.2 1.6 1.5 2 1.8v2.5z"/><path id="XMLID_158_" class="st9" d="M76.6 55.7c-.4-.3-.6-.6-2-1.8-1.4-1.2-2.5-1-2.6-1-.1 0 .2.4.4 1.4.2 1 1 1.6 1.9 2.4.9.8 1.8 1.6 3.5 1.6s3.2-3 3.5-4.7c.4-1.7-.2-4.2-.2-4.2l-3.3 4.5"/><path id="XMLID_157_" class="st8" d="M73.8 54.7s1.9 1.4 2.9 1.7v.8c.1.2-2.6-1.3-2.9-2.5z"/><path id="XMLID_156_" class="st8" d="M80.2 52.5s-1 2.6-2.3 3.8v.8c-.1.2 2.5-2.6 2.3-4.6z"/><path class="st8" d="M53.3 129.5s-2.5.7-3.5.3c-1.1-.4-2.4-1.6-2.2-3 .2-1.4 1-4.8 1.2-5.6.2-.8-.4-.8-1-1.2-.3-.2-.5 0-.5.3s-.9.5-1.3.2c-.9-.6-1.2-.5-1.4-.4-.3.1-.7.3-.3.9.4.7-.7-.4-.3-1.1.4-.7.8-.7 1.6-.2s1.5.4 1.5-.4 2 1 2 .9.4.8.2 1.6c-.3.8-.5 2.4-.5 2.4s.6-.5 1.2-.9c.5-.4-.7 1.3-.7 1.3s-.5.8.6.4 2.8-.1 3.3.4l.1 4.1zm-.9-1.3c-1.3.8-3.9-.5-3.9-.5s.1 1.1 1.2 1.4c1.1.3 1.5.2 2.4-.1.8-.4.3-.8.3-.8zm.1-1.2c-1.5 1.2-4-.3-4-.4-.1-.1-.2-.1-.3.4 0 .3.9.6 1.6.7.7.2 1.4.2 2 0 .7-.1.7-.7.7-.7zm-7.5 1.5c-.8 1.3-5.3.2-6.3-.8.8 1.2 3.5 2.1 4.3 2.2.8 0 1.8.1 2.5-.7.7-.8-.5-.8-.5-.7zm-.2-1.5c-1.2 2-5.1.8-5.9-.4.7 1.1 2.8 1.8 3.6 1.8.8 0 2.1 0 2.7-.7.6-.6-.4-.9-.4-.7zm0-.1s0-1.5.6-1.8c.4-.2-.6 0-.8-.1l-2.5-1.6-.1.1 1.8 1.4s.2.3-.5.3-1.2-.2-1.8-.1c-.7.1-1.6.7-1.6.7s-.4.3-1 0c-.2.3.1.4.5.6.5.4 1.1.8 1.7.9 1.1.1 2.1.4 3.7-.4zm7.4-.4s.4 0 .3-.3c-.1-.4-.2-.6-.2-.6-.1 0-.2-.2-.5-.1 0 .1.2.6.4 1zm-3-.2c0-.3.1-.6.3-.8-.5 0-.8.4-.9.6-.2.3.6.2.6.2zm1.8.2.5-.2s-.2-.9-.8-1c-.6-.1-1.2.3-1.2 1h.5s.1-.4.4-.4c.5 0 .6.5.6.6zm-8.3 0c0-.1 0-.7-.6-.7-.5 0-.5.3-.5.5-.1.2-.5.3-.5-.1.1-1 .8-1.1 1.4-1 .6.1.7 1.2.7 1.2l-.5.1zm.9-.3c0 .1.6.3.6-.2 0-.4.1-.4 0-.5-.1-.1-.4-.1-.6-.1v.8zm-3 .2-.5-.5c.2-.2.5-.4.8-.3-.1.2-.2.5-.3.8zm8.4-8.6c0-.4-.1-1-.4-1.3-.1-.1-.6.1-.9.2-.3.2-1.3-.8-2-.3-.7.4-1.4.2-1.4.2-.2 0-.4-.1-.5-.2h-.2l.1 1.2s.3.2.6 0 .7-.3 1.4.1c.3.2.6-.2 1-.2.2 0 .6.2.8.3.7-.2 1.5-.7 1.5 0zm-4-1.7c.3-.3.5-.6 1.3-.7.8 0 1.4.6 1.4.6s-.5-.2-1.2-.3c-.6-.1-1.5.4-1.5.4zm2.1-2c-.3.2-.6.2-1 .2-.6-.1-1.2-.3-1.2-.3s.7.6 1.4.6c.4 0 .8 0 1-.2.4-.4 0-.4-.2-.3z"/><path id="XMLID_140_" class="st5" d="m81.8 93.9-11.5 9.3c-1.8-1.9-7.4-5.7-9.6-6.7 2.8-2.5 6.7-4.7 8.9-12.2 2.2-7.5 1.3-9.1 2.1-14.4.6-4.1-.2.9 4.9-.1.9-.2 2.5-1.3 3.8-1.7 1.3-.4 1.4-.6 1.4-.7v26.5z"/><path id="XMLID_139_" class="st11" d="M60.7 96.5c2.8-2.5 6.7-4.7 8.9-12.2 2.2-7.5 1.3-9.1 2.1-14.4l.3-1.5"/><path class="st5" d="m37.5 109.3.2.8c.6-.2 1.3-.3 2.1-.3l-.2-.8-2.1.3zm-.7 1.1-.2-.8c-.3.1-.5.2-.8.3l.2.8c.2-.1.5-.2.8-.3zm17 1.5c.7.3 1.2.5 1.2.5l.7-.5c0-.1-.6-.4-1.6-.8l-.3.8zm-2.6-1c.6.2 1.2.5 1.7.7l.3-.8c-.5-.2-1.1-.5-1.7-.7l-.3.8zm-2.4-.7c.5.1 1 .3 1.6.4l.3-.8c-.6-.2-1.2-.4-1.7-.5l-.2.9zm-.8-.2h-.3c-.4-.1-1-.1-1.5-.2v-.8c.6 0 1.1.1 1.6.1h.3l-.1.9zm-4.9-.4c.8 0 1.6 0 2.3.1v-.8c-.7 0-1.5-.1-2.3-.1v.8zm-2.6.1c.6 0 1.2-.1 1.8-.1l-.1-.8c-.6 0-1.3 0-1.9.1l.2.8z"/><path id="XMLID_130_" class="st10" d="M67.6 104.9s-9.3-7.8-19.3-8.5c-10-.6-15.5 1.9-19 3.2-.3 3.4 2.5 5.5 5.2 7.5.8.6 1.5 2.9 1.7 4.3 2.7-1.5 8.6-1.3 11.4-.9 2.8.4 7.1 2.4 7.1 2.4l12.9-8z"/><path id="XMLID_129_" class="st1" d="M67.9 105s-4.4-3.6-10.3-6.1l-.3-2c4.3 1.7 8.5 4.1 11.6 6.8l-1 1.3z"/><path class="st5" d="M33.2 100.2c-.9.3-1.7.6-2.4.8l1.5 1.1.9-1.9zm7.4-1.5c-1.3.1-2.5.3-3.6.5l2 1.8 1.6-2.3zm7.2-.1c-1.2-.1-2.3-.1-3.3-.1l1.6 2 1.7-1.9zm7.7 1.5c-1.3-.4-2.6-.8-3.9-1.1l1.4 2.8 2.5-1.7zm6.3 3c-1-.6-2.1-1.1-3.3-1.7l.7 2.7 2.6-1zm4.6 2.9c-.5-.4-1.1-.8-1.8-1.3l.1 2.2 1.7-.9z"/><path class="st5" d="M47.9 106.4h.2c.3 0 .6.1.9.1 0-.2.1-.3.1-.5l3.1-2 1.8 3.4c.1 0 0 .3 0 .5.2.1.3.1.5.2.2-.3.3-.4.3-.4l3.3-1.3 1 3.1.7-.4-.9-3.2 3.9-1.6.2 3.4.9-.4-.1-3.2c-.3-.2-.7-.4-1.1-.7l-4 1.6-1.1-4.2c-.3-.1-.6-.3-1-.4l-4.1 2.5-2.4-4.3c-.4-.1-.8-.1-1.2-.1l-3 3.2-2.5-3.3c-.4 0-.8 0-1.2.1l-2.8 3.7-3.8-2.7-1.2.3-1.6 3.6-2.4-1.6.3 1.3 1.8 1.2-.7 1.4.9.1.4-1.1 3.3 2.2c.3-.1.6-.2.8-.2l2.2-3.4 2.9 2.5c.3 0 .6 0 .9-.1l2.5-2.7 2 2.8c.2.1.2.3.2.6zm-5.2-2.5c-.6 0-1.1-.5-1.1-1.1 0-.6.5-1.1 1.1-1.1.6 0 1.1.5 1.1 1.1 0 .5-.5 1.1-1.1 1.1zm-6.8.9c-.6 0-1.1-.5-1.1-1.1 0-.6.5-1.1 1.1-1.1.6 0 1.1.5 1.1 1.1 0 .6-.5 1.1-1.1 1.1zm13-.8c-.6 0-1.1-.5-1.1-1.1 0-.6.5-1.1 1.1-1.1.6 0 1.1.5 1.1 1.1 0 .6-.5 1.1-1.1 1.1zm6.4 1.6c-.6 0-1.1-.5-1.1-1.1 0-.6.5-1.1 1.1-1.1s1.1.5 1.1 1.1c0 .5-.5 1.1-1.1 1.1zm5.7 2.5c-.6 0-1.1-.5-1.1-1.1 0-.6.5-1.1 1.1-1.1.6 0 1.1.5 1.1 1.1.1.6-.4 1.1-1.1 1.1zm-3.1-2.6-3.4 1.4-1.6-3 3.8-2.3 1.2 3.9zm-6.1-2-3.2 2-2.1-3 3.1-3.1 2.2 4.1zm-6.5-1-2.3 2.6-2.9-2.3 2.8-3.7 2.4 3.4zm-6.4.6-2.3 3.1-3.1-2.1 1.7-3.7 3.7 2.7zm2.5 3.1c-1 .1-2.1.2-3 .3l-.1-.1 1.3-2 1.5 1.5c.2.2.2.3.3.3zm5.7.1c-.9-.1-1.9-.1-2.8-.1 0-.1.1-.2.2-.4l1.2-1.4 1.1 1.4c.2.2.3.4.3.5zm5.5 1.1c-.8-.3-1.7-.5-2.6-.7l.3-.4 1.5-1.1.7 1.7c.1.2.1.4.1.5zm5.1 2.3c-.6-.3-1.3-.7-2.3-1.1.1-.2.2-.3.3-.4l1.6-.8.4 1.8c.1.1.1.3 0 .5z"/><path id="XMLID_108_" class="st8" d="M52.5 94.7s1.4-1.5.7-3.5-1.4-3.1-1.4-3.1.4-.3.6-.6c.4-.4.3-.8-.2-.6-.8.3-.4.9-1.6.1-1.2-.7-2.9-1.2-3.5-3-.6-1.8 1.6-4.3 3.5-2.1 1.9 2.2.5 3.2.4 3.3-.3.3-.2-.3-.9-.4-.7-.1-.9.8-.3 1 .6.2 1.9.1 2.1-1.3.2-1.4-.3-2.2-1.3-3.1-1.1-.9-2.3-.8-2.9-.8-.3 0-.2-.5-.4-.6-.3-.1-.7.7-.6 1.1.3 1.1.1.9-.2 1.2-.3.3-.2 2.2.6 2.9.9.9-.9.1-1.2.9-.2.5.1.7.5.6.4-.1.8-.2 1-.2 1.7-.2 3.3.9 4.1 2.3.8 1.3 1.3 3.1.6 4.7-.8 1.6-1.6 2-3.4 2-1.8-.1-3.4-1.9-3.5-3.7-.1-1.8 1.5-3.6 2.4-2.8.9.8 1.7 0 1.2-.8s-1.3-.9-2.3-.6c-.9.3-2 2.3-1.9 3.4.1 1.2.3 2.3.3 2.3s-1.3.1-1.3.9.4 1.4 1 .8c.6-.6.4-1.1 1.2-.4.8.7 2.4 1.3 4 1.2s1.8-.7 2-.4c.2.2.2 1.1 1.2 1.3 1 .2 1.3-1.2.6-1.1-.9.2-.8-.6-1.1-.9z"/><path id="XMLID_107_" class="st1" d="M46.3 89.9c.3.2.6.2 1 0 0 0-.5.6-.8.5-.3 0-.5-.4-.2-.5z"/><path id="XMLID_106_" class="st1" d="M48.1 84.4c.2 0 .5-.1.9.1 0 0-.4-.5-.7-.5-.4 0-.4.5-.2.4z"/><path id="XMLID_105_" class="st1" d="M51 84.5c-.2 0-.4-.1-.7.1 0 0 .3-.4.6-.4.2-.1.3.3.1.3z"/><path id="XMLID_104_" class="st1" d="M48 83c.2 0 .5 0 .8.4 0 0-.3-.8-.6-.9-.3-.1-.4.5-.2.5z"/><path id="XMLID_103_" class="st1" d="M50.6 83.4c-.2 0-.4.2-.7.5 0 0 .1-.9.5-1.1.5-.1.4.6.2.6z"/><path id="XMLID_102_" class="st1" d="M49.7 82.8c-.2.2-.2.6-.3 1.2 0 0-.6-1.1-.3-1.7.4-.5.8.3.6.5z"/><path id="XMLID_101_" class="st1" d="M46.3 91.1c.7-.1 1-.4 1.4-.9 0 0-.2 1.1-.9 1.3-.7.3-.9-.2-.5-.4z"/><path id="XMLID_100_" class="st1" d="M47 92.4c.8-.2 1.2-1.3 1.4-1.9 0 0-.2 1.8-.9 2.3-.6.5-1.3-.1-.5-.4z"/><path id="XMLID_99_" class="st1" d="M48.2 93.3c.7-.5.7-1.6.7-2.2 0 0 .4 1.7 0 2.3-.5.7-1.4.4-.7-.1z"/><path id="XMLID_98_" class="st1" d="M50.5 93.7c-.7-.1-1-.9-1.2-1.4 0 0 .2 1.4.8 1.7.4.4 1-.2.4-.3z"/><path id="XMLID_97_" class="st1" d="M51 92.3c-.7.1-1.2-.6-1.5-1 0 0 .6 1.3 1.2 1.5.5.2 1-.6.3-.5z"/><path id="XMLID_96_" class="st1" d="M50.8 90.4c-.6.4-1.5-.3-1.9-.6 0 0 .8 1.5 1.9 1.5 1.1-.1.7-1.3 0-.9z"/><path id="XMLID_95_" class="st1" d="M50.7 89.3c-.4.3-.9-.2-1.2-.4 0 0 .5 1 1.2.9.7 0 .4-.8 0-.5z"/><path id="XMLID_94_" class="st7" d="M29.5 100.8s-.8-2.7-2.1-3.6"/><path id="XMLID_93_" class="st8" d="m57.7 99-2.9-17c-1-.1-9.4-3.8-10.2-4.8-.9-.6-.6.4-.6.5l.8.5-6.3 18.7 3.9-.6 4.5-17.1c1.9 1 3.6 1.8 5.6 2.7l2.1 15.8 3.1 1.3z"/><path id="XMLID_92_" class="st12" d="m44 77.7.8.5-6.3 18.7-1.8.2.8-12.9c3-.5 6.7-6.4 6.5-6.5z"/><path id="XMLID_91_" class="st9" d="m39.2 95.2-2.4.3"/><path id="XMLID_90_" class="st9" d="m39.6 93.3-2.6.5"/><path id="XMLID_89_" class="st5" d="M54.6 81.7c-3.3-1.2-6.8-2.8-10.1-5l.3-1.8 1.3 1.1.5-.4 1.9 2 .7-.4 1.7 1.7.6-.4 2.1 1.3.4-.2c-.2-.1.2 1.9.6 2.1z"/><path id="XMLID_88_" class="st7" d="M61.4 96.5s-2.1-1.3-4.6-1.9"/><path class="st10" d="m74.5 91.6-.5.7c.3.3.7.3.9.8-.5-.1-.9 0-1.4.2-.5.2.6.7.8 1.4.2.7.6 1 1 1 .7 0-.3 2.1-1.5 2-1.2-.1-.9-.6-.8-1.2.1-.6 0-1.7-.8-2-.7-.3.2.9-.6 1.1-.7.2-1-.2-.8-1.3.2-1.1.3-1.2 1.1-1.8.7-.6 1.1-1.4 1.1-1.4l-.6-.8s-.6-.3-1.3.6c-.6.9-1.3 2.5-1.5 3.8-.2 1.3-1.5 2.6-2.5 2.6-1-.1-1.4-.8-1.5-1.6-.1-.8.2-1.1.6-1 .4.1.6.4.6.4s-.3 1.3.1 1.5c.4.2 1.3.2 1.1-1.2-.1-1.3-.5-1.4-.2-2 .3-.6 1-.4 1.1.2 0 .5.8-.9.1-1.4-.6-.5-1.4-.3-1.9 1.3-.3.9 0 .5-.9.2-1-.3-1.8.9-1.7 2.5.1 1.6 1 2 1.5 2.1.5.2 1.9-.1 2.7-1 .8-.9 1-1 1-1s.7 1.8 1.9 2.2c1.2.4 1.3.5 2.5.1 1.1-.4 1.7-1.4 1.9-2.3.1-.4 1.1-1 1-1.8.2-.5 0-1 0-1.4.1-.4.4-.5.1-.7-.8 0-1.5.6-1.5.6-.3-.6-.7-1-1.1-1.4zm-1.8-14.1-.8.7s-.3-.5 0-1.3c.2-.7 1.1-1.3 1.1-1.3s-.3-1.3 0-2.3c.3-1 1.5-2.2 2.7-2.1 1.2 0 2.5.6 2.4.5-.1-.1.4-1.7 1.4-2.1 1-.3 2 .3 2.2 1.4.1 1.1-.2 1.5-.9 1.5-.8 0-1-.7-.9-1.2.1-.4 0-.5.6-.5s.5-.5-.3-.6c-.8-.1-1.2.8-.9 1.7.2.9.9 2.6.7 3.4-.2.8-.8 1.7-.8 1.7s-.8-2.2-1.2-2.4c-.4-.2-.7-.3-.9.5-.1.5-1.1-.1-.9-.8.2-.6 1-1 .6-1.7-.5-.8-1.9-.5-2.5 0-.5.5-.8 1.9.1 2.6.5.3 1.2.4 1.1 1.3 0 .9-.7 1-1.1.9-1.4-.1-1.6-.1-1.7.1zm3.6 9.7c-.5.1-1.2.2-1.7.3-.3-.1-.5-.1-.7-.3-.4-.6-.9-1.5-1.3-2.2 1.1-.1 1.5-.6 2.2-1h-.3l-2.2.3c-.1-.5-.2-1.3-.2-1.5 0-.2-.1-1 .8-1.3.9-.3 1.6-1.5 1.6-.9.1.6.6 1.4 1 2.1l.2-.1-.3-2.4c.7 0 1.6-.1 2.3-.1.5.8.9 1.5 1.4 2.3-.8.3-1.5.5-2.4 1.2l.1.1c1.2 0 1.9-.2 2.7-.4v1.4s.4 1.2-.2 1.4c-.6.3-1.5.9-2 1.2-.1-.5-.7-1.7-1.2-2.6l-.2.1.4 2.4zm-.9-.9c0-1-.2-1.5-.2-1.5-.3.1-.7.3-1.3.9.5.1 1 .3 1.5.6zm-2.1-3h1.5c-.1-.3-.3-.7-.8-1.4-.1.5-.3.9-.7 1.4zm2.9-2.1c0 1 .1 1.5.1 1.5.3-.1.7-.3 1.3-.9-.4-.1-.8-.2-1.4-.6zm2.1 3c-1 0-1.5.1-1.5.1.1.3.3.7.8 1.4.2-.5.4-1 .7-1.5z"/><path id="XMLID_80_" class="st1" d="M78.3 78c.3-.4 1.6-.2 1.3.6-.3.8-.9 1.3-1.8 1.2-.9-.1-1.2-1.1-1-1.7.2-.6.4-.9.9-.7.5.2.6.6.6.6z"/><path id="XMLID_79_" class="st1" d="M72.9 89.7c-.4.3-1.6-.3-1.1-1s1.2-1 2-.6c.9.4.8 1.5.5 2-.3.5-.6.7-1 .4-.4-.4-.4-.8-.4-.8z"/><path id="XMLID_78_" class="st13" d="M77.5 58.6c-.4.2-.6.2-1.8 1.3-1.2 1.1-3.3 4.8-3.7 8.9"/><path id="XMLID_77_" class="st13" d="M79.6 57.3s.3 1.5-.1 1.9c-.5.3-1.8.4-1.8-.4 0-.2-.1-.5-.3-.4"/><path id="XMLID_76_" class="st13" d="m79.6 59.5-2.4 1.8s.5 0 .3.2c-.3.3-1 .5-.8 1 .3.9 1.2.9 1.9.2l2.3-1.9c.4-.4-.7-1.8-1.3-1.3z"/><path id="XMLID_75_" class="st13" d="m81.6 62.7-1.8 1.4c-2 1.6-2.7-.3-1.4-1.2l2.6-1.8c.3-.5 1.3 1 .6 1.6z"/><path id="XMLID_74_" class="st13" d="m81 63.2-1.7 1.2c-1.8 1.3-.5 2.1.3 1.6l2.2-1.3c.6-.6.2-2.2-.8-1.5z"/><path id="XMLID_73_" class="st13" d="m82 66.8-1.5.6c-1.5.6-1.7-1-.9-1.4l2.2-1.3c.6-.6.7 1.9.2 2.1z"/><path id="XMLID_72_" class="st8" d="M76.8 62.9s-.2.3-.1 1.1l-.6 1.2h.2l1.3-2-.8-.3z"/><path id="XMLID_71_" class="st13" d="M80.5 67.3s-4.2 2.5-6 1.8c-1.7-.7-2.2-1.9-2.1-3"/><path id="XMLID_70_" class="st11" d="M80.5 67.3c0-.5 0-1-.4-1.5"/><path id="XMLID_69_" class="st11" d="M80 65.9c0-.5-.4-1.2-.8-1.2"/><path id="XMLID_68_" class="st11" d="M79.3 64.5c0-.5-.6-1.3-.9-1.4"/><path id="XMLID_67_" class="st11" d="M78.8 62.7c0-.5-.7-1.1-1-1.2"/><path class="st8" d="M60.3 95.5s6.1-4.2 8.4-10.1c2.3-5.9 1.9-13.5 2.3-16.1.4-2.6 1.3-7.4 5.1-11.2l-2.2-1.8-.5-.5h-1.2l-.2 2.8-1.8.6.6 1.8-2.6 1.3 1.5 2.6-1.8.7.9 1.8-1.7 1.6 1.4 2.3-1.5 1.1 1.3 1.5-1.8 1.8.9 1.8-1.3.9 1 1.5-1.6 1.3.5 2.2c-.6.2-1 .2-1.3.6l.6 1.4-1.8.5.5 2.2-2-.1.5 2-2.1.2-.6 2.2-1.7-.4-.5 2.7 2.7.8zm14.2-36.3-.9 1s-1-.9-1.1-1.5c0-.7.1-1.9.1-2.1 0-.2.7-.4 1.2-.3.5.1.5 2 .7 2.9zm-2.8 5-.5 1.5c-.2-.1-1-.5-1.3-1.2l-1-2.1 2.6-1.3c.2-.1 1 0 1.5.1l-.5 1.4c-.6.3-1.5.4-2.1.4.5.3.9.8 1.3 1.2zm-1.2 5.9-.2 1.8c-.2 0-.6.2-1.1-.5l-1.6-2.3 1.7-1.6c.1-.1.8-.3 1.4-.3l-.2 1.4c-.5.4-1 .7-1.5.8.6.2 1.1.2 1.5.7zm-.4 6.9-.2 1.7c-.2 0-1.5-.4-1.8-1l-1-1.7 1.7-1.9c.1-.1 1-.1 1.5-.2l-.2 1.5c-.5.4-1.4.5-2 .6.7 0 1.5.6 2 1zm-1.3 6-.5 1.7c-.2-.1-1.4-.6-1.6-1.3l-.7-2 2.1-1.7c.1-.1.9-.2 1.5-.1l-.4 1.7c-.6.3-1.2.5-1.8.5.7.3 1.1.7 1.4 1.2zm-7 10.5-1.3 1.2c-.1-.2-.5-.8-.3-1.5l.6-2.6 2.5-.1c.6 0 .7.2 1.2.6l-1.3 1.3-1.8-.8.4 1.9zm4.6-5.1-1 1.6c-.2-.1-.7-.8-.8-1.5l-.4-2.5 2.5-.9c.6-.2.7-.1 1.3.1l-.7 1.8c-.6 0-1.3 0-1.8-.1.5.3.8.8.9 1.5zM60 95.1s-.8-.3-1.6-.7c-.5-.3-.2-.6 0-.6.8.3 1.4.7 1.6 1.3z"/><path id="XMLID_57_" class="st14" d="M56.9 91c.5 0 6.1-4.1 7.1-8.5s1.4-12 2.2-16.6c.8-4.6 3.9-10.2 6.1-11.6"/><path id="XMLID_56_" class="st14" d="M56.5 89.7c1.9-.8 6.4-5 7.1-9.3.7-4.3.6-9.2 1.1-13.3"/><path id="XMLID_55_" class="st7" d="M63 82.6c-1.3-.8-2.3-3-2.2-5.2.2-2.5 1.7-4.7 3.6-4.9"/><path id="XMLID_54_" class="st15" d="M64.2 74.1c-.1 2.1-.3 4.3-.6 6.3 0 .3-.1.5-.2.8-.6-.9-1-2.2-.9-3.5.2-1.4.8-2.7 1.7-3.6z"/><path id="XMLID_53_" class="st8" d="m61.6 69.6.5.9-1 .6c.3.4.7.7 1.1.8.9.2 1.5-.5 1.5-1.5 0-.3-.1-.6-.1-.8l-.9.6-.4-.8c.7-.2 1.4-.4 2.1-.4h.3c0-.6.1-1.2.2-1.8h-.8c-5 0-9.2 4.8-9.2 10.8 0 4.1 2 7.7 4.9 9.5.5-.5 1.1-1.1 1.6-1.8-1-.6-1.8-1.4-2.5-2.4l.8-.5.7.7c.3-.3.5-.5.6-.9.1-.8-.5-1.3-1.4-1.3-.3 0-.5.1-.7.2l.5.8-.8.5c-.5-.9-.9-1.9-1.1-2.9l.9-.1.2 1c.5-.1.7-.2 1-.6.5-.7.3-1.5-.6-2-.4-.2-.7-.2-1-.3l.1 1-1 .1c-.1-.4-.1-.9-.1-1.4 0-.5 0-1.1.1-1.6l1.1.1-.2 1.3c.5.1.9 0 1.2-.3.7-.5.7-1.4 0-2.1-.2-.2-.5-.3-.7-.4l-.2 1-1-.1c.3-1.2.8-2.3 1.4-3.3l.8.7-.5.9c0 .1.6.4.8.3.9-.1 1.5-.9 1.3-1.9-.1-.3-.2-.6-.4-.8l-.7.9-.9-.7c.7-.9 1.5-1.6 2.5-2z"/><path id="XMLID_52_" class="st8" d="M62.6 83.3s-1.3-.3-1.8.5c-.3.4.9.9.9 1l.9-1.5z"/><path id="XMLID_51_" class="st10" d="M72.7 44.3c0-.9.8-1.6 1.7-1.6 1 0 1.7.7 1.7 1.6 0 .9-.8 1.6-1.7 1.6-.9 0-1.7-.7-1.7-1.6z"/><path id="XMLID_50_" class="st10" d="M77 40c.9 0 1.7.8 1.7 1.8s-.7 1.7-1.7 1.7c-.9 0-1.7-.8-1.7-1.8S76.1 40 77 40z"/><path id="XMLID_49_" class="st10" d="M81.4 44.1c0 .9-.8 1.6-1.7 1.6S78 45 78 44.1c0-.9.8-1.6 1.7-1.6s1.7.7 1.7 1.6z"/><path id="XMLID_48_" class="st10" d="M77.3 48.4c-.9 0-1.6-.8-1.6-1.8s.7-1.8 1.6-1.8c.9 0 1.6.8 1.6 1.8s-.7 1.8-1.6 1.8z"/><path id="XMLID_47_" class="st6" d="M53.5 135.8c-.2-7.3-.7-15.1-1.9-18.6-1.2-3.5-3.2-7-7.8-5.8-4.6 1.2-7.5 5.3-7.9 6.3"/><path id="XMLID_46_" class="st7" d="M54.6 112.9s-4.3-2-7.1-2.4c-2.8-.4-8.7-.6-11.4.9"/><path id="XMLID_45_" class="st7" d="M57.3 111.2s-5.9-3-10-3.4c-4.1-.5-8.2-.4-11.7.9"/><path id="XMLID_44_" class="st7" d="M58.8 110.3s-5.7-3.4-10.7-3.9c-5-.5-9.7-.2-13.1 1.1"/><path id="XMLID_43_" class="st7" d="M50.6 114.9c1-.6 8-4.1 14.7-8.4 8.6-5.6 17.3-13.5 17.3-13.7"/><path id="XMLID_42_" class="st7" d="M34.1 115.9s2.2-1.6 1.9-5.2c-.3-3.6-2.9-4.8-4.2-5"/><path id="XMLID_41_" class="st7" d="M57.1 96.6c4.5 1.8 8.8 4.5 11.9 7.1"/><path id="XMLID_40_" class="st16" d="m38.4 135.6-7.8-35.3-4.8.9L37 135.4z"/><path id="XMLID_39_" class="st17" d="m34 135.7-7.5-22.1 3.2-.9 7.5 22.8z"/><circle id="XMLID_38_" class="st18" cx="56" cy="96.5" r=".9"/><circle id="XMLID_37_" class="st18" cx="41.2" cy="94.7" r=".9"/><circle id="XMLID_36_" class="st18" cx="55.5" cy="93.6" r=".9"/><path id="XMLID_35_" class="st18" d="M42.2 92.7c.5 0 .8-.4.8-1s-.4-1-.8-1c-.5 0-.8.4-.8 1-.1.6.3 1 .8 1z"/><circle id="XMLID_34_" class="st18" cx="55.1" cy="90.7" r=".8"/><ellipse id="XMLID_33_" class="st18" cx="42.8" cy="89" rx=".8" ry=".9"/><circle id="XMLID_32_" class="st18" cx="54.6" cy="87.9" r=".7"/><ellipse id="XMLID_31_" class="st18" cx="43.5" cy="86.6" rx=".7" ry=".8"/><circle id="XMLID_30_" class="st18" cx="54.3" cy="85.5" r=".6"/><ellipse id="XMLID_29_" class="st18" cx="44.2" cy="84.2" rx=".6" ry=".8"/><ellipse id="XMLID_28_" class="st18" cx="44.8" cy="81.9" rx=".5" ry=".6"/><ellipse id="XMLID_27_" class="st18" cx="45.6" cy="79.6" rx=".4" ry=".5"/><path id="XMLID_26_" class="st7" d="M67.6 104.9s-9.3-7.8-19.3-8.5c-10-.6-15.4 2-19.2 3.3"/><path id="XMLID_25_" class="st9" d="M77 41.5v5.4"/><path id="XMLID_24_" class="st9" d="M79.7 44.2h-5.3"/><ellipse id="XMLID_23_" class="st12" cx="77.1" cy="44.1" rx="1" ry="1.1"/><path class="st1" d="M15.3 23.6s-1.2.2-2.3-.6c-.8.7-1.8 1.1-2.9 1.1-2.4 0-4.4-2-4.4-4.4v-2.6H4.6v-1.9h1.1V11c0-2.4 2-4.4 4.4-4.4 2.4 0 4.4 1.9 4.4 4.4v8.7c0 .6-.1 1.1-.3 1.6.3.3.7.4 1.1.5v1.8zm-5.2-1.3c.7 0 1.3-.2 1.7-.6-.6-.8-.9-1.6-1.6-2.3-.9-.9-1.8-1.4-2.6-1.7V20c0 1.2 1.1 2.3 2.5 2.3zm0-13.7c-1.4 0-2.5 1.1-2.5 2.4v4.5c.3.1.5.1.8.2 2.2.8 3.4 2.4 4.3 3.6V11c-.1-1.3-1.2-2.4-2.6-2.4zM84.1 128s1.2-.2 2.3.6c.8-.7 1.8-1.1 2.9-1.1 2.4 0 4.4 1.9 4.4 4.4v2.6h1.1v1.9h-1.1v4.2c0 2.4-2 4.4-4.4 4.4-2.4 0-4.4-1.9-4.4-4.4v-8.7c0-.6.1-1.1.3-1.6-.3-.3-.7-.4-1.1-.5V128zm5.2 1.3c-.7 0-1.3.2-1.7.6.6.8.9 1.6 1.6 2.3.9.9 1.8 1.4 2.6 1.7v-2.3c0-1.2-1.1-2.3-2.5-2.3zm0 13.7c1.4 0 2.5-1.1 2.5-2.4v-4.5c-.3-.1-.5-.1-.8-.2-2.2-.8-3.4-2.4-4.3-3.6v8.3c.1 1.3 1.2 2.4 2.6 2.4z"/><path d="M16.9 136.5h66V14.4H16.4v122.1h.5zm.5-1V15.4h64.4v120.1H17.4z" style="fill:#bf1818"/></g></svg>