<svg xmlns="http://www.w3.org/2000/svg" viewBox="0 0 99.4 151.6" style="enable-background:new 0 0 99.4 151.6" xml:space="preserve"><style>.st1{fill-rule:evenodd;fill:#e52529}.st1,.st2{clip-rule:evenodd}.st2{fill-rule:evenodd;fill:#cf492c}.st3{fill-rule:evenodd;fill:none;stroke:#0ca551;stroke-width:.6523;stroke-linecap:round;stroke-linejoin:round;stroke-miterlimit:2.6131}.st3{clip-rule:evenodd}.st5{fill-rule:evenodd;fill:none;stroke:#0ca551;stroke-width:.652;stroke-linecap:round;stroke-linejoin:round;stroke-miterlimit:2.6131}.st5,.st6{clip-rule:evenodd}.st6{fill-rule:evenodd;fill:#231f20}.st7{fill-rule:evenodd;fill:#0d4f9e}.st7,.st8{clip-rule:evenodd}.st8{fill-rule:evenodd;fill:#d54e2e}.st9{stroke:#0d4f9e;stroke-width:1.1339;stroke-miterlimit:2.6131}.st9,.st10{fill-rule:evenodd;clip-rule:evenodd;fill:none}.st10{stroke:#0d4f9e;stroke-width:.652;stroke-linecap:round;stroke-linejoin:round;stroke-miterlimit:2.6131}.st11{fill-rule:evenodd;fill:none;stroke:#0d4f9e;stroke-width:.6523;stroke-linecap:round;stroke-linejoin:round;stroke-miterlimit:2.6131}.st11,.st12{clip-rule:evenodd}.st12{fill-rule:evenodd;fill:#0ca551}.st13{fill-rule:evenodd;fill:none;stroke:#0d4f9e;stroke-width:.8504;stroke-linecap:round;stroke-linejoin:round;stroke-miterlimit:2.6131}.st13,.st14{clip-rule:evenodd}.st14{fill-rule:evenodd;fill:#e52529;stroke:#0d4f9e;stroke-width:.6523;stroke-linecap:round;stroke-linejoin:round;stroke-miterlimit:2.6131}.st15{stroke:#0ca551;stroke-width:.5669;stroke-linecap:round;stroke-linejoin:round;stroke-miterlimit:2.6131}.st15,.st16{fill-rule:evenodd;clip-rule:evenodd;fill:none}.st16{stroke:#0d4f9e;stroke-width:.5669;stroke-linecap:round;stroke-linejoin:round;stroke-miterlimit:2.6131}.st17{fill-rule:evenodd;clip-rule:evenodd;fill:#e52529;stroke:#0ca551;stroke-width:.6523;stroke-linecap:round;stroke-linejoin:round;stroke-miterlimit:2.6131}.st19{fill:#231f20}</style><g id="Calque_2"><path id="XMLID_15_" d="M99.3 5.3v140.9c0 2.9-2.3 5.2-5.2 5.2H5.3c-2.9 0-5.2-2.3-5.2-5.2V5.3C.1 2.4 2.4.1 5.3.1H94c2.9 0 5.3 2.4 5.3 5.2z" style="fill:#fff;stroke:#000;stroke-width:.25;stroke-miterlimit:2.6131"/></g><g id="Calque_1"><g id="XMLID_14_"><path id="XMLID_289_" class="st1" d="m71.1 66.1 2.1-6.6 1.5-.2-.4 6.5-3.5.3z"/><path id="XMLID_288_" class="st2" d="m73.1 50.7 1.2-1v10.9c-1.3 1.2-2.2 2.3-2.7 5.3L69.2 67l-4.8-2c1.5-5.9 4.8-10.4 8.7-14.3z"/><path id="XMLID_287_" class="st3" d="M74.2 60.6s-2.1 1.7-2.7 5"/><path id="XMLID_286_" style="fill-rule:evenodd;fill:#e32285;clip-rule:evenodd" d="m28.6 85.9-2.1 6.6-1.5.2.6-6.5 3.3-.4z"/><path id="XMLID_285_" class="st2" d="m26.6 101.3-1.2 1V91.4c1.3-1.2 2.2-2.3 2.7-5.3l2.2-1.1 4.8 2c-1.3 5.9-4.6 10.4-8.5 14.3z"/><path id="XMLID_284_" class="st3" d="M25.4 91.4s2.1-1.7 2.7-5"/><path id="XMLID_283_" class="st2" d="m66.5 135.7-8.7-14.4c-7.9 1.4-16.6 3-25.9.9l-8.3 13.5h42.9z"/><path id="XMLID_282_" class="st5" d="M66.5 64.6s3.1-8.4 7.7-12.2"/><path id="XMLID_281_" class="st5" d="M69.8 66.5s2.5-6.4 4.5-8.1"/><path id="XMLID_280_" class="st5" d="M70.1 65.7s-.9-2 1-2.4"/><path id="XMLID_279_" class="st5" d="M68.2 65.5s.9-3.6 3.6-3.4"/><path id="XMLID_278_" class="st2" d="m53 51.8 1.5-1.7.5 2.5 2.5 1.1 2.1-.4 3.8-1.3 1.2.7-6.4 14.2-1.1 3.6-5.4-.3L53 62l2-5.1 1-2.3z"/><path id="XMLID_277_" class="st6" d="M40.5 48.2s1.9-.1 2.8-1.1c.3-.5.8-.2 1-.4 0 0 0 1.2.8 1.6.8.4 2.9.6 3.5.2-.1 2.9 3.2 3.4 5.1 2.6.1 1.5 1 2.5 2.9 3.1-2.6 4.7-3.5 10-4 15.5l4.4-.2c1-5.9 3.3-12.1 7-17.1 1.4 0 2.9-.2 3.1-2.7 0-.3-.7-.4-.2-.5 3.7-.4 2.5-2.4 2.5-3.4l4.3 2.5.1 2c-3.2 3.2-6.2 7.6-8.6 13.4l5.1 2.7c-.9 2.3.5 3.8 2.3 2.7 0 3-.1 5.1 1.2 7 1 1.5 2.9 1.7 5.4.6 1.4.3 2 .1 1.6-1.4.7-.7.4-1.8.3-2.3.7-2-.2-.8.1-3-.1-.7-1.1-.9-1.1-1.2 0-.3-.1-.9-.3-1l-6.1-.1v-.6l8.9.5v19.7c-.6 1.5-4.6-2.2-7.7-7.1-1.3-2-2.1-4.9-2.5-6.8l-8.2-4.2c-2.3 4.8-2.8 19.6 8 32.8l-5.7 2.8c-5.1-7.1-8-13.9-8.9-21.8l-.6-3.7H41.7l-.1-9.6h4.9c-.4-8.1-2.7-15.3-6-21.5z"/><path class="st7" d="M72.5 69.2c0 3-.1 5.1 1.2 7 1 1.5 2.9 1.7 5.4.6 1.4.3 2 .1 1.6-1.4.7-.7.4-1.8.3-2.3.7-2-.2-.8.1-3-.1-.7-1.1-.9-1.1-1.2 0-.3-.1-.9-.3-1l-6.1-.1-1.1 1.4zm.3 2s-.2-1.5.3-2 .8-1 2.5-1h1.9s.7.7 1.1.8c.4.1.5.2.5.2s-1.4.5-1.7.4c-.2-.2-.3.7-.9.7-.6 0-1.1.2-1.1.2s.2.1.5.5.2.9.1 1.6c-.1.7.2 1.1.4 1.2.2.1.4.2.2.9s-.3.9-.3.9.4.2.5-.1c.2-.3 0-.5.4-.4.4.1.9.7 1 1 .1.3.5.3-.1.6s-3 1.3-4.1-.5c-1-1.7-1.2-4.8-1.2-5zm4.5-.5s.2 0 .7.2c.5.1.7.7.6.9-.1.3-1 .2-1.2 0-.3-.2-.1-.2-.2-.5-.3-.2.1-.6.1-.6zm.1-.5s1.5-.4 1.9-.5c.4-.1.4-.3.4-.3s-.1-.2.4.2.6.1.7.6c.1.5.1.7-.3.8-.4.1-1.7.5-1.7.5s.1-.5-.5-.8c-.7-.3-.8-.5-.9-.5zm1.1 2.5s-.1-.4.3-.8 1.7-.6 1.7-.6 0 .5.2.6c.2.1.3-.2.2.3-.1.5.1.6-.2.8-.3.1-1.8 1-1.9.6-.2-.4-.3-.6-.3-.9zm.1 2.3c.3-.1-.3-.9.2-1 .5-.2 1.2-.2 1.3-.4.2-.1.3-.2.4-.3.1-.1-.1.2-.1.5.1.2.1.4.3.6.1.2.1.6-.2.9-.2.2-.3 0-.9 0-.6-.1-1.4-.2-1-.3zm-.1.8s-.1 0-.2-.2c-.1-.1.1-.3.6-.1.6.2.4.3.2.5-.2.3-.6.5-.6.2.1-.4 0-.4 0-.4zm1.1.6c.1 0-.3-.8.3-.8s.8.1.7.2c-.1 0-.2.2-.1.4 0 .2.1.4 0 .4-.2-.1-1.1-.1-.9-.2zm-2.3-1.9s-.5-.5.1-.5c.6-.1.9.1.9.1l-.1.7s-.6.3-.7.1c-.1-.2-.1-.3-.2-.4zm-.6-1.2s-.1-.4.2-.7c.3-.3.4-.3.7-.3.3.1.8.6.6 1-.2.3-.9.4-1.2.3-.3-.1-.2-.2-.3-.3zm1.3-5 1.1.1s.4.1.4.3c-.1.2-.3.4-.4.3-.1-.1-.9-.4-1.1-.7z"/><path id="XMLID_265_" class="st8" d="M69 49.5c-.1-.6.9-1.9 1.5-.5.1 1.5-.5 1.3-1.6 2.2-.2-.2-4.4 1.9-5.6 3.6-.4.5-.5 1-.1 1.4 1.2 0 .6-.6.9-1.2.3-.7 1.7-1 2-.8.6.4.1 1.2-.8 2.2-.9.7-4.8 4.7-5 5.3-.1.6-.1 1.5.3 1.4.5-.1.5-.2.4-.7-.1-.5-.1-.7.4-1.1.5-.3 1.7-.6 1.6.3.2.8-3.3 4.7-4.9 7.1-.3.2-.2 1.9.6 1.6.7-.4-.2-.6-.2-.9 0 0 .3-.7 1-1 .4 0 1.5-.3 1.2 1.1-.1.5-.4 1-.8 1.9-1 2.2-2 3.8-2.4 4.7-.3.7-.5 1.3 0 2.2.3.5.8.2.8-.2.1-.4-.6-1-.1-1.6.7-.6 1.4-1 2-.1.6.9-.2 1.8-.9 3.2-.7 1.5-1.7 4.8-1.2 5.2.3 1.2 1.4 1.2 1.1.2-.6-.5-.7-1 0-1.4.7-.2 1.3.3 1.1 1.4-.2 1.1-.5 4.4-.3 5.7.2 1.3.8 2.1.8 2.1.4.4 1 .1.6-.8-.6 0-1.3-1.3-.4-1.8.6-.2 1.3-.3 1.7.7.7 1.1.3 4.7.3 6 .4 1.4.7 2.6 1.7 2 .8-.6-.5-.8-.7-1.4.1-.5.2-.9.5-1.1.8-.1 2 .5 1.7 3 .3 3.6.9 4 1.2 5.1l1.1-.4s-.8-.8-.7-1.4c.1-.4 0-1 1-.8.5.2 1 1.4 1 1.4l.9-.6s-.5-1.5-1.5-1.9c-1.4-.5-1.6.2-2 .3 0 0-.2-1.6-.2-3.9-.9-3.5-3-2.4-3-2.4s.6-3.9-.1-5.3c-.6-1.3-2.5-1.3-2.8-.6.1-1.8.8-3.7.9-5.5 0-1.1-.9-1.6-2.6-1.6.6-1.9 1.6-3 2.2-4.2.8-1.5 0-3.5-1.8-3.6.9-1.2 1.6-2.2 2.1-3 1-1.8 1.8-4-1.2-4.4 1.5-1.4 3.1-3.1 4.3-4.7.9-1.9.1-2.5-1.4-2.4-.1-.4 1.9-2 2.8-2.5 2.6-1.8 2.3-3 1.6-4 2.1-.9 3.4-1.9 4-2.5 1-1.1.6-2.4-.5-3-.9-.4-1.4-.4-2.1.2-1.2 1-1.7 2-1.1 2.3.3.3.8 0 .7-.5z"/><path id="XMLID_264_" class="st2" d="m33.2 16.2 8.7 14.4c7.9-1.4 16.6-3 25.9-.9l8.3-13.5H33.2z"/><path id="XMLID_263_" class="st6" d="m41.1 29.6-1.2-2.5 5.2-1.2.7.8.8-1 6.9-.7.7.9 1-.9 6.7.4.5.7 1.3-.6 5.7 1.2-1.2 2.1c.3-1.1-22.1-2.5-27.1.8z"/><path id="XMLID_262_" class="st1" d="m40.6 28.2 1.1 2c5.7-1.2 16-2.7 26.1-.8l.6-2c-3.1-.7-8-1.5-12.8-1.3-4.7.3-11.2 1-15 2.1z"/><path class="st6" d="m58.8 21.1 2 3.5h-4.3l2.3-3.5zm-.1 1.5-.8 1.2h1.5l-.7-1.2zM68.4 22.1l1.1 3.8-4.2-1.1 3.1-2.7zm-.5 1.5-1 .9 1.4.4-.4-1.3zM49.5 21.1l2.3 3.3-4.3.3 2-3.6zm.1 1.6-.7 1.2 1.5-.1-.8-1.1zM39.9 22.9l2.8 2.8-3.4 1-.5-.9 1.1-2.9zm.4 1.5-.5 1.3 1.4-.4-.9-.9z"/><path id="XMLID_253_" class="st6" d="M58.9 18.6c-.5 0-.9.4-.9.8 0 .5.4.8.9.8s.9-.4.9-.8-.4-.8-.9-.8z"/><ellipse id="XMLID_252_" transform="rotate(-75.682 68.946 20.53)" class="st6" cx="68.9" cy="20.5" rx=".8" ry=".9"/><ellipse id="XMLID_251_" transform="matrix(-.08543 -.9963 .9963 -.08543 34.368 70.433)" class="st6" cx="49.5" cy="19.4" rx=".8" ry=".9"/><ellipse id="XMLID_250_" transform="scale(-1) rotate(75.291 27.55 -51.415)" class="st6" cx="39.7" cy="21.3" rx=".8" ry=".9"/><circle id="XMLID_249_" class="st6" cx="63.4" cy="21.7" r=".7"/><circle id="XMLID_248_" transform="rotate(-97.47 54.273 21.131)" class="st6" cx="54.3" cy="21.1" r=".7"/><circle id="XMLID_247_" transform="scale(-1) rotate(72.734 30.024 -60.619)" class="st6" cx="44.6" cy="22.1" r=".7"/><path id="XMLID_246_" class="st6" d="M60.9 22.1c1.9 1.7 4.8 1.2 4.9 1-1 1.1-1.9 1.6-2.9 1.5-1.2-.2-1.8-1.4-2-2.5z"/><path id="XMLID_245_" class="st6" d="M51.8 21.9c2.1 1.5 4.9.6 4.9.3-.8 1.2-1.6 1.8-2.7 1.8s-1.9-1.1-2.2-2.1z"/><path id="XMLID_244_" class="st6" d="M42.3 23.2c2.3 1.1 4.9-.2 4.9-.5-.6 1.3-1.3 2.1-2.3 2.3-1.1.2-2.1-.8-2.6-1.8z"/><path id="XMLID_243_" class="st9" d="m76.1 15.9-8.5 13.9c-9.2-2.1-17.9-.7-25.8.8l-8.6-14.7"/><path id="XMLID_242_" class="st6" d="M26.6 37.9c-.1 1.4-.4 4.3-1.5 5.5h4.1s-2-4.3-1.1-6.3c.5-1 .7-.3.9.7.6 3.4 5.7 3.3 6.6.2.9-3-.7-5.8-3.6-9.3-2.9-3.5-4.2-6.4-4.8-8.2-.6 3.2-5.2 8.9-7.2 12-2 3.1-1.2 6.6 1 7.5 2.3 1 4.6-.9 4.8-2.7.2-1.3.9 0 .8.6z"/><path id="XMLID_241_" class="st6" d="M72.1 114.7c.1-1.4.4-4.3 1.5-5.5h-4.1s2 4.3 1.1 6.3c-.5 1-.7.3-.9-.7-.6-3.4-5.7-3.3-6.6-.2-.9 3 .7 5.8 3.6 9.3 2.9 3.5 4.2 6.4 4.8 8.2.6-3.2 5.2-8.9 7.2-12 2-3.1 1.2-6.6-1-7.5-2.3-1-4.6.9-4.8 2.7-.1 1.3-.8 0-.8-.6z"/><path id="XMLID_240_" class="st10" d="M36.6 44.4s2.6-4.1 3.5-6.6c.9-2.5 2.1-7.4 1.9-7.3"/><path id="XMLID_239_" class="st11" d="M41.7 46.8s1.1 1.1 2.5-.8c1.4-1.9 5-15.5 4.7-16.5"/><path id="XMLID_238_" class="st10" d="M44.2 46c.1.2 1.7.4 3-3.7 1.2-4.1 3.2-13 3-13.1"/><path id="XMLID_237_" class="st10" d="M45.6 45.3c-.1.4 1.7.3 3.2-4.7 1.6-4.9 2.5-11.5 2.5-11.5"/><path id="XMLID_236_" class="st10" d="m49.5 41.1-1.6 3.8"/><path id="XMLID_235_" class="st10" d="M46.6 45.2s.5 2.1 1.9.2c1.4-1.9 1.6-3.1 1.6-3.1"/><path id="XMLID_234_" class="st10" d="M45.6 45.4s1.2 2.6 2.9 1.2c1.6-1.4 2.2-3.6 2.2-3.6"/><path id="XMLID_233_" class="st10" d="M44.9 45.7c.9 3.5 4.5 2.3 5.2.8.7-1.5 1.3-2.7 1.1-2.7"/><path id="XMLID_232_" class="st10" d="M49.4 47.6s-.3 2.2 1.1 2.8c1.4.6 2.6.7 3.4.1.8-.6 2-2.9 2-2.9"/><path id="XMLID_231_" class="st10" d="M52.6 45.2s-.7 1.3-.8 1.9c-.1.6.2 2.5 1.3 1.4s1.1-2 1.1-2"/><path id="XMLID_230_" class="st10" d="M51.9 44.6s-1.1 2.6-1.2 3.4c-.1.8.5 2 1.4 2 .9 0 1.5 0 2.1-.9.5-.9.9-1.9.9-1.9"/><path id="XMLID_229_" class="st10" d="M56.5 48c-.6 1.3-1.2 4.6 1.1 4.4 1.3-.1 2.5-1.7 2.7-2.9"/><path id="XMLID_228_" class="st11" d="M57.5 48.5s-1.2 1.3-.5 2.2c.6.9 1.9-.1 2.2-1.6"/><path id="XMLID_227_" class="st10" d="M67.6 30c-.1 3.9-.1 8.4-.5 13.2-1.5 4.3-3.4 5.8-5.4 5.9"/><path id="XMLID_226_" class="st10" d="M63.6 48.6s.8 1.9 1.4 1.6c.6-.2-.2-2.2-.4-2.6"/><path id="XMLID_225_" class="st10" d="M62.6 48.9s.9 3.4 2.6 2.5c1.6-.8.7-2.9-.1-4.2"/><path id="XMLID_224_" class="st10" d="M66.6 47.3s.7.4.6-.9c-.1-1.3-.5-2.1-.5-2.1l.3-.9s1.1 1.4 1.2 2.3c.1.9 1.1 2.3-1.5 2.7"/><path id="XMLID_223_" class="st10" d="M66.8 49.1c3.5.6 3-4.3 1.5-5.6-1.5-1.3-1.1-1.8-1.1-1.8"/><path id="XMLID_222_" class="st10" d="M67.3 38.7s1.2 1.7 1 4.6"/><path id="XMLID_221_" class="st10" d="M67.5 36.1s1.5 1.9 1.6 3.2c.2 1.2.5 3-.1 4.8"/><path class="st7" d="M56.7 37.4c1.9-.9 2.4-1.9 2.4-2.1 0-.3-.2-.8-.1-1 .1-.2.2-.4.4-.6.2-.2-.3-.5-.4-.4 0 .1-.1.1-.4 0-.3-.1-.5-.5-1.6-.5-1.1-.1-1.5 0-2.5.5-1 .4-2.4 1.7-2.4 1.7s.2.5 1 .5c.9 0 .6.1 1.1.4.2.3 1.8.5 2.6.6.3 0 .2 0 .6.1l-.7.8zm-3.8-2.8s1-.8 2.4-1.3 2.7 0 2.7 0 .6.4.1.5c-.5.1-1.6-.1-3 .4s-1.8.8-1.8.8-.7 0-.4-.4zm2.4.3h.7s0 .7.6.7.4-.7.6-.7h.5c-.3.8-.4 1.2-1.3 1.1-.7-.1-1.2-.9-1.1-1.1zm-1.3.3s.9-.2 1-.2c.2 0 0 .3.1.5.1.1-.5.1-.7-.1-.2-.2-.4-.2-.4-.2zm4-.3c.1 0 .4 0 .5.2 0 .4-.2.4-.3.6-.1.2-.5.2-.5.2s0-.4.1-.4c.2-.1.2-.6.2-.6zm4.5-2.5s0-1 .4-.9c.4.1 1 .2 1.7-.1.7-.3.6-.1 1.3-.1.7 0 .3 0 .8.1s.9.3.9.3l.1 1.2.7.4s-.2.8-.6.9c-.3.1-.3.7-.3.7s.5 1-.1 1.1c-.6.1-1.2.5-2.7.3-1.5-.1-1.2.1-1.2.3.1.2.1 1.4.2 1.7.1.3.3.8.3 1.1 0 .3-.3.9-.7.9-.4 0-.7-.1-.3-.4.4-.3.4-.2.4-.6 0-.4-.5-2.7-.7-3.4-.2-.7-.4-2-.3-2.5.2-.2.3-.3.1-1zm.8 1.3c.5-1.3 3.7-.7 3.9-.6l-.1-.4c.1 0-.4-.4-1.6-.4-1-.1-1.4.1-2.1.2-.7.1-.2.5-.4.7-.1.3.3.5.3.5zm.5.6s.4-.2 1.1-.4c.8-.2 2.2.1 2.2.1s.1-.3-.3-.5-.9-.2-1.5-.2-.7-.1-1.5.5 0 .5 0 .5zm.6.7c0 .3.2.6.3.8.1.2 1 .3 1.3.2.3-.2.5-1.2.5-1.2l-.5-.1s.1.2 0 .7c-.1.4-.9.4-1.1.2-.3-.2-.2-.7-.2-.7l-.3.1zm-.4 0-.7.2s-.2.1 0 .3c.2.2 0 .4.5.4.4.1.3-.4.2-.9zm2.6.4c.2 0 .2.1.5.1l.2-.4s-.2-.3-.5-.2c-.3.1-.2.5-.2.5zM59.1 39c-.1-.1-.7 1.2 0 1.4.6.1.5.1 1.2-.3.8-.4.8-.4 1.1-.3.3.1.5.5.2.6-.3.1-.8 0-1 .3-.3.3-1.6.4-2-.1-.1-.4-.8-1 .5-1.6zm-.8 4c.6-.3 2.2-.4 2.2-.7-.2-1.7-2.5.2-3.6.7-1.2.5-1.8-.4-1.5-1.1.3-.7 1.2-1.1 1.1-1.1-.1 0-1.5.6-1.6 1.1-.6 2.7 2.3 1.6 3.4 1.1zm5.3-.2c-.5-.2-1.5-.4-1.5-.7.2-1.5 1.5-.1 2.4.3.6.3 1.7-.1 1.6-.8-.1-.7-.5-.7-.5-.7.1 0 .8.5.9.9.1 2-2.2 1.4-2.9 1zm-5.3.8s.8-.1 1.4-.1c.4-.3 1.1-.4 1.2-.2.2.3.3.2.9-.1.7-.2.8.1.8.1l1.3.2.1.7s-.9-.4-1.7-.1c-.8.4-1.3.2-1.9.1-.6-.2-2.3.2-2.3.2l.2-.8zm4.2 1.5c-.9.4-2.6.2-2.6 0 0 0 .9.7 1.5.5.6-.2 1.1-.5 1.1-.5z"/><path id="XMLID_204_" class="st1" d="M54.2 68.4c0-.5 1.8-8.9 2.4-10.5.6-1.6 2.1-4.7 2.6-4.9.5-.2 2.3-3.9 2.3-3.9l1.6 3.1s-3.1 5.2-3.9 7.3c-.8 2.2-2.5 8.4-2.3 8.8 0 .4-2.7.2-2.7.1z"/><path id="XMLID_203_" class="st3" d="M63.1 52.2s-3.1 5.2-3.9 7.3c-.8 2.2-2.5 8.4-2.3 8.8 0 .4-2.7.2-2.7.1 0-.5 1.8-8.9 2.4-10.5.6-1.6 2.1-4.7 2.6-4.9"/><path class="st2" d="M47.5 61.4s-1.4.9-1 2c.4 1.1.8.8 1.1.8.3 0 .7-.6.3-1.2-.5-.4-.7-1.1-.4-1.6zm5.1-8s1.4-.7 2 .3c.6 1 .5 1.8-.6 1.8s-.9-.6-1.1-.8c-.1-.2-.4-.1-.8.4-.4.4-.9.5-.4-.7.7-1 .9-1 .9-1zm1 4.8c0 .3-.2.5-.5.5s-.5-.2-.5-.5.2-.5.5-.5c.3-.1.5.2.5.5zm-3.8 4.1c.3 0 .5-.2.5-.5s-.2-.5-.5-.5-.5.2-.5.5c0 .2.2.5.5.5zm0-2.9c.7 0 1.2-.5 1.2-1.2s-.5-1.2-1.2-1.2-1.2.5-1.2 1.2.6 1.2 1.2 1.2zm-3.5-1.2c0 .3.2.5.5.5s.5-.2.5-.5-.2-.5-.5-.5c-.3-.1-.5.2-.5.5zm6.8-1.6 1.4 1.6-1.2 1.5c-1.8-1.5-3.1.5-1.7 2l-1.6 2-1.8-2.1c1.1-.9 1.1-3.4-1.6-2.1l-1.2-1.4 1.4-1.6c.5.6.9.6 1.6.5 1.4-1.1.2-2.4-.1-3.2l1.6-1.4 1.7 1.5c-2 2.8.4 3.9 1.5 2.7zm-3.2-3.2c-.3 0-.5.2-.5.5s.2.5.5.5.5-.2.5-.5-.2-.5-.5-.5zm-5.7-2s-.4-1.1.7-1.3c.9-.6.4-1.1.2-1.3-.1-.2-1.8-.4-2.1.8-.3 1.2.2 2 .6 2.5.4.6 1.1 1.6 2.6 1.5 1.5 0 1.4-.2 1.6-.5.2-.3-.1-.3-.7-.2-.6 0-1.7.1-1.5-.8.3-.9.5-.6 1.1-.7.6-.1 1.2-.5.8-1.2-.4-.8-1.5-.5-1.8.2-.3.7-.7 1.4-.7 1.6.2.2-.8-.3-.8-.6z"/><path id="XMLID_193_" class="st2" d="m49.5 65.1-2 1.7c-.3 1.4.1 4.3-.9 4.3-.5-.2-2.1-.6-1.4 1.1.8.6 2.7 1 3.5-1.6l.2-2.8c.2-.5 1.1-.4 1.2.1-.2 2-.1 2.9.3 3.8.3 1.2 1 1.4 2.1 1.1 1.1-.6.9-2-.3-1.7-.8 0-.7-2.2-.8-3.8l-1.9-2.2z"/><circle id="XMLID_192_" class="st2" cx="76.9" cy="79.9" r="1.8"/><path id="XMLID_191_" class="st12" d="M78.6 79.7c-.4.9-.7.9-1.2.9-.2 0-.8-.3-1.1-1 .8.6.8.7 1.2.7.4 0 .6-.2 1.1-.6z"/><path id="XMLID_190_" class="st13" d="M74.4 65.2V28l3.2-3.1 3.2 3.2v37.7"/><path id="XMLID_189_" class="st7" d="m77 65.6.6-33.8.3 33.6z"/><path id="XMLID_188_" class="st2" d="m82.5 65.9-8-.6s-3.9.4-4.3 1.2c-.4.9-.8 2.3.2 2.7 1 .4 2 .5 2.4-.2.3-.7.7-1.8.7-1.8l8.9.4.1-1.7z"/><path id="XMLID_187_" class="st14" d="M65.3 70.2s-1.1 7.7-.5 8.2 3.8 3.6 4.7 5.5c.9 1.9 2.5 5.1 2 9.2-.6 4.1-1 3.8-1 3.8l3 4.4c3.7-1.7 6.7-3.9 9-6.7-11.1-6.5-14.7-14.9-16-23.8l-1.2-.6z"/><path id="XMLID_186_" class="st11" d="m65.6 105.5 7.8-4.2c3.7-1.7 6.7-3.9 9-6.7"/><path id="XMLID_185_" class="st7" d="M70.6 96.9c-.1-.2-.1.2-.2 0-3.5-5.2-5.2-12-5.7-18.6l.4.5.2 1.2 2.1 2.2-1.3 1-.5-.7c.2 1.3.3 2.1.8 2.5l.7-.2-.5-.9 1.6-.7 1.5 2.7-1.7.5-.3-.6-.7.4.7 2.4 1.1-.1-.3-1.3 1.6-.2c.3 1 .5 2.3.7 3.7h-1.7l-.1-1.1h-1l.1 1.9.8 1.7.1-1.5h1.6l-.6 3.9.6 1.3z"/><path id="XMLID_184_" class="st2" d="m82.6 88.4-.3.1c-2.4.6-5.7-4.7-7.5-6.7-1.8-2.1-3.3-8.5-3.3-8.5l-5.1-2.6s1.6 9.8 5.1 14.2c3.5 4.4 7.2 8.5 10.7 9.4l.4-5.9z"/><path id="XMLID_183_" class="st15" d="m82.6 88.4-.3.1c-2.4.6-5.7-4.7-7.5-6.7-1.8-2.1-3.3-8.5-3.3-8.5"/><path id="XMLID_182_" class="st16" d="M66.4 70.6s1.6 9.8 5.1 14.2c3.5 4.4 7.2 8.5 10.7 9.4"/><path id="XMLID_181_" class="st5" d="M67.7 71.3c1.4 10.8 6.8 17.4 14.7 21.6"/><path id="XMLID_180_" class="st12" d="M72.6 79.9c-1 .8-2.3.2-2.6.1-.3-.1-.6-1.1-.6-1.8-.1-.6 2-1.7 2-1.7-.4.5-.8 1.1-1 1.8l1.7-.2c.2 0 .2.4.1.5l-1.5.8c.2.5 1 .6 1.9.5z"/><path id="XMLID_179_" class="st12" d="M71.2 75.6c-1.1.8-2.3.1-2.6-.1-.3-.1-.5-1.2-.5-1.8 0-.6 1.9-1.5 1.9-1.5-.4.5-.7.9-.9 1.6l1.7-.1c.2.1.2.4 0 .5l-1.6.7c.2.6 1 .7 2 .7z"/><path id="XMLID_178_" class="st12" d="M75.1 83.7c-.9 1-2.3.6-2.6.5-.3-.1-.8-1-.9-1.6-.2-.6 1.7-2.1 1.7-2.1-.3.6-.6 1.2-.6 1.9l1.6-.5c.2 0 .3.4.1.5l-1.4 1c.3.6 1.1.5 2.1.3z"/><path id="XMLID_177_" class="st12" d="M78.1 87.3c-.7 1.1-2.1 1-2.4 1-.3 0-1-.9-1.2-1.4-.3-.6 1.3-2.3 1.3-2.3-.2.6-.4 1.3-.3 2l1.5-.8c.2 0 .4.3.2.5l-1.1 1.3c.4.3 1.2 0 2-.3z"/><path id="XMLID_176_" class="st12" d="M81.8 89.8c-.4 1.3-1.8 1.5-2.1 1.6-.3 0-1.1-.6-1.6-1.1-.4-.5.6-2.6.6-2.6 0 .7 0 1.4.3 2l1.3-1.1c.2-.1.4.2.3.4l-.8 1.5c.6.3 1.3-.2 2-.7z"/><path id="XMLID_175_" class="st5" d="M68.5 60.3s3.5.3 2.1-3.4"/><path id="XMLID_174_" class="st5" d="M68.1 61.4s5.8 1 3.2-5.4"/><path id="XMLID_173_" class="st12" d="M74.2 54.4c-2.4 2.2-.1 4.2 0 4.2v-4.2z"/><path id="XMLID_172_" class="st2" d="m32.5 47.8 1.8-.7.9.3.7.8 1.5-.3.8.5 1.2-.3h1.1c3.7 5.9 5.6 13.2 6.2 21.7h-5c-1.6-7.8-4.3-15.2-9.2-22z"/><path id="XMLID_171_" class="st17" d="M35.3 47.8c3.4 5.5 6.4 11.6 7.4 20.4h3c-1-7.4-2.8-14.3-5.8-20.2l-1.8.2-.8-.2-2-.2z"/><path id="XMLID_170_" class="st5" d="M33.2 87.4s-3.1 8.4-7.7 12.2"/><path id="XMLID_169_" class="st5" d="M29.9 85.4s-2.5 6.4-4.5 8.1"/><path id="XMLID_168_" class="st3" d="M29.6 86.2s.9 2-1 2.4"/><path id="XMLID_167_" class="st5" d="M31.5 86.4s-.9 3.6-3.6 3.4"/><path id="XMLID_166_" class="st2" d="m46.4 100.2-1.4 1.7-.6-2.5-2.4-1-2.1.3-3.6 1.3-1.3-.7 6.3-13.9 1.1-3.5 5.3.3-1.3 8.1-2 4.9-.9 2.3z"/><path id="XMLID_165_" class="st6" d="M59.2 103.7s-1.9.1-2.8 1.1c-.3.5-.8.2-1 .4 0 0 0-1.2-.8-1.6-.8-.4-2.9-.6-3.5-.2.1-2.9-3.2-3.4-5.1-2.6-.1-1.5-1-2.5-2.9-3.1 2.6-4.7 3.5-10 4-15.5l-4.4.2c-1 5.9-3.3 12.1-7 17.1-1.4 0-2.9.2-3.1 2.7 0 .3.6.4.2.5-3.7.4-2.5 2.4-2.5 3.4l-4.3-2.5-.1-2c3.2-3.2 6.2-7.6 8.6-13.4l-5.1-2.7c.9-2.3-.5-3.8-2.3-2.7 0-3 .1-5.1-1.2-7-1-1.5-2.9-1.7-5.4-.6-1.4-.3-2-.1-1.6 1.4-.7.7-.4 1.8-.3 2.3-.7 2 .2.8-.1 3 .1.7 1.1.9 1.1 1.2 0 .3.1.9.3 1l6.1.1v.6l-9.3-.5V64.5c.6-1.5 5.3 1.8 8.6 7.9 1.2 2.1 1.5 4 2.1 6.2l8.2 4c2.3-4.8 2.8-19.6-8-32.8l5.7-2.8c5.1 7.1 8 14 8.9 21.8l.3 3.9h15.3l.1 10-3.9.4c.6 8.1 1.9 14.5 5.2 20.6z"/><path class="st7" d="M27.2 82.8c0-3 .1-5.1-1.2-7-1-1.5-2.9-1.7-5.4-.6-1.4-.3-2-.1-1.6 1.4-.7.7-.4 1.8-.3 2.3-.7 2 .2.8-.1 3 .1.7 1.1.9 1.1 1.2 0 .3.1.9.3 1l6.1.1 1.1-1.4zm-.3-2s.2 1.5-.3 2-.8 1-2.5 1-1.9-.1-1.9-.1-.7-.7-1.1-.8c-.4-.1-.5-.2-.5-.2s1.4-.5 1.7-.4c.3.2.4-.7.9-.7.6 0 1.1-.2 1.1-.2s-.3 0-.6-.4-.2-.9-.1-1.6c.1-.7-.2-1.1-.4-1.2-.2-.1-.4-.2-.2-.9s.3-.9.3-.9-.4-.2-.5.1c-.2.3 0 .5-.4.4-.4-.1-.9-.7-1-1-.1-.3-.5-.3.1-.6s3-1.3 4.1.5c1.1 1.7 1.3 4.8 1.3 5zm-4.5.5s-.2 0-.7-.2c-.5-.1-.7-.7-.6-.9.1-.3 1-.2 1.2 0 .3.2.1.2.2.5.2.2-.1.6-.1.6zm-.2.5s-1.5.4-1.9.5c-.3.1-.3.3-.3.3s.1.2-.4-.2-.6-.1-.7-.6c-.1-.5-.1-.7.3-.8.4-.1 1.7-.5 1.7-.5s-.1.5.5.8c.7.3.8.4.8.5zm-1-2.6s.1.4-.3.8-1.7.6-1.7.6 0-.5-.2-.6c-.2-.1-.3.2-.2-.3.1-.5-.1-.6.2-.8.3-.1 1.8-1 1.9-.6.1.5.3.6.3.9zm-.1-2.2c-.3.1.3.9-.2 1-.5.2-1.2.2-1.3.4-.2.1-.3.2-.4.3-.1.1.1-.2 0-.5s-.1-.4-.3-.6c-.1-.2-.1-.6.2-.9.2-.2.3 0 .9 0 .7 0 1.5.2 1.1.3zm.1-.8s.1 0 .2.2c.1.1-.1.3-.6.1-.6-.1-.4-.3-.2-.5.2-.3.6-.5.6-.2-.1.3 0 .4 0 .4zm-1.1-.7c-.1 0 .3.8-.3.8s-.8-.1-.7-.2c.1 0 .2-.2.1-.4 0-.2-.1-.4 0-.4.2.1 1 .2.9.2zm2.2 2s.5.4-.1.5c-.6.1-.9-.1-.9-.1l.1-.7s.6-.3.7-.1c.2.2.2.3.2.4zm.7 1.1s.1.4-.2.7c-.3.3-.4.3-.7.3-.3 0-.8-.6-.6-1 .2-.3.9-.4 1.2-.3.3.2.2.2.3.3zm-1.4 5.1-1.1-.1s-.4-.1-.4-.3c0-.2.3-.4.4-.2.2 0 1 .3 1.1.6z"/><path id="XMLID_153_" class="st8" d="M30.4 102.5c.1.6-.9 1.9-1.4.5-.1-1.5.4-1.3 1.5-2.2.2.2 4.1-1.9 5.3-3.6.3-.5.4-1 0-1.4-1.1 0-.5.6-.8 1.2-.3.7-1.6 1-1.9.8-.5-.4-.1-1.2.8-2.2.9-.7 4.6-4.7 4.7-5.3.1-.6.1-1.5-.3-1.4-.4.1-.4.2-.4.7.1.5.1.7-.4 1.1-.4.3-1.6.6-1.5-.3-.1-.8 3.2-4.7 4.6-7.1.3-.2.2-1.9-.6-1.6-.6.4.2.6.2.9 0 0-.3.7-1 1-.4 0-1.4.3-1.2-1.1.1-.5.4-1 .8-1.9 1-2.2 1.9-3.8 2.3-4.7.3-.7.4-1.3 0-2.2-.3-.5-.7-.2-.8.2-.1.4.5 1 .1 1.6-.6.6-1.3 1-1.8.1s.2-1.8.9-3.2c.7-1.5 1.6-4.8 1.1-5.2-.3-1.2-1.3-1.2-1.1-.2.5.5.7 1 0 1.4-.6.2-1.3-.3-1-1.4.2-1.1.4-4.4.3-5.7-.2-1.3-.8-2.1-.8-2.1-.4-.4-.9-.1-.5.8.5 0 1.2 1.3.4 1.8-.6.2-1.3.3-1.6-.7-.7-1.1-.3-4.7-.2-6-.4-1.4-.7-2.6-1.6-2-.7.6.5.8.6 1.4-.1.5-.2.9-.4 1.1-.7.1-1.9-.5-1.6-3-.2-3.6-.8-4-1.2-5.1l-1.1.4s.8.8.7 1.4c-.1.4 0 1-1 .8-.4-.2-.9-1.4-.9-1.4l-.9.6s.5 1.5 1.4 1.9c1.3.5 1.5-.2 1.9-.3 0 0 .1 1.6.2 3.9.8 3.5 2.8 2.4 2.8 2.4s-.5 3.9.1 5.3c.6 1.3 2.4 1.3 2.6.6-.1 1.8-.8 3.7-.9 5.5 0 1.1.8 1.6 2.4 1.6-.5 1.9-1.5 3-2 4.2-.7 1.5 0 3.5 1.7 3.6-.9 1.2-1.5 2.2-1.9 3-.9 1.8-1.7 4 1.1 4.4-1.4 1.4-2.9 3.1-4.1 4.7-.8 1.9-.1 2.5 1.4 2.4.1.4-1.8 2-2.6 2.5-2.5 1.7-2.2 2.9-1.5 3.9-1.9.9-3.2 1.9-3.8 2.5-1 1.1-.6 2.4.5 3 .8.4 1.3.4 2-.2 1.1-1 1.6-2 1.1-2.3-.3-.2-.7.1-.7.6z"/><path id="XMLID_152_" class="st6" d="m58.6 122.3 1.2 2.5-5.2 1.2-.7-.8-.8 1-6.9.7-.7-.9-1 .9-6.7-.4-.5-.7-1.3.6-5.7-1.2 1.2-2.1c-.3 1.2 22.1 2.6 27.1-.8z"/><path id="XMLID_151_" class="st1" d="m59 123.8-1.1-2c-5.7 1.2-16 2.7-26.1.8l-.6 2c3.1.7 8 1.5 12.8 1.3 4.8-.3 11.3-1.1 15-2.1z"/><path class="st6" d="m40.9 130.9-2-3.5h4.3l-2.3 3.5zm.1-1.6.8-1.2h-1.5l.7 1.2zM31.3 129.9l-1.1-3.8 4.2 1.1-3.1 2.7zm.4-1.5 1-.9-1.4-.4.4 1.3zM50.2 130.9l-2.3-3.3 4.3-.3-2 3.6zm-.1-1.6.7-1.2-1.5.1.8 1.1zM59.8 129.1l-2.8-2.8 3.4-1 .5.9-1.1 2.9zm-.4-1.5.5-1.3-1.4.4.9.9z"/><ellipse id="XMLID_142_" class="st6" cx="40.8" cy="132.5" rx=".9" ry=".8"/><ellipse id="XMLID_141_" transform="rotate(104.347 30.739 131.438)" class="st6" cx="30.7" cy="131.4" rx=".8" ry=".9"/><ellipse id="XMLID_140_" transform="rotate(85.067 50.17 132.522)" class="st6" cx="50.2" cy="132.5" rx=".8" ry=".9"/><ellipse id="XMLID_139_" transform="rotate(75.291 60.024 130.718)" class="st6" cx="60" cy="130.7" rx=".8" ry=".9"/><circle id="XMLID_138_" class="st6" cx="36.2" cy="130.3" r=".7"/><circle id="XMLID_137_" transform="rotate(82.519 45.407 130.838)" class="st6" cx="45.4" cy="130.8" r=".7"/><circle id="XMLID_136_" transform="rotate(72.734 55.045 129.867)" class="st6" cx="55" cy="129.9" r=".7"/><path id="XMLID_135_" class="st6" d="M38.8 129.9c-1.9-1.7-4.8-1.2-4.9-1 1-1.1 1.9-1.6 2.9-1.5 1.1.2 1.8 1.4 2 2.5z"/><path id="XMLID_134_" class="st6" d="M47.9 130.1c-2.1-1.5-4.9-.6-4.9-.3.8-1.2 1.6-1.9 2.7-1.8 1-.1 1.9 1.1 2.2 2.1z"/><path id="XMLID_133_" class="st6" d="M57.4 128.7c-2.3-1.1-4.9.2-4.9.5.6-1.3 1.3-2.1 2.3-2.3 1.1-.1 2.1.8 2.6 1.8z"/><path id="XMLID_132_" class="st9" d="m23.6 135.9 8.5-13.7c9.2 2.1 17.9.7 25.8-.8l8.3 14.1"/><path id="XMLID_131_" class="st10" d="M65.5 107.3c0 .1-.3-1.4-1.3-1.1-.9.2-1.3 1.5-.9 2.2 1.4 2.3 4.9-.6 3.1-2.6-1.3-1.4-1.8-.9-3.6-.2s-6.4 11-6.3 16.2"/><path id="XMLID_130_" class="st10" d="M63.1 107.6s-2.6 4.1-3.5 6.6c-.9 2.5-2.1 7.4-1.9 7.3"/><path id="XMLID_129_" class="st11" d="M58 105.1s-1.2-1.1-2.5.8c-1.4 1.9-5 15.5-4.7 16.5"/><path id="XMLID_128_" class="st10" d="M55.5 106c-.1-.2-1.7-.4-3 3.7-1.2 4.1-3.2 13-3 13.1"/><path id="XMLID_127_" class="st10" d="M54.1 106.7c.1-.4-1.7-.3-3.2 4.7-1.6 4.9-2.5 11.5-2.5 11.5"/><path id="XMLID_126_" class="st10" d="m50.1 110.8 1.6-3.8"/><path id="XMLID_125_" class="st10" d="M53.1 106.8s-.5-2.1-1.9-.2c-1.4 1.9-1.6 3.1-1.6 3.1"/><path id="XMLID_124_" class="st10" d="M54.1 106.5s-1.2-2.6-2.9-1.2c-1.6 1.4-2.2 3.6-2.2 3.6"/><path id="XMLID_123_" class="st10" d="M54.7 106.2c-.9-3.5-4.5-2.3-5.2-.8-.7 1.5-1.3 2.7-1.1 2.7"/><path id="XMLID_122_" class="st10" d="M50.2 104.4s.3-2.2-1.1-2.8c-1.4-.6-2.6-.7-3.4-.1-.8.6-2 2.9-2 2.9"/><path id="XMLID_121_" class="st10" d="M47.1 106.7s.7-1.3.8-1.9c.1-.6-.2-2.5-1.3-1.4s-1.1 2.1-1.1 2.1"/><path id="XMLID_120_" class="st10" d="M47.8 107.4s1.1-2.6 1.2-3.4c.1-.8-.5-2-1.4-2-.9 0-1.5 0-2.1.9-.5.9-.9 1.9-.9 1.9"/><path id="XMLID_119_" class="st10" d="M43.2 104c.6-1.3 1.2-4.6-1.1-4.4-1.3.1-2.5 1.7-2.7 2.9"/><path id="XMLID_118_" class="st11" d="M42.2 103.4s1.2-1.3.5-2.2c-.6-.9-1.9.1-2.2 1.6"/><path id="XMLID_117_" class="st10" d="M32.1 121.9c.1-3.9.1-8.4.5-13.2 1.5-4.3 3.4-5.8 5.4-5.9"/><path id="XMLID_116_" class="st10" d="M36.1 103.4s-.8-1.9-1.4-1.6c-.6.2.2 2.2.4 2.6"/><path id="XMLID_115_" class="st10" d="M37.1 103.1s-.9-3.4-2.6-2.5c-1.6.8-.7 2.9.1 4.2"/><path id="XMLID_114_" class="st10" d="M33.1 104.6s-.7-.4-.6.9c.1 1.3.5 2.1.5 2.1l-.3.9s-1.1-1.4-1.2-2.3c-.1-.9-1.1-2.3 1.5-2.7"/><path id="XMLID_113_" class="st10" d="M32.9 102.8c-3.5-.6-3 4.3-1.5 5.6 1.5 1.3 1.1 1.8 1.1 1.8"/><path id="XMLID_101_" class="st10" d="M32.4 113.3s-1.2-1.7-1-4.6"/><path id="XMLID_89_" class="st10" d="M32.2 115.9s-1.5-1.9-1.6-3.2c-.2-1.2-.5-3 .1-4.8"/><path class="st7" d="M43 114.6c-1.9.9-2.4 1.9-2.4 2.1 0 .3.2.8.1 1-.1.2-.2.4-.4.6-.2.2.3.5.4.4 0-.1.1-.1.4 0 .3.1.5.5 1.6.5 1.1.1 1.5 0 2.5-.5 1-.4 2.4-1.7 2.4-1.7s-.2-.5-1-.5c-.9 0-.6-.1-1.1-.4-.2-.3-1.8-.5-2.6-.6-.3 0-.2 0-.6-.1 0-.1.7-.8.7-.8zm3.7 2.8s-1 .8-2.4 1.3-2.7 0-2.7 0-.6-.4-.1-.5c.5-.1 1.6.1 3-.4s1.8-.8 1.8-.8.7-.1.4.4zm-2.3-.3h-.7s0-.7-.6-.7-.4.6-.6.7H42c.3-.8.4-1.2 1.3-1.1.6.1 1.2.9 1.1 1.1zm1.3-.3s-.9.2-1 .2c-.2 0 0-.3-.1-.5-.1-.1.5-.1.7.1.2.2.4.2.4.2zm-4 .3c-.1 0-.4 0-.5-.2 0-.4.2-.4.3-.6.1-.2.5-.2.5-.2s0 .4-.1.4c-.2.1-.2.6-.2.6zm-4.5 2.5s0 1-.4.9c-.4-.1-1-.2-1.7.1-.7.3-.6.1-1.3.1-.7 0-.3 0-.8-.1a4 4 0 0 1-.9-.3l-.1-1.2-.7-.4s.2-.8.6-.9c.3-.1.3-.7.3-.7s-.5-1 .1-1.1c.6-.1 1.2-.5 2.7-.3 1.5.1 1.2-.1 1.2-.3-.1-.2-.1-1.4-.2-1.7-.1-.3-.3-.8-.3-1.1 0-.3.3-.9.7-.9s.7.1.3.4c-.4.3-.4.2-.4.6 0 .4.5 2.7.7 3.4.2.7.4 2 .3 2.5-.2.2-.3.3-.1 1zm-.8-1.4c-.5 1.3-3.7.7-3.9.6l.1.4c-.1 0 .4.4 1.6.4 1 .1 1.4-.1 2.1-.2.7-.1.2-.5.4-.7.1-.3-.3-.5-.3-.5zm-.5-.5s-.4.2-1.1.4c-.8.2-2.2-.1-2.2-.1s-.1.3.3.5.9.2 1.5.2.7.1 1.5-.5 0-.5 0-.5zm-.6-.8c0-.3-.2-.6-.3-.8-.1-.2-1-.3-1.3-.2-.3.2-.5 1.2-.5 1.2l.4.1s-.1-.2 0-.7c.1-.4.9-.4 1.1-.2.3.2.2.7.2.7l.4-.1zm.4.1.7-.2s.2-.1 0-.3c-.2-.2 0-.4-.5-.4-.4-.1-.3.3-.2.9zm-2.6-.5c-.2 0-.2-.1-.5-.1l-.2.4s.2.3.5.2c.3-.1.2-.5.2-.5zm7.5-3.5c.1.1.7-1.2 0-1.4-.6-.1-.5-.1-1.2.3-.8.4-.8.4-1.1.3-.3-.1-.5-.5-.2-.6.3-.1.8 0 1-.3.3-.3 1.6-.4 2 .1.1.3.8 1-.5 1.6zm.8-4c-.6.3-2.2.4-2.2.7.2 1.7 2.5-.2 3.6-.7 1.2-.5 1.8.4 1.5 1.1-.3.7-1.2 1.1-1.1 1.1.1 0 1.5-.6 1.6-1.1.5-2.7-2.3-1.6-3.4-1.1zm-5.3.1c.5.2 1.5.4 1.5.7-.2 1.5-1.5.1-2.4-.3-.6-.3-1.7.1-1.6.8.1.7.5.7.5.7-.1 0-.8-.5-.9-.9-.1-2 2.1-1.3 2.9-1zm5.3-.7s-.8.1-1.4.1c-.4.3-1.1.4-1.2.2-.2-.3-.3-.2-.9.1-.7.2-.8-.1-.8-.1l-1.3-.2-.1-.7s.9.4 1.7.1c.8-.4 1.3-.2 1.9-.1.6.2 2.3-.2 2.3-.2l-.2.8zm-4.2-1.5c.9-.4 2.6-.2 2.6 0 0 0-.9-.7-1.5-.5-.7.2-1.1.5-1.1.5z"/><path id="XMLID_70_" class="st1" d="M45.2 84c0 .5-1.8 8.7-2.4 10.3-.6 1.6-2 4.6-2.6 4.8-.5.2-2.2 3.8-2.2 3.8l-1.5-3.1s3-5 3.8-7.2c.8-2.1 2.4-8.2 2.2-8.6.1-.3 2.7-.1 2.7 0z"/><path id="XMLID_69_" class="st3" d="M36.6 99.8s3-5 3.8-7.2c.8-2.1 2.4-8.2 2.2-8.6 0-.4 2.7-.2 2.7-.1 0 .5-1.8 8.7-2.4 10.3-.6 1.6-2 4.6-2.6 4.8"/><path class="st2" d="M51.9 91s1.3-.9.9-1.9c-.4-1.1-.8-.7-1-.8-.3 0-.7.6-.3 1.2.5.4.7 1.1.4 1.5zM47 98.7s-1.4.6-2-.3c-.6-1-.5-1.7.6-1.8 1 0 .9.6 1 .8.1.2.4.1.8-.3s.9-.5.3.6c-.5 1-.7 1-.7 1zm-1-4.6c0-.3.2-.5.5-.5s.5.2.5.5-.2.5-.5.5c-.3.1-.5-.2-.5-.5zm3.7-3.9c-.3 0-.5.2-.5.5s.2.5.5.5.5-.2.5-.5-.2-.5-.5-.5zm0 2.7c-.6 0-1.2.5-1.2 1.2 0 .6.5 1.2 1.2 1.2.6 0 1.2-.5 1.2-1.2-.1-.6-.6-1.2-1.2-1.2zm3.4 1.2c0-.3-.2-.5-.5-.5s-.6.3-.6.5c0 .3.2.5.5.5s.6-.2.6-.5zm-6.6 1.6-1.4-1.6 1.2-1.4c1.7 1.4 3-.5 1.6-1.9l1.6-2 1.8 2c-1 .9-1 3.3 1.5 2l1.2 1.3-1.4 1.6c-.4-.5-.9-.6-1.6-.5-1.3 1.1-.2 2.3.1 3.1l-1.6 1.4-1.7-1.5c2.1-2.7-.3-3.7-1.3-2.5zm3.1 3.1c.3 0 .5-.2.5-.5s-.2-.5-.5-.5-.5.2-.5.5c0 .2.2.5.5.5zm5.5 1.9s.4 1-.7 1.3c-.9.5-.4 1.1-.2 1.2.1.1 1.8.4 2-.8.2-1.2-.2-1.9-.6-2.5-.4-.5-1.1-1.5-2.5-1.5-1.5 0-1.4.2-1.6.4-.2.2.1.2.7.2.5 0 1.7-.1 1.4.8-.2.9-.5.5-1 .7-.6.1-1.1.4-.7 1.2.4.8 1.5.5 1.8-.2.3-.7.7-1.4.6-1.5-.1-.1.8.3.8.7z"/><path id="XMLID_59_" class="st2" d="m50 87.4 1.9-1.7c.3-1.4-.1-4.1.9-4.1.5.2 2 .6 1.4-1.1-.7-.6-2.6-1-3.3 1.6l-.2 2.7c-.2.5-1.1.4-1.1-.1.2-1.9.1-2.8-.3-3.6-.3-1.2-1-1.4-2-1.1-1 .5-.8 1.9.3 1.7.8 0 .7 2.1.8 3.7l1.6 2z"/><path id="XMLID_58_" class="st2" d="M22.8 73.9c-1 0-1.8-.8-1.8-1.8s.8-1.8 1.8-1.8 1.8.8 1.8 1.8-.8 1.8-1.8 1.8z"/><path id="XMLID_57_" class="st12" d="M21.1 72.3c.4-.9.7-.9 1.2-.9.2 0 .8.3 1.1 1-.8-.6-.8-.7-1.2-.7-.4 0-.7.2-1.1.6z"/><path id="XMLID_56_" class="st13" d="M25.3 86.7v37.2l-3.2 3.1-3.2-3.2V86.2"/><path id="XMLID_55_" class="st7" d="m22.6 86.4-.5 33.7-.3-33.5z"/><path id="XMLID_54_" class="st2" d="m16.9 86.1 8.3.6s3.9-.4 4.3-1.2c.4-.9.8-2.3-.2-2.7-1-.4-2-.5-2.4.2-.3.7-.7 1.8-.7 1.8l-9.2-.5-.1 1.8z"/><path id="XMLID_53_" class="st14" d="M34.4 81.8s1.1-7.7.5-8.2c-.6-.5-3.8-3.6-4.7-5.5-.9-1.9-2.5-5.1-2-9.2.6-4.1 1-3.8 1-3.8l-3-4.4c-3.7 1.7-6.7 3.9-9 6.7 11.1 6.5 14.7 14.9 16 23.8l1.2.6z"/><path id="XMLID_52_" class="st11" d="m34.1 46.5-7.8 4.2c-3.7 1.7-6.7 3.9-9 6.7"/><path id="XMLID_51_" class="st7" d="M29.1 55.1c.1.2.1-.2.2 0 3.5 5.2 5.2 12 5.7 18.6l-.4-.5-.1-1.2-2.1-2.2 1.3-1 .5.7c-.2-1.3-.3-2.1-.8-2.5l-.7.2.5.9-1.6.7-1.5-2.7 1.7-.5.3.6.7-.4-.7-2.4-1.1.1.3 1.3-1.6.2c-.3-1-.5-2.3-.7-3.7h1.7l.1 1.1h1l-.1-1.9-.7-1.7-.1 1.5h-1.6l.5-3.9-.7-1.3z"/><path id="XMLID_50_" class="st2" d="m17.1 63.6.3-.1c2.4-.6 5.7 4.7 7.5 6.7 1.8 2.1 3.3 8.5 3.3 8.5l5.1 2.6s-1.6-9.8-5.1-14.2c-3.5-4.4-7.8-8.9-11.2-9.8l.1 6.3z"/><path id="XMLID_49_" class="st15" d="m17.1 63.6.3-.1c2.4-.6 5.7 4.7 7.5 6.7 1.8 2.1 3.3 8.5 3.3 8.5"/><path id="XMLID_48_" class="st16" d="M33.3 81.4s-1.6-9.8-5.1-14.2c-3.5-4.4-7.8-8.9-11.2-9.8"/><path id="XMLID_47_" class="st5" d="M32 80.7c-1.4-10.8-6.8-17.4-14.7-21.6"/><path id="XMLID_46_" class="st12" d="M27 72c1-.8 2.3-.2 2.6-.1.3.1.6 1.1.6 1.8.1.6-2 1.7-2 1.7.4-.5.8-1.1 1-1.8l-1.7.2c-.2 0-.2-.4-.1-.5l1.5-.8c-.1-.5-.9-.5-1.9-.5z"/><path id="XMLID_45_" class="st12" d="M28.5 76.4c1.1-.8 2.3-.1 2.6.1.3.1.5 1.2.5 1.8 0 .6-1.9 1.5-1.9 1.5.4-.5.7-.9.9-1.6l-1.7.1c-.2-.1-.2-.4 0-.5l1.6-.7c-.2-.7-1.1-.7-2-.7z"/><path id="XMLID_44_" class="st12" d="M24.6 68.3c.9-1 2.3-.6 2.6-.5.3.1.8 1 .9 1.6.2.6-1.7 2.1-1.7 2.1.3-.6.6-1.2.6-1.9l-1.5.4c-.2 0-.3-.4-.1-.5l1.4-1c-.4-.5-1.3-.4-2.2-.2z"/><path id="XMLID_43_" class="st12" d="M21.5 64.7c.7-1.1 2.1-1 2.4-1 .3 0 .9.9 1.2 1.4.3.6-1.3 2.3-1.3 2.3.2-.6.4-1.3.3-2l-1.5.8c-.2 0-.4-.3-.2-.5l1.1-1.3c-.3-.3-1.1-.1-2 .3z"/><path id="XMLID_42_" class="st12" d="M17.9 62.2c.4-1.3 1.8-1.5 2.1-1.6.3 0 1.1.6 1.6 1.1.4.5-.6 2.6-.6 2.6 0-.7 0-1.4-.3-2l-1.3 1.1c-.2.1-.4-.2-.3-.4l.8-1.5c-.6-.3-1.3.1-2 .7z"/><path id="XMLID_41_" class="st5" d="M31.2 91.7s-3.5-.3-2.1 3.4"/><path id="XMLID_40_" class="st5" d="M31.6 90.6s-5.8-1-3.2 5.4"/><path id="XMLID_39_" class="st12" d="M25.4 97.6c2.4-2.2.1-4.2 0-4.2v4.2z"/><path id="XMLID_38_" class="st2" d="m67.2 104.2-1.7.7-.9-.3-.7-.8-1.5.3-.8-.5-1.1.3h-1.1c-3.7-5.8-5.5-13-6.1-21.3h5c1.4 7.6 4.1 14.9 8.9 21.6z"/><path id="XMLID_37_" class="st17" d="M64.4 104.1c-3.3-5.4-6.3-11.4-7.3-20.1h-2.9c1 7.3 2.7 14 5.7 19.9l1.7-.2.8.2 2 .2z"/><path id="XMLID_36_" class="st1" d="M42 73.7h14.8v5.7H42z"/><path id="XMLID_35_" class="st2" d="M49.5 73.8c1.5 0 2.7 1.2 2.7 2.7s-1.2 2.7-2.7 2.7c-1.5 0-2.7-1.2-2.7-2.7s1.2-2.7 2.7-2.7z"/><path id="XMLID_34_" class="st2" d="M49.5 74.7c1 0 1.9.8 1.9 1.9 0 1-.8 1.9-1.9 1.9-1 0-1.9-.8-1.9-1.9.1-1.1.9-1.9 1.9-1.9z"/><circle id="XMLID_33_" class="st6" cx="49.5" cy="76.6" r=".9"/><path id="XMLID_32_" class="st10" d="M62 49.1c-.2.9 1.4 5 4.4 2.8 1.3-.9.2-6-.7-5.8"/><path id="XMLID_31_" class="st10" d="M45.1 102.1s.2-2.5-1.1-3.1c-1.3-.6-2.2-1.4-3.5-.2-1.8 1.6-2.5 4.4-2.4 4.1"/><path id="XMLID_30_" class="st10" d="M37.7 102.9c.2-.9-1.4-5-4.4-2.8-1.3.9-.2 6 .7 5.8"/><path id="XMLID_29_" class="st10" d="M64.5 104.8s-.4-2.5-3.7.5c-3.3 3.1-6.2 16.5-5.9 16.5"/><path id="XMLID_28_" class="st10" d="M62.4 104.2s-1.1-2-3.6 1.8c-2.4 3.8-5.1 15.3-5.3 16.2"/><path id="XMLID_27_" class="st10" d="M60.4 104s-.9-1-3.1 1.9c-2.1 2.9-4.6 12.7-5.2 16.6"/><path id="XMLID_26_" class="st10" d="M34.2 44.7c0-.1.3 1.4 1.3 1.1.9-.2 1.3-1.5.9-2.2-1.4-2.3-4.9.6-3.1 2.6 1.3 1.4 1.8.9 3.6.2s6.4-11 6.3-16.2"/><path id="XMLID_25_" class="st10" d="M35.2 47.2s.4 2.5 3.7-.5c3.3-3.1 6.2-16.5 5.9-16.5"/><path id="XMLID_24_" class="st10" d="M37.3 47.8s1.1 2 3.6-1.8c2.4-3.8 5.1-15.3 5.3-16.2"/><path id="XMLID_23_" class="st10" d="M39.2 48s.9 1 3.1-1.9c2.1-2.9 4.6-12.7 5.2-16.6"/><path id="XMLID_22_" class="st10" d="M54.6 49.9s-.2 2.5 1.1 3.1c1.3.6 2 1.1 3.5.2 1.5-.9 2.1-4.1 2.1-4.1"/><path d="M17.2 136.5h65.6V15.1H16.7v121.4h.5zm.5-1V16.1h64.1v119.4H17.7z" style="fill:#0d4f9e"/><path id="XMLID_19_" class="st6" d="M15.6 22.5v1.9h-4.7v-1.9h1.7l-2.7-6.1-1.6 2.5v3.6h1.5v1.9h-5v-1.9h1.4V8.9H4.8V7.1h4.7v1.8H8.3v6.3l3.9-6.3h-1.3V7.1h4.7v1.8h-1l-3.4 5.5 3.6 8.1z"/><path id="XMLID_18_" class="st6" d="M83.8 129.1v-1.9h4.7v1.9h-1.7l2.7 6.1 1.6-2.6v-3.5h-1.5v-1.9h5v1.9h-1.4v13.6h1.4v1.8h-4.7v-1.8h1.2v-6.3l-3.9 6.3h1.3v1.8h-4.7v-1.8h1l3.5-5.5-3.7-8.1z"/><path id="XMLID_17_" class="st19" d="M8.7 40.1c.9-.9 1.1-2.7 1.1-3.1s-.1-.5-.1-.5c-.1 0-.2.1-.2.3-.2 1-.9 1.4-1.3 1.5-1.6.3-2.2-.8-2.3-1.1-.8-1.6 1-4 1.4-4.3 1.8-2.1 3-4.4 3-4.4s1.2 2.3 3 4.4c.3.4 2.2 2.8 1.4 4.3-.2.3-.7 1.3-2.3 1.1-.4-.1-1.1-.5-1.3-1.5 0-.2-.1-.3-.2-.3s-.2.1-.1.5.2 2.2 1.1 3.1H8.7z"/><path id="XMLID_16_" class="st19" d="M90.7 111.6c-.9.9-1.1 2.7-1.1 3.1-.1.4.1.5.1.5.1 0 .2-.1.2-.3.2-1 .9-1.4 1.3-1.5 1.6-.3 2.2.8 2.3 1.1.8 1.6-1 4-1.3 4.3-1.8 2.1-3 4.4-3 4.4s-1.2-2.3-3-4.4c-.3-.4-2.2-2.8-1.4-4.3.2-.3.7-1.3 2.3-1.1.3.1 1.1.5 1.3 1.5 0 .2.1.3.2.3s.2-.1.2-.5c-.1-.4-.2-2.2-1.1-3.1h3z"/></g></g></svg>