<svg xmlns="http://www.w3.org/2000/svg" viewBox="0 0 99.4 151.6" style="enable-background:new 0 0 99.4 151.6" xml:space="preserve"><style>.st1{fill-rule:evenodd;clip-rule:evenodd}.st1{fill:#231f20}</style><g id="Calque_2"><path id="XMLID_15_" d="M99.3 5.3v140.9c0 2.9-2.3 5.2-5.2 5.2H5.3c-2.9 0-5.2-2.3-5.2-5.2V5.3C.1 2.4 2.4.1 5.3.1H94c2.9 0 5.3 2.4 5.3 5.2z" style="fill:#fff;stroke:#000;stroke-width:.25;stroke-miterlimit:2.6131"/></g><g id="Calque_1"><path id="XMLID_31_" class="st1" d="M27.6 16s-1.9 3.9-5 8.1c-3.4 4.5-5.2 7-5.2 10.3 0 2.8 2.2 4.7 4.3 4.7 2.1 0 3.5-.8 4.2-3.5.3-1.1.9-.9.8.3-.2 1.4-.2 4.6-2.5 7.4H31c-2.3-2.8-2.3-6-2.5-7.4-.2-1.2.5-1.4.8-.3.7 2.8 2.1 3.5 4.2 3.5s4.3-1.8 4.3-4.7c0-3.3-1.8-5.9-5.2-10.3-3.1-4.2-5-8.1-5-8.1z"/><path id="XMLID_30_" class="st1" d="M71.8 16s-1.9 3.9-5 8.1c-3.4 4.5-5.2 7-5.2 10.3 0 2.8 2.2 4.7 4.3 4.7 2.1 0 3.5-.8 4.2-3.5.3-1.1.9-.9.8.3-.2 1.4-.2 4.6-2.5 7.4h6.9c-2.3-2.8-2.3-6-2.5-7.4-.2-1.2.5-1.4.8-.3.7 2.8 2.1 3.5 4.2 3.5s4.3-1.8 4.3-4.7c0-3.3-1.8-5.9-5.2-10.3-3.2-4.2-5.1-8.1-5.1-8.1z"/><path id="XMLID_29_" class="st1" d="M27.6 46.7s-1.9 3.9-5 8.1c-3.4 4.5-5.2 7-5.2 10.3 0 2.8 2.2 4.7 4.3 4.7 2.1 0 3.5-.8 4.2-3.5.3-1.1.9-.9.8.3-.2 1.4-.2 4.6-2.5 7.4H31c-2.3-2.8-2.3-6-2.5-7.4-.2-1.2.5-1.4.8-.3.7 2.8 2.1 3.5 4.2 3.5s4.3-1.8 4.3-4.7c0-3.3-1.8-5.9-5.2-10.3-3.1-4.1-5-8.1-5-8.1z"/><path id="XMLID_28_" class="st1" d="M71.8 46.7s-1.9 3.9-5 8.1c-3.4 4.5-5.2 7-5.2 10.3 0 2.8 2.2 4.7 4.3 4.7 2.1 0 3.5-.8 4.2-3.5.3-1.1.9-.9.8.3-.2 1.4-.2 4.6-2.5 7.4h6.9c-2.3-2.8-2.3-6-2.5-7.4-.2-1.2.5-1.4.8-.3.7 2.8 2.1 3.5 4.2 3.5s4.3-1.8 4.3-4.7c0-3.3-1.8-5.9-5.2-10.3-3.2-4.1-5.1-8.1-5.1-8.1z"/><path id="XMLID_27_" class="st1" d="M71.8 135.6s1.9-3.9 5-8.1c3.4-4.5 5.2-7 5.2-10.3 0-2.8-2.2-4.7-4.3-4.7-2.1 0-3.5.8-4.2 3.5-.3 1.1-.9.9-.8-.3.2-1.4.2-4.6 2.5-7.4h-6.9c2.3 2.8 2.3 6 2.5 7.4.2 1.2-.5 1.4-.8.3-.7-2.8-2.1-3.5-4.2-3.5s-4.3 1.8-4.3 4.7c0 3.3 1.8 5.9 5.2 10.3 3.2 4.2 5.1 8.1 5.1 8.1z"/><path id="XMLID_26_" class="st1" d="M27.6 135.6s1.9-3.9 5-8.1c3.4-4.5 5.2-7 5.2-10.3 0-2.8-2.2-4.7-4.3-4.7-2.1 0-3.5.8-4.2 3.5-.3 1.1-.9.9-.8-.3.2-1.4.2-4.6 2.5-7.4h-6.9c2.3 2.8 2.3 6 2.5 7.4.2 1.2-.5 1.4-.8.3-.7-2.8-2.1-3.5-4.2-3.5s-4.3 1.8-4.3 4.7c0 3.3 1.8 5.9 5.2 10.3 3.3 4.2 5.1 8.1 5.1 8.1z"/><path id="XMLID_25_" class="st1" d="M71.8 104.9s1.9-3.9 5-8.1c3.4-4.5 5.2-7 5.2-10.3 0-2.8-2.2-4.7-4.3-4.7-2.1 0-3.5.8-4.2 3.5-.3 1.1-.9.9-.8-.3.2-1.4.2-4.6 2.5-7.4h-6.9c2.3 2.8 2.3 6 2.5 7.4.2 1.2-.5 1.4-.8.3-.7-2.8-2.1-3.5-4.2-3.5s-4.3 1.8-4.3 4.7c0 3.3 1.8 5.9 5.2 10.3 3.2 4.1 5.1 8.1 5.1 8.1z"/><path id="XMLID_24_" class="st1" d="M27.6 104.9s1.9-3.9 5-8.1c3.4-4.5 5.2-7 5.2-10.3 0-2.8-2.2-4.7-4.3-4.7-2.1 0-3.5.8-4.2 3.5-.3 1.1-.9.9-.8-.3.2-1.4.2-4.6 2.5-7.4h-6.9c2.3 2.8 2.3 6 2.5 7.4.2 1.2-.5 1.4-.8.3-.7-2.8-2.1-3.5-4.2-3.5s-4.3 1.8-4.3 4.7c0 3.3 1.8 5.9 5.2 10.3 3.3 4.1 5.1 8.1 5.1 8.1z"/><path id="XMLID_23_" class="st1" d="M49.7 31.4s-1.9 3.9-5 8.1c-3.4 4.5-5.2 7-5.2 10.3 0 2.8 2.2 4.7 4.3 4.7 2.1 0 3.5-.8 4.2-3.5.3-1.1.9-.9.8.3-.2 1.4-.2 4.6-2.5 7.4h6.9c-2.3-2.8-2.3-6-2.5-7.4-.2-1.2.5-1.4.8-.3.7 2.8 2.1 3.5 4.2 3.5s4.3-1.8 4.3-4.7c0-3.3-1.8-5.9-5.2-10.3-3.2-4.2-5.1-8.1-5.1-8.1z"/><path id="XMLID_22_" class="st1" d="M49.7 120.2s1.9-3.9 5-8.1c3.4-4.5 5.2-7 5.2-10.3 0-2.8-2.2-4.7-4.3-4.7-2.1 0-3.5.8-4.2 3.5-.3 1.1-.9.9-.8-.3.2-1.4.2-4.6 2.5-7.4h-6.9c2.3 2.8 2.3 6 2.5 7.4.2 1.2-.5 1.4-.8.3-.7-2.8-2.1-3.5-4.2-3.5s-4.3 1.8-4.3 4.7c0 3.3 1.8 5.9 5.2 10.3 3.3 4.2 5.1 8.1 5.1 8.1z"/><path class="st1" d="M12.3 9.1c.8 0 1.3.8 1.3 1.5v10.7c0 .4-.5 1.3-1.3 1.3s-1.4-.6-1.4-1.2v-11s0-1.3 1.4-1.3zm0-2C9.4 7.1 8.9 10 8.9 10v11.5c.1.9.9 2.9 3.5 2.9 2.5 0 3.2-2.4 3.2-3v-11c0-1.7-1.4-3.3-3.3-3.3zm-7 .2h1.8v17.2H5.3V7.3z"/><path id="XMLID_18_" d="M90.4 111.6c-.9.9-1 2.7-1.1 3.1 0 .4.1.5.1.5.1 0 .2-.1.2-.3.2-1 .9-1.4 1.3-1.5 1.6-.3 2.2.8 2.3 1.1.8 1.6-1 4-1.3 4.3-1.7 2.1-3 4.4-3 4.4s-1.2-2.3-3-4.4c-.3-.4-2.2-2.8-1.3-4.3.2-.3.7-1.3 2.3-1.1.3.1 1.1.5 1.3 1.5 0 .2.1.3.2.3s.2-.1.1-.5c0-.4-.2-2.2-1.1-3.1h3z" style="fill:#231f20"/><path class="st1" d="M87.1 142.5c-.8 0-1.3-.8-1.3-1.5v-10.7c0-.4.5-1.3 1.3-1.3s1.4.6 1.4 1.2v11s0 1.3-1.4 1.3zm0 2c2.9 0 3.3-2.9 3.3-2.9v-11.5c-.1-.9-.9-2.9-3.5-2.9-2.5 0-3.2 2.4-3.2 3v11c.1 1.7 1.6 3.3 3.4 3.3zm7-.2h-1.8v-17.2h1.8v17.2z"/></g></svg>