<svg xmlns="http://www.w3.org/2000/svg" viewBox="0 0 99.4 151.6" style="enable-background:new 0 0 99.4 151.6" xml:space="preserve"><style>.st1{fill-rule:evenodd;clip-rule:evenodd}.st1,.st2{fill:#231f20}</style><g id="Calque_2"><path id="XMLID_15_" d="M99.3 5.3v140.9c0 2.9-2.3 5.2-5.2 5.2H5.3c-2.9 0-5.2-2.3-5.2-5.2V5.3C.1 2.4 2.4.1 5.3.1H94c2.9 0 5.3 2.4 5.3 5.2z" style="fill:#fff;stroke:#000;stroke-width:.25;stroke-miterlimit:2.6131"/></g><g id="Calque_1"><g id="XMLID_25_"><g id="XMLID_60_"><g id="XMLID_65_"><g id="XMLID_69_"><path id="XMLID_71_" class="st1" d="M27.6 16s-1.9 3.9-5 8.1c-3.4 4.5-5.2 7-5.2 10.3 0 2.8 2.2 4.7 4.3 4.7 2.1 0 3.5-.8 4.2-3.5.3-1.1.9-.9.8.3-.2 1.4-.2 4.6-2.5 7.4H31c-2.3-2.8-2.3-6-2.5-7.4-.2-1.2.5-1.4.8-.3.7 2.8 2.1 3.5 4.2 3.5s4.3-1.8 4.3-4.7c0-3.3-1.8-5.9-5.2-10.3-3.1-4.2-5-8.1-5-8.1z"/><path id="XMLID_70_" class="st1" d="M71.8 16s-1.9 3.9-5 8.1c-3.4 4.5-5.2 7-5.2 10.3 0 2.8 2.2 4.7 4.3 4.7 2.1 0 3.5-.8 4.2-3.5.3-1.1.9-.9.8.3-.2 1.4-.2 4.6-2.5 7.4h6.9c-2.3-2.8-2.3-6-2.5-7.4-.2-1.2.5-1.4.8-.3.7 2.8 2.1 3.5 4.2 3.5s4.3-1.8 4.3-4.7c0-3.3-1.8-5.9-5.2-10.3-3.2-4.2-5.1-8.1-5.1-8.1z"/></g><g id="XMLID_66_"><path id="XMLID_68_" class="st1" d="M71.8 135.6s1.9-3.9 5-8.1c3.4-4.5 5.2-7 5.2-10.3 0-2.8-2.2-4.7-4.3-4.7-2.1 0-3.5.8-4.2 3.5-.3 1.1-.9.9-.8-.3.2-1.4.2-4.6 2.5-7.4h-6.9c2.3 2.8 2.3 6 2.5 7.4.2 1.2-.5 1.4-.8.3-.7-2.8-2.1-3.5-4.2-3.5s-4.3 1.8-4.3 4.7c0 3.3 1.8 5.9 5.2 10.3 3.2 4.2 5.1 8.1 5.1 8.1z"/><path id="XMLID_67_" class="st1" d="M27.6 135.6s1.9-3.9 5-8.1c3.4-4.5 5.2-7 5.2-10.3 0-2.8-2.2-4.7-4.3-4.7-2.1 0-3.5.8-4.2 3.5-.3 1.1-.9.9-.8-.3.2-1.4.2-4.6 2.5-7.4h-6.9c2.3 2.8 2.3 6 2.5 7.4.2 1.2-.5 1.4-.8.3-.7-2.8-2.1-3.5-4.2-3.5s-4.3 1.8-4.3 4.7c0 3.3 1.8 5.9 5.2 10.3 3.3 4.2 5.1 8.1 5.1 8.1z"/></g></g></g><g id="XMLID_40_"><g id="XMLID_42_"><g id="XMLID_48_"><g id="XMLID_51_"><g id="XMLID_56_"><path id="XMLID_57_" class="st1" d="M7.8 18.2h4v-6.3l-4 6.3zm4.5-11.1h1.4v11.1h1.8v1.9h-1.8v2.6h1.1v1.8h-4.4v-1.8h1.3v-2.6H5.3v-1.6l7-11.4z"/></g><g id="XMLID_52_"><path id="XMLID_53_" class="st1" d="M91.6 133.4h-4v6.3l4-6.3zm-4.5 11.1h-1.5v-11.1h-1.8v-1.9h1.8v-2.6h-1.1v-1.8h4.4v1.8h-1.3v2.6H94v1.6l-6.9 11.4z"/></g></g></g></g></g><g id="XMLID_26_"><g id="XMLID_37_"><path id="XMLID_38_" class="st2" d="M8.9 40.1c.9-.9 1.1-2.7 1.1-3.1 0-.4-.1-.5-.2-.5s-.2.1-.2.3c-.2 1-.9 1.4-1.3 1.5-1.6.3-2.2-.8-2.3-1.1-.8-1.6 1-4 1.4-4.3 1.8-2.1 3-4.4 3-4.4s1.2 2.3 3 4.4c.3.4 2.2 2.8 1.4 4.3-.2.3-.7 1.3-2.3 1.1-.3-.1-1.1-.5-1.3-1.5 0-.2-.1-.3-.2-.3s-.2.1-.1.5c0 .4.2 2.2 1.1 3.1H8.9z"/></g><g id="XMLID_27_"><path id="XMLID_36_" class="st2" d="M90.5 111.6c-.9.9-1.1 2.7-1.1 3.1-.1.4.1.5.1.5.1 0 .2-.1.2-.3.2-1 .9-1.4 1.3-1.5 1.6-.3 2.2.8 2.3 1.1.8 1.6-1 4-1.4 4.3-1.8 2.1-3 4.4-3 4.4s-1.2-2.3-3-4.4c-.3-.4-2.2-2.8-1.4-4.3.2-.3.7-1.3 2.3-1.1.3.1 1.1.5 1.3 1.5 0 .2.1.3.2.3s.2-.1.1-.5c0-.4-.2-2.2-1.1-3.1h3.2z"/></g></g></g></g></svg>