<svg xmlns="http://www.w3.org/2000/svg" viewBox="0 0 99.4 151.6" style="enable-background:new 0 0 99.4 151.6" xml:space="preserve"><style>.st1{fill-rule:evenodd;clip-rule:evenodd}.st1,.st2{fill:#231f20}</style><g id="Calque_2"><path id="XMLID_15_" d="M99.3 5.3v140.9c0 2.9-2.3 5.2-5.2 5.2H5.3c-2.9 0-5.2-2.3-5.2-5.2V5.3C.1 2.4 2.4.1 5.3.1H94c2.9 0 5.3 2.4 5.3 5.2z" style="fill:#fff;stroke:#000;stroke-width:.25;stroke-miterlimit:2.6131"/></g><g id="Calque_1"><g id="XMLID_16_"><g id="XMLID_51_"><g id="XMLID_52_"><g id="XMLID_59_"><path id="XMLID_65_" class="st1" d="M27.6 16s-1.9 3.9-5 8.1c-3.4 4.5-5.2 7-5.2 10.3 0 2.8 2.2 4.7 4.3 4.7 2.1 0 3.5-.8 4.2-3.5.3-1.1.9-.9.8.3-.2 1.4-.2 4.6-2.5 7.4H31c-2.3-2.8-2.3-6-2.5-7.4-.2-1.2.5-1.4.8-.3.7 2.8 2.1 3.5 4.2 3.5s4.3-1.8 4.3-4.7c0-3.3-1.8-5.9-5.2-10.3-3.1-4.2-5-8.1-5-8.1z"/><path id="XMLID_60_" class="st1" d="M71.8 16s-1.9 3.9-5 8.1c-3.4 4.5-5.2 7-5.2 10.3 0 2.8 2.2 4.7 4.3 4.7 2.1 0 3.5-.8 4.2-3.5.3-1.1.9-.9.8.3-.2 1.4-.2 4.6-2.5 7.4h6.9c-2.3-2.8-2.3-6-2.5-7.4-.2-1.2.5-1.4.8-.3.7 2.8 2.1 3.5 4.2 3.5s4.3-1.8 4.3-4.7c0-3.3-1.8-5.9-5.2-10.3-3.2-4.2-5.1-8.1-5.1-8.1z"/></g><g id="XMLID_56_"><path id="XMLID_58_" class="st1" d="M27.6 62.1s-1.9 3.9-5 8.1c-3.4 4.5-5.2 7-5.2 10.3 0 2.8 2.2 4.7 4.3 4.7 2.1 0 3.5-.8 4.2-3.5.3-1.1.9-.9.8.3-.2 1.4-.2 4.6-2.5 7.4H31c-2.3-2.8-2.3-6-2.5-7.4-.2-1.2.5-1.4.8-.3.7 2.8 2.1 3.5 4.2 3.5s4.3-1.8 4.3-4.7c0-3.3-1.8-5.9-5.2-10.3-3.1-4.1-5-8.1-5-8.1z"/><path id="XMLID_57_" class="st1" d="M71.8 62.1s-1.9 3.9-5 8.1c-3.4 4.5-5.2 7-5.2 10.3 0 2.8 2.2 4.7 4.3 4.7 2.1 0 3.5-.8 4.2-3.5.3-1.1.9-.9.8.3-.2 1.4-.2 4.6-2.5 7.4h6.9c-2.3-2.8-2.3-6-2.5-7.4-.2-1.2.5-1.4.8-.3.7 2.8 2.1 3.5 4.2 3.5s4.3-1.8 4.3-4.7c0-3.3-1.8-5.9-5.2-10.3-3.2-4.1-5.1-8.1-5.1-8.1z"/></g><g id="XMLID_53_"><path id="XMLID_55_" class="st1" d="M71.8 135.6s1.9-3.9 5-8.1c3.4-4.5 5.2-7 5.2-10.3 0-2.8-2.2-4.7-4.3-4.7-2.1 0-3.5.8-4.2 3.5-.3 1.1-.9.9-.8-.3.2-1.4.2-4.6 2.5-7.4h-6.9c2.3 2.8 2.3 6 2.5 7.4.2 1.2-.5 1.4-.8.3-.7-2.8-2.1-3.5-4.2-3.5s-4.3 1.8-4.3 4.7c0 3.3 1.8 5.9 5.2 10.3 3.2 4.2 5.1 8.1 5.1 8.1z"/><path id="XMLID_54_" class="st1" d="M27.6 135.6s1.9-3.9 5-8.1c3.4-4.5 5.2-7 5.2-10.3 0-2.8-2.2-4.7-4.3-4.7-2.1 0-3.5.8-4.2 3.5-.3 1.1-.9.9-.8-.3.2-1.4.2-4.6 2.5-7.4h-6.9c2.3 2.8 2.3 6 2.5 7.4.2 1.2-.5 1.4-.8.3-.7-2.8-2.1-3.5-4.2-3.5s-4.3 1.8-4.3 4.7c0 3.3 1.8 5.9 5.2 10.3 3.3 4.2 5.1 8.1 5.1 8.1z"/></g></g></g><g id="XMLID_22_"><g id="XMLID_23_"><g id="XMLID_24_"><g id="XMLID_25_"><g id="XMLID_38_"><path id="XMLID_40_" class="st1" d="M10.4 14.4c.6-.1 3.4.3 3.5 4.3 0 1.4-.9 3.8-3.2 3.8-.8 0-3.2-.9-3.2-4.2 0-.8.4-3.6 2.9-3.9zm-3.1-6c-2.8 2.9-1.9 10.4-1.6 11.3C7 25 11 24.6 11.8 24.4c3.5-1 4-4.9 4-5.5-.1-5.1-3.8-6.1-4.4-6.2-2.3-.5-4.2 1.3-4.2 1.3 0-1.3.6-3.3.8-3.7 1-1.8 2.2-1.6 3-1.5 1.6.1 2.6 1.9 2.6 1.9l1.6-.6c-.8-2.2-2.8-3.1-4.7-3-1.4 0-2.5.5-3.2 1.3z"/></g><g id="XMLID_26_"><path id="XMLID_27_" class="st1" d="M89.1 137.2c-.6.1-3.4-.3-3.5-4.3 0-1.4.9-3.8 3.2-3.8.8 0 3.2.9 3.2 4.2 0 .8-.5 3.6-2.9 3.9zm3 6c2.8-2.9 1.9-10.4 1.6-11.3-1.3-5.3-5.3-4.9-6.1-4.7-3.5 1-4 4.9-4 5.5.1 5.1 3.8 6.1 4.4 6.2 2.3.4 4.2-1.3 4.2-1.3 0 1.3-.6 3.3-.8 3.7-1 1.8-2.2 1.6-3 1.5-1.6-.1-2.6-1.9-2.6-1.9l-1.6.6c.8 2.2 2.8 3.1 4.7 3 1.4 0 2.5-.5 3.2-1.3z"/></g></g></g></g></g><g id="XMLID_17_"><g id="XMLID_20_"><path id="XMLID_21_" class="st2" d="M8.9 40.1c.9-.9 1.1-2.7 1.1-3.1 0-.4-.1-.5-.1-.5-.1 0-.2.1-.2.3-.2 1-.9 1.4-1.3 1.5-1.6.3-2.2-.8-2.3-1.1-.8-1.6 1-4 1.4-4.3 1.8-2.1 3-4.4 3-4.4s1.2 2.3 3 4.4c.3.4 2.2 2.8 1.4 4.3-.2.3-.7 1.3-2.3 1.1-.4-.1-1.1-.5-1.3-1.5 0-.2-.1-.3-.2-.3s-.2.1-.1.5c0 .4.2 2.2 1.1 3.1H8.9z"/></g><g id="XMLID_18_"><path id="XMLID_19_" class="st2" d="M90.5 111.6c-.9.9-1.1 2.7-1.1 3.1-.1.4.1.5.1.5.1 0 .2-.1.2-.3.2-1 .9-1.4 1.3-1.5 1.6-.3 2.2.8 2.3 1.1.8 1.6-1 4-1.4 4.3-1.8 2.1-3 4.4-3 4.4s-1.2-2.3-3-4.4c-.3-.4-2.2-2.8-1.4-4.3.2-.3.7-1.3 2.3-1.1.4.1 1.1.5 1.3 1.5 0 .2.1.3.2.3s.2-.1.1-.5c0-.4-.2-2.2-1.1-3.1h3.2z"/></g></g></g></g></svg>