<svg xmlns="http://www.w3.org/2000/svg" viewBox="0 0 99.4 151.6" style="enable-background:new 0 0 99.4 151.6" xml:space="preserve"><style>.st1{fill-rule:evenodd;clip-rule:evenodd}.st1,.st2{fill:#231f20}</style><g id="Calque_2"><path id="XMLID_15_" d="M99.3 5.3v140.9c0 2.9-2.3 5.2-5.2 5.2H5.3c-2.9 0-5.2-2.3-5.2-5.2V5.3C.1 2.4 2.4.1 5.3.1H94c2.9 0 5.3 2.4 5.3 5.2z" style="fill:#fff;stroke:#000;stroke-width:.25;stroke-miterlimit:2.6131"/></g><g id="Calque_1"><path id="XMLID_30_" class="st1" d="M27.6 16s-1.9 3.9-5 8.1c-3.4 4.5-5.2 7-5.2 10.3 0 2.8 2.2 4.7 4.3 4.7 2.1 0 3.5-.8 4.2-3.5.3-1.1.9-.9.8.3-.2 1.4-.2 4.6-2.5 7.4H31c-2.3-2.8-2.3-6-2.5-7.4-.2-1.2.5-1.4.8-.3.7 2.8 2.1 3.5 4.2 3.5s4.3-1.8 4.3-4.7c0-3.3-1.8-5.9-5.2-10.3-3.1-4.2-5-8.1-5-8.1z"/><path id="XMLID_29_" class="st1" d="M71.8 16s-1.9 3.9-5 8.1c-3.4 4.5-5.2 7-5.2 10.3 0 2.8 2.2 4.7 4.3 4.7 2.1 0 3.5-.8 4.2-3.5.3-1.1.9-.9.8.3-.2 1.4-.2 4.6-2.5 7.4h6.9c-2.3-2.8-2.3-6-2.5-7.4-.2-1.2.5-1.4.8-.3.7 2.8 2.1 3.5 4.2 3.5s4.3-1.8 4.3-4.7c0-3.3-1.8-5.9-5.2-10.3-3.2-4.2-5.1-8.1-5.1-8.1z"/><path id="XMLID_28_" class="st1" d="M27.6 62.1s-1.9 3.9-5 8.1c-3.4 4.5-5.2 7-5.2 10.3 0 2.8 2.2 4.7 4.3 4.7 2.1 0 3.5-.8 4.2-3.5.3-1.1.9-.9.8.3-.2 1.4-.2 4.6-2.5 7.4H31c-2.3-2.8-2.3-6-2.5-7.4-.2-1.2.5-1.4.8-.3.7 2.8 2.1 3.5 4.2 3.5s4.3-1.8 4.3-4.7c0-3.3-1.8-5.9-5.2-10.3-3.1-4.1-5-8.1-5-8.1z"/><path id="XMLID_27_" class="st1" d="M71.8 62.1s-1.9 3.9-5 8.1c-3.4 4.5-5.2 7-5.2 10.3 0 2.8 2.2 4.7 4.3 4.7 2.1 0 3.5-.8 4.2-3.5.3-1.1.9-.9.8.3-.2 1.4-.2 4.6-2.5 7.4h6.9c-2.3-2.8-2.3-6-2.5-7.4-.2-1.2.5-1.4.8-.3.7 2.8 2.1 3.5 4.2 3.5s4.3-1.8 4.3-4.7c0-3.3-1.8-5.9-5.2-10.3-3.2-4.1-5.1-8.1-5.1-8.1z"/><path id="XMLID_26_" class="st1" d="M71.8 135.6s1.9-3.9 5-8.1c3.4-4.5 5.2-7 5.2-10.3 0-2.8-2.2-4.7-4.3-4.7-2.1 0-3.5.8-4.2 3.5-.3 1.1-.9.9-.8-.3.2-1.4.2-4.6 2.5-7.4h-6.9c2.3 2.8 2.3 6 2.5 7.4.2 1.2-.5 1.4-.8.3-.7-2.8-2.1-3.5-4.2-3.5s-4.3 1.8-4.3 4.7c0 3.3 1.8 5.9 5.2 10.3 3.2 4.2 5.1 8.1 5.1 8.1z"/><path id="XMLID_25_" class="st1" d="M27.6 135.6s1.9-3.9 5-8.1c3.4-4.5 5.2-7 5.2-10.3 0-2.8-2.2-4.7-4.3-4.7-2.1 0-3.5.8-4.2 3.5-.3 1.1-.9.9-.8-.3.2-1.4.2-4.6 2.5-7.4h-6.9c2.3 2.8 2.3 6 2.5 7.4.2 1.2-.5 1.4-.8.3-.7-2.8-2.1-3.5-4.2-3.5s-4.3 1.8-4.3 4.7c0 3.3 1.8 5.9 5.2 10.3 3.3 4.2 5.1 8.1 5.1 8.1z"/><path id="XMLID_24_" class="st1" d="M49.7 39s-1.9 3.9-5 8.1c-3.4 4.5-5.2 7-5.2 10.3 0 2.8 2.2 4.7 4.3 4.7 2.1 0 3.5-.8 4.2-3.5.3-1.1.9-.9.8.3-.2 1.4-.2 4.6-2.5 7.4h6.9c-2.3-2.8-2.3-6-2.5-7.4-.2-1.2.5-1.4.8-.3.7 2.8 2.1 3.5 4.2 3.5s4.3-1.8 4.3-4.7c0-3.3-1.8-5.9-5.2-10.3-3.2-4.1-5.1-8.1-5.1-8.1z"/><path id="XMLID_23_" class="st1" d="M49.7 112.6s1.9-3.9 5-8.1c3.4-4.5 5.2-7 5.2-10.3 0-2.8-2.2-4.7-4.3-4.7-2.1 0-3.5.8-4.2 3.5-.3 1.1-.9.9-.8-.3.2-1.4.2-4.6 2.5-7.4h-6.9c2.3 2.8 2.3 6 2.5 7.4.2 1.2-.5 1.4-.8.3-.7-2.8-2.1-3.5-4.2-3.5s-4.3 1.8-4.3 4.7c0 3.3 1.8 5.9 5.2 10.3 3.2 4.1 5.1 8.1 5.1 8.1z"/><path class="st1" d="M10.9 16.6c2.2 0 3.7 1.1 3.7 3.3 0 2-2.4 2.8-3.5 2.8s-3.8-.7-3.8-2.9c0-2.1 1.7-3.2 3.6-3.2zm0-7.8c1.4 0 3.2 1.1 3.2 2.7S12.4 14 10.8 14c-1.6 0-3.2-1.1-3.2-2.5 0-1.5 1.3-2.7 3.3-2.7zm-2.6 6.5s-3.4 1.6-3 5.1c.1 1.3 1.7 4.1 5.6 4.1 3.9 0 5.1-2.8 5.3-3.6 1.1-3.6-3-5.6-3-5.6 1.6-.8 2.7-2.5 2.6-3.7-.3-3.4-3.1-4.5-5.2-4.5s-5.1 1.7-4.9 4.3c.3 2.6 2.6 3.9 2.6 3.9zM88.5 135c-2.2 0-3.7-1.1-3.7-3.3 0-2 2.4-2.8 3.5-2.8s3.8.7 3.8 2.9c0 2.1-1.6 3.2-3.6 3.2zm0 7.8c-1.4 0-3.2-1.1-3.2-2.7s1.7-2.5 3.3-2.5c1.6 0 3.2 1.1 3.2 2.5.1 1.5-1.3 2.7-3.3 2.7zm2.6-6.5s3.4-1.6 3-5.1c-.1-1.3-1.7-4.1-5.6-4.1-3.9 0-5.1 2.8-5.3 3.6-1.1 3.6 3 5.6 3 5.6-1.6.8-2.7 2.5-2.6 3.7.3 3.4 3.1 4.5 5.2 4.5s5.1-1.7 4.9-4.3c-.3-2.6-2.6-3.9-2.6-3.9z"/><path id="XMLID_16_" class="st2" d="M8.9 40.1c.9-.9 1.1-2.7 1.1-3.1 0-.4-.1-.5-.1-.5-.1 0-.2.1-.2.3-.2 1-.9 1.4-1.3 1.5-1.6.3-2.2-.8-2.3-1.1-.8-1.6 1-4 1.4-4.3 1.8-2.1 3-4.4 3-4.4s1.2 2.3 3 4.4c.3.4 2.2 2.8 1.4 4.3-.2.3-.7 1.3-2.3 1.1-.3-.1-1.1-.5-1.3-1.5 0-.2-.1-.3-.2-.3s-.2.1-.1.5c0 .4.2 2.2 1.1 3.1H8.9z"/><path id="XMLID_14_" class="st2" d="M90.5 111.6c-.9.9-1.1 2.7-1.1 3.1 0 .4.1.5.1.5.1 0 .2-.1.2-.3.2-1 .9-1.4 1.3-1.5 1.6-.3 2.2.8 2.3 1.1.8 1.6-1 4-1.4 4.3-1.8 2.1-3 4.4-3 4.4s-1.2-2.3-3-4.4c-.3-.4-2.2-2.8-1.4-4.3.2-.3.7-1.3 2.3-1.1.4.1 1.1.5 1.3 1.5 0 .2.1.3.2.3s.2-.1.1-.5-.2-2.2-1.1-3.1h3.2z"/></g></svg>