<svg xmlns="http://www.w3.org/2000/svg" viewBox="0 0 99.4 151.6" style="enable-background:new 0 0 99.4 151.6" xml:space="preserve"><style>.st1{fill:#231f20}.st2{fill-rule:evenodd;fill:#0d4f9e}.st2,.st3{clip-rule:evenodd}.st3{fill-rule:evenodd;fill:#0ca551}.st4{fill-rule:evenodd;fill:#231f20}.st4,.st5{clip-rule:evenodd}.st5{fill-rule:evenodd;fill:#cf492c}.st6{fill-rule:evenodd;fill:none;stroke:#0ca551;stroke-width:.7087;stroke-miterlimit:2.6131}.st6,.st7{clip-rule:evenodd}.st7{fill-rule:evenodd;fill:#d54e2e}.st8{fill-rule:evenodd;clip-rule:evenodd;fill:#e52529}</style><g id="Calque_2"><path id="XMLID_15_" d="M99.3 5.3v140.9c0 2.9-2.3 5.2-5.2 5.2H5.3c-2.9 0-5.2-2.3-5.2-5.2V5.3C.1 2.4 2.4.1 5.3.1H94c2.9 0 5.3 2.4 5.3 5.2z" style="fill:#fff;stroke:#000;stroke-width:.25;stroke-miterlimit:2.6131"/></g><g id="Calque_1"><g id="XMLID_14_"><path id="XMLID_600_" class="st1" d="M9.3 40.1c.9-.9 1.1-2.7 1.1-3.1.1-.4-.1-.5-.1-.5-.1 0-.2.1-.2.3-.2 1-.9 1.4-1.3 1.5-1.6.3-2.2-.8-2.3-1.1-.8-1.6 1-4 1.3-4.3 1.8-2.1 3-4.4 3-4.4s1.2 2.3 3 4.4c.3.4 2.2 2.8 1.4 4.3-.2.3-.7 1.3-2.3 1.1-.4-.1-1.1-.5-1.3-1.5 0-.2-.1-.3-.2-.3s-.2.1-.1.5c0 .4.2 2.2 1.1 3.1H9.3z"/><path id="XMLID_599_" class="st1" d="M90.1 111.6c-.9.9-1.1 2.7-1.1 3.1 0 .4.1.5.2.5s.2-.1.2-.3c.2-1 .9-1.4 1.3-1.5 1.6-.3 2.2.8 2.3 1.1.8 1.6-1 4-1.4 4.3-1.8 2.1-3 4.4-3 4.4s-1.2-2.3-3-4.4c-.3-.4-2.2-2.8-1.4-4.3.2-.3.7-1.3 2.3-1.1.4.1 1.1.5 1.3 1.5 0 .2.1.3.2.3s.2-.1.1-.5-.2-2.2-1.1-3.1h3.1z"/><path id="XMLID_598_" class="st2" d="M33.8 107 16.4 95.6l.2-6.4v-43s13.8 3.7 18.2 11.9c0 0 10.3 22.7 11.9 27.8 1.6 5.1 17.4 7.7 17.4 7.7s7 7.7 11.6 9c0 0-5.5 4-11.6 5.9l-11.2-.9h-9.1l-5.6-1.6-4.4 1z"/><path id="XMLID_597_" class="st2" d="M64.6 44.6 82 56l-.2 6.4v43S68 101.7 63.6 93.5c0 0-10.3-22.7-11.9-27.8-1.6-5.1-17.4-7.7-17.4-7.7s-7-7.7-11.6-9c0 0 5.5-4 11.6-5.9l11.2.9h9.1l5.6 1.6 4.4-1z"/><path id="XMLID_596_" class="st3" d="m64.5 94.2 6.4 6.2s2.7-9-1.4-16.7C65.4 76 55 71.3 55 71.3l.7 9.1c.1 0 9.1 14 8.8 13.8z"/><path id="XMLID_595_" class="st3" d="M59.6 105.6H34.4l2-3.6h23.2z"/><path id="XMLID_594_" class="st3" d="m33.9 57.7-6.4-6.2s-2.7 9 1.4 16.7C33 76 43.3 80.6 43.3 80.6l-.7-9.1s-9-13.9-8.7-13.8z"/><path id="XMLID_593_" class="st2" d="M56 63c-.2-.4-.5-.7-.7-1l11-15.8.9.6L56 63z"/><path id="XMLID_592_" class="st3" d="M38.8 45.9H64l-2 3.6H38.8z"/><path id="XMLID_591_" class="st4" d="M60.1 95h-.3s-.8-.2-1.6-.1v13.4h1.9V95z"/><path id="XMLID_590_" class="st4" d="M70.9 131.2s-4.4-7.2-6.3-9.3c-1.8-2.1-2.5-5.5.2-7.4 0 0 2.7-1.8 4.6 1.4 0 0 .3.8.3 1.6h.7s0-3.9-1.6-6.5h4.3s-1.9 3.3-1.5 6.4h.6s.6-4.4 4.6-2.9c0 0 3.9 2 .6 7.1-2.5 3.1-6.5 9.6-6.5 9.6z"/><path id="XMLID_589_" class="st2" d="M32.9 127h-.7s-.7-2 .5-4.6c0 0 .1-.2-.3-1s-2-4.2-2-4.2-.6-1.1.2-1.7l1.2-1.1s-.1-2 .5-2.4c0 0-.1-1.4.4-1.9 0 0-.2-2.3.5-2.7 0 0 6.3-3.2 11.2.7l3.1 2.8s.3 1.3-.3 1.3c0 0 .2-.7-.2-.9-.3-.2-4.6-5.5-10.2-4.6 0 0-3.3.3-3.4 1.7 0 0 0 1.8-.2 2-.2.2-.4 1 .5 1h2.5s.4.3-.4.4c0 0-3.2.6-3.2 1.6 0 0 .2 1.1-.5 1.3l-1 1.1s-.5.8.8 3.3l1.1 2.3s.3.5 0 1.5c-.5.9-.6 3.6-.1 4.1z"/><path class="st2" d="M41.3 123.6s-3.4 2.1-7.1 1.5c0 0-.3.7.5.9 4.7.5 6.5-2.5 6.6-2.4zm-1.8-1.8c-1 .9-3.1 1.4-4.1 1.4-1 .1-.6-.3-.6-.3s.6-.2.4-.7c-.2-.4.4-1 .1-1.2-.3-.2-.4-.5.5-1.3s1.8-.6 1.6-.6-.9.6-1.3 1 .8.4.9.4c.1 0 1.6-.3 1.8 0 .2.3.5.2 1.3.3.8 0 1.1.4 1 .7-.1.3-2.1 2.4-2.7 2.7-.6.2-2.1.3-2.4 0-.3-.3.4-.3.4-.3 2 .3 3.1-1.1 3.6-1.5.5-.3.5-.5.5-.5-.8-.4-1-.1-1-.1zm-1.1-.1s.3-.1.4-.4c.1-.3 0-.6-.8-.7-.8-.1-.7.7-.5 1.1.2.5.9 0 .9 0zm-1.4 0s-.4-.8-.5-.2c-.1.7.5.8.5.2zm-2.1-4.5s.9-1.6-.4-1.7c-1.3-.1-2 .9-2 .9s-.5.2-.6-.2c-.1-.4.2-.8.6-1 .4-.2 1.9-.6 2.5 0 .6.5.6 2.1-.1 2zm3.7-3.3c.1.2.9 1 1.7.3.8-.7-.2-1.9-.2-1.9-.9-.8-2.9-.3-3.3 0-.3.3-1.8 1-2.6 1-.8.1-.6.4-.4.8.2.5 1 .1 1 .1s2.5-1.4 3.1-1.8c.6-.4 1.8.1 2 1.2.4 1.1-1.3.3-1.3.3z"/><path id="XMLID_582_" class="st5" d="M56.5 126.1s.5-3.8 2-5.6c1.5-1.8 2.3-4.6 1.7-5.6l-.5-1.1 1-1.3s3.2-.1 3.3-2.2c.2-2.2-1.3-3.1-1.7-3.3-.4-.2-3.6-.5-5 2.5 0 0-.3-4.6-4.9-1.7H49l-1.7 4.4s-3.8.1-2.6 3.7c0 0 1 1.8 2.2 1.7 0 0-.5 1.3-1 2.4-.4 1.1-2.9 8.2-2.9 8.2l13.5-2.1z"/><path id="XMLID_581_" class="st6" d="M54.7 126.2s.5-2 2.1-5.6c1.6-3.6 2.1-3.4 2-4.9-.1-1.5-1.3-2.5-2.3-.8 0 0-.2 1 .8 1.1"/><path id="XMLID_580_" class="st6" d="M53.1 126.4s1.4-3.9 1.9-4.6c.5-.7 1.5-4.1 1.5-4.4"/><path id="XMLID_579_" class="st6" d="M58.6 117.1s-2.3 1.2-3.1-.4c-.9-1.5.4-3.3.8-3.7.4-.4 3.1-.3 3.5.5"/><path id="XMLID_578_" class="st6" d="M51.4 126.8s3.4-8.7 4-9.8"/><path id="XMLID_577_" class="st6" d="M49.8 127s3.4-8.4 3.5-8.7c.2-.4.9-2.4.4-3.1-.5-.7-1.2-1.1-2.5-.5 0 0-.9 1.2.3 1.7 1.1.5 1.1-.6.9-.7"/><path id="XMLID_576_" class="st6" d="M53.6 117.6s-1.7.9-2.9-.1c-1.1-1.1-1-1.5-.7-3.5 0 0 .8-1.4 2.5-1.1 1.7.4 2.6 2 2.6 2"/><path id="XMLID_575_" class="st6" d="M48.4 127.3s.5-2.9 1.2-4.2c.8-1.3 2.2-5 2.2-5"/><path id="XMLID_574_" class="st6" d="M46.5 127.5s2.5-7.9 4.1-10"/><path id="XMLID_573_" class="st6" d="M44.9 127.6s2.7-8.1 3.3-9c.6-.9.7-3.3.5-3.8-.2-.5-.5-1.9-2.3-1 0 0-1.4 1.1 0 2.1 0 0 .6.2.7-.1"/><path id="XMLID_572_" class="st6" d="M47 117.5s1.6-.5 1.8-1.6"/><path id="XMLID_571_" class="st6" d="M50 114.7s-.4-2.4-2.5-2.7"/><path id="XMLID_570_" class="st6" d="M48.8 112.5s1.8-4.6 1.8-4.8"/><path id="XMLID_569_" class="st6" d="M50.3 113.7s.5-4.7 2.2-6"/><path id="XMLID_568_" class="st6" d="M51.6 112.9s1.1-2.1 1.1-2.6.3-2 2-2 1.1 1.4.9 1.7c-.2.3-.8.5-1.1-.1"/><path class="st6" d="M53 113s.7-.9.6-1.4c-.1-.5-.9-1.5-.8-1.9m2.3 2.4s-.9-.5-1.4-.3"/><path id="XMLID_565_" class="st6" d="M53.9 113.6s.9-.5 1-1.2c.2-.7 1.2-.7 1.4-.7.3 0 1-2.3 1-2.3"/><path id="XMLID_564_" class="st6" d="M56.4 112.9v-1.3"/><path id="XMLID_563_" class="st6" d="M57.1 112.9s2.2-4.7 4-4.8c1.8-.1 1.8 1.7 1.5 2.1-.2.4-1.1.9-1.5.5-.4-.4-.3-1.1-.3-1.1"/><path id="XMLID_562_" class="st6" d="m58.7 113 1.1-1.5"/><path id="XMLID_561_" class="st6" d="M60.8 112.4s-1.8-1.3-1.6-3"/><path id="XMLID_560_" class="st5" d="m23.4 125.3 2.3 4.1s.9 3.2-1.9 3.9c0 0-3.7.6-4.2-1.6 0 0-.7-1.3.5-3.8l1.6-2.3-2.2-3.2 2.1-3.2s-2.3-3.9-2.3-5.6c0-1.7 1.5-3.4 3.6-3 2 .4 2.7 2.7 2.7 3.6 0 1-2 4.4-2 4.4l2.1 3.4-2.3 3.3z"/><path id="XMLID_559_" class="st6" d="M22.5 127s2.4 1.7 1.7 4c0 0-.6 1.1-1.9.9-1.2-.2-1.8-1.3-1.6-2.1.4-1.7 1.8-2.8 1.8-2.8z"/><path id="XMLID_558_" class="st6" d="M22.3 117.4s2.5-1.9 1.8-4.4c0 0-.7-1.3-2-1-1.3.2-1.9 1.4-1.7 2.4.5 1.8 1.9 3 1.9 3z"/><path id="XMLID_557_" class="st6" d="m23.9 122.4-1.5 2.2-1.4-2.2 1.5-2.2c-.1-.1 1.4 2.2 1.4 2.2z"/><path id="XMLID_556_" class="st5" d="m35.2 106 .6-.9h22.4v.9z"/><path id="XMLID_555_" class="st5" d="m37.5 102.5.7-.9h20v.9z"/><path class="st5" d="M38.2 104.5h-1.4c0-.4.3-.7.7-.7.3 0 .7.3.7.7zm-1.3-1 .3-.4h1c0 .4-.3.7-.7.7-.3 0-.5-.2-.6-.3zm3.3 1h-1.4c0-.4.3-.7.7-.7.4 0 .7.3.7.7zm0-1.4h-1.4c0 .4.3.7.7.7.4 0 .7-.4.7-.7zm2 1.4h-1.4c0-.4.3-.7.7-.7.4 0 .7.3.7.7zm0-1.4h-1.4c0 .4.3.7.7.7.4 0 .7-.4.7-.7zm2 1.4h-1.4c0-.4.3-.7.7-.7.4 0 .7.3.7.7zm0-1.4h-1.4c0 .4.3.7.7.7.4 0 .7-.4.7-.7zm2 1.4h-1.4c0-.4.3-.7.7-.7.4 0 .7.3.7.7zm0-1.4h-1.4c0 .4.3.7.7.7.4 0 .7-.4.7-.7zm2 1.4h-1.4c0-.4.3-.7.7-.7.4 0 .7.3.7.7zm0-1.4h-1.4c0 .4.3.7.7.7.4 0 .7-.4.7-.7zm2 1.4h-1.4c0-.4.3-.7.7-.7.4 0 .7.3.7.7zm0-1.4h-1.4c0 .4.3.7.7.7.4 0 .7-.4.7-.7zm6.8 1.4h-1.4c0-.4.3-.7.7-.7.4 0 .7.3.7.7zm0-1.4h-1.4c0 .4.3.7.7.7.4 0 .7-.4.7-.7zm-2.2 1.4h-1.4c0-.4.3-.7.7-.7.4 0 .7.3.7.7zm0-1.4h-1.4c0 .4.3.7.7.7.4 0 .7-.4.7-.7zm-2.3 1.4h-1.4c0-.4.3-.7.7-.7.4 0 .7.3.7.7zm0-1.4h-1.4c0 .4.3.7.7.7.4 0 .7-.4.7-.7z"/><path id="XMLID_534_" class="st4" d="M43.1 89.6c.7.8 1.4 1.2 2 1.5l-10.6 16-2.5-1.7 11.1-15.8z"/><path id="XMLID_533_" class="st5" d="M42.4 88.6c.2.4.5.7.7 1l-11 15.8-.9-.6 11.2-16.2z"/><path id="XMLID_532_" class="st7" d="m33.9 100.2 7.9-11.9-.8-.4-8.1 11.6z"/><path class="st7" d="M31.7 97.1c-.4 0-.8-.4-.8-.8s.4-.8.8-.8.8.4.8.8-.4.8-.8.8zm-.9.9c.4.3.8.5 1.3.5.7 0 1.2-.3 1.6-.8.3-.4.4-.8.4-1.3 0-.7-.4-1.4-.9-1.8-.3.4-.4.8-.4 1.3 0 .6.3 1.2.7 1.6-.3-.2-.7-.3-1-.3-.8 0-1.4.3-1.7.8zM34.1 93.2c-.4 0-.8-.4-.8-.8s.4-.8.8-.8.8.4.8.8-.3.8-.8.8zm-.9.9c.4.3.8.5 1.3.5.7 0 1.2-.3 1.6-.8.3-.4.4-.8.4-1.3 0-.7-.4-1.4-.9-1.8-.3.4-.4.8-.4 1.3 0 .6.3 1.2.7 1.6-.3-.2-.7-.3-1-.3-.7 0-1.3.3-1.7.8zM36.7 89.1c-.4 0-.8-.4-.8-.8s.4-.8.8-.8.8.4.8.8c0 .5-.3.8-.8.8zm-.9 1c.4.3.8.5 1.3.5.7 0 1.2-.3 1.6-.8.3-.4.4-.8.4-1.3 0-.7-.4-1.4-.9-1.8-.3.4-.4.8-.4 1.3 0 .6.3 1.2.7 1.6-.3-.2-.7-.3-1-.3-.7 0-1.3.3-1.7.8z"/><path id="XMLID_525_" class="st5" d="M36.2 86.4 29 96.8s1.2-15.9-12.1-25.5v-1.5s11.6 5.9 13.4 22.9l4.6-6.9 1.3.6z"/><path id="XMLID_524_" class="st5" d="M24.4 93.3h-1.2s-.3-8.4-6.3-14.3v-1.5c-.1.1 6.3 3.8 7.5 15.8z"/><path id="XMLID_523_" class="st5" d="m19.9 90.8 1.2.6s-.6-5.5-3.9-9.3v1.7c0-.1 2.8 5 2.7 7z"/><ellipse id="XMLID_522_" class="st5" cx="26.5" cy="93.4" rx="1.1" ry="1.2"/><path id="XMLID_521_" class="st5" d="M26.2 90.7c-.6 0-1.1-.5-1.1-1.2 0-.6.5-1.2 1.1-1.2.6 0 1.1.5 1.1 1.2 0 .6-.5 1.2-1.1 1.2z"/><path id="XMLID_520_" class="st5" d="M25 86.9c-.6 0-1.1-.5-1.1-1.2 0-.6.5-1.2 1.1-1.2.6 0 1.1.5 1.1 1.2.1.7-.4 1.2-1.1 1.2z"/><path id="XMLID_519_" class="st5" d="M23.6 83.1c-.6 0-1.1-.5-1.1-1.2 0-.6.5-1.2 1.1-1.2.6 0 1.1.5 1.1 1.2s-.5 1.2-1.1 1.2z"/><path id="XMLID_518_" class="st5" d="M21.6 79.9c-.6 0-1.1-.5-1.1-1.2 0-.6.5-1.2 1.1-1.2.6 0 1.1.5 1.1 1.2s-.5 1.2-1.1 1.2z"/><ellipse id="XMLID_517_" class="st5" cx="18.7" cy="75.8" rx="1.1" ry="1.2"/><path id="XMLID_516_" class="st7" d="M20.8 48.7c.6.1 1.1.3 1.7.5-.8 2.7-1.3 5.5-1.3 8.5 0 12.8 8.6 23.7 20.2 27.1v1.9c-12.6-3.5-22-15.1-22-29 .1-3.1.5-6.1 1.4-9z"/><path id="XMLID_515_" class="st5" d="M27.2 51.8c.3.2.5.4.8.6-.4 1.7-.7 3.5-.7 5.4 0 9.4 5.9 17.5 14.1 20.6v1c-8.8-3.2-15.1-11.7-15.1-21.6.1-2.1.4-4.1.9-6z"/><path id="XMLID_514_" class="st5" d="M31.3 55.3c.3.3.5.5.7.8v1.6c0 6.3 3.3 11.8 8.3 14.9.1.4.2.7.3 1.1-5.6-3.1-9.4-9.1-9.4-16 0-.8 0-1.6.1-2.4z"/><path id="XMLID_513_" class="st5" d="M32.5 56.6c.3.4.6.6.7.8v.3c0 5.4 2.6 10.1 6.6 13 .1.4.2.8.3 1.1-4.6-3-7.7-8.2-7.7-14.2.1-.3.1-.7.1-1z"/><path id="XMLID_512_" class="st5" d="m38.4 66.8.6 1.5c-1.9-1.9-3.3-4.2-4-6.8l.1.1c.3.3.6.6.9 1 .5 1.5 1.3 2.9 2.4 4.2z"/><path class="st5" d="M38.6 73c.5.4 1 .7 1.6 1-.2.3-.5.5-.8.5-.5 0-.9-.4-.9-.9-.1-.2 0-.4.1-.6zm-2-1.6c.5.4.9.8 1.4 1.2-.2.2-.4.4-.7.4-.5 0-.9-.4-.9-.9 0-.3 0-.5.2-.7zm-1.8-1.8c.4.5.8.9 1.2 1.4-.2.2-.4.3-.6.3-.5 0-.9-.4-.9-.9 0-.4.1-.7.3-.8zm-1.4-2.1c.3.5.7 1 1 1.5-.2.1-.3.2-.5.2-.5 0-.9-.4-.9-.9 0-.4.1-.7.4-.8zm-1.2-2.3c.2.6.5 1.1.8 1.7-.1.1-.3.1-.4.1-.5 0-.9-.4-.9-.9 0-.4.2-.7.5-.9zm-.9-2.4.6 1.8c-.1 0-.2.1-.3.1-.5 0-.9-.4-.9-.9s.3-.9.6-1zm-.5-2.5.3 1.8h-.2c-.5 0-.9-.4-.9-.9.1-.5.4-.8.8-.9zm-.2-2.6c0 .6 0 1.3.1 1.9h-.1c-.5 0-.9-.4-.9-.9s.5-1 .9-1zm.2-2.5c-.1.6-.1 1.2-.2 1.9-.5 0-.9-.4-.9-.9.1-.6.5-1 1.1-1zM39.3 77c.6.3 1.3.6 1.9.9.1-.1.1-.3.1-.4 0-.6-.5-1.1-1.1-1.1-.3 0-.7.2-.9.6zm-2.5-1.6c.6.4 1.2.8 1.8 1.1.1-.2.2-.4.2-.6 0-.6-.5-1.1-1.1-1.1-.4.2-.7.3-.9.6zm-2.3-1.9c.5.5 1 .9 1.6 1.4.1-.2.2-.4.2-.7 0-.6-.5-1.1-1.1-1.1-.3.1-.5.2-.7.4zm-2.1-2.2c.4.6.9 1.1 1.4 1.6.2-.2.3-.5.3-.8 0-.6-.5-1.1-1.1-1.1-.1 0-.4.1-.6.3zm-1.7-2.5 1.2 1.8c.3-.2.4-.5.4-.9 0-.6-.5-1.1-1.1-1.1-.1.1-.3.1-.5.2zm-1.3-2.7c.3.7.6 1.3.9 1.9.3-.2.6-.5.6-.9 0-.6-.5-1.1-1.1-1.1-.2 0-.3.1-.4.1zm-1-2.8c.2.7.4 1.4.6 2 .4-.1.7-.5.7-1 0-.6-.5-1.1-1.1-1.1 0 0-.1 0-.2.1zm-.6-3c.1.7.2 1.4.4 2.1.5-.1.9-.5.9-1 0-.6-.5-1.1-1.1-1.1h-.2zm-.1-.9c0-.6-.1-1.1-.1-1.7v-.4c.6 0 1.1.5 1.1 1.1.1.5-.4 1-1 1zm.3-5.1c-.1.7-.2 1.4-.2 2.1h.1c.6 0 1.1-.5 1.1-1.1-.1-.5-.5-1-1-1z"/><path id="XMLID_492_" class="st8" d="m40.9 82.9-.7-2.7s-.1-1-1.3-.5-2.9 1.4-2.9 1.4-.9.5.1 1.1l4 1.6s1.1.5.8-.9z"/><path id="XMLID_491_" class="st8" d="m32.3 78.4.4-2.8s.3-.9-1-1c-1.3-.1-3.2.1-3.2.1s-1 .1-.4 1.1l3 3.1s1 .9 1.2-.5z"/><path id="XMLID_490_" class="st8" d="m26.4 71.1 1.2-2.6s.5-.8-.7-1.2c-1.2-.4-3.1-.8-3.1-.8s-1-.2-.7.9l2 3.9s.7 1.1 1.3-.2z"/><path id="XMLID_489_" class="st8" d="m23.3 61.8 2.1-1.9s.8-.5-.1-1.4c-.9-.9-2.5-2-2.5-2s-.9-.6-1 .6l.3 4.3c0 .1.1 1.4 1.2.4z"/><path id="XMLID_488_" class="st8" d="m37.3 79.1-2.7 1.1s-.7.3-.9-.7c-.2-1.1-.1-3-.1-3s0-.9.9-.4l3.2 2.1c-.1-.1.7.6-.4.9z"/><path id="XMLID_487_" class="st8" d="m30.3 73.8-2.9-.1s-.8 0-.6-1c.2-1.1 1-2.8 1-2.8s.3-.8 1-.1L31 73s.5 1-.7.8z"/><path id="XMLID_486_" class="st8" d="m24.7 56.6-2.2-2.3s-.7-.6.4-1.3c1-.6 3-1.4 3-1.4s.9-.4.8.7l-.8 4.2s-.4 1.1-1.2.1z"/><path id="XMLID_485_" class="st8" d="M25.9 66.3 23 65.1s-.8-.3-.2-1.3c.7-1 2.1-2.5 2.1-2.5s.7-.7 1 .3l1 4.1s.2 1.2-1 .6z"/><path id="XMLID_484_" class="st8" d="m22.6 51.5 2.4-1-1.7-.8z"/><path id="XMLID_483_" class="st7" d="M60.5 95.1c.6.1 1 .1 1.5.1v11.4h-1.5V95.1z"/><path id="XMLID_482_" class="st7" d="m31 104.7 2.2-3.5-15.9-11.6V95z"/><path class="st7" d="M62.7 106.6v-6.3c1.4.3 2.5 1.6 2.5 3.1 0 1.6-1.1 2.9-2.5 3.2zm1-2.3.3-.4.3-.4-.3-.4-.3-.4-.3.4-.3.4.3.4.3.4z"/><path id="XMLID_479_" class="st7" d="m66.7 106.7-1.1.4 1.1-1.4v1z"/><path class="st2" d="M29.8 104.5s-1.9 5.2-5.8 5.1c0 0-.6-1.4-1.4-1.7-.8-.3 2.8-.4 2.7-1.4-.2-1 .3-2.8-.1-2.7-.4 0-.1 1.9-.6 1.7-.5-.3-.1-2-.4-2.5-.4-.6-.5-2.2-.4-2.5.1-.4-.9-1-1.6-.8-.7.3-2.2.9-2.2 1.8s.1.8.1.8-1 .7-.4 2.2c0 0-.7 1.1.2 2.2 0 0-.2 1.6 1 2 0 0-.5 1.3.9 1.7 0 0 1.2 1 5.2-1.1 0 0 2.6-1.7 3.2-4.2l-.4-.6zm-6.4 4.8c.3.4-1.1.7-1.7.3-.6-.4.2-.8.2-.8 1.4-.3 1.5.5 1.5.5zm-.6-2.9s.5.7.2.8c-.3.1-1.6.8-1.7.9 0 .1-.8 0-.9-.5-.1-.6.1-.8.2-.9.1-.1 1.7-1.1 1.9-.8.1.2.3.5.3.5zm-.1-1.3s-1.9.8-2 1.1c-.1.3-1.1-.5-.9-.9.1-.4 1.4-1.6 2.6-1.6.4.6.3 1.3.3 1.4zm-.3-2.5s.2.7-.4.9c-.6.2-1.8.7-1.9.1 0-.6.6-1.4 1.1-1.5.4-.1 1.2-.3 1.2.5zm-.1-2.1s.4 1.1-.6 1.3c-1 .2-1.4-.1-1.3-.4.1-.3 1.6-1.6 1.9-.9zm1.5 6.4c-.4 0-.7-.3-.7-.7s.3-.7.7-.7c.4 0 .7.3.7.7s-.3.7-.7.7zm-.2-2.1c-.3 0-.6-.3-.6-.6s.3-.6.6-.6.6.3.6.6c0 .4-.3.6-.6.6zm-.4-1.9c-.3 0-.5-.3-.5-.6s.2-.6.5-.6.5.3.5.6-.2.6-.5.6zm-.2-1.5c-.2 0-.4-.2-.4-.5s.2-.5.4-.5.4.2.4.5-.1.5-.4.5z"/><path id="XMLID_468_" class="st8" d="M58.2 94.8c-.3 0-.5 0-.8.1-.9.2-3.3-.4-3.9-1.1-.7-.8-4 1-6-2.3 0 0-1.1.2-2.5-.4h.1l-6.9 10.5h20.1v-6.8z"/><path id="XMLID_467_" class="st8" d="M74.5 102.3c-1.1-.5-2.3-1.3-3.5-2.2v4.4c1.3-.7 2.6-1.5 3.5-2.2z"/><path id="XMLID_466_" class="st4" d="M71 100.1c-.9-.7-1.8-1.4-2.6-2.1v8c.8-.4 1.7-.9 2.6-1.4v-4.5z"/><path id="XMLID_465_" class="st7" d="M68.4 98c-.4-.3-.7-.7-1.1-1h-.2v9.5l1.3-.6V98z"/><path class="st7" d="M66.6 96.4c-.5-.5-1-.9-1.3-1.3-1 .7-1.6 1.8-1.6 3.1 0 1.8 1.3 3.3 3 3.7v-5.5h-.1zm-1.3 1.1.3.3.3.3-.3.3-.3.3-.3-.1-.3-.3.3-.3.3-.5z"/><path id="XMLID_462_" class="st7" d="m50 98.2.4 1.3-1.2 1.1-.9-1 .5-1.4-1.6.3-.9-.9.8-1 1.4.4-.2-1.3 1-1 1.1.9-.3 1.7 1.3-.5 1.1 1-.9 1z"/><circle id="XMLID_461_" class="st4" cx="38.9" cy="81.7" r=".6"/><path id="XMLID_460_" class="st4" d="M30.7 77c-.3-.1-.4-.5-.3-.8.1-.3.5-.4.8-.3.3.1.4.5.3.8-.2.3-.5.5-.8.3z"/><path id="XMLID_459_" class="st4" d="M25.3 69.3c-.3-.2-.3-.6-.1-.9.2-.3.6-.3.8-.1.3.2.3.6.1.9-.2.3-.6.3-.8.1z"/><path id="XMLID_458_" class="st4" d="M23 59.7c-.1-.3 0-.7.3-.8.3-.1.7 0 .8.3.1.3 0 .7-.3.8-.3.1-.7 0-.8-.3z"/><path id="XMLID_457_" class="st4" d="M35.6 78.2c-.1-.2-.5-.3-.7-.2-.2.1-.3.5-.2.7.1.2.5.3.7.2.3-.1.4-.4.2-.7z"/><circle id="XMLID_456_" transform="rotate(-8.231 28.642 72.46)" class="st4" cx="28.6" cy="72.4" r=".5"/><path id="XMLID_455_" class="st4" d="M24.9 54.5c.2-.3.1-.6-.1-.8-.3-.2-.6-.1-.8.1-.2.3-.1.6.1.8.3.2.6.1.8-.1z"/><circle id="XMLID_454_" transform="rotate(12.485 24.766 64.225)" class="st4" cx="24.8" cy="64.2" r=".6"/><path id="XMLID_453_" class="st4" d="M38.3 56.6h.3s.8.2 1.6.1V43.4h-1.9v13.2z"/><path id="XMLID_452_" class="st4" d="M27.5 20.4s4.4 7.2 6.3 9.3c1.8 2.1 2.5 5.5-.2 7.4 0 0-2.7 1.8-4.6-1.4 0 0-.3-.8-.3-1.6H28s0 3.9 1.6 6.5h-4.3s1.9-3.3 1.5-6.4h-.6s-.6 4.4-4.7 2.9c0 0-3.9-2-.6-7.1 2.6-3.1 6.5-9.6 6.6-9.6z"/><path id="XMLID_451_" class="st2" d="M65.5 24.6h.7s.7 2-.5 4.6c0 0-.1.2.3 1s2 4.2 2 4.2.6 1.1-.2 1.7l-1.2 1.1s.1 2-.5 2.4c0 0 .1 1.4-.4 1.9 0 0 .2 2.3-.5 2.7 0 0-6.3 3.2-11.2-.7l-3.1-2.8s-.3-1.3.3-1.3c0 0-.2.7.2.9.3.2 4.6 5.5 10.2 4.6 0 0 3.3-.3 3.4-1.7 0 0 0-1.8.2-2 .2-.2.4-1-.5-1h-2.5s-.4-.3.4-.4c0 0 3.2-.6 3.2-1.6 0 0-.2-1.1.5-1.3l1-1.1s.5-.8-.8-3.3l-1.1-2.3s-.3-.5 0-1.5c.5-.9.6-3.6.1-4.1z"/><path id="XMLID_450_" class="st6" d="m49.3 44 1.7-4.4s3.8-.1 2.6-3.7c0 0-1-1.8-2.2-1.7 0 0 .5-1.3 1-2.4.4-1.1 2.9-8.2 2.9-8.2"/><path class="st2" d="M57.1 28s3.4-2.1 7.1-1.5c0 0 .3-.7-.5-.9-4.7-.5-6.5 2.5-6.6 2.4zm1.8 1.8c1-.9 3.1-1.4 4.1-1.4 1.1-.1.6.3.6.3s-.6.2-.4.7c.2.4-.4 1-.1 1.2.3.2.4.5-.5 1.3s-1.8.6-1.6.6c.2 0 .9-.6 1.3-1s-.8-.4-.9-.4c-.1 0-1.6.3-1.8 0-.1-.1-.3-.1-1.1-.1s-1.1-.4-1-.7c.1-.3 2.1-2.4 2.7-2.7.6-.2 2.1-.3 2.4 0 .3.3-.4.3-.4.3-2-.3-3.1 1.1-3.6 1.5-.5.3-.5.5-.5.5.5.3.8-.1.8-.1zm1.1.1s-.3.1-.4.4c-.1.3 0 .6.8.7.8.1.7-.7.5-1.1-.2-.5-.9 0-.9 0zm1.4 0s.4.8.5.2c.1-.7-.5-.8-.5-.2zm2.1 4.5s-.9 1.6.4 1.7c1.3.1 2-.9 2-.9s.5-.2.6.2c.1.4-.2.8-.6 1-.4.2-1.9.6-2.5 0-.6-.5-.6-2.1.1-2zm-3.7 3.3c-.1-.2-.9-1-1.7-.3-.8.7.2 1.9.2 1.9.9.8 2.9.3 3.3 0 .3-.3 1.8-1 2.6-1 .8-.1.6-.4.4-.8-.2-.5-1-.1-1-.1s-2.5 1.4-3.1 1.8c-.6.4-1.8-.1-2-1.2-.4-1.1 1.3-.3 1.3-.3z"/><path id="XMLID_443_" class="st5" d="M41.9 25.5s-.5 3.8-2 5.6c-1.5 1.8-2.3 4.6-1.7 5.6l.5 1.1-1 1.3s-3.2.1-3.3 2.2c-.2 2.2 1.2 3.1 1.7 3.3.4.2 3.6.5 5-2.5 0 0 .3 4.6 4.9 1.7h3.4l1.7-4.4s3.8-.1 2.6-3.7c0 0-1-1.8-2.2-1.7 0 0 .5-1.3 1-2.4.4-1.1 2.9-8.2 2.9-8.2l-13.5 2.1z"/><path id="XMLID_442_" class="st6" d="M43.7 25.4s-.5 1.9-2.1 5.6c-1.6 3.6-2.1 3.4-2 4.9.1 1.5 1.3 2.5 2.3.8 0 0 .2-1-.8-1.1"/><path id="XMLID_441_" class="st6" d="M45.3 25.2s-1.4 3.9-1.9 4.6c-.5.7-1.5 4.1-1.5 4.4"/><path id="XMLID_440_" class="st6" d="M39.8 34.5s2.3-1.2 3.1.4c.9 1.5-.4 3.3-.8 3.7-.4.4-3.1.3-3.5-.5"/><path id="XMLID_439_" class="st6" d="M47 24.8s-3.4 8.7-4 9.8"/><path id="XMLID_438_" class="st6" d="M48.5 24.6S45.1 33 45 33.3c-.2.4-.9 2.4-.4 3.1.5.7 1.2 1.1 2.5.5 0 0 .9-1.2-.3-1.7-1.1-.5-1.1.6-.9.7"/><path id="XMLID_437_" class="st6" d="M44.8 34s1.7-.9 2.9.1c1.1 1.1 1 1.5.7 3.5 0 0-.8 1.4-2.5 1.1-1.7-.4-2.6-2-2.6-2"/><path id="XMLID_436_" class="st6" d="M50 24.3s-.5 2.9-1.2 4.2c-.8 1.3-2.2 5-2.2 5"/><path id="XMLID_435_" class="st6" d="M51.9 24.1s-2.5 7.9-4.1 10"/><path id="XMLID_434_" class="st6" d="M53.5 24s-2.7 8.1-3.3 9c-.6.9-.7 3.3-.5 3.8.2.5.5 1.9 2.3 1 0 0 1.4-1.1 0-2.1 0 0-.6-.2-.7.1"/><path id="XMLID_433_" class="st6" d="M51.3 34.1s-1.6.5-1.8 1.6"/><path id="XMLID_432_" class="st6" d="M48.4 36.9s.3 2.4 2.5 2.7"/><path id="XMLID_431_" class="st6" d="M49.6 39.1s-1.8 4.6-1.8 4.8"/><path id="XMLID_430_" class="st6" d="M48.1 37.9s-.5 4.7-2.2 6"/><path id="XMLID_429_" class="st6" d="M46.8 38.7s-1.1 2.1-1.1 2.6-.3 2-2 2-1.1-1.4-.9-1.7c.2-.3.8-.5 1.1.1"/><path class="st6" d="M45.4 38.6s-.7.9-.6 1.4c.1.5.9 1.5.8 1.9m-2.3-2.4s.9.5 1.4.3"/><path id="XMLID_426_" class="st6" d="M44.4 38s-.9.5-1 1.2c-.1.7-1.2.8-1.4.8-.3 0-1 2.3-1 2.3"/><path id="XMLID_425_" class="st6" d="M42 38.7V40"/><path id="XMLID_424_" class="st6" d="M41.3 38.7s-2.2 4.7-4 4.8c-1.8.1-1.8-1.7-1.5-2.1.2-.4 1.1-.9 1.5-.5.4.4.3 1.1.3 1.1"/><path id="XMLID_423_" class="st6" d="m39.7 38.6-1.1 1.5"/><path id="XMLID_422_" class="st6" d="M37.6 39.2s1.8 1.3 1.6 3"/><path id="XMLID_421_" class="st5" d="M75 26.3c-1.1-2-4.8-6.8-.4-8 6.3-1.1 4.4 4.6 2.1 7.7l2.2 3.2-2.1 3.2s2.3 3.9 2.3 5.6c0 1.7-1.5 3.4-3.6 3-2-.4-2.7-2.7-2.7-3.6 0-1 2-4.4 2-4.4l-2.1-3.4 2.3-3.3z"/><path id="XMLID_420_" class="st6" d="M75.9 24.6c-1.6-1.1-3.2-4.9-.1-4.9s1.6 3.8.1 4.9z"/><path id="XMLID_419_" class="st6" d="M76.1 34.2s-2.5 1.9-1.8 4.4c0 0 .7 1.3 2 1 1.3-.2 1.9-1.4 1.7-2.4-.5-1.8-1.9-3-1.9-3z"/><path id="XMLID_418_" class="st6" d="M74.5 29.2 76 27l1.4 2.2-1.4 2.3z"/><path id="XMLID_417_" class="st5" d="m63.2 45.6-.6.9H40.2v-.9z"/><path id="XMLID_416_" class="st5" d="m60.8 49.1-.6.9h-20v-.9z"/><path class="st5" d="M60.2 47.1h1.4c0 .4-.3.7-.7.7-.3 0-.7-.3-.7-.7zm1.3 1-.3.4h-1c0-.4.3-.7.7-.7.3 0 .5.2.6.3zm-3.3-1h1.4c0 .4-.3.7-.7.7-.4 0-.7-.3-.7-.7zm0 1.4h1.4c0-.4-.3-.7-.7-.7-.4 0-.7.4-.7.7zm-2-1.4h1.4c0 .4-.3.7-.7.7-.4 0-.7-.3-.7-.7zm0 1.4h1.4c0-.4-.3-.7-.7-.7-.4 0-.7.4-.7.7zm-2-1.4h1.4c0 .4-.3.7-.7.7-.4 0-.7-.3-.7-.7zm0 1.4h1.4c0-.4-.3-.7-.7-.7-.4 0-.7.4-.7.7zm-2-1.4h1.4c0 .4-.3.7-.7.7-.4 0-.7-.3-.7-.7zm0 1.4h1.4c0-.4-.3-.7-.7-.7-.4 0-.7.4-.7.7zm-2-1.4h1.4c0 .4-.3.7-.7.7-.4 0-.7-.3-.7-.7zm0 1.4h1.4c0-.4-.3-.7-.7-.7-.4 0-.7.4-.7.7zm-2.1-1.4h1.4c0 .4-.3.7-.7.7-.3 0-.6-.3-.7-.7zm0 1.4h1.4c0-.4-.3-.7-.7-.7-.3 0-.6.4-.7.7zm-6.8-1.4h1.4c0 .4-.3.7-.7.7-.3 0-.6-.3-.7-.7zm0 1.4h1.4c0-.4-.3-.7-.7-.7-.3 0-.6.4-.7.7zm2.3-1.4H45c0 .4-.3.7-.7.7-.4 0-.7-.3-.7-.7zm0 1.4H45c0-.4-.3-.7-.7-.7-.4 0-.7.4-.7.7zm2.3-1.4h1.4c0 .4-.3.7-.7.7-.4 0-.7-.3-.7-.7zm0 1.4h1.4c0-.4-.3-.7-.7-.7-.4 0-.7.4-.7.7z"/><path id="XMLID_373_" class="st4" d="M55.3 62.8c-.7-.8-1.6-1.8-2.3-2.1l10.8-16.1 2.5 1.7-11 16.5z"/><path id="XMLID_372_" class="st7" d="m64.5 51.4-7.9 11.9.7.4 8.2-11.6z"/><path class="st7" d="M66.7 54.5c.4 0 .8.4.8.8s-.4.8-.8.8-.8-.4-.8-.8.4-.8.8-.8zm.9-.9c-.4-.3-.8-.5-1.3-.5-.7 0-1.2.3-1.6.8-.3.4-.4.8-.4 1.3 0 .7.4 1.4.9 1.8.3-.4.4-.8.4-1.3 0-.6-.3-1.2-.7-1.6.3.2.7.3 1 .3.8 0 1.3-.3 1.7-.8zM64.2 58.5c.4 0 .8.4.8.8s-.4.8-.8.8-.8-.4-.8-.8c0-.5.4-.8.8-.8zm.9-1c-.4-.3-.8-.5-1.3-.5-.7 0-1.2.3-1.6.8-.3.4-.4.8-.4 1.3 0 .7.4 1.4.9 1.8.3-.4.4-.8.4-1.3 0-.6-.3-1.2-.7-1.6.3.2.7.3 1 .3.8 0 1.4-.3 1.7-.8zM61.7 62.5c.4 0 .8.4.8.8s-.4.8-.8.8-.8-.4-.8-.8c0-.5.3-.8.8-.8zm.9-1c-.4-.3-.8-.5-1.3-.5-.7 0-1.2.3-1.6.8-.3.4-.4.8-.4 1.3 0 .7.4 1.4.9 1.8.3-.4.4-.8.4-1.3 0-.6-.3-1.2-.7-1.6.3.2.7.3 1 .3.7 0 1.3-.3 1.7-.8z"/><path id="XMLID_364_" class="st5" d="m62.2 65.2 7.2-10.4s-1.2 15.9 12.1 25.5v1.5s-11.6-5.9-13.4-22.9l-4.6 6.9-1.3-.6z"/><path id="XMLID_363_" class="st5" d="M74 58.3h1.2s.3 8.4 6.3 14.3V74c.1 0-6.3-3.7-7.5-15.7z"/><path id="XMLID_362_" class="st5" d="m78.5 60.8-1.2-.6s.6 5.5 3.9 9.3v-1.7c0 .1-2.8-5-2.7-7z"/><ellipse id="XMLID_361_" class="st5" cx="71.8" cy="58.2" rx="1.1" ry="1.2"/><ellipse id="XMLID_360_" class="st5" cx="72.2" cy="62.1" rx="1.1" ry="1.2"/><path id="XMLID_359_" class="st5" d="M73.4 64.7c.6 0 1.1.5 1.1 1.2 0 .6-.5 1.2-1.1 1.2-.6 0-1.1-.5-1.1-1.2-.1-.7.4-1.2 1.1-1.2z"/><ellipse id="XMLID_358_" class="st5" cx="74.8" cy="69.6" rx="1.1" ry="1.2"/><path id="XMLID_357_" class="st5" d="M76.8 71.7c.6 0 1.1.5 1.1 1.2 0 .6-.5 1.2-1.1 1.2-.6 0-1.1-.5-1.1-1.2 0-.6.5-1.2 1.1-1.2z"/><path id="XMLID_356_" class="st5" d="M79.7 74.7c.6 0 1.1.5 1.1 1.2 0 .6-.5 1.2-1.1 1.2-.6 0-1.1-.5-1.1-1.2s.5-1.2 1.1-1.2z"/><path id="XMLID_355_" class="st4" d="M40.3 72s-4-11.8-6.7-14.4c0 0 .6-1.8 5-1 0 0 1.5.3 2.4 0 .9-.2 3.3.4 3.9 1.1.7.8 4-1 6 2.3 0 0 3.1-.6 5.3 3.1 0 0 .9.6.8 2.1V73s1.5 12.6 6.5 17.7c0 0 2 2.1 1.9 3.5-.1 1.4-6.4.9-7 .8-.5-.1-3.3.6-4.6-1.1 0 0-4.4 1.4-6.1-2.2 0 0-5-.2-5.9-4.4.1-11.3-1.3-14.1-1.5-15.3z"/><path id="XMLID_354_" class="st7" d="M77.6 102.9c-.6-.1-1.1-.3-1.7-.5.8-2.7 1.3-5.5 1.3-8.5 0-12.8-8.6-23.7-20.2-27.1v-1.9c12.6 3.5 22 15.1 22 29-.1 3.1-.6 6.1-1.4 9z"/><path id="XMLID_353_" class="st5" d="M71.2 99.8c-.3-.2-.5-.4-.8-.6.4-1.7.7-3.5.7-5.4 0-9.4-5.9-17.5-14.1-20.6v-1c8.7 3.2 15 11.7 15 21.7 0 2-.3 4-.8 5.9z"/><path id="XMLID_330_" class="st5" d="M67.1 96.3c-.3-.3-.5-.5-.7-.8.1-.5.1-1.1.1-1.6 0-6.3-3.3-11.8-8.3-14.9-.1-.4-.2-.7-.3-1.1 5.6 3.1 9.4 9.1 9.4 16-.1.8-.1 1.6-.2 2.4z"/><path id="XMLID_329_" class="st5" d="M65.9 95c-.3-.4-.6-.6-.7-.8v-.3c0-5.4-2.6-10.1-6.6-13-.1-.4-.2-.8-.3-1.1 4.6 3 7.7 8.3 7.7 14.2-.1.3-.1.7-.1 1z"/><path id="XMLID_328_" class="st5" d="m60 84.8-.6-1.5c1.9 1.8 3.3 4.2 4 6.8l-.1-.1c-.3-.3-.6-.6-.9-1-.5-1.5-1.4-2.9-2.4-4.2z"/><path class="st5" d="M59.8 78.6c-.5-.4-1-.7-1.6-1 .2-.3.5-.5.8-.5.5 0 .9.4.9.9.1.2 0 .4-.1.6zm2 1.6c-.5-.4-.9-.8-1.4-1.2.2-.2.4-.4.7-.4.5 0 .9.4.9.9 0 .3 0 .5-.2.7zm1.7 1.8c-.4-.5-.8-.9-1.2-1.4.2-.2.4-.3.6-.3.5 0 .9.4.9.9.1.4-.1.7-.3.8zm1.5 2.1c-.3-.5-.7-1-1-1.5.2-.1.3-.2.5-.2.5 0 .9.4.9.9 0 .4-.1.7-.4.8zm1.2 2.3c-.2-.6-.5-1.1-.8-1.7.1-.1.3-.1.4-.1.5 0 .9.4.9.9 0 .4-.2.8-.5.9zm.8 2.4-.6-1.8c.1 0 .2-.1.3-.1.5 0 .9.4.9.9.1.5-.2.9-.6 1zm.6 2.5-.3-1.8h.2c.5 0 .9.4.9.9-.1.5-.4.8-.8.9zm.1 2.6c0-.6 0-1.3-.1-1.9h.1c.5 0 .9.4.9.9 0 .6-.4 1-.9 1zm-.1 2.5c.1-.6.1-1.2.2-1.9.5 0 .9.4.9.9-.1.6-.5 1-1.1 1zM59.1 74.6c-.6-.3-1.3-.6-1.9-.9-.1.1-.1.3-.1.4 0 .6.5 1.1 1.1 1.1.3 0 .7-.2.9-.6zm2.5 1.6c-.6-.4-1.2-.8-1.8-1.1-.1.2-.2.4-.2.6 0 .6.5 1.1 1.1 1.1.4-.2.7-.3.9-.6zm2.3 1.9c-.5-.5-1-.9-1.6-1.4-.2.2-.2.4-.2.7 0 .6.5 1.1 1.1 1.1.3-.1.5-.2.7-.4zm2.1 2.2c-.4-.6-.9-1.1-1.4-1.6-.2.2-.3.5-.3.8 0 .6.5 1.1 1.1 1.1.1 0 .4-.1.6-.3zm1.7 2.5L66.5 81c-.3.2-.5.5-.5.9 0 .6.5 1.1 1.1 1.1.2-.1.4-.1.6-.2zm1.3 2.7c-.3-.7-.6-1.3-.9-1.9-.3.2-.6.5-.6.9 0 .6.5 1.1 1.1 1.1.1 0 .3-.1.4-.1zm1 2.8c-.2-.7-.4-1.4-.6-2-.4.1-.7.5-.7 1 0 .6.5 1.1 1.1 1.1 0 0 .1 0 .2-.1zm.6 3c-.1-.7-.2-1.4-.4-2.1-.5.1-.9.5-.9 1 0 .6.5 1.1 1.1 1.1h.2zm0 .9c0 .6.1 1.1.1 1.7v.4c-.6 0-1.1-.5-1.1-1.1 0-.5.5-1 1-1zm-.2 5.1c.1-.7.2-1.4.2-2.1h-.1c-.6 0-1.1.5-1.1 1.1.1.5.5 1 1 1z"/><path id="XMLID_308_" class="st8" d="m57.5 68.7.7 2.7s.1 1 1.3.5 2.9-1.4 2.9-1.4.9-.5-.1-1.1l-4-1.6s-1.2-.5-.8.9z"/><path id="XMLID_307_" class="st8" d="m66.1 73.2-.4 2.8s-.3.9 1 1c1.3.1 3.2-.1 3.2-.1s1-.1.4-1.1l-3-3.1s-1-.9-1.2.5z"/><path id="XMLID_306_" class="st8" d="m72 80.5-1.2 2.6s-.5.8.7 1.2c1.2.4 3.1.8 3.1.8s1 .2.7-.9l-2-3.9c-.1 0-.7-1.1-1.3.2z"/><path id="XMLID_305_" class="st8" d="M75.1 89.8 73 91.7s-.8.5.1 1.4c.9.9 2.5 2 2.5 2s.9.6 1-.6l-.3-4.3c0-.1-.1-1.4-1.2-.4z"/><path id="XMLID_304_" class="st8" d="m61.1 72.5 2.7-1.1s.7-.3.9.7c.2 1.1.1 3 .1 3s0 .9-.9.4l-3.2-2.1c.1.1-.7-.6.4-.9z"/><path id="XMLID_303_" class="st8" d="m68.1 77.8 2.9.1s.8 0 .6 1c-.2 1.1-1 2.8-1 2.8s-.3.8-1 .1l-2.1-3.2c-.1 0-.6-1 .6-.8z"/><path id="XMLID_302_" class="st8" d="m73.7 95 2.2 2.3s.7.6-.4 1.3c-1 .6-3 1.4-3 1.4s-.9.4-.8-.7l.8-4.2s.4-1.1 1.2-.1z"/><path id="XMLID_300_" class="st8" d="m72.4 85.3 2.9 1.2s.8.3.2 1.3c-.7 1-2.1 2.5-2.1 2.5s-.7.7-1-.3l-1-4.1s-.1-1.2 1-.6z"/><path id="XMLID_299_" class="st8" d="m75.8 100.1-2.4 1 1.7.9z"/><path id="XMLID_298_" class="st7" d="M37.9 56.5c-.6-.1-1-.1-1.5-.1V45h1.5v11.5z"/><path id="XMLID_297_" class="st7" d="m67.4 46.9-2.2 3.5L81.1 62v-5.4z"/><path class="st7" d="M35.7 45v6.3c-1.4-.3-2.5-1.6-2.5-3.1 0-1.6 1.1-2.9 2.5-3.2zm-1 2.3-.3.4-.4.4.3.4.3.4.3-.4.3-.4-.2-.4-.3-.4z"/><path id="XMLID_294_" class="st7" d="m31.7 44.9 1.1-.4-1.1 1.4v-1z"/><path class="st2" d="M68.6 47.1s1.9-5.2 5.8-5.1c0 0 .6 1.4 1.4 1.7.8.3-2.8.4-2.7 1.4.2 1-.3 2.8.1 2.7.4 0 .1-1.9.6-1.7.5.3.1 2 .5 2.5.4.6.5 2.2.4 2.5-.1.4.9 1 1.6.8.6-.3 2.2-.9 2.2-1.8s-.1-.8-.1-.8.9-.7.4-2.2c0 0 .7-1.1-.2-2.2 0 0 .2-1.6-1-2 0 0 .5-1.3-.9-1.7 0 0-1.2-1-5.2 1.1 0 0-2.6 1.7-3.2 4.2l.3.6zm6.4-4.8c-.3-.4 1.1-.7 1.7-.3.6.4-.2.8-.2.8-1.4.3-1.5-.5-1.5-.5zm.6 2.9s-.5-.7-.2-.8c.3-.1 1.6-.8 1.7-.9 0-.1.8 0 .9.5.1.6-.1.8-.2.9-.1.1-1.6 1.1-1.8.8-.2-.2-.4-.5-.4-.5zm.1 1.3s1.9-.8 2-1.1c.1-.3 1.1.5.9.9-.1.4-1.4 1.7-2.6 1.7-.4-.7-.3-1.4-.3-1.5zM76 49s-.2-.7.4-.9c.6-.2 1.8-.7 1.9-.1 0 .6-.6 1.4-1.1 1.5-.4.1-1.2.3-1.2-.5zm.1 2.1s-.4-1.1.6-1.3c1-.2 1.4.1 1.3.4-.1.3-1.6 1.6-1.9.9zm-1.5-6.3c.4 0 .7.3.7.7 0 .4-.3.7-.7.7-.4 0-.7-.3-.7-.7 0-.4.3-.7.7-.7zm.2 2c.3 0 .6.3.6.6s-.3.6-.6.6-.6-.3-.6-.6c0-.4.3-.6.6-.6zm.4 1.9c.3 0 .5.3.5.6s-.2.6-.5.6-.5-.3-.5-.6.2-.6.5-.6zm.2 1.5c.2 0 .4.2.4.5s-.2.5-.4.5-.4-.2-.4-.5c-.1-.3.1-.5.4-.5z"/><path id="XMLID_283_" class="st8" d="M40.2 56.8c.3 0 .6 0 .8-.1.9-.2 3.3.4 3.9 1.1.7.8 4-1 6 2.3 0 0 1.1-.2 2.5.4h-.1L60.2 50h-20v6.8z"/><path id="XMLID_282_" class="st8" d="M23.9 49.3c1.1.5 2.3 1.3 3.5 2.2V47c-1.3.8-2.6 1.6-3.5 2.3z"/><path id="XMLID_281_" class="st4" d="M27.4 51.5c.9.7 1.8 1.4 2.6 2.1v-8c-.8.4-1.7.9-2.6 1.4v4.5z"/><path id="XMLID_280_" class="st7" d="M30 53.6c.4.3.7.7 1.1 1h.2V45l-1.3.6v8z"/><path class="st7" d="M31.8 55.2c.5.5 1 .9 1.3 1.3 1-.7 1.6-1.8 1.6-3.1 0-1.8-1.3-3.3-3-3.7v5.5h.1zm1.3-1.1-.3-.3-.3-.3.3-.3.3-.3.3.3.3.3-.3.3-.3.3z"/><path id="XMLID_254_" class="st7" d="m48.4 53.4-.5-1.3 1.3-1.1.9 1-.5 1.4 1.6-.3.9.9-.8 1-1.4-.4.2 1.3-1 1L48 56l.3-1.6-1.4.4-1-1 .9-1z"/><circle id="XMLID_253_" class="st4" cx="59.5" cy="69.9" r=".6"/><path id="XMLID_252_" class="st4" d="M67.7 74.6c.3.1.4.5.3.8-.1.3-.5.4-.8.3-.3-.1-.4-.5-.3-.8.2-.3.5-.5.8-.3z"/><path id="XMLID_251_" class="st4" d="M73.1 82.3c.2.2.3.6.1.9-.2.3-.6.3-.8.1-.3-.2-.3-.6-.1-.9.2-.3.6-.3.8-.1z"/><path id="XMLID_250_" class="st4" d="M75.4 91.9c.1.3 0 .7-.3.8-.3.1-.7 0-.8-.3-.1-.3 0-.7.3-.8.3-.1.7 0 .8.3z"/><path id="XMLID_249_" class="st4" d="M62.7 73.4c.1.2.5.3.7.2.2-.1.3-.5.2-.7-.1-.2-.5-.3-.7-.2-.2.1-.3.4-.2.7z"/><circle id="XMLID_247_" transform="scale(-1) rotate(-8.163 -1109.353 977.333)" class="st4" cx="69.7" cy="79.2" r=".5"/><path id="XMLID_246_" class="st4" d="M73.5 97.1c-.2.3-.1.6.1.8.3.2.6.1.8-.1.2-.3.1-.6-.1-.8-.3-.2-.6-.1-.8.1z"/><circle id="XMLID_245_" transform="scale(-1) rotate(12.48 799.112 -673.321)" class="st4" cx="73.6" cy="87.4" r=".6"/><path id="XMLID_244_" class="st5" d="m44.8 74 .8 1.1.8.8-.8.9-.8 1-.6-1-.9-.9.8-.9z"/><path id="XMLID_243_" class="st5" d="m53.7 74 .7 1.1.9.8-.9.9-.7 1-.7-1-.9-.9.9-.9z"/><path id="XMLID_241_" class="st5" d="M47.4 73.9h3.8v3.8h-3.8z"/><path class="st8" d="M39 68.6c.1.3.2.5.3.7.8.8 1.3 1.5 1.3 1.5v-.1l-1.8-8.3s-.6-2.7-3.1-1.8c-.1 0-.1 0-.2.1.2.3.3.7.5 1 .6-.2 1.3 0 1.7.6.4.6.1 1.5-.5 1.8.2.4.3.8.5 1.2h.1c.4-.2.9-.1 1.1.3.2.4.1.9-.3 1.1-.1 0-.2.1-.2.1.2.5.4 1.1.6 1.6 0-.2.1-.3.2-.4.2-.1.5 0 .6.2.1.2 0 .5-.2.6-.2-.1-.5-.1-.6-.2zm2.3 3.2s-1.5-7-1.8-8.3c-.3-1.3-.1-3.5 2.6-3 2.6.4 1.8 3.1 1.8 3.1l-2.6 8.2zm.4-10.3c.7 0 1.3.6 1.3 1.4 0 .7-.6 1.4-1.3 1.4-.7 0-1.3-.6-1.3-1.4 0-.8.6-1.4 1.3-1.4zm-.1 4c-.4 0-.8.4-.8.8s.4.8.8.8.8-.4.8-.8-.4-.8-.8-.8zm-.1 3c-.3 0-.5.2-.5.5s.2.5.5.5.5-.2.5-.5c-.1-.3-.3-.5-.5-.5zm1.4 3.3h.1l8.9-3.2s2.9-1.2 1.9-3.4-3.5-1.4-4.5-.3c-1 1.2-6.4 6.9-6.4 6.9zm10-6.5c.5.7.3 1.6-.4 2.1s-1.6.3-2.1-.4-.3-1.6.4-2.1c.7-.4 1.6-.2 2.1.4zM49 67.9c.3.4.2 1-.2 1.2-.4.3-.9.2-1.2-.2-.3-.4-.2-1 .2-1.2.4-.3.9-.2 1.2.2zm-3 1.9c.2.2.1.6-.1.7-.2.2-.5.1-.7-.1-.2-.2-.1-.6.1-.7.2-.2.5-.1.7.1zm-4.2 1.9h.1l6.7-6.3s2.2-2.1-.1-3.9c-2.2-1.9-3.6 0-4 1.5-.4 1.3-2.7 8.7-2.7 8.7zm5.9-9.5c.7.4.9 1.3.5 2s-1.3.9-2 .5-.9-1.3-.5-2c.4-.6 1.3-.9 2-.5zm-2.3 3.7c-.4-.2-.9-.1-1.2.3-.2.4-.1.9.3 1.2.4.2.9.1 1.2-.3.3-.4.1-1-.3-1.2zm-1.7 2.8c-.2-.1-.5-.1-.7.2-.1.2-.1.5.2.7.2.1.5.1.7-.2.1-.3 0-.6-.2-.7zM58.9 82.7c-.1-.4-.3-.7-.4-1.1-.5-.6-.8-1-.8-1v.1l1.8 8.3s.6 2.7 3.1 1.8c.3-.1.6-.3.8-.4-.2-.2-.3-.4-.3-.4-.2-.2-.3-.3-.4-.5-.1 0-.1.1-.2.1-.6.4-1.5.1-1.8-.5-.4-.6-.2-1.4.4-1.8-.2-.4-.4-.7-.6-1.1-.4.1-.7 0-.9-.4-.2-.4-.1-.8.3-1.1-.2-.4-.4-.9-.5-1.3-.2.1-.5 0-.6-.2-.1-.2 0-.5.2-.6-.2.1-.2.1-.1.1zm-2-3.1s1.5 7 1.8 8.3c.3 1.3.1 3.5-2.6 3-2.6-.4-1.8-3.1-1.8-3.1l2.6-8.2zm-.4 10.3c-.7 0-1.3-.6-1.3-1.4s.6-1.4 1.3-1.4c.7 0 1.3.6 1.3 1.4s-.5 1.4-1.3 1.4zm.2-4c.4 0 .8-.4.8-.8s-.4-.8-.8-.8-.8.4-.8.8.3.8.8.8zm.1-3c.3 0 .5-.2.5-.5s-.2-.5-.5-.5-.5.2-.5.5.2.5.5.5zm-1.5-3.3h-.1l-8.9 3.2s-2.9 1.2-1.9 3.4 3.5 1.4 4.5.3c1.1-1.2 6.4-6.9 6.4-6.9zm-9.9 6.5c-.5-.7-.3-1.6.4-2.1s1.6-.3 2.1.4.3 1.6-.4 2.1c-.7.4-1.7.3-2.1-.4zm3.8-2.6c-.3-.4-.2-1 .2-1.2.4-.3.9-.2 1.2.2.3.4.2 1-.2 1.2-.3.3-.9.2-1.2-.2zm3.1-1.9c-.2-.2-.1-.6.1-.7.2-.2.5-.1.7.1.2.2.1.6-.1.7-.3.2-.6.1-.7-.1zm4.1-1.9h-.1L49.6 86s-2.2 2.1.1 3.9c2.2 1.9 3.6 0 4-1.5.4-1.3 2.7-8.7 2.7-8.7zm-5.8 9.5c-.7-.4-.9-1.3-.5-2s1.3-.9 2-.5.9 1.3.5 2c-.4.6-1.3.9-2 .5zm2.2-3.7c.4.2.9.1 1.2-.3.2-.4.1-.9-.3-1.2-.4-.2-.9-.1-1.2.3-.2.4-.1 1 .3 1.2zm1.7-2.8c.2.1.5.1.7-.2.1-.2.1-.5-.2-.7-.2-.1-.5-.1-.7.2-.1.3 0 .6.2.7z"/><path id="XMLID_168_" class="st2" d="M25.4 135.6h37l-5.8-10s-15.7 3.9-24.4 1l-6.8 9z"/><path id="XMLID_167_" class="st8" d="M27.4 135.6h33.8l-5.2-8.4s-13.3 3.2-23.6.9l-5 7.5z"/><path id="XMLID_166_" class="st2" d="M57.3 135.6h1.1l-3.4-6s-.5 3.2-4.4.7h-.3l.8 5.2h.9l-.6-3.4c2 .6 3.7-.7 3.7-.7l2.2 4.2z"/><path id="XMLID_165_" class="st2" d="M48.4 135.6h.8l-1.1-5.1-.6.2s-1.8 3-5.5.4h-.9l-.9 4.5h.9l.7-3.3c3.5 2 5.9-.6 5.9-.6l.7 3.9z"/><path id="XMLID_164_" class="st2" d="M37.2 135.6h1l.5-4.7-.5-.2s-1.5 2.2-3.5.5c0 0-.5-.5-.8-1h-.6l-3.1 5.4h1.3l1.8-3.9s2.2 1.9 4.3.6l-.4 3.3z"/><path class="st2" d="M36.1 131c-.4 0-.6-.3-.6-.7 0-.4.3-.7.6-.7.4 0 .6.3.6.7.1.4-.2.7-.6.7zm8.5.2c-.4 0-.6-.3-.6-.7 0-.4.3-.7.6-.7.4 0 .6.3.6.7 0 .4-.3.7-.6.7zm8.4-.8c-.4 0-.6-.3-.6-.7 0-.4.3-.7.6-.7.4 0 .6.3.6.7 0 .4-.3.7-.6.7z"/><path id="XMLID_160_" class="st2" d="M73 16H36l5.8 10s15.7-3.9 24.4-1l6.8-9z"/><path id="XMLID_159_" class="st8" d="M71 16H37.2l5.2 8.4s13.3-3.2 23.6-.9l5-7.5z"/><path id="XMLID_158_" class="st2" d="M41.1 16H40l3.4 6s.5-3.2 4.4-.7h.2l-.8-5.3h-.9l.6 3.4c-2-.6-3.7.7-3.7.7L41.1 16z"/><path id="XMLID_157_" class="st2" d="M50 16h-.8l1.1 5.1.7-.1s1.8-3 5.5-.4h.9l.9-4.5h-.9l-.7 3.3c-3.5-2-5.9.6-5.9.6l-.8-4z"/><path id="XMLID_156_" class="st2" d="M61.2 16h-1l-.5 4.7.5.2s1.5-2.2 3.5-.5c0 0 .5.5.8 1h.6L68 16h-1.3L65 20s-2.2-1.9-4.3-.6l.5-3.4z"/><path class="st2" d="M62.3 20.6c.4 0 .6.3.6.7 0 .4-.3.7-.6.7s-.6-.3-.6-.7c-.1-.4.2-.7.6-.7zm-8.5-.2c.4 0 .6.3.6.7 0 .4-.3.7-.6.7s-.6-.3-.6-.7c0-.4.3-.7.6-.7zm-8.4.8c.4 0 .6.3.6.7 0 .4-.3.7-.6.7-.4 0-.6-.3-.6-.7 0-.4.3-.7.6-.7z"/><path id="XMLID_19_" class="st1" d="M9.2 7.1v2h2.5v11.1c0 .3-.1.9-.4 1.3-.2.3-.6.6-1.1.7-.6.1-2 .2-2.4-1.3-.1-.5-.1-1.6-.1-1.6H5.6s0 1.6.1 2.2c.2 1 1.4 2.7 4.1 2.7.9 0 3.4-.4 3.8-3.3.2-1.2.1-11.9.1-11.9h2.1V7H9.2z"/><path id="XMLID_18_" class="st1" d="M90.2 144.5v-2h-2.5v-11.1c0-.3.1-.9.4-1.3.2-.3.6-.6 1.1-.7.6-.1 2-.2 2.4 1.3.1.5.1 1.6.1 1.6h2.1s0-1.6-.1-2.2c-.2-1-1.4-2.7-4.1-2.7-.9 0-3.4.4-3.8 3.3-.1 1.2-.1 11.8-.1 11.8h-2.1v2h6.6z"/><path d="M16.7 136.5h65.6V15.1H16.1v121.4h.6zm.5-1V16.1h64.1v119.4H17.2z" style="fill:#0d4f9e"/></g></g></svg>