<svg xmlns="http://www.w3.org/2000/svg" viewBox="0 0 99.4 151.6" style="enable-background:new 0 0 99.4 151.6" xml:space="preserve"><style>.st1{fill-rule:evenodd;fill:#cf492c}.st1,.st2{clip-rule:evenodd}.st2{fill-rule:evenodd;fill:#231f20}.st3{fill-rule:evenodd;fill:#0d4f9e}.st3,.st4{clip-rule:evenodd}.st4{fill-rule:evenodd;fill:#e52529}.st5{stroke:#0d4f9e;stroke-width:.8504;stroke-miterlimit:2.6131}.st5,.st6{fill-rule:evenodd;clip-rule:evenodd;fill:none}.st6{stroke:#231f20;stroke-width:.8504;stroke-miterlimit:2.6131}.st7{stroke:#0d4f9e;stroke-width:1.1339;stroke-miterlimit:2.6131}.st7,.st8{fill-rule:evenodd;clip-rule:evenodd;fill:none}.st8{stroke:#0d4f9e;stroke-width:.7087;stroke-miterlimit:2.6131}.st9{fill-rule:evenodd;fill:none;stroke:#0ca551;stroke-width:.7087;stroke-miterlimit:2.6131}.st9,.st10{clip-rule:evenodd}.st10{fill-rule:evenodd;fill:#0ca551}.st11{fill-rule:evenodd;fill:#d54e2e}.st11,.st12{clip-rule:evenodd}.st12{fill-rule:evenodd;fill:#e32285;stroke:#0ca551;stroke-width:.7087;stroke-miterlimit:2.6131}.st13{fill-rule:evenodd;fill:none;stroke:#0ca551;stroke-width:.7084;stroke-miterlimit:2.6131}.st13{clip-rule:evenodd}.st15{fill-rule:evenodd;fill:none;stroke:#2aabe3;stroke-width:.7087;stroke-miterlimit:2.6131}.st15{clip-rule:evenodd}.st19{fill:#231f20}</style><g id="Calque_2"><path id="XMLID_15_" d="M99.3 5.3v140.9c0 2.9-2.3 5.2-5.2 5.2H5.3c-2.9 0-5.2-2.3-5.2-5.2V5.3C.1 2.4 2.4.1 5.3.1H94c2.9 0 5.3 2.4 5.3 5.2z" style="fill:#fff;stroke:#000;stroke-width:.25;stroke-miterlimit:2.6131"/></g><g id="Calque_1"><g id="XMLID_14_"><path id="XMLID_385_" class="st1" d="M30.5 85.1c-.1-.2-.2-.3-.2-.5 2.4-4.2 6-8.3 9.4-12.4-.2.1.5.4.3.5-3.6 3.8-7.2 8.2-9.5 12.4z"/><path id="XMLID_384_" class="st2" d="M27.3 38.2c-.1 1.4-.4 4.3-1.4 5.6h4s-2-4.3-1.1-6.3c.5-1 .7-.3.8.7.5 3.4 5.6 3.3 6.5.3.9-3-.7-5.8-3.6-9.4-2.8-3.6-4.1-6.5-4.7-8.2-.6 3.2-5.1 9-7.1 12.1-2 3.1-1.2 6.6 1 7.6s4.5-.9 4.8-2.7c.2-1.6.9-.4.8.3z"/><path id="XMLID_383_" class="st3" d="m36.5 48.9-12 11.3s1 2.8 2.9 2.9c1.9.1 1.3 1.2 4 1.2s3.9-1.4 3.9-1.4l8.1-7.1-6.9-6.9z"/><path id="XMLID_382_" class="st4" d="M39.2 45.7 37.4 48c3.3 2.7 6.3 5.7 8.5 9.1 1 1.5 1.8 3.6 1.4 5.3l12 9.9h6.3l.9-1.7-27.3-24.9z"/><path id="XMLID_381_" class="st3" d="M39.5 72.4h10.9l-5.4-5z"/><path id="XMLID_380_" class="st5" d="M71 15.7c.1 1.4.6 2.5 1.8 2.7"/><path id="XMLID_379_" class="st5" d="M70 15.7c.1 1.4.7 3.4 2.5 3.8"/><path id="XMLID_378_" class="st5" d="M64.1 15.7c-.4 1.7-1.4 4.2-3.8 3.6"/><path id="XMLID_377_" class="st5" d="M69 15.7c.1 1.5 1.2 4.4 3.4 4.9"/><path id="XMLID_376_" class="st5" d="M65 15.7c-.1 1.5-1.4 5.4-5.4 4.8"/><path id="XMLID_375_" class="st5" d="M67.8 15.7c.1 1.5 1.3 5.9 4.6 6.5"/><path id="XMLID_374_" class="st5" d="M66 15.7c-.1 2-1.6 6.7-7.1 6"/><path id="XMLID_373_" class="st1" d="M37.9 15.7c.9 1.9 3.3 11.6.4 18.7l7.4 2.7L57 15.7H37.9z"/><path id="XMLID_372_" class="st5" d="M66.9 15.7c.1 1.5.6 6.2 5.6 7.6"/><path id="XMLID_371_" class="st5" d="M66.9 15.7c-.1 3.8-2.4 8.2-9 7"/><path id="XMLID_370_" class="st6" d="M52.9 15.7s0 4.6-4.6 5c.6 2.6.4 6.3-4 7.2 1 4.1-.3 5.6-3.5 7.3"/><circle id="XMLID_369_" class="st2" cx="49.8" cy="21.8" r=".5"/><circle id="XMLID_368_" class="st2" cx="51.1" cy="16.7" r=".7"/><circle id="XMLID_367_" class="st2" cx="48.7" cy="17.4" r=".6"/><circle id="XMLID_366_" class="st2" cx="44.8" cy="24.5" r=".6"/><circle id="XMLID_365_" class="st2" cx="40.8" cy="31.8" r=".6"/><circle id="XMLID_364_" class="st2" cx="45.6" cy="22.9" r=".6"/><circle id="XMLID_363_" class="st2" cx="41.7" cy="30" r=".6"/><circle id="XMLID_362_" class="st2" cx="45.8" cy="29" r=".5"/><path id="XMLID_361_" class="st2" d="M46.6 17.6c0-.7 1.1-.9 1 0 0 .9-.7 1.6-.7 1.6-.1-.5-.3-.9-.3-1.6z"/><path id="XMLID_360_" class="st2" d="M42.7 24.7c0-.7 1.1-.9 1 0 0 .9-.7 1.6-.7 1.6-.1-.5-.3-.9-.3-1.6z"/><path id="XMLID_359_" class="st2" d="M38.8 32c0-.7 1.1-.9 1 0 0 .9-.7 1.6-.7 1.6-.1-.6-.4-1-.3-1.6z"/><path id="XMLID_358_" class="st2" d="M44.7 19.5c-.6-.3-.3-1.4.4-1 .7.4 1.3 1.3 1.3 1.3-.5-.1-1.1 0-1.7-.3z"/><path id="XMLID_357_" class="st2" d="M40.8 26.6c-.6-.3-.3-1.4.4-1 .7.4 1.3 1.3 1.3 1.3-.5-.1-1.1 0-1.7-.3z"/><path id="XMLID_356_" class="st2" d="M45.1 21.9c-.5.4-1.2-.3-.6-.7.6-.4 1.6-.6 1.6-.6-.3.4-.5 1-1 1.3z"/><path id="XMLID_355_" class="st2" d="M41.2 29c-.5.4-1.2-.3-.6-.7.6-.4 1.6-.6 1.6-.6-.3.4-.5 1-1 1.3z"/><path id="XMLID_354_" class="st2" d="m46.2 21.4.7-1.1s1.2 1.3 1 2.6c-.2 1.3-.6 1.4-1 1.1-.4-.3-.1-.8.2-.9.3-.1.1-.7-.2-1.1-.3-.4-.7-.6-.7-.6z"/><path id="XMLID_353_" class="st2" d="m42.3 28.4.7-1.1s1.2 1.3 1 2.6c-.2 1.3-.6 1.4-1 1.1-.4-.3-.1-.8.2-.9.3-.1.1-.7-.2-1.1-.3-.3-.7-.6-.7-.6z"/><path id="XMLID_352_" class="st2" d="m47.8 19-.8 1.1s1.7.3 2.7-.4c1-.6 1-1.4.5-1.7-.4-.2-.9.2-.7.5.1.3-.4.6-.8.6-.5 0-.9-.1-.9-.1z"/><path id="XMLID_351_" class="st2" d="m43.9 26.1-.8 1.1s1.7.3 2.7-.4c1-.6 1-1.4.5-1.7-.4-.2-.9.2-.7.5.1.3-.4.6-.8.6-.5 0-.9-.1-.9-.1z"/><path id="XMLID_350_" class="st2" d="m40 33.3-.8 1.1s1.7.3 2.7-.4c1-.6 1-1.4.5-1.7-.4-.2-.9.2-.7.5.1.3-.4.6-.8.6-.5.1-.9-.1-.9-.1z"/><path class="st3" d="M65.6 25.6c.5 0-1-1.8-3.2-1.5-1.8.2-2.1.7-3.4 1.4 1.2-.3 3.2-.5 4.9-.3.9 0 1.6.4 1.7.4zm-2.5.6c-2.8-.1-3.7 1.2-3.7 1.2s.4.1 1.2-.2c.4-.1.9-.2 1.4-.2.5 0 .9.2 1.3.2.7 0 1.2-.6 1.2-.6l-.1.6s-.5.3-.2.9c.4.6.5.1.2 1-.4.9-.9 1.4-1.4 1.5.5-.9 1.1-1.5-.3-1.2-1.9.3-3-.8-3-.8h-2V28s.5-.2 1.7-1.3c1.4-1.1 3.4-.8 3.7-.5zm-2 1.7c-.5 0-.7.1-1 .4-.3.3 1.6.6 1.2.3-.3-.3-.2-.7-.2-.7zm.4-.2s-.3.7.3 1.1c.5.4 1 .1 1.2 0 .2-.2.6-.6.3-.9-.2-.2-.2.6-.8.7s-1-.9-1-.9zm1.9 6.4s.1 1.4.7 1.3c.6-.1 1.4-.9 1.8-.9.4 0 .8.1.7.5-.1.4-.7.5-1.2.6-.5.1-1.3.4-1.7.1-.4-.2-.7-.6-.3-1.6zm8.9-9.6s-2.7-.2-3.5.6c-.8.8-1.3 2.1-1.2 3.6.1 1.5.8 5.5.8 5.5s-1 .8-1.1 1.1c-.1.3-.1.8.4.4s1.2-1.1 1.2-1.3l-1-4.4.3-.1.5.4.2-.2-.6-.6V29s1 .7 2.3.5c1.4-.2 1.7-.8 1.7-.8v-4.2zm-3.7 1.7c.2-.5 1.4-1.1 2.7-.7 1.3.4 1.1.5 1.1.5s.3.8-.3.4c-.4-.4-2.5-.7-3.5-.2zm-.4.8c.3 0 .8-.7 2.2-.5 1.5.2 1.6.8 1.6.8s-.7-.1-1.7-.2c-1 0-2.1.3-2.1.3V27zm.8 1c0 .5.3 1 .3 1s-.2 0-.5-.1c-.4-.2-.7-.7-.7-.7l.9-.2zm.5 0h.3c0 .4.2.7.4.7.6 0 .6-.7.6-.7s.5-.2.3.3-.2.9-.9.9-.7-1.2-.7-1.2zm2 0c.3 0 .7 0 .9.2 0 0-1.1 1.1-1.1.7.1-.4.2-.9.2-.9zm-8.2 10.1s.7.2 1.2 0c.3-.1 1-.8 1.4-.3.3.4.5.3.5.3s.1-.3.5-.4c.4-.1.6.1.8.2.2 0 .5.2.8-.1.2-.2.2.1.3.4.1.3.1.6.1.6s-.1-.1-.5-.2c-.5-.1-.6.1-1 .3-.4.2-.9.6-1.6.2-.7-.3-1.9-.1-2.5.4-.1-.4-.1-.7 0-1.4zm2.3 2.5s.3-.2.8-.2 1 .3 1 .2c0-.1-.1-.3-.6-.5h-.1c.5-.2.6-.4.7-.5.1-.1-.5.2-1.2.2-.6 0-.9-.2-.9-.2.2.4.4.5.8.5.1 0 .1 0 .2.1-.4-.1-.6 0-.7.4z"/><path id="XMLID_336_" class="st4" d="M55.6 15.8 44.5 36.4l1.1.7 11.7-21.3z"/><path id="XMLID_335_" class="st7" d="M55.6 15.8 44.5 36.4"/><path id="XMLID_334_" class="st1" d="M46.5 44.6 66 62.3 69.8 47l3.9-1.5-2.3-2.5-2.6-1c-5.4 2.9-12.2-2.4-15.6-9.5l-6.7 12.1z"/><path id="XMLID_333_" class="st3" d="M72.4 23.8c.8 4.6 3.2 18.9 2.2 22.7-1.5-.8-4.9-3.9-5.8-4.4 2.7-2.2 3.2-8.2 3.6-18.3z"/><path id="XMLID_332_" class="st3" d="m49.2 38.9-.3.9c3.7 1.3 8.6 2.5 12.5 2.3-.8-.6-1.6-1.1-2.4-1.7-2.9.5-6.9-.8-9.8-1.5z"/><path id="XMLID_331_" class="st8" d="M56.8 38.4s0 1.7.3 2.6"/><path id="XMLID_330_" class="st8" d="M55.3 36.4s.2 3.2.6 4.4"/><path id="XMLID_329_" class="st8" d="m53.4 33.2 1 7.8"/><path id="XMLID_328_" class="st8" d="m52.2 34.2 1 6.1"/><path id="XMLID_327_" class="st8" d="m51.2 35.6.9 4.6"/><path id="XMLID_326_" class="st9" d="M48 41c3.9 2.9 17.7 5 22 1.9"/><path id="XMLID_325_" class="st9" d="m53.4 47.7 12.7 12 2.8-11.3s-2.6.4-6.1.4c-2.9-.1-6.3-.5-9.4-1.1z"/><path class="st2" d="M69.8 46.8c.6-.1 1.2-.3 1.7-.4l-.7-1.8-.6-.5-1.2.4.8 2.3zm-2.9.5c.6-.1 1.2-.1 1.7-.2l-.5-2.5-1.5.2.3 2.5zm-3.1.2c.6 0 1.2 0 1.7-.1l-.1-2.4h-1.5l-.1 2.5zm-2.8-.1c.6 0 1.1.1 1.6.1l-.1-2.3-1.5-.1v2.3zm-3-.3c.6.1 1.2.1 1.8.2l.1-2.2-1.7-.1-.2 2.1zm-2.9-.4c.5.1 1 .2 1.6.3l.3-2.1-1.6-.2-.3 2zm-3-.7c.5.1 1 .3 1.6.4l.5-1.9-1.7-.3-.4 1.8zm-2.9-.8c.5.2 1 .3 1.6.5l.7-1.9-1.6-.5-.7 1.9zm-1.2-.4c-1-.3-1.5-.6-1.5-.6l-1-.7.6-1.6 2.6 1-.7 1.9z"/><path id="XMLID_315_" class="st9" d="M57.9 50.1h9.5l-1.8 7.2z"/><path id="XMLID_314_" class="st9" d="M60.8 50.1h4.7l-1.6 1.4z"/><path id="XMLID_313_" class="st9" d="m67.4 50.1-3.3 2.5-5.7-2"/><path id="XMLID_312_" class="st9" d="m66.9 52-2.3 1.7-4.3-1.3"/><path id="XMLID_311_" class="st9" d="m66.6 53.6-1.8 1.3-2.6-.8"/><path id="XMLID_310_" class="st9" d="M66.1 55c-.9 1-1.2 1.1-2.4.5"/><path id="XMLID_309_" class="st1" d="M26.2 54.9s.7 2.5 3.1 3.2c2.4.7 3.8 2.7 3.4 4.1-.7.1-.9 0-1.3.1 0 0-1.3-2.2-2.7-2.5-1.5-.3-2.7-1.9-3.2-2.8-.6-.9-.7-1.8-.7-1.8l1.4-.3z"/><path id="XMLID_308_" class="st1" d="M27.3 59.9s1.5-.2 2.6.9c1.2 1.1.9 1.4.7 1.4-.3 0-.6.1-.6 0-.1-.2-.8 0-.9-.3-.1-.3-.3-.2-.9-.3-.6-.1-1-1.2-.9-1.7z"/><path id="XMLID_307_" class="st1" d="M33.9 55.5s.4.1.7.6c.5.7.8 2.5.6 3.7-.4 2-.5 1.6-.7 2-.3.3-1.2.8-1.4-1.1.1-2.4.8-5.2.8-5.2z"/><path id="XMLID_306_" class="st3" d="M43.5 59.7 41 61.8l-2.3-1 1.1 2.1-1.5 2.7 2.7-2.1 2.5 1.8-1.5-2.6z"/><path id="XMLID_305_" class="st3" d="m32 72.4-2.5 1.8-2.4-1.4 1.6 2.4-1.5 2.8 2.5-1.8 2.4 1.1-1.5-2.1z"/><path id="XMLID_304_" class="st3" d="M34.9 68.9c-.9.3-1.6.3-1.1.7.3.2-.1.7-.8 1l-.7.8 2.5-1.4 2.6 1.6-1.7-2.5 1.9-2.7-2.8 1.1c.6.4.7 2.2.1 1.4z"/><circle id="XMLID_303_" class="st3" cx="41" cy="66.2" r=".7"/><circle id="XMLID_302_" class="st3" cx="29.7" cy="78.6" r=".7"/><circle id="XMLID_301_" class="st3" cx="37.3" cy="63.1" r=".7"/><circle id="XMLID_300_" class="st3" cx="25.9" cy="75.7" r=".7"/><circle id="XMLID_299_" class="st3" cx="34.5" cy="72.5" r=".7"/><path id="XMLID_298_" class="st8" d="M35.9 65.3c.2 0 .6 1.1.2 1.9-.5.8-.5 1.6-1.7 2.9-.9 1-6.1 1.2-6.4.4-.4-1.5-.3-5.8 1-6.9.3-.3.2-.8.4-.8 3.2-.9 8.3.6 6.5 2.5z"/><path id="XMLID_297_" class="st8" d="M35.9 65.3c-.7.2-2.9.2-4.1-.7"/><path id="XMLID_296_" class="st8" d="M36.2 67c-.6.3-3 .7-4.6 0"/><path id="XMLID_295_" class="st8" d="M35.2 69c-.6.3-2.8.3-4.7-.2"/><path id="XMLID_294_" class="st1" d="M51.3 72.4h-.9l-5.4-5 .3-.3z"/><path id="XMLID_293_" class="st2" d="M51.3 72.4h1.4l-6.6-6.2-.8.9z"/><path id="XMLID_292_" class="st1" d="M55.1 72.4h-2.4l-6.6-6.2.7-1.5z"/><path id="XMLID_291_" class="st10" d="M55.1 72.4h.9l-9-8.5-.2.8z"/><path id="XMLID_290_" class="st2" d="M57.2 72.4H56l-9-8.5.2-1.1z"/><path id="XMLID_289_" class="st1" d="M57.2 72.4H60L49.3 62c-1-.6-2-1-2.1.8l10 9.6z"/><path id="XMLID_288_" class="st9" d="M60 72.4 49.3 62c-1-.6-2-1-2.1.8"/><path id="XMLID_287_" class="st8" d="m39.2 45.7-1.8 2.2"/><path id="XMLID_286_" class="st11" d="m39.3 47-.3-.2-.5.7.3.2z"/><path id="XMLID_285_" class="st11" d="m43.4 51-.3-.3-.5.7.3.3z"/><path id="XMLID_284_" class="st11" d="m45.6 53-.3-.2-.7.7.3.3z"/><path id="XMLID_283_" class="st11" d="m49.6 56.7-.3-.2-1 1.2.2.3z"/><path id="XMLID_282_" class="st11" d="m53.8 60.6-.3-.2-1 1.3.3.2z"/><path id="XMLID_281_" class="st11" d="m58.2 64.6-.3-.2-1 1.2.3.3z"/><path id="XMLID_280_" class="st11" d="m62.5 68.7-.3-.2-1 1.2.3.3z"/><path id="XMLID_279_" class="st11" d="M50.1 60.1c-.1-.1-.2-.1-.3-.1-.3 0-.6.3-.6.6s.3.6.6.6.6-.3.6-.6v-.2l1.4-1.6-.3-.2-1.4 1.5z"/><path id="XMLID_278_" class="st11" d="M54.5 64.1c-.1-.1-.2-.1-.3-.1-.3 0-.6.3-.6.6s.3.6.6.6.6-.3.6-.6v-.2l1.4-1.6-.3-.2-1.4 1.5z"/><path id="XMLID_277_" class="st11" d="M58.8 68.1c-.1-.1-.2-.1-.3-.1-.3 0-.6.3-.6.6s.3.6.6.6.6-.3.6-.6v-.2l1.4-1.6-.3-.2-1.4 1.5z"/><path id="XMLID_276_" class="st11" d="m47.5 54.8-.3-.2-.7.9.3.2z"/><path id="XMLID_275_" class="st11" d="m46.7 53.9-.5-.4-.9.9.5.4z"/><path id="XMLID_274_" class="st11" d="m40.7 48-.5-.4-.6.9.5.3z"/><path id="XMLID_273_" class="st11" d="m42.6 50-.5-.4-.7.7.5.4z"/><path id="XMLID_272_" class="st11" d="m41.6 49-.4-.3-.7.8.4.3z"/><path id="XMLID_271_" class="st11" d="m44.8 52.1-.6-.4-.7.8.6.4z"/><path id="XMLID_270_" class="st11" d="m48.8 56-.5-.6-1.2 1.4c-.4.5-.4.9-.4 1.2 0 0 .5 1.2 1.2 1.4.7.2 1.4-.2 1.5-.3l1.2-1.4-.5-.5-1.1 1.4c-.2.1-.7.4-1.2.1-.5-.3-.3-1-.1-1.3l1.1-1.4z"/><path id="XMLID_269_" class="st11" d="m53.1 59.9-.5-.6-1.2 1.4c-.4.5-.4.9-.4 1.3 0 0 .5 1.2 1.2 1.4.8.2 1.4-.2 1.5-.3l1.2-1.4-.5-.5-1.2 1.4c-.2.1-.7.4-1.2 0-.5-.3-.3-1.1-.1-1.3l1.2-1.4z"/><path id="XMLID_268_" class="st11" d="m57.5 63.9-.5-.6-1.2 1.4c-.4.5-.4.9-.4 1.3 0 0 .5 1.2 1.2 1.4.8.2 1.4-.2 1.5-.3l1.2-1.4-.5-.5-1.2 1.4c-.2.1-.7.4-1.2.1-.5-.3-.3-1.1-.1-1.3l1.2-1.5z"/><path id="XMLID_267_" class="st11" d="m61.8 68-.5-.6-1.3 1.4c-.4.5-.4.9-.4 1.3 0 0 .5 1.2 1.2 1.4.8.2 1.4-.2 1.5-.3l1.2-1.4-.5-.5-1.2 1.4c-.2.1-.7.4-1.2.1-.5-.3-.3-1.1-.1-1.3l1.3-1.5z"/><path id="XMLID_266_" class="st4" d="M19.7 57.7 17 56.6v41.2l7.9 7.3 5.3-20.7-12.1-8.6c2.2-.6 3.4-5.2 5.4-7l-2.9-2.6 1.4-2.6c.6-.7.9-.8-2.3-5.9z"/><path id="XMLID_265_" class="st8" d="m17 97.8 8.4 7.8"/><path id="XMLID_264_" class="st1" d="M22.3 78.7c.3 1.1 3.4 13.2.6 13.7 1.9.5 2 3 .3 4.4 1.1.8.8 3.8.8 3.8l-1.9 15.5 2 4.1-2.5 4.4-1.6-4.4s1.1-2.2 1.7-3.6c.7-1.4.1-2.1.1-2.1s-1.2-12.3-1.7-14.8c-.6-2.5 1-2.1.7-3.2-1.9-1.9-.4-3.4.3-4.1-1.5-.9-.9-3.7-.9-3.7L21.5 78l.8.7z"/><circle id="XMLID_263_" class="st1" cx="23.7" cy="115.7" r="1.6"/><circle id="XMLID_262_" class="st1" cx="20.5" cy="115.7" r="1.6"/><path id="XMLID_261_" class="st9" d="M21.8 98s-.7.7-.5 2.6c.1 1.9.8 10.1.8 8.7"/><path id="XMLID_260_" class="st9" d="M22.1 91.7s-.9-.5-.8-2.5c.1-1.9.8-9.6.8-8.7"/><path id="XMLID_259_" class="st9" d="M22.1 97c1.2 0 2.2-1 2.2-2.3s-1-2.3-2.2-2.3c-1.2 0-2.2 1-2.2 2.3s1 2.3 2.2 2.3z"/><path id="XMLID_258_" class="st10" d="M21.6 93.6h.5s-.7.5-.7 1.3.6 1.3.6 1.3h-.6s-.6-.5-.5-1.4c.2-1 .7-1.2.7-1.2z"/><path id="XMLID_257_" class="st12" d="m22 118.2 1 2.1-1.1 2.2-.8-2.3z"/><path id="XMLID_256_" class="st11" d="m28.4 86.8.2-.8h-.1c-1 0-1.8.8-1.8 1.9 0 .8.5 1.4 1.1 1.7l.2-.9c-.3-.2-.6-.5-.6-.9 0-.5.4-.9 1-1z"/><path id="XMLID_255_" class="st11" d="m27.1 92.5.2-.8h-.1c-1 0-1.7.8-1.7 1.8 0 .7.4 1.4 1.1 1.6l.2-.8c-.3-.2-.5-.5-.5-.8-.2-.4.2-.8.8-1z"/><path id="XMLID_254_" class="st11" d="M28.9 85.1c0-.3-.5-1-.8-1-.3 0-.6.3-.6.6s.3.6.6.6c.5-.3.9 0 .8-.2z"/><path id="XMLID_253_" class="st11" d="M27.5 90.8c0-.3-.5-1-.8-1-.3 0-.6.3-.6.6s.3.6.6.6c.5-.3.9 0 .8-.2z"/><path id="XMLID_252_" class="st11" d="M25.6 95.8c-.3 0-.6.3-.6.6s.3.6.6.6c.4-.3.8-.9 0-1.2z"/><path id="XMLID_251_" class="st11" d="M25.4 97.8c-.2 0-.4.2-.4.4s.2.4.4.4c.3-.2.5-.6 0-.8z"/><path id="XMLID_250_" class="st7" d="M37.9 15.7c.9 1.9 3.3 11.6.4 18.7l7.4 2.7"/><path id="XMLID_249_" class="st1" d="m19.4 57.8 8.2 4.1s-1.9 3.7-1.8 5.2c.1 1.5.6 4.3.6 4.3l-7 3.6s.9-3.9 3.1-6c.3-.5-1.4-1-2.5-2.9.7-1.2 1.6-2 2.2-2.6-.5-.8-2.6-3.8-2.8-5.7z"/><path id="XMLID_248_" class="st13" d="M19.3 75s.9-3.9 3.1-6c.3-.5-1.4-1-2.5-2.9.7-1.2 1.6-2 2.2-2.6-.4-.9-2.6-3.9-2.8-5.8"/><path id="XMLID_247_" class="st2" d="m21.5 59 1.9.9c0 1.4.9 3.4 1.8 4.2.4.4.6.4.4.7-.1.3-.3.8-.6.9-.5.4-1.5.8-1.5.8.3.7.5 1 1.2 1.5-.2.6-.1 1.1.1 1.8-.8 1-1.1 2-1.3 2.9l-1.8 1c.4-1.6.9-3.1 1.9-4.7-.7-.8-1.3-1.7-1.8-2.7.7-.7 1.2-1.2 2.1-1.6-1.3-1.8-1.9-3.8-2.4-5.7z"/><path class="st8" d="m26.3 71.4-7 3.6m-2.1-18.4 10.3 5.3"/><path id="XMLID_244_" class="st5" d="m72.7 15.7-.3 12.1s.7 15.4-6.6 15.2c-7.2-.2-12.2-8.8-12.7-10.9"/><path id="XMLID_243_" class="st1" d="m36.5 48.9.9-1s10 8.5 10 12.5-1 5.7-2.8 7.4c-1.2 1.1-3.4 2.6-5.5 4.9-3.4 3.7-7.5 8.9-8.9 11.6l-12.1-8.6 1.8-1.2 10 7.1s6.2-8.7 7.8-10.2c1.6-1.4 7.6-5 7.9-8.7.4-3.6-2.2-7.1-2.4-7-2.2-2.1-4.3-4.6-6.7-6.8z"/><path id="XMLID_242_" class="st2" d="m62.5 15.8-16 28.8L66 62.3 69.8 47l4-1.3.9.7c.3.4.7.9.9 1.4l-5 20.2-1.2-1.4L67 71l-.6.1-1.1.1-1.2-2.3-25-23.2 6.4-8.6 11.8-21.2h5.2z"/><path id="XMLID_241_" class="st1" d="M44 48.1s1.7-1 .7-1.7c-1.1-.8-2 .9-1.6 1.9.4 1 2 1.9 2 1.9l1 .1c-.1 0-.3 1.3 1.1 1.9 1.3.7 2.1-.6 1.6-1.1-.5-.5-1-.1-1.3.3-.2.4-.8-.9-.1-1.4.7-.3 2.1-.5 2.8.9.7 1.3.1 2.6-.5 2-.5-.6-1.7.1-1 .9.7.7 1.2.4 1.2.4s-.2 1.2.7 1.3c.9.1 1.3-1 .6-1.3-.7-.4.4-1.4 1.7-.7 1.2.7.9 2.1.9 2.3 0 .2-.4.8-1-.4-.6-1.1-2.1.3-1.1 1.3s1.9.3 1.9.3.3 2 1.6 3.2c1.3 1.2 2.9.3 2.9-.9 0-.8-.4-1-1.1-1-.6 0-.6.6-.3 1.2-.2.7-1.4-.6-1.6-1.3-.2-.7-.2-1.8.1-1.9.2-.1 1.8.8 1.3-1.1-.2-.7-1.2-.5-1.5-.4-.1 0-.3-2.8-3.3-2.7-.1-1.1-.2-2.8-3.4-3.3 0-2.2-2.4-1.6-1.9 0-.4 1.2-2.2.2-2.4-.7z"/><path id="XMLID_240_" class="st1" d="M59.3 61.1s1 .3 1.1-.4c.1-.7-.6-1.2-1.2-1-.6.3-1.3.9-1.1 2.1.1 1.3.9 1.9 2 2.6 1.1.7 1.6.5 1.8.4.2-.1-.2 1.1.6 1.7.9.6 1.4.6 1.2-.3-.3-.9-1-1.6-.4-2.1.6-.6 1.3 0 1.4-.1l.8-.7c-.4-.5-1-.8-1.6-.8-.2-.2 0-1.1-.9-1.3-.9-.2-1.5.5-1.2 1.2.3.6 1.1 1.2.2 1.3-.8.1-2.9-.3-2.7-2.6z"/><circle id="XMLID_239_" class="st1" cx="66.7" cy="66.9" r="1"/><ellipse id="XMLID_238_" class="st1" cx="66.7" cy="69" rx="1" ry="1.1"/><path id="XMLID_237_" class="st1" d="M71.9 48.6s.9 1.1 1.5.6c.6-.6.4-1.5-.2-1.8-.6-.3-1.8-.2-2.5.4-.7.6-1.1 3.1.2 3.8.8.5-1.5-.1-2 1.4s.9 1.7 1.2 1.7c.3 0 1.3-.3.5-1.3-.8-.9 1.2-.7 1.1.8-.2 1.5-1.4 2.5-1.8 2.1-.4-.4-.4-1.4-1.2-.9-.8.6.3 1.5-.2 1.7-.5.3-.5.5-.5 1.2.3.6.8.4 1.2.2.4-.3.8-.2 1 .5.2.7.3 2.3-.8 2.5-1.1.2-.7-.5-.7-.5s1.2-1 .2-1.6c-.6-.4-1.8.1-1.7 1.3.1 1.2.5 1.3.5 1.3s-1.2.9-.4 1.5c.8.6 1.5-.4 1.4-.1-.2.4 2.1 1 1.5-.9-.3-.8.9-.6 1-2.3.1-1.7-.3-2.1-.5-2.6.5-.2 1.8-1.4 2.1-3.8-.6-2.1-.2-1.5-.2-1.5.1 0 1.2-1.8-.8-1.8-.6.2-.7-2 .1-1.9z"/><path id="XMLID_236_" class="st1" d="m66.4 70.9-.8 1.1c-1.1-.6-1.9-2.1-1.9-4 0-2.3 1.3-4.2 2.9-4.2 1.2 0 2.3 1.2 2.7 2.7l-1 1.4v-.1c0-1.7-.8-3.1-1.8-3.1s-1.8 1.3-1.8 3c.1 1.8.8 3.1 1.7 3.2z"/><path id="XMLID_235_" class="st2" d="M72.5 113.5c.1-1.4.4-4.3 1.4-5.6h-4s2 4.3 1.1 6.3c-.5 1-.7.3-.9-.7-.6-3.4-5.6-3.3-6.5-.2-.9 3 .7 5.8 3.6 9.4 2.8 3.6 4.1 6.5 4.7 8.2.6-3.2 5.1-8.9 7.1-12.1 2-3.1 1.2-6.6-1-7.6s-4.5.9-4.8 2.7c0 1.6-.7.3-.7-.4z"/><path id="XMLID_234_" class="st3" d="m63.4 102.8 12.1-11.3s-1-2.8-2.9-2.9c-1.9-.1-1.3-1.2-4-1.2s-3.9 1.4-3.9 1.4l-8.1 7.1 6.8 6.9z"/><path id="XMLID_233_" class="st4" d="m60.7 106 1.8-2.3c-3.3-2.7-6.3-5.7-8.5-9.1-1-1.5-1.8-3.6-1.4-5.3l-12-9.9h-6l-1.2 1.5L60.7 106z"/><path id="XMLID_232_" class="st3" d="M60.4 79.3H49.5l5.4 5.1z"/><path id="XMLID_231_" class="st5" d="M28.9 136c-.1-1.4-.6-2.5-1.8-2.7"/><path id="XMLID_230_" class="st5" d="M29.9 136c-.1-1.4-.7-3.4-2.5-3.8"/><path id="XMLID_229_" class="st5" d="M35.8 136c.4-1.7 1.4-4.2 3.8-3.6"/><path id="XMLID_228_" class="st5" d="M30.9 136c-.1-1.5-1.2-4.4-3.4-4.9"/><path id="XMLID_227_" class="st5" d="M34.9 136c.1-1.5 1.4-5.4 5.4-4.8"/><path id="XMLID_226_" class="st5" d="M32.1 136c-.1-1.5-1.3-5.9-4.6-6.5"/><path id="XMLID_225_" class="st5" d="M33.9 136c.1-2 1.6-6.7 7.1-6"/><path id="XMLID_224_" class="st1" d="M62 136c-.9-1.9-3.3-11.6-.4-18.7l-7.4-2.7L42.9 136H62z"/><path id="XMLID_223_" class="st5" d="M33 136c-.1-1.5-.6-6.2-5.6-7.6"/><path id="XMLID_222_" class="st5" d="M33 136c.1-3.8 2.4-8.2 9-7"/><path id="XMLID_221_" class="st6" d="M47 136s0-4.6 4.6-5c-.6-2.6-.4-6.3 4-7.2-1-4.1.3-5.6 3.5-7.3"/><circle id="XMLID_220_" class="st2" cx="50.1" cy="129.9" r=".5"/><circle id="XMLID_219_" class="st2" cx="48.8" cy="135" r=".7"/><circle id="XMLID_218_" class="st2" cx="51.2" cy="134.3" r=".6"/><circle id="XMLID_217_" class="st2" cx="55.1" cy="127.2" r=".6"/><circle id="XMLID_216_" class="st2" cx="59" cy="119.9" r=".6"/><circle id="XMLID_215_" class="st2" cx="54.3" cy="128.8" r=".6"/><circle id="XMLID_214_" class="st2" cx="58.2" cy="121.7" r=".6"/><circle id="XMLID_213_" class="st2" cx="54.1" cy="122.7" r=".5"/><path id="XMLID_212_" class="st2" d="M53.3 134.1c0 .7-1.1.9-1 0 0-.9.7-1.6.7-1.6.1.5.3.9.3 1.6z"/><path id="XMLID_211_" class="st2" d="M57.2 127c0 .7-1.1.9-1 0 0-.9.7-1.6.7-1.6.1.5.3.9.3 1.6z"/><path id="XMLID_210_" class="st2" d="M61.1 119.7c0 .7-1.1.9-1 0 0-.9.7-1.6.7-1.6.1.6.4 1 .3 1.6z"/><path id="XMLID_209_" class="st2" d="M55.2 132.3c.6.3.3 1.4-.4 1-.7-.4-1.3-1.3-1.3-1.3.4 0 1.1-.1 1.7.3z"/><path id="XMLID_208_" class="st2" d="M59.1 125.2c.6.3.3 1.4-.4 1-.7-.4-1.3-1.3-1.3-1.3.4 0 1.1 0 1.7.3z"/><path id="XMLID_207_" class="st2" d="M54.8 129.8c.5-.4 1.2.3.6.8-.6.4-1.6.6-1.6.6.3-.5.5-1.1 1-1.4z"/><path id="XMLID_206_" class="st2" d="M58.7 122.7c.5-.4 1.2.3.6.7-.6.4-1.6.6-1.6.6.3-.4.5-.9 1-1.3z"/><path id="XMLID_205_" class="st2" d="m53.7 130.4-.7 1.1s-1.2-1.3-1-2.6c.2-1.3.6-1.4 1-1.1.4.3.1.8-.2.9-.3.1-.1.7.2 1.1.3.3.7.6.7.6z"/><path id="XMLID_204_" class="st2" d="m57.6 123.3-.7 1.1s-1.2-1.3-1-2.6c.2-1.3.6-1.4 1-1.1.4.3.1.8-.2.9-.3.1-.1.7.2 1.1.3.3.7.6.7.6z"/><path id="XMLID_203_" class="st2" d="m52.1 132.7.8-1.1s-1.7-.3-2.7.4c-1 .6-1 1.4-.5 1.7.4.2.9-.2.7-.5-.1-.3.4-.6.8-.6.5 0 .9.1.9.1z"/><path id="XMLID_202_" class="st2" d="m56 125.7.8-1.1s-1.7-.3-2.7.4c-1 .6-1 1.4-.5 1.7.4.2.9-.2.7-.5-.1-.3.4-.6.8-.6.5-.1.9.1.9.1z"/><path id="XMLID_201_" class="st2" d="m59.9 118.4.8-1.1s-1.7-.3-2.7.4c-1 .6-1 1.4-.5 1.7.4.2.9-.2.7-.5-.1-.3.4-.6.8-.6.5-.1.9.1.9.1z"/><path class="st3" d="M34.3 126.1c-.5 0 1 1.8 3.2 1.5 1.8-.2 2.1-.7 3.4-1.4-1.2.3-3.2.5-4.9.3-1 0-1.6-.4-1.7-.4zm2.5-.6c2.8.1 3.7-1.2 3.7-1.2s-.4-.1-1.2.2c-.4.2-.9.3-1.4.3-.5 0-.9-.2-1.3-.2-.8 0-1.2.6-1.2.6l.1-.6s.5-.3.2-.9c-.4-.6-.5-.1-.2-1 .4-.9.9-1.4 1.4-1.5-.5.9-1.1 1.5.3 1.2 1.9-.3 3 .8 3 .8h2v.5s-.5.2-1.8 1.3c-1.3 1.2-3.3.8-3.6.5zm2-1.6c.5 0 .7-.1 1-.4.3-.3-1.6-.6-1.2-.3.3.2.2.7.2.7zm-.4.1s.3-.8-.3-1.1c-.5-.4-1-.1-1.2 0-.2.2-.6.6-.3.9.2.2.2-.6.8-.7.6 0 1 .9 1 .9zm-1.9-6.4s-.1-1.4-.7-1.3c-.6.1-1.4.9-1.8.9-.4 0-.8-.1-.7-.5.1-.4.7-.5 1.2-.6.5-.1 1.3-.4 1.7-.1.4.2.7.7.3 1.6zm-8.9 9.6s2.7.2 3.5-.6c.8-.8 1.3-2.1 1.2-3.6-.1-1.5-.8-5.5-.8-5.5s1-.8 1.1-1.1c.1-.3.1-.8-.4-.4s-1.2 1.1-1.2 1.3l.9 4.3-.3.1-.5-.4-.2.2.6.6v.5s-1-.7-2.3-.5c-1.4.2-1.7.8-1.7.8l.1 4.3zm3.7-1.7c-.2.5-1.4 1.1-2.7.7-1.3-.4-1.1-.5-1.1-.5s-.3-.8.3-.4c.4.4 2.5.7 3.5.2zm.4-.8c-.3 0-.8.7-2.2.5-1.5-.2-1.6-.8-1.6-.8s.7.1 1.7.2c1 0 2.1-.3 2.1-.3v.4zm-.8-1c0-.5-.3-1-.3-1s.2 0 .5.1c.4.2.7.7.7.7l-.9.2zm-.5 0h-.3c0-.4-.2-.7-.4-.7-.6 0-.6.7-.6.7s-.5.2-.3-.3.2-.9.9-.9.7 1.2.7 1.2zm-2.1.1c-.3 0-.7 0-.9-.2 0 0 1.1-1.1 1.1-.7 0 .4-.2.9-.2.9zm8.3-10.2s-.7-.2-1.2 0c-.3.1-1 .8-1.4.3-.3-.4-.5-.3-.5-.3s-.1.3-.5.4c-.4.1-.6-.1-.8-.2-.2 0-.5-.2-.8.1-.2.2-.2-.1-.3-.4-.1-.3-.1-.6-.1-.6s.1.1.5.2c.5.1.6-.1 1-.3.4-.2.9-.6 1.6-.2.7.3 1.9.1 2.5-.4.1.4.1.8 0 1.4zm-2.3-2.5s-.3.2-.8.2-1-.3-1-.2c0 .1.1.3.6.5h.1c-.5.2-.6.4-.7.5-.1.1.5-.2 1.2-.2.6 0 .9.2.9.2-.2-.4-.4-.5-.8-.5-.1 0-.1 0-.2-.1.4.1.5 0 .7-.4z"/><path id="XMLID_187_" class="st4" d="m44.3 135.9 11.1-20.5-1.1-.8-11.7 21.3z"/><path id="XMLID_186_" class="st7" d="m44.3 135.9 11.1-20.5"/><path id="XMLID_185_" class="st1" d="M53.4 107.1 33.9 89.4l-3.8 15.3-3.9 1.4 4.8 3.6c5.4-2.9 12.2 2.4 15.6 9.5l6.8-12.1z"/><path id="XMLID_184_" class="st3" d="M27.4 127.9c-.8-4.6-3.1-18.9-2.2-22.7 1.5.8 4.9 3.9 5.8 4.4-2.7 2.3-3.1 8.2-3.6 18.3z"/><path id="XMLID_183_" class="st3" d="m50.6 112.8.3-.9c-3.7-1.3-8.6-2.5-12.5-2.3.8.6 1.6 1.1 2.4 1.7 3-.4 7 .8 9.8 1.5z"/><path id="XMLID_182_" class="st8" d="M43.1 113.3s0-1.7-.3-2.6"/><path id="XMLID_181_" class="st8" d="M44.6 115.3s-.2-3.2-.6-4.4"/><path id="XMLID_180_" class="st8" d="m46.5 118.5-1-7.8"/><path id="XMLID_179_" class="st8" d="m47.7 117.5-1-6.1"/><path id="XMLID_178_" class="st8" d="m48.7 116.2-.9-4.7"/><path id="XMLID_177_" class="st9" d="M51.9 110.8s-6.4-2.8-11.3-3c-4-.2-8.9.4-11.1.8"/><path id="XMLID_176_" class="st9" d="M46.5 104 33.8 92 31 103.3s2.6-.4 6.1-.4c2.9.1 6.3.5 9.4 1.1z"/><path class="st2" d="M30.1 104.9c-.6.1-1.2.3-1.7.4l.7 1.8.6.5 1.1-.4-.7-2.3zm2.9-.5c-.6.1-1.2.1-1.7.2l.5 2.5 1.5-.2-.3-2.5zm3.1-.2c-.6 0-1.2 0-1.7.1l.1 2.4H36l.1-2.5zm2.8.1c-.6 0-1.1-.1-1.6-.1l.1 2.2 1.5.1v-2.2zm3 .3c-.6-.1-1.2-.1-1.8-.2l-.1 2.2 1.7.2.2-2.2zm2.9.4c-.5-.1-1-.2-1.6-.3l-.3 2.1 1.6.2.3-2zm3 .7c-.5-.1-1-.3-1.6-.4l-.5 1.9 1.7.3.4-1.8zm2.9.8c-.5-.1-1-.3-1.6-.5l-.7 1.9 1.6.5.7-1.9zm1.2.4c1 .3 1.5.6 1.5.6l1 .7-.6 1.6-2.6-1 .7-1.9z"/><path id="XMLID_166_" class="st9" d="M42 101.6h-9.5l1.8-7.2z"/><path id="XMLID_165_" class="st9" d="M39.1 101.6h-4.7l1.6-1.4z"/><path id="XMLID_164_" class="st9" d="m32.5 101.6 3.3-2.5 5.7 2"/><path id="XMLID_163_" class="st9" d="m33 99.7 2.3-1.6 4.3 1.2"/><path id="XMLID_162_" class="st9" d="m33.3 98.1 1.7-1.3 2.7.9"/><path id="XMLID_161_" class="st9" d="M33.8 96.7c.9-1 1.2-1.1 2.4-.5"/><path id="XMLID_160_" class="st1" d="M73.7 96.8s-.7-2.5-3.1-3.2c-2.4-.7-3.8-2.7-3.4-4.1.7-.1.9 0 1.3-.1 0 0 1.3 2.2 2.7 2.5 1.5.3 2.7 1.9 3.2 2.8.6.9.7 1.8.7 1.8l-1.4.3z"/><path id="XMLID_159_" class="st1" d="M66 96.2s-.4-.1-.7-.6c-.5-.7-.8-2.5-.6-3.7.4-2 .5-1.6.7-2 .3-.3 1.2-.8 1.4 1.1-.1 2.5-.8 5.2-.8 5.2z"/><path id="XMLID_158_" class="st3" d="m56.3 92 2.6-2.1 2.3 1.1-1.2-2.2 1.6-2.7-2.7 2.1-2.5-1.8 1.5 2.7z"/><path id="XMLID_157_" class="st3" d="m67.8 79.3 2.6-1.8 2.4 1.4-1.6-2.4 1.5-2.8-2.5 1.8-2.4-1.1 1.5 2.2z"/><path id="XMLID_156_" class="st3" d="M65 82.8c.9-.3 1.6-.3 1.1-.7-.3-.2.1-.7.8-1l.7-.8-2.5 1.4-2.6-1.6 1.7 2.5-1.9 2.7 2.8-1.1c-.6-.4-.7-2.1-.1-1.4z"/><circle id="XMLID_155_" class="st3" cx="58.9" cy="85.6" r=".7"/><circle id="XMLID_154_" class="st3" cx="70.2" cy="73.1" r=".7"/><circle id="XMLID_153_" class="st3" cx="62.6" cy="88.6" r=".7"/><circle id="XMLID_152_" class="st3" cx="74" cy="76.1" r=".7"/><circle id="XMLID_151_" class="st3" cx="65.4" cy="79.2" r=".7"/><path id="XMLID_150_" class="st8" d="M64 86.4c-.2 0-.6-1.1-.2-1.9.5-.8.5-1.6 1.7-2.9.9-1 6.1-1.2 6.4-.4.4 1.5.3 5.8-1 6.9-.3.3-.2.8-.4.8-3.2.9-8.4-.6-6.5-2.5z"/><path id="XMLID_149_" class="st8" d="M64 86.4c.7-.2 2.9-.2 4.1.7"/><path id="XMLID_148_" class="st8" d="M63.7 84.7c.6-.3 3-.7 4.6 0"/><path id="XMLID_147_" class="st8" d="M64.7 82.7c.6-.3 2.8-.3 4.7.2"/><path id="XMLID_146_" class="st1" d="M48.6 79.3h.9l5.4 5.1-.3.3z"/><path id="XMLID_145_" class="st2" d="M48.6 79.3h-1.4l6.6 6.2.8-.8z"/><path id="XMLID_144_" class="st1" d="M44.8 79.3h2.4l6.6 6.2-.7 1.5z"/><path id="XMLID_143_" class="st10" d="M44.8 79.3h-.9l9 8.5.2-.8z"/><path id="XMLID_142_" class="st2" d="M42.7 79.3h1.2l9 8.5-.2 1.1z"/><path id="XMLID_141_" class="st1" d="M42.7 79.3h-2.8l10.7 10.4c1 .6 2 1 2.1-.8l-10-9.6z"/><path id="XMLID_140_" class="st9" d="m39.9 79.3 10.7 10.4c1 .6 2 1 2.1-.8"/><path id="XMLID_139_" class="st11" d="m60.6 104.7.3.2.5-.7-.4-.2z"/><path id="XMLID_138_" class="st11" d="m56.5 100.8.3.2.5-.7-.3-.3z"/><path id="XMLID_137_" class="st11" d="m54.3 98.7.3.2.7-.7-.3-.3z"/><path id="XMLID_136_" class="st11" d="m50.3 95 .3.2 1-1.2-.3-.2z"/><path id="XMLID_135_" class="st11" d="m46.1 91.1.3.2 1-1.2-.3-.3z"/><path id="XMLID_134_" class="st11" d="m41.7 87.1.3.2 1-1.2-.3-.3z"/><path id="XMLID_133_" class="st11" d="m37.4 83 .3.3 1-1.3-.3-.3z"/><path id="XMLID_132_" class="st11" d="M49.8 91.6c.1.1.2.1.3.1.3 0 .6-.3.6-.6s-.3-.6-.6-.6-.6.3-.6.6v.2l-1.4 1.6.3.2 1.4-1.5z"/><path id="XMLID_131_" class="st11" d="M45.4 87.6c.1.1.2.1.3.1.3 0 .6-.3.6-.6s-.3-.6-.6-.6-.6.3-.6.6v.2l-1.4 1.6.3.2 1.4-1.5z"/><path id="XMLID_130_" class="st11" d="M41.1 83.6c.1.1.2.1.3.1.3 0 .6-.3.6-.6s-.3-.6-.6-.6-.6.3-.6.6v.2l-1.4 1.6.3.2 1.4-1.5z"/><path id="XMLID_129_" class="st11" d="m52.4 96.9.3.2.7-.8-.3-.3z"/><path id="XMLID_128_" class="st11" d="m53.2 97.8.5.4.9-.9-.5-.4z"/><path id="XMLID_127_" class="st11" d="m59.2 103.7.5.4.6-.9-.5-.3z"/><path id="XMLID_126_" class="st11" d="m57.3 101.7.5.5.7-.8-.5-.4z"/><path id="XMLID_125_" class="st11" d="m58.3 102.7.4.3.7-.8-.4-.3z"/><path id="XMLID_124_" class="st11" d="m55.1 99.6.6.4.7-.8-.6-.4z"/><path id="XMLID_123_" class="st11" d="m51.1 95.7.5.6 1.2-1.4c.4-.5.4-.9.4-1.2 0 0-.5-1.2-1.2-1.4-.7-.2-1.4.2-1.5.3L49.2 94l.5.5 1.2-1.4c.2-.1.7-.4 1.2-.1.5.3.3 1 .1 1.3l-1.1 1.4z"/><path id="XMLID_122_" class="st11" d="m46.8 91.8.5.6 1.2-1.4c.4-.5.4-.9.4-1.3 0 0-.5-1.2-1.2-1.4-.8-.2-1.4.2-1.5.3L45 90l.5.5 1.2-1.4c.2-.1.7-.4 1.2-.1.5.3.3 1.1.1 1.3l-1.2 1.5z"/><path id="XMLID_121_" class="st11" d="m42.4 87.8.5.6 1.2-1.4c.4-.5.4-.9.4-1.3 0 0-.5-1.2-1.2-1.4-.8-.2-1.4.2-1.5.3L40.6 86l.5.5 1.2-1.4c.2-.1.7-.4 1.2-.1.5.3.3 1.1.1 1.3l-1.2 1.5z"/><path id="XMLID_120_" class="st11" d="m38.1 83.8.5.6 1.2-1.4c.4-.5.4-.9.4-1.3 0 0-.5-1.2-1.2-1.4-.8-.2-1.4.2-1.5.3L36.2 82l.5.5 1.2-1.4c.2-.1.7-.4 1.2-.1.5.3.3 1.1.1 1.3l-1.1 1.5z"/><path id="XMLID_119_" class="st4" d="m80.2 94 2.1 1.1V53.9l-6.8-6L70.6 68l11.1 8c-2.2.6-3.4 5.2-5.4 7l2.9 2.6-1.4 2.6c-.6.6-.8.7 2.4 5.8z"/><path id="XMLID_118_" class="st8" d="m82.4 53.9-6.8-6.1"/><path id="XMLID_117_" class="st1" d="M77.6 73c-.3-1.1-3.4-13.2-.6-13.7-1.9-.6-2-3-.3-4.4-1-.9-.8-3.9-.8-3.9l1.9-15.5-2-4.1 2.5-4.4 1.6 4.4s-1.1 2.2-1.7 3.6c-.7 1.4-.1 2.1-.1 2.1s1.2 12.3 1.7 14.9c.6 2.5-1 2.1-.7 3.2 1.9 1.9.4 3.4-.3 4.1 1.5.9.9 3.7.9 3.7l-1.3 10.7-.8-.7z"/><circle id="XMLID_116_" class="st1" cx="76.2" cy="36" r="1.6"/><circle id="XMLID_115_" class="st1" cx="79.4" cy="36" r="1.6"/><path id="XMLID_114_" class="st9" d="M78.1 53.7s.7-.7.5-2.6c-.1-1.9-.8-10.2-.8-8.7"/><path id="XMLID_113_" class="st9" d="M77.8 60.1s.9.6.8 2.5c-.1 1.9-.8 9.6-.8 8.7"/><ellipse id="XMLID_112_" class="st9" cx="77.8" cy="57" rx="2.2" ry="2.3"/><path id="XMLID_111_" class="st10" d="M78.3 58.1h-.5s.7-.5.7-1.3-.6-1.3-.6-1.3h.6s.6.5.5 1.4c-.2 1-.7 1.2-.7 1.2z"/><path id="XMLID_110_" class="st12" d="m77.9 33.5-1-2.1 1.1-2.2.8 2.3z"/><path id="XMLID_109_" class="st11" d="m72.3 64.8-.2.9h.1c1 0 1.8-.8 1.8-1.9 0-.8-.5-1.4-1.1-1.7l-.2.9c.3.2.6.5.6.9 0 .3-.4.8-1 .9z"/><path id="XMLID_108_" class="st11" d="m73.7 59-.2.8h.1c1 0 1.7-.8 1.7-1.8 0-.7-.4-1.4-1.1-1.6l-.2.8c.3.2.5.5.5.8.1.5-.3.9-.8 1z"/><path id="XMLID_107_" class="st11" d="M71.8 66.5c0 .3.5 1 .8 1 .3 0 .6-.3.6-.6s-.3-.6-.6-.6c-.5.3-.9 0-.8.2z"/><path id="XMLID_106_" class="st11" d="M73.2 60.8c0 .3.5 1 .8 1 .3 0 .6-.3.6-.6s-.3-.6-.6-.6c-.5.3-.9 0-.8.2z"/><path id="XMLID_105_" class="st11" d="M75.1 55.8c.3 0 .6-.3.6-.6s-.3-.6-.6-.6c-.4.3-.8.9 0 1.2z"/><path id="XMLID_104_" class="st11" d="M75.3 53.8c.2 0 .4-.2.4-.4s-.2-.4-.4-.4c-.3.2-.5.6 0 .8z"/><path id="XMLID_103_" class="st2" d="M61.7 78.1H35.2l4.8-5.7h25.9z"/><path id="XMLID_102_" class="st11" d="M43.2 76.1c-.2.3-.6.6-1.1.6-.7 0-1.3-.6-1.3-1.4 0-.7.6-1.4 1.3-1.4.4 0 .8.2 1.1.6.3-.5.8-.8 1.4-.8.6 0 1.1.3 1.3.8.3-.7.9-1.2 1.7-1.2.6 0 1.1.3 1.5.7.4-.4.9-.7 1.5-.7s1.2.3 1.6.8c.3-.4.8-.6 1.4-.6.8 0 1.4.5 1.7 1.2.3-.5.8-.8 1.3-.8.6 0 1.1.3 1.4.8.2-.3.6-.6 1.1-.6.7 0 1.3.6 1.3 1.4s-.6 1.4-1.3 1.4c-.4 0-.8-.2-1.1-.6-.3.5-.8.8-1.4.8-.6 0-1.1-.4-1.4-.9-.3.6-.9 1-1.7 1-.6 0-1.1-.3-1.4-.7-.4.4-.9.7-1.5.7-.7 0-1.2-.3-1.6-.8-.3.4-.8.6-1.4.6-.7 0-1.3-.4-1.7-1-.3.5-.8.9-1.4.9-.5 0-1-.3-1.3-.8z"/><path id="XMLID_101_" class="st7" d="M62 136c-.9-1.9-3.3-11.6-.4-18.7l-7.4-2.7"/><path id="XMLID_100_" class="st1" d="m80.5 93.9-8.2-4.1s1.9-3.7 1.8-5.2c-.1-1.5-.6-4.3-.6-4.3l7-3.6s-.9 3.9-3.1 6c-.3.5 1.4 1 2.5 2.9-.7 1.2-1.6 2-2.2 2.6.4.8 2.6 3.8 2.8 5.7z"/><path id="XMLID_99_" class="st1" d="m80.5 93.9-8.2-4.1s1.9-3.7 1.8-5.2c-.1-1.5-.6-4.3-.6-4.3l7-3.6s-.9 3.9-3.1 6c-.3.5 1.4 1 2.5 2.9-.7 1.2-1.6 2-2.2 2.6.4.8 2.6 3.8 2.8 5.7z"/><path id="XMLID_98_" class="st13" d="M80.6 76.7s-.9 3.9-3.1 6c-.3.5 1.4 1 2.5 2.9-.7 1.2-1.6 2-2.2 2.6.4.9 2.6 3.9 2.8 5.8"/><path id="XMLID_97_" class="st2" d="m78.4 92.8-1.9-.9c0-1.4-.9-3.4-1.8-4.2-.4-.4-.6-.4-.4-.7s.3-.8.6-.9c.5-.4 1.5-.8 1.5-.8-.3-.7-.5-1-1.2-1.5.2-.6.1-1.1-.1-1.8.8-1 1.1-2 1.3-2.9l1.8-1c-.4 1.6-.9 3.1-1.9 4.7.7.8 1.3 1.7 1.8 2.7-.7.7-1.2 1.2-2.1 1.6 1.3 1.7 1.9 3.7 2.4 5.7z"/><path class="st8" d="m73.6 80.3 7-3.6m1.5 18.2-9.8-5.1"/><path id="XMLID_94_" class="st5" d="m27.2 136 .3-12.1s-.7-15.4 6.6-15.2c7.2.2 12.2 8.8 12.7 10.9"/><path id="XMLID_93_" class="st1" d="m63.4 102.8-.9 1s-10-8.5-10-12.5 1-5.7 2.8-7.4c1.2-1.2 3.4-2.6 5.5-4.9 1.6-1.7 3.3-3.9 4.9-5.9.1-.1.2-.3.3-.4 1.6-2.2 3-4.3 3.6-5.7l1 .9L81.7 76 80 77.2l-10.2-7.3s-6.1 9-7.7 10.4c-1.6 1.4-7.6 5-7.9 8.7-.3 3.6 2.2 7.1 2.4 7 2.3 2.1 4.4 4.6 6.8 6.8z"/><path id="XMLID_92_" class="st2" d="m37.4 135.9 16-28.8-19.5-17.7-3.8 15.3-3.6 1.4-1.5-1 5-19.3.2-1.1.3.4 3.2-4.2.8.4.1.5L60.7 106l-6.4 8.6-11.7 21.3z"/><path id="XMLID_91_" class="st1" d="M55.9 103.6s-1.7 1-.7 1.7c1.1.8 2.1-.9 1.6-1.9-.4-1-2-1.9-2-1.9l-1-.1c.1 0 .3-1.3-1.1-1.9-1.3-.7-2.1.6-1.6 1.1.5.5 1 .1 1.3-.3.2-.4.8.9.1 1.4-.7.3-2.1.5-2.8-.9-.7-1.3-.1-2.6.4-2 .5.6 1.7-.1 1-.9-.7-.7-1.2-.4-1.2-.4s.2-1.2-.7-1.3c-.9-.1-1.3 1-.6 1.3.7.4-.4 1.4-1.7.7-1.2-.7-.9-2.1-.9-2.3 0-.2.4-.8 1 .4.6 1.1 2.1-.3 1.1-1.3s-1.9-.3-1.9-.3-.3-2-1.6-3.2c-1.3-1.2-2.9-.3-2.9.9 0 .8.4 1 1.1 1 .6 0 .6-.6.3-1.2.2-.7 1.4.6 1.6 1.3.2.7.2 1.8-.1 1.9-.2.1-1.8-.8-1.3 1.1.2.7 1.2.5 1.5.4.1 0 .3 2.8 3.3 2.7.1 1.1.2 2.8 3.4 3.3 0 2.2 2.4 1.6 1.9 0 .5-1.2 2.3-.2 2.5.7z"/><path id="XMLID_90_" class="st1" d="M40.6 90.6s-1-.3-1.1.4c-.1.7.6 1.2 1.2 1 .6-.3 1.3-.9 1.1-2.1-.1-1.3-.9-1.9-2-2.6-1.1-.7-1.6-.5-1.8-.4-.2.1.2-1.1-.6-1.7-.9-.6-1.4-.6-1.2.3.3.9 1 1.6.4 2.1-.6.6-1.3 0-1.4.1l-.8.7c.4.5 1 .8 1.6.8.2.2 0 1.1.9 1.3.9.2 1.5-.5 1.2-1.2-.3-.6-1.1-1.2-.2-1.3.7-.1 2.9.3 2.7 2.6z"/><circle id="XMLID_89_" class="st1" cx="33.2" cy="84.9" r="1"/><ellipse id="XMLID_88_" class="st1" cx="33.2" cy="82.9" rx="1" ry="1.1"/><path id="XMLID_87_" class="st1" d="M28 103.1s-.9-1.1-1.5-.6c-.6.6-.4 1.5.2 1.8.6.3 1.8.2 2.5-.4.7-.6 1.1-3.1-.2-3.8-.8-.5 1.5.1 2-1.4s-.9-1.7-1.2-1.7c-.3 0-1.3.3-.5 1.3.8.9-1.2.7-1.1-.8.2-1.5 1.4-2.5 1.8-2.1.4.4.4 1.4 1.2.9.8-.6-.3-1.5.2-1.7.5-.3.5-.5.5-1.2-.3-.6-.8-.4-1.2-.2-.4.3-.8.2-1-.5-.2-.7-.3-2.3.8-2.5 1.1-.2.7.5.7.5s-1.2 1-.2 1.6c.6.4 1.8-.1 1.7-1.3-.1-1.2-.5-1.3-.5-1.3s1.2-.9.4-1.5c-.8-.6-1.5.4-1.4.1.2-.4-2.1-1-1.5.9.3.8-.9.6-1 2.3-.1 1.7.3 2.1.5 2.6-.5.2-1.8 1.4-2.1 3.8.6 2.1.2 1.5.2 1.5-.1 0-1.2 1.8.8 1.8.6-.2.7 2-.1 1.9z"/><path id="XMLID_86_" class="st8" d="m34.5 79.3-3.9 5.9 4-5.9h25.5"/><path id="XMLID_85_" class="st1" d="m33.4 80.9.8-1.1c1.1.6 1.9 2.1 1.9 4 0 2.3-1.3 4.2-2.9 4.2-1.2 0-2.3-1.1-2.7-2.7l1-1.4v.1c0 1.7.8 3 1.8 3s1.8-1.3 1.8-3-.7-3-1.7-3.1z"/><path id="XMLID_84_" class="st9" d="M53.4 107.5s-6.2-2.6-14-3.2c-7.8-.6-12.2 1.5-13.2 1.7"/><path id="XMLID_83_" class="st9" d="M46.5 44.2s6.2 2.6 14 3.2c7.8.6 12.2-1.5 13.2-1.7"/><path id="XMLID_82_" class="st8" d="m69.5 66.7-3.9 5.7H39.8"/><path id="XMLID_81_" class="st8" d="m60.7 106 1.8-2.2"/><path id="XMLID_80_" class="st1" d="M72.6 91.8s-1.5.2-2.6-.9c-1.2-1.1-.9-1.4-.7-1.4.3 0 .6-.1.6 0 .1.3.8 0 .9.3.1.3.3.2.9.3.6.1 1 1.2.9 1.7z"/><path id="XMLID_79_" class="st1" d="M72.3 89.8s1.9-3.7 1.8-5.2c-.1-1.5-.6-4.3-.6-4.3-.8-.8-2-.6-1.6.9.4 1.5.3 5.8-1 6.9-1.1 1.2.5 2.4 1.4 1.7z"/><path id="XMLID_78_" class="st1" d="M27.6 61.9s-1.9 3.7-1.8 5.2c.1 1.5.6 4.3.6 4.3.8.8 2 .6 1.6-.9-.4-1.5-.3-5.8 1-6.9 1.1-1.2-.5-2.3-1.4-1.7z"/><path id="XMLID_77_" class="st4" d="m21.7 46.9 2.5 1.4 4.1-1.3-.1 5.8.5 1.8-3.1-.8-1.9.3-2.1.9.4-4.7z"/><path id="XMLID_76_" class="st8" d="m22.1 49.8-.5-3 2.3 1.4"/><path id="XMLID_75_" class="st8" d="m22.1 52.5-.5 2.6 2.3-1.2"/><path id="XMLID_74_" class="st8" d="m26.4 47.8 2.1-.8-.3 2.8"/><path id="XMLID_73_" class="st8" d="m28.1 52.3.6 2.3-2-.5"/><path d="M20.9 51.1c0 1 .8 1.8 1.9 1.8.4 0 .8-.1 1.2-.4-.2.3-.4.7-.4 1.1 0 1 .8 1.8 1.7 1.8.9 0 1.7-.8 1.7-1.8 0-.6-.7-1.4-.6-1.4.5.4.9.5 1.3.5 1 0 1.7-.7 1.7-1.6 0-.9-.8-1.6-1.7-1.6-.5 0-1 .2-1.3.5-.1-.2.5-.9.5-1.5 0-1-.7-1.8-1.5-1.8-.9 0-1.5.8-1.5 1.8 0 .4.1.8.4 1.2-.3-.3-.7-.4-1.2-.4-1.3.1-2.2.9-2.2 1.8zm4.7 1.3c.5.1 1 .7 1 1.3 0 .7-.6 1.3-1.3 1.3-.7 0-1.3-.6-1.3-1.3 0-.6.4-1.2 1-1.3h.6zm-1.5-.8c-.2.5-.7.8-1.3.8-.8 0-1.4-.6-1.4-1.3 0-.7.6-1.3 1.4-1.3.5 0 1 .3 1.2.7v.5c0 .2 0 .5.1.6zm.6-1.8c-.4-.2-.7-.7-.7-1.2 0-.7.5-1.3 1.2-1.3.6 0 1.2.6 1.2 1.3 0 .5-.2.9-.5 1.1-.1-.1-.3-.1-.5-.1-.3.1-.5.1-.7.2zm1.8.6c.2-.3.6-.5 1-.5.7 0 1.3.5 1.3 1.2s-.6 1.2-1.3 1.2c-.5 0-.9-.2-1.1-.6.1-.2.2-.5.2-.7.1-.2 0-.4-.1-.6zm-1.2-.4c.5 0 .9.4.9 1 0 .5-.4 1-.9 1s-.9-.4-.9-1c.1-.5.4-1 .9-1z" style="fill-rule:evenodd;fill:#0ca551;stroke:#0ca551;stroke-width:.0037;stroke-miterlimit:2.6131;clip-rule:evenodd"/><g id="XMLID_606_"><path id="XMLID_610_" class="st1" d="M25.2 50c.6 0 1.2-.6 1.2-1.3 0-.7-.5-1.3-1.2-1.3-.6 0-1.2.6-1.2 1.3 0 .7.5 1.3 1.2 1.3z"/><ellipse id="XMLID_609_" class="st1" cx="27.6" cy="51.1" rx="1.3" ry="1.2"/><ellipse id="XMLID_608_" class="st1" cx="22.8" cy="51.1" rx="1.4" ry="1.3"/><circle id="XMLID_607_" class="st1" cx="25.3" cy="53.7" r="1.3"/></g><path id="XMLID_57_" class="st1" d="M25.3 50c.5 0 .9.4.9 1 0 .5-.4 1-.9 1s-.9-.4-.9-1c.1-.5.4-1 .9-1z"/><path id="XMLID_51_" class="st9" d="M25.2 48v1.9"/><path id="XMLID_50_" class="st9" d="M28.2 51.1h-1.8"/><path id="XMLID_49_" class="st9" d="M25.2 52.3v1.8"/><path id="XMLID_48_" class="st9" d="M24.1 51.1h-1.8"/><path id="XMLID_45_" class="st15" d="m77.8 101.9.5 3-2.3-1.3"/><path id="XMLID_44_" class="st15" d="m77.8 99.2.5-2.5-2.3 1.1"/><path id="XMLID_43_" class="st15" d="m73.5 104-2.1.7.3-2.8"/><path id="XMLID_42_" class="st15" d="m71.8 99.4-.7-2.3 2.1.6"/><path id="XMLID_41_" style="fill-rule:evenodd;fill:#e52529;stroke:#0d4f9e;stroke-width:.5669;stroke-miterlimit:2.6131;clip-rule:evenodd" d="m78.2 104.8-2.5-1.4-4.2 1.3.2-5.7-.5-1.9 3.1.8 1.9-.3 2.1-.9-.4 4.8z"/><path d="M79 100.6c0-1-.8-1.8-1.9-1.8-.4 0-.8.1-1.2.4.2-.3.4-.7.4-1.1 0-1-.8-1.8-1.7-1.8-.9 0-1.7.8-1.7 1.8 0 .6.7 1.4.6 1.4-.5-.4-.9-.5-1.3-.5-1 0-1.7.7-1.7 1.6 0 .9.8 1.6 1.7 1.6.5 0 1-.2 1.3-.5.1.2-.5.9-.5 1.4 0 1 .7 1.8 1.5 1.8.9 0 1.5-.8 1.5-1.8 0-.4-.1-.8-.4-1.2.3.3.7.4 1.2.4 1.3 0 2.2-.8 2.2-1.7zm-4.7-1.3c-.5-.1-1-.7-1-1.3 0-.7.6-1.3 1.3-1.3.7 0 1.3.6 1.3 1.3 0 .6-.4 1.2-1 1.3h-.6zm1.5.8c.2-.5.7-.8 1.3-.8.8 0 1.4.6 1.4 1.3s-.6 1.3-1.4 1.3c-.5 0-1-.3-1.2-.7.1-.2.1-.3.1-.5-.1-.2-.1-.4-.2-.6zm-.6 1.8c.4.2.7.7.7 1.2 0 .7-.5 1.3-1.2 1.3-.6 0-1.2-.6-1.2-1.3 0-.5.2-.9.5-1.1.1.1.3.1.5.1.3-.1.5-.1.7-.2zm-1.8-.6c-.2.3-.6.5-1 .5-.7 0-1.3-.5-1.3-1.2s.6-1.2 1.3-1.2c.5 0 .9.2 1.1.6-.1.2-.2.5-.2.7-.1.2 0 .4.1.6zm1.2.4c-.5 0-.9-.4-.9-1 0-.5.4-1 .9-1s.9.4.9 1c-.1.5-.4 1-.9 1z" style="fill-rule:evenodd;clip-rule:evenodd;fill:#0ca551;stroke:#0ca551;stroke-width:.216;stroke-miterlimit:2.6131"/><g id="XMLID_611_"><ellipse id="XMLID_615_" class="st1" cx="74.7" cy="103.1" rx="1.2" ry="1.3"/><ellipse id="XMLID_614_" class="st1" cx="72.3" cy="100.6" rx="1.3" ry="1.2"/><ellipse id="XMLID_613_" class="st1" cx="77.1" cy="100.6" rx="1.4" ry="1.3"/><circle id="XMLID_612_" class="st1" cx="74.6" cy="98.1" r="1.3"/></g><ellipse id="XMLID_30_" class="st1" cx="74.6" cy="100.7" rx=".9" ry="1"/><path id="XMLID_29_" class="st9" d="M74.7 103.7v-1.8"/><path id="XMLID_28_" class="st9" d="M71.7 100.6h1.8"/><path id="XMLID_27_" class="st9" d="M74.7 99.4v-1.8"/><path id="XMLID_26_" class="st9" d="M75.8 100.6h1.8"/><path class="st2" d="M15.5 23.9s-1.2.2-2.2-.6c-.8.7-1.8 1.1-2.9 1.1C8 24.4 6 22.5 6 20.1v-2.6H4.9v-1.9H6v-4.1c0-2.4 2-4.3 4.4-4.3 2.4 0 4.4 1.9 4.4 4.3v8.7c0 .6-.1 1.1-.3 1.6.3.3.7.4 1.1.5v1.6h-.1zm-5.2-1.3c.7 0 1.2-.2 1.7-.6-.6-.8-.9-1.6-1.6-2.3-.9-.9-1.7-1.4-2.6-1.7v2.3c0 1.2 1.2 2.3 2.5 2.3zm0-13.6C9 9 7.8 10.1 7.8 11.4v4.5c.3.1.5.1.8.2 2.2.8 3.4 2.4 4.2 3.5v-8.2c0-1.3-1.1-2.4-2.5-2.4zM83.9 127.7s1.2-.2 2.2.6c.8-.7 1.8-1.1 2.9-1.1 2.4 0 4.4 1.9 4.4 4.3v2.6h1.1v1.9h-1.1v4.1c0 2.4-2 4.3-4.4 4.3-2.4 0-4.4-1.9-4.4-4.3v-8.7c0-.6.1-1.1.3-1.6-.3-.3-.7-.4-1.1-.5v-1.6h.1zm5.2 1.3c-.7 0-1.2.2-1.7.6.6.8.9 1.6 1.6 2.3.9.9 1.7 1.4 2.6 1.7v-2.3c0-1.2-1.1-2.3-2.5-2.3zm0 13.6c1.4 0 2.5-1.1 2.5-2.4v-4.5c-.3-.1-.5-.1-.8-.2-2.2-.8-3.4-2.4-4.2-3.5v8.2c0 1.3 1.1 2.4 2.5 2.4z"/><path d="M17.2 136.5h65.6V15.1H16.7v121.4h.5zm.5-1V16.1h64.1v119.4H17.7z" style="fill:#0d4f9e"/><path id="XMLID_17_" class="st19" d="M8.7 40.1c.9-.9 1.1-2.7 1.1-3.1 0-.4-.1-.5-.1-.5-.1 0-.2.1-.2.3-.2 1-.9 1.4-1.3 1.5-1.6.3-2.2-.8-2.3-1.1-.8-1.6 1-4 1.4-4.3 1.8-2.1 3-4.4 3-4.4s1.2 2.3 3 4.4c.3.4 2.2 2.8 1.3 4.3-.2.3-.7 1.3-2.3 1.1-.3-.1-1.1-.5-1.3-1.5 0-.2-.1-.3-.2-.3s-.2.1-.1.5c0 .4.2 2.2 1.1 3.1H8.7z"/><path id="XMLID_16_" class="st19" d="M90.8 111.6c-.9.9-1.1 2.7-1.1 3.1-.1.4.1.5.1.5.1 0 .2-.1.2-.3.2-1 .9-1.4 1.3-1.5 1.6-.3 2.2.8 2.3 1.1.8 1.6-1 4-1.3 4.3-1.8 2.1-3 4.4-3 4.4s-1.2-2.3-3-4.4c-.3-.4-2.2-2.8-1.4-4.3.2-.3.7-1.3 2.3-1.1.4.1 1.1.5 1.3 1.5 0 .2.1.3.2.3s.2-.1.1-.5c0-.4-.2-2.2-1.1-3.1h3.1z"/></g></g></svg>