<svg xmlns="http://www.w3.org/2000/svg" viewBox="0 0 99.4 151.6" style="enable-background:new 0 0 99.4 151.6" xml:space="preserve"><style>.st1{fill-rule:evenodd;clip-rule:evenodd}.st1,.st2{fill:#231f20}</style><g id="Calque_2"><path id="XMLID_15_" d="M99.3 5.3v140.9c0 2.9-2.3 5.2-5.2 5.2H5.3c-2.9 0-5.2-2.3-5.2-5.2V5.3C.1 2.4 2.4.1 5.3.1H94c2.9 0 5.3 2.4 5.3 5.2z" style="fill:#fff;stroke:#000;stroke-width:.25;stroke-miterlimit:2.6131"/></g><g id="Calque_1"><g id="XMLID_14_"><path id="XMLID_28_" class="st1" d="M49.7 16s-1.9 3.9-5 8.1c-3.4 4.5-5.2 7-5.2 10.3 0 2.8 2.2 4.7 4.3 4.7 2.1 0 3.5-.8 4.2-3.5.3-1.1.9-.9.8.3-.2 1.4-.2 4.6-2.5 7.4h6.9c-2.3-2.8-2.3-6-2.5-7.4-.2-1.2.5-1.4.8-.3.7 2.8 2.1 3.5 4.2 3.5s4.3-1.8 4.3-4.7c0-3.3-1.8-5.9-5.2-10.3-3.2-4.2-5.1-8.1-5.1-8.1z"/><path id="XMLID_27_" class="st1" d="M49.7 135.6s1.9-3.9 5-8.1c3.4-4.5 5.2-7 5.2-10.3 0-2.8-2.2-4.7-4.3-4.7-2.1 0-3.5.8-4.2 3.5-.3 1.1-.9.9-.8-.3.2-1.4.2-4.6 2.5-7.4h-6.9c2.3 2.8 2.3 6 2.5 7.4.2 1.2-.5 1.4-.8.3-.7-2.8-2.1-3.5-4.2-3.5s-4.3 1.8-4.3 4.7c0 3.3 1.8 5.9 5.2 10.3 3.2 4.2 5.1 8.1 5.1 8.1z"/><g id="XMLID_43_"><g id="XMLID_44_"><g id="XMLID_45_"><g id="XMLID_49_"><g id="XMLID_50_"><path id="XMLID_26_" class="st2" d="M93.6 138.9s.9 2.2-.6 4c-.4.5-2.4 2.5-6.1 1.1-.9-.4-3.4-1.9-2.5-5.1.1-.5 0-2.1 3.4-4.4.6-.4 3.1-2.2 4-5.5h-5.5v2.4h-2v-4.3h9.8s.3 3.4-2.8 6.9c-.3.3-2.2 2.2-3.2 2.8-.6.4-2.1 1.4-1.8 3.5.1.4.3 1.7 2.1 2 .7.1 2.2.3 3.1-1 .2-.2.5-1 .4-1.9l1.7-.5z"/></g></g><g id="XMLID_46_"><g id="XMLID_47_"><path id="XMLID_25_" class="st2" d="M5.8 12.7s-.9-2.2.6-4c.4-.5 2.4-2.5 6.1-1.1.9.4 3.4 1.9 2.5 5.1-.1.5 0 2.1-3.4 4.4-.6.4-3.1 2.2-4 5.4h5.5v-2.4h2v4.3H5.3S5 21 8.1 17.5c.3-.3 2.2-2.2 3.2-2.8.6-.4 2.1-1.4 1.8-3.5-.1-.4-.3-1.7-2.1-2-.7-.1-2.2-.3-3.1 1-.1.2-.5 1-.4 1.9l-1.7.6z"/></g></g></g></g></g><g id="XMLID_41_"><path id="XMLID_24_" class="st2" d="M8.9 40.1c.9-.9 1.1-2.7 1.1-3.1 0-.4-.1-.5-.1-.5-.1 0-.2.1-.2.3-.2 1-.9 1.4-1.3 1.5-1.6.3-2.2-.8-2.3-1.1-.8-1.6 1-4 1.4-4.3 1.8-2.1 3-4.4 3-4.4s1.2 2.3 3 4.4c.3.4 2.2 2.8 1.4 4.3-.2.3-.7 1.3-2.3 1.1-.3-.1-1.1-.5-1.3-1.5 0-.2-.1-.3-.2-.3s-.2.1-.1.5c0 .4.2 2.2 1.1 3.1H8.9z"/></g><g id="XMLID_39_"><path id="XMLID_23_" class="st2" d="M90.5 111.6c-.9.9-1.1 2.7-1.1 3.1-.1.4.1.5.1.5.1 0 .2-.1.2-.3.2-1 .9-1.4 1.3-1.5 1.6-.3 2.2.8 2.3 1.1.8 1.6-1 4-1.3 4.3-1.8 2.1-3 4.4-3 4.4s-1.2-2.3-3-4.4c-.3-.4-2.2-2.8-1.4-4.3.2-.3.7-1.3 2.3-1.1.4.1 1.1.5 1.3 1.5 0 .2.1.3.2.3s.2-.1.1-.5-.2-2.2-1.1-3.1h3.1z"/></g></g></g></svg>