<svg xmlns="http://www.w3.org/2000/svg" viewBox="0 0 99.4 151.6" style="enable-background:new 0 0 99.4 151.6" xml:space="preserve"><style>.st1{fill-rule:evenodd;clip-rule:evenodd}.st1,.st2{fill:#231f20}</style><g id="Calque_2"><path id="XMLID_15_" d="M99.3 5.3v140.9c0 2.9-2.3 5.2-5.2 5.2H5.3c-2.9 0-5.2-2.3-5.2-5.2V5.3C.1 2.4 2.4.1 5.3.1H94c2.9 0 5.3 2.4 5.3 5.2z" style="fill:#fff;stroke:#000;stroke-width:.25;stroke-miterlimit:2.6131"/></g><g id="Calque_1"><path id="XMLID_25_" class="st1" d="M27.6 16s-1.9 3.9-5 8.1c-3.4 4.5-5.2 7-5.2 10.3 0 2.8 2.2 4.7 4.3 4.7 2.1 0 3.5-.8 4.2-3.5.3-1.1.9-.9.8.3-.2 1.4-.2 4.6-2.5 7.4H31c-2.3-2.8-2.3-6-2.5-7.4-.2-1.2.5-1.4.8-.3.7 2.8 2.1 3.5 4.2 3.5s4.3-1.8 4.3-4.7c0-3.3-1.8-5.9-5.2-10.3-3.1-4.2-5-8.1-5-8.1z"/><path id="XMLID_24_" class="st1" d="M71.8 16s-1.9 3.9-5 8.1c-3.4 4.5-5.2 7-5.2 10.3 0 2.8 2.2 4.7 4.3 4.7 2.1 0 3.5-.8 4.2-3.5.3-1.1.9-.9.8.3-.2 1.4-.2 4.6-2.5 7.4h6.9c-2.3-2.8-2.3-6-2.5-7.4-.2-1.2.5-1.4.8-.3.7 2.8 2.1 3.5 4.2 3.5s4.3-1.8 4.3-4.7c0-3.3-1.8-5.9-5.2-10.3-3.2-4.2-5.1-8.1-5.1-8.1z"/><path id="XMLID_23_" class="st1" d="M27.6 62.1s-1.9 3.9-5 8.1c-3.4 4.5-5.2 7-5.2 10.3 0 2.8 2.2 4.7 4.3 4.7 2.1 0 3.5-.8 4.2-3.5.3-1.1.9-.9.8.3-.2 1.4-.2 4.6-2.5 7.4H31c-2.3-2.8-2.3-6-2.5-7.4-.2-1.2.5-1.4.8-.3.7 2.8 2.1 3.5 4.2 3.5s4.3-1.8 4.3-4.7c0-3.3-1.8-5.9-5.2-10.3-3.1-4.1-5-8.1-5-8.1z"/><path id="XMLID_22_" class="st1" d="M71.8 62.1s-1.9 3.9-5 8.1c-3.4 4.5-5.2 7-5.2 10.3 0 2.8 2.2 4.7 4.3 4.7 2.1 0 3.5-.8 4.2-3.5.3-1.1.9-.9.8.3-.2 1.4-.2 4.6-2.5 7.4h6.9c-2.3-2.8-2.3-6-2.5-7.4-.2-1.2.5-1.4.8-.3.7 2.8 2.1 3.5 4.2 3.5s4.3-1.8 4.3-4.7c0-3.3-1.8-5.9-5.2-10.3-3.2-4.1-5.1-8.1-5.1-8.1z"/><path id="XMLID_21_" class="st1" d="M71.8 135.6s1.9-3.9 5-8.1c3.4-4.5 5.2-7 5.2-10.3 0-2.8-2.2-4.7-4.3-4.7-2.1 0-3.5.8-4.2 3.5-.3 1.1-.9.9-.8-.3.2-1.4.2-4.6 2.5-7.4h-6.8c2.3 2.8 2.3 6 2.5 7.4.2 1.2-.5 1.4-.8.3-.7-2.8-2.1-3.5-4.2-3.5s-4.3 1.8-4.3 4.7c0 3.3 1.8 5.9 5.2 10.3 3.1 4.2 5 8.1 5 8.1z"/><path id="XMLID_20_" class="st1" d="M27.6 135.6s1.9-3.9 5-8.1c3.4-4.5 5.2-7 5.2-10.3 0-2.8-2.2-4.7-4.3-4.7-2.1 0-3.5.8-4.2 3.5-.3 1.1-.9.9-.8-.3.2-1.4.2-4.6 2.5-7.4h-6.9c2.3 2.8 2.3 6 2.5 7.4.2 1.2-.5 1.4-.8.3-.7-2.8-2.1-3.5-4.2-3.5s-4.3 1.8-4.3 4.7c0 3.3 1.8 5.9 5.2 10.3 3.3 4.2 5.1 8.1 5.1 8.1z"/><path id="XMLID_19_" class="st1" d="M49.7 39s-1.9 3.9-5 8.1c-3.4 4.5-5.2 7-5.2 10.3 0 2.8 2.2 4.7 4.3 4.7 2.1 0 3.5-.8 4.2-3.5.3-1.1.9-.9.8.3-.2 1.4-.2 4.6-2.5 7.4h6.9c-2.3-2.8-2.3-6-2.5-7.4-.2-1.2.5-1.4.8-.3.7 2.8 2.1 3.5 4.2 3.5s4.3-1.8 4.3-4.7c0-3.3-1.8-5.9-5.2-10.3-3.2-4.1-5.1-8.1-5.1-8.1z"/><path id="XMLID_18_" class="st2" d="M5.4 7.1h9l1.1 1.6s-3.9 5.2-5.9 15.8h-2s1.2-8 5.2-15.6H7.4V11H5.3l.1-3.9z"/><path id="XMLID_17_" class="st2" d="M94.1 144.5h-9L84 143s3.9-5.2 5.9-15.8h2s-1.2 8-5.2 15.6H92v-2.1h2.1v3.8z"/><path id="XMLID_16_" class="st2" d="M8.9 40.1c.9-.9 1.1-2.7 1.1-3.1 0-.4-.1-.5-.1-.5-.1 0-.2.1-.2.3-.2 1-.9 1.4-1.3 1.5-1.6.3-2.2-.8-2.3-1.1-.8-1.6 1-4 1.3-4.3 1.8-2.1 3-4.4 3-4.4s1.2 2.3 3 4.4c.3.4 2.2 2.8 1.4 4.3-.2.3-.7 1.3-2.3 1.1-.3-.1-1.1-.5-1.3-1.5 0-.2-.1-.3-.2-.3s-.2.1-.1.5c0 .4.2 2.2 1.1 3.1H8.9z"/><path id="XMLID_14_" class="st2" d="M90.5 111.6c-.9.9-1.1 2.7-1.1 3.1 0 .4.1.5.1.5.1 0 .2-.1.2-.3.2-1 .9-1.4 1.3-1.5 1.6-.3 2.2.8 2.3 1.1.8 1.6-1 4-1.4 4.3-1.8 2.1-3 4.4-3 4.4s-1.2-2.3-3-4.4c-.3-.4-2.2-2.8-1.4-4.3.2-.3.7-1.3 2.3-1.1.4.1 1.1.5 1.3 1.5 0 .2.1.3.2.3s.2-.1.1-.5c0-.4-.2-2.2-1.1-3.1h3.2z"/></g></svg>