<svg xmlns="http://www.w3.org/2000/svg" viewBox="0 0 99.4 151.6" style="enable-background:new 0 0 99.4 151.6" xml:space="preserve"><style>.st1{fill-rule:evenodd;clip-rule:evenodd}.st1,.st2{fill:#231f20}</style><g id="Calque_2"><path id="XMLID_15_" d="M99.3 5.3v140.9c0 2.9-2.3 5.2-5.2 5.2H5.3c-2.9 0-5.2-2.3-5.2-5.2V5.3C.1 2.4 2.4.1 5.3.1H94c2.9 0 5.3 2.4 5.3 5.2z" style="fill:#fff;stroke:#000;stroke-width:.25;stroke-miterlimit:2.6131"/></g><g id="Calque_1"><g id="XMLID_16_"><path id="XMLID_60_" class="st1" d="M48 41s-4.5 9.5-12.1 19.6c-8.2 10.8-12.5 16.9-12.5 25 0 6.8 5.4 11.3 10.4 11.3 5.1 0 8.5-1.9 10.2-8.5.7-2.7 2.2-2.2 1.8.8-.5 3.5-.5 11.1-6.1 17.9h16.6c-5.6-6.8-5.7-14.4-6.1-17.9-.4-3 1.1-3.5 1.8-.8 1.7 6.7 5.1 8.5 10.2 8.5 5 0 10.4-4.4 10.4-11.3 0-8.1-4.3-14.2-12.5-25C52.4 50.5 48 41 48 41z"/><g id="XMLID_36_"><g id="XMLID_37_"><g id="XMLID_38_"><g id="XMLID_40_"><g id="XMLID_42_"><g id="XMLID_55_"><g id="XMLID_56_"><path id="XMLID_57_" class="st1" d="m11.1 10.5 1.5 7.6h-3l1.5-7.6zm-5.8 14h4.8v-1.9H8.7l.5-2.6H13l.5 2.6h-1.3v1.9h4.7v-1.9h-1.2L12.3 7.1H9.9L6.5 22.5H5.3v2z"/></g></g><g id="XMLID_48_"><g id="XMLID_51_"><path id="XMLID_52_" class="st1" d="m88.3 141.1-1.5-7.6h3.1l-1.6 7.6zm5.8-14h-4.8v1.9h1.5l-.5 2.6h-3.8L86 129h1.3v-1.9h-4.7v1.9h1.2l3.4 15.5h2.3l3.4-15.4h1.2v-2z"/></g></g></g></g></g></g></g><path id="XMLID_20_" class="st2" d="M9.7 40.1c.9-.9 1.1-2.7 1.1-3.1 0-.4-.1-.5-.1-.5-.1 0-.2.1-.2.3-.2 1-.9 1.4-1.3 1.5-1.6.3-2.2-.8-2.3-1.1-.8-1.6 1-4 1.4-4.3 1.8-2.1 3-4.4 3-4.4s1.2 2.3 3 4.4c.3.4 2.2 2.8 1.4 4.3-.2.3-.7 1.3-2.3 1.1-.4-.1-1.1-.5-1.3-1.5 0-.2-.1-.3-.2-.3s-.2.1-.1.5c0 .4.2 2.2 1.1 3.1H9.7z"/><path id="XMLID_18_" class="st2" d="M89.7 111.6c-.9.9-1.1 2.7-1.1 3.1-.1.4.1.5.1.5.1 0 .2-.1.2-.3.2-1 .9-1.4 1.3-1.5 1.6-.3 2.2.8 2.3 1.1.8 1.6-1 4-1.4 4.3-1.8 2.1-3 4.4-3 4.4s-1.2-2.3-3-4.4c-.3-.4-2.2-2.8-1.4-4.3.2-.3.7-1.3 2.3-1.1.4.1 1.1.5 1.3 1.5 0 .2.1.3.2.3s.2-.1.1-.5c0-.4-.2-2.2-1.1-3.1h3.2z"/></g></g></svg>