<?xml version="1.0" encoding="utf-8"?>
<!-- Generator: Adobe Illustrator 19.0.0, SVG Export Plug-In . SVG Version: 6.00 Build 0)  -->
<svg version="1.1" xmlns="http://www.w3.org/2000/svg" xmlns:xlink="http://www.w3.org/1999/xlink" x="0px" y="0px"
	 viewBox="0 0 99.4 151.6" style="enable-background:new 0 0 99.4 151.6;" xml:space="preserve">
<style type="text/css">
	.st0{fill:#FFFFFF;stroke:#000000;stroke-width:0.25;stroke-miterlimit:2.6131;}
	.st1{fill-rule:evenodd;clip-rule:evenodd;fill:#E52529;}
	.st2{fill:#E52529;}
	.st3{fill-rule:evenodd;clip-rule:evenodd;fill:#231F20;}
	
		.st4{fill-rule:evenodd;clip-rule:evenodd;fill:none;stroke:#0D4F9E;stroke-width:0.6236;stroke-linecap:round;stroke-linejoin:round;stroke-miterlimit:2.6131;}
	
		.st5{fill-rule:evenodd;clip-rule:evenodd;fill:none;stroke:#0D4F9E;stroke-width:0.5666;stroke-linecap:round;stroke-linejoin:round;stroke-miterlimit:2.6131;}
	.st6{fill-rule:evenodd;clip-rule:evenodd;fill:#DB4634;}
	
		.st7{fill-rule:evenodd;clip-rule:evenodd;fill:none;stroke:#0D4F9E;stroke-width:0.7087;stroke-linecap:round;stroke-linejoin:round;stroke-miterlimit:2.6131;}
	.st8{fill-rule:evenodd;clip-rule:evenodd;fill:#E32285;}
	
		.st9{fill-rule:evenodd;clip-rule:evenodd;fill:#FFFFFF;stroke:#2AABE3;stroke-width:0.5669;stroke-linecap:round;stroke-linejoin:round;stroke-miterlimit:2.6131;}
	.st10{fill-rule:evenodd;clip-rule:evenodd;fill:#0D4F9E;}
	
		.st11{fill-rule:evenodd;clip-rule:evenodd;fill:none;stroke:#0D4F9E;stroke-width:0.5669;stroke-linecap:round;stroke-linejoin:round;stroke-miterlimit:2.6131;}
	
		.st12{fill-rule:evenodd;clip-rule:evenodd;fill:#E52529;stroke:#0D4F9E;stroke-width:0.6236;stroke-linecap:round;stroke-linejoin:round;stroke-miterlimit:2.6131;}
	.st13{fill-rule:evenodd;clip-rule:evenodd;fill:#FFFFFF;}
	
		.st14{fill-rule:evenodd;clip-rule:evenodd;fill:#231F20;stroke:#231F20;stroke-width:3.700000e-003;stroke-linecap:round;stroke-linejoin:round;stroke-miterlimit:2.6131;}
	
		.st15{fill-rule:evenodd;clip-rule:evenodd;fill:none;stroke:#231F20;stroke-width:0.5669;stroke-linecap:round;stroke-linejoin:round;stroke-miterlimit:2.6131;}
	.st16{fill-rule:evenodd;clip-rule:evenodd;fill:none;stroke:#0D4F9E;stroke-width:1.1339;stroke-miterlimit:2.6131;}
	
		.st17{fill-rule:evenodd;clip-rule:evenodd;fill:none;stroke:#231F20;stroke-width:0.6236;stroke-linecap:round;stroke-linejoin:round;stroke-miterlimit:2.6131;}
	.st18{fill-rule:evenodd;clip-rule:evenodd;fill:#E52529;stroke:#0D4F9E;stroke-width:0.5669;stroke-miterlimit:2.6131;}
	
		.st19{fill-rule:evenodd;clip-rule:evenodd;fill:none;stroke:#2AABE3;stroke-width:0.5666;stroke-linecap:round;stroke-linejoin:round;stroke-miterlimit:2.6131;}
	.st20{fill:#231F20;}
	.st21{fill:#0D4F9E;}
</style>
<g id="Calque_2">
	<path id="XMLID_15_" class="st0" d="M99.3,5.3v140.9c0,2.9-2.3,5.2-5.2,5.2H5.3c-2.9,0-5.2-2.3-5.2-5.2V5.3c0-2.9,2.3-5.2,5.2-5.2
		h88.7C96.9,0.1,99.3,2.5,99.3,5.3z"/>
</g>
<g id="Calque_1">
	<g>
		<g>
			<g>
				<g>
					<path class="st1" d="M552.8,134.6c-3.2-4.4-4.1-8-4.1-8s-0.9,3.7-4.1,8c-3.2,4.4-6.2,5.6-6.2,5.6s3,1.2,6.2,5.6
						c3.2,4.4,4.1,8,4.1,8s0.9-3.7,4.1-8c3.2-4.4,6.2-5.6,6.2-5.6S556.1,138.9,552.8,134.6z"/>
					<path class="st1" d="M510.8,134.6c-3.2-4.4-4.1-8-4.1-8s-0.9,3.7-4.1,8c-3.2,4.4-6.2,5.6-6.2,5.6s3,1.2,6.2,5.6
						c3.2,4.4,4.1,8,4.1,8s0.9-3.7,4.1-8c3.2-4.4,6.2-5.6,6.2-5.6S514,138.9,510.8,134.6z"/>
				</g>
				<g>
					<path class="st1" d="M531.8,177.1c-3.2-4.4-4.1-8-4.1-8s-0.9,3.7-4.1,8c-3.2,4.4-6.2,5.6-6.2,5.6s3,1.2,6.2,5.6
						c3.2,4.4,4.1,8,4.1,8s0.9-3.7,4.1-8c3.2-4.4,6.2-5.6,6.2-5.6S535,181.5,531.8,177.1z"/>
				</g>
				<g>
					<path class="st1" d="M552.8,219.7c-3.2-4.4-4.1-8-4.1-8s-0.9,3.7-4.1,8c-3.2,4.4-6.2,5.6-6.2,5.6s3,1.2,6.2,5.6
						c3.2,4.4,4.1,8,4.1,8s0.9-3.7,4.1-8c3.2-4.4,6.2-5.6,6.2-5.6S556.1,224,552.8,219.7z"/>
					<path class="st1" d="M510.8,219.7c-3.2-4.4-4.1-8-4.1-8s-0.9,3.7-4.1,8c-3.2,4.4-6.2,5.6-6.2,5.6s3,1.2,6.2,5.6
						c3.2,4.4,4.1,8,4.1,8s0.9-3.7,4.1-8c3.2-4.4,6.2-5.6,6.2-5.6S514,224,510.8,219.7z"/>
				</g>
			</g>
		</g>
		<g>
			<g>
				<g>
					<g>
						<g>
							<g>
								<path class="st2" d="M486.7,117.5h7.8v1.8h-6l-0.2,3c0,0,2.8-1.6,5.5,0.7c0.5,0.4,2.9,2.9,1.4,7.8c-0.3,1-2,3.6-5.6,3.1
									c-0.2,0-2.9-0.7-3.9-3.7l1.7-0.4c0,0,1.3,2.7,3.1,2.5c0.9-0.1,3.3-0.7,3.2-4.6c0-0.3,0-3.7-2.9-4.2c-1-0.2-2.2,0-3.9,1.7
									l-0.8-0.5L486.7,117.5z"/>
							</g>
						</g>
						<g>
							<g>
								<path class="st2" d="M568.8,247.8h-7.9V246h6l0.2-3c0,0-2.8,1.6-5.5-0.7c-0.5-0.4-2.9-2.9-1.4-7.8c0.3-1,2-3.6,5.6-3.1
									c0.2,0,2.9,0.7,3.9,3.7l-1.7,0.4c0,0-1.3-2.7-3.1-2.5c-0.9,0.1-3.3,0.7-3.2,4.6c0,0.3,0,3.7,2.9,4.2c1,0.2,2.2,0,3.9-1.7
									l0.8,0.5L568.8,247.8z"/>
							</g>
						</g>
					</g>
				</g>
			</g>
		</g>
		<g>
			<g>
				<path class="st2" d="M490.8,137.7c0,0,1.4,4.5,4.7,6.3c0,0-3.2,1.7-4.7,6.2c-1.5-4.6-4.7-6.2-4.7-6.2
					C489.4,142.2,490.8,137.7,490.8,137.7z"/>
			</g>
			<g>
				<path class="st2" d="M564.7,227.6c0,0-1.4-4.5-4.7-6.3c0,0,3.2-1.7,4.7-6.2c1.5,4.6,4.7,6.2,4.7,6.2
					C566.1,223.1,564.7,227.6,564.7,227.6z"/>
			</g>
		</g>
	</g>
	<g>
		<g>
			<g>
				<g>
					<path class="st1" d="M552.8,134.6c-3.2-4.4-4.1-8-4.1-8s-0.9,3.7-4.1,8c-3.2,4.4-6.2,5.6-6.2,5.6s3,1.2,6.2,5.6
						c3.2,4.4,4.1,8,4.1,8s0.9-3.7,4.1-8c3.2-4.4,6.2-5.6,6.2-5.6S556.1,138.9,552.8,134.6z"/>
					<path class="st1" d="M510.8,134.6c-3.2-4.4-4.1-8-4.1-8s-0.9,3.7-4.1,8c-3.2,4.4-6.2,5.6-6.2,5.6s3,1.2,6.2,5.6
						c3.2,4.4,4.1,8,4.1,8s0.9-3.7,4.1-8c3.2-4.4,6.2-5.6,6.2-5.6S514,138.9,510.8,134.6z"/>
				</g>
				<g>
					<path class="st1" d="M531.8,177.1c-3.2-4.4-4.1-8-4.1-8s-0.9,3.7-4.1,8c-3.2,4.4-6.2,5.6-6.2,5.6s3,1.2,6.2,5.6
						c3.2,4.4,4.1,8,4.1,8s0.9-3.7,4.1-8c3.2-4.4,6.2-5.6,6.2-5.6S535,181.5,531.8,177.1z"/>
				</g>
				<g>
					<path class="st1" d="M552.8,219.7c-3.2-4.4-4.1-8-4.1-8s-0.9,3.7-4.1,8c-3.2,4.4-6.2,5.6-6.2,5.6s3,1.2,6.2,5.6
						c3.2,4.4,4.1,8,4.1,8s0.9-3.7,4.1-8c3.2-4.4,6.2-5.6,6.2-5.6S556.1,224,552.8,219.7z"/>
					<path class="st1" d="M510.8,219.7c-3.2-4.4-4.1-8-4.1-8s-0.9,3.7-4.1,8c-3.2,4.4-6.2,5.6-6.2,5.6s3,1.2,6.2,5.6
						c3.2,4.4,4.1,8,4.1,8s0.9-3.7,4.1-8c3.2-4.4,6.2-5.6,6.2-5.6S514,224,510.8,219.7z"/>
				</g>
			</g>
		</g>
		<g>
			<g>
				<g>
					<g>
						<g>
							<g>
								<path class="st2" d="M486.7,117.5h7.8v1.8h-6l-0.2,3c0,0,2.8-1.6,5.5,0.7c0.5,0.4,2.9,2.9,1.4,7.8c-0.3,1-2,3.6-5.6,3.1
									c-0.2,0-2.9-0.7-3.9-3.7l1.7-0.4c0,0,1.3,2.7,3.1,2.5c0.9-0.1,3.3-0.7,3.2-4.6c0-0.3,0-3.7-2.9-4.2c-1-0.2-2.2,0-3.9,1.7
									l-0.8-0.5L486.7,117.5z"/>
							</g>
						</g>
						<g>
							<g>
								<path class="st2" d="M568.8,247.8h-7.9V246h6l0.2-3c0,0-2.8,1.6-5.5-0.7c-0.5-0.4-2.9-2.9-1.4-7.8c0.3-1,2-3.6,5.6-3.1
									c0.2,0,2.9,0.7,3.9,3.7l-1.7,0.4c0,0-1.3-2.7-3.1-2.5c-0.9,0.1-3.3,0.7-3.2,4.6c0,0.3,0,3.7,2.9,4.2c1,0.2,2.2,0,3.9-1.7
									l0.8,0.5L568.8,247.8z"/>
							</g>
						</g>
					</g>
				</g>
			</g>
		</g>
		<g>
			<g>
				<path class="st2" d="M490.8,137.7c0,0,1.4,4.5,4.7,6.3c0,0-3.2,1.7-4.7,6.2c-1.5-4.6-4.7-6.2-4.7-6.2
					C489.4,142.2,490.8,137.7,490.8,137.7z"/>
			</g>
			<g>
				<path class="st2" d="M564.7,227.6c0,0-1.4-4.5-4.7-6.3c0,0,3.2-1.7,4.7-6.2c1.5,4.6,4.7,6.2,4.7,6.2
					C566.1,223.1,564.7,227.6,564.7,227.6z"/>
			</g>
		</g>
	</g>
	<g>
		<g>
			<g>
				<g>
					<path class="st1" d="M552.8,134.6c-3.2-4.4-4.1-8-4.1-8s-0.9,3.7-4.1,8c-3.2,4.4-6.2,5.6-6.2,5.6s3,1.2,6.2,5.6
						c3.2,4.4,4.1,8,4.1,8s0.9-3.7,4.1-8c3.2-4.4,6.2-5.6,6.2-5.6S556.1,138.9,552.8,134.6z"/>
					<path class="st1" d="M510.8,134.6c-3.2-4.4-4.1-8-4.1-8s-0.9,3.7-4.1,8c-3.2,4.4-6.2,5.6-6.2,5.6s3,1.2,6.2,5.6
						c3.2,4.4,4.1,8,4.1,8s0.9-3.7,4.1-8c3.2-4.4,6.2-5.6,6.2-5.6S514,138.9,510.8,134.6z"/>
				</g>
				<g>
					<path class="st1" d="M531.8,177.1c-3.2-4.4-4.1-8-4.1-8s-0.9,3.7-4.1,8c-3.2,4.4-6.2,5.6-6.2,5.6s3,1.2,6.2,5.6
						c3.2,4.4,4.1,8,4.1,8s0.9-3.7,4.1-8c3.2-4.4,6.2-5.6,6.2-5.6S535,181.5,531.8,177.1z"/>
				</g>
				<g>
					<path class="st1" d="M552.8,219.7c-3.2-4.4-4.1-8-4.1-8s-0.9,3.7-4.1,8c-3.2,4.4-6.2,5.6-6.2,5.6s3,1.2,6.2,5.6
						c3.2,4.4,4.1,8,4.1,8s0.9-3.7,4.1-8c3.2-4.4,6.2-5.6,6.2-5.6S556.1,224,552.8,219.7z"/>
					<path class="st1" d="M510.8,219.7c-3.2-4.4-4.1-8-4.1-8s-0.9,3.7-4.1,8c-3.2,4.4-6.2,5.6-6.2,5.6s3,1.2,6.2,5.6
						c3.2,4.4,4.1,8,4.1,8s0.9-3.7,4.1-8c3.2-4.4,6.2-5.6,6.2-5.6S514,224,510.8,219.7z"/>
				</g>
			</g>
		</g>
		<g>
			<g>
				<g>
					<g>
						<g>
							<g>
								<path class="st2" d="M486.7,117.5h7.8v1.8h-6l-0.2,3c0,0,2.8-1.6,5.5,0.7c0.5,0.4,2.9,2.9,1.4,7.8c-0.3,1-2,3.6-5.6,3.1
									c-0.2,0-2.9-0.7-3.9-3.7l1.7-0.4c0,0,1.3,2.7,3.1,2.5c0.9-0.1,3.3-0.7,3.2-4.6c0-0.3,0-3.7-2.9-4.2c-1-0.2-2.2,0-3.9,1.7
									l-0.8-0.5L486.7,117.5z"/>
							</g>
						</g>
						<g>
							<g>
								<path class="st2" d="M568.8,247.8h-7.9V246h6l0.2-3c0,0-2.8,1.6-5.5-0.7c-0.5-0.4-2.9-2.9-1.4-7.8c0.3-1,2-3.6,5.6-3.1
									c0.2,0,2.9,0.7,3.9,3.7l-1.7,0.4c0,0-1.3-2.7-3.1-2.5c-0.9,0.1-3.3,0.7-3.2,4.6c0,0.3,0,3.7,2.9,4.2c1,0.2,2.2,0,3.9-1.7
									l0.8,0.5L568.8,247.8z"/>
							</g>
						</g>
					</g>
				</g>
			</g>
		</g>
		<g>
			<g>
				<path class="st2" d="M490.8,137.7c0,0,1.4,4.5,4.7,6.3c0,0-3.2,1.7-4.7,6.2c-1.5-4.6-4.7-6.2-4.7-6.2
					C489.4,142.2,490.8,137.7,490.8,137.7z"/>
			</g>
			<g>
				<path class="st2" d="M564.7,227.6c0,0-1.4-4.5-4.7-6.3c0,0,3.2-1.7,4.7-6.2c1.5,4.6,4.7,6.2,4.7,6.2
					C566.1,223.1,564.7,227.6,564.7,227.6z"/>
			</g>
		</g>
	</g>
	<g>
		<path id="XMLID_435_" class="st3" d="M18.2,87.1h-1L17,57.6l6.8-3.8L23.6,73l-3.8,12.2C19,85.4,18.4,86.1,18.2,87.1z"/>
		<path id="XMLID_434_" class="st1" d="M18.2,87.1h-1L17,57.6l5.5-3.2l0.4,22.3l-3.1,8.6C19,85.4,18.4,86.1,18.2,87.1z"/>
		<line id="XMLID_433_" class="st4" x1="22.7" y1="72.7" x2="22.6" y2="54.4"/>
		<line id="XMLID_432_" class="st5" x1="18.4" y1="87" x2="17.3" y2="87"/>
		<path id="XMLID_431_" class="st1" d="M45.7,77l-0.8,0.8l-1.1-0.6l0.8-1.2L43,74.4l0-10.9C44.6,67.1,46.2,72.1,45.7,77z"/>
		<path id="XMLID_430_" class="st6" d="M54.5,102.6c-0.1,0.4-5.2-7.3-5.9-10.8c-0.8-3-2.7-11.7-2.7-11.7c-2.5-0.2-4.5-0.1-5.5,0.6
			c-0.1,0.2,0.4,7.2-3.4,15.8l-3.4,6.8l1-0.4l8.9-6.6l9.6,6.8L54.5,102.6z"/>
		<path id="XMLID_429_" class="st7" d="M49.7,93.9c0,0-3-2.6-6.3-2.3c-3.3,0.2-5.5,2.7-5.5,2.7"/>
		<path id="XMLID_428_" class="st7" d="M48.4,90.8c0,0-1.6-2.2-5-1.9c-3.4,0.2-4.6,2.1-4.4,1.7"/>
		<path id="XMLID_427_" class="st7" d="M47.6,87.6c0,0-2-2-4-1.7c-2.1,0.2-3.8,1.5-3.8,1.5"/>
		<path id="XMLID_426_" class="st7" d="M46.8,84.2c0,0-1.9-1.4-3.7-1.2c-1.8,0.2-2.8,0.8-2.8,0.8"/>
		<path id="XMLID_425_" class="st7" d="M45.9,80.1c0,0-0.9-0.4-2.8-0.2c-1.8,0.2-2.8,0.8-2.8,0.8"/>
		<polyline id="XMLID_424_" class="st7" points="45.9,79.2 44.6,78.1 45.5,77.2 		"/>
		<polyline id="XMLID_423_" class="st7" points="51.6,98.2 43.6,92.7 36.3,97.8 		"/>
		<line id="XMLID_422_" class="st7" x1="51.7" y1="101.9" x2="51.6" y2="98.3"/>
		<line id="XMLID_421_" class="st7" x1="53.1" y1="103.1" x2="53" y2="100.9"/>
		<path id="XMLID_420_" class="st1" d="M54,74.6l0.8-0.8l1.1,0.6l-0.8,1.2l1.6,1.6l0,10.9C55.1,84.6,53.4,79.5,54,74.6z"/>
		<line id="XMLID_419_" class="st4" x1="28.6" y1="50.6" x2="16.8" y2="57.9"/>
		<path id="XMLID_418_" class="st8" d="M81.4,64.5h1L82.7,94l-6.8,3.8L76,78.6l3.9-11.8C80.7,66.2,81.3,65.5,81.4,64.5z"/>
		<path id="XMLID_417_" class="st3" d="M81.4,64.5h1L82.7,94l-6.8,3.8L76,78.6l3.8-12.2C80.6,66.2,81.3,65.5,81.4,64.5z"/>
		<path id="XMLID_416_" class="st1" d="M81.4,64.5h1L82.7,94l-5.5,3.2l-0.4-22.3l3.1-8.6C80.6,66.2,81.3,65.5,81.4,64.5z"/>
		<path id="XMLID_415_" class="st9" d="M74.7,75.3c-2.1,0.4-3.4-1.1-2.5-4.4c0.2-2.4,0.7-3.8,3.1-4.6c1.1-0.6,2.6-0.6,4.4-0.4
			l0.1,1.4c0.8,0.2,1.2,1,1.1,2c0.3,0.5,0.3,1-0.1,1.5c0.4,0.4,0.4,0.6-0.1,1.3c0,0.3,0.1,1.5-0.9,1.8l-2,0.4L74.7,75.3z"/>
		<path class="st10" d="M73.7,71.5c0,0,1.4-0.6,1.6-1.8c0.2-1.2-0.1-1.5-0.1-1.5s0.7,0.1,1.3,0.1c0.6,0-0.3-0.2,1.5-0.1
			c0.7-0.3,1.1-0.6,0.8-0.9c0,0-0.8,0-1-0.3c-0.2-0.4,0-0.7-1.3-0.6c-1.3,0.1-2.6,0.7-3,1c-0.4,0.3-1.1,1.5-1.1,2.2
			c0,0.7-0.7,3.5-0.4,4.1c0.3,0.6,1.6,2.2,1.9,1.6c0.4-0.5,0.7-0.8,0.7-0.8l0.1-2.2C74.1,71.5,73.4,72.2,73.7,71.5L73.7,71.5z
			 M75.6,69.1c0-1,1,0.6,1,0.6s-0.2,0.2-0.4,0.6c-0.2,0.4,0.2,0.7,0.5,0.9c0.2,0.3-0.1,0.6-0.1,1.1c0,0.5,0.5,0.5,0.5,0.5
			s0,0.2,0,0.6c0,0.4,0.1,0.7,0.1,0.7s-0.7-0.1-1.1-0.1c-0.5,0-1,0.4-1,0.4l0.1-1.3l0.3-0.6c0,0-0.1,0-0.4-0.5
			c-0.3-0.5,0.2-0.8,0.4-1.5C75.7,69.7,75.6,69.1,75.6,69.1L75.6,69.1z M76.7,68.9c0-0.1-0.1-0.7,0.3-0.5c0.4,0.2,0.7,0.3,0.7,0.3
			v0.7C77.7,69.5,76.7,69.7,76.7,68.9L76.7,68.9z M77.8,70l-0.1,1c-0.7,0.2-0.9-0.3-0.9-0.7C76.8,70,77.1,69.5,77.8,70L77.8,70z
			 M78.3,71.6l-0.1,0.8c-0.8,0.2-1.1-0.1-1.1-0.4C77.2,71.7,77.5,71.2,78.3,71.6L78.3,71.6z M78.7,73.1l-0.1,0.8
			c-0.8,0.2-1.1-0.1-1.1-0.4C77.6,73.2,77.9,72.7,78.7,73.1L78.7,73.1z M78.1,68.5c0,0,0.9-0.3,1.3-0.7c0.3-0.4,0.5-0.4,0.8-0.2
			c0.3,0.2,0.4,1.1,0.4,1.1s-2.2,1.1-2.3,0.9C77.9,69.2,77.7,68.6,78.1,68.5L78.1,68.5z M78.4,70c0,0,0.5,0.1,1-0.1
			c0.5-0.2,0.9-0.7,1.2-0.6c0.3,0.1,0.2,0.9,0.2,0.9s-2.3,1.1-2.4,0.8C77.9,70.9,78,70.1,78.4,70L78.4,70z M78.9,71.4l1.9-0.7
			c0.3-0.1,0.2,0.9,0.2,0.9s-2,1.1-2.1,0.8C78.4,72.4,78.5,71.6,78.9,71.4L78.9,71.4z M79.6,72.9l1.1-0.5c0.3-0.1,0,0.8,0,0.8
			s-1.2,0.9-1.3,0.6C78.8,73.7,79.1,73.1,79.6,72.9L79.6,72.9z M77.8,66.2c0,0,0.2,0,0.8,0.1s0.9,0.3,0.9,0.3s0,0.2-0.1,0.4
			c-0.1,0.1-0.6-0.1-1.1-0.2C77.8,66.6,77.8,66.2,77.8,66.2L77.8,66.2z M74.7,75.3c-2.1,0.4-3.4-1.1-2.5-4.4
			c0.2-2.4,0.7-3.8,3.1-4.6c1.1-0.6,2.6-0.6,4.4-0.4l0.1,1.4c0.8,0.2,1.2,1,1.1,2c0.3,0.5,0.3,1-0.1,1.5c0.4,0.4,0.4,0.6-0.1,1.3
			c0,0.3,0.1,1.5-0.9,1.8l-2,0.4L74.7,75.3z"/>
		<path id="XMLID_402_" class="st3" d="M73.3,56.2c0,0-3.4,5.9-3.8,9.8c-0.5,3.9-0.7,8.5-0.7,8.5l1.4,0.7l1.2,1.1h3.2l0.3-0.8
			c0,0-0.5,0.2-1.3-0.1c-0.7-0.3-2.3-0.1-1.9-3.2c0.5-3.1,0.5-3,0.6-3.7c0.2-0.7,2.2-2,2.2-2l0.2-0.2L75,66c0,0-3.2,0.1-3.4-0.8
			s-0.7-1.3,0.2-1.6c0.9-0.3,1.6,0.1,1.6,0.1l0.1-3.7L73.3,56.2z"/>
		<path id="XMLID_401_" class="st6" d="M73.3,56.2c0,0-3.4,5.9-3.8,9.8c-0.5,3.9-0.7,8.5-0.7,8.5l-1.4-0.2
			c-1.3-7.2,3.9-20.4,6.1-21.4L73.3,56.2z"/>
		<path id="XMLID_400_" class="st10" d="M71.3,85.8c0.5,0.9,0.8,1.9,1.1,2.8c0.1-0.8,0.4-1.8,0.9-2.8C72.7,86,72.2,86.3,71.3,85.8z"
			/>
		<path id="XMLID_399_" class="st6" d="M45.1,49c0.1-0.4,5,7.3,5.8,10.8c0.8,3,2.8,11.7,2.8,11.7c2.5,0.2,4.5,0.1,5.5-0.6
			c0.1-0.2-0.4-7.2,3.4-15.8l3.4-6.8l-1,0.4l-8.9,6.6l-9.6-6.8L45.1,49z"/>
		<path id="XMLID_398_" class="st6" d="M73.1,16l-8.2,13.5c-7.4-1.4-15.3-1.8-24,0.4L32.7,16H73.1z"/>
		<path id="XMLID_397_" class="st3" d="M66.4,27l-1.5,2.5c-7.4-1.4-15.4-1.8-24.1,0.4L39,26.7l4.5-0.8l1.4,1l0.7-1.3l6.2-0.3l0.8,1
			l1.1-1c2.2,0,4.3,0.1,6.5,0.3l1.1,1.3l0.9-1C63.6,26.2,65,26.5,66.4,27z"/>
		<path id="XMLID_396_" class="st1" d="M65.7,28.1l-0.4,0.6c-5.4-1.4-15.4-2-24.9,0.2l-0.5-0.7C46,27,58.1,25.9,65.7,28.1z"/>
		<path class="st3" d="M48.5,21.2l-2.3,3.6l5,0L48.5,21.2L48.5,21.2z M48.6,22.8l0.9,1.2l-1.7,0L48.6,22.8z"/>
		<path class="st3" d="M39.6,22.3l-1.3,2.9l0.3,0.8l4.2-0.7L39.6,22.3L39.6,22.3z M39.8,23.9l1.1,1l-1.7,0.3L39.8,23.9z"/>
		<path class="st3" d="M66.4,22.6l1.1,3l-0.4,0.8l-4.1-1L66.4,22.6L66.4,22.6z M66,24.2l-1.2,0.9l1.6,0.4L66,24.2z"/>
		<path class="st3" d="M57.3,21.4l-2.6,3.4l5,0.4L57.3,21.4L57.3,21.4z M57.2,23l0.8,1.3l-1.7-0.1L57.2,23z"/>
		<circle id="XMLID_387_" class="st3" cx="48.6" cy="19.7" r="0.7"/>
		<circle id="XMLID_386_" class="st3" cx="39.2" cy="21" r="0.7"/>
		<circle id="XMLID_385_" class="st3" cx="66.8" cy="21.2" r="0.7"/>
		<circle id="XMLID_384_" class="st3" cx="57.5" cy="19.9" r="0.7"/>
		<circle id="XMLID_383_" class="st3" cx="52.8" cy="21.8" r="0.6"/>
		<circle id="XMLID_382_" class="st3" cx="43.8" cy="22.4" r="0.6"/>
		<circle id="XMLID_381_" class="st3" cx="61.5" cy="22.3" r="0.6"/>
		<path id="XMLID_380_" class="st3" d="M54.6,23c-1.7,0.6-3.5,0-3.4,0c0.5,0.9,1.1,1.3,1.7,1.3C53.6,24.3,54.3,23.8,54.6,23z"/>
		<path id="XMLID_379_" class="st3" d="M45.6,23.7c-1.7,0.5-3.5,0-3.4,0c0.5,0.9,1.1,1.3,1.7,1.3C44.6,25,45.3,24.4,45.6,23.7z"/>
		<path id="XMLID_378_" class="st3" d="M63.2,23.7c-1.7,0.4-3.5-0.3-3.4-0.3c0.4,0.9,1,1.4,1.6,1.4C62.1,24.9,62.8,24.4,63.2,23.7z"
			/>
		<path id="XMLID_377_" class="st4" d="M57.7,28.6c0,0,1.1,3.8,1.2,5.7c0.1,1.1,0.8,9.9,2,10.4"/>
		<path id="XMLID_376_" class="st4" d="M59,28.5c0,0,1.1,3.8,1.2,5.7c0.1,1.1,0.5,8.9,1.7,9.5"/>
		<path id="XMLID_375_" class="st4" d="M60.4,28.9c0,0,1.1,3.8,1.2,5.7c0.1,1.1,0.3,8.2,1.5,8.8"/>
		<path id="XMLID_374_" class="st4" d="M62.1,29c0,0,0.6,3.7,0.7,5.6c0.1,1.1,0.4,7.7,1.6,8.3"/>
		<path id="XMLID_373_" class="st4" d="M63.4,29.1c0,0,0.6,3.7,0.7,5.6c0.1,1.1,0.3,6.9,1.5,7.5"/>
		<path id="XMLID_372_" class="st4" d="M64.6,29.4c0,0,0.6,3.7,0.7,5.6c0.1,1.1,0.5,6.2,1.7,6.8"/>
		<path id="XMLID_371_" class="st4" d="M67.5,41.6c2.7,0.7,2.8,1.9,2.9,4.4"/>
		<path id="XMLID_370_" class="st4" d="M66.2,42c1.8,0.5,3.3,2,2.6,4.5"/>
		<path id="XMLID_369_" class="st4" d="M65,42.6c1.8,0.5,3.3,2.3,2.6,4.8"/>
		<path id="XMLID_368_" class="st4" d="M63.9,43c1.8,0.5,3.3,2.4,2.6,4.9"/>
		<path id="XMLID_367_" class="st4" d="M40.7,29.8c0,0,0.5,5.9,0.4,7.4c-0.1,1.5,0.8,5,1,5.6c0.2,0.6,0.3,3.6-1.5,4.3
			C39,47.8,36.3,49,35.8,46c-0.3-2.1,1-2.7,2.2-2.5c2.1,0.3,1.8,2.1,1.1,2.8c-0.8,0.8-2.5,0.1-1.4-1.2"/>
		<path id="XMLID_366_" class="st4" d="M36.8,47.8c0,0,0,2,1.6,1.8c1.7-0.1,3.6-1.3,4.4-3.1c0.7-1.8,0.6-2.1,0.6-2.1"/>
		<path id="XMLID_365_" class="st4" d="M40.7,49.2c0,0,1.4,1.1,2.5-0.2c1.1-1.3,1.6-3.3,1.6-3.3"/>
		<path id="XMLID_364_" class="st4" d="M42.9,49.3c0,0,1.2,0.8,1.8-0.4c0.6-1.2,1.2-3.1,1.2-3.1"/>
		<path id="XMLID_363_" class="st4" d="M44.8,48.8c0,0,1.1,0.3,1.8-0.5c0.7-0.9,0.8-2.8,0.8-2.6"/>
		<line id="XMLID_362_" class="st4" x1="37.5" y1="43.3" x2="41.8" y2="41.8"/>
		<line id="XMLID_361_" class="st4" x1="39.3" y1="46.2" x2="42.1" y2="43.4"/>
		<path id="XMLID_360_" class="st4" d="M39.2,42.8c0,0,1.9,0.8,1.4,2"/>
		<path id="XMLID_359_" class="st4" d="M40.3,42.4c0,0,1.4,0.6,1.1,1.5"/>
		<path id="XMLID_358_" class="st4" d="M40.7,31c0,0-0.8,2-0.9,2.2c-0.5-0.1-1.7-0.3-1.7,0.8c0,1.1,0.3,1.5,1,1.5
			c0.7,0,1.9-1.2,1.9-1.2"/>
		<path id="XMLID_357_" class="st4" d="M41,36.2c0,0-1.7,2.2-1.8,2.4c-0.5-0.1-2-0.4-2,0.7c0,1.1,0.5,1.5,1.1,1.5
			c1.4,0,2.9-1.9,2.9-1.9"/>
		<path id="XMLID_356_" class="st4" d="M50.3,45.2c0,0,1.2,2.1,3.2,3.1c0.6,0.3,4.3,1,4.3-0.5"/>
		<path id="XMLID_355_" class="st4" d="M51.8,45.5c0,0,2.8,3,4.6,2"/>
		<path id="XMLID_354_" class="st4" d="M52.6,44.7c0,0,1.8,2.4,3.4,1.9"/>
		<path id="XMLID_353_" class="st4" d="M53.7,44.2c0,0,1.8,1.6,2.6,1.3"/>
		<path id="XMLID_352_" class="st4" d="M54.6,43.3c0,0,1.6,1.7,2.3,1.7"/>
		<path id="XMLID_351_" class="st4" d="M55.9,42.5c0,0,1.9,2.1,2.6,2.4"/>
		<path id="XMLID_350_" class="st4" d="M56.6,41.8c0,0,1.2,1.2,2,1.3"/>
		<path class="st10" d="M40.7,31c-0.1-0.5,2.6-0.9,3.1-1c1.5-0.1,3,1.4,3.3,2.6c0.1,0.6,0.1,1.1,0,1.6c-0.2,1-1.1,3.8-0.8,4.4
			c0.3,0.7,0.7,0.7,1.1,0.9c0.4,0.2,1.2,0.8,0.9,1.3c0,0-0.6-0.6-1.3-0.8c-1-0.2-1.2-0.7-1.2-1.1c0-0.9,0.3-2.3,0.5-3.2l-0.9,0.4
			l0.3-1.1c-1,0.4-3.6,0.6-4.6-0.4L40.7,31L40.7,31z M41.2,31.6v0.9c0,0,1.2-0.9,2.4-0.9c1.2,0,2.4,0.5,2.9,0.8
			c-0.2-0.6-0.6-1.5-2.1-1.7C42.6,30.6,41.2,31.3,41.2,31.6L41.2,31.6z M42.2,34.5c-0.2-0.2-0.4-0.7-0.4-0.7L41.2,34
			C41.3,34,41.3,34.9,42.2,34.5L42.2,34.5z M42.2,33.7c0.3,1.6,1.5,1.1,2,1.1c0.7-0.2,1-1.1,1-1.1l-0.4-0.1c0,0,0.1,1.1-1.5,0.8
			c-0.8-0.1-0.7-0.8-0.7-0.8L42.2,33.7L42.2,33.7z M45.6,33.9l-0.3,0.7c0.4,0,0.6,0,0.8-0.2C46.1,34.3,46.3,34.3,45.6,33.9
			L45.6,33.9z M51.6,33.8l0.2,0.7c-0.3,0-0.7-0.1-0.8-0.4C51.1,34.1,51.1,34.1,51.6,33.8L51.6,33.8z M54.7,34.6c0.2-0.2,0.6-1,0.6-1
			l0.6,0.2C55.9,33.5,55.7,34.7,54.7,34.6L54.7,34.6z M54.8,33.4l-0.4-0.1c0,0,0,0.8-0.7,1c-1,0.2-1.3-0.7-1.3-0.7l-0.4,0.1
			c0,0,0.7,1.1,1.5,1.1C53.9,34.7,54.7,34.3,54.8,33.4L54.8,33.4z M56.5,34.1c0.2-0.2,1,0.6,1,0.6l-0.2-1c0,0-0.2-0.1-0.8-0.4
			c-0.6-0.3-1.6-0.8-2.2-0.8s-1.5,0-2.3,0.2c-0.8,0.2-1.3,0.7-1.3,0.7s0-0.2-0.7-0.3c-0.7-0.2-0.3,0.3-0.3,0.3l1,1.6l0.8,0.7
			l0.6,0.1c0,0-0.4-0.9-0.5-1c-0.1-0.1,0.7,0.5,2.2,0.3C55.1,35,55.4,35.2,56.5,34.1L56.5,34.1z M41.3,32.9v0.3c0,0,1.2-0.8,2.4-0.8
			c1.2,0,2.4,0.7,2.9,1.1l0.1-0.4c-0.3-0.3-2.1-1.1-2.8-1.1C42.4,32.2,41.3,32.8,41.3,32.9z"/>
		<path class="st10" d="M57,31.7c0,0-2.2-1.1-3.9-1c-1.7,0.1-2.9,0.9-3.2,0.6c-0.3-0.3-0.4-0.7,0.2-1c0.5-0.3,2.2-0.6,3.4-0.4
			c1.1,0.2,3.5,1.2,3.6,1.4C57.2,31.5,57,31.7,57,31.7L57,31.7z M48,39.1c0,0-0.7,0.2-0.7-0.6c0.1-1.2,1.4-0.2,2.4,0.1
			c1,0.2,1.2-0.5,1.1-1c-0.1-0.5-0.3-0.5-0.7-0.7c-0.2-0.1,0.2-0.1,0.6,0c0.6,0.1,0.7,0.6,0.6,1.1c-0.1,0.5-0.3,1-0.6,1
			C50,39.2,48.8,38.8,48,39.1L48,39.1z M51.1,41.3c1.3,0.2,3.6,0.6,3.8-1.2c0.1-1.1-1.4-1.5-1.4-1.4c0,0.2,0.6,0.5,0.9,1.1
			c0.1,0.6-0.1,0.8-1.1,1c-0.8,0.2-1.7-0.3-2.3-0.8c-0.4-0.3-1-0.1-1.1,0.4C49.7,41.3,51.1,41.3,51.1,41.3L51.1,41.3z M47.6,43.8
			c0.2,0,0.4,0.3,0.9,0.3c0.7,0,0.7-0.1,1.1-0.2c0.3-0.1,0.3,0,0.2,0.1c-0.1,0.1-1.1,0.9-1.7,0.5C47.6,44,47.4,43.6,47.6,43.8
			L47.6,43.8z M47.4,43c-0.6-0.3-1.7,0.2-1.7,0.2v-0.9c0,0,0.9,0,1.1-0.1c0.2-0.1,0.1-0.4,0.6-0.4c0.5,0,0.7,0.2,1,0.3
			c0.3,0,0.5,0,1-0.1c0.5-0.2,0.5-0.2,1,0.1c0.5,0.3,1,0.4,1.2,0.3c0.3-0.1,0.4,0.9,0.4,0.9s0.3,0.4-0.6,0.1c-1-0.3-1.5-0.5-1.8-0.3
			C49.1,43.2,48.4,43.4,47.4,43L47.4,43z M45.8,41.8c0,0,1.2-0.4,1-1.2c-0.1-0.4-0.6-0.5-0.9-0.2c-0.5,0.5-1.1,0.9-1.8,1
			c-0.8-0.1-1-0.5-0.9-1c0.2-0.6,0.7-1.1,0.7-1.3c0-0.1-1.4,0.7-1.2,1.7C43,42.5,44.8,42.2,45.8,41.8z"/>
		<path id="XMLID_333_" class="st11" d="M51,32.5c0,0,0.8-1.1,3.1-0.9c2.3,0.2,3.1,1.1,3.3,1.3"/>
		<polyline id="XMLID_332_" class="st7" points="48,53.4 56,58.9 63.3,53.8 		"/>
		<line id="XMLID_331_" class="st7" x1="63.6" y1="50.7" x2="63.6" y2="53.2"/>
		<line id="XMLID_330_" class="st7" x1="64.8" y1="48.6" x2="64.8" y2="50.5"/>
		<line id="XMLID_329_" class="st7" x1="62.3" y1="51.5" x2="62.3" y2="54.6"/>
		<line id="XMLID_328_" class="st7" x1="61" y1="52.4" x2="61" y2="55.3"/>
		<line id="XMLID_327_" class="st7" x1="59.7" y1="53.2" x2="59.7" y2="56.2"/>
		<line id="XMLID_326_" class="st7" x1="58.4" y1="54" x2="58.4" y2="57.1"/>
		<line id="XMLID_325_" class="st7" x1="57.1" y1="54.9" x2="57.2" y2="58"/>
		<line id="XMLID_324_" class="st7" x1="56" y1="55.6" x2="56" y2="58.7"/>
		<line id="XMLID_323_" class="st7" x1="54.7" y1="54.6" x2="54.8" y2="57.8"/>
		<line id="XMLID_322_" class="st7" x1="53.3" y1="53.6" x2="53.4" y2="57"/>
		<line id="XMLID_321_" class="st7" x1="51.9" y1="52.5" x2="52" y2="56.2"/>
		<line id="XMLID_320_" class="st7" x1="46.5" y1="48.5" x2="46.6" y2="50.7"/>
		<line id="XMLID_319_" class="st7" x1="48" y1="49.7" x2="48" y2="53.3"/>
		<line id="XMLID_318_" class="st7" x1="49.2" y1="50.5" x2="49.1" y2="54.1"/>
		<line id="XMLID_317_" class="st7" x1="50.6" y1="51.6" x2="50.6" y2="55"/>
		<path id="XMLID_316_" class="st7" d="M50,57.7c0,0,3,2.6,6.3,2.3c3.3-0.2,5.5-2.7,5.5-2.7"/>
		<path id="XMLID_315_" class="st7" d="M51.3,60.8c0,0,1.6,2.2,5,1.9c3.4-0.2,4.6-2.1,4.4-1.7"/>
		<path id="XMLID_314_" class="st7" d="M52,64c0,0,2,2,4,1.7c2.1-0.2,3.8-1.5,3.8-1.5"/>
		<path id="XMLID_313_" class="st7" d="M52.9,67.4c0,0,1.9,1.4,3.7,1.2c1.8-0.2,2.8-0.8,2.8-0.8"/>
		<path id="XMLID_312_" class="st7" d="M53.7,71.5c0,0,0.9,0.4,2.8,0.2c1.8-0.2,2.8-0.8,2.8-0.8"/>
		<polygon id="XMLID_311_" class="st7" points="56.2,68.5 54.7,70.5 56.1,71.8 57.7,70.5 		"/>
		<polygon id="XMLID_310_" class="st7" points="56.3,74.3 55.1,75.6 56.6,77.2 58,75.6 		"/>
		<polyline id="XMLID_309_" class="st7" points="59,71.6 57.5,73.2 59.2,74.7 		"/>
		<polyline id="XMLID_308_" class="st7" points="53.7,72.4 55,73.5 54.1,74.4 		"/>
		<circle id="XMLID_307_" class="st10" cx="56.2" cy="70.4" r="0.6"/>
		<circle id="XMLID_306_" class="st10" cx="56.5" cy="75.6" r="0.6"/>
		<path id="XMLID_305_" class="st12" d="M59.2,71c0.1-0.2-0.4-7.2,3.4-15.8l3.4-6.8c0,0,3.4-2.5,4.8-2.3c1.4,0.2,2.8,1.3,2.8,1.4
			l-0.1,5.4c-2.2,1-7.4,14.2-6.1,21.4c-6.6-0.4-6.7,2.7-7.9,3.4L59.2,71z"/>
		<ellipse id="XMLID_304_" class="st7" cx="56.3" cy="73.2" rx="1.4" ry="1.3"/>
		<path id="XMLID_303_" class="st3" d="M63.4,104.6l8.1-3.7c-5.3-2.6-10.1-5.6-14.4-12.5c-2.4-5-2.4-9.5-3-14.3
			c-1.1-8.4-3-17.1-8.9-25.2c-1.4,0.5-1.5,0.7-2.2,0.4c-1,0.9-2.2,0.4-2.5-0.2c-1,1.1-3.8,1-3.8-1.2c0-0.3-0.5-0.5-0.6-0.8l-8.1,3.7
			c5.3,2.6,10.1,5.6,14.4,12.5c1.9,4.1,2.4,8,2.6,11.7c0.1,1.5,0.2,1.9,0.4,3.1c1.1,8.3,3.1,16.8,8.9,24.7c1.4-0.5,1.5-0.7,2.2-0.4
			c1-0.9,2.2-0.4,2.5,0.2c1-1.1,3.8-1,3.8,1.2C62.9,104.1,63.4,104.3,63.4,104.6z"/>
		<path class="st13" d="M50.2,75.9c0,0,1.9-1,1.9-2.5c0-1.4-0.4-1.8-0.6-1.9c-0.2-0.1-1-0.3-1.2,0.9c-0.2,0.7,0.2,0.4-0.4,0.5
			c-0.5,0.2-2-1-1.8-2.3c0.1-0.4,0.5,1,1.6,0.9c1.2-0.1,1.8-0.6,2-1.4c0.5-1.6,0-3-1.1-5.4c0.5-1.9,1-3.1-1.9-4.8
			c-1.3-0.6-2.3,0.3-2.2,2.9c0.1,0.8-0.4,1.1-0.8,0.9c-0.9-0.4-0.6-1.7-0.9-2.5c-0.5-1.6-1.7-3.9-3.4-5.5c-1.9-1.8-4.9-2.9-6.1-1.7
			c2.6-0.1,4.2,0.8,5.1,2.4c0.2,0.5,0.7,1.1,0.2,2.3c-0.3,0.7,0.4,0.8,0.7,0.4c0.2-0.3,0.3-0.8,0.5-0.8l0.7,0.9
			c0.7,0.7,0.5,2.9,1,4.1c0.5,1.6,1.4,2.3,2.1,2.3c1.4-0.1,2.2-1.5,1.9-3.4c0-1.8,1.5-1.6,2.1-0.6c0.7,1.2,0.6,2.2-0.1,1.9
			c-0.3-0.1-0.5-0.3-0.4-0.5c0.2-1-0.5-1.4-0.9-0.6c-0.3,0.7-0.1,2,0.5,2.2c1.1,0.5,1.8,1.7,1.9,2.9c0.1,1.5,0.2,2.2-1.1,2.3
			c-0.6,0.1-1.2-0.4-1.4-1.4c-0.1-0.5,0-1.5-0.9-1.3c-0.4,0.1-0.5,0.7-0.5,1.4c-0.8-0.8-1,0.7,0.1,1.5c-0.3,3.1,0.1,2.4,0.7,1.9
			c0.4,0.9,1.1,1.5,1.9,1.6C50.9,73.7,50.8,74.7,50.2,75.9L50.2,75.9z M45.6,55.9c-2.1-0.7-1.7,0.4-2.1,1.3
			c-0.5-0.2-1.9-2.2-0.6-2.8C44.7,54,45.6,55.9,45.6,55.9L45.6,55.9z M47.5,58.9c-2.4-0.5-1.9,0.9-2,1.6c-0.4-0.5-1.9-1.5-1-2.8
			C46.1,56.5,47.5,58.9,47.5,58.9L47.5,58.9z M38.1,51.5c1.8,1.2,2.6,0.4,3.2-0.2c0,0.9,0.6,2.1-1.2,2.1
			C38.2,53.3,38.1,51.5,38.1,51.5L38.1,51.5z M36.2,51.3c0,0,0.5,0,0.7,0.4c0.2,0.4,0.4,1.2-0.6,1.4c-1,0.2-1-0.6-1.4-0.4
			c-0.7,0.3-1,0.2-1.4,0.1c-0.4-0.2-0.5-1.2,0.1-1.9c0.7-0.7,2-0.4,2-0.4s-0.4,0.1-1.1,0.5c-0.7,0.3-0.3,1.2-0.3,1.2
			s0.6,0.1,0.8-0.1C35.1,51.9,35,51.3,36.2,51.3z"/>
		<path class="st13" d="M69,50.8l-2-1.3c1-1.7,2.5-2.5,4.3-1.8c1.8,0.8,1.6,2.9,0.6,4.7c0,0,0,0,0,0.1l-2-1.3c0,0,0,0,0,0
			c0.4-0.6,0.9-1.1,0.3-1.3C69.6,49.7,69.4,50.2,69,50.8L69,50.8z M69.7,51.5c-0.3,0.5-0.6,1-1.1,0.7c-0.5-0.3-0.1-0.7,0.3-1.2
			l-2-1.2c-1,1.8-1,3.6,0.5,4.5c1.5,0.9,3.2,0.1,4.3-1.5L69.7,51.5z"/>
		<path class="st13" d="M65.3,58.1l-2.2-0.8c0.7-1.9,2-3,3.9-2.6c1.9,0.4,2.2,2.5,1.5,4.5c0,0,0,0,0,0.1l-2.2-0.8c0,0,0,0,0,0
			c0.2-0.7,0.6-1.3,0-1.4C65.7,56.9,65.5,57.4,65.3,58.1L65.3,58.1z M66.1,58.7c-0.2,0.6-0.4,1.1-0.9,0.9c-0.6-0.2-0.2-0.6,0-1.2
			L63,57.6c-0.6,1.9-0.3,3.7,1.4,4.3c1.7,0.5,3.2-0.5,3.9-2.3L66.1,58.7z"/>
		<path class="st13" d="M63,66l-2.3-0.2c0.2-2,1.1-3.4,3-3.5c2-0.1,2.7,1.9,2.6,4c0,0,0,0.1,0,0.1L64,66.1c0,0,0,0,0,0
			c0-0.7,0.3-1.4-0.3-1.3C63,64.8,63.1,65.3,63,66L63,66z M63.9,66.4c0,0.6-0.1,1.1-0.6,1.1c-0.6,0-0.4-0.5-0.3-1.2l-2.3-0.2
			c-0.1,2,0.7,3.7,2.5,3.8c1.7,0.1,2.9-1.4,3.2-3.3L63.9,66.4z"/>
		<path class="st13" d="M62.8,74.2l-2.4,0.1c-0.2-2,0.6-3.5,2.5-3.9c1.9-0.4,3,1.4,3.2,3.5c0,0,0,0.1,0,0.1l-2.4,0.1c0,0,0,0,0,0
			c-0.1-0.7,0.1-1.4-0.5-1.3C62.6,73,62.8,73.5,62.8,74.2L62.8,74.2z M63.8,74.5c0.1,0.6,0.1,1.1-0.4,1.2c-0.6,0.1-0.5-0.5-0.5-1.1
			l-2.3,0.2c0.2,2,1.3,3.5,3,3.3c1.7-0.2,2.7-1.8,2.6-3.7L63.8,74.5z"/>
		<polyline id="XMLID_289_" class="st11" points="73.6,63.6 73.6,28.3 76.1,26.3 79,28.3 79,62.7 		"/>
		<path id="XMLID_288_" class="st6" d="M66.4,88.8c4.1,0,7.5-3.4,7.5-7.5c0-4.1-3.4-7.5-7.5-7.5c-4.1,0-7.5,3.4-7.5,7.5
			C58.9,85.5,62.2,88.8,66.4,88.8z"/>
		<path id="XMLID_287_" class="st14" d="M66.4,73.8c1,0,2,0.2,2.9,0.6c-1.7,1.9-4,1.9-6.5,0.3C63.9,74.2,65.1,73.8,66.4,73.8z"/>
		<circle id="XMLID_286_" class="st3" cx="62.3" cy="76.5" r="0.5"/>
		<circle id="XMLID_285_" class="st3" cx="61.7" cy="80.5" r="0.7"/>
		<circle id="XMLID_284_" class="st3" cx="66" cy="80.9" r="0.7"/>
		<circle id="XMLID_283_" class="st3" cx="66" cy="84.6" r="0.7"/>
		<circle id="XMLID_282_" class="st3" cx="62.1" cy="84.2" r="0.7"/>
		<circle id="XMLID_281_" class="st3" cx="71" cy="80.8" r="0.7"/>
		<circle id="XMLID_280_" class="st3" cx="70.6" cy="84.7" r="0.7"/>
		<circle id="XMLID_279_" class="st3" cx="64" cy="77.1" r="0.5"/>
		<circle id="XMLID_278_" class="st3" cx="66.1" cy="77.3" r="0.5"/>
		<circle id="XMLID_277_" class="st3" cx="67.8" cy="77.1" r="0.5"/>
		<circle id="XMLID_276_" class="st3" cx="69.5" cy="76.8" r="0.5"/>
		<path id="XMLID_275_" class="st3" d="M70.9,75.5c0.3,0,0.5,0.2,0.5,0.5c0,0.3-0.2,0.5-0.5,0.5c-0.3,0-0.5-0.2-0.5-0.5
			C70.4,75.7,70.6,75.5,70.9,75.5z"/>
		<path id="XMLID_274_" class="st14" d="M59.6,78.2c0,0,1,1.3,2.9,0.8c1.2,0.6,1.1,0.7,2.4,0.4c0.7,0.5,1.6,0.4,2.6,0
			c1.1,0.5,1.8,0.2,2.5-0.4c0.7,0.6,1.4,0.5,1.9-0.3c0.6,0.3,1.2,0.1,1.3-0.8l-0.7-1.1c-0.5,0.4-0.8,1-2,0.8c-0.2,0.1-0.8,1-1.7,0.3
			c-0.5,0.6-0.9,0.4-1.7,0.1c-0.7,0.8-1.4,0.6-2.2-0.1c-0.8,0.4-1.5,0.3-1.9-0.4c-1.1,0.3-1.9,0-2.3-0.9L59.6,78.2z"/>
		<path id="XMLID_273_" class="st15" d="M59.2,78.9c0.6,2.7,1.9,4,4.4,2.4c1.6,0.9,3.3,1.7,5,0c1.7,1.3,3.5,1.3,5.2-0.9"/>
		<path id="XMLID_272_" class="st15" d="M58.9,80.7c0.8,2.3,2.4,2.8,4.8,1.6c1.6,0.9,3.2,1.8,5,0.1c1.7,1.3,3.7,1.5,5.3-0.7"/>
		<path id="XMLID_271_" class="st15" d="M59.6,84.2c1.7,1.7,2.4,1.4,4.3,0.6c1.6,0.9,2.4,1.9,4.1,0.2c1.7,1.3,3.3,1.8,5-0.4"/>
		<path id="XMLID_270_" class="st15" d="M60.2,85.6c1.5,1.7,2,1.2,3.6,0.4c1.2,0.7,2.4,1.8,4.2,0.3c1.4,0.7,2.4,1.8,4-0.3"/>
		<path id="XMLID_269_" class="st6" d="M69,88.3l1.5,2.6c-1.9,0.4-3.3,1.1-3.9,2.2c-0.8-1.1-2-2-4-2.3l1.7-2.3
			C65.8,89,67.4,89,69,88.3z"/>
		<path id="XMLID_268_" class="st15" d="M65.3,88.8l-0.8,1.4c1,0.3,1.5,1.1,2.3,1.6c0.5-0.6,1-1.1,2-1.5L68,88.5"/>
		<circle id="XMLID_267_" class="st3" cx="66.6" cy="89.8" r="0.5"/>
		<circle id="XMLID_266_" class="st10" cx="68.2" cy="94" r="0.7"/>
		<circle id="XMLID_265_" class="st10" cx="72.5" cy="92.8" r="0.7"/>
		<circle id="XMLID_264_" class="st10" cx="60" cy="86.7" r="0.7"/>
		<circle id="XMLID_263_" class="st10" cx="58.3" cy="77.1" r="0.7"/>
		<circle id="XMLID_262_" class="st10" cx="63.5" cy="91.9" r="0.7"/>
		<path id="XMLID_261_" class="st10" d="M67.2,95.1c0.5,1,0.8,2.1,1.1,3c0.1-0.9,0.4-1.9,0.9-3C68.7,95.4,68.2,95.6,67.2,95.1z"/>
		<path id="XMLID_260_" class="st10" d="M71.5,93.9c0.5,1,0.8,2.1,1.1,3c0.1-0.9,0.4-1.9,0.9-3C73,94.2,72.5,94.4,71.5,93.9z"/>
		<path id="XMLID_259_" class="st10" d="M59,87.8c0.5,1,0.8,2.1,1.1,3c0.1-0.9,0.4-1.9,0.9-3C60.5,88.1,60,88.3,59,87.8z"/>
		<path id="XMLID_258_" class="st10" d="M57.2,78.2c0.5,1,0.8,2.1,1.1,3c0.1-0.9,0.4-1.9,0.9-3C58.7,78.5,58.2,78.7,57.2,78.2z"/>
		<path id="XMLID_257_" class="st10" d="M62.5,93c0.5,1,0.8,2.1,1.1,3c0.1-0.9,0.4-1.9,0.9-3C64,93.3,63.5,93.5,62.5,93z"/>
		<path id="XMLID_256_" class="st11" d="M74.7,75.3c-2.1,0.4-3.4-1.1-2.5-4.4c0.2-2.4,0.7-3.8,3.1-4.6c1.1-0.6,2.6-0.6,4.4-0.4
			l0.1,1.4c0.8,0.2,1.2,1,1.1,2c0.3,0.5,0.3,1-0.1,1.5c0.4,0.4,0.4,0.6-0.1,1.3c0,0.3,0.1,1.5-0.9,1.8l-2,0.4L74.7,75.3z"/>
		<path id="XMLID_255_" class="st11" d="M76.1,26.4c0,0-0.4,1.5-0.4,2.6c0,1.1,0.3,0.9,0.1,2c-0.2,1.1-0.1,1.1,0.1,1.6
			c0.2,0.5,0.1,0.1,0.1,1.2c0,1.1-0.3,1.6-0.2,2.5c0.2,0.9-0.5,1.7-0.1,2.1c0.4,0.4,0.2,1.1,0.1,2.1c-0.2,1,0,1.2,0.1,2.1
			c0.1,0.9-0.2,1.7-0.2,2.4c0,0.7-0.1,0.6,0.2,1.8c0.2,1.2,0.7,2.4,0.7,3c0,0.6,0.2,1.8,0,2.9c-0.2,1.1-0.7,2.5-0.4,3.2
			c0.2,0.7,0.4,1.1,0.4,2.3c0.1,1.2,0.1,1.2,0.2,2.1c0.1,1,0.2,1.3,0,1.8c-0.2,0.5-0.2,1.4-0.2,1.4"/>
		<line id="XMLID_254_" class="st11" x1="75.6" y1="28.3" x2="78.9" y2="28.3"/>
		<line id="XMLID_253_" class="st11" x1="75.7" y1="29.8" x2="79" y2="29.8"/>
		<line id="XMLID_252_" class="st11" x1="75.8" y1="30.9" x2="78.8" y2="30.9"/>
		<line id="XMLID_251_" class="st11" x1="75.8" y1="32.2" x2="79" y2="32.2"/>
		<line id="XMLID_250_" class="st11" x1="76" y1="33.3" x2="79" y2="33.3"/>
		<line id="XMLID_249_" class="st11" x1="75.8" y1="36.1" x2="79" y2="36.1"/>
		<line id="XMLID_248_" class="st11" x1="75.8" y1="37.2" x2="79" y2="37.2"/>
		<line id="XMLID_247_" class="st11" x1="75.7" y1="38.6" x2="78.9" y2="38.6"/>
		<line id="XMLID_246_" class="st11" x1="75.8" y1="39.9" x2="79" y2="39.9"/>
		<line id="XMLID_245_" class="st11" x1="75.8" y1="41.4" x2="79" y2="41.4"/>
		<line id="XMLID_244_" class="st11" x1="75.8" y1="42.8" x2="79" y2="42.8"/>
		<line id="XMLID_243_" class="st11" x1="75.9" y1="44" x2="79.1" y2="44"/>
		<line id="XMLID_242_" class="st11" x1="75.6" y1="45.3" x2="78.8" y2="45.3"/>
		<line id="XMLID_241_" class="st11" x1="75.7" y1="46.5" x2="78.9" y2="46.5"/>
		<line id="XMLID_240_" class="st11" x1="76.1" y1="47.9" x2="78.9" y2="47.9"/>
		<line id="XMLID_239_" class="st11" x1="76.4" y1="49.3" x2="79.1" y2="49.3"/>
		<line id="XMLID_238_" class="st11" x1="76.5" y1="50.4" x2="79.1" y2="50.4"/>
		<line id="XMLID_237_" class="st11" x1="76.5" y1="51.8" x2="79.1" y2="51.8"/>
		<line id="XMLID_236_" class="st11" x1="76.4" y1="52.9" x2="79" y2="52.9"/>
		<line id="XMLID_235_" class="st11" x1="76.2" y1="54.4" x2="79" y2="54.4"/>
		<line id="XMLID_234_" class="st11" x1="76" y1="55.7" x2="79" y2="55.7"/>
		<line id="XMLID_233_" class="st11" x1="76.4" y1="56.9" x2="79" y2="56.9"/>
		<line id="XMLID_232_" class="st11" x1="76.4" y1="58.4" x2="79" y2="58.4"/>
		<line id="XMLID_231_" class="st11" x1="76.6" y1="59.7" x2="78.9" y2="59.7"/>
		<line id="XMLID_230_" class="st5" x1="76.7" y1="60.9" x2="79" y2="60.9"/>
		<line id="XMLID_229_" class="st11" x1="76.5" y1="62.3" x2="79.1" y2="62.3"/>
		<line id="XMLID_228_" class="st11" x1="75.8" y1="34.9" x2="79" y2="34.9"/>
		<line id="XMLID_227_" class="st4" x1="71.1" y1="101" x2="82.5" y2="93.9"/>
		<path id="XMLID_226_" class="st16" d="M32.7,16l8,13.9c8.7-2.1,16.7-1.8,24.1-0.4L73.1,16"/>
		<path id="XMLID_225_" class="st1" d="M48.8,45.1c1.2,2.5,6.2,6.3,9.2,4.5c1.4-0.8,1.9-2.7,1.5-3.5l1.6,2.1l-5.4,3.5L48,47.3
			L48.8,45.1z"/>
		<path id="XMLID_224_" class="st3" d="M64.7,48.8c-1.8,1.2-3.8-0.3-3.6-0.5l-5.4,3.5L48,47.3c0,0-1.5,1.4-1.9,1.1l9.9,7.1l8.7-5.7
			L64.7,48.8z"/>
		<path id="XMLID_223_" class="st4" d="M46.3,48.4c0,0,0.8,0.1,1.5-0.8c0.7-0.9,0.7-2.9,0.7-2.7"/>
		<path id="XMLID_222_" class="st4" d="M48.8,45.1c1.2,2.5,6.2,6.3,9.2,4.5c1.4-0.8,1.9-2.7,1.5-3.5c-0.6-1.5-1.8-1.7-2.6-1.2
			c-1.1,0.6-1.4,2.2-0.2,2.8c0.8,0.4,2.3,0.2,1.4-1.4"/>
		<path id="XMLID_221_" class="st4" d="M56.4,28.5c1.2,4.1,1.3,10.9,2.2,14.4c0.5,1.9,1.8,5.6,4,6.2c1.3,0.4,2.7,0,2.6-2.3
			c-0.1-2.3-1.2-2.9-2.2-3.1c-2.9-0.6-2.3,2.9-0.9,3.5c1,0.4,2.8-0.5,0.7-2.2"/>
		<line id="XMLID_220_" class="st4" x1="64.6" y1="48.9" x2="66.6" y2="47.9"/>
		<path id="XMLID_219_" class="st17" d="M66.4,88.8c4.1,0,7.5-3.4,7.5-7.5c0-4.1-3.4-7.5-7.5-7.5c-4.1,0-7.5,3.4-7.5,7.5
			C58.9,85.5,62.2,88.8,66.4,88.8z"/>
		<path id="XMLID_218_" class="st9" d="M25,76.3c2.1-0.4,3.4,1.1,2.5,4.4c-0.2,2.4-0.7,3.8-3.1,4.6c-1.1,0.6-2.6,0.6-4.4,0.4
			l-0.1-1.4c-0.8-0.2-1.2-1-1.1-2c-0.3-0.5-0.3-1,0.1-1.5c-0.4-0.4-0.4-0.6,0.1-1.3c0-0.3-0.1-1.5,0.9-1.8l2-0.4L25,76.3z"/>
		<path class="st10" d="M26,80.1c0,0-1.4,0.6-1.6,1.8c-0.2,1.2,0.1,1.5,0.1,1.5s-0.7-0.1-1.3-0.1c-0.6,0,0.3,0.2-1.5,0.1
			c-0.7,0.3-1.1,0.6-0.8,0.9c0,0,0.8,0,1,0.3c0.2,0.4,0,0.7,1.3,0.6c1.3-0.1,2.6-0.7,3-1c0.4-0.3,1.1-1.5,1.1-2.2
			c0-0.7,0.7-3.5,0.4-4.1c-0.3-0.6-1.6-2.2-1.9-1.6c-0.4,0.5-0.7,0.8-0.7,0.8l-0.1,2.2C25.6,80.1,26.2,79.4,26,80.1L26,80.1z
			 M24,82.6c0,1-1-0.6-1-0.6s0.2-0.2,0.4-0.6c0.2-0.4-0.2-0.7-0.5-0.9c-0.2-0.3,0.1-0.6,0.1-1.1c0-0.5-0.5-0.5-0.5-0.5s0-0.2,0-0.6
			c0-0.4-0.1-0.7-0.1-0.7s0.7,0.1,1.1,0.1c0.5,0,1-0.4,1-0.4l-0.1,1.3l-0.3,0.6c0,0,0.1,0,0.4,0.5c0.3,0.5-0.2,0.8-0.4,1.5
			C23.9,81.9,24,82.6,24,82.6L24,82.6z M22.9,82.7c0,0.1,0.1,0.7-0.3,0.5c-0.4-0.2-0.7-0.3-0.7-0.3v-0.7C22,82.1,22.9,82,22.9,82.7
			L22.9,82.7z M21.8,81.6l0.1-1c0.7-0.2,0.9,0.3,0.9,0.7C22.8,81.6,22.5,82.1,21.8,81.6L21.8,81.6z M21.3,80l0.1-0.8
			c0.8-0.2,1.1,0.1,1.1,0.4C22.5,79.9,22.1,80.4,21.3,80L21.3,80z M20.9,78.5l0.1-0.8c0.8-0.2,1.1,0.1,1.1,0.4
			C22,78.4,21.7,78.9,20.9,78.5L20.9,78.5z M21.5,83.1c0,0-0.9,0.3-1.3,0.7c-0.3,0.4-0.5,0.4-0.8,0.2c-0.3-0.2-0.4-1.1-0.4-1.1
			s2.2-1.1,2.3-0.9C21.7,82.4,21.9,83,21.5,83.1L21.5,83.1z M21.2,81.6c0,0-0.5-0.1-1,0.1c-0.5,0.2-0.9,0.7-1.2,0.6
			c-0.3-0.1-0.2-0.9-0.2-0.9s2.3-1.1,2.4-0.8C21.7,80.7,21.6,81.5,21.2,81.6L21.2,81.6z M20.7,80.2l-1.9,0.7
			C18.6,81,18.6,80,18.6,80s2-1.1,2.1-0.8C21.2,79.2,21.2,80,20.7,80.2L20.7,80.2z M20.1,78.7L19,79.2c-0.3,0.1,0-0.8,0-0.8
			s1.2-0.9,1.3-0.6C20.8,77.9,20.5,78.5,20.1,78.7L20.1,78.7z M21.8,85.4c0,0-0.2,0-0.8-0.1c-0.6-0.1-0.9-0.3-0.9-0.3s0-0.2,0.1-0.4
			c0.1-0.1,0.6,0.1,1.1,0.3C21.8,85,21.8,85.4,21.8,85.4L21.8,85.4z M25,76.3c2.1-0.4,3.4,1.1,2.5,4.4c-0.2,2.4-0.7,3.8-3.1,4.6
			c-1.1,0.6-2.6,0.6-4.4,0.4l-0.1-1.4c-0.8-0.2-1.2-1-1.1-2c-0.3-0.5-0.3-1,0.1-1.5c-0.4-0.4-0.4-0.6,0.1-1.3c0-0.3-0.1-1.5,0.9-1.8
			l2-0.4L25,76.3z"/>
		<path id="XMLID_205_" class="st3" d="M26.3,95.4c0,0,3.4-5.9,3.8-9.8c0.5-3.9,0.7-8.5,0.7-8.5l-1.4-0.7l-1.2-1.1h-3.2l-0.3,0.8
			c0,0,0.5-0.2,1.3,0.1c0.7,0.3,2.2,0,1.9,3.2c-0.3,3.2-0.5,3.4-0.9,3.9c-0.4,0.5-1.9,1.8-1.9,1.8l0.4,0.3c0,0,2.5,0,2.6,0.8
			c0.1,0.8,0.7,1.3-0.2,1.6c-0.9,0.3-1.4,0-1.4,0L26.3,95.4z"/>
		<path id="XMLID_204_" class="st6" d="M26.3,95.4c0,0,3.4-5.9,3.8-9.8c0.5-3.9,0.7-8.5,0.7-8.5l1.4,0.2c1.3,7.2-3.9,20.4-6.1,21.4
			L26.3,95.4z"/>
		<path id="XMLID_203_" class="st10" d="M28.4,65.8c-0.5-0.9-0.8-1.9-1.1-2.8c-0.1,0.8-0.4,1.8-0.9,2.8
			C26.9,65.6,27.4,65.3,28.4,65.8z"/>
		<path id="XMLID_202_" class="st6" d="M26.6,135.6l8.2-13.5c7.4,1.4,15.3,1.8,24-0.4l8.2,13.9H26.6z"/>
		<path id="XMLID_201_" class="st3" d="M33.2,124.6l1.5-2.5c7.4,1.4,15.4,1.8,24.1-0.4l1.8,3.1l-4.5,0.8l-1.4-1l-0.7,1.3l-6.2,0.3
			l-0.8-1l-1.1,1c-2.2,0-4.3-0.1-6.5-0.3l-1.1-1.3l-0.9,1C36,125.4,34.6,125.1,33.2,124.6z"/>
		<path id="XMLID_200_" class="st1" d="M33.9,123.5l0.4-0.6c5.4,1.4,15.4,2,24.9-0.2l0.5,0.7C53.6,124.6,41.5,125.7,33.9,123.5z"/>
		<path class="st3" d="M51.1,130.4l2.3-3.6l-5,0L51.1,130.4L51.1,130.4z M51.1,128.8l-0.9-1.2l1.7,0L51.1,128.8z"/>
		<path class="st3" d="M60.1,129.3l1.3-2.9l-0.3-0.8l-4.2,0.7L60.1,129.3L60.1,129.3z M59.8,127.7l-1.1-1l1.7-0.3L59.8,127.7z"/>
		<path class="st3" d="M33.2,129l-1.1-3l0.4-0.8l4.1,1L33.2,129L33.2,129z M33.6,127.4l1.2-0.9l-1.6-0.4L33.6,127.4z"/>
		<path class="st3" d="M42.3,130.2l2.6-3.4l-5-0.4L42.3,130.2L42.3,130.2z M42.4,128.6l-0.8-1.3l1.7,0.1L42.4,128.6z"/>
		<circle id="XMLID_191_" class="st3" cx="51" cy="131.9" r="0.7"/>
		<circle id="XMLID_190_" class="st3" cx="60.4" cy="130.6" r="0.7"/>
		<circle id="XMLID_189_" class="st3" cx="32.8" cy="130.4" r="0.7"/>
		<circle id="XMLID_188_" class="st3" cx="42.1" cy="131.7" r="0.7"/>
		<circle id="XMLID_187_" class="st3" cx="46.8" cy="129.8" r="0.6"/>
		<circle id="XMLID_186_" class="st3" cx="55.8" cy="129.2" r="0.6"/>
		<circle id="XMLID_185_" class="st3" cx="38.1" cy="129.3" r="0.6"/>
		<path id="XMLID_184_" class="st3" d="M45.1,128.6c1.7-0.6,3.5,0,3.4,0c-0.5-0.9-1.1-1.3-1.7-1.3C46.1,127.3,45.4,127.8,45.1,128.6
			z"/>
		<path id="XMLID_183_" class="st3" d="M54,127.9c1.7-0.5,3.5,0,3.4,0c-0.5-0.9-1.1-1.3-1.7-1.3C55,126.6,54.3,127.2,54,127.9z"/>
		<path id="XMLID_182_" class="st3" d="M36.4,127.9c1.7-0.4,3.5,0.3,3.4,0.3c-0.4-0.9-1-1.4-1.6-1.4
			C37.5,126.7,36.8,127.2,36.4,127.9z"/>
		<path id="XMLID_181_" class="st4" d="M42,123c0,0-1.1-3.8-1.2-5.7c-0.1-1.1-0.8-9.9-2-10.4"/>
		<path id="XMLID_180_" class="st4" d="M40.6,123.1c0,0-1.1-3.8-1.2-5.7c-0.1-1.1-0.5-8.9-1.7-9.5"/>
		<path id="XMLID_179_" class="st4" d="M39.2,122.7c0,0-1.1-3.8-1.2-5.7c-0.1-1.1-0.3-8.2-1.5-8.8"/>
		<path id="XMLID_178_" class="st4" d="M37.5,122.6c0,0-0.6-3.7-0.7-5.6c-0.1-1.1-0.4-7.7-1.6-8.3"/>
		<path id="XMLID_177_" class="st4" d="M36.2,122.5c0,0-0.6-3.7-0.7-5.6c-0.1-1.1-0.3-6.9-1.5-7.5"/>
		<path id="XMLID_176_" class="st4" d="M35,122.2c0,0-0.6-3.7-0.7-5.6c-0.1-1.1-0.5-6.2-1.7-6.8"/>
		<path id="XMLID_175_" class="st4" d="M37.5,107.9l-6.4,2.4c-1.2,0.3-2.3-0.1-3-1.7c-0.3-1-0.3-2.3,0.6-3.1"/>
		<path id="XMLID_174_" class="st4" d="M32.1,110c-2.7-0.7-2.8-1.9-2.9-4.4"/>
		<path id="XMLID_173_" class="st4" d="M33.4,109.6c-1.8-0.5-3.3-2-2.6-4.5"/>
		<path id="XMLID_172_" class="st4" d="M34.7,109c-1.8-0.5-3.3-2.3-2.6-4.8"/>
		<path id="XMLID_171_" class="st4" d="M35.7,108.6c-1.8-0.5-3.3-2.4-2.6-4.9"/>
		<path id="XMLID_170_" class="st4" d="M59,121.8c0,0-0.5-5.9-0.4-7.4c0.1-1.5-0.8-5-1-5.6c-0.2-0.6-0.3-3.6,1.5-4.3
			c1.5-0.7,4.2-1.9,4.7,1.1c0.3,2.1-1,2.7-2.2,2.5c-2.1-0.3-1.8-2.1-1.1-2.8c0.8-0.8,2.5-0.1,1.4,1.2"/>
		<path id="XMLID_169_" class="st4" d="M62.8,103.8c0,0,0-2-1.6-1.8c-1.7,0.1-3.6,1.3-4.4,3.1c-0.7,1.8-0.6,2.1-0.6,2.1"/>
		<path id="XMLID_168_" class="st4" d="M59,102.4c0,0-1.4-1.1-2.5,0.2c-1.1,1.3-1.6,3.2-1.6,3.3"/>
		<path id="XMLID_167_" class="st4" d="M56.7,102.3c0,0-1.2-0.8-1.8,0.4c-0.6,1.2-1.2,3.1-1.2,3.1"/>
		<path id="XMLID_166_" class="st4" d="M54.9,102.8c0,0-1.1-0.3-1.8,0.5c-0.7,0.9-0.8,2.8-0.8,2.6"/>
		<line id="XMLID_165_" class="st4" x1="62.2" y1="108.3" x2="57.9" y2="109.8"/>
		<line id="XMLID_164_" class="st4" x1="60.4" y1="105.4" x2="57.5" y2="108.2"/>
		<path id="XMLID_163_" class="st4" d="M60.5,108.9c0,0-1.9-0.8-1.4-2"/>
		<path id="XMLID_162_" class="st4" d="M59.3,109.2c0,0-1.4-0.6-1.1-1.5"/>
		<path id="XMLID_161_" class="st4" d="M58.9,120.6c0,0,0.8-2,0.9-2.2c0.5,0.1,1.7,0.3,1.7-0.8c0-1.1-0.3-1.5-1-1.5
			c-0.7,0-1.9,1.2-1.9,1.2"/>
		<path id="XMLID_160_" class="st4" d="M58.6,115.4c0,0,1.7-2.2,1.8-2.4c0.5,0.1,2,0.4,2-0.7c0-1.1-0.5-1.5-1.1-1.5
			c-1.4,0-2.9,1.9-2.9,1.9"/>
		<path id="XMLID_159_" class="st4" d="M49.3,106.4c0,0-1.2-2.1-3.2-3.1c-0.6-0.3-4.3-1-4.3,0.5"/>
		<path id="XMLID_158_" class="st4" d="M47.8,106.1c0,0-2.8-3-4.6-2"/>
		<path id="XMLID_157_" class="st4" d="M47,106.9c0,0-1.8-2.4-3.4-1.9"/>
		<path id="XMLID_156_" class="st4" d="M45.9,107.4c0,0-1.8-1.6-2.6-1.3"/>
		<path id="XMLID_155_" class="st4" d="M45,108.3c0,0-1.6-1.7-2.3-1.7"/>
		<path id="XMLID_154_" class="st4" d="M43.8,109.1c0,0-1.9-2.1-2.6-2.4"/>
		<path id="XMLID_153_" class="st4" d="M43.1,109.8c0,0-1.2-1.2-2-1.3"/>
		<path class="st10" d="M58.9,120.6c0.1,0.5-2.6,0.9-3.1,1c-1.5,0.1-3-1.4-3.3-2.6c-0.1-0.6-0.1-1.1,0-1.6c0.2-1,1.1-3.8,0.8-4.4
			c-0.3-0.7-0.7-0.7-1.1-0.9c-0.4-0.2-1.2-0.8-0.9-1.3c0,0,0.6,0.6,1.3,0.8c1,0.2,1.2,0.7,1.2,1.1c0,0.9-0.3,2.3-0.5,3.2l0.9-0.4
			l-0.3,1.1c1-0.4,3.6-0.6,4.6,0.4L58.9,120.6L58.9,120.6z M58.5,120v-0.9c0,0-1.2,0.9-2.4,0.9c-1.2,0-2.4-0.5-2.9-0.8
			c0.2,0.6,0.6,1.5,2.1,1.7C57.1,121,58.4,120.3,58.5,120L58.5,120z M57.4,117.1c0.2,0.2,0.4,0.7,0.4,0.7l0.6-0.2
			C58.4,117.6,58.4,116.7,57.4,117.1L57.4,117.1z M57.4,117.9c-0.3-1.6-1.5-1.1-2-1.1c-0.7,0.2-1,1.1-1,1.1l0.4,0.1
			c0,0-0.1-1.1,1.5-0.8c0.8,0.1,0.7,0.8,0.7,0.8L57.4,117.9L57.4,117.9z M54.1,117.7l0.3-0.7c-0.4,0-0.6,0-0.8,0.2
			C53.6,117.3,53.3,117.3,54.1,117.7L54.1,117.7z M48,117.8l-0.2-0.7c0.3,0,0.7,0.1,0.8,0.4C48.6,117.5,48.5,117.5,48,117.8
			L48,117.8z M45,117c-0.2,0.2-0.6,1-0.6,1l-0.6-0.2C43.7,118.1,43.9,116.9,45,117L45,117z M44.8,118.2l0.4,0.1c0,0,0-0.8,0.7-1
			c1-0.2,1.3,0.7,1.3,0.7l0.4-0.1c0,0-0.7-1.1-1.5-1.1C45.8,116.9,45,117.3,44.8,118.2L44.8,118.2z M43.1,117.5
			c-0.2,0.2-1-0.6-1-0.6l0.2,1c0,0,0.2,0.1,0.8,0.4c0.6,0.3,1.6,0.8,2.2,0.8c0.5,0,1.5,0,2.3-0.2c0.8-0.2,1.3-0.7,1.3-0.7
			s0,0.2,0.7,0.3c0.7,0.2,0.3-0.3,0.3-0.3l-1-1.6l-0.8-0.7l-0.6-0.1c0,0,0.4,0.9,0.5,1c0.1,0.1-0.7-0.5-2.2-0.3
			C44.5,116.6,44.3,116.4,43.1,117.5L43.1,117.5z M58.3,118.7v-0.3c0,0-1.2,0.8-2.4,0.8s-2.4-0.7-2.9-1.1l-0.1,0.4
			c0.3,0.3,2.1,1.1,2.8,1.1C57.3,119.4,58.3,118.8,58.3,118.7z"/>
		<path class="st10" d="M42.6,119.9c0,0,2.2,1.1,3.9,1c1.7-0.1,2.9-0.9,3.2-0.6c0.3,0.3,0.4,0.7-0.2,1c-0.5,0.3-2.2,0.6-3.3,0.4
			c-1.1-0.2-3.5-1.2-3.6-1.4C42.5,120.1,42.6,119.9,42.6,119.9L42.6,119.9z M51.6,112.5c0,0,0.7-0.2,0.7,0.6
			c-0.1,1.2-1.4,0.2-2.4-0.1c-1-0.2-1.2,0.5-1.1,1c0.1,0.5,0.3,0.5,0.7,0.7c0.2,0.1-0.2,0.1-0.6,0c-0.6-0.1-0.7-0.6-0.6-1.1
			c0.1-0.5,0.3-1,0.6-1C49.6,112.4,50.8,112.8,51.6,112.5L51.6,112.5z M48.5,110.3c-1.3-0.2-3.6-0.6-3.8,1.2
			c-0.1,1.1,1.4,1.5,1.4,1.4c0-0.2-0.6-0.5-0.9-1.1c-0.1-0.6,0.1-0.8,1.1-1c0.8-0.2,1.7,0.3,2.3,0.8c0.4,0.3,1,0.1,1.1-0.4
			C49.9,110.3,48.5,110.3,48.5,110.3L48.5,110.3z M52,107.8c-0.2,0-0.4-0.3-0.9-0.3c-0.7,0-0.7,0.1-1.1,0.2c-0.3,0.1-0.3,0-0.2-0.1
			c0.1-0.1,1.1-0.9,1.7-0.5C52.1,107.6,52.3,108,52,107.8L52,107.8z M52.3,108.6c0.6,0.3,1.7-0.2,1.7-0.2v0.9c0,0-0.9,0-1.1,0.1
			c-0.2,0.1-0.1,0.4-0.6,0.4c-0.5,0-0.7-0.2-1-0.3c-0.3,0-0.5,0-1,0.1c-0.5,0.2-0.5,0.2-1-0.1c-0.5-0.3-1-0.4-1.2-0.3
			c-0.3,0.1-0.4-0.9-0.4-0.9s-0.3-0.4,0.6-0.1c1,0.3,1.5,0.5,1.8,0.3C50.6,108.4,51.2,108.2,52.3,108.6L52.3,108.6z M53.8,109.8
			c0,0-1.2,0.4-1,1.2c0.1,0.4,0.6,0.5,0.9,0.2c0.5-0.5,1.1-0.9,1.8-1c0.8,0.1,1,0.5,0.9,1c-0.2,0.6-0.7,1.1-0.7,1.3
			c0,0.1,1.4-0.7,1.2-1.7C56.7,109.1,54.8,109.4,53.8,109.8z"/>
		<path id="XMLID_136_" class="st11" d="M48.6,119.1c0,0-0.8,1.1-3.1,0.9c-2.3-0.2-3.1-1.1-3.3-1.3"/>
		<line id="XMLID_135_" class="st7" x1="36" y1="100.9" x2="36" y2="98.4"/>
		<line id="XMLID_134_" class="st7" x1="34.8" y1="103" x2="34.8" y2="101.1"/>
		<line id="XMLID_133_" class="st7" x1="37.3" y1="100.1" x2="37.3" y2="97"/>
		<line id="XMLID_132_" class="st7" x1="38.7" y1="99.2" x2="38.7" y2="96.3"/>
		<line id="XMLID_131_" class="st7" x1="39.9" y1="98.4" x2="39.9" y2="95.4"/>
		<line id="XMLID_130_" class="st7" x1="41.2" y1="97.6" x2="41.2" y2="94.5"/>
		<line id="XMLID_129_" class="st7" x1="42.5" y1="96.7" x2="42.5" y2="93.6"/>
		<line id="XMLID_128_" class="st7" x1="43.6" y1="96" x2="43.6" y2="92.9"/>
		<line id="XMLID_127_" class="st7" x1="44.9" y1="97" x2="44.9" y2="93.8"/>
		<line id="XMLID_126_" class="st7" x1="46.3" y1="98" x2="46.3" y2="94.6"/>
		<line id="XMLID_125_" class="st7" x1="47.7" y1="99.1" x2="47.7" y2="95.5"/>
		<line id="XMLID_124_" class="st7" x1="50.4" y1="101.1" x2="50.5" y2="97.5"/>
		<line id="XMLID_123_" class="st7" x1="49" y1="100" x2="49" y2="96.6"/>
		<polygon id="XMLID_122_" class="st7" points="43.4,83.1 44.9,81.1 43.5,79.8 41.9,81.1 		"/>
		<polygon id="XMLID_121_" class="st7" points="43.3,77.3 44.6,76 43,74.4 41.6,76 		"/>
		<polyline id="XMLID_120_" class="st7" points="40.6,80.1 42.1,78.4 40.4,76.9 		"/>
		<circle id="XMLID_119_" class="st10" cx="43.5" cy="81.2" r="0.6"/>
		<circle id="XMLID_118_" class="st10" cx="43.2" cy="76" r="0.6"/>
		<path id="XMLID_117_" class="st12" d="M40.4,80.6c-0.1,0.2,0.4,7.2-3.4,15.8l-3.4,6.8c0,0-3.4,2.5-4.8,2.3
			c-1.4-0.2-2.8-1.3-2.8-1.4l0.1-5.4c2.2-1,7.4-14.2,6.1-21.4c6.6,0.4,6.7-2.7,7.9-3.4L40.4,80.6z"/>
		<ellipse id="XMLID_116_" class="st7" cx="43.3" cy="78.4" rx="1.4" ry="1.3"/>
		<path class="st13" d="M49.4,75.7c0,0-1.9,1-1.9,2.5c0,1.4,0.4,1.8,0.6,1.9c0.2,0.1,1,0.3,1.2-0.9c0.2-0.7-0.2-0.4,0.4-0.5
			c0.5-0.2,2,1,1.8,2.3c-0.1,0.4-0.5-1-1.6-0.9c-1.2,0.1-1.8,0.6-2,1.4c-0.5,1.6,0,3,1.1,5.4c-0.5,1.9-1,3.1,1.9,4.8
			c1.3,0.6,2.3-0.3,2.2-2.9c0-0.8,0.4-1.1,0.8-0.9c0.9,0.4,0.6,1.7,0.9,2.5c0.5,1.6,1.7,3.9,3.4,5.5c1.9,1.8,4.9,2.9,6.1,1.7
			c-2.6,0.1-4.2-0.8-5.1-2.4c-0.2-0.5-0.7-1.1-0.2-2.3c0.3-0.7-0.4-0.8-0.7-0.4c-0.2,0.3-0.3,0.8-0.5,0.8l-0.7-0.9
			c-0.7-0.7-0.5-2.9-1-4.1c-0.5-1.6-1.4-2.3-2.1-2.3c-1.4,0.1-2.2,1.5-1.9,3.4c0,1.8-1.5,1.6-2.1,0.6c-0.7-1.2-0.6-2.2,0.1-1.9
			c0.3,0.1,0.5,0.3,0.4,0.5c-0.2,1,0.5,1.4,0.9,0.6c0.3-0.7,0.1-2-0.5-2.2c-1.1-0.5-1.8-1.7-1.9-2.9c-0.1-1.5-0.2-2.2,1.1-2.3
			c0.6-0.1,1.2,0.4,1.4,1.4c0.1,0.5,0,1.5,0.9,1.3c0.4-0.1,0.5-0.7,0.5-1.4c0.8,0.8,1-0.7-0.1-1.5c0.3-3.1-0.1-2.4-0.7-1.9
			c-0.4-0.9-1.1-1.5-1.9-1.6C48.8,77.9,48.9,76.9,49.4,75.7L49.4,75.7z M54.1,95.7c2.1,0.7,1.7-0.4,2.1-1.3c0.5,0.2,1.9,2.2,0.6,2.8
			C54.9,97.6,54.1,95.7,54.1,95.7L54.1,95.7z M52.1,92.7c2.4,0.5,1.9-0.9,2-1.6c0.4,0.5,1.9,1.5,1,2.8
			C53.5,95.1,52.1,92.7,52.1,92.7L52.1,92.7z M61.5,100.1c-1.8-1.2-2.6-0.4-3.2,0.2c0-0.9-0.6-2.1,1.2-2.1
			C61.4,98.3,61.5,100.1,61.5,100.1L61.5,100.1z M63.5,100.3c0,0-0.5,0-0.7-0.4c-0.2-0.4-0.4-1.2,0.6-1.4c1-0.2,1,0.6,1.4,0.4
			c0.7-0.3,1-0.2,1.4-0.1c0.4,0.2,0.5,1.2-0.1,1.9c-0.7,0.7-2,0.4-2,0.4s0.4-0.1,1.1-0.5s0.3-1.2,0.3-1.2s-0.6-0.1-0.8,0.1
			C64.5,99.7,64.6,100.3,63.5,100.3z"/>
		<path class="st13" d="M30.6,100.8l2,1.3c-1,1.7-2.5,2.5-4.3,1.8c-1.8-0.8-1.6-2.9-0.6-4.7c0,0,0,0,0-0.1l2,1.3c0,0,0,0,0,0
			c-0.4,0.6-0.9,1.1-0.3,1.3C30,101.9,30.3,101.4,30.6,100.8L30.6,100.8z M29.9,100.1c0.3-0.5,0.6-1,1.1-0.7
			c0.5,0.3,0.1,0.7-0.3,1.2l2,1.2c1-1.8,1-3.6-0.5-4.5c-1.5-0.9-3.2-0.1-4.3,1.5L29.9,100.1z"/>
		<path class="st13" d="M34.3,93.5l2.2,0.8c-0.7,1.9-2,3-3.9,2.6c-1.9-0.4-2.2-2.5-1.5-4.5c0,0,0,0,0-0.1l2.2,0.8c0,0,0,0,0,0
			c-0.2,0.7-0.6,1.3,0,1.4C34,94.7,34.1,94.2,34.3,93.5L34.3,93.5z M33.5,92.9c0.2-0.6,0.4-1.1,0.9-0.9c0.6,0.2,0.2,0.6,0,1.2
			l2.2,0.8c0.6-1.9,0.3-3.7-1.4-4.3c-1.7-0.5-3.2,0.5-3.9,2.3L33.5,92.9z"/>
		<path class="st13" d="M36.6,85.6l2.3,0.2c-0.2,2-1.1,3.4-3.1,3.5c-2,0.1-2.7-1.9-2.6-4c0,0,0-0.1,0-0.1l2.4,0.2c0,0,0,0,0,0
			c0,0.7-0.3,1.4,0.3,1.3C36.6,86.8,36.6,86.3,36.6,85.6L36.6,85.6z M35.7,85.2c0-0.6,0.1-1.1,0.6-1.1c0.6,0,0.4,0.5,0.3,1.2
			l2.3,0.2c0.1-2-0.7-3.7-2.5-3.8c-1.7-0.1-2.9,1.4-3.2,3.3L35.7,85.2z"/>
		<path class="st13" d="M36.8,77.4l2.4-0.1c0.2,2-0.6,3.5-2.5,3.9c-1.9,0.4-3-1.4-3.2-3.5c0,0,0-0.1,0-0.1l2.4-0.1c0,0,0,0,0,0
			c0.1,0.7-0.1,1.4,0.5,1.3C37,78.6,36.9,78.1,36.8,77.4L36.8,77.4z M35.8,77.1c-0.1-0.6-0.1-1.1,0.4-1.2c0.6-0.1,0.5,0.5,0.5,1.1
			l2.3-0.2c-0.2-2-1.3-3.5-3-3.3c-1.7,0.2-2.7,1.8-2.6,3.7L35.8,77.1z"/>
		<polyline id="XMLID_102_" class="st11" points="26.1,88 26.1,123.3 23.5,125.3 20.6,123.3 20.6,88.9 		"/>
		<circle id="XMLID_101_" class="st6" cx="33.2" cy="70.3" r="7.5"/>
		<path id="XMLID_100_" class="st14" d="M33.2,77.8c-1,0-2-0.2-2.9-0.6c1.7-1.9,4-1.9,6.5-0.3C35.8,77.4,34.5,77.8,33.2,77.8z"/>
		<circle id="XMLID_99_" class="st3" cx="37.3" cy="75.1" r="0.5"/>
		<circle id="XMLID_98_" class="st3" cx="37.9" cy="71.1" r="0.7"/>
		<circle id="XMLID_97_" class="st3" cx="33.7" cy="70.7" r="0.7"/>
		<circle id="XMLID_96_" class="st3" cx="33.6" cy="67" r="0.7"/>
		<circle id="XMLID_95_" class="st3" cx="37.6" cy="67.4" r="0.7"/>
		<circle id="XMLID_94_" class="st3" cx="28.7" cy="70.8" r="0.7"/>
		<circle id="XMLID_93_" class="st3" cx="29.1" cy="66.9" r="0.7"/>
		<circle id="XMLID_92_" class="st3" cx="35.6" cy="74.5" r="0.5"/>
		<circle id="XMLID_91_" class="st3" cx="33.6" cy="74.3" r="0.5"/>
		<circle id="XMLID_90_" class="st3" cx="31.8" cy="74.5" r="0.5"/>
		<circle id="XMLID_89_" class="st3" cx="30.2" cy="74.8" r="0.5"/>
		<circle id="XMLID_88_" class="st3" cx="28.8" cy="75.6" r="0.5"/>
		<path id="XMLID_87_" class="st14" d="M40,73.4c0,0-1-1.3-2.9-0.8c-1.2-0.6-1.1-0.7-2.4-0.4c-0.7-0.5-1.6-0.4-2.6,0
			c-1.1-0.5-1.8-0.2-2.5,0.4c-0.7-0.6-1.4-0.5-1.9,0.3c-0.6-0.3-1.2-0.1-1.3,0.8l0.7,1.1c0.5-0.4,0.8-1,2-0.8c0.2-0.1,0.8-1,1.7-0.3
			c0.5-0.6,0.9-0.4,1.7-0.1c0.7-0.8,1.4-0.6,2.1,0.1c0.8-0.4,1.5-0.3,1.9,0.4c1.1-0.3,1.9,0,2.3,0.9L40,73.4z"/>
		<path id="XMLID_86_" class="st15" d="M40.4,72.7c-0.6-2.7-1.9-4-4.4-2.4c-1.6-0.9-3.3-1.7-5,0c-1.7-1.3-3.5-1.3-5.2,0.9"/>
		<path id="XMLID_85_" class="st15" d="M40.7,70.9c-0.8-2.3-2.4-2.8-4.8-1.6c-1.6-0.9-3.2-1.8-4.9-0.1c-1.7-1.3-3.7-1.5-5.3,0.7"/>
		<path id="XMLID_84_" class="st15" d="M40,67.4c-1.7-1.7-2.4-1.4-4.3-0.6c-1.6-0.9-2.4-1.9-4.1-0.2c-1.7-1.3-3.3-1.8-5,0.4"/>
		<path id="XMLID_83_" class="st15" d="M39.4,66c-1.5-1.7-2-1.2-3.6-0.4c-1.2-0.7-2.4-1.8-4.2-0.3c-1.4-0.7-2.4-1.8-4,0.3"/>
		<path id="XMLID_82_" class="st6" d="M30.6,63.3l-1.5-2.6c1.9-0.4,3.3-1.1,3.9-2.2c0.8,1.1,2,2,4,2.3l-1.7,2.3
			C33.8,62.6,32.2,62.6,30.6,63.3z"/>
		<path id="XMLID_81_" class="st15" d="M34.4,62.8l0.8-1.4c-1-0.3-1.5-1.1-2.3-1.6c-0.5,0.6-1,1.1-2,1.5l0.8,1.7"/>
		<circle id="XMLID_80_" class="st3" cx="33.1" cy="61.8" r="0.5"/>
		<circle id="XMLID_79_" class="st10" cx="31.4" cy="57.6" r="0.7"/>
		<circle id="XMLID_78_" class="st10" cx="27.1" cy="58.8" r="0.7"/>
		<circle id="XMLID_77_" class="st10" cx="39.6" cy="64.9" r="0.7"/>
		<circle id="XMLID_76_" class="st10" cx="41.3" cy="74.5" r="0.7"/>
		<circle id="XMLID_75_" class="st10" cx="36.1" cy="59.7" r="0.7"/>
		<path id="XMLID_74_" class="st10" d="M32.4,56.5c-0.5-1-0.8-2.1-1.1-3c-0.1,0.9-0.4,1.9-0.9,3C30.9,56.2,31.4,56,32.4,56.5z"/>
		<path id="XMLID_73_" class="st10" d="M28.1,57.7c-0.5-1-0.8-2.1-1.1-3c-0.1,0.9-0.4,1.9-0.9,3C26.6,57.5,27.1,57.2,28.1,57.7z"/>
		<path id="XMLID_72_" class="st10" d="M40.6,63.8c-0.5-1-0.8-2.1-1.1-3c-0.1,0.9-0.4,1.9-0.9,3C39.1,63.5,39.6,63.3,40.6,63.8z"/>
		<path id="XMLID_71_" class="st10" d="M42.4,73.4c-0.5-1-0.8-2.1-1.1-3c-0.1,0.9-0.4,1.9-0.9,3C40.9,73.1,41.4,72.9,42.4,73.4z"/>
		<path id="XMLID_70_" class="st10" d="M37.1,58.6c-0.5-1-0.8-2.1-1.1-3c-0.1,0.9-0.4,1.9-0.9,3C35.6,58.3,36.1,58.1,37.1,58.6z"/>
		<path id="XMLID_69_" class="st11" d="M25,76.3c2.1-0.4,3.4,1.1,2.5,4.4c-0.2,2.4-0.7,3.8-3.1,4.6c-1.1,0.6-2.6,0.6-4.4,0.4
			l-0.1-1.4c-0.8-0.2-1.2-1-1.1-2c-0.3-0.5-0.3-1,0.1-1.5c-0.4-0.4-0.4-0.6,0.1-1.3c0-0.3-0.1-1.5,0.9-1.8l2-0.4L25,76.3z"/>
		<path id="XMLID_68_" class="st11" d="M23.6,125.2c0,0,0.4-1.5,0.4-2.6c0-1.1-0.3-0.9-0.1-2c0.2-1.1,0.1-1.1-0.1-1.6
			c-0.2-0.5-0.1-0.1-0.1-1.2s0.3-1.6,0.2-2.5c-0.2-0.9,0.5-1.7,0.1-2.1c-0.4-0.4-0.2-1.1-0.1-2.1c0.2-1,0-1.2-0.1-2.1
			c-0.1-0.9,0.2-1.7,0.2-2.4c0-0.7,0.1-0.6-0.2-1.8c-0.2-1.2-0.7-2.4-0.7-3c0-0.6-0.2-1.8,0-2.9c0.2-1.1,0.7-2.5,0.4-3.2
			c-0.2-0.7-0.4-1.1-0.4-2.3c-0.1-1.2-0.1-1.2-0.2-2.1c-0.1-1-0.2-1.3,0-1.8c0.2-0.5,0.2-1.4,0.2-1.4"/>
		<line id="XMLID_67_" class="st11" x1="24" y1="123.3" x2="20.7" y2="123.3"/>
		<line id="XMLID_66_" class="st11" x1="24" y1="121.8" x2="20.6" y2="121.8"/>
		<line id="XMLID_65_" class="st11" x1="23.8" y1="120.7" x2="20.8" y2="120.7"/>
		<line id="XMLID_64_" class="st11" x1="23.8" y1="119.4" x2="20.6" y2="119.4"/>
		<line id="XMLID_63_" class="st11" x1="23.6" y1="118.3" x2="20.6" y2="118.3"/>
		<line id="XMLID_62_" class="st11" x1="23.8" y1="115.5" x2="20.6" y2="115.5"/>
		<line id="XMLID_61_" class="st11" x1="23.8" y1="114.4" x2="20.6" y2="114.4"/>
		<line id="XMLID_60_" class="st11" x1="23.9" y1="113" x2="20.7" y2="113"/>
		<line id="XMLID_59_" class="st11" x1="23.9" y1="111.7" x2="20.6" y2="111.7"/>
		<line id="XMLID_58_" class="st11" x1="23.9" y1="110.2" x2="20.6" y2="110.2"/>
		<line id="XMLID_57_" class="st11" x1="23.9" y1="108.8" x2="20.6" y2="108.8"/>
		<line id="XMLID_56_" class="st11" x1="23.7" y1="107.6" x2="20.5" y2="107.6"/>
		<line id="XMLID_55_" class="st11" x1="24" y1="106.3" x2="20.8" y2="106.3"/>
		<line id="XMLID_54_" class="st11" x1="23.9" y1="105.1" x2="20.7" y2="105.1"/>
		<line id="XMLID_53_" class="st11" x1="23.5" y1="103.7" x2="20.7" y2="103.7"/>
		<line id="XMLID_52_" class="st11" x1="23.2" y1="102.3" x2="20.5" y2="102.3"/>
		<line id="XMLID_51_" class="st11" x1="23.1" y1="101.2" x2="20.6" y2="101.2"/>
		<line id="XMLID_50_" class="st11" x1="23.1" y1="99.8" x2="20.5" y2="99.8"/>
		<line id="XMLID_49_" class="st11" x1="23.2" y1="98.7" x2="20.6" y2="98.7"/>
		<line id="XMLID_48_" class="st11" x1="23.4" y1="97.2" x2="20.6" y2="97.2"/>
		<line id="XMLID_47_" class="st11" x1="23.7" y1="95.9" x2="20.6" y2="95.9"/>
		<line id="XMLID_46_" class="st11" x1="23.2" y1="94.7" x2="20.6" y2="94.7"/>
		<line id="XMLID_45_" class="st11" x1="23.2" y1="93.2" x2="20.6" y2="93.2"/>
		<line id="XMLID_44_" class="st11" x1="23.1" y1="91.9" x2="20.7" y2="91.9"/>
		<line id="XMLID_43_" class="st11" x1="22.9" y1="90.7" x2="20.6" y2="90.7"/>
		<line id="XMLID_42_" class="st11" x1="23.1" y1="89.3" x2="20.6" y2="89.3"/>
		<line id="XMLID_41_" class="st11" x1="23.8" y1="116.7" x2="20.6" y2="116.7"/>
		<path id="XMLID_40_" class="st16" d="M66.9,135.6l-8-13.9c-8.7,2.1-16.7,1.8-24.1,0.4l-8.2,13.5"/>
		<path id="XMLID_39_" class="st18" d="M50.9,106.5c-1.2-2.5-6.2-6.3-9.2-4.5c-1.4,0.8-1.9,2.7-1.5,3.5l-1.6-2.1l5.4-3.5l7.6,4.5
			L50.9,106.5z"/>
		<path id="XMLID_38_" class="st3" d="M34.9,102.8c1.8-1.2,3.8,0.3,3.6,0.5l5.4-3.5l7.6,4.5c0,0,1.5-1.4,1.9-1.1L43.6,96l-8.7,5.7
			L34.9,102.8z"/>
		<path id="XMLID_37_" class="st4" d="M53.4,103.2c0,0-0.8-0.1-1.5,0.8c-0.7,0.9-0.7,2.9-0.7,2.7"/>
		<path id="XMLID_36_" class="st4" d="M50.9,106.5c-1.2-2.5-6.2-6.3-9.2-4.5c-1.4,0.8-1.9,2.7-1.5,3.5c0.6,1.5,1.8,1.7,2.6,1.2
			c1.1-0.6,1.4-2.2,0.2-2.8c-0.8-0.4-2.3-0.2-1.4,1.4"/>
		<path id="XMLID_35_" class="st4" d="M43.2,123.2c-1.2-4.1-1.3-10.9-2.2-14.4c-0.4-1.9-1.8-5.6-4-6.2c-1.3-0.4-2.7,0-2.6,2.3
			c0.1,2.3,1.2,2.9,2.2,3.1c2.9,0.6,2.3-2.9,0.9-3.5c-1-0.4-2.8,0.5-0.7,2.2"/>
		<line id="XMLID_34_" class="st4" x1="35" y1="102.7" x2="33" y2="103.7"/>
		<circle id="XMLID_33_" class="st17" cx="33.2" cy="70.3" r="7.5"/>
		<circle id="XMLID_32_" class="st6" cx="22.7" cy="75.1" r="2.3"/>
		<path id="XMLID_31_" class="st10" d="M22.3,73.7c1,0.3,1.7,1.2,1.7,2.3c0,0.1,0,0.3,0,0.4c0.3-0.3,0.5-0.7,0.5-1.2
			c0-0.9-0.7-1.7-1.7-1.7C22.6,73.6,22.4,73.6,22.3,73.7z"/>
		<path id="XMLID_30_" class="st6" d="M76.9,78.8c1.3,0,2.3-1,2.3-2.3c0-1.3-1-2.3-2.3-2.3c-1.3,0-2.3,1-2.3,2.3
			C74.6,77.7,75.6,78.8,76.9,78.8z"/>
		<path id="XMLID_29_" class="st10" d="M77.4,77.9c-1-0.3-1.7-1.2-1.7-2.3c0-0.1,0-0.3,0-0.4c-0.3,0.3-0.5,0.7-0.5,1.2
			c0,0.9,0.7,1.7,1.7,1.7C77.1,78,77.2,78,77.4,77.9z"/>
		<path id="XMLID_28_" class="st3" d="M73.9,66.3l3.7-0.6c1.3-0.4,1.9,0.2,2.6,0.6l-0.2,0.1c-0.9-0.3-1.4-0.6-2.6-0.5l-3.5,0.6
			L73.9,66.3z"/>
		<path id="XMLID_27_" class="st3" d="M25.8,85.3l-4.5,0.8c-1.1-0.1-1.1-0.5-1.8-0.8l0.2-0.1c0.9,0.3,1.4,0.6,2.6,0.5l3.5-0.6
			L25.8,85.3z"/>
		<line id="XMLID_26_" class="st4" x1="76.9" y1="78.9" x2="77.1" y2="97.2"/>
		<line id="XMLID_25_" class="st19" x1="81.2" y1="64.6" x2="82.3" y2="64.6"/>
		<path id="XMLID_24_" class="st6" d="M26.5,85.6c2,0.3,2.4,2.5,0.6,2.6c-2.1-0.5,0.4-0.5-5.4,0.5c-2.5,0.3-3.4-1.1-3.3-1.5
			c0-1.3,0.8-2.4,1.9-1.4C21.1,86.9,24.5,85.1,26.5,85.6z"/>
		<path id="XMLID_23_" class="st6" d="M73.2,66c-2-0.3-2.4-2.5-0.6-2.6c2.1,0.5-0.4,0.5,5.4-0.5c2.5-0.3,3.4,1.1,3.3,1.5
			c0,1.3-0.8,2.4-1.9,1.4C78.5,64.7,75.1,66.5,73.2,66z"/>
		<g>
			<g>
				<path id="XMLID_22_" class="st20" d="M90.3,111.7c-1.4,1.7-1.1,4.2-1.1,4.2c0.2-1.2,1.4-1.8,1.8-1.9c1.6-0.3,2.4,0.9,2.5,1.1
					c1.1,2-0.5,3.3-0.8,3.5c-1.5,0.9-2.7-0.1-2.7-0.1c-0.2,0-0.1,0.2-0.1,0.2c1.2,0.7,1.3,1.8,1.3,2.2c-0.3,2.3-2.5,2.3-2.5,2.3
					s-2.2,0.1-2.5-2.3c0-0.4,0-1.5,1.3-2.2c0,0,0.1-0.3-0.1-0.2c0,0-1.2,1.1-2.7,0.1c-0.2-0.2-1.9-1.4-0.8-3.5
					c0.1-0.2,0.9-1.4,2.5-1.1c0.5,0.1,1.6,0.8,1.8,1.9c0,0,0.3-2.5-1.1-4.2H90.3z"/>
			</g>
			<g>
				<path id="XMLID_21_" class="st20" d="M9.1,39.9c1.4-1.7,1.1-4.2,1.1-4.2c-0.2,1.2-1.4,1.8-1.8,1.9c-1.6,0.3-2.4-0.9-2.5-1.1
					c-1.1-2,0.5-3.3,0.8-3.5c1.5-0.9,2.7,0.1,2.7,0.1c0.2,0,0.1-0.2,0.1-0.2c-1.2-0.7-1.3-1.8-1.3-2.2c0.3-2.3,2.5-2.3,2.5-2.3
					s2.2-0.1,2.5,2.3c0,0.4,0,1.5-1.3,2.2c0,0-0.1,0.3,0.1,0.2c0,0,1.2-1.1,2.7-0.1c0.2,0.2,1.9,1.4,0.8,3.5
					c-0.1,0.2-0.9,1.4-2.5,1.1c-0.5-0.1-1.6-0.8-1.8-1.9c0,0-0.3,2.5,1.1,4.2H9.1z"/>
			</g>
		</g>
		<path class="st21" d="M17.2,136.5h65.6V15.1H16.7v121.4H17.2L17.2,136.5z M17.7,135.5L17.7,135.5c0-1,0-118.3,0-119.3
			c1,0,63,0,64,0c0,1,0,118.3,0,119.3C80.7,135.5,18.7,135.5,17.7,135.5z"/>
		<g>
			<path id="XMLID_18_" class="st3" d="M66,124.2c-2.5,0-4.5-2-4.5-4.5c0-2.5,2-4.5,4.5-4.5c2.3,0,4.1,1.6,4.4,3.7
				c0,0,0.5-0.1,0.5-0.2c-0.1-3.5-0.7-5.8-2-7.6H74c-1.3,2.4-1.9,5-1.9,7.7l0.4,0.1c0.4-2.1,2.2-3.8,4.5-3.8c2.5,0,4.5,2,4.5,4.5
				c0,2.5-2,4.5-4.5,4.5c-1.1,0-2.1-0.4-2.9-1l-0.3,0.3c1.4,0.8,2.4,2.4,2.4,4.2c0,2.7-2.2,4.8-4.8,4.8c-2.7,0-4.8-2.2-4.8-4.8
				c0-1.8,1-3.4,2.6-4.3L69,123C68.2,123.7,67.1,124.2,66,124.2z"/>
			<path id="XMLID_17_" class="st3" d="M25.6,28.3l0.5-0.5c-1.5-0.8-2.4-2.3-2.4-4.1c0-2.6,2.1-4.7,4.7-4.7c2.6,0,4.7,2.1,4.7,4.7
				c0,1.8-1,3.4-2.5,4.1l0.4,0.5c0.8-0.6,1.7-1,2.8-1c2.4,0,4.4,2,4.4,4.4c0,2.4-2,4.4-4.4,4.4c-2.3,0-4.2-1.8-4.4-4l-0.6,0
				c-0.3,4.2,1.7,7.5,1.7,7.5H26c2.4-2.3,1.7-7.5,1.7-7.5l-0.6-0.1C27,34.2,25.1,36,22.7,36c-2.4,0-4.4-2-4.4-4.4
				c0-2.4,2-4.4,4.4-4.4C23.8,27.2,24.8,27.6,25.6,28.3z"/>
		</g>
		<g>
			<polygon id="XMLID_16_" class="st3" points="15.6,22.6 15.6,24.4 10.9,24.4 10.9,22.6 12.6,22.6 9.9,16.4 8.3,19 8.3,22.6 
				9.8,22.6 9.8,24.4 4.8,24.4 4.8,22.6 6.2,22.6 6.2,9 4.8,9 4.8,7.1 9.6,7.1 9.6,9 8.3,9 8.3,15.2 12.2,9 10.9,9 10.9,7.1 
				15.6,7.1 15.6,9 14.6,9 11.2,14.4 14.8,22.6 			"/>
			<polygon id="XMLID_14_" class="st3" points="83.8,129 83.8,127.2 88.5,127.2 88.5,129 86.8,129 89.5,135.1 91.1,132.6 91.1,129 
				89.6,129 89.6,127.2 94.6,127.2 94.6,129 93.2,129 93.2,142.6 94.6,142.6 94.6,144.5 89.8,144.5 89.8,142.6 91.1,142.6 
				91.1,136.4 87.2,142.6 88.5,142.6 88.5,144.5 83.8,144.5 83.8,142.6 84.8,142.6 88.2,137.2 84.6,129 			"/>
		</g>
	</g>
</g>
</svg>
