<?xml version="1.0" encoding="utf-8"?>
<!-- Generator: Adobe Illustrator 19.0.0, SVG Export Plug-In . SVG Version: 6.00 Build 0)  -->
<svg version="1.1" xmlns="http://www.w3.org/2000/svg" xmlns:xlink="http://www.w3.org/1999/xlink" x="0px" y="0px"
	 viewBox="0 0 99.4 151.6" style="enable-background:new 0 0 99.4 151.6;" xml:space="preserve">
<style type="text/css">
	.st0{fill:#FFFFFF;stroke:#000000;stroke-width:0.25;stroke-miterlimit:2.6131;}
	.st1{fill-rule:evenodd;clip-rule:evenodd;fill:#E52529;}
	.st2{fill:#E52529;}
	.st3{fill-rule:evenodd;clip-rule:evenodd;fill:#DB4634;}
	.st4{fill-rule:evenodd;clip-rule:evenodd;fill:#0D4F9E;}
	.st5{fill-rule:evenodd;clip-rule:evenodd;fill:none;stroke:#2AABE3;stroke-width:0.7084;stroke-miterlimit:2.6131;}
	.st6{fill-rule:evenodd;clip-rule:evenodd;fill:#231F20;}
	.st7{fill-rule:evenodd;clip-rule:evenodd;fill:none;stroke:#0D4F9E;stroke-width:0.8504;stroke-miterlimit:2.6131;}
	.st8{fill:#0D4F9E;}
	.st9{fill-rule:evenodd;clip-rule:evenodd;fill:none;stroke:#231F20;stroke-width:0.8504;stroke-miterlimit:2.6131;}
	.st10{fill-rule:evenodd;clip-rule:evenodd;fill:none;stroke:#0D4F9E;stroke-width:0.7087;stroke-miterlimit:2.6131;}
	.st11{fill-rule:evenodd;clip-rule:evenodd;fill:none;stroke:#231F20;stroke-width:0.7087;stroke-miterlimit:2.6131;}
	.st12{fill-rule:evenodd;clip-rule:evenodd;fill:none;stroke:#2AABE3;stroke-width:0.7087;stroke-miterlimit:2.6131;}
	.st13{fill-rule:evenodd;clip-rule:evenodd;fill:#FFFFFF;}
	.st14{fill-rule:evenodd;clip-rule:evenodd;fill:#E52529;stroke:#0D4F9E;stroke-width:0.7084;stroke-miterlimit:2.6131;}
	.st15{fill-rule:evenodd;clip-rule:evenodd;fill:none;stroke:#0D4F9E;stroke-width:0.7084;stroke-miterlimit:2.6131;}
	.st16{fill-rule:evenodd;clip-rule:evenodd;fill:#E52529;stroke:#0D4F9E;stroke-width:0.7087;stroke-miterlimit:2.6131;}
	.st17{fill-rule:evenodd;clip-rule:evenodd;fill:none;stroke:#10447F;stroke-width:0.8504;stroke-miterlimit:2.6131;}
	.st18{fill-rule:evenodd;clip-rule:evenodd;fill:#0D4F9E;stroke:#10447F;stroke-width:0.5669;stroke-miterlimit:2.6131;}
	.st19{fill:#231F20;}
</style>
<g id="Calque_2">
	<path id="XMLID_15_" class="st0" d="M99.3,5.3v140.9c0,2.9-2.3,5.2-5.2,5.2H5.3c-2.9,0-5.2-2.3-5.2-5.2V5.3c0-2.9,2.3-5.2,5.2-5.2
		h88.7C96.9,0.1,99.3,2.5,99.3,5.3z"/>
</g>
<g id="Calque_1">
	<g>
		<g>
			<g>
				<g>
					<path class="st1" d="M552.8,134.6c-3.2-4.4-4.1-8-4.1-8s-0.9,3.7-4.1,8c-3.2,4.4-6.2,5.6-6.2,5.6s3,1.2,6.2,5.6
						c3.2,4.4,4.1,8,4.1,8s0.9-3.7,4.1-8c3.2-4.4,6.2-5.6,6.2-5.6S556.1,138.9,552.8,134.6z"/>
					<path class="st1" d="M510.8,134.6c-3.2-4.4-4.1-8-4.1-8s-0.9,3.7-4.1,8c-3.2,4.4-6.2,5.6-6.2,5.6s3,1.2,6.2,5.6
						c3.2,4.4,4.1,8,4.1,8s0.9-3.7,4.1-8c3.2-4.4,6.2-5.6,6.2-5.6S514,138.9,510.8,134.6z"/>
				</g>
				<g>
					<path class="st1" d="M531.8,177.1c-3.2-4.4-4.1-8-4.1-8s-0.9,3.7-4.1,8c-3.2,4.4-6.2,5.6-6.2,5.6s3,1.2,6.2,5.6
						c3.2,4.4,4.1,8,4.1,8s0.9-3.7,4.1-8c3.2-4.4,6.2-5.6,6.2-5.6S535,181.5,531.8,177.1z"/>
				</g>
				<g>
					<path class="st1" d="M552.8,219.7c-3.2-4.4-4.1-8-4.1-8s-0.9,3.7-4.1,8c-3.2,4.4-6.2,5.6-6.2,5.6s3,1.2,6.2,5.6
						c3.2,4.4,4.1,8,4.1,8s0.9-3.7,4.1-8c3.2-4.4,6.2-5.6,6.2-5.6S556.1,224,552.8,219.7z"/>
					<path class="st1" d="M510.8,219.7c-3.2-4.4-4.1-8-4.1-8s-0.9,3.7-4.1,8c-3.2,4.4-6.2,5.6-6.2,5.6s3,1.2,6.2,5.6
						c3.2,4.4,4.1,8,4.1,8s0.9-3.7,4.1-8c3.2-4.4,6.2-5.6,6.2-5.6S514,224,510.8,219.7z"/>
				</g>
			</g>
		</g>
		<g>
			<g>
				<g>
					<g>
						<g>
							<g>
								<path class="st2" d="M486.7,117.5h7.8v1.8h-6l-0.2,3c0,0,2.8-1.6,5.5,0.7c0.5,0.4,2.9,2.9,1.4,7.8c-0.3,1-2,3.6-5.6,3.1
									c-0.2,0-2.9-0.7-3.9-3.7l1.7-0.4c0,0,1.3,2.7,3.1,2.5c0.9-0.1,3.3-0.7,3.2-4.6c0-0.3,0-3.7-2.9-4.2c-1-0.2-2.2,0-3.9,1.7
									l-0.8-0.5L486.7,117.5z"/>
							</g>
						</g>
						<g>
							<g>
								<path class="st2" d="M568.8,247.8h-7.9V246h6l0.2-3c0,0-2.8,1.6-5.5-0.7c-0.5-0.4-2.9-2.9-1.4-7.8c0.3-1,2-3.6,5.6-3.1
									c0.2,0,2.9,0.7,3.9,3.7l-1.7,0.4c0,0-1.3-2.7-3.1-2.5c-0.9,0.1-3.3,0.7-3.2,4.6c0,0.3,0,3.7,2.9,4.2c1,0.2,2.2,0,3.9-1.7
									l0.8,0.5L568.8,247.8z"/>
							</g>
						</g>
					</g>
				</g>
			</g>
		</g>
		<g>
			<g>
				<path class="st2" d="M490.8,137.7c0,0,1.4,4.5,4.7,6.3c0,0-3.2,1.7-4.7,6.2c-1.5-4.6-4.7-6.2-4.7-6.2
					C489.4,142.2,490.8,137.7,490.8,137.7z"/>
			</g>
			<g>
				<path class="st2" d="M564.7,227.6c0,0-1.4-4.5-4.7-6.3c0,0,3.2-1.7,4.7-6.2c1.5,4.6,4.7,6.2,4.7,6.2
					C566.1,223.1,564.7,227.6,564.7,227.6z"/>
			</g>
		</g>
	</g>
	<g>
		<g>
			<g>
				<g>
					<path class="st1" d="M552.8,134.6c-3.2-4.4-4.1-8-4.1-8s-0.9,3.7-4.1,8c-3.2,4.4-6.2,5.6-6.2,5.6s3,1.2,6.2,5.6
						c3.2,4.4,4.1,8,4.1,8s0.9-3.7,4.1-8c3.2-4.4,6.2-5.6,6.2-5.6S556.1,138.9,552.8,134.6z"/>
					<path class="st1" d="M510.8,134.6c-3.2-4.4-4.1-8-4.1-8s-0.9,3.7-4.1,8c-3.2,4.4-6.2,5.6-6.2,5.6s3,1.2,6.2,5.6
						c3.2,4.4,4.1,8,4.1,8s0.9-3.7,4.1-8c3.2-4.4,6.2-5.6,6.2-5.6S514,138.9,510.8,134.6z"/>
				</g>
				<g>
					<path class="st1" d="M531.8,177.1c-3.2-4.4-4.1-8-4.1-8s-0.9,3.7-4.1,8c-3.2,4.4-6.2,5.6-6.2,5.6s3,1.2,6.2,5.6
						c3.2,4.4,4.1,8,4.1,8s0.9-3.7,4.1-8c3.2-4.4,6.2-5.6,6.2-5.6S535,181.5,531.8,177.1z"/>
				</g>
				<g>
					<path class="st1" d="M552.8,219.7c-3.2-4.4-4.1-8-4.1-8s-0.9,3.7-4.1,8c-3.2,4.4-6.2,5.6-6.2,5.6s3,1.2,6.2,5.6
						c3.2,4.4,4.1,8,4.1,8s0.9-3.7,4.1-8c3.2-4.4,6.2-5.6,6.2-5.6S556.1,224,552.8,219.7z"/>
					<path class="st1" d="M510.8,219.7c-3.2-4.4-4.1-8-4.1-8s-0.9,3.7-4.1,8c-3.2,4.4-6.2,5.6-6.2,5.6s3,1.2,6.2,5.6
						c3.2,4.4,4.1,8,4.1,8s0.9-3.7,4.1-8c3.2-4.4,6.2-5.6,6.2-5.6S514,224,510.8,219.7z"/>
				</g>
			</g>
		</g>
		<g>
			<g>
				<g>
					<g>
						<g>
							<g>
								<path class="st2" d="M486.7,117.5h7.8v1.8h-6l-0.2,3c0,0,2.8-1.6,5.5,0.7c0.5,0.4,2.9,2.9,1.4,7.8c-0.3,1-2,3.6-5.6,3.1
									c-0.2,0-2.9-0.7-3.9-3.7l1.7-0.4c0,0,1.3,2.7,3.1,2.5c0.9-0.1,3.3-0.7,3.2-4.6c0-0.3,0-3.7-2.9-4.2c-1-0.2-2.2,0-3.9,1.7
									l-0.8-0.5L486.7,117.5z"/>
							</g>
						</g>
						<g>
							<g>
								<path class="st2" d="M568.8,247.8h-7.9V246h6l0.2-3c0,0-2.8,1.6-5.5-0.7c-0.5-0.4-2.9-2.9-1.4-7.8c0.3-1,2-3.6,5.6-3.1
									c0.2,0,2.9,0.7,3.9,3.7l-1.7,0.4c0,0-1.3-2.7-3.1-2.5c-0.9,0.1-3.3,0.7-3.2,4.6c0,0.3,0,3.7,2.9,4.2c1,0.2,2.2,0,3.9-1.7
									l0.8,0.5L568.8,247.8z"/>
							</g>
						</g>
					</g>
				</g>
			</g>
		</g>
		<g>
			<g>
				<path class="st2" d="M490.8,137.7c0,0,1.4,4.5,4.7,6.3c0,0-3.2,1.7-4.7,6.2c-1.5-4.6-4.7-6.2-4.7-6.2
					C489.4,142.2,490.8,137.7,490.8,137.7z"/>
			</g>
			<g>
				<path class="st2" d="M564.7,227.6c0,0-1.4-4.5-4.7-6.3c0,0,3.2-1.7,4.7-6.2c1.5,4.6,4.7,6.2,4.7,6.2
					C566.1,223.1,564.7,227.6,564.7,227.6z"/>
			</g>
		</g>
	</g>
	<g>
		<g>
			<g>
				<g>
					<path class="st1" d="M552.8,134.6c-3.2-4.4-4.1-8-4.1-8s-0.9,3.7-4.1,8c-3.2,4.4-6.2,5.6-6.2,5.6s3,1.2,6.2,5.6
						c3.2,4.4,4.1,8,4.1,8s0.9-3.7,4.1-8c3.2-4.4,6.2-5.6,6.2-5.6S556.1,138.9,552.8,134.6z"/>
					<path class="st1" d="M510.8,134.6c-3.2-4.4-4.1-8-4.1-8s-0.9,3.7-4.1,8c-3.2,4.4-6.2,5.6-6.2,5.6s3,1.2,6.2,5.6
						c3.2,4.4,4.1,8,4.1,8s0.9-3.7,4.1-8c3.2-4.4,6.2-5.6,6.2-5.6S514,138.9,510.8,134.6z"/>
				</g>
				<g>
					<path class="st1" d="M531.8,177.1c-3.2-4.4-4.1-8-4.1-8s-0.9,3.7-4.1,8c-3.2,4.4-6.2,5.6-6.2,5.6s3,1.2,6.2,5.6
						c3.2,4.4,4.1,8,4.1,8s0.9-3.7,4.1-8c3.2-4.4,6.2-5.6,6.2-5.6S535,181.5,531.8,177.1z"/>
				</g>
				<g>
					<path class="st1" d="M552.8,219.7c-3.2-4.4-4.1-8-4.1-8s-0.9,3.7-4.1,8c-3.2,4.4-6.2,5.6-6.2,5.6s3,1.2,6.2,5.6
						c3.2,4.4,4.1,8,4.1,8s0.9-3.7,4.1-8c3.2-4.4,6.2-5.6,6.2-5.6S556.1,224,552.8,219.7z"/>
					<path class="st1" d="M510.8,219.7c-3.2-4.4-4.1-8-4.1-8s-0.9,3.7-4.1,8c-3.2,4.4-6.2,5.6-6.2,5.6s3,1.2,6.2,5.6
						c3.2,4.4,4.1,8,4.1,8s0.9-3.7,4.1-8c3.2-4.4,6.2-5.6,6.2-5.6S514,224,510.8,219.7z"/>
				</g>
			</g>
		</g>
		<g>
			<g>
				<g>
					<g>
						<g>
							<g>
								<path class="st2" d="M486.7,117.5h7.8v1.8h-6l-0.2,3c0,0,2.8-1.6,5.5,0.7c0.5,0.4,2.9,2.9,1.4,7.8c-0.3,1-2,3.6-5.6,3.1
									c-0.2,0-2.9-0.7-3.9-3.7l1.7-0.4c0,0,1.3,2.7,3.1,2.5c0.9-0.1,3.3-0.7,3.2-4.6c0-0.3,0-3.7-2.9-4.2c-1-0.2-2.2,0-3.9,1.7
									l-0.8-0.5L486.7,117.5z"/>
							</g>
						</g>
						<g>
							<g>
								<path class="st2" d="M568.8,247.8h-7.9V246h6l0.2-3c0,0-2.8,1.6-5.5-0.7c-0.5-0.4-2.9-2.9-1.4-7.8c0.3-1,2-3.6,5.6-3.1
									c0.2,0,2.9,0.7,3.9,3.7l-1.7,0.4c0,0-1.3-2.7-3.1-2.5c-0.9,0.1-3.3,0.7-3.2,4.6c0,0.3,0,3.7,2.9,4.2c1,0.2,2.2,0,3.9-1.7
									l0.8,0.5L568.8,247.8z"/>
							</g>
						</g>
					</g>
				</g>
			</g>
		</g>
		<g>
			<g>
				<path class="st2" d="M490.8,137.7c0,0,1.4,4.5,4.7,6.3c0,0-3.2,1.7-4.7,6.2c-1.5-4.6-4.7-6.2-4.7-6.2
					C489.4,142.2,490.8,137.7,490.8,137.7z"/>
			</g>
			<g>
				<path class="st2" d="M564.7,227.6c0,0-1.4-4.5-4.7-6.3c0,0,3.2-1.7,4.7-6.2c1.5,4.6,4.7,6.2,4.7,6.2
					C566.1,223.1,564.7,227.6,564.7,227.6z"/>
			</g>
		</g>
	</g>
	<g id="XMLID_14_">
		<path id="XMLID_333_" class="st3" d="M58.7,110.6c-3.5-0.1-6-0.6-9.8-2.4c-6.6,1.5-9,1.8-13.2,1.6c0,0-4.9-8.3-8.4-10.8
			c-3.5-2.4,7.8-0.9,7.8-0.9l27.7,1.1C62.8,99.2,58.4,111.1,58.7,110.6z"/>
		<polygon id="XMLID_332_" class="st3" points="24.5,57.1 26.1,54.2 27.5,54.2 25.5,57.9 		"/>
		<polygon id="XMLID_331_" class="st3" points="19.9,69.3 20.6,68.9 20.7,68.2 21,67 20.9,66.3 19.9,66.1 19.4,67.1 19.4,68.3 
			19.3,69.1 		"/>
		<path class="st4" d="M19.5,65.9c0,0-0.5,2.4-0.4,2.9c0.1,0.5,0.4,0.8,1,0.6c0.7-0.3,1.1-2.2,1.1-2.4C21.5,66.3,20.3,66,19.5,65.9
			L19.5,65.9z M20,66.2c0.1-0.2,0.9,0.4,0.9,0.4c0.1,0.5-0.2,1.3-0.4,1.3c-0.5,0.1-0.3-0.2-0.4-0.1c-0.3,0.3-0.5,0-0.5,0
			C19.8,67.5,19.8,66.4,20,66.2L20,66.2z M19.6,68.5c0.3-0.2,0.4-0.1,0.6,0c-0.1,0.3-0.2,0.7-0.4,0.6C19.5,68.8,19.6,68.7,19.6,68.5
			z"/>
		<path class="st4" d="M22.2,68l0.2-0.3l-0.5-0.9l0.5-0.9c-0.1-0.4-0.3-0.7,0-0.7c0.2,0,0.4-0.2,0.3-0.5c-0.1-0.7,1.2-0.5,1-1.5
			c-0.1-1.1,0.9-1.6,0.9-1.6s1.3-0.1,0.8,1.1c-0.4,1.1-0.3,1.5-0.3,1.5l0.5,0.1c0,0,0-1.4,0.3-2.2c0.2-0.5-1.2-1.2-1.8-1.9
			c-0.7-0.8-1.4-3.1-0.1-2.6c1.3,0.4,1.6,1.2,1.6,1.2s3.6,2.8,3.6,3.9c0,0.4,0.7,0.9,0.4-0.1c-0.2-0.8-1.3-2.5-2.3-3.2
			c-1.3-0.9-2.8-2.3-3.5-2.3c-0.7,0-1,0.1-1.6,0.6c-0.5,0.4-0.9,0.2-1.2,0.7c-0.3,0.5-0.1,0.7-0.8,1.2c-0.7,0.5-0.8,1-0.7,1.7
			c0.1,0.7-0.5,0.3-0.5,1.1c-0.1,0.8,0.5,0.8,0.3,1.3c-0.3,0.4-0.7,1.1-0.1,1.8c0.6,0.7,0.3,0.7,0.3,0.7l1.8,1.1L22.2,68L22.2,68z
			 M24,60.4c-1.4-0.3-1.6,0.5-1.6,0.5s-1-0.8-1.1-1.6c-0.1-0.8,0.3-0.9,0.9-1.1c0.7-0.2,0.9-0.4,0.7,0.1C22.8,58.7,24,60.4,24,60.4
			L24,60.4z M22.8,62.1c-1.4,0-1.2,0.7-1.2,0.7c-0.4-0.3-0.9-0.7-1.2-1.1c-0.3-0.4-0.5-1.1-0.1-1.6c0.4-0.4,0.5-0.7,0.7-0.2
			C21.2,60.4,22.8,62.1,22.8,62.1L22.8,62.1z M21.3,63.2c0.3,0.6-0.4,0.9-0.4,0.9c-0.4-0.1-0.6-0.5-0.9-0.7c-0.3-0.3-0.5-0.6-0.4-1
			c0.1-0.4,0.3-0.8,0.5-0.5C20.4,62.2,21.3,63.2,21.3,63.2L21.3,63.2z M21.1,64.9c0.2,0.4-0.6,0.9-0.6,0.9c-0.7-0.2-1-0.8-1.2-1.5
			c-0.1-0.4,0.4-0.8,0.6-0.5C20.3,64.2,21,64.5,21.1,64.9L21.1,64.9z M20,66.2l0.9,0.4C20.8,66.6,19.7,66.1,20,66.2L20,66.2z
			 M22.8,61.5c-0.5-0.8,0.7-0.8,1.1-0.6c0.4,0.3,0.1,0.8,0.1,0.8l-0.6,0.3L22.8,61.5L22.8,61.5z M23.2,62.4l0.2,0.5
			c0,0,0.1,0.6-0.1,0.7c-0.2,0.2-0.6,0.1-0.9,0.1c-0.3,0-0.7-0.8-0.4-1.1C22.4,62.3,22.8,62.2,23.2,62.4L23.2,62.4z M22.3,64.3
			c0.2,0.7-0.6,0.6-0.6,0.6l-0.4-0.4c0,0,0.1-0.1,0.2-0.6c0.1-0.5,0.5-0.1,0.5-0.1L22.3,64.3L22.3,64.3z M21.3,65.4h0.6l0.2,0.4
			l-0.2,0.4c0,0-0.2,0.2-0.5,0.2c-0.3,0-0.3-0.5-0.3-0.5L21.3,65.4L21.3,65.4z M23.9,58.1c0.2-0.2,0.9,1,0.9,1S24.3,59,24,58.6
			C23.7,58.2,23.9,58.1,23.9,58.1z"/>
		<path id="XMLID_316_" class="st4" d="M73,60.4c2.5,0.7,5.4,2.1,8.5,4.6l0.9-0.6v-7.9c-2.1-0.2-4.2-0.6-6.1-1.4l-2.2,3.6l-0.9,0
			L73,60.4z"/>
		<path id="XMLID_315_" class="st4" d="M26.5,91.2c-2.6-0.7-5.6-2.1-8.9-4.6l-1,0.6v7.9c2.2,0.2,4.3,0.6,6.3,1.4l2.3-3.8l1,0
			L26.5,91.2z"/>
		<path id="XMLID_314_" class="st3" d="M18.2,86.1c2.4,2.5,5.9,4.2,10.4,4.7c9,1,17.1-7.6,17.2-14.1c0.1-6.5-1.1-8.6-2.8-10.8
			l0.7-0.8c0.8,1.2,3,5.5,3,8.2c0.6,2.7-0.4,9.1-4.8,13.1c-4.3,4-11.9,9.6-24.2,0.3L18.2,86.1z"/>
		<path id="XMLID_313_" class="st5" d="M43.6,65.1c0.8,1.2,3,5.5,3,8.2c0.6,2.7-0.4,9.1-4.8,13.1c-4.3,4-11.9,9.6-24.2,0.3"/>
		<path id="XMLID_312_" class="st3" d="M71.9,52.4H37.3l5-10.5h5c2.6,1.9,4.4,2.1,8.4,0h8.1C66.1,45.6,68.3,48.7,71.9,52.4z"/>
		<path id="XMLID_311_" class="st1" d="M24.8,112.1c4.9,7.4,10.4,15.8,15.2,23.2h-4.1L22,113.7C22.6,113.3,23.7,113.2,24.8,112.1z"
			/>
		<path id="XMLID_310_" class="st1" d="M74.8,39.4c-4.9-7.4-10.1-15.7-15-23.2h3.8l13.9,21.6C76.8,38.3,75.8,38.4,74.8,39.4z"/>
		<path id="XMLID_309_" class="st4" d="M24.3,48.7l-0.7-1.9l2,1c0.7-1.6,3.4-1.3,3.8,0.1l2.2-0.8l-1.1,2.1c1.3,1,1,3.2-0.5,3.5
			l0.5,1.8l-1.4-0.7c-1.2,1.5-2.5,1.4-3.8-0.1l-1.8,0.8l0.9-1.7C23.3,52.2,22.5,49.8,24.3,48.7z"/>
		<path id="XMLID_308_" class="st4" d="M24.3,48.7l1.2-0.9c0.7-1.6,3.4-1.3,3.8,0.1l1.2,1.2c1.3,1,1,3.2-0.5,3.5l-0.9,1.2
			c-1.2,1.5-2.5,1.4-3.8-0.1l-0.9-1C23.3,52.2,22.5,49.8,24.3,48.7z"/>
		<path id="XMLID_307_" class="st3" d="M48.1,73l-1.4,0c-0.1-0.9-0.4-1.3-0.4-2.2c0.1-5.8,1.9-12.8,6.1-18.4H55
			c-1.9,3.4-3.5,6.9-4.6,10.3C49.2,66.1,48.5,69.6,48.1,73z"/>
		<path id="XMLID_306_" class="st6" d="M44,28.8c0.3,5.5,1.2,10.2,3.2,12.8l0.7,0.9l-5.5-0.1L44,28.8z"/>
		<path id="XMLID_305_" class="st6" d="M82.6,49.9c-0.9-0.7-1.4-1.4-2-2.4C74,38.1,67,26.3,60.2,15.8h-2.5
			c6.5,13.5,9.9,17.6,14.7,26.9c4.8,9.2,6.1,10.7,10,11.7L82.6,49.9z"/>
		<path id="XMLID_304_" class="st7" d="M60.2,16.3h3.3l13.9,21.6c-0.6,0.4-1.5,0.4-2.5,1.4"/>
		<path id="XMLID_303_" class="st3" d="M82.3,38v-4c-2.6-1.3-4.7-10.8-3.7-17.7H63.5l13.7,21.6C75.8,37.8,82.3,36.7,82.3,38z"/>
		<path id="XMLID_302_" class="st8" d="M49.9,16.3c-0.3,1.4-1.1,3.4-2.3,5.1c-1,1.4-2.1,2.6-3.3,3.2L44,24.1c1.1-0.5,2.2-1.6,3.1-3
			c1.1-1.7,2-3.6,2.2-4.9L49.9,16.3z"/>
		<path class="st8" d="M72.9,52.7c2.1,0.9,3.4,1,4.6,1.2c0.2,0,0.4,0.1,0.6,0.1c-0.1-0.1-0.3-0.3-0.4-0.4c-1.9-2-4.9-2-7.4-3.3
			C71.1,51.1,72,52,72.9,52.7L72.9,52.7z M45.9,16.1c0,0.8-0.2,1.5-0.6,2.1c-0.3,0.6-0.8,1-1.2,1.4l-0.4-0.4
			c0.4-0.4,0.8-0.8,1.1-1.3c0.3-0.5,0.5-1.1,0.5-1.8L45.9,16.1L45.9,16.1z M47.3,16.1l-0.5,0c0,0.8-0.4,1.7-0.9,2.5
			c-0.6,1-1.4,1.8-2,2.1l0.3,0.5c0.6-0.4,1.5-1.2,2.2-2.3C46.9,18,47.3,17.1,47.3,16.1L47.3,16.1z M48.5,16.1l-0.5,0
			c-0.2,1.3-0.8,2.7-1.6,3.9c-0.7,1.1-1.5,1.9-2.4,2.4l0.2,0.5c1-0.5,1.9-1.5,2.6-2.6C47.7,19,48.3,17.4,48.5,16.1L48.5,16.1z
			 M49.9,16.1c0.1,1.4,0.9,3.4,2.6,5c1.2,1.2,2.8,2.2,4.9,2.7c-0.1-0.3-0.1-0.6-0.2-0.9c-1.6-0.4-3.1-1.3-4.3-2.4
			c-1.2-1.2-2.1-2.7-2.4-4.4l0.5-0.1c0.2,1.5,1.1,3,2.2,4.1c1.1,1,2.4,1.8,3.8,2.2c-0.1-0.3-0.1-0.6-0.2-0.8
			c-1.5-0.5-2.6-1.3-3.4-2.1c-1-1-1.6-2.2-1.6-3.3l0.5,0c0.1,1,0.6,2,1.5,3c0.7,0.7,1.7,1.4,3,1.9c-0.1-0.4-0.1-0.8-0.2-1.1
			c-0.9-0.3-1.7-0.8-2.3-1.5c-0.6-0.6-0.9-1.4-1-2.2l0.5,0c0,0.7,0.3,1.3,0.8,1.9c0.5,0.5,1.1,1,1.8,1.2c0-0.2-0.1-0.5-0.1-0.7
			c-0.4-0.1-0.8-0.4-1.1-0.8c-0.3-0.4-0.5-0.9-0.5-1.6l0.5,0c0,0.5,0.2,0.9,0.4,1.3c0.2,0.2,0.4,0.4,0.6,0.6
			c-0.1-0.7-0.1-1.3-0.2-1.8l0.5,0c0,0.8,0.1,1.7,0.3,2.7l1.8,1.5l-2-4.3l0.5,0c4.8,9.9,9.4,19.8,15.2,29.1c2.7,4.3,4.2,6.7,5.5,8
			c1.3,1.3,2.4,1.7,4.3,2.2l-0.1,0.5c-1.8-0.4-3.1-1.3-4.8-1.5c-0.8-0.1-1.8-0.2-3-0.6c0.3,0.2,0.6,0.4,0.9,0.5
			c2.2,1.2,4.5,1.8,7,1.7l0,0.5c-2.6,0-4.9-0.5-7.2-1.8c-0.8-0.5-1.6-1-2.4-1.6c-0.1,0-0.2-0.1-0.3-0.1l0-0.1
			c-1.4-1.1-2.8-2.6-4.3-4.4c-5.7-6.9-8.6-15.6-10.6-24.2c-2.3-0.5-4.1-1.6-5.4-2.9c-1.7-1.7-2.6-3.8-2.7-5.4L49.9,16.1L49.9,16.1z
			 M57.8,23.7l4.4,3.7c-1.1-2.3-2.8-3.4-4.7-5.1C57.6,22.7,57.7,23.2,57.8,23.7L57.8,23.7z M57.4,21.4l3.5,3.1
			c-1.2-2.4-1.7-3.3-3.8-5C57.1,20.2,57.2,20.8,57.4,21.4L57.4,21.4z M76.2,51.8c-2.3-0.5-6-1.5-7.7-3.5c-0.4-0.5-0.9-1.1-1.3-1.7
			c1.4,0.9,2.6,1.7,3.7,2.3C73,50,74.8,49.9,76.2,51.8L76.2,51.8z M71.2,48.4c1.2,0.6,2.4,1.1,3.7,1.5c-1.4-2.1-3.9-2.6-6-4
			c-1.3-0.9-2.6-1.8-3.9-2.9C66.5,45.8,68.4,46.9,71.2,48.4L71.2,48.4z M69.1,45.5c1.5,1,3,1.8,4.5,2.5c-1.7-2.6-3.6-3-6.2-4.7
			c-1.3-0.9-2.6-1.8-3.8-2.9C64.7,42.7,67,44.1,69.1,45.5L69.1,45.5z M67.7,42.9c1.4,0.9,2.7,1.7,4.2,2.4c-0.4-0.6-0.8-1.2-1.1-1.8
			c-1.6-0.6-3.3-1.6-4.9-2.8c-1.3-1-2.5-2.1-3.6-3.1C63.3,40,65.4,41.3,67.7,42.9L67.7,42.9z M61.8,36.2c1.3,1.3,2.9,2.7,4.5,3.9
			c1.4,1,2.8,1.9,4.1,2.5c-0.4-0.7-0.9-1.5-1.3-2.2c-3.1-1-5.7-3.3-7.9-5.7C61.4,35.3,61.6,35.8,61.8,36.2L61.8,36.2z M60.7,33.4
			c2.1,2.6,4.8,5.1,8,6.4c-0.3-0.6-0.7-1.2-1-1.8c-1.2-0.6-2.8-1.7-4.4-3.1c-1.2-1-2.3-2.1-3.2-3.2C60.3,32.3,60.5,32.9,60.7,33.4
			L60.7,33.4z M67.2,37.1c-0.4-0.7-0.7-1.4-1.1-2.1c-2.5-1.4-4.9-3.6-6.8-5.8C60.3,32.4,64.4,35.4,67.2,37.1L67.2,37.1z M58.9,27.9
			c1.8,2.4,4.2,4.7,6.7,6.2c-0.4-0.7-0.8-1.5-1.2-2.3c-2.2-1.4-4.1-3.2-5.8-5.1C58.7,27.2,58.8,27.5,58.9,27.9L58.9,27.9z
			 M58.4,25.8L58.4,25.8c1.7,1.8,3.6,3.6,5.6,5.1c-1.5-2.9-3.4-4.3-5.9-6.4C58.1,24.9,58.2,25.4,58.4,25.8z"/>
		<polygon id="XMLID_285_" class="st6" points="63.9,16.3 65.6,16.3 64.9,17.2 		"/>
		<path id="XMLID_284_" class="st6" d="M66.9,16.3h1c-0.2,0.6,1.1,1.5,0.1,1.6C67.1,18.1,67.2,17,66.9,16.3z"/>
		<path id="XMLID_283_" class="st9" d="M66.2,16.6c0,0-0.3,3.1,4.2,5.2c0.1,0.4-1.3,5.2,4.7,7c-0.3,2.2,0.6,4.9,2.8,5.6
			c-0.2,1.9,0.3,2.6,1,3"/>
		
			<rect id="XMLID_282_" x="68.4" y="22.4" transform="matrix(-0.6848 -0.7287 0.7287 -0.6848 99.2691 88.4119)" class="st6" width="0.8" height="0.8"/>
		
			<rect id="XMLID_281_" x="73.2" y="29.4" transform="matrix(-0.6842 -0.7293 0.7293 -0.6842 102.1743 103.7097)" class="st6" width="0.8" height="0.8"/>
		
			<rect id="XMLID_280_" x="76.5" y="35.1" transform="matrix(-0.5358 -0.8444 0.8444 -0.5358 88.1144 119.3321)" class="st6" width="0.8" height="0.8"/>
		<circle id="XMLID_279_" class="st6" cx="73.9" cy="23.1" r="0.5"/>
		<circle id="XMLID_278_" class="st6" cx="78.2" cy="30.1" r="0.5"/>
		<circle id="XMLID_277_" class="st6" cx="70.5" cy="18.1" r="0.5"/>
		<circle id="XMLID_276_" class="st6" cx="74.8" cy="25.1" r="0.5"/>
		<circle id="XMLID_275_" class="st6" cx="79.1" cy="31.9" r="0.5"/>
		<path id="XMLID_274_" class="st6" d="M72.4,19.6l0.3-1.5c0.2-0.5-1.3-0.7-1,0.3C72,19.3,72.5,19.4,72.4,19.6z"/>
		<path id="XMLID_273_" class="st6" d="M76.7,26.5l0.3-1.5c0.2-0.5-1.3-0.7-1,0.3C76.2,26.3,76.8,26.4,76.7,26.5z"/>
		<path id="XMLID_272_" class="st6" d="M73.1,21l0.9,1.2c0.2,0.5,1.4-0.5,0.5-0.9C73.6,20.8,73.1,21.1,73.1,21z"/>
		<path id="XMLID_271_" class="st6" d="M77.4,28l0.9,1.2c0.2,0.5,1.4-0.5,0.5-0.9C77.9,27.8,77.4,28.1,77.4,28z"/>
		<path id="XMLID_270_" class="st6" d="M72.7,20.2l1.8-0.4c0.6,0,0.4-1.8-0.6-1C72.8,19.6,72.9,20.3,72.7,20.2z"/>
		<path id="XMLID_269_" class="st6" d="M77,27.2l1.8-0.4c0.6,0,0.4-1.8-0.6-1C77.1,26.6,77.2,27.3,77,27.2z"/>
		<path id="XMLID_268_" class="st6" d="M71.6,19.6l1.3,2.1c0,0-1.1,0.6-1.1,1.3c0,0.7,0.1,0.7,0.4,0.7c0.3-0.1,0.8,0.8,0.3,1
			c-0.5,0.1-1.3-0.7-1.1-1.8c0.2-1.1,0.8-2.1,0.8-2.1s-1,0.1-1.9-0.1c-0.8-0.1-1.5-0.5-1.6-0.9c-0.3-0.9,0.3-1.1,0.7-1
			c0.4,0.1-0.4,1.2,0.5,1.2C70.6,20,70.9,20,71.6,19.6z"/>
		<path id="XMLID_267_" class="st6" d="M75.9,26.5l1.3,2.1c0,0-1.1,0.6-1.1,1.3c0,0.7,0.1,0.7,0.4,0.7c0.3-0.1,0.8,0.8,0.3,1
			c-0.5,0.1-1.3-0.7-1.1-1.8c0.1-1.1,0.8-2.1,0.8-2.1s-1,0.1-1.9-0.1c-0.8-0.1-1.5-0.5-1.6-0.9c-0.3-0.9,0.3-1.1,0.7-1
			c0.4,0.1-0.4,1.2,0.5,1.2C74.9,27,75.2,27,75.9,26.5z"/>
		<path id="XMLID_266_" class="st6" d="M80.1,33.3l0.6,1c-0.8,1.1-1.1,1.6-1.4,2.2c-0.3-0.7,0.2-1.6,0.6-2.3c0,0-0.2,0.3-1.1,0.1
			c-0.8-0.1-1.5-0.5-1.6-0.9c-0.3-0.9,0.3-1.1,0.7-1c0.4,0.1-0.4,1.2,0.5,1.2C79.2,33.8,79.4,33.7,80.1,33.3z"/>
		<path class="st4" d="M44.4,27.2c2-0.8,3.9,0.7,3.9,0.7c-1.7-0.5-3-0.3-3.9,0C44.4,27.7,44.4,27.5,44.4,27.2L44.4,27.2z M44.5,30.1
			c1.1,0.8,3.1-0.2,3.2-0.1c0.1,0.1-0.6,1.1-1.3,1.6c-0.2,0.3,1.2-0.6,1.2-0.6l-0.6,1.4c0,0-0.4,1.3,0.1,1.6c0.5,0.2,1.3,0.5,1.7,1
			l-0.1-0.8c0,0-0.1-0.1-0.9-0.4c-0.7-0.3-0.3-1.6-0.3-1.6s0.4-1.5,1.1-3.5c0.7-2-0.2-3.1-1.1-3.7c-0.7-0.4-2.5-0.2-3.3-0.1
			c0-2.3,0-4.7,0-7.1l0-1.5h-0.5l0,1.5c0,9.5,0,19.6,3.2,23.9c0.1,0.2,0.3,0.4,0.5,0.5c1.4,1.4,3.3,1.6,5.4,1.1
			c0.6-0.2,1.3-0.4,1.9-0.7h9.6l-0.6-1.3h-6.6c0.6-0.4,1.2-0.8,1.7-1.2c1.2-0.9,2.3-1.9,3.3-2.9l-0.4-0.4c-1,1-2.1,1.9-3.2,2.8
			c-1.9,1.4-3.9,2.6-5.8,3.2c-1.9,0.5-3.6,0.3-4.8-0.9c-0.1-0.1-0.3-0.3-0.4-0.5C45.6,39.1,44.9,34.9,44.5,30.1L44.5,30.1z
			 M44.3,25.8c0,0.3,0,0.7,0,1c1.9-0.8,4.1,0.3,4.1,0.6c0,0.4,0.6-1.3-1-1.9C46.5,25.1,45.1,25.5,44.3,25.8L44.3,25.8z M44.7,28.9
			l0.6-0.2c0,0,0.1,0.6,0.8,0.6c0.7,0,0.6-0.7,0.6-0.7s0.4-0.1,0.5,0.1c0.1,0.2,0.1,0.6-0.2,0.9C46.3,30.3,44.8,30.4,44.7,28.9
			L44.7,28.9z M52.5,28.5l0.6-0.2c0,0,0,0.7,0.9,0.8c0.9,0,0.9-0.8,0.9-0.8s0.4-0.1,0.5,0.1c0.1,0.2,0.1,0.7-0.4,1.1
			C54.4,29.9,52.6,29.8,52.5,28.5L52.5,28.5z M47.5,28.5c0.4-0.1,0.7,0.2,0.9,0.6l-0.9,0.4V28.5L47.5,28.5z M55.8,28.4
			c0.4-0.1,0.7,0.1,1,0.2l-1,0.6L55.8,28.4L55.8,28.4z M51.9,24.8c0.4-0.2,2.1-0.7,4.2-0.1c2,0.7,2.1,1.1,2.1,1.1s-1.3-0.5-2.8-0.8
			c-1.5-0.3-2.3,0.1-3.3,0.6C51,26,51.5,25,51.9,24.8L51.9,24.8z M53.9,31.7l-0.3,0.1c0,0-2.3-2-1.9-2.7c0.4-0.6,0-0.6,0-0.6
			l-0.2-0.7c0,0,1.1-1.9,3.1-1.6c1.9,0.3,2.6,1.2,3.4,1.7l0.5,0l0.2,0.7l-1.4,0c0,0-0.9,0.6-1.7,0.9c-0.8,0.3-1.9,0.7-3.1-0.1
			C52.3,29.9,52.3,30.3,53.9,31.7L53.9,31.7z M52.3,27.7c0,0,0.9-1.2,2.5-0.9c1.6,0.2,2.5,1,2.7,1.7C57.3,27.8,53.5,26.8,52.3,27.7
			L52.3,27.7z M48.8,33.3c0,0-0.2-0.6,0.8-0.4c0.2,0,0.7,0.8,1.4,0.8c0.6,0,1.2,0.3,1-0.7c-0.3-1.3,0.4-0.1,0.3,0.5
			c-0.1,0.6-0.7,0.7-1.5,0.6C49.9,34.1,49.1,33.7,48.8,33.3L48.8,33.3z M46.7,36.5c-0.2-0.7,0.3,0.1,0.8,0c0.5-0.2,0.6-0.4,1.2-0.2
			c0.6,0.2,1,0.2,1.7,0c0.6-0.2,1,0,1.4,0.1c0.4,0,0.6,0,1-0.4c0.4-0.4,0.4,0.8,0.4,0.8s0.5,1.2,0,0.8c-0.7-0.6-1.4-0.7-2.1-0.4
			c-0.7,0.3-0.9,0.8-2,0.3c-1.1-0.4-1.6,0.4-1.6,0.4L46.7,36.5L46.7,36.5z M48.5,38.1c0,0,0.7,0.3,1.4,0.2c0.7-0.1,1.2-0.2,1.2-0.2
			s-0.7,0.6-1.3,0.5C49.3,38.6,49.1,38.7,48.5,38.1L48.5,38.1z M48.4,39.5c0.8-0.6,1.1-0.6,2-0.5c0.9,0.1,1.3,0.8,1.3,0.8
			s-1.1-0.4-1.7-0.5C49.3,39.2,48.4,39.5,48.4,39.5z"/>
		<line id="XMLID_251_" class="st10" x1="41.7" y1="44.4" x2="65.3" y2="44.4"/>
		<polygon id="XMLID_250_" class="st6" points="44.4,46.2 46.7,46.2 45.4,48.1 43.1,48.1 		"/>
		<polygon id="XMLID_249_" class="st6" points="60.3,51.1 58,51.1 59.3,49.1 61.6,49.1 		"/>
		<polygon id="XMLID_248_" class="st6" points="67.2,51.1 64.9,51.1 66.3,49.1 68.6,49.1 		"/>
		<polygon id="XMLID_247_" class="st6" points="50.9,46.2 53.2,46.2 51.9,48.1 49.6,48.1 		"/>
		<polygon id="XMLID_246_" class="st6" points="53.7,51.1 51.5,51.1 52.8,49.1 55.1,49.1 		"/>
		<polygon id="XMLID_245_" class="st6" points="57.8,46.2 60.1,46.2 58.7,48.1 56.4,48.1 		"/>
		<polygon id="XMLID_244_" class="st6" points="47.1,51.1 44.8,51.1 46.1,49.1 48.4,49.1 		"/>
		<polygon id="XMLID_243_" class="st6" points="64.6,46.2 66.9,46.2 65.5,48.1 63.2,48.1 		"/>
		<polygon id="XMLID_242_" class="st6" points="41.1,51.1 38.8,51.1 40.1,49.1 42.4,49.1 		"/>
		<line id="XMLID_241_" class="st11" x1="40.8" y1="46.2" x2="66.7" y2="46.2"/>
		<line id="XMLID_240_" class="st11" x1="70.5" y1="51" x2="38.2" y2="51"/>
		<path id="XMLID_239_" class="st3" d="M39.5,64.7L39.5,64.7c2.4-1,4-3.4,4-6.2c0-6.2-7.4-6.3-4.2-6.3h4.1c1.7,1.2,2.9,4.2,2.7,7
			c-0.2,2.7-2,6-4.6,7.8L39.5,64.7z"/>
		<path id="XMLID_238_" class="st12" d="M41.7,52.2c1.7,1.2,2.9,4.2,2.7,7c-0.2,2.7-1.9,5.6-3.8,6.6"/>
		<path id="XMLID_237_" class="st4" d="M36,53l0.5,1.4l-1.9,4.1l4.1,5c1.6-0.9,2.7-2.8,2.7-5c0-3.1-2.1-5.6-4.6-5.6
			C36.4,52.9,36.2,53,36,53z"/>
		<path id="XMLID_236_" class="st6" d="M39.5,64.7l-0.9-1.2c1.6-0.9,2.7-2.8,2.7-5c0-3.1-2.1-5.6-4.6-5.6c-2,0,0.5-0.4,2.3-0.9
			c2.7,0.9,4.6,3.4,4.6,6.5C43.6,61.3,41.9,63.7,39.5,64.7z"/>
		<line id="XMLID_235_" class="st11" x1="71.9" y1="52.4" x2="37.7" y2="52.4"/>
		<path id="XMLID_234_" class="st1" d="M51.3,73h0.9c1.7-6.5,6-12.4,13-13.6c7-1.2,9.4-0.6,9.4-0.6l2.1-3.5c-1.8,0-4.8-2.9-4.8-2.9
			h-8.7c-1.7-0.1-5,3.5-7.6,8C53.2,64.6,51.2,69.9,51.3,73z"/>
		<path id="XMLID_233_" class="st10" d="M52.2,73c1.7-6.5,6-12.4,13-13.6c7-1.2,9.4-0.6,9.4-0.6l2.1-3.5"/>
		<path id="XMLID_232_" class="st6" d="M51.3,73H48c0.4-7.5,2.3-14,7-20.7h8.3c-1.7-0.1-5,3.5-7.6,8C53.2,64.6,51.2,69.9,51.3,73z"
			/>
		<path id="XMLID_231_" class="st6" d="M46.6,71c-0.2-1.6-1.4-4.2-2.7-6.5c2.9-5.1,2.6-8.3-0.2-12.2h8.8c-1.6,2.8-2,4.1-3.6,8.5
			C47.1,65.3,46.8,68.9,46.6,71z"/>
		<path id="XMLID_230_" class="st11" d="M46.6,71c-0.2-1.6-1.4-4.2-2.7-6.5"/>
		<path id="XMLID_229_" class="st13" d="M56.6,63.6l2.6-2.2c0,0,0.2-1.6-0.7-1.8c-0.9-0.2-2,0.4-1.3,1.9
			C56.8,61.6,54.9,62.2,56.6,63.6z"/>
		<path id="XMLID_228_" class="st13" d="M63.1,56.7c0,0,0.3,1.6,1.3,1.3c1-0.2,0.7-1,0.6-2c0.9-0.8,0-3.2-1.9-1.6
			C60.8,54.1,60,56.8,63.1,56.7z"/>
		<path id="XMLID_227_" class="st13" d="M70,57.5c0,0,0.4,0.8,1.3,0.6c0.9-0.2,0.6-0.8,0.5-1.8c0.9-0.8-0.4-3-2-1.3
			C67.5,54.5,66.9,57.6,70,57.5z"/>
		<path id="XMLID_226_" class="st3" d="M57.8,56.8h-3.5l-0.5,1.1H57c-0.6,0.8-1.1,1.6-1.6,2.4h-2.7l-0.5,0.7H55
			c-0.6,1-1.1,1.9-1.5,2.7h-2.2l-0.3,0.7h2.1c-0.5,1-0.8,1.9-1.1,2.7h-1.7l-0.3,0.5h1.8c-0.3,0.9-0.5,1.8-0.6,2.5h-1.7l-0.1,0.5h1.8
			c-0.1,0.7-0.2,1.4-0.3,2h-1.5L49.2,73h-0.6c0-0.4,0.1-0.8,0.1-1.1h1.3l0.3-0.5h-1.5c0.1-0.7,0.2-1.4,0.3-2.2h1.4l0.3-0.8h-1.5
			c0.1-0.9,0.3-1.7,0.5-2.6h1.5l0.4-0.7h-1.8c0.2-0.8,0.4-1.7,0.6-2.5h2.4l0.5-0.9h-2.5c0.1-0.3,0.2-0.6,0.3-0.9
			c0.2-0.5,0.4-1,0.6-1.4h2.7l0.5-0.7h-2.8c0.5-1.1,1.1-2.1,1.6-3h3.2l0.5-0.6h-3.3c0.6-0.9,1.1-1.8,1.6-2.8h1.9l-1.2,1.7h3.4
			C59,55,58.4,55.9,57.8,56.8z"/>
		<path class="st3" d="M45.3,67.5c0.4,0.9,0.7,1.8,1,2.5c0-0.3,0-0.6,0-0.8c0-0.5,0-1.1,0.1-1.6H45.3L45.3,67.5z M44.5,65.8
			c0.2,0.4,0.4,0.8,0.6,1.1h1.4c0.1-0.8,0.3-1.7,0.5-2.7h-2.1l0.1-0.7h2.2c0.2-0.8,0.5-1.7,0.9-2.7h-2.4c-0.1,0.3-0.2,0.6-0.3,0.8h1
			l-0.3,0.9h-1.1c-0.3,0.7-0.7,1.4-1.2,2c0.1,0.2,0.2,0.3,0.3,0.5h1.4l-0.2,0.7H44.5L44.5,65.8z M46.1,59.4c0,0.3-0.1,0.5-0.1,0.8
			h2.5c0.3-0.8,0.7-1.5,1.1-2.4h-3.2l0.2-1.1h2.9c0.4-0.8,0.9-1.7,1.4-2.7H48l0.8-1.7h-1.9c-0.3,1-0.7,1.9-1.1,2.8h3.3l-0.4,0.6h-3
			c0.3,0.9,0.4,2,0.4,3h1.3l-0.3,0.7H46.1z"/>
		<path id="XMLID_222_" class="st11" d="M43.5,52.1c1.7,1.2,2.9,4.2,2.7,7c-0.2,2.7-2,6-4.6,7.8"/>
		<path id="XMLID_221_" class="st10" d="M43.6,65.1c0.8,1.2,3,5.5,3,8.2c0.6,2.7-0.4,9.1-4.8,13.1c-4.3,4-11.9,9.6-24.2,0.3"/>
		<path id="XMLID_220_" class="st6" d="M39.3,68.9l3.7-3c1.7,2.2,2.9,4.3,2.8,10.8c-0.1,6.5-8.1,15-17.2,14.1
			c-4.4-0.5-7.9-2.1-10.4-4.7l4-3.2c1.5,1.5,3.4,2.7,7.7,3c4.4,0.3,10.7-4.3,11-10.7C41,72.7,39.9,70.3,39.3,68.9z"/>
		<path id="XMLID_219_" class="st3" d="M23.5,81.7l-1.3,1.1c1.5,1.5,3.4,2.7,7.7,3c4.4,0.3,10.7-4.3,11-10.7c0.1-2.4-1-4.8-1.6-6.2
			l-1.6,1.3c0.5,1.3,1.1,3.1,1.1,4.7c-0.3,6-5.2,9.2-9.2,9C26.8,83.7,24.9,82.8,23.5,81.7z"/>
		<path id="XMLID_218_" class="st4" d="M34.6,72.7l3.1-2.5c0.5,1.3,1.1,3.1,1.1,4.7c-0.3,6-5.2,9.2-9.2,9c-2.7-0.2-4.6-1.1-6-2.2
			l3.1-2.5c0.7,0.6,1.8,1.2,3.3,1.3c2.1,0.1,4.8-1.8,5.1-3.9C35.3,74.5,34.9,73.4,34.6,72.7z"/>
		<path id="XMLID_217_" class="st1" d="M34.5,72.6c0.3,0.7,0.8,1.8,0.5,4c-0.3,2.2-3,4.1-5.1,3.9c-1.6-0.1-2.7-0.7-3.4-1.4
			L34.5,72.6z"/>
		<polygon id="XMLID_216_" class="st3" points="16.7,85.4 39.4,66.7 40.5,67.9 16.7,87.3 		"/>
		<polygon id="XMLID_215_" class="st4" points="35.2,61.4 16.7,76.5 16.7,83.4 38.7,65.5 		"/>
		<polygon id="XMLID_214_" class="st14" points="34.6,60.6 17,74.7 17,72.3 33.5,59.3 		"/>
		<path class="st13" d="M32,67c0.5,0,0.9,0.4,0.9,0.9s-0.4,0.9-0.9,0.9c-0.5,0-0.9-0.4-0.9-0.9S31.5,67,32,67L32,67z M20.5,76.3
			c-0.3-0.3-0.8-0.4-1.2-0.4c-1.1,0-2.1,0.9-2.1,2.1c0,1.1,0.9,2.1,2.1,2.1c1.1,0,2.1-0.9,2.1-2.1c0-0.3-0.1-0.5-0.1-0.8l0.3-0.2
			l0.1,0.1c0.4,0.4,1,0.6,1.5,0.2l0,0c0.5-0.3,0.6-1,0.2-1.5l-0.2-0.2l1.5-1.2c0.3,0.3,0.8,0.4,1.3,0.4c1.1,0,2-0.9,2-2
			c0-0.3-0.1-0.7-0.2-0.9l0.2-0.2l0.4,0.4c0.4,0.4,1,0.6,1.5,0.2l0,0c0.5-0.3,0.6-1,0.2-1.5l-0.5-0.5l1.3-1.1
			c0.3,0.3,0.8,0.4,1.2,0.4c1.1,0,2-0.9,2-2c0-0.3-0.1-0.7-0.2-1l0.3-0.3l0.3,0.4c0.4,0.4,0.9,0.7,1.4,0.4l0,0
			c0.5-0.3,0.7-1,0.4-1.4l-0.5-0.6l1.6-1.3l-0.7-0.9L35,64.4L34.7,64c-0.4-0.4-0.9-0.7-1.4-0.4c-0.5,0.3-0.7,1-0.4,1.4l0.5,0.6
			L33,66c-0.3-0.2-0.6-0.3-1-0.3c-1.1,0-2,0.9-2,2c0,0.2,0,0.5,0.1,0.7l-1.4,1.2l-0.4-0.4c-0.4-0.4-1-0.6-1.5-0.2
			c-0.5,0.3-0.6,1-0.2,1.5L27,71l-0.2,0.2c-0.3-0.2-0.6-0.3-1-0.3c-1.1,0-2,0.9-2,2c0,0.2,0,0.4,0.1,0.6l-1.5,1.3L22,74.3
			c-0.4-0.4-1-0.6-1.5-0.2c-0.5,0.3-0.6,1-0.2,1.5l0.4,0.5L20.5,76.3L20.5,76.3z M20.5,74.1L20.5,74.1L20.5,74.1z M26.8,69L26.8,69
			L26.8,69z M33.2,63.6L33.2,63.6L33.2,63.6z M25.8,72c0.5,0,0.9,0.4,0.9,0.9c0,0.5-0.4,0.9-0.9,0.9c-0.5,0-0.9-0.4-0.9-0.9
			C25,72.4,25.3,72,25.8,72L25.8,72z M19.2,77.1c0.5,0,0.9,0.4,0.9,0.9c0,0.5-0.4,0.9-0.9,0.9c-0.5,0-0.9-0.4-0.9-0.9
			C18.4,77.5,18.8,77.1,19.2,77.1z"/>
		<path id="XMLID_206_" class="st3" d="M25,52.3c0.7,0,1.2-0.7,1.2-1.6c0-0.9-0.6-1.6-1.2-1.6c-0.7,0-1.2,0.7-1.2,1.6
			C23.8,51.5,24.4,52.3,25,52.3z"/>
		<path id="XMLID_205_" class="st3" d="M28.7,48.5c0,0.8-0.6,1.5-1.3,1.5c-0.7,0-1.4-0.6-1.4-1.4c0-0.8,0.6-1.5,1.3-1.5
			C28.1,47,28.7,47.7,28.7,48.5z"/>
		<path id="XMLID_204_" class="st3" d="M30.1,52.2c-0.7,0.3-1.5-0.1-1.9-0.8c-0.4-0.7-0.1-1.6,0.6-1.9c0.7-0.3,1.5,0.1,1.9,0.8
			C31.1,51.1,30.8,51.9,30.1,52.2z"/>
		<path id="XMLID_203_" class="st3" d="M25.9,53.7c-0.3-0.7-0.1-1.4,0.7-1.8c0.8-0.4,1.7-0.1,2,0.6c0.3,0.7,0.1,1.4-0.7,1.8
			C27.2,54.6,26.3,54.4,25.9,53.7z"/>
		<polygon id="XMLID_202_" class="st3" points="27.2,49.4 28.3,50.7 27.2,51.6 25.9,50.5 		"/>
		<rect id="XMLID_201_" x="25.6" y="50.4" class="st4" width="2.9" height="0.4"/>
		<rect id="XMLID_200_" x="27" y="49.2" class="st4" width="0.4" height="2.9"/>
		<path id="XMLID_199_" class="st3" d="M21.4,84.2L20,85.6l0.5,1.9l1.4,0.8l-0.2-1.7c1.4,0.7,1.4,1.7,1.9,2.4l1.6,0.6l-0.7-1.5
			l1.6,0.6l1.6,1.6l1.5,0l-1-1.4l0.9,0c0.8,0.4,1.3,1,2.2,1.3l1.6-0.2l-1.3-1.1l1.3-0.2l1.8,0.9c0.5-0.2,1-0.4,1.4-0.7
			c-0.4-0.3-0.9-0.6-1.3-0.8l1.5-0.6l2,0.3c0.5-0.3,0.9-0.6,1.3-1.1l-1.3-0.4l1.3-1.1l1.7-0.1l1-1.2L41,83.7
			c0.9-1.8,1.3-1.6,2.8-2.2l0.6-1.5l-1.6,0.4l0.4-1.3c0.6-0.3,1.2-0.6,1.7-1c0.2-0.5,0.2-1,0.2-1.5l-1.4,0.7l0-1.3l1.4-2.4L45,71.7
			l-1.4,1.8l-0.3-1.7l1.2-2l-0.6-1.4L42.7,70c-0.3-0.8-0.5-1.6-0.9-2.4l-1,0.8l0.6,1.9l-1.2-0.5c0.2,0.6,0.3,1.2,0.7,1.6
			c0.3,0.2,0.6,0.6,1.2,1l0.1,1.2l-1.1-0.7v1.5l1.3,1.2v1.3l-0.1,0l-1.3-1.2c-0.1,0.5-0.1,1-0.1,1.5l1,1.6l-0.3,1l-1.1-1.6
			c-0.2,0.5-0.3,1-0.6,1.5l0.6,1.7L40,82.5l-0.4-1.7l-1,1.2l0.1,2.1l-0.9,0.7l0.1-1.8l-1.3,0.9l-0.3,1.9l-1.4,0.7l0.5-1.6L34,85.5
			c0,0-0.8,2-2.2,2l0.7-1.4c0.1-0.2-1-0.2-1.4,0L30,87.6h-1.3l1.2-1.3h-1.7l-1.6,1.1l-1.3-0.4l1.8-0.8l-2.2-0.8L23,85.9l-1-0.6
			l2.1-0.4C24,84.9,23.1,83.8,21.4,84.2z"/>
		<line id="XMLID_198_" class="st15" x1="27.1" y1="54.6" x2="25.6" y2="57.7"/>
		<path id="XMLID_197_" class="st3" d="M24.6,56.9c-0.8,0-0.7-1.5-2.1-2.4C21,53.6,19,52.3,19,52.3s-0.9,2.3,0.8,3.7
			c1.7,1.4,3.2,1.4,3.2,1.4L24.6,56.9z"/>
		<line id="XMLID_196_" class="st15" x1="25.9" y1="54" x2="24.7" y2="57.2"/>
		<path id="XMLID_195_" class="st16" d="M42.5,16.3c0,5.4-1,14.3-5.9,22.7c-3.5,6.1-1.8,13.3-0.2,15.3c3.6-6.9,6.1-11.2,6.1-11.6
			c0.5-8.8,2.2-13.8,1.5-26.4H42.5z"/>
		<path id="XMLID_194_" class="st4" d="M20.5,54.6c1.1,0.8,2.2,1.5,3.5,2l0.4,0.3l-0.3,0.3C24.1,57.2,20.1,55.2,20.5,54.6z"/>
		<path id="XMLID_193_" class="st3" d="M25.7,57.9c0,0,1.2-1.5,2.1-1.5c1-0.1,5.2,0,5.2,0s-0.5,1.3-1.6,1.8
			c-1.2,0.5-3.4,0.1-3.9,0.6c-0.6,0.5-0.6,0.4-0.6,0.4L25.7,57.9z"/>
		<path id="XMLID_192_" class="st4" d="M26.6,58.7c0,0,0.9-0.8,1.7-1c0.8-0.2,2.8-0.5,2.2-0.5c-0.6,0-3.6,0-4.2,1.2
			C26,58.9,26.6,58.7,26.6,58.7z"/>
		<path class="st4" d="M27.2,48.8l1.8,2l-1.8,1.4l-2-1.7L27.2,48.8L27.2,48.8z M27.2,49.4l-1.3,1.1l1.3,1.1l1.2-0.9L27.2,49.4z"/>
		<polygon id="XMLID_189_" class="st3" points="74.9,94.5 73.3,97.4 71.9,97.4 73.9,93.7 		"/>
		<polygon id="XMLID_188_" class="st3" points="79.5,82.3 78.8,82.7 78.7,83.4 78.4,84.6 78.5,85.3 79.6,85.5 80,84.5 80,83.3 
			80.1,82.5 		"/>
		<path class="st4" d="M79.9,85.7c0,0,0.5-2.4,0.4-2.9c-0.1-0.5-0.4-0.8-1-0.6c-0.7,0.3-1.1,2.2-1.1,2.4
			C77.9,85.3,79.1,85.6,79.9,85.7L79.9,85.7z M79.5,85.4c-0.1,0.2-0.9-0.4-0.9-0.4c-0.1-0.5,0.2-1.3,0.4-1.3
			c0.5-0.1,0.3,0.2,0.4,0.1c0.3-0.3,0.5,0,0.5,0C79.6,84.1,79.6,85.2,79.5,85.4L79.5,85.4z M79.8,83.1c-0.3,0.2-0.4,0.1-0.6,0
			c0.1-0.3,0.2-0.7,0.4-0.6C79.9,82.8,79.9,82.9,79.8,83.1z"/>
		<path class="st4" d="M77.2,83.6L77,83.9l0.5,0.9L77,85.7c0.1,0.4,0.3,0.7,0,0.7c-0.2,0-0.4,0.2-0.3,0.5c0.1,0.7-1.2,0.5-1,1.5
			c0.1,1.1-0.9,1.6-0.9,1.6s-1.3,0.1-0.8-1.1c0.4-1.1,0.3-1.5,0.3-1.5l-0.5-0.1c0,0,0,1.4-0.3,2.2c-0.2,0.5,1.2,1.2,1.8,1.9
			c0.7,0.8,1.4,3.1,0.1,2.6c-1.3-0.4-1.6-1.2-1.6-1.2s-3.6-2.8-3.6-4c0-0.4-0.7-0.8-0.4,0.1c0.2,0.8,1.3,2.5,2.3,3.2
			c1.3,0.9,2.8,2.3,3.5,2.3c0.7,0,1-0.1,1.6-0.6c0.5-0.4,0.9-0.2,1.2-0.7c0.3-0.5,0.1-0.7,0.8-1.2c0.7-0.5,0.8-1,0.7-1.7
			c-0.1-0.7,0.5-0.3,0.5-1.1c0.1-0.8-0.5-0.8-0.3-1.3c0.3-0.4,0.7-1.1,0.1-1.8c-0.6-0.7-0.3-0.7-0.3-0.7l-1.8-1.1L77.2,83.6
			L77.2,83.6z M75.4,91.2c1.4,0.3,1.6-0.5,1.6-0.5s1,0.8,1.1,1.6c0.1,0.8-0.3,0.9-0.9,1.1c-0.7,0.2-0.9,0.4-0.7-0.1
			C76.6,92.9,75.4,91.2,75.4,91.2L75.4,91.2z M76.6,89.5c1.4,0,1.2-0.7,1.2-0.7c0.4,0.3,0.9,0.7,1.2,1.1c0.3,0.4,0.5,1.1,0.1,1.6
			c-0.4,0.4-0.5,0.7-0.7,0.2C78.2,91.2,76.6,89.5,76.6,89.5L76.6,89.5z M78.1,88.4c-0.3-0.6,0.4-0.9,0.4-0.9
			c0.4,0.1,0.6,0.5,0.9,0.7c0.3,0.3,0.5,0.6,0.4,1c-0.1,0.4-0.3,0.8-0.5,0.5C79,89.4,78.1,88.4,78.1,88.4L78.1,88.4z M78.3,86.7
			c-0.2-0.4,0.6-0.9,0.6-0.9c0.7,0.2,1,0.8,1.2,1.5c0.1,0.4-0.4,0.8-0.6,0.5C79.1,87.4,78.4,87.1,78.3,86.7L78.3,86.7z M79.5,85.4
			L78.6,85C78.6,85,79.7,85.5,79.5,85.4L79.5,85.4z M76.6,90.1c0.5,0.8-0.7,0.8-1.1,0.6c-0.4-0.3-0.1-0.8-0.1-0.8l0.6-0.3L76.6,90.1
			L76.6,90.1z M76.3,89.2L76,88.7c0,0-0.1-0.6,0.1-0.7c0.2-0.2,0.6-0.1,0.9-0.1c0.3,0,0.7,0.8,0.4,1.1C77,89.3,76.6,89.4,76.3,89.2
			L76.3,89.2z M77.1,87.3c-0.2-0.7,0.6-0.6,0.6-0.6l0.4,0.4c0,0-0.1,0.1-0.2,0.6c-0.1,0.5-0.5,0.1-0.5,0.1L77.1,87.3L77.1,87.3z
			 M78.1,86.2h-0.6l-0.2-0.4l0.2-0.4c0,0,0.2-0.2,0.5-0.2c0.3,0,0.3,0.5,0.3,0.5L78.1,86.2L78.1,86.2z M75.5,93.5
			c-0.2,0.2-0.9-1-0.9-1s0.5,0.2,0.8,0.5C75.7,93.4,75.5,93.5,75.5,93.5z"/>
		<path id="XMLID_173_" class="st4" d="M75.1,102.9l0.7,1.9l-2-1c-0.7,1.6-3.4,1.3-3.8-0.1l-2.2,0.8l1.1-2.1c-1.3-1-1-3.2,0.5-3.5
			l-0.5-1.8l1.4,0.7c1.2-1.5,2.5-1.4,3.8,0.1l1.8-0.8l-0.9,1.7C76.1,99.4,76.9,101.8,75.1,102.9z"/>
		<path id="XMLID_172_" class="st4" d="M75.1,102.9l-1.2,0.9c-0.7,1.6-3.4,1.3-3.8-0.1l-1.2-1.2c-1.3-1-1-3.2,0.5-3.5l0.9-1.2
			c1.2-1.5,2.5-1.4,3.8,0.1l0.9,1C76.1,99.4,76.9,101.8,75.1,102.9z"/>
		<ellipse id="XMLID_171_" class="st3" cx="74.4" cy="101" rx="1.2" ry="1.6"/>
		<path id="XMLID_170_" class="st3" d="M70.7,103.1c0-0.8,0.6-1.5,1.3-1.5c0.7,0,1.4,0.6,1.4,1.4c0,0.8-0.6,1.5-1.3,1.5
			C71.3,104.6,70.7,103.9,70.7,103.1z"/>
		<path id="XMLID_169_" class="st3" d="M69.3,99.4c0.7-0.3,1.5,0.1,1.9,0.8c0.4,0.7,0.1,1.6-0.6,1.9c-0.7,0.3-1.5-0.1-1.9-0.8
			C68.3,100.5,68.6,99.7,69.3,99.4z"/>
		<path id="XMLID_168_" class="st3" d="M73.5,97.9c0.3,0.7,0.1,1.4-0.7,1.8c-0.8,0.4-1.7,0.1-2-0.6c-0.3-0.7-0.1-1.4,0.7-1.8
			C72.2,97,73.1,97.2,73.5,97.9z"/>
		<polygon id="XMLID_167_" class="st3" points="72.2,102.2 71.1,100.9 72.3,100 73.5,101.1 		"/>
		<rect id="XMLID_166_" x="70.9" y="100.8" class="st4" width="2.9" height="0.4"/>
		<rect id="XMLID_165_" x="72" y="99.6" class="st4" width="0.4" height="2.9"/>
		<line id="XMLID_164_" class="st15" x1="72.3" y1="97" x2="73.8" y2="93.9"/>
		<path id="XMLID_163_" class="st3" d="M74.8,94.7c0.8,0,0.7,1.5,2.1,2.4c1.5,0.9,3.5,2.2,3.5,2.2s0.9-2.3-0.8-3.7
			c-1.7-1.4-3.2-1.4-3.2-1.4L74.8,94.7z"/>
		<line id="XMLID_162_" class="st15" x1="73.5" y1="97.6" x2="74.7" y2="94.4"/>
		<path id="XMLID_161_" class="st4" d="M78.9,97c-1.1-0.8-2.2-1.5-3.5-2L75,94.8l0.3-0.3C75.3,94.4,79.3,96.4,78.9,97z"/>
		<path id="XMLID_160_" class="st3" d="M73.7,93.7c0,0-1.2,1.5-2.1,1.5c-1,0.1-5.2,0-5.2,0s0.5-1.3,1.6-1.8c1.2-0.5,3.4-0.1,3.9-0.6
			c0.6-0.5,0.6-0.4,0.6-0.4L73.7,93.7z"/>
		<path id="XMLID_159_" class="st4" d="M72.8,92.9c0,0-0.9,0.8-1.7,1c-0.8,0.2-2.8,0.5-2.2,0.5c0.6,0,3.6,0,4.2-1.2
			C73.4,92.7,72.8,92.9,72.8,92.9z"/>
		<path class="st4" d="M72.2,102.8l-1.8-2l1.8-1.4l2,1.7L72.2,102.8L72.2,102.8z M72.2,102.2l1.3-1.1l-1.3-1.1l-1.2,0.9L72.2,102.2z
			"/>
		<path id="XMLID_156_" class="st3" d="M51.3,78.6l1.4,0c0.1,0.9,0.4,1.3,0.4,2.2C53,86.6,51.1,93.6,47,99.2h-2.6
			c1.9-3.4,3.5-6.9,4.6-10.3C50.2,85.5,50.9,82,51.3,78.6z"/>
		<path id="XMLID_155_" class="st6" d="M55.4,122.8c-0.3-5.5-1.2-10.2-3.2-12.8l-0.7-0.9l5.5,0.1L55.4,122.8z"/>
		<path id="XMLID_154_" class="st17" d="M42.4,135.6c-6.5-13.5-9.8-20.5-15.2-29.3c-5.4-8.7-6.4-9.5-10.3-10.5"/>
		<path id="XMLID_153_" class="st7" d="M39.2,135.3h-3.3L22,113.7c0.6-0.4,1.6-0.5,2.6-1.5"/>
		<path id="XMLID_152_" class="st3" d="M16.9,113.6v4c2.6,1.3,4.8,10.8,3.7,17.7h15.3L22,113.7C23.5,113.8,16.9,114.9,16.9,113.6z"
			/>
		<path id="XMLID_151_" class="st7" d="M53.7,135.6c0-1.6,0.9-2.6,1.7-3.4"/>
		<path id="XMLID_150_" class="st7" d="M45.9,135.6c0-1.6-1.4-3-3.2-3.6"/>
		<path id="XMLID_149_" class="st7" d="M44.5,135.6c0-1.3-0.9-2.1-1.7-2.3"/>
		<path id="XMLID_148_" class="st7" d="M52.3,135.6c0.1-2,2-4.3,3.1-5"/>
		<path id="XMLID_147_" class="st7" d="M47.4,135.6c-0.1-2-1.9-4.4-5.2-5.4"/>
		<path id="XMLID_146_" class="st7" d="M51.2,135.6c0.5-2.5,2.1-5.6,4.1-6.6"/>
		<path id="XMLID_145_" class="st7" d="M48.7,135.6c-0.5-3.4-3.6-6.2-6.8-6.9"/>
		<path id="XMLID_144_" class="st7" d="M49.8,135.6c0.5-2.5,2.9-7.2,5.5-8.3"/>
		<path id="XMLID_143_" class="st7" d="M49.8,135.6c-0.2-2.7-2.7-7.2-8.2-8.3"/>
		<path id="XMLID_142_" class="st6" d="M65.6,124.2c-2.5,0-4.5-2-4.5-4.5c0-2.5,2-4.5,4.5-4.5c2.3,0,4.1,1.6,4.4,3.7
			c0,0,0.5-0.1,0.5-0.2c-0.1-3.5-0.7-5.8-2-7.6h5.2c-1.4,2.4-1.9,5-1.9,7.7l0.4,0.1c0.4-2.1,2.2-3.8,4.5-3.8c2.5,0,4.5,2,4.5,4.5
			c0,2.5-2,4.5-4.5,4.5c-1.1,0-2.1-0.4-2.9-1l-0.3,0.3c1.4,0.8,2.4,2.4,2.4,4.2c0,2.7-2.2,4.8-4.8,4.8c-2.7,0-4.8-2.2-4.8-4.8
			c0-1.8,1-3.4,2.6-4.3l-0.2-0.4C67.8,123.7,66.7,124.2,65.6,124.2z"/>
		<line id="XMLID_141_" class="st7" x1="42.8" y1="132.7" x2="39.9" y2="130.4"/>
		<line id="XMLID_140_" class="st7" x1="42.4" y1="130" x2="37.9" y2="126"/>
		<line id="XMLID_139_" class="st7" x1="41.9" y1="127.8" x2="36.3" y2="123.1"/>
		<path id="XMLID_138_" class="st7" d="M41.2,125.5c-2.1-2.3-4.4-4.4-6.5-5.7"/>
		<path id="XMLID_137_" class="st7" d="M40.7,123.5c-1.9-2.5-5.6-5.8-7.8-6.9"/>
		<path id="XMLID_136_" class="st7" d="M40,120.9c-1.9-2.5-6.3-6.1-8.5-7.2"/>
		<path id="XMLID_135_" class="st7" d="M39.1,118.1c-2.1-2.6-5.5-5.8-9.1-6.9"/>
		<path id="XMLID_134_" class="st7" d="M37.9,115.1c-2.7-2.6-6.3-5.7-9.5-6.8"/>
		<path id="XMLID_133_" class="st7" d="M36.5,112.1c-3-2.7-6.4-4.9-9.8-6.4"/>
		<path id="XMLID_132_" class="st17" d="M35.1,109.4c-3-2.7-6.5-4.9-9.9-6.5"/>
		<path id="XMLID_131_" class="st7" d="M32.8,105.8c-3.4-2.4-5.7-3.7-8.9-4.5"/>
		<path id="XMLID_130_" class="st17" d="M30.2,102.3c-3.4-2.1-5.7-2.3-7.4-2.7"/>
		<path id="XMLID_129_" class="st17" d="M27,98.8c-3.3-1.4-4.9-1.2-6.6-1.6"/>
		<polygon id="XMLID_128_" class="st6" points="35.5,135.3 33.8,135.3 34.5,134.4 		"/>
		<path id="XMLID_127_" class="st6" d="M32.6,135.1h-1c0.2-0.6-1.1-1.5-0.1-1.6C32.3,133.4,32.3,134.5,32.6,135.1z"/>
		<path id="XMLID_126_" class="st9" d="M33.2,135.2c0,0,0.3-3.2-4.2-5.3c-0.1-0.5,1.3-5.3-4.7-7.1c0.3-2.2-0.6-4.9-2.8-5.7
			c0.2-1.9-0.3-2.7-1-3"/>
		
			<rect id="XMLID_125_" x="30.3" y="128.5" transform="matrix(0.6843 0.7292 -0.7292 0.6843 103.6518 18.3326)" class="st6" width="0.8" height="0.8"/>
		
			<rect id="XMLID_124_" x="25.5" y="121.5" transform="matrix(0.6841 0.7293 -0.7293 0.6841 97.0542 19.6249)" class="st6" width="0.8" height="0.8"/>
		
			<rect id="XMLID_123_" x="22.2" y="115.8" transform="matrix(0.5367 0.8438 -0.8438 0.5367 108.4568 34.7887)" class="st6" width="0.8" height="0.8"/>
		<circle id="XMLID_122_" class="st6" cx="25.5" cy="128.5" r="0.5"/>
		<circle id="XMLID_121_" class="st6" cx="21.3" cy="121.5" r="0.5"/>
		<circle id="XMLID_120_" class="st6" cx="28.9" cy="133.5" r="0.5"/>
		<circle id="XMLID_119_" class="st6" cx="24.6" cy="126.5" r="0.5"/>
		<circle id="XMLID_118_" class="st6" cx="20.4" cy="119.7" r="0.5"/>
		<path id="XMLID_117_" class="st6" d="M27,132l-0.3,1.5c-0.2,0.5,1.3,0.7,1-0.3C27.5,132.3,26.9,132.2,27,132z"/>
		<path id="XMLID_116_" class="st6" d="M22.7,125.1l-0.3,1.5c-0.2,0.5,1.3,0.7,1-0.3C23.2,125.3,22.6,125.2,22.7,125.1z"/>
		<path id="XMLID_115_" class="st6" d="M26.3,130.6l-0.9-1.2c-0.2-0.5-1.4,0.5-0.5,0.9C25.8,130.8,26.3,130.5,26.3,130.6z"/>
		<path id="XMLID_114_" class="st6" d="M22,123.6l-0.9-1.2c-0.2-0.5-1.4,0.5-0.5,0.9C21.6,123.8,22,123.5,22,123.6z"/>
		<path id="XMLID_113_" class="st6" d="M26.7,131.4l-1.8,0.4c-0.6,0-0.4,1.8,0.6,1C26.6,132,26.5,131.3,26.7,131.4z"/>
		<path id="XMLID_112_" class="st6" d="M22.4,124.4l-1.8,0.4c-0.6,0-0.4,1.8,0.6,1C22.3,125,22.2,124.3,22.4,124.4z"/>
		<path id="XMLID_111_" class="st6" d="M27.8,132l-1.3-2.1c0,0,1.1-0.6,1.1-1.3c0-0.7-0.1-0.7-0.4-0.7c-0.3,0.1-0.8-0.8-0.3-1
			c0.5-0.1,1.3,0.7,1.1,1.8c-0.1,1.1-0.8,2.1-0.8,2.1s1-0.1,1.9,0.1c0.8,0.1,1.5,0.5,1.6,0.9c0.3,0.9-0.3,1.1-0.7,1
			c-0.4-0.1,0.4-1.2-0.5-1.2C28.8,131.6,28.5,131.6,27.8,132z"/>
		<path id="XMLID_110_" class="st6" d="M23.5,125.1l-1.3-2.1c0,0,1.1-0.6,1.1-1.3c0-0.7-0.1-0.7-0.4-0.7c-0.3,0.1-0.8-0.8-0.3-1
			c0.5-0.1,1.3,0.7,1.1,1.8c-0.1,1.1-0.8,2.1-0.8,2.1s1-0.1,1.9,0.1c0.8,0.1,1.5,0.5,1.6,0.9c0.3,0.9-0.3,1.1-0.7,1
			c-0.4-0.1,0.4-1.2-0.5-1.2C24.5,124.6,24.3,124.6,23.5,125.1z"/>
		<path id="XMLID_109_" class="st6" d="M19.3,118.3l-0.6-1c0.8-1.1,1.1-1.6,1.4-2.2c0.3,0.7-0.2,1.6-0.6,2.3c0,0,0.2-0.3,1.1-0.1
			c0.8,0.1,1.5,0.5,1.6,0.9c0.3,0.9-0.3,1.1-0.7,1c-0.4-0.1,0.4-1.2-0.5-1.2C20.3,117.8,20,117.9,19.3,118.3z"/>
		<path class="st4" d="M55.5,124.1c-2.2,1.3-4.4-0.4-4.4-0.4c2,0.6,3.5,0.2,4.4-0.3c0-0.6-0.1-1.2-0.3-1.6c-1-1.4-3.4-0.1-3.5-0.2
			s0.6-1.1,1.3-1.6c0.2-0.3-1.2,0.6-1.2,0.6l0.6-1.4c0,0,0.4-1.3-0.1-1.6c-0.5-0.2-1.3-0.5-1.7-1l0.1,0.8c0,0,0.1,0.1,0.9,0.4
			c0.7,0.3,0.3,1.6,0.3,1.6s-0.4,1.5-1.1,3.5c-0.7,2,0.2,3.1,1.1,3.7c0.9,0.6,3.5,0,3.5,0v-0.9c0,0,0,0,0-0.1
			c-0.7,0.3-2.3,0.9-3.5,0.4c-1.5-0.6-1-2.3-1-1.9c0,0.4,2.7,1.5,4.6,0.4C55.5,124.4,55.5,124.3,55.5,124.1L55.5,124.1z M54.7,122.7
			l-0.6,0.2c0,0-0.1-0.6-0.8-0.6c-0.7,0-0.6,0.7-0.6,0.7s-0.4,0.1-0.5-0.1c-0.1-0.2-0.1-0.6,0.2-0.9
			C53.1,121.3,54.6,121.2,54.7,122.7L54.7,122.7z M46.9,123.1l-0.6,0.2c0,0,0-0.7-0.9-0.8c-0.9,0-0.8,0.8-0.8,0.8s-0.4,0.1-0.5-0.1
			c-0.1-0.2-0.1-0.7,0.4-1.1C45,121.8,46.8,121.8,46.9,123.1L46.9,123.1z M51.9,123.1c-0.4,0.1-0.7-0.2-0.9-0.6l0.9-0.4V123.1
			L51.9,123.1z M43.6,123.2l0-0.8l-1,0.6C42.9,123.1,43.2,123.2,43.6,123.2L43.6,123.2z M47.5,126.8c0.4-0.2,0.9-1.2-0.2-0.8
			c-1.1,0.4-1.9,0.9-3.3,0.6c-1.5-0.3-2.8-0.8-2.8-0.8s0.1,0.4,2.1,1.1C45.4,127.6,47.1,127,47.5,126.8L47.5,126.8z M45.5,119.9
			c1.6,1.4,1.6,1.8,1.4,2.2c-1.2-0.8-2.3-0.4-3.1-0.1c-0.8,0.3-1.7,0.9-1.7,0.9l-1.4,0l0.2,0.7l0.5,0c0.8,0.5,1.5,1.4,3.4,1.7
			c1.9,0.3,3.1-1.6,3.1-1.6l-0.2-0.7c0,0-0.3,0,0-0.6c0.4-0.7-1.9-2.7-1.9-2.7L45.5,119.9L45.5,119.9z M47.1,123.9
			c-1.2,0.8-5-0.1-5.2-0.8c0.2,0.7,1.1,1.5,2.7,1.7C46.2,125.1,47.1,123.9,47.1,123.9L47.1,123.9z M50.6,118.3c0,0,0.2,0.6-0.8,0.4
			c-0.2,0-0.7-0.8-1.4-0.8c-0.6,0-1.2-0.3-1,0.7c0.3,1.3-0.4,0.1-0.3-0.5c0.1-0.6,0.7-0.7,1.5-0.6C49.5,117.5,50.3,117.9,50.6,118.3
			L50.6,118.3z M52.8,115.1l-0.7-1.3c0,0-0.5,0.8-1.6,0.4c-1.1-0.4-1.3,0-2,0.3c-0.7,0.3-1.4,0.1-2.1-0.4c-0.5-0.4,0,0.8,0,0.8
			s0,1.3,0.4,0.8c0.4-0.4,0.6-0.5,1-0.4c0.4,0,0.7,0.3,1.4,0.1c0.6-0.2,1-0.2,1.7,0c0.6,0.2,0.7,0,1.2-0.2
			C52.5,114.9,53,115.8,52.8,115.1L52.8,115.1z M50.9,113.5c0,0-0.7-0.3-1.4-0.2c-0.7,0.1-1.2,0.2-1.2,0.2s0.7-0.6,1.3-0.5
			C50.1,113,50.3,112.9,50.9,113.5L50.9,113.5z M51,112.1c0,0-1,0.3-1.6,0.2c-0.7-0.1-1.7-0.5-1.7-0.5s0.4,0.7,1.4,0.8
			C49.9,112.7,50.3,112.7,51,112.1z"/>
		<path id="XMLID_96_" class="st7" d="M55.4,135.3c0-9.9,0.2-20.8-3.2-25.3c-3.4-4.5-10.5,0.3-14.7,4.6"/>
		<polygon id="XMLID_95_" class="st18" points="43,110.3 35.6,110.3 35.1,109 45.2,109 		"/>
		<line id="XMLID_94_" class="st10" x1="57.7" y1="107.2" x2="33.9" y2="107.2"/>
		<polygon id="XMLID_93_" class="st6" points="55,105.4 52.7,105.4 54.1,103.5 56.3,103.5 		"/>
		<polygon id="XMLID_92_" class="st6" points="39.2,100.5 41.4,100.5 40.1,102.5 37.8,102.5 		"/>
		<polygon id="XMLID_91_" class="st6" points="32.2,100.5 34.5,100.5 33.1,102.5 30.9,102.5 		"/>
		<polygon id="XMLID_90_" class="st6" points="48.5,105.4 46.2,105.4 47.5,103.5 49.8,103.5 		"/>
		<polygon id="XMLID_89_" class="st6" points="45.7,100.5 48,100.5 46.6,102.5 44.3,102.5 		"/>
		<polygon id="XMLID_88_" class="st6" points="41.6,105.4 39.3,105.4 40.7,103.5 43,103.5 		"/>
		<polygon id="XMLID_87_" class="st6" points="52.4,100.5 54.6,100.5 53.3,102.5 51,102.5 		"/>
		<polygon id="XMLID_86_" class="st6" points="34.8,105.4 32.6,105.4 33.9,103.5 36.2,103.5 		"/>
		<polygon id="XMLID_85_" class="st6" points="58.3,100.5 60.6,100.5 59.3,102.5 57,102.5 		"/>
		<line id="XMLID_84_" class="st11" x1="58.6" y1="105.4" x2="32.7" y2="105.4"/>
		<line id="XMLID_83_" class="st11" x1="28.9" y1="100.6" x2="61.2" y2="100.6"/>
		<path id="XMLID_82_" class="st3" d="M59.9,86.9L59.9,86.9c-2.4,1-4,3.4-4,6.2c0,6.2,7.4,6.3,4.2,6.3H56c-1.7-1.2-2.9-4.2-2.7-7
			c0.2-2.7,2-6,4.6-7.8L59.9,86.9z"/>
		<path id="XMLID_81_" class="st10" d="M57.7,99.4c-1.7-1.2-2.9-4.2-2.7-7c0.2-2.7,1.9-5.6,3.8-6.6"/>
		<path id="XMLID_80_" class="st4" d="M63.5,98.6L63,97.2l1.9-4.1l-4.1-5c-1.6,0.9-2.7,2.8-2.7,5c0,3.1,2.1,5.6,4.6,5.6
			C63,98.7,63.2,98.6,63.5,98.6z"/>
		<path id="XMLID_79_" class="st6" d="M59.9,86.9l0.9,1.2c-1.6,0.9-2.7,2.8-2.7,5c0,3.1,2.1,5.6,4.6,5.6c2,0-0.5,0.4-2.3,0.9
			c-2.7-0.9-4.6-3.4-4.6-6.5C55.9,90.3,57.5,87.9,59.9,86.9z"/>
		<line id="XMLID_78_" class="st11" x1="27.4" y1="99.2" x2="61.8" y2="99.2"/>
		<path id="XMLID_77_" class="st1" d="M48.1,78.6h-0.9c-1.7,6.5-6,12.4-13,13.6c-7,1.2-9.4,0.6-9.4,0.6l-2.1,3.5
			c1.8,0,4.8,2.9,4.8,2.9h8.7c1.7,0.1,5-3.5,7.6-8C46.2,87,48.2,81.7,48.1,78.6z"/>
		<path id="XMLID_76_" class="st10" d="M47.2,78.6c-1.7,6.5-6,12.4-13,13.6c-7,1.2-9.4,0.6-9.4,0.6l-2.1,3.5"/>
		<path id="XMLID_75_" class="st6" d="M48.1,78.6h3.4c-0.4,7.5-2.3,14-7,20.7h-8.3c1.7,0.1,5-3.5,7.6-8C46.2,87,48.2,81.7,48.1,78.6
			z"/>
		<path id="XMLID_74_" class="st6" d="M52.8,80.6c0.2,1.6,1.4,4.2,2.7,6.5c-2.9,5.1-2.6,8.3,0.2,12.2H47c1.6-2.8,2-4.1,3.6-8.5
			C52.3,86.3,52.6,82.7,52.8,80.6z"/>
		<path id="XMLID_73_" class="st11" d="M52.8,80.6c0.2,1.6,1.4,4.2,2.7,6.5"/>
		<path id="XMLID_72_" class="st13" d="M42.9,88l-2.6,2.2c0,0-0.2,1.6,0.7,1.8c0.9,0.2,2-0.4,1.3-1.9C42.6,90,44.5,89.4,42.9,88z"/>
		<path id="XMLID_71_" class="st13" d="M36.4,94.9c0,0-0.3-1.6-1.3-1.3c-1,0.2-0.7,1-0.6,2c-0.9,0.8,0,3.2,1.9,1.6
			C38.6,97.5,39.4,94.8,36.4,94.9z"/>
		<path id="XMLID_70_" class="st13" d="M29.4,94.1c0,0-0.4-0.8-1.3-0.6c-0.9,0.2-0.6,0.8-0.5,1.8c-0.9,0.8,0.4,3,2,1.3
			C31.9,97.1,32.5,94,29.4,94.1z"/>
		<path id="XMLID_69_" class="st3" d="M41.7,94.8h3.5l0.5-1.1h-3.2c0.6-0.8,1.1-1.6,1.6-2.4h2.7l0.5-0.7h-2.8c0.6-1,1.1-1.9,1.5-2.7
			h2.2l0.3-0.7h-2.1c0.5-1,0.8-1.9,1.1-2.7h1.7l0.3-0.5h-1.8c0.3-0.9,0.5-1.8,0.6-2.5h1.7l0.1-0.5h-1.8c0.1-0.7,0.2-1.4,0.3-2H50
			l0.2-0.5h0.6c0,0.4-0.1,0.8-0.1,1.1h-1.3l-0.3,0.5h1.5c-0.1,0.7-0.2,1.4-0.3,2.2H49l-0.3,0.8h1.5c-0.1,0.9-0.3,1.7-0.5,2.6h-1.5
			l-0.4,0.7h1.8c-0.2,0.8-0.4,1.7-0.6,2.5h-2.4l-0.5,0.9h2.5c-0.1,0.3-0.2,0.6-0.3,0.9c-0.2,0.5-0.4,1-0.6,1.4h-2.7l-0.5,0.7h2.8
			c-0.5,1.1-1.1,2.1-1.6,3h-3.2l-0.5,0.6h3.3c-0.6,0.9-1.1,1.8-1.6,2.8H42l1.2-1.7h-3.4C40.4,96.6,41.1,95.7,41.7,94.8z"/>
		<path class="st3" d="M54.1,84.1c-0.4-0.9-0.7-1.8-1-2.5c0,0.3,0,0.6,0,0.8c0,0.5,0,1.1-0.1,1.7H54.1L54.1,84.1z M54.9,85.8
			c-0.2-0.4-0.4-0.8-0.6-1.1h-1.4c-0.1,0.8-0.3,1.7-0.5,2.7h2.1L54.4,88h-2.2c-0.2,0.8-0.5,1.7-0.9,2.7h2.4c0.1-0.3,0.2-0.6,0.3-0.8
			h-1l0.3-0.9h1.1c0.3-0.7,0.7-1.4,1.2-2c-0.1-0.2-0.2-0.3-0.3-0.5h-1.4l0.2-0.7H54.9L54.9,85.8z M53.3,92.2c0-0.3,0.1-0.5,0.1-0.8
			H51c-0.3,0.8-0.7,1.5-1.1,2.4h3.2l-0.2,1.1h-2.9c-0.4,0.8-0.9,1.7-1.4,2.7h2.9l-0.8,1.7h1.9c0.3-1,0.7-1.9,1.1-2.8h-3.3l0.4-0.6h3
			c-0.3-0.9-0.4-2-0.4-3H52l0.3-0.7H53.3z"/>
		<path id="XMLID_65_" class="st11" d="M56,99.5c-1.7-1.2-2.9-4.2-2.7-7c0.2-2.7,2-6,4.6-7.8"/>
		<path id="XMLID_64_" class="st3" d="M81.2,65.5c-2.4-2.5-5.9-4.2-10.4-4.7c-9-1-17.1,7.6-17.2,14.1c-0.1,6.5,1.1,8.6,2.8,10.8
			l-0.7,0.8c-0.8-1.2-3-5.5-3-8.2c-0.6-2.7,0.4-9.1,4.8-13.1c4.3-4,11.9-9.6,24.2-0.3L81.2,65.5z"/>
		<path id="XMLID_63_" class="st15" d="M55.8,86.5c-0.8-1.2-3-5.5-3-8.2c-0.6-2.7,0.4-9.1,4.8-13.1c4.3-4,11.9-9.6,24.2-0.3"/>
		<path id="XMLID_62_" class="st6" d="M60.1,82.7l-3.7,3c-1.7-2.2-2.9-4.3-2.8-10.8c0.1-6.5,8.1-15,17.2-14.1
			c4.4,0.5,7.9,2.1,10.4,4.7l-4,3.2c-1.5-1.5-3.4-2.7-7.7-3c-4.4-0.3-10.7,4.3-11,10.7C58.4,78.9,59.5,81.3,60.1,82.7z"/>
		<path id="XMLID_61_" class="st3" d="M75.9,69.9l1.3-1.1c-1.5-1.5-3.4-2.7-7.7-3c-4.4-0.3-10.7,4.3-11,10.7c-0.1,2.4,1,4.8,1.6,6.2
			l1.6-1.3c-0.5-1.3-1.1-3-1.1-4.7c0.3-6,5.2-9.2,9.2-9C72.6,67.9,74.5,68.8,75.9,69.9z"/>
		<path id="XMLID_60_" class="st4" d="M64.8,78.9l-3.1,2.5c-0.5-1.3-1.1-3-1.1-4.7c0.3-6,5.2-9.2,9.2-9c2.7,0.2,4.6,1.1,6,2.2
			l-3.1,2.5c-0.7-0.6-1.8-1.2-3.3-1.3c-2.1-0.1-4.8,1.8-5.1,3.9C64.1,77.1,64.5,78.2,64.8,78.9z"/>
		<path id="XMLID_59_" class="st1" d="M64.9,79c-0.3-0.7-0.8-1.8-0.5-4c0.3-2.2,3-4.1,5.1-3.9c1.6,0.1,2.7,0.7,3.4,1.4L64.9,79z"/>
		<polygon id="XMLID_53_" class="st3" points="59,83.7 82.4,64.3 82.4,66.2 59.9,84.8 		"/>
		<polygon id="XMLID_47_" class="st4" points="64.3,90.2 82.7,75.1 82.7,68.3 60.7,86.1 		"/>
		<polygon id="XMLID_46_" class="st14" points="64.7,91 82.3,76.7 82.3,79.2 66,92.4 		"/>
		<path class="st13" d="M67.4,84.7c-0.5,0-0.9-0.4-0.9-0.9c0-0.5,0.4-0.9,0.9-0.9c0.5,0,0.9,0.4,0.9,0.9
			C68.3,84.3,67.9,84.7,67.4,84.7L67.4,84.7z M78.9,75.3c0.3,0.3,0.8,0.4,1.2,0.4c1.1,0,2.1-0.9,2.1-2.1c0-1.1-0.9-2.1-2.1-2.1
			c-1.1,0-2.1,0.9-2.1,2.1c0,0.3,0.1,0.5,0.1,0.8l-0.3,0.2l-0.1-0.1c-0.4-0.4-1-0.6-1.5-0.2l0,0c-0.5,0.3-0.6,1-0.2,1.5l0.2,0.2
			l-1.5,1.2c-0.3-0.3-0.8-0.4-1.3-0.4c-1.1,0-2,0.9-2,2c0,0.3,0.1,0.7,0.2,0.9l-0.2,0.2l-0.4-0.4c-0.4-0.4-1-0.6-1.5-0.2l0,0
			c-0.5,0.3-0.6,1-0.2,1.5l0.5,0.5l-1.3,1.1c-0.3-0.3-0.8-0.4-1.2-0.4c-1.1,0-2,0.9-2,2c0,0.3,0.1,0.7,0.2,1L65.3,85L65,84.7
			c-0.4-0.4-0.9-0.7-1.4-0.4l0,0c-0.5,0.3-0.7,1-0.4,1.4l0.5,0.6l-1.6,1.3l0.7,0.9l1.6-1.3l0.3,0.4c0.4,0.4,0.9,0.7,1.4,0.4
			c0.5-0.3,0.7-1,0.4-1.4L66,85.9l0.4-0.3c0.3,0.2,0.6,0.3,1,0.3c1.1,0,2-0.9,2-2c0-0.2,0-0.5-0.1-0.7l1.4-1.2l0.4,0.4
			c0.4,0.4,1,0.6,1.5,0.2c0.5-0.3,0.6-1,0.2-1.5l-0.5-0.5l0.2-0.2c0.3,0.2,0.6,0.3,1,0.3c1.1,0,2-0.9,2-2c0-0.2,0-0.4-0.1-0.6
			l1.5-1.3l0.4,0.4c0.4,0.4,1,0.6,1.5,0.2c0.5-0.3,0.6-1,0.2-1.5l-0.4-0.5L78.9,75.3L78.9,75.3z M78.9,77.5L78.9,77.5L78.9,77.5z
			 M72.6,82.6L72.6,82.6L72.6,82.6z M66.2,88L66.2,88L66.2,88z M73.6,79.6c-0.5,0-0.9-0.4-0.9-0.9c0-0.5,0.4-0.9,0.9-0.9
			c0.5,0,0.9,0.4,0.9,0.9C74.5,79.2,74.1,79.6,73.6,79.6L73.6,79.6z M80.2,74.5c-0.5,0-0.9-0.4-0.9-0.9c0-0.5,0.4-0.9,0.9-0.9
			c0.5,0,0.9,0.4,0.9,0.9C81,74.1,80.7,74.5,80.2,74.5z"/>
		<path id="XMLID_36_" class="st3" d="M78,67.4l1.4-1.4l-0.5-1.9l-1.4-0.8l0.2,1.7c-1.4-0.7-1.4-1.7-1.9-2.4l-1.6-0.6l0.7,1.5
			l-1.6-0.6l-1.6-1.6l-1.5,0l1,1.4h-0.9c-0.8-0.4-1.3-1-2.2-1.3l-1.6,0.2l1.3,1.1l-1.3,0.2L64.6,62c-0.5,0.2-1,0.4-1.4,0.7
			c0.4,0.3,0.9,0.6,1.3,0.8L63,64.1l-2-0.3c-0.5,0.3-0.9,0.6-1.3,1.1l1.3,0.4l-1.3,1.1L58,66.5l-1,1.2l1.4,0.1
			c-0.9,1.8-1.3,1.6-2.8,2.2l-0.6,1.5l1.6-0.4l-0.4,1.3c-0.6,0.3-1.2,0.6-1.7,1c-0.2,0.5-0.2,1-0.2,1.5l1.4-0.7l0,1.3l-1.4,2.4
			l0.2,1.8l1.4-1.8l0.3,1.7l-1.2,2l0.6,1.4l1.1-1.7c0.3,0.8,0.5,1.6,0.9,2.4l1-0.8L58,81.3l1.2,0.5c-0.2-0.6-0.3-1.2-0.7-1.6
			c-0.3-0.2-0.6-0.6-1.2-1L57.2,78l1.1,0.7v-1.5l-1.3-1.2v-1.3l0.1,0l1.3,1.2c0.1-0.5,0.1-1,0.1-1.5l-1-1.6l0.3-1l1.1,1.6
			c0.2-0.5,0.3-1,0.6-1.5l-0.6-1.7l0.7-1.2l0.4,1.7l1-1.2l-0.1-2.1l0.9-0.7l-0.1,1.8l1.3-0.9l0.3-1.9l1.4-0.7l-0.5,1.6l1.3-0.7
			c0,0,0.8-2,2.2-2L67,65.4c-0.1,0.2,1,0.2,1.4,0l1.1-1.3h1.3l-1.2,1.3h1.7l1.6-1.1l1.3,0.4l-1.8,0.8l2.2,0.8l1.8-0.6l1,0.6
			l-2.1,0.4C75.4,66.7,76.3,67.8,78,67.4z"/>
		<path id="XMLID_35_" class="st16" d="M56.9,135.3c0-5.4,1-14.3,5.9-22.7c3.5-6.1,1.8-13.3,0.2-15.3c-3.6,6.9-6.1,11.2-6.1,11.6
			c-0.5,8.8-2.2,13.8-1.5,26.4H56.9z"/>
		<path id="XMLID_34_" class="st7" d="M43.1,135.6c-0.4-6.3-4.3-23-12-32.4c-4.7-5.8-9-8-14.1-7.9"/>
		<path id="XMLID_33_" class="st6" d="M46,73h7.3c-0.2,1.8-0.5,3.5-0.2,5.5L46,78.7C46.4,76.8,46.4,74.8,46,73z"/>
		<path id="XMLID_32_" class="st3" d="M48.4,74.3v2.5c-0.1,0-0.2,0-0.3,0c-0.7,0-1.2-0.6-1.2-1.3c0-0.7,0.5-1.3,1.2-1.3
			C48.2,74.3,48.3,74.3,48.4,74.3z"/>
		<path id="XMLID_31_" class="st3" d="M51.3,77.1v-2.6c0,0,0,0,0,0c0.7,0,1.2,0.6,1.2,1.3C52.5,76.5,52,77.1,51.3,77.1
			C51.3,77.1,51.3,77.1,51.3,77.1z"/>
		<path id="XMLID_30_" class="st3" d="M50.8,74.7v2.1c-0.2,0.3-0.6,0.5-1,0.5c-0.4,0-0.8-0.2-1-0.6v-2c0.2-0.3,0.6-0.6,1-0.6
			C50.2,74.3,50.5,74.4,50.8,74.7z"/>
		<path id="XMLID_29_" class="st6" d="M16.8,101.7c0.9,0.7,1.4,1.4,2,2.4c6.6,9.4,13.6,21.1,20.4,31.5h2.5
			c-6.5-13.4-9.9-17.5-14.7-26.7c-4.8-9.2-6.1-10.7-10-11.7L16.8,101.7z"/>
		<polygon id="XMLID_28_" class="st10" points="34.5,58.5 33.4,59.3 40.5,67.9 41.5,67 		"/>
		<polygon id="XMLID_27_" class="st10" points="64.9,93.1 66,92.3 59,83.7 57.9,84.6 		"/>
		<g>
			<path class="st6" d="M15.5,23.9c0,0-1.2,0.2-2.2-0.6c-0.8,0.7-1.8,1.1-2.9,1.1c-2.4,0-4.4-1.9-4.4-4.3v-2.6c-0.6,0-1.1,0-1.1,0
				v-1.9c0,0,0.4,0,1.1,0v-4.1c0-2.4,2-4.3,4.4-4.3c2.4,0,4.4,1.9,4.4,4.3v8.7c0,0.6-0.1,1.1-0.3,1.6c0.3,0.3,0.7,0.4,1.1,0.5V23.9
				L15.5,23.9z M10.4,22.6L10.4,22.6c0.7,0,1.2-0.2,1.7-0.6c-0.6-0.8-0.9-1.6-1.6-2.3c-0.9-0.9-1.7-1.4-2.5-1.7v2.3
				C7.9,21.5,9,22.6,10.4,22.6L10.4,22.6z M10.4,9L10.4,9C9,9,7.9,10.1,7.9,11.5v4.4C8.1,16,8.4,16,8.6,16.1
				c2.2,0.8,3.4,2.4,4.2,3.5v-8.2C12.9,10.1,11.7,9,10.4,9z"/>
			<path class="st6" d="M83.9,127.7c0,0,1.2-0.2,2.2,0.6c0.8-0.7,1.8-1.1,2.9-1.1c2.4,0,4.4,1.9,4.4,4.3v2.6c0.6,0,1.1,0,1.1,0v1.9
				c0,0-0.4,0-1.1,0v4.1c0,2.4-2,4.3-4.4,4.3c-2.4,0-4.4-1.9-4.4-4.3v-8.7c0-0.6,0.1-1.1,0.3-1.6c-0.3-0.3-0.7-0.4-1.1-0.5V127.7
				L83.9,127.7z M89.1,129L89.1,129c-0.7,0-1.2,0.2-1.7,0.6c0.6,0.8,0.9,1.6,1.6,2.3c0.9,0.9,1.7,1.4,2.6,1.7v-2.3
				C91.5,130.1,90.4,129,89.1,129L89.1,129z M89.1,142.6L89.1,142.6c1.4,0,2.5-1.1,2.5-2.4v-4.4c-0.3-0.1-0.5-0.1-0.8-0.2
				c-2.2-0.8-3.4-2.4-4.2-3.5v8.2C86.6,141.5,87.7,142.6,89.1,142.6z"/>
		</g>
		<g>
			<g>
				<path id="XMLID_20_" class="st19" d="M90.3,111.7c-1.4,1.7-1.1,4.2-1.1,4.2c0.2-1.2,1.4-1.8,1.8-1.9c1.6-0.3,2.4,0.9,2.5,1.1
					c1.1,2-0.5,3.3-0.8,3.5c-1.5,0.9-2.7-0.1-2.7-0.1c-0.2,0-0.1,0.2-0.1,0.2c1.2,0.7,1.3,1.8,1.3,2.2c-0.3,2.3-2.5,2.3-2.5,2.3
					s-2.2,0.1-2.5-2.3c0-0.4,0-1.5,1.3-2.2c0,0,0.1-0.3-0.1-0.2c0,0-1.2,1.1-2.7,0.1c-0.2-0.2-1.9-1.4-0.8-3.5
					c0.1-0.2,0.9-1.4,2.5-1.1c0.5,0.1,1.6,0.8,1.8,1.9c0,0,0.3-2.5-1.1-4.2H90.3z"/>
			</g>
			<g>
				<path id="XMLID_19_" class="st19" d="M9.1,39.9c1.4-1.7,1.1-4.2,1.1-4.2c-0.2,1.2-1.4,1.8-1.8,1.9c-1.6,0.3-2.4-0.9-2.5-1.1
					c-1.1-2,0.5-3.3,0.8-3.5c1.5-0.9,2.7,0.1,2.7,0.1c0.2,0,0.1-0.2,0.1-0.2c-1.2-0.7-1.3-1.8-1.3-2.2c0.3-2.3,2.5-2.3,2.5-2.3
					s2.2-0.1,2.5,2.3c0,0.4,0,1.5-1.3,2.2c0,0-0.1,0.3,0.1,0.2c0,0,1.2-1.1,2.7-0.1c0.2,0.2,1.9,1.4,0.8,3.5
					c-0.1,0.2-0.9,1.4-2.5,1.1c-0.5-0.1-1.6-0.8-1.8-1.9c0,0-0.3,2.5,1.1,4.2H9.1z"/>
			</g>
		</g>
		<path class="st8" d="M17.2,136.5h65.6V15.1H16.7v121.4H17.2L17.2,136.5z M17.7,135.5L17.7,135.5c0-1,0-118.3,0-119.3
			c1,0,63,0,64,0c0,1,0,118.3,0,119.3C80.7,135.5,18.7,135.5,17.7,135.5z"/>
		<path id="XMLID_16_" class="st6" d="M25.6,28.3l0.5-0.5c-1.5-0.8-2.4-2.3-2.4-4.1c0-2.6,2.1-4.7,4.7-4.7c2.6,0,4.7,2.1,4.7,4.7
			c0,1.8-1,3.4-2.5,4.1l0.4,0.5c0.8-0.6,1.7-1,2.8-1c2.4,0,4.4,2,4.4,4.4c0,2.4-2,4.4-4.4,4.4c-2.3,0-4.2-1.8-4.4-4l-0.6,0
			c-0.3,4.2,1.7,7.5,1.7,7.5H26c2.4-2.3,1.7-7.5,1.7-7.5l-0.6-0.1C27,34.2,25.1,36,22.7,36c-2.4,0-4.4-2-4.4-4.4
			c0-2.4,2-4.4,4.4-4.4C23.8,27.2,24.8,27.6,25.6,28.3z"/>
	</g>
</g>
</svg>
