<?xml version="1.0" encoding="utf-8"?>
<!-- Generator: Adobe Illustrator 19.0.0, SVG Export Plug-In . SVG Version: 6.00 Build 0)  -->
<svg version="1.1" xmlns="http://www.w3.org/2000/svg" xmlns:xlink="http://www.w3.org/1999/xlink" x="0px" y="0px"
	 viewBox="0 0 99.4 151.6" style="enable-background:new 0 0 99.4 151.6;" xml:space="preserve">
<style type="text/css">
	.st0{fill:#FFFFFF;stroke:#000000;stroke-width:0.25;stroke-miterlimit:2.6131;}
	.st1{fill-rule:evenodd;clip-rule:evenodd;fill:#E52529;}
	.st2{fill:#E52529;}
	.st3{fill:#231F20;}
	.st4{fill-rule:evenodd;clip-rule:evenodd;fill:#231F20;}
</style>
<g id="Calque_2">
	<path id="XMLID_15_" class="st0" d="M99.3,5.3v140.9c0,2.9-2.3,5.2-5.2,5.2H5.3c-2.9,0-5.2-2.3-5.2-5.2V5.3c0-2.9,2.3-5.2,5.2-5.2
		h88.7C96.9,0.1,99.3,2.5,99.3,5.3z"/>
</g>
<g id="Calque_1">
	<g>
		<g>
			<g>
				<g>
					<path class="st1" d="M552.8,134.6c-3.2-4.4-4.1-8-4.1-8s-0.9,3.7-4.1,8c-3.2,4.4-6.2,5.6-6.2,5.6s3,1.2,6.2,5.6
						c3.2,4.4,4.1,8,4.1,8s0.9-3.7,4.1-8c3.2-4.4,6.2-5.6,6.2-5.6S556.1,138.9,552.8,134.6z"/>
					<path class="st1" d="M510.8,134.6c-3.2-4.4-4.1-8-4.1-8s-0.9,3.7-4.1,8c-3.2,4.4-6.2,5.6-6.2,5.6s3,1.2,6.2,5.6
						c3.2,4.4,4.1,8,4.1,8s0.9-3.7,4.1-8c3.2-4.4,6.2-5.6,6.2-5.6S514,138.9,510.8,134.6z"/>
				</g>
				<g>
					<path class="st1" d="M531.8,177.1c-3.2-4.4-4.1-8-4.1-8s-0.9,3.7-4.1,8c-3.2,4.4-6.2,5.6-6.2,5.6s3,1.2,6.2,5.6
						c3.2,4.4,4.1,8,4.1,8s0.9-3.7,4.1-8c3.2-4.4,6.2-5.6,6.2-5.6S535,181.5,531.8,177.1z"/>
				</g>
				<g>
					<path class="st1" d="M552.8,219.7c-3.2-4.4-4.1-8-4.1-8s-0.9,3.7-4.1,8c-3.2,4.4-6.2,5.6-6.2,5.6s3,1.2,6.2,5.6
						c3.2,4.4,4.1,8,4.1,8s0.9-3.7,4.1-8c3.2-4.4,6.2-5.6,6.2-5.6S556.1,224,552.8,219.7z"/>
					<path class="st1" d="M510.8,219.7c-3.2-4.4-4.1-8-4.1-8s-0.9,3.7-4.1,8c-3.2,4.4-6.2,5.6-6.2,5.6s3,1.2,6.2,5.6
						c3.2,4.4,4.1,8,4.1,8s0.9-3.7,4.1-8c3.2-4.4,6.2-5.6,6.2-5.6S514,224,510.8,219.7z"/>
				</g>
			</g>
		</g>
		<g>
			<g>
				<g>
					<g>
						<g>
							<g>
								<path class="st2" d="M486.7,117.5h7.8v1.8h-6l-0.2,3c0,0,2.8-1.6,5.5,0.7c0.5,0.4,2.9,2.9,1.4,7.8c-0.3,1-2,3.6-5.6,3.1
									c-0.2,0-2.9-0.7-3.9-3.7l1.7-0.4c0,0,1.3,2.7,3.1,2.5c0.9-0.1,3.3-0.7,3.2-4.6c0-0.3,0-3.7-2.9-4.2c-1-0.2-2.2,0-3.9,1.7
									l-0.8-0.5L486.7,117.5z"/>
							</g>
						</g>
						<g>
							<g>
								<path class="st2" d="M568.8,247.8h-7.9V246h6l0.2-3c0,0-2.8,1.6-5.5-0.7c-0.5-0.4-2.9-2.9-1.4-7.8c0.3-1,2-3.6,5.6-3.1
									c0.2,0,2.9,0.7,3.9,3.7l-1.7,0.4c0,0-1.3-2.7-3.1-2.5c-0.9,0.1-3.3,0.7-3.2,4.6c0,0.3,0,3.7,2.9,4.2c1,0.2,2.2,0,3.9-1.7
									l0.8,0.5L568.8,247.8z"/>
							</g>
						</g>
					</g>
				</g>
			</g>
		</g>
		<g>
			<g>
				<path class="st2" d="M490.8,137.7c0,0,1.4,4.5,4.7,6.3c0,0-3.2,1.7-4.7,6.2c-1.5-4.6-4.7-6.2-4.7-6.2
					C489.4,142.2,490.8,137.7,490.8,137.7z"/>
			</g>
			<g>
				<path class="st2" d="M564.7,227.6c0,0-1.4-4.5-4.7-6.3c0,0,3.2-1.7,4.7-6.2c1.5,4.6,4.7,6.2,4.7,6.2
					C566.1,223.1,564.7,227.6,564.7,227.6z"/>
			</g>
		</g>
	</g>
	<g>
		<g>
			<g>
				<g>
					<path class="st1" d="M552.8,134.6c-3.2-4.4-4.1-8-4.1-8s-0.9,3.7-4.1,8c-3.2,4.4-6.2,5.6-6.2,5.6s3,1.2,6.2,5.6
						c3.2,4.4,4.1,8,4.1,8s0.9-3.7,4.1-8c3.2-4.4,6.2-5.6,6.2-5.6S556.1,138.9,552.8,134.6z"/>
					<path class="st1" d="M510.8,134.6c-3.2-4.4-4.1-8-4.1-8s-0.9,3.7-4.1,8c-3.2,4.4-6.2,5.6-6.2,5.6s3,1.2,6.2,5.6
						c3.2,4.4,4.1,8,4.1,8s0.9-3.7,4.1-8c3.2-4.4,6.2-5.6,6.2-5.6S514,138.9,510.8,134.6z"/>
				</g>
				<g>
					<path class="st1" d="M531.8,177.1c-3.2-4.4-4.1-8-4.1-8s-0.9,3.7-4.1,8c-3.2,4.4-6.2,5.6-6.2,5.6s3,1.2,6.2,5.6
						c3.2,4.4,4.1,8,4.1,8s0.9-3.7,4.1-8c3.2-4.4,6.2-5.6,6.2-5.6S535,181.5,531.8,177.1z"/>
				</g>
				<g>
					<path class="st1" d="M552.8,219.7c-3.2-4.4-4.1-8-4.1-8s-0.9,3.7-4.1,8c-3.2,4.4-6.2,5.6-6.2,5.6s3,1.2,6.2,5.6
						c3.2,4.4,4.1,8,4.1,8s0.9-3.7,4.1-8c3.2-4.4,6.2-5.6,6.2-5.6S556.1,224,552.8,219.7z"/>
					<path class="st1" d="M510.8,219.7c-3.2-4.4-4.1-8-4.1-8s-0.9,3.7-4.1,8c-3.2,4.4-6.2,5.6-6.2,5.6s3,1.2,6.2,5.6
						c3.2,4.4,4.1,8,4.1,8s0.9-3.7,4.1-8c3.2-4.4,6.2-5.6,6.2-5.6S514,224,510.8,219.7z"/>
				</g>
			</g>
		</g>
		<g>
			<g>
				<g>
					<g>
						<g>
							<g>
								<path class="st2" d="M486.7,117.5h7.8v1.8h-6l-0.2,3c0,0,2.8-1.6,5.5,0.7c0.5,0.4,2.9,2.9,1.4,7.8c-0.3,1-2,3.6-5.6,3.1
									c-0.2,0-2.9-0.7-3.9-3.7l1.7-0.4c0,0,1.3,2.7,3.1,2.5c0.9-0.1,3.3-0.7,3.2-4.6c0-0.3,0-3.7-2.9-4.2c-1-0.2-2.2,0-3.9,1.7
									l-0.8-0.5L486.7,117.5z"/>
							</g>
						</g>
						<g>
							<g>
								<path class="st2" d="M568.8,247.8h-7.9V246h6l0.2-3c0,0-2.8,1.6-5.5-0.7c-0.5-0.4-2.9-2.9-1.4-7.8c0.3-1,2-3.6,5.6-3.1
									c0.2,0,2.9,0.7,3.9,3.7l-1.7,0.4c0,0-1.3-2.7-3.1-2.5c-0.9,0.1-3.3,0.7-3.2,4.6c0,0.3,0,3.7,2.9,4.2c1,0.2,2.2,0,3.9-1.7
									l0.8,0.5L568.8,247.8z"/>
							</g>
						</g>
					</g>
				</g>
			</g>
		</g>
		<g>
			<g>
				<path class="st2" d="M490.8,137.7c0,0,1.4,4.5,4.7,6.3c0,0-3.2,1.7-4.7,6.2c-1.5-4.6-4.7-6.2-4.7-6.2
					C489.4,142.2,490.8,137.7,490.8,137.7z"/>
			</g>
			<g>
				<path class="st2" d="M564.7,227.6c0,0-1.4-4.5-4.7-6.3c0,0,3.2-1.7,4.7-6.2c1.5,4.6,4.7,6.2,4.7,6.2
					C566.1,223.1,564.7,227.6,564.7,227.6z"/>
			</g>
		</g>
	</g>
	<g>
		<g>
			<g>
				<g>
					<path class="st1" d="M552.8,134.6c-3.2-4.4-4.1-8-4.1-8s-0.9,3.7-4.1,8c-3.2,4.4-6.2,5.6-6.2,5.6s3,1.2,6.2,5.6
						c3.2,4.4,4.1,8,4.1,8s0.9-3.7,4.1-8c3.2-4.4,6.2-5.6,6.2-5.6S556.1,138.9,552.8,134.6z"/>
					<path class="st1" d="M510.8,134.6c-3.2-4.4-4.1-8-4.1-8s-0.9,3.7-4.1,8c-3.2,4.4-6.2,5.6-6.2,5.6s3,1.2,6.2,5.6
						c3.2,4.4,4.1,8,4.1,8s0.9-3.7,4.1-8c3.2-4.4,6.2-5.6,6.2-5.6S514,138.9,510.8,134.6z"/>
				</g>
				<g>
					<path class="st1" d="M531.8,177.1c-3.2-4.4-4.1-8-4.1-8s-0.9,3.7-4.1,8c-3.2,4.4-6.2,5.6-6.2,5.6s3,1.2,6.2,5.6
						c3.2,4.4,4.1,8,4.1,8s0.9-3.7,4.1-8c3.2-4.4,6.2-5.6,6.2-5.6S535,181.5,531.8,177.1z"/>
				</g>
				<g>
					<path class="st1" d="M552.8,219.7c-3.2-4.4-4.1-8-4.1-8s-0.9,3.7-4.1,8c-3.2,4.4-6.2,5.6-6.2,5.6s3,1.2,6.2,5.6
						c3.2,4.4,4.1,8,4.1,8s0.9-3.7,4.1-8c3.2-4.4,6.2-5.6,6.2-5.6S556.1,224,552.8,219.7z"/>
					<path class="st1" d="M510.8,219.7c-3.2-4.4-4.1-8-4.1-8s-0.9,3.7-4.1,8c-3.2,4.4-6.2,5.6-6.2,5.6s3,1.2,6.2,5.6
						c3.2,4.4,4.1,8,4.1,8s0.9-3.7,4.1-8c3.2-4.4,6.2-5.6,6.2-5.6S514,224,510.8,219.7z"/>
				</g>
			</g>
		</g>
		<g>
			<g>
				<g>
					<g>
						<g>
							<g>
								<path class="st2" d="M486.7,117.5h7.8v1.8h-6l-0.2,3c0,0,2.8-1.6,5.5,0.7c0.5,0.4,2.9,2.9,1.4,7.8c-0.3,1-2,3.6-5.6,3.1
									c-0.2,0-2.9-0.7-3.9-3.7l1.7-0.4c0,0,1.3,2.7,3.1,2.5c0.9-0.1,3.3-0.7,3.2-4.6c0-0.3,0-3.7-2.9-4.2c-1-0.2-2.2,0-3.9,1.7
									l-0.8-0.5L486.7,117.5z"/>
							</g>
						</g>
						<g>
							<g>
								<path class="st2" d="M568.8,247.8h-7.9V246h6l0.2-3c0,0-2.8,1.6-5.5-0.7c-0.5-0.4-2.9-2.9-1.4-7.8c0.3-1,2-3.6,5.6-3.1
									c0.2,0,2.9,0.7,3.9,3.7l-1.7,0.4c0,0-1.3-2.7-3.1-2.5c-0.9,0.1-3.3,0.7-3.2,4.6c0,0.3,0,3.7,2.9,4.2c1,0.2,2.2,0,3.9-1.7
									l0.8,0.5L568.8,247.8z"/>
							</g>
						</g>
					</g>
				</g>
			</g>
		</g>
		<g>
			<g>
				<path class="st2" d="M490.8,137.7c0,0,1.4,4.5,4.7,6.3c0,0-3.2,1.7-4.7,6.2c-1.5-4.6-4.7-6.2-4.7-6.2
					C489.4,142.2,490.8,137.7,490.8,137.7z"/>
			</g>
			<g>
				<path class="st2" d="M564.7,227.6c0,0-1.4-4.5-4.7-6.3c0,0,3.2-1.7,4.7-6.2c1.5,4.6,4.7,6.2,4.7,6.2
					C566.1,223.1,564.7,227.6,564.7,227.6z"/>
			</g>
		</g>
	</g>
	<g>
		<g>
			<g>
				<g>
					<g>
						<g>
							<path id="XMLID_30_" class="st3" d="M25.3,42.8c3.1-3.8,2.4-9.4,2.4-9.4c-0.5,2.6-3.1,4.1-4.1,4.3c-3.7,0.6-5.5-2.1-5.7-2.5
								c-2.6-4.6,1.2-7.5,1.7-7.8c3.4-2.1,6.1,0.3,6.1,0.3c0.5,0.1,0.2-0.5,0.2-0.5c-2.8-1.5-2.9-4.1-2.8-5c0.6-5.2,5.7-5.1,5.7-5.1
								s5.1-0.1,5.7,5.1c0.1,0.9,0,3.5-2.8,5c0,0-0.3,0.6,0.2,0.5c0,0,2.7-2.4,6.1-0.3c0.6,0.3,4.3,3.2,1.7,7.8
								c-0.2,0.4-2,3.2-5.8,2.5c-1.1-0.2-3.7-1.7-4.1-4.3c0,0-0.7,5.6,2.4,9.4H25.3z"/>
						</g>
						<g>
							<path id="XMLID_29_" class="st3" d="M67.1,42.8c3.1-3.8,2.4-9.4,2.4-9.4c-0.5,2.6-3.1,4.1-4.1,4.3c-3.7,0.6-5.5-2.1-5.7-2.5
								c-2.6-4.6,1.2-7.5,1.7-7.8c3.4-2.1,6.1,0.3,6.1,0.3c0.5,0.1,0.2-0.5,0.2-0.5c-2.8-1.5-2.9-4.1-2.8-5c0.6-5.2,5.7-5.1,5.7-5.1
								s5.1-0.1,5.7,5.1c0.1,0.9,0,3.5-2.8,5c0,0-0.3,0.6,0.2,0.5c0,0,2.7-2.4,6.1-0.3c0.6,0.3,4.3,3.2,1.7,7.8
								c-0.2,0.4-2,3.2-5.8,2.5c-1.1-0.2-3.7-1.7-4.1-4.3c0,0-0.7,5.6,2.4,9.4H67.1z"/>
						</g>
					</g>
					<g>
						<g>
							<path id="XMLID_28_" class="st3" d="M25.3,88.7c3.1-3.8,2.4-9.4,2.4-9.4c-0.5,2.6-3.1,4.1-4.1,4.3c-3.7,0.6-5.5-2.1-5.7-2.5
								c-2.6-4.6,1.2-7.5,1.7-7.8c3.4-2.1,6.1,0.3,6.1,0.3C26.2,73.6,26,73,26,73c-2.8-1.5-2.9-4.1-2.8-5c0.6-5.2,5.7-5.1,5.7-5.1
								s5.1-0.1,5.7,5.1c0.1,0.9,0,3.5-2.8,5c0,0-0.3,0.6,0.2,0.5c0,0,2.7-2.4,6.1-0.3c0.6,0.3,4.3,3.2,1.7,7.8
								c-0.2,0.4-2,3.2-5.8,2.5c-1.1-0.2-3.7-1.7-4.1-4.3c0,0-0.7,5.6,2.4,9.4H25.3z"/>
						</g>
						<g>
							<path id="XMLID_27_" class="st3" d="M67.1,88.7c3.1-3.8,2.4-9.4,2.4-9.4c-0.5,2.6-3.1,4.1-4.1,4.3c-3.7,0.6-5.5-2.1-5.7-2.5
								c-2.6-4.6,1.2-7.5,1.7-7.8c3.4-2.1,6.1,0.3,6.1,0.3c0.5,0.1,0.2-0.5,0.2-0.5c-2.8-1.5-2.9-4.1-2.8-5c0.6-5.2,5.7-5.1,5.7-5.1
								s5.1-0.1,5.7,5.1c0.1,0.9,0,3.5-2.8,5c0,0-0.3,0.6,0.2,0.5c0,0,2.7-2.4,6.1-0.3c0.6,0.3,4.3,3.2,1.7,7.8
								c-0.2,0.4-2,3.2-5.8,2.5c-1.1-0.2-3.7-1.7-4.1-4.3c0,0-0.7,5.6,2.4,9.4H67.1z"/>
						</g>
					</g>
					<g>
						<g>
							<path id="XMLID_26_" class="st3" d="M74.1,108.8c-3.1,3.8-2.4,9.4-2.4,9.4c0.5-2.6,3.1-4.1,4.1-4.3c3.7-0.6,5.5,2.1,5.7,2.5
								c2.6,4.6-1.2,7.5-1.7,7.8c-3.4,2.1-6.1-0.3-6.1-0.3c-0.5-0.1-0.2,0.5-0.2,0.5c2.8,1.5,2.9,4.1,2.8,5
								c-0.6,5.2-5.7,5.1-5.7,5.1s-5.1,0.1-5.7-5.1c-0.1-0.9,0-3.5,2.8-5c0,0,0.3-0.6-0.2-0.5c0,0-2.7,2.4-6.1,0.3
								c-0.6-0.3-4.3-3.2-1.7-7.8c0.2-0.4,2-3.2,5.7-2.5c1.1,0.2,3.7,1.7,4.1,4.3c0,0,0.7-5.6-2.4-9.4H74.1z"/>
						</g>
						<g>
							<path id="XMLID_25_" class="st3" d="M32.3,108.8c-3.1,3.8-2.4,9.4-2.4,9.4c0.5-2.6,3.1-4.1,4.1-4.3c3.7-0.6,5.5,2.1,5.7,2.5
								c2.6,4.6-1.2,7.5-1.7,7.8c-3.4,2.1-6.1-0.3-6.1-0.3c-0.5-0.1-0.2,0.5-0.2,0.5c2.8,1.5,2.9,4.1,2.8,5
								c-0.6,5.2-5.7,5.1-5.7,5.1s-5.1,0.1-5.7-5.1c-0.1-0.9,0-3.5,2.8-5c0,0,0.3-0.6-0.2-0.5c0,0-2.7,2.4-6.1,0.3
								c-0.6-0.3-4.3-3.2-1.7-7.8c0.2-0.4,2-3.2,5.7-2.5c1.1,0.2,3.7,1.7,4.1,4.3c0,0,0.7-5.6-2.4-9.4H32.3z"/>
						</g>
					</g>
				</g>
				<g>
					<g>
						<path id="XMLID_24_" class="st3" d="M46.2,65.7c3.1-3.8,2.4-9.4,2.4-9.4c-0.5,2.6-3.1,4.1-4.1,4.3c-3.7,0.6-5.5-2.1-5.7-2.5
							c-2.6-4.6,1.2-7.5,1.7-7.8c3.4-2.1,6.1,0.3,6.1,0.3c0.5,0.1,0.2-0.5,0.2-0.5c-2.8-1.5-2.9-4.1-2.8-5c0.6-5.2,5.7-5.1,5.7-5.1
							s5.1-0.1,5.7,5.1c0.1,0.9,0,3.5-2.8,5c0,0-0.3,0.6,0.2,0.5c0,0,2.7-2.4,6.1-0.3c0.6,0.3,4.3,3.2,1.7,7.8
							c-0.2,0.4-2,3.2-5.7,2.5c-1.1-0.2-3.7-1.7-4.1-4.3c0,0-0.7,5.6,2.4,9.4H46.2z"/>
					</g>
					<g>
						<path id="XMLID_23_" class="st3" d="M53.2,85.9c-3.1,3.8-2.4,9.4-2.4,9.4c0.5-2.6,3.1-4.1,4.1-4.3c3.7-0.6,5.5,2.1,5.7,2.5
							c2.6,4.6-1.2,7.5-1.7,7.8c-3.4,2.1-6.1-0.3-6.1-0.3c-0.5-0.1-0.2,0.5-0.2,0.5c2.8,1.5,2.9,4.1,2.8,5c-0.6,5.2-5.7,5.1-5.7,5.1
							s-5.1,0.1-5.7-5.1c-0.1-0.9,0-3.5,2.8-5c0,0,0.3-0.6-0.2-0.5c0,0-2.7,2.4-6.1,0.3c-0.6-0.3-4.3-3.2-1.7-7.8
							c0.2-0.4,2-3.2,5.8-2.5c1.1,0.2,3.7,1.7,4.1,4.3c0,0,0.7-5.6-2.4-9.4H53.2z"/>
					</g>
				</g>
			</g>
		</g>
		<g>
			<g>
				<g>
					<g>
						<g>
							<path class="st4" d="M10.9,16.7c2.2,0,3.7,1.1,3.7,3.3c0,2-2.4,2.8-3.5,2.8c-1.1,0-3.8-0.7-3.8-2.9
								C7.4,17.8,9,16.7,10.9,16.7L10.9,16.7z M10.9,8.8L10.9,8.8c1.4,0,3.2,1.1,3.2,2.7c0,1.6-1.7,2.5-3.3,2.5S7.6,13,7.6,11.5
								C7.6,10.1,8.9,8.8,10.9,8.8L10.9,8.8z M8.4,15.3c0,0-3.4,1.6-3,5.1c0.1,1.2,1.7,4.1,5.6,4.1c3.9,0,5.1-2.8,5.3-3.6
								c1.1-3.6-3-5.6-3-5.6c1.6-0.8,2.7-2.5,2.6-3.7c-0.3-3.4-3.1-4.5-5.2-4.5c-2.1,0-5.1,1.7-4.9,4.3C6,14.1,8.4,15.3,8.4,15.3
								L8.4,15.3z"/>
						</g>
						<g>
							<path class="st4" d="M88.5,134.9c-2.2,0-3.7-1.1-3.7-3.3c0-2,2.4-2.8,3.5-2.8c1.1,0,3.8,0.7,3.8,2.9
								C92.1,133.8,90.4,134.9,88.5,134.9L88.5,134.9z M88.5,142.8L88.5,142.8c-1.4,0-3.2-1.1-3.2-2.7c0-1.6,1.7-2.5,3.3-2.5
								c1.6,0,3.2,1.1,3.2,2.5C91.8,141.5,90.5,142.8,88.5,142.8L88.5,142.8z M91.1,136.3c0,0,3.4-1.6,3-5.1
								c-0.1-1.3-1.7-4.1-5.6-4.1c-3.9,0-5.1,2.8-5.3,3.6c-1.1,3.6,3,5.6,3,5.6c-1.6,0.8-2.7,2.5-2.6,3.7c0.3,3.4,3.1,4.5,5.2,4.5
								c2.1,0,5.1-1.7,4.9-4.3C93.4,137.5,91.1,136.3,91.1,136.3L91.1,136.3z"/>
						</g>
					</g>
				</g>
			</g>
		</g>
		<g>
			<g>
				<path id="XMLID_16_" class="st3" d="M90.3,111.7c-1.4,1.7-1.1,4.2-1.1,4.2c0.2-1.2,1.4-1.8,1.8-1.9c1.6-0.3,2.4,0.9,2.5,1.1
					c1.1,2-0.5,3.3-0.8,3.5c-1.5,0.9-2.7-0.1-2.7-0.1c-0.2,0-0.1,0.2-0.1,0.2c1.2,0.7,1.3,1.8,1.3,2.2c-0.3,2.3-2.5,2.3-2.5,2.3
					s-2.2,0.1-2.5-2.3c0-0.4,0-1.5,1.3-2.2c0,0,0.1-0.3-0.1-0.2c0,0-1.2,1.1-2.7,0.1c-0.2-0.2-1.9-1.4-0.8-3.5
					c0.1-0.2,0.9-1.4,2.5-1.1c0.5,0.1,1.6,0.8,1.8,1.9c0,0,0.3-2.5-1.1-4.2H90.3z"/>
			</g>
			<g>
				<path id="XMLID_14_" class="st3" d="M9.1,39.9c1.4-1.7,1.1-4.2,1.1-4.2c-0.2,1.2-1.4,1.8-1.8,1.9c-1.6,0.3-2.4-0.9-2.5-1.1
					c-1.1-2,0.5-3.3,0.8-3.5c1.5-0.9,2.7,0.1,2.7,0.1c0.2,0,0.1-0.2,0.1-0.2c-1.2-0.7-1.3-1.8-1.3-2.2c0.3-2.3,2.5-2.3,2.5-2.3
					s2.2-0.1,2.5,2.3c0,0.4,0,1.5-1.3,2.2c0,0-0.1,0.3,0.1,0.2c0,0,1.2-1.1,2.7-0.1c0.2,0.1,1.9,1.4,0.8,3.5
					c-0.1,0.2-0.9,1.4-2.5,1.1c-0.5-0.1-1.6-0.8-1.8-1.9c0,0-0.3,2.5,1.1,4.2H9.1z"/>
			</g>
		</g>
	</g>
</g>
</svg>
