<?xml version="1.0" encoding="utf-8"?>
<!-- Generator: Adobe Illustrator 19.0.0, SVG Export Plug-In . SVG Version: 6.00 Build 0)  -->
<svg version="1.1" xmlns="http://www.w3.org/2000/svg" xmlns:xlink="http://www.w3.org/1999/xlink" x="0px" y="0px"
	 viewBox="0 0 99.4 151.6" style="enable-background:new 0 0 99.4 151.6;" xml:space="preserve">
<style type="text/css">
	.st0{fill:#FFFFFF;stroke:#000000;stroke-width:0.25;stroke-miterlimit:2.6131;}
	.st1{fill-rule:evenodd;clip-rule:evenodd;fill:#E52529;}
	.st2{fill:#E52529;}
	.st3{fill:#231F20;}
	.st4{fill-rule:evenodd;clip-rule:evenodd;fill:#DB4634;}
	.st5{fill-rule:evenodd;clip-rule:evenodd;fill:#0D4F9E;}
	.st6{fill-rule:evenodd;clip-rule:evenodd;fill:#030405;}
	.st7{fill-rule:evenodd;clip-rule:evenodd;fill:#231F20;}
	.st8{fill:#0D4F9E;}
	.st9{fill-rule:evenodd;clip-rule:evenodd;fill:#FFFFFF;}
</style>
<g id="Calque_2">
	<path id="XMLID_15_" class="st0" d="M99.3,5.3v140.9c0,2.9-2.3,5.2-5.2,5.2H5.3c-2.9,0-5.2-2.3-5.2-5.2V5.3c0-2.9,2.3-5.2,5.2-5.2
		h88.7C96.9,0.1,99.3,2.5,99.3,5.3z"/>
</g>
<g id="Calque_1">
	<g>
		<g>
			<g>
				<g>
					<path class="st1" d="M552.8,134.6c-3.2-4.4-4.1-8-4.1-8s-0.9,3.7-4.1,8c-3.2,4.4-6.2,5.6-6.2,5.6s3,1.2,6.2,5.6
						c3.2,4.4,4.1,8,4.1,8s0.9-3.7,4.1-8c3.2-4.4,6.2-5.6,6.2-5.6S556.1,138.9,552.8,134.6z"/>
					<path class="st1" d="M510.8,134.6c-3.2-4.4-4.1-8-4.1-8s-0.9,3.7-4.1,8c-3.2,4.4-6.2,5.6-6.2,5.6s3,1.2,6.2,5.6
						c3.2,4.4,4.1,8,4.1,8s0.9-3.7,4.1-8c3.2-4.4,6.2-5.6,6.2-5.6S514,138.9,510.8,134.6z"/>
				</g>
				<g>
					<path class="st1" d="M531.8,177.1c-3.2-4.4-4.1-8-4.1-8s-0.9,3.7-4.1,8c-3.2,4.4-6.2,5.6-6.2,5.6s3,1.2,6.2,5.6
						c3.2,4.4,4.1,8,4.1,8s0.9-3.7,4.1-8c3.2-4.4,6.2-5.6,6.2-5.6S535,181.5,531.8,177.1z"/>
				</g>
				<g>
					<path class="st1" d="M552.8,219.7c-3.2-4.4-4.1-8-4.1-8s-0.9,3.7-4.1,8c-3.2,4.4-6.2,5.6-6.2,5.6s3,1.2,6.2,5.6
						c3.2,4.4,4.1,8,4.1,8s0.9-3.7,4.1-8c3.2-4.4,6.2-5.6,6.2-5.6S556.1,224,552.8,219.7z"/>
					<path class="st1" d="M510.8,219.7c-3.2-4.4-4.1-8-4.1-8s-0.9,3.7-4.1,8c-3.2,4.4-6.2,5.6-6.2,5.6s3,1.2,6.2,5.6
						c3.2,4.4,4.1,8,4.1,8s0.9-3.7,4.1-8c3.2-4.4,6.2-5.6,6.2-5.6S514,224,510.8,219.7z"/>
				</g>
			</g>
		</g>
		<g>
			<g>
				<g>
					<g>
						<g>
							<g>
								<path class="st2" d="M486.7,117.5h7.8v1.8h-6l-0.2,3c0,0,2.8-1.6,5.5,0.7c0.5,0.4,2.9,2.9,1.4,7.8c-0.3,1-2,3.6-5.6,3.1
									c-0.2,0-2.9-0.7-3.9-3.7l1.7-0.4c0,0,1.3,2.7,3.1,2.5c0.9-0.1,3.3-0.7,3.2-4.6c0-0.3,0-3.7-2.9-4.2c-1-0.2-2.2,0-3.9,1.7
									l-0.8-0.5L486.7,117.5z"/>
							</g>
						</g>
						<g>
							<g>
								<path class="st2" d="M568.8,247.8h-7.9V246h6l0.2-3c0,0-2.8,1.6-5.5-0.7c-0.5-0.4-2.9-2.9-1.4-7.8c0.3-1,2-3.6,5.6-3.1
									c0.2,0,2.9,0.7,3.9,3.7l-1.7,0.4c0,0-1.3-2.7-3.1-2.5c-0.9,0.1-3.3,0.7-3.2,4.6c0,0.3,0,3.7,2.9,4.2c1,0.2,2.2,0,3.9-1.7
									l0.8,0.5L568.8,247.8z"/>
							</g>
						</g>
					</g>
				</g>
			</g>
		</g>
		<g>
			<g>
				<path class="st2" d="M490.8,137.7c0,0,1.4,4.5,4.7,6.3c0,0-3.2,1.7-4.7,6.2c-1.5-4.6-4.7-6.2-4.7-6.2
					C489.4,142.2,490.8,137.7,490.8,137.7z"/>
			</g>
			<g>
				<path class="st2" d="M564.7,227.6c0,0-1.4-4.5-4.7-6.3c0,0,3.2-1.7,4.7-6.2c1.5,4.6,4.7,6.2,4.7,6.2
					C566.1,223.1,564.7,227.6,564.7,227.6z"/>
			</g>
		</g>
	</g>
	<g>
		<g>
			<g>
				<g>
					<path class="st1" d="M552.8,134.6c-3.2-4.4-4.1-8-4.1-8s-0.9,3.7-4.1,8c-3.2,4.4-6.2,5.6-6.2,5.6s3,1.2,6.2,5.6
						c3.2,4.4,4.1,8,4.1,8s0.9-3.7,4.1-8c3.2-4.4,6.2-5.6,6.2-5.6S556.1,138.9,552.8,134.6z"/>
					<path class="st1" d="M510.8,134.6c-3.2-4.4-4.1-8-4.1-8s-0.9,3.7-4.1,8c-3.2,4.4-6.2,5.6-6.2,5.6s3,1.2,6.2,5.6
						c3.2,4.4,4.1,8,4.1,8s0.9-3.7,4.1-8c3.2-4.4,6.2-5.6,6.2-5.6S514,138.9,510.8,134.6z"/>
				</g>
				<g>
					<path class="st1" d="M531.8,177.1c-3.2-4.4-4.1-8-4.1-8s-0.9,3.7-4.1,8c-3.2,4.4-6.2,5.6-6.2,5.6s3,1.2,6.2,5.6
						c3.2,4.4,4.1,8,4.1,8s0.9-3.7,4.1-8c3.2-4.4,6.2-5.6,6.2-5.6S535,181.5,531.8,177.1z"/>
				</g>
				<g>
					<path class="st1" d="M552.8,219.7c-3.2-4.4-4.1-8-4.1-8s-0.9,3.7-4.1,8c-3.2,4.4-6.2,5.6-6.2,5.6s3,1.2,6.2,5.6
						c3.2,4.4,4.1,8,4.1,8s0.9-3.7,4.1-8c3.2-4.4,6.2-5.6,6.2-5.6S556.1,224,552.8,219.7z"/>
					<path class="st1" d="M510.8,219.7c-3.2-4.4-4.1-8-4.1-8s-0.9,3.7-4.1,8c-3.2,4.4-6.2,5.6-6.2,5.6s3,1.2,6.2,5.6
						c3.2,4.4,4.1,8,4.1,8s0.9-3.7,4.1-8c3.2-4.4,6.2-5.6,6.2-5.6S514,224,510.8,219.7z"/>
				</g>
			</g>
		</g>
		<g>
			<g>
				<g>
					<g>
						<g>
							<g>
								<path class="st2" d="M486.7,117.5h7.8v1.8h-6l-0.2,3c0,0,2.8-1.6,5.5,0.7c0.5,0.4,2.9,2.9,1.4,7.8c-0.3,1-2,3.6-5.6,3.1
									c-0.2,0-2.9-0.7-3.9-3.7l1.7-0.4c0,0,1.3,2.7,3.1,2.5c0.9-0.1,3.3-0.7,3.2-4.6c0-0.3,0-3.7-2.9-4.2c-1-0.2-2.2,0-3.9,1.7
									l-0.8-0.5L486.7,117.5z"/>
							</g>
						</g>
						<g>
							<g>
								<path class="st2" d="M568.8,247.8h-7.9V246h6l0.2-3c0,0-2.8,1.6-5.5-0.7c-0.5-0.4-2.9-2.9-1.4-7.8c0.3-1,2-3.6,5.6-3.1
									c0.2,0,2.9,0.7,3.9,3.7l-1.7,0.4c0,0-1.3-2.7-3.1-2.5c-0.9,0.1-3.3,0.7-3.2,4.6c0,0.3,0,3.7,2.9,4.2c1,0.2,2.2,0,3.9-1.7
									l0.8,0.5L568.8,247.8z"/>
							</g>
						</g>
					</g>
				</g>
			</g>
		</g>
		<g>
			<g>
				<path class="st2" d="M490.8,137.7c0,0,1.4,4.5,4.7,6.3c0,0-3.2,1.7-4.7,6.2c-1.5-4.6-4.7-6.2-4.7-6.2
					C489.4,142.2,490.8,137.7,490.8,137.7z"/>
			</g>
			<g>
				<path class="st2" d="M564.7,227.6c0,0-1.4-4.5-4.7-6.3c0,0,3.2-1.7,4.7-6.2c1.5,4.6,4.7,6.2,4.7,6.2
					C566.1,223.1,564.7,227.6,564.7,227.6z"/>
			</g>
		</g>
	</g>
	<g>
		<g>
			<g>
				<g>
					<path class="st1" d="M552.8,134.6c-3.2-4.4-4.1-8-4.1-8s-0.9,3.7-4.1,8c-3.2,4.4-6.2,5.6-6.2,5.6s3,1.2,6.2,5.6
						c3.2,4.4,4.1,8,4.1,8s0.9-3.7,4.1-8c3.2-4.4,6.2-5.6,6.2-5.6S556.1,138.9,552.8,134.6z"/>
					<path class="st1" d="M510.8,134.6c-3.2-4.4-4.1-8-4.1-8s-0.9,3.7-4.1,8c-3.2,4.4-6.2,5.6-6.2,5.6s3,1.2,6.2,5.6
						c3.2,4.4,4.1,8,4.1,8s0.9-3.7,4.1-8c3.2-4.4,6.2-5.6,6.2-5.6S514,138.9,510.8,134.6z"/>
				</g>
				<g>
					<path class="st1" d="M531.8,177.1c-3.2-4.4-4.1-8-4.1-8s-0.9,3.7-4.1,8c-3.2,4.4-6.2,5.6-6.2,5.6s3,1.2,6.2,5.6
						c3.2,4.4,4.1,8,4.1,8s0.9-3.7,4.1-8c3.2-4.4,6.2-5.6,6.2-5.6S535,181.5,531.8,177.1z"/>
				</g>
				<g>
					<path class="st1" d="M552.8,219.7c-3.2-4.4-4.1-8-4.1-8s-0.9,3.7-4.1,8c-3.2,4.4-6.2,5.6-6.2,5.6s3,1.2,6.2,5.6
						c3.2,4.4,4.1,8,4.1,8s0.9-3.7,4.1-8c3.2-4.4,6.2-5.6,6.2-5.6S556.1,224,552.8,219.7z"/>
					<path class="st1" d="M510.8,219.7c-3.2-4.4-4.1-8-4.1-8s-0.9,3.7-4.1,8c-3.2,4.4-6.2,5.6-6.2,5.6s3,1.2,6.2,5.6
						c3.2,4.4,4.1,8,4.1,8s0.9-3.7,4.1-8c3.2-4.4,6.2-5.6,6.2-5.6S514,224,510.8,219.7z"/>
				</g>
			</g>
		</g>
		<g>
			<g>
				<g>
					<g>
						<g>
							<g>
								<path class="st2" d="M486.7,117.5h7.8v1.8h-6l-0.2,3c0,0,2.8-1.6,5.5,0.7c0.5,0.4,2.9,2.9,1.4,7.8c-0.3,1-2,3.6-5.6,3.1
									c-0.2,0-2.9-0.7-3.9-3.7l1.7-0.4c0,0,1.3,2.7,3.1,2.5c0.9-0.1,3.3-0.7,3.2-4.6c0-0.3,0-3.7-2.9-4.2c-1-0.2-2.2,0-3.9,1.7
									l-0.8-0.5L486.7,117.5z"/>
							</g>
						</g>
						<g>
							<g>
								<path class="st2" d="M568.8,247.8h-7.9V246h6l0.2-3c0,0-2.8,1.6-5.5-0.7c-0.5-0.4-2.9-2.9-1.4-7.8c0.3-1,2-3.6,5.6-3.1
									c0.2,0,2.9,0.7,3.9,3.7l-1.7,0.4c0,0-1.3-2.7-3.1-2.5c-0.9,0.1-3.3,0.7-3.2,4.6c0,0.3,0,3.7,2.9,4.2c1,0.2,2.2,0,3.9-1.7
									l0.8,0.5L568.8,247.8z"/>
							</g>
						</g>
					</g>
				</g>
			</g>
		</g>
		<g>
			<g>
				<path class="st2" d="M490.8,137.7c0,0,1.4,4.5,4.7,6.3c0,0-3.2,1.7-4.7,6.2c-1.5-4.6-4.7-6.2-4.7-6.2
					C489.4,142.2,490.8,137.7,490.8,137.7z"/>
			</g>
			<g>
				<path class="st2" d="M564.7,227.6c0,0-1.4-4.5-4.7-6.3c0,0,3.2-1.7,4.7-6.2c1.5,4.6,4.7,6.2,4.7,6.2
					C566.1,223.1,564.7,227.6,564.7,227.6z"/>
			</g>
		</g>
	</g>
	<g>
		<g>
			<g>
				<path id="XMLID_266_" class="st3" d="M90.1,111.7c-1.4,1.7-1.1,4.2-1.1,4.2c0.2-1.2,1.4-1.8,1.8-1.9c1.6-0.3,2.4,0.9,2.5,1.1
					c1.1,2-0.5,3.3-0.8,3.5c-1.5,0.9-2.7-0.1-2.7-0.1c-0.2,0-0.1,0.2-0.1,0.2c1.2,0.7,1.3,1.8,1.3,2.2c-0.3,2.3-2.5,2.3-2.5,2.3
					s-2.2,0.1-2.5-2.3c0-0.4,0-1.5,1.3-2.2c0,0,0.1-0.3-0.1-0.2c0,0-1.2,1.1-2.7,0.1c-0.2-0.2-1.9-1.4-0.8-3.5
					c0.1-0.2,0.9-1.4,2.5-1.1c0.5,0.1,1.6,0.8,1.8,1.9c0,0,0.3-2.5-1.1-4.2H90.1z"/>
			</g>
			<g>
				<path id="XMLID_265_" class="st3" d="M9,39.9c1.4-1.7,1.1-4.2,1.1-4.2c-0.2,1.2-1.4,1.8-1.8,1.9c-1.6,0.3-2.4-0.9-2.5-1.1
					c-1.1-2,0.5-3.3,0.8-3.5c1.5-0.9,2.7,0.1,2.7,0.1c0.2,0,0.1-0.2,0.1-0.2C8,32.2,7.9,31.1,8,30.7c0.3-2.3,2.5-2.3,2.5-2.3
					s2.2-0.1,2.5,2.3c0,0.4,0,1.5-1.3,2.2c0,0-0.1,0.3,0.1,0.2c0,0,1.2-1.1,2.7-0.1c0.2,0.2,1.9,1.4,0.8,3.5
					c-0.1,0.2-0.9,1.4-2.5,1.1c-0.5-0.1-1.6-0.8-1.8-1.9c0,0-0.3,2.5,1.1,4.2H9z"/>
			</g>
		</g>
		<path id="XMLID_264_" class="st3" d="M9.7,7.1v2h2.5c0,0,0,10.8,0,11.1c0,0.3-0.1,0.9-0.4,1.3c-0.2,0.3-0.6,0.6-1.1,0.7
			c-0.6,0.1-2,0.2-2.4-1.3c-0.1-0.5-0.1-1.6-0.1-1.6H6.1c0,0,0,1.6,0.1,2.2c0.2,1,1.4,2.7,4.1,2.7c0.9,0,3.4-0.4,3.8-3.3
			c0.1-1.2,0.1-11.8,0.1-11.8h2.1v-2H9.7z"/>
		<path id="XMLID_263_" class="st3" d="M90.6,144.5v-2h-2.5c0,0,0-10.8,0-11.1c0-0.3,0.1-0.9,0.4-1.3c0.2-0.3,0.6-0.6,1.1-0.7
			c0.6-0.1,2-0.2,2.4,1.3c0.1,0.5,0.1,1.6,0.1,1.6h2.1c0,0,0-1.6-0.1-2.2c-0.2-1-1.4-2.7-4.1-2.7c-0.9,0-3.4,0.4-3.8,3.3
			c-0.1,1.2-0.1,11.8-0.1,11.8h-2.1v2H90.6z"/>
		<path id="XMLID_262_" class="st4" d="M34.5,114.9l-0.5,5.8c0,0-1.2-5.3-1.8-5.8c-0.6-0.5-2.2,0.8-2.5-1.5
			c-0.3-2.2,2.3-1.7,2.5-1.6C32.3,111.9,34.5,113.3,34.5,114.9z"/>
		<path id="XMLID_261_" class="st4" d="M36,108.3c-0.9,1.7-1.4,3.7-1.5,6.1c0,0-1.4-5.3-1.9-5.5c-0.5-0.2-1.5-0.2-1.7-0.1
			c-0.2,0-1.2-0.6-1-1.8c0.2-1.2,1.5-2.3,1.7-2.3c0,0,2.8,0.2,3.3,1.4C35.3,107.5,35.8,108.3,36,108.3z"/>
		<path id="XMLID_260_" class="st5" d="M35.1,110.3c0,0-2.7-5.3-3.4-5.5"/>
		<path id="XMLID_259_" class="st4" d="M64.6,36.7l0.5-5.8c0,0,1.2,5.3,1.8,5.8c0.6,0.5,2.2-0.8,2.5,1.5c0.3,2.2-2.3,1.7-2.5,1.6
			C66.8,39.7,64.6,38.3,64.6,36.7z"/>
		<path id="XMLID_258_" class="st4" d="M63.1,43.3c0.9-1.7,1.4-3.7,1.5-6.1c0,0,1.4,5.3,1.9,5.5c0.5,0.2,1.5,0.2,1.7,0.1
			c0.2,0,1.2,0.6,1,1.8c-0.2,1.2-1.5,2.3-1.7,2.3c0,0-2.8-0.2-3.3-1.4C63.9,44.1,63.3,43.3,63.1,43.3z"/>
		<path id="XMLID_257_" class="st6" d="M29.1,132.3c0,0-1.9-2.5-2.4-4.1c-0.5-1.6-1.9-5-1.9-5s-0.5-0.7,0.6-0.8
			c1.1-0.1,5.9,1,6.9,4.3l-0.4,0.4c0,0-1.1-4.1-6.7-4.2c0,0,2,5.6,2.3,6.1c0.2,0.5,1.3,2.9,2,2.8C30.3,131.8,29.1,132.3,29.1,132.3z
			"/>
		<path id="XMLID_256_" class="st4" d="M29.6,131.9l2.4-4.7c0,0-1.1-4.1-6.7-4.2c0,0,2,5.6,2.3,6.1C27.9,129.5,29,131.9,29.6,131.9z
			"/>
		<path id="XMLID_255_" class="st5" d="M30.5,130.2c0,0-0.9-0.7-1-0.8c-0.1-0.1,0.7-0.3,0.7-0.3s-0.8-0.7-1.3-0.8
			c-0.5-0.1,0.2-0.4,0.3-0.4c0.1,0-1-0.8-1.1-0.9c-0.1-0.1,0.1-0.4,0.3-0.4c0.3,0-0.3-0.4-0.6-0.5s-0.5-0.3-0.6-0.3
			c-0.1,0,0-0.4,0.3-0.3c0.4,0-0.4-0.4-0.7-0.5c-0.3-0.1-0.4-0.3,0.1-0.3c0.6,0-0.3-0.7,0.2-0.6c0.6,0.1,0.7-0.2,0.8,0.3
			c0,0.5,0.3,0.4,0.7,0.5c0.3,0.1,0.2,1.3,0.2,1.5c0,0.2,0.6,0.2,0.8,0c0.2-0.2,0.3,0.1,0.3,0.8c0.1,0.6,0.6,0.2,0.7,0.1
			c0.2-0.1,0.2,0.3,0.2,0.7c0,0.4,0.5,0.4,0.6,0.4C31.6,128.3,30.5,130.2,30.5,130.2z"/>
		<path class="st5" d="M23.2,120.5V43.8l-6.6-6.6v83.3L23.2,120.5L23.2,120.5z M22.8,43.9v76.2l-5.9,0V38L22.8,43.9z"/>
		<polygon id="XMLID_252_" class="st7" points="82.3,113.7 77.4,108.9 77.4,31.5 82.3,31.5 82.3,113.7 		"/>
		<polygon id="XMLID_251_" class="st4" points="36,108.2 34.7,106.1 36.9,106.6 		"/>
		<path id="XMLID_250_" class="st7" d="M63.8,90.5v20.1l-12.2-7.1l-6.1-4.6l-9.4,7.5c0,0-5.5-1.7-9.6-4.7c0,0,1.1-6-0.4-6.8l2.8-1.9
			l-5.2-12.6V56.6c0,0,1.1,5.7,13.4,6.5c0,0,9,2.1,14.4,11.4c0,0,2.9,10.3,14.1,11.9L63.8,90.5z"/>
		<polygon id="XMLID_249_" class="st4" points="21.7,42.8 22.8,43.9 22.8,120.1 21.7,120.1 		"/>
		<path id="XMLID_248_" class="st5" d="M36.7,107c0,0-5.8-1.6-10.5-5.1c0,0-2.7,2-3.6,1.8c-0.9-0.2-1.8-0.1-1.8-0.1
			s-1.5-0.2-0.9-1.6c0.6-1.4,2-1.4,2.4-1.5c0.4-0.1,0.4-5.6,0.4-5.6s1.5-0.9,3.2-0.2l1.8-1.3l-1.1-0.2l0.5-0.8l-1.2-0.4l0.6-0.7
			l-1-0.4l0.8-0.9l-1.4-0.3l0.8-1l-1-0.1l0.7-1l-1.1-0.1l0.6-1l-1-0.2l0.5-0.7l-0.7-0.3l0.5-0.8l-1-0.1l0.6-0.7L23,83.6l0.4-0.7
			L23,82.2V52.9c0,0,7.7,8.5,10.5,14.7c0,0,8.8,0.9,11.8,7.4l-7.2,4.4c0,0,3.3,15.1,0.8,25.3C38.9,104.9,36.8,106.8,36.7,107z"/>
		<path id="XMLID_247_" class="st5" d="M70.2,90.8c0.3,0.5,1.3,2,1.3,2s0,0,0,0c2.6,3.3,4.5,4.7,4.5,4.7v6.9l-12.6,6.2V90.3
			L70.2,90.8z"/>
		<path id="XMLID_246_" class="st7" d="M73.7,123.3l-0.5,0.5c1.5,0.8,2.4,2.3,2.4,4.1c0,2.6-2.1,4.7-4.7,4.7s-4.7-2.1-4.7-4.7
			c0-1.8,1-3.4,2.5-4.1l-0.4-0.5c-0.8,0.6-1.7,1-2.8,1c-2.4,0-4.4-2-4.4-4.4c0-2.4,2-4.4,4.4-4.4c2.3,0,4.2,1.8,4.4,4l0.6,0
			c0.3-4.2-1.7-7.5-1.7-7.5h4.5c-2.4,2.3-1.7,7.5-1.7,7.5l0.6,0.1c0.2-2.3,2.1-4.1,4.4-4.1c2.4,0,4.4,2,4.4,4.4c0,2.4-2,4.4-4.4,4.4
			C75.4,124.4,74.4,124,73.7,123.3z"/>
		<path id="XMLID_245_" class="st4" d="M46.8,125.7c0,0,1.8-9.2,1.8-11.2c0-2,0.8-7.6,3.2-9c0,0,3.2-1.5,4.3,0.6
			c0,0,1.1-0.1,1.5,0.8c0,0,1.1,0.1,1.2,0.5c0,0,1,0,1.1,0.4c0,0,1.1,0,1.5,0.6c0,0,1.1,0.3,1.3,0.8c0,0,1,0.3,1,0.8
			c0,0,1.3,0,1.3,1.2c0,0,0.9,4.5-3.3,3.5c0,0-0.4-0.4-0.6,0.3c-0.2,0.7-1.8,8.7-1.7,9.1L46.8,125.7z"/>
		<path id="XMLID_244_" class="st8" d="M48.1,125.4c0,0,1-4.3,1-5.5c0-0.8,0.3-4.3,1-7.4c0.4-1.8,0.9-3.5,1.5-4.4
			c0,0,0.1-0.1,0.2-0.3l0,0h0c0.4-0.6,1.1-1.7,1.8-1.7c0.1,0,0.2,0,0.2,0c0.4,0.1,0.7,0.3,0.9,0.6c0.2,0.3,0.4,0.7,0.4,1
			c0,0.1,0,0.2,0,0.3c0,0.2-0.1,0.4-0.2,0.5c-0.1,0.2-0.3,0.4-0.5,0.5l0,0c-0.2,0.1-0.4,0.1-0.6,0.1c-0.1,0-0.2-0.1-0.3-0.1l0,0
			c-0.6-0.4-0.5-1.1-0.5-1.1l0.3,0c0,0-0.1,0.6,0.3,0.8v0c0.1,0,0.1,0.1,0.2,0.1c0.1,0,0.3,0,0.4-0.1v0c0.1-0.1,0.3-0.2,0.4-0.3
			c0.1-0.1,0.1-0.3,0.2-0.4c0-0.1,0-0.1,0-0.2c0-0.3-0.1-0.6-0.3-0.8c-0.2-0.2-0.4-0.4-0.7-0.5c-0.1,0-0.1,0-0.2,0
			c-0.5,0-1.2,1-1.5,1.5c0,0.3,0.1,0.6,0.2,1c0.1,0.4,0.3,0.7,0.5,1c0.2,0.3,0.6,0.4,1,0.4c0.2,0,0.5,0,0.8-0.1
			c2-0.6,1.3-4.1,1.3-4.1l0.3-0.1c0,0,0.7,3.8-1.5,4.5c-0.2,0.1-0.3,0.1-0.5,0.1c0.2,0.2,0.5,0.4,0.8,0.4c0.4,0,0.9-0.2,1.6-0.7
			c1.3-1,0.8-3.3,0.8-3.3l0.3-0.1c0,0,0.5,2.6-1,3.7c-0.5,0.4-0.9,0.6-1.3,0.7c0.2,0.3,0.5,0.4,0.8,0.4l0,0c0.4,0,0.9-0.2,1.5-0.8
			c1.2-1.2,0.8-3.4,0.8-3.4l0.3-0.1c0,0,0.5,2.4-0.9,3.8c-0.5,0.5-1,0.8-1.4,0.9c0,0.1,0.1,0.1,0.1,0.2c0.1,0.1,0.3,0.2,0.5,0.2
			c0.2,0,0.5-0.1,0.8-0.2c0.4-0.2,0.8-0.6,1.1-1.1c0.9-1.5,0.5-3.3,0.5-3.3l0.3-0.1c0,0,0.4,1.9-0.6,3.5c-0.4,0.6-0.8,1-1.3,1.2
			l-0.1,0c0.1,0.1,0.4,0.2,0.6,0.3c0.3,0,0.7-0.1,1.2-0.5h0c0.1-0.1,0.2-0.1,0.2-0.2c1.2-1.2,1-3.7,1-3.7l0.3,0c0,0,0.2,2.7-1.1,3.9
			c-0.1,0.1-0.2,0.2-0.3,0.2h0c-0.4,0.3-0.7,0.5-1,0.5c0.3,0.2,0.6,0.4,0.9,0.3c0.3,0,0.7-0.2,1.1-0.4c0.2-0.1,0.3-0.3,0.5-0.4
			c0.9-1,0.8-3.3,0.8-3.3l0.3,0c0,0,0.1,2.4-0.9,3.6c-0.2,0.2-0.4,0.4-0.5,0.5c-0.3,0.2-0.5,0.3-0.8,0.4c0,0,0.1,0.1,0.1,0.1
			c0.2,0.2,0.4,0.3,0.5,0.4c0.1,0.1,0.2,0.1,0.4,0c0.3-0.1,0.6-0.4,1.2-1c1.1-1.2,0.7-3.2,0.7-3.2l0.3-0.1c0,0,0.4,2.1-0.8,3.5
			c-0.6,0.7-1,1-1.3,1.1c-0.4,0.2-0.6,0.1-0.7,0c-0.2-0.1-0.4-0.3-0.6-0.5c0,0-0.1-0.1-0.1-0.2c-1.4,1.8-2.2,10.7-2.2,10.8l-0.3,0
			c0,0,0.8-8.8,2.2-10.9c-0.4,0-0.7-0.2-1.1-0.5h0c-0.1-0.1-0.1-0.1-0.2-0.2h0l0,0.1c-0.5,0.3-2.2,11.7-2.2,11.7l-0.3-0.1
			c0,0,1.6-10.3,2.3-11.8c-0.3-0.1-0.5-0.2-0.6-0.4l0,0c-0.2,0.1-0.4,0.1-0.5,0.1l0.1,0.1c-0.4,0.3-2.5,12.3-2.5,12.3l-0.3-0.1
			c0,0,1.9-10.8,2.5-12.4c-0.2,0-0.4-0.1-0.5-0.3c-0.1-0.1-0.2-0.2-0.2-0.4l0,0c0,0,0,0-0.1,0l0,0.1c-0.3,0-0.6,1.3-0.9,2.6
			c-0.3,1.4-0.5,2.8-0.5,3.2c-0.1,0.8-1.3,7.3-1.3,7.3l-0.3-0.1c0,0,1.2-6.5,1.3-7.3c0-0.4,0.2-1.9,0.5-3.2c0.2-1.1,0.5-2.2,0.9-2.7
			c-0.3-0.1-0.5-0.3-0.8-0.5c-0.3,0.3-0.6,1.1-0.8,2.1c-0.4,1.8-0.7,4.2-0.7,5.1c0,1.5-1.1,6.6-1.1,6.6l-0.3-0.1
			c0,0,1.1-5.1,1.1-6.6c0-0.9,0.3-3.3,0.7-5.1c0.2-0.9,0.5-1.7,0.8-2.1c-0.3,0-0.6-0.2-0.9-0.5c-0.3,0.5-0.6,1.6-0.9,2.9
			c-0.5,2.3-0.9,5.2-0.9,6c-0.1,1.4-0.8,5.4-0.8,5.4l-0.3-0.1c0,0,0.8-4,0.8-5.3c0-0.8,0.4-3.7,1-6.1c0.3-1.3,0.6-2.5,0.9-3
			c-0.4-0.1-0.7-0.2-0.9-0.4c-0.2,0.2-0.4,0.8-0.6,1.4c-0.3,1-0.6,2.2-0.6,2.6c0,0.3-0.2,1.6-0.4,2.9c-0.2,1.1-0.3,2.1-0.3,2.4
			c0,0.5-0.8,6-0.8,6l-0.3-0.1c0,0,0.8-5.4,0.8-5.9c0-0.2,0.2-1.3,0.3-2.4c0.2-1.2,0.4-2.5,0.4-2.8c0-0.4,0.3-1.6,0.7-2.7
			c0.2-0.6,0.5-1.2,0.7-1.5c-0.2-0.3-0.4-0.6-0.5-0.9c-0.1-0.2-0.1-0.4-0.1-0.6c-0.6,0.8-1.1,2.4-1.4,4.1c-0.7,3.1-1,6.6-1,7.3
			c0,1.2-1,5.5-1,5.5L48.1,125.4z"/>
		<path id="XMLID_243_" class="st8" d="M33.5,124.2c0,0,0.7-7.4,0.7-8.1v0h0c0-1,0-10.6,6.9-12.4c0.2-0.1,3.1-1.2,9.1,3.7l-0.2,0.3
			c-6.1-4.9-8.8-3.7-8.8-3.7l0,0l0,0c-6.7,1.7-6.7,11.1-6.7,12.1l0,0v0c0,0.8-0.7,8.1-0.7,8.2L33.5,124.2z"/>
		<g>
			<path class="st5" d="M47.1,121c0,0-3.2,1-4.1,0.6c-0.8-0.4-2.1-0.8-1.9-0.1c0.3,0.7,2,1.1,2.9,1C44.9,122.4,47,121.5,47.1,121
				L47.1,121z M47.1,119.9c0,0,0.3,0.1-0.4,0.5c-2.4,0.8-4.3,0.2-4.6,0c-0.3-0.2-1-0.9-0.8-1c0.2-0.1,0.5-0.3,0.2-0.7
				c-0.3-0.3-0.3-0.7,0.8-1.5c1.1-0.8,2.8-1,2.6-0.8c-0.2,0.2-1.6,0.9-1,0.9s2.3,0.5,2.5,0.8c0.2,0.2,1.4,0.6,1.4,0.6
				s-0.2,0.1-1.6,0.8c-1.4,0.7-3.6,0.3-3.7,0.2c-0.1-0.1-1.3-0.7-0.9,0c0.3,0.6,2,0.8,2.6,0.8C45,120.5,47.1,119.9,47.1,119.9
				L47.1,119.9z M45.9,119.1c0,0,1.1-0.3,1.1-0.5c0-0.3-1.3-0.7-1.1-0.5C46,118.3,45.9,119.1,45.9,119.1L45.9,119.1z M45.1,119.2
				l0.4-0.1c0-0.2,0.1-1.1-1.1-1.2c-1.2-0.1-1.3,1-1.3,1l0.3,0.2c0,0,0-0.7,0.8-0.8C45,118.3,45.1,119.2,45.1,119.2L45.1,119.2z
				 M42.8,118.9c0,0,0.5-0.9,0.2-1.1c-0.3-0.2-0.9,0.4-0.9,0.6C42.1,118.6,42.8,118.9,42.8,118.9L42.8,118.9z M34.3,120.6
				c0,0,0.2,1.1,2.3,0.8c0,0,1.1-0.3,1.7-1.3c0,0-2.7,0.9-3.9-0.3L34.3,120.6L34.3,120.6z M34,122.1l0.2-3.2c0,0,0.2-0.9,0.4-1.2
				c0.2-0.3,2.4-0.4,2.7-0.5c0.3-0.1-0.7-0.8-0.9-1.1c-0.2-0.4,0.7,0.2,1.1,0.6c0.4,0.4,1,0.5,1,0.5c0.5,0-0.2-2.4-0.6-2.9
				c-0.4-0.5-0.4-1.1-0.4-1.1c0.1-1.5,2.1-1.6,2.1-1.6s-1.2,0.7-1.3,1.4c-0.2,0.7,0.5,2.2,0.7,2.7c0.2,0.5,0.3,1.5,0.1,3.8
				c-0.2,2.3-2.9,2.7-3.6,2.7C34.8,122.1,34,122.1,34,122.1L34,122.1z M38.5,119.3c0,0-0.9,0.8-1.7,1c-0.8,0.2-2.3-0.3-2.4-0.7
				c0-0.4,0.4-0.2,1.3,0.1C36.7,119.9,38.5,119.3,38.5,119.3L38.5,119.3z M36.9,119c0,0,0.4-0.3,0.4-0.4c0-0.1-0.2-1-1.1-1
				c-0.9,0-1.1,1-1.1,1l0.4,0.1c0,0,0.2-0.6,0.8-0.5C36.8,118.2,36.9,119,36.9,119L36.9,119z M37.9,118.8c0,0,0.5,0,0.7-0.2
				c0.1-0.2-0.4-0.7-0.7-0.8c-0.3-0.1-0.6,0.1-0.5,0.2C37.5,118.1,37.9,118.8,37.9,118.8L37.9,118.8z M42.1,114.1c0,0,1.1-1,0.4-1.6
				c-0.7-0.6-1.5,0.3-1.6,0.4c-0.1,0.1-0.7,0.5-1,0.2c-0.3-0.3-0.1-0.8,0.8-1.1c0.9-0.3,1.9-0.2,2.2,0.1c0.3,0.3,0.7,0.9-0.3,2.1
				c0,0-0.3,0.3-0.5,0.2C41.9,114.3,42.1,114.1,42.1,114.1L42.1,114.1z M43.5,110.1c0,0-1-0.6-1.8-0.1c-0.8,0.5-0.8-0.1-0.9-0.1
				c-0.1,0-0.3-0.2-0.8,0.1c-0.5,0.3-0.5,0.2-0.9-0.1c-0.4-0.2-0.6,0-0.9,0.2h-0.3v-1.5c0,0,0.4,0.1,0.5,0.1c0.1,0.1,0.9,0.1,1.4,0
				c0.5-0.2,1.2-0.4,2.1-0.2c1,0.2,0.6,0.4,1.4,0.2c0.8-0.1,1-0.1,0.8,0.1C44,109.1,43.5,110.1,43.5,110.1L43.5,110.1z M42.6,107.9
				c0,0-2.3-0.6-3.6,0c0,0-0.3,0,0-0.4c0.4-0.4,1-0.5,0.7-0.9c-0.3-0.4,0.1-0.3,0.4-0.1c0.4,0.2,1,0.2,1.3-0.1
				c0.3-0.3,0.5-0.1,0.2,0.2c-0.3,0.3,0.5,0.7,0.7,0.7C42.5,107.3,43,107.8,42.6,107.9L42.6,107.9z M35.9,108.6l-1.1-2.3L35.9,108.6
				z"/>
		</g>
		<path id="XMLID_228_" class="st5" d="M70.2,90.9c0,0.2,0,0.3,0,0.2l-4.7-0.3c0,0-9-0.9-15.4-8.4c-6.4-7.5-6.1-11.8-13.8-14
			l-5.3-0.9l-1.1-6.7c0,0,14.4,0.5,21.2,11.5C57.5,83.2,64,81.8,70.2,90.9z"/>
		<path id="XMLID_227_" class="st4" d="M58.7,106.8c0,0-0.7-1.1-1.1-1.5c-0.5-0.3-1,0.1-1.1,0.3c0,0-1.4-0.8-2.1-0.8
			c0,0,0.8-1.3,0.3-1.6s-1.7,0.1-1.7,0.1l-1.7-1.5c0,0,0.8-0.8,0.4-1.2c-0.5-0.4-1.7,0.2-1.7,0.2l-1.4-1.1c0,0,0.5-1,0.2-1.3
			c-0.3-0.3-0.7-0.6-1.7,0.1l-1.2-0.7c0,0,0.2-1.9-0.3-2.2c0,0-0.8-0.3-0.7,0.7c0,1-0.1,1.5-0.1,1.5L44,98.5c0,0-1.3-1.5-1.6-0.4
			c-0.3,1.1,0.1,1.3,0.1,1.3l-1.4,1c0,0-1.3-1.1-1.5-0.3l-0.1-1.9c0,0,1.3,0,1.4,0.5c0.1,0.5,0.9-4,3-2.1c0,0,0.3-2.4,1.6-2.3
			c1.3,0.1,1.7,2.1,1.7,2.3c0,0.2,2.6-0.8,2.9,1.3c0,0,0.1,1.4,0,1.5c-0.1,0.1,3.1-1.6,3.2,2.1c0,0,3.3-0.9,2.8,2.4
			c0,0,2.8-1.1,4.2,2.6C60.1,107.3,59,107,58.7,106.8z"/>
		<polygon id="XMLID_226_" class="st4" points="59.9,103.1 59.9,104.7 45.4,93.6 39.6,97.8 39.6,95.9 45.2,91.9 		"/>
		<polygon id="XMLID_225_" class="st4" points="52.5,105 46.1,100.1 38.8,104.8 39.3,102.4 45.6,98.1 54.3,104.9 		"/>
		<polygon id="XMLID_224_" class="st5" points="52.1,105.4 46,100.7 41.4,103.7 39.5,104.3 46.1,99.8 53.1,105.2 		"/>
		<path id="XMLID_223_" class="st1" d="M55.6,87.1c1.5,0.9,3,1.6,4.3,2.2v11.3l-4.3-3V87.1z"/>
		<polygon id="XMLID_222_" class="st5" points="16.8,120.1 16.8,130.4 26.7,120.1 		"/>
		<polygon id="XMLID_221_" class="st4" points="16.8,120.8 16.8,129.2 25,120.8 		"/>
		<polygon id="XMLID_220_" class="st1" points="16.8,121.9 16.8,127.4 22.6,121.9 		"/>
		<polygon id="XMLID_219_" class="st9" points="33.9,105.2 34.3,104.6 35.1,105.1 34.9,105.5 36.9,106.2 38.2,105.1 38.6,102.4 
			34.2,101.8 34.4,99.8 35.6,99.8 35.6,100.6 38.8,101.3 39,96.7 34.9,96.4 34.8,94.6 35.9,94.4 36.1,95.3 39.2,95.3 39.1,91.5 
			34.7,91.5 34.7,89.9 35.9,89.7 35.9,90.3 38.9,90.3 38.6,86.4 34.4,86.9 34.1,84.8 35,84.6 35.3,85.5 38.3,85.1 37.8,81.5 
			33.7,82 33.2,79.8 34.4,79.6 34.8,80.4 37.4,79.8 36.2,76.2 32.5,77 31.9,75.2 32.8,74.7 33.2,75.5 35.8,74.8 34.5,71.1 
			30.6,72.4 29.9,70.7 30.8,70.1 31.3,71 34,70 32.2,66.4 28.7,68.2 27.6,66.5 28.7,66 29.1,66.8 31.5,65.4 29.4,61.8 26.1,63.8 
			25,62.1 25.8,61.5 26.3,62.1 29,60.6 26.7,58 23.5,59.9 23.5,60.7 26.1,59 27.3,60.3 26.6,61 25.9,60.5 23.5,62.2 25.6,65.2 
			29.1,63.2 30.3,64.9 29.3,65.6 28.9,64.9 26.1,66.3 27.7,69.4 31.6,67.7 32.4,69.1 31.8,69.6 31.3,69 28.4,70.4 29.6,73.8 
			34.1,72.4 34.9,74.3 34,74.6 33.5,73.8 30.1,74.8 31.2,77.9 35.6,77.2 36.2,79.1 35.1,79.4 34.8,78.3 31.4,79.1 32.4,83 
			36.7,82.4 37.2,84.2 36.1,84.5 35.9,83.6 32.6,84.3 33.2,87.6 37.6,87.5 37.8,89.3 36.8,89.5 36.6,88.8 33.3,88.9 33.6,92.3 
			37.9,92.3 37.9,94.4 36.7,94.4 36.7,93.6 33.6,93.5 33.7,97.5 37.6,97.8 37.5,100.2 36.5,100.1 36.4,98.8 33.6,98.9 33.1,102.2 
			37.2,103.2 37,104.8 36,104.9 35.8,104.2 33.1,103.4 32.9,104.7 		"/>
		<path id="XMLID_218_" class="st9" d="M24.8,102.2c-2,1.2-2.5,1-2.6,0.9c-0.2-0.1-0.7,0.4-0.8-0.1c-0.1-0.5-0.1-1.3-0.4-0.5
			c-0.3,0.8-0.5,0.6-0.8,0.3c-0.3-0.2-0.5-0.8,0.4-1.2c1-0.4,1.7-0.5,2-0.8c0.3-0.3,1.2-1,1-1.4c-0.2-0.4-0.8-0.5-0.7-1.6
			c0.1-1.1-0.2-3,0.8-3c1.1,0.1,2.7,0.2,2.8,2.1C26.7,99,27.3,100.8,24.8,102.2z"/>
		<path id="XMLID_217_" class="st7" d="M27.6,101.9c0.3-1,1.1-4.2-0.2-7.3l0,0c0.7-0.7,2-1.7,3.7-2.2c-0.7,1-2.2,3.1-1.9,3.3
			c0.4,0.4,1.3,1.1,1.3,1.1l-1.5,1.7l1.6,1.8l-1.6,1.3l1,1.6L27.6,101.9z"/>
		<polygon id="XMLID_216_" class="st7" points="69.3,107.1 69.3,91.3 73.3,96.7 73.3,105 		"/>
		<path id="XMLID_215_" class="st4" d="M54.7,86.6c-1.6-1.1-3.2-2.5-4.7-4.2c-1.9-2.2-3.2-4.2-4.3-5.9v13.3l9,6.8V86.6z"/>
		<path id="XMLID_214_" class="st1" d="M39.8,93.5l3.4-2.4l0.1-14.7l-5.2,3.3C38.1,79.7,39.4,85,39.8,93.5z"/>
		<path id="XMLID_213_" class="st1" d="M32.8,90.4l-4.4,2.4c0,0-3.1-9.1-5.2-11.7V63.3C23.3,63.3,31.3,73.4,32.8,90.4z"/>
		<path id="XMLID_212_" class="st7" d="M31.5,90l-2.1,1.1c0,0-3.4-8.8-5-9.9V68.3C24.3,68.3,30.6,79.1,31.5,90z"/>
		<path class="st7" d="M53.8,86c0.1,0.1,0.2,0.2,0.4,0.3c-0.2,2-1.9,3.6-3.9,3.6c-2.2,0-4-1.8-4-4c0-2,1.4-3.6,3.3-3.9
			c0.1,0.1,0.2,0.2,0.3,0.3c-0.7,0.1-1.3,0.3-1.8,0.7c0,0.1,0.1,0.2,0.1,0.3c0.5,0.9,1.2,1.1,1.8,0.6c0.2-0.2,0.4-0.6,0.4-1
			c0.1,0.1,0.2,0.2,0.3,0.4c0,0.6,0.4,1,0.9,1c0,0,0,0,0.1,0c0.2,0.2,0.4,0.4,0.6,0.6c-0.1,0.3,0,0.6,0.2,0.8
			C52.8,85.8,53.3,86,53.8,86L53.8,86z M47.9,88.6c0.6,0.5,1.3,0.8,2.1,0.9c0.3-0.9-0.1-1.7-0.8-1.7C48.8,87.8,48.3,88.1,47.9,88.6
			L47.9,88.6z M46.7,86c0,0.8,0.4,1.6,0.9,2.2c0,0,0.1,0,0.1-0.1c0.8-0.5,1.1-1.3,0.6-1.8C47.9,86.1,47.3,85.9,46.7,86L46.7,86z
			 M47.7,83.3c-0.6,0.6-0.9,1.3-1,2.2c0.1,0,0.2,0.1,0.3,0.1c0.9,0.3,1.7-0.1,1.7-0.8C48.6,84.3,48.2,83.7,47.7,83.3L47.7,83.3z
			 M52.8,88.4c0.5-0.5,0.9-1.3,1-2c-0.9-0.2-1.6,0.1-1.6,0.9C52.2,87.6,52.5,88,52.8,88.4L52.8,88.4z M50.4,89.5
			c0.8,0,1.5-0.4,2.1-0.8c-0.5-0.8-1.2-1-1.7-0.5C50.5,88.4,50.4,88.9,50.4,89.5L50.4,89.5z M46.9,80.3l1.2,1.2l-1.1,0L46.9,80.3
			L46.9,80.3z M53.7,91.3l-1.2-1.2l1.1,0L53.7,91.3L53.7,91.3z M50.9,90.8v1.7l-0.8-0.8L50.9,90.8L50.9,90.8z M53.6,92.1l-2-1.8v2.8
			l2,1.4V92.1z"/>
		<path id="XMLID_201_" class="st4" d="M31,92.4c-0.7,1-2.2,3.1-1.9,3.3c0.4,0.4,1.3,1.1,1.3,1.1l-1.5,1.7l1.6,1.8l-1.6,1.3l1,1.6
			l2.2,1.2c1.4-3.2,0.6-12.5,0.6-12.5C32.2,92.1,31.6,92.2,31,92.4z"/>
		<path class="st9" d="M64.3,109.7l2.6-1.4v-0.9h-3v2.3H64.3L64.3,109.7z M67.5,108v-1.3H64v-3.7h3v1h1V102h-3.9v-4.3h3v1.1h0.8
			v-2.1H64V93h3v0.9h1v-2h-4v-1.8l1.1,0.3v0.9h3.8v3.8h-2.8v-1.1H65V96h3.8v3.9H66v-0.9h-1v1.7h3.8v4h-2.7V104h-1v1.7h3.6v1.7
			L67.5,108z"/>
		<polygon id="XMLID_198_" class="st6" points="32.5,103.7 31.6,101.8 33.4,100.1 31.8,98.1 33.4,96.2 31.7,95 33.2,92.5 33.1,91.8 
			31,94.9 32.6,96.3 31.1,98 32.6,100 31,101.6 32.4,104.8 		"/>
		<path id="XMLID_197_" class="st4" d="M27.4,94.6c1.3,3.1,0.5,6.3,0.2,7.3l-1-0.6c0,0,1.1-4.4,0.1-5.9
			C26.6,95.4,26.9,95.1,27.4,94.6z"/>
		<polygon id="XMLID_196_" class="st7" points="37.6,78.2 36.5,74.4 41.4,71 44.1,74.2 		"/>
		<path id="XMLID_195_" class="st4" d="M44.1,74.1c0.2,0.3,0.5,0.6,0.7,0.9L38,79.1l-0.3-0.9L44.1,74.1z"/>
		<path id="XMLID_194_" class="st4" d="M40.7,70.5c0.3,0.2,0.5,0.4,0.7,0.6l-5,3.3l-0.3-1L40.7,70.5z"/>
		<polygon id="XMLID_193_" class="st4" points="63.1,43.4 64.4,45.5 62.2,45 		"/>
		<path id="XMLID_192_" class="st7" d="M35.3,61.1V41l12.2,7.1l6.1,4.6l9.4-7.5c0,0,5.5,1.7,9.6,4.7c0,0-1.1,6,0.4,6.8l-2.8,1.9
			l5.2,12.6V95c0,0-1.1-5.7-13.4-6.5c0,0-9-2.1-14.4-11.4c0,0-4.1-9.3-15.4-10.9L35.3,61.1z"/>
		<polygon id="XMLID_191_" class="st4" points="77.4,108.8 76.3,107.7 76.3,31.5 77.4,31.5 		"/>
		<path id="XMLID_190_" class="st5" d="M62.4,44.6c0,0,5.8,1.6,10.5,5.1c0,0,2.6-2,3.6-1.8c0.9,0.2,1.8,0.1,1.8,0.1s1.5,0.2,0.9,1.6
			c-0.6,1.4-2,1.4-2.4,1.5c-0.4,0.1-0.4,5.6-0.4,5.6s-1.5,0.9-3.2,0.2l-1.8,1.3l1.1,0.2L72,59.2l1.2,0.4l-0.6,0.7l1,0.4l-0.8,0.9
			l1.4,0.3l-0.8,1l1,0.1l-0.7,1l1.1,0.1l-0.6,1l1,0.2l-0.5,0.7l0.7,0.3L75,66.9l1,0.1l-0.6,0.7l0.7,0.2l-0.4,0.7l0.4,0.7v29.3
			c0,0-7.7-8.5-10.5-14.7c0,0-8.8-0.9-11.8-7.4l7.2-4.4c0,0-3.2-15.1-0.8-25.3C60.2,46.7,62.3,44.8,62.4,44.6z"/>
		<path id="XMLID_189_" class="st5" d="M28,59.5c-0.3-0.5-0.5-0.7-0.5-0.7s0,0,0,0c-2.6-3.3-4.5-4.7-4.5-4.7v-6.9L35.6,41v20.3
			l5.6,8.6l-5.1,3.6c-1.1-2.6-2.4-5.2-3.7-7.4C30.9,63.5,29.4,61.2,28,59.5z"/>
		<path id="XMLID_188_" class="st7" d="M25.5,28.3l0.5-0.5c-1.5-0.8-2.4-2.3-2.4-4.1c0-2.6,2.1-4.7,4.7-4.7c2.6,0,4.7,2.1,4.7,4.7
			c0,1.8-1,3.4-2.5,4.1l0.4,0.5c0.8-0.6,1.7-1,2.8-1c2.4,0,4.4,2,4.4,4.4c0,2.4-2,4.4-4.4,4.4c-2.3,0-4.2-1.8-4.4-4l-0.6,0
			c-0.3,4.2,1.7,7.5,1.7,7.5h-4.5c2.4-2.3,1.7-7.5,1.7-7.5L27,31.9c-0.2,2.3-2.1,4.1-4.4,4.1c-2.4,0-4.4-2-4.4-4.4
			c0-2.4,2-4.4,4.4-4.4C23.7,27.2,24.7,27.6,25.5,28.3z"/>
		<path id="XMLID_187_" class="st4" d="M69.5,19.7l-2.4,4.7c0,0,1.1,4.1,6.7,4.2c0,0-2-5.6-2.3-6.1C71.2,22,70.1,19.7,69.5,19.7z"/>
		<path id="XMLID_186_" class="st4" d="M52.3,25.9c0,0-1.8,9.2-1.8,11.2c0,2-0.8,7.6-3.2,9c0,0-3.2,1.5-4.3-0.6c0,0-1.1,0.1-1.5-0.8
			c0,0-1.1-0.1-1.2-0.5c0,0-1,0-1.1-0.4c0,0-1.1,0-1.5-0.6c0,0-1.1-0.3-1.3-0.8c0,0-1-0.3-1-0.8c0,0-1.3,0-1.3-1.2
			c0,0-0.9-4.5,3.3-3.5c0,0,0.4,0.4,0.6-0.3c0.2-0.7,1.8-8.7,1.7-9.1L52.3,25.9z"/>
		<path id="XMLID_185_" class="st5" d="M33,67.4c-1.5-2.8-3.1-5.1-4.1-6.7c0-0.2,0-0.3,0-0.2l4.7,0.3c0,0,9,0.9,15.4,8.4
			c6.4,7.5,6.1,11.8,13.8,14l5.3,0.9l1.1,6.7c0,0-14.4-0.5-21.2-11.5C41.7,68.6,36.3,67.3,33,67.4z"/>
		<path id="XMLID_184_" class="st4" d="M29.1,61.1l4.6,0.5l2.5,0.5c0.7,0.2,1.3,0.4,1.9,0.6l1.1,0.4l0.6,0.2l1.2,0.6l1.2,0.7
			l0.6,0.4l0.6,0.4l0.6,0.4l0.6,0.5l0.6,0.5l0.6,0.5l0.6,0.6l0.6,0.6l0.6,0.6l0.6,0.7c0.4,0.5,0.9,1.1,1.3,1.6
			c0.6,0.8,1.2,1.6,1.7,2.4c1,1.4,1.9,2.9,2.8,4.3c0.4,0.5,0.8,1,1.1,1.5l0.7,0.8l0.4,0.4l0.4,0.4l0.4,0.4l0.4,0.3l0.5,0.3l0.5,0.3
			l0.5,0.3l0.6,0.3l0.6,0.3l0.6,0.2l0.7,0.2l0.8,0.2l3.6,0.8l2.7,5.3c-1-0.1-1.6-0.2-2.6-0.4c-0.4-0.1-0.8-0.1-1.2-0.2
			c-0.7-0.2-1.4-0.3-2.1-0.5l-0.8-0.2l-0.8-0.3l-0.8-0.3l-0.8-0.3L59,87.4L58.2,87l-0.9-0.4l-0.9-0.5l-0.9-0.5L54.7,85l-0.8-0.6
			l-0.8-0.7l-0.8-0.7l-0.8-0.7l-0.7-0.8l-0.7-0.9l-0.7-0.9l-0.6-1l-0.6-1l-0.6-1l-0.6-0.9L46.3,75l-0.6-0.8L45,73.5l-0.6-0.7
			l-0.6-0.7l-0.6-0.6L42.7,71l-0.6-0.5L41.6,70L41,69.5l-0.5-0.4l-0.5-0.4l-0.5-0.3l-0.5-0.3l-0.5-0.3l-0.5-0.2l-0.5-0.2l-0.9-0.3
			l-0.9-0.2l-0.8-0.1c-0.4,0-0.8-0.1-1.2-0.1c-0.4,0-0.5,0-0.9,0C31.5,64.8,30.4,62.9,29.1,61.1z"/>
		<path class="st7" d="M64.3,85.6c1.3,0,2.3,1.1,2.3,2.4c0,0.3-0.1,0.7-0.2,1c0.7,0.1,0.8,0.1,1.3,0.2l-1.6-3.7l-3.7-0.7
			c0,0,0,0-0.1,0c-0.2,1.1-1.2,1.8-2.3,1.8c-1.3,0-2.3-1.1-2.3-2.4c0-0.5,0.1-0.9,0.3-1.2c-0.7-0.4-1.3-0.9-1.9-1.5
			c0.2,0.3,0.2,0.7,0.2,1.1c0,0.9-0.5,1.7-1.2,2.1c0.1,0,0.1,0.1,0.2,0.1l1.6,1c0.8,0.5,1.6,0.9,2.5,1.3c0.8,0.3,1.6,0.6,2.4,0.9
			c0,0,0-0.1,0-0.1C61.9,86.7,63,85.6,64.3,85.6L64.3,85.6z M51.2,74.9c-0.2-0.3-0.4-0.6-0.6-0.9c-1-1.4-2-2.8-3.2-4.1
			c-0.4,0.5-1.1,0.8-1.8,0.8c-1.3,0-2.4-1.1-2.4-2.4c0-0.6,0.2-1.2,0.6-1.6c-0.7-0.5-1.4-0.9-2.1-1.4c-1.3-0.7-2.6-1.3-4-1.8
			c0,1.1-0.8,2.1-1.9,2.3c0.5,0.1,1,0.3,1.5,0.4c0.3-0.9,1.2-1.5,2.2-1.5c1.3,0,2.4,1.1,2.4,2.4c0,0.5-0.2,1-0.5,1.4
			c0.7,0.5,1.3,1.1,2,1.6c0.6,0.6,1.2,1.2,1.8,1.9c0.1,0.1,0.2,0.2,0.3,0.3c0.4-0.4,1-0.7,1.7-0.7c1.3,0,2.4,1.1,2.4,2.4
			c0,0.9-0.5,1.7-1.2,2.1c0,0,0,0,0.1,0.1c0.6,1,1.3,2,1.9,2.9l1.3,1.7c0.2,0.2,0.3,0.5,0.5,0.7c0.4-0.7,1.2-1.3,2.1-1.3
			c0.4,0,0.7,0.1,1.1,0.3c-0.5-0.6-1-1.2-1.4-1.8c-0.4,0.5-1,0.7-1.7,0.7c-1.3,0-2.4-1.1-2.4-2.4C49.7,76.1,50.3,75.3,51.2,74.9
			L51.2,74.9z M59.7,83.8c0.2,0.1,0.4,0.2,0.6,0.3c0.2,0.1,0.4,0.1,0.6,0.2c0,0,0,0,0,0c0,0.4-0.3,0.7-0.7,0.7
			c-0.4,0-0.7-0.3-0.7-0.7C59.5,84.1,59.6,84,59.7,83.8L59.7,83.8z M64,88.6c-0.2-0.1-0.4-0.3-0.4-0.6c0-0.4,0.3-0.7,0.7-0.7
			c0.4,0,0.7,0.3,0.7,0.7c0,0.3-0.2,0.6-0.6,0.7C64.3,88.7,64.1,88.6,64,88.6L64,88.6z M46.5,73.6c0.1-0.3,0.3-0.5,0.7-0.5
			c0.4,0,0.7,0.3,0.7,0.7c0,0.4-0.3,0.7-0.7,0.7l0,0C46.9,74.2,46.7,73.9,46.5,73.6L46.5,73.6z M38.8,66.9c0.1-0.3,0.3-0.4,0.6-0.4
			c0.4,0,0.7,0.3,0.7,0.7c0,0.2,0,0.3-0.1,0.4C39.6,67.4,39.2,67.1,38.8,66.9L38.8,66.9z M34.3,65.7c-0.6,0-1.2,0-1.8,0
			c-0.3,0-0.4-0.1-0.6-0.3c-0.5-0.7-0.9-2.4-1.1-3.3l2.5,0.4c-0.2,0.3-0.2,0.7-0.2,1.1C33,64.5,33.6,65.3,34.3,65.7L34.3,65.7z
			 M36,63c0,0.1,0,0.1,0,0.2c0,0.4-0.3,0.7-0.7,0.7c-0.4,0-0.7-0.3-0.7-0.7c0-0.2,0.1-0.3,0.2-0.5C35.2,62.8,35.6,62.9,36,63L36,63z
			 M46.1,68.7c-0.1,0.3-0.3,0.5-0.7,0.5c-0.4,0-0.7-0.3-0.7-0.7c0-0.3,0.2-0.5,0.4-0.6C45.5,68.1,45.8,68.4,46.1,68.7L46.1,68.7z
			 M54.2,82c0.4,0,0.7,0.3,0.7,0.7c0,0.4-0.3,0.7-0.7,0.7c-0.4,0-0.7-0.3-0.7-0.7C53.5,82.3,53.8,82,54.2,82L54.2,82z M51.7,76.5
			c0.4,0,0.7,0.3,0.7,0.7c0,0.4-0.3,0.7-0.7,0.7c-0.4,0-0.7-0.3-0.7-0.7C51.1,76.8,51.4,76.5,51.7,76.5z"/>
		<path id="XMLID_136_" class="st4" d="M40.4,44.8c0,0,0.7,1.1,1.1,1.5c0.5,0.3,1-0.1,1.1-0.3c0,0,1.4,0.8,2.1,0.8
			c0,0-0.8,1.3-0.3,1.6c0.5,0.3,1.7-0.1,1.7-0.1l1.7,1.5c0,0-0.8,0.8-0.4,1.2c0.5,0.4,1.7-0.2,1.7-0.2l1.4,1.1c0,0-0.5,1-0.2,1.3
			c0.3,0.3,0.7,0.6,1.7-0.1l1.2,0.7c0,0-0.2,1.9,0.3,2.2c0,0,0.8,0.3,0.7-0.7c0-1,0.1-1.5,0.1-1.5l0.9-0.8c0,0,1.3,1.5,1.6,0.4
			c0.3-1.1-0.1-1.3-0.1-1.3l1.4-1c0,0,1.3,1.1,1.5,0.3l0.1,1.9c0,0-1.3,0-1.4-0.5c-0.1-0.5-0.9,4-3,2.1c0,0-0.3,2.4-1.6,2.3
			C52.4,57.2,52,55.2,52,55c0-0.2-2.6,0.8-2.9-1.3c0,0-0.1-1.4,0-1.5c0.1-0.1-3.1,1.6-3.2-2.1c0,0-3.3,0.9-2.8-2.4
			c0,0-2.8,1.1-4.2-2.6C39,44.3,40.1,44.5,40.4,44.8z"/>
		<polygon id="XMLID_135_" class="st4" points="39.2,48.5 39.2,46.9 53.7,58 59.5,53.8 59.5,55.7 53.9,59.7 		"/>
		<polygon id="XMLID_134_" class="st4" points="46.6,46.6 53,51.5 60.3,46.8 59.8,49.2 53.5,53.5 44.8,46.7 		"/>
		<polygon id="XMLID_133_" class="st5" points="47,46.2 53.1,50.9 57.7,47.9 59.6,47.3 53,51.8 46,46.4 		"/>
		<path id="XMLID_132_" class="st1" d="M43.6,64.5c-1.5-0.9-3-1.6-4.3-2.2V51l4.3,3V64.5z"/>
		<path class="st5" d="M75.9,31.1v76.7l6.6,6.6V31.1L75.9,31.1L75.9,31.1z M76.3,107.7V31.5l5.9,0v82.1L76.3,107.7z"/>
		<path class="st4" d="M80.4,103.7c0.7,0,1.3,0.6,1.3,1.3c0,0.7-0.6,1.3-1.3,1.3s-1.3-0.6-1.3-1.3C79.1,104.3,79.7,103.7,80.4,103.7
			L80.4,103.7z M81.6,113v-2.4c-0.1-0.3-0.9-1.6-1.3-2.3c-0.4-0.7-1.8-3.1-1.8-3.1v3.3c0.1,0.8,0.9,2,1.6,3L81.6,113L81.6,113z
			 M80.4,93.4c0.7,0,1.3,0.6,1.3,1.3c0,0.7-0.6,1.3-1.3,1.3s-1.3-0.6-1.3-1.3C79.1,94,79.7,93.4,80.4,93.4L80.4,93.4z M78.5,98.3
			c0.2,1.6,3.1,4.7,3.1,4.7c0-0.9,0-1.8,0-2.7c-0.1-0.3-0.9-1.6-1.3-2.3c-0.4-0.7-1.8-3.1-1.8-3.1C78.5,96.1,78.5,97.2,78.5,98.3
			L78.5,98.3z M80.4,83.1c0.7,0,1.3,0.6,1.3,1.3c0,0.7-0.6,1.3-1.3,1.3s-1.3-0.6-1.3-1.3C79.1,83.7,79.7,83.1,80.4,83.1L80.4,83.1z
			 M78.5,88c0.2,1.6,3.1,4.7,3.1,4.7c0-0.9,0-1.8,0-2.7c-0.1-0.3-0.9-1.6-1.3-2.3c-0.4-0.7-1.8-3.1-1.8-3.1
			C78.5,85.8,78.5,86.9,78.5,88L78.5,88z M80.4,72.9c0.7,0,1.3,0.6,1.3,1.3c0,0.7-0.6,1.3-1.3,1.3s-1.3-0.6-1.3-1.3
			C79.1,73.5,79.7,72.9,80.4,72.9L80.4,72.9z M78.5,77.7c0.2,1.6,3.1,4.7,3.1,4.7c0-0.9,0-1.8,0-2.7c-0.1-0.3-0.9-1.6-1.3-2.3
			c-0.4-0.7-1.8-3.1-1.8-3.1C78.5,75.5,78.5,76.6,78.5,77.7L78.5,77.7z M80.4,62.6c0.7,0,1.3,0.6,1.3,1.3c0,0.7-0.6,1.3-1.3,1.3
			s-1.3-0.6-1.3-1.3C79.1,63.2,79.7,62.6,80.4,62.6L80.4,62.6z M78.5,67.5c0.2,1.6,3.1,4.7,3.1,4.7c0-0.9,0-1.8,0-2.7
			c-0.1-0.3-0.9-1.6-1.3-2.3c-0.4-0.7-1.8-3.1-1.8-3.1C78.5,65.3,78.5,66.4,78.5,67.5L78.5,67.5z M80.4,52.3c0.7,0,1.3,0.6,1.3,1.3
			c0,0.7-0.6,1.3-1.3,1.3s-1.3-0.6-1.3-1.3C79.1,52.9,79.7,52.3,80.4,52.3L80.4,52.3z M78.5,57.2c0.2,1.6,3.1,4.7,3.1,4.7
			c0-0.9,0-1.8,0-2.7c-0.1-0.3-0.9-1.6-1.3-2.3c-0.4-0.7-1.8-3.1-1.8-3.1C78.5,55,78.5,56.1,78.5,57.2L78.5,57.2z M80.4,42
			c0.7,0,1.3,0.6,1.3,1.3c0,0.7-0.6,1.3-1.3,1.3s-1.3-0.6-1.3-1.3C79.1,42.6,79.7,42,80.4,42L80.4,42z M78.5,46.9
			c0.2,1.6,3.1,4.7,3.1,4.7c0-0.9,0-1.8,0-2.7c-0.1-0.3-0.9-1.6-1.3-2.3c-0.4-0.7-1.8-3.1-1.8-3.1C78.5,44.7,78.5,45.8,78.5,46.9
			L78.5,46.9z M80.4,31.8c0.7,0,1.3,0.6,1.3,1.3c0,0.7-0.6,1.3-1.3,1.3s-1.3-0.6-1.3-1.3C79.1,32.4,79.7,31.8,80.4,31.8L80.4,31.8z
			 M78.5,36.7c0.2,1.6,3.1,4.7,3.1,4.7v-2.7c-0.1-0.3-0.9-1.6-1.3-2.3c-0.4-0.7-1.8-3.1-1.8-3.1V36.7z"/>
		<g>
			<polygon id="XMLID_111_" class="st7" points="16.8,37.9 21.7,42.7 21.7,120.1 16.8,120.1 16.8,37.9 			"/>
			<path class="st4" d="M18.7,47.9c-0.7,0-1.3-0.6-1.3-1.3c0-0.7,0.6-1.3,1.3-1.3c0.7,0,1.3,0.6,1.3,1.3
				C20,47.3,19.4,47.9,18.7,47.9L18.7,47.9z M17.5,38.6V41c0.1,0.3,0.9,1.6,1.3,2.3c0.4,0.7,1.8,3.1,1.8,3.1V43
				c-0.1-0.8-0.9-2-1.6-3L17.5,38.6L17.5,38.6z M18.7,58.2c-0.7,0-1.3-0.6-1.3-1.3c0-0.7,0.6-1.3,1.3-1.3c0.7,0,1.3,0.6,1.3,1.3
				C20,57.6,19.4,58.2,18.7,58.2L18.7,58.2z M20.6,53.3c-0.2-1.6-3.1-4.7-3.1-4.7c0,0.9,0,1.8,0,2.7c0.1,0.3,0.9,1.6,1.3,2.3
				c0.4,0.7,1.8,3.1,1.8,3.1C20.6,55.5,20.6,54.4,20.6,53.3L20.6,53.3z M18.7,68.5c-0.7,0-1.3-0.6-1.3-1.3c0-0.7,0.6-1.3,1.3-1.3
				c0.7,0,1.3,0.6,1.3,1.3C20,67.9,19.4,68.5,18.7,68.5L18.7,68.5z M20.6,63.6c-0.2-1.6-3.1-4.7-3.1-4.7c0,0.9,0,1.8,0,2.7
				c0.1,0.3,0.9,1.6,1.3,2.3c0.4,0.7,1.8,3.1,1.8,3.1C20.6,65.8,20.6,64.7,20.6,63.6L20.6,63.6z M18.7,78.7c-0.7,0-1.3-0.6-1.3-1.3
				c0-0.7,0.6-1.3,1.3-1.3c0.7,0,1.3,0.6,1.3,1.3C20,78.1,19.4,78.7,18.7,78.7L18.7,78.7z M20.6,73.9c-0.2-1.6-3.1-4.7-3.1-4.7
				c0,0.9,0,1.8,0,2.7c0.1,0.3,0.9,1.6,1.3,2.3c0.4,0.7,1.8,3.1,1.8,3.1C20.6,76.1,20.6,75,20.6,73.9L20.6,73.9z M18.7,89
				c-0.7,0-1.3-0.6-1.3-1.3c0-0.7,0.6-1.3,1.3-1.3c0.7,0,1.3,0.6,1.3,1.3C20,88.4,19.4,89,18.7,89L18.7,89z M20.6,84.1
				c-0.2-1.6-3.1-4.7-3.1-4.7c0,0.9,0,1.8,0,2.7c0.1,0.3,0.9,1.6,1.3,2.3c0.4,0.7,1.8,3.1,1.8,3.1C20.6,86.3,20.6,85.2,20.6,84.1
				L20.6,84.1z M18.7,99.3c-0.7,0-1.3-0.6-1.3-1.3c0-0.7,0.6-1.3,1.3-1.3c0.7,0,1.3,0.6,1.3,1.3C20,98.7,19.4,99.3,18.7,99.3
				L18.7,99.3z M20.6,94.4c-0.2-1.6-3.1-4.7-3.1-4.7c0,0.9,0,1.8,0,2.7c0.1,0.3,0.9,1.6,1.3,2.3c0.4,0.7,1.8,3.1,1.8,3.1
				C20.6,96.6,20.6,95.5,20.6,94.4L20.6,94.4z M18.7,109.6c-0.7,0-1.3-0.6-1.3-1.3c0-0.7,0.6-1.3,1.3-1.3c0.7,0,1.3,0.6,1.3,1.3
				C20,109,19.4,109.6,18.7,109.6L18.7,109.6z M20.6,104.7c-0.2-1.6-3.1-4.7-3.1-4.7c0,0.9,0,1.8,0,2.7c0.1,0.3,0.9,1.6,1.3,2.3
				c0.4,0.7,1.8,3.1,1.8,3.1C20.6,106.9,20.6,105.8,20.6,104.7L20.6,104.7z M18.7,119.8c-0.7,0-1.3-0.6-1.3-1.3
				c0-0.7,0.6-1.3,1.3-1.3c0.7,0,1.3,0.6,1.3,1.3C20,119.2,19.4,119.8,18.7,119.8L18.7,119.8z M20.6,114.9c-0.2-1.6-3.1-4.7-3.1-4.7
				v2.7c0.1,0.3,0.9,1.6,1.3,2.3c0.4,0.7,1.8,3.1,1.8,3.1V114.9z"/>
		</g>
		<polygon id="XMLID_94_" class="st9" points="65.2,46.4 64.8,47 64,46.5 64.2,46.1 62.2,45.4 60.9,46.5 60.5,49.2 64.9,49.8 
			64.8,51.8 63.5,51.8 63.5,51 60.3,50.3 60.1,54.9 64.2,55.2 64.3,57 63.2,57.2 63,56.3 59.9,56.3 60,60.1 64.4,60.1 64.4,61.7 
			63.2,61.9 63.2,61.3 60.2,61.3 60.5,65.2 64.7,64.7 65.1,66.8 64.1,67 63.8,66.1 60.8,66.5 61.3,70.1 65.4,69.6 65.9,71.8 
			64.7,72 64.3,71.2 61.7,71.8 62.9,75.4 66.6,74.6 67.2,76.4 66.3,76.9 65.9,76.1 63.3,76.7 64.6,80.5 68.5,79.2 69.2,80.9 
			68.3,81.5 67.8,80.5 65.1,81.6 66.9,85.2 70.4,83.4 71.5,85.1 70.4,85.6 70,84.8 67.6,86.2 69.7,89.8 73,87.8 74.1,89.5 
			73.3,90.1 72.8,89.5 70.1,91 72.4,93.6 75.6,91.7 75.6,90.9 73,92.6 71.8,91.2 72.5,90.6 73.2,91.1 75.6,89.4 73.5,86.4 70,88.4 
			68.8,86.7 69.8,86 70.2,86.7 73,85.3 71.4,82.2 67.5,83.9 66.7,82.4 67.4,82 67.8,82.6 70.7,81.2 69.5,77.8 65,79.2 64.2,77.3 
			65.2,77 65.7,77.8 69,76.8 67.9,73.7 63.5,74.3 62.9,72.5 64,72.2 64.4,73.3 67.7,72.5 66.7,68.6 62.4,69.2 61.9,67.4 63,67.1 
			63.2,67.9 66.5,67.3 65.9,63.9 61.5,64.1 61.3,62.3 62.3,62.1 62.5,62.8 65.8,62.7 65.5,59.3 61.2,59.3 61.2,57.2 62.4,57.2 
			62.4,58 65.5,58.1 65.4,54.1 61.5,53.8 61.6,51.4 62.6,51.5 62.7,52.8 65.5,52.7 66,49.4 61.9,48.4 62.1,46.8 63.1,46.7 
			63.3,47.4 66,48.2 66.2,46.8 		"/>
		<path id="XMLID_93_" class="st9" d="M74.3,49.3c2-1.2,2.5-1,2.6-0.9c0.2,0.1,0.7-0.4,0.8,0.1c0.1,0.5,0.1,1.3,0.4,0.5
			c0.3-0.8,0.5-0.6,0.8-0.3c0.3,0.2,0.5,0.8-0.4,1.2c-1,0.4-1.7,0.5-2,0.8c-0.3,0.3-1.2,1-1,1.4c0.2,0.4,0.8,0.5,0.7,1.6
			c-0.1,1.1,0.2,3-0.8,3c-1.1-0.1-2.7-0.2-2.8-2.1C72.4,52.5,71.8,50.8,74.3,49.3z"/>
		<path id="XMLID_92_" class="st7" d="M71.5,49.7c-0.3,1-1.1,4.2,0.2,7.3l0,0c-0.7,0.7-2,1.7-3.7,2.2c0.7-1,2.2-3.1,1.9-3.3
			c-0.4-0.4-1.3-1.1-1.3-1.1l1.5-1.7l-1.6-1.8l1.6-1.3l-1-1.6L71.5,49.7z"/>
		<polygon id="XMLID_91_" class="st7" points="29.8,44.5 29.8,60.3 25.8,54.9 25.8,46.6 		"/>
		<path id="XMLID_90_" class="st4" d="M44.4,65c1.6,1.1,3.2,2.5,4.7,4.2c1.9,2.2,3.2,4.2,4.3,5.9V61.7l-9-6.8V65z"/>
		<path id="XMLID_89_" class="st1" d="M59.3,58.1l-3.4,2.4l-0.1,14.7l5.2-3.3C61.1,71.9,59.7,66.6,59.3,58.1z"/>
		<path id="XMLID_88_" class="st1" d="M66.3,61.2l4.4-2.4c0,0,3.1,9.1,5.2,11.7v17.9C75.8,88.3,67.8,78.2,66.3,61.2z"/>
		<path id="XMLID_87_" class="st7" d="M67.6,61.6l2.1-1.1c0,0,3.4,8.8,5,9.9v12.9C74.8,83.3,68.5,72.5,67.6,61.6z"/>
		<path class="st7" d="M45.3,65.6c-0.1-0.1-0.2-0.2-0.4-0.3c0.2-2,1.9-3.6,3.9-3.6c2.2,0,4,1.8,4,4c0,2-1.4,3.6-3.3,3.9
			c-0.1-0.1-0.2-0.2-0.3-0.3c0.7-0.1,1.3-0.3,1.8-0.7c0-0.1-0.1-0.2-0.1-0.3c-0.5-0.9-1.2-1.1-1.8-0.6c-0.2,0.2-0.4,0.6-0.4,1
			c-0.1-0.1-0.2-0.2-0.3-0.4c0-0.6-0.4-1-0.9-1c0,0,0,0-0.1,0c-0.2-0.2-0.4-0.4-0.6-0.6c0.1-0.3,0-0.6-0.2-0.8
			C46.3,65.8,45.8,65.6,45.3,65.6L45.3,65.6z M51.2,63c-0.6-0.5-1.3-0.8-2.1-0.9c-0.3,0.9,0.1,1.7,0.8,1.7
			C50.3,63.8,50.8,63.5,51.2,63L51.2,63z M52.4,65.6c0-0.8-0.4-1.6-0.9-2.2c0,0-0.1,0-0.1,0.1c-0.8,0.5-1.1,1.3-0.6,1.8
			C51.2,65.5,51.8,65.7,52.4,65.6L52.4,65.6z M51.4,68.3c0.6-0.6,0.9-1.3,1-2.2c-0.1,0-0.2-0.1-0.3-0.1c-0.9-0.3-1.7,0.1-1.7,0.8
			C50.5,67.3,50.9,67.9,51.4,68.3L51.4,68.3z M46.3,63.2c-0.5,0.5-0.9,1.3-1,2c0.9,0.2,1.6-0.1,1.6-0.9C46.9,64,46.7,63.6,46.3,63.2
			L46.3,63.2z M48.7,62.1c-0.8,0-1.5,0.4-2.1,0.8c0.5,0.8,1.2,1,1.7,0.5C48.6,63.2,48.7,62.7,48.7,62.1L48.7,62.1z M52.2,71.3
			L51,70.1l1.1,0L52.2,71.3L52.2,71.3z M45.4,60.3l1.2,1.2l-1.1,0L45.4,60.3L45.4,60.3z M48.2,60.8v-1.7l0.8,0.8L48.2,60.8
			L48.2,60.8z M45.5,59.5l2,1.8v-2.8l-2-1.4V59.5z"/>
		<path id="XMLID_76_" class="st4" d="M68.1,59.2c0.7-1,2.2-3.1,1.9-3.3c-0.4-0.4-1.3-1.1-1.3-1.1l1.5-1.7l-1.6-1.8l1.6-1.3l-1-1.6
			L67,47.1c-1.4,3.2-0.6,12.5-0.6,12.5C66.9,59.5,67.5,59.4,68.1,59.2z"/>
		<path class="st9" d="M34.8,41.9l-2.6,1.4v0.9h3v-2.3H34.8L34.8,41.9z M31.6,43.6v1.3h3.5v3.7h-3v-1h-1v1.9H35v4.3h-3v-1.1h-0.8
			v2.1h3.9v3.7h-3v-0.9h-1v2h4v1.8l-1.1-0.3v-0.9h-3.8v-3.8h2.8v1.1h0.9v-1.9h-3.8v-3.9h2.7v0.9h1v-1.7h-3.8v-4H33v0.8h1v-1.7h-3.6
			v-1.7L31.6,43.6z"/>
		<polygon id="XMLID_73_" class="st6" points="66.6,47.9 67.5,49.8 65.7,51.5 67.3,53.5 65.7,55.4 67.4,56.6 65.9,59.1 66,59.8 
			68.1,56.7 66.5,55.3 68,53.6 66.5,51.6 68.1,50 66.7,46.8 		"/>
		<path id="XMLID_72_" class="st4" d="M71.8,57c-1.3-3.1-0.5-6.3-0.2-7.3l1,0.6c0,0-1.1,4.4-0.1,5.9C72.5,56.2,72.3,56.5,71.8,57z"
			/>
		<polygon id="XMLID_71_" class="st7" points="61.5,73.4 62.6,77.2 57.7,80.6 55,77.4 		"/>
		<path id="XMLID_70_" class="st4" d="M55,77.5c-0.2-0.3-0.5-0.6-0.7-0.9l6.8-4.2l0.3,0.9L55,77.5z"/>
		<path id="XMLID_69_" class="st4" d="M58.4,81.1c-0.3-0.2-0.5-0.4-0.7-0.6l5-3.3l0.3,1L58.4,81.1z"/>
		<path id="XMLID_68_" class="st5" d="M27.2,135.5h39.6l-7.2-11.7c0,0-14.5,3.4-26.1,0.1L27.2,135.5z"/>
		<path id="XMLID_67_" class="st1" d="M28.5,135.5h37.2l-6.9-10.9c0,0-12.6,3.2-24.4,0.3L28.5,135.5z"/>
		<ellipse id="XMLID_66_" class="st9" cx="46.4" cy="127.7" rx="0.7" ry="0.7"/>
		<ellipse id="XMLID_65_" class="st9" cx="55.8" cy="127.1" rx="0.6" ry="0.6"/>
		<ellipse id="XMLID_64_" class="st9" cx="36.9" cy="127.1" rx="0.6" ry="0.6"/>
		<path id="XMLID_63_" class="st9" d="M37,135.5h1l1.8-7.8l-0.7-0.1c0,0-0.8,1.7-2.4,1.4c-1.6-0.3-1.8-1.7-1.8-1.8l-0.7-0.1
			l-4.2,8.5h1.1l3.4-6.8c0,0,1.7,1.7,4,0.8L37,135.5z"/>
		<path id="XMLID_62_" class="st9" d="M52.2,135.5h0.7l-1.8-7.7h-0.9c0,0-1,2.2-4,2c-3-0.2-3.6-1.9-3.6-1.9l-0.8-0.2l-1.6,7.8H41
			l1.2-6.3c0,0,4.6,3.1,8.4-0.3L52.2,135.5z"/>
		<path id="XMLID_61_" class="st9" d="M62.6,135.5h1.2l-5.3-8.5l-0.8,0.3c0,0,0.4,0.8-1.5,1.4c-1.9,0.6-2.8-1.2-2.8-1.2l-0.8,0.1
			l2.4,7.9h1l-1.9-6.2c2.9,1.1,4.2-0.9,4.2-0.9L62.6,135.5z"/>
		<g>
			<path class="st5" d="M71.9,16.1h-1.2l-5.9,10.6C52.9,23.8,40.3,27,40.3,27l-6.9-10.9h-1.2l7.2,11.7l0.1,0
				c-0.1,0.6-0.3,1.9-0.6,3.2c-0.5,2.4-1,5.1-1.1,5.5c-0.1,0.5-0.3,0.3-0.3,0.3l0,0l0,0c-4.4-1-3.5,3.5-3.5,3.7c0.1,1,1,1.3,1.3,1.3
				c0.2,0.4,0.8,0.7,1,0.8c0.2,0.5,1,0.8,1.3,0.8c0.4,0.5,1.2,0.6,1.5,0.6c0.2,0.3,0.9,0.4,1.1,0.4c0.2,0.3,0.9,0.5,1.2,0.5
				c0.4,0.7,1.3,0.8,1.6,0.8c1.1,2.1,4.4,0.6,4.4,0.6l0,0l0,0c0.7-0.4,1.2-1.1,1.6-1.9c5.9,4.8,8.8,3.7,9,3.6
				c2.6-0.7,4.2-2.5,5.2-4.5c0.1,0.1,0.2,0.3,0.4,0.6c0.2,0.3,0.4,0.8,0.6,1.3c0.5,1.4,3.4,1.6,3.4,1.6h0c0.1,0,0.7-0.5,1.2-1.1
				c0.3-0.4,0.5-0.8,0.6-1.3c0-0.3,0-0.5,0-0.7c-0.1-0.4-0.3-0.7-0.5-0.9h0c-0.2-0.2-0.5-0.3-0.6-0.4c0,0-0.1,0-0.1,0l0,0
				c-0.1,0-0.5,0.1-1,0c-0.3,0-0.5-0.1-0.7-0.1c-0.3-0.1-1-2.5-1.5-4.1c0.7,0.8,1.6,1.4,1.6,1.4h0c0.1,0.1,0.4,0.2,0.8,0.2
				c0.3,0,0.7,0,1-0.1c0.3-0.1,0.6-0.3,0.8-0.7c0.1-0.3,0.2-0.6,0.1-1.1c-0.2-1.7-1.1-1.6-1.8-1.5c-0.3,0-0.6,0.1-0.7-0.1
				c-0.5-0.4-1.5-4.8-1.7-5.6c0.1-1.4,0.3-2.6,0.3-3.2l1.3-2.4c1.3,3,5.7,3.9,6.8,3.9c1.1-0.1,0.6-0.8,0.6-0.8s-1.4-3.4-1.9-5
				c-0.4-1.4-1.8-3.4-2.3-3.9L71.9,16.1L71.9,16.1z M64.1,41.2L64.1,41.2c0.1-0.2,0.1-0.4,0.2-0.7c0.2-0.7,0.3-1.5,0.4-2.3
				c0.4,1.6,1.3,4.4,1.7,4.6c0.2,0.1,0.5,0.2,0.8,0.2c0.4,0,0.9,0,1,0l0,0l0,0l0,0v0c0,0,0,0,0,0c0.1,0,0.3,0.1,0.4,0.3l0,0
				c0.2,0.2,0.3,0.4,0.4,0.7c0,0.2,0,0.4,0,0.6c-0.1,0.4-0.3,0.8-0.6,1.2c-0.4,0.6-0.9,1-0.9,1c0,0-0.1,0-0.1,0l0-0.1
				C66.9,46.4,64.2,41.2,64.1,41.2L64.1,41.2z M67,46.6c-0.8-0.1-2.2-0.5-2.5-1.3c-0.2-0.6-0.4-1-0.7-1.4c-0.1-0.1-0.1-0.2-0.2-0.3
				c-0.1-0.2-0.2-0.3-0.3-0.4l0,0l0,0c0-0.1,0.1-0.1,0.1-0.2c0.2-0.4,0.4-0.9,0.6-1.4C64.5,42.6,66.1,45.6,67,46.6L67,46.6z
				 M39.9,27.7c0.2-0.1,0.6-0.1,1-0.2c-0.2,2.1-0.9,8.6-2.1,10.1c0,0-0.1-0.1-0.1-0.2c-0.2-0.2-0.4-0.4-0.6-0.5c0,0,0,0-0.1,0
				c0.1-0.1,0.1-0.2,0.2-0.4c0.1-0.4,0.7-3.1,1.1-5.5C39.5,29.6,39.8,28.3,39.9,27.7L39.9,27.7z M37.2,37c-0.3,0.2-0.7,0.5-1.2,1.1
				c-1,1.1-0.9,2.7-0.9,3.2c-0.3-0.1-0.9-0.3-0.9-1v0l0,0C34.2,40.3,33.4,36.2,37.2,37L37.2,37z M35.5,41.4c-0.1-0.4-0.2-2,0.8-3
				c0.6-0.6,0.9-0.9,1.2-1c0.2-0.1,0.3,0,0.4,0c0.1,0.1,0.3,0.3,0.5,0.4c0,0.1,0.1,0.1,0.1,0.1c-0.3,0.1-0.5,0.2-0.8,0.4
				c-0.2,0.1-0.4,0.3-0.5,0.5c-0.8,0.9-0.9,2.6-0.9,3.3c-0.3-0.1-0.6-0.3-0.6-0.6L35.5,41.4L35.5,41.4L35.5,41.4z M36.5,42.2
				c0-0.4,0-2.3,0.8-3.2c0.2-0.2,0.3-0.3,0.5-0.4c0.4-0.3,0.7-0.4,1.1-0.4c0.3,0,0.6,0.1,0.9,0.3c-0.3,0.1-0.7,0.2-1,0.5h0
				c-0.1,0.1-0.2,0.1-0.3,0.2c-1,1-1.1,3-1.1,3.7C37.1,42.8,36.6,42.6,36.5,42.2L36.5,42.2L36.5,42.2L36.5,42.2z M37.8,43.1
				c0-0.4-0.1-2.6,1-3.6c0.1-0.1,0.2-0.2,0.2-0.2h0c0.5-0.4,0.9-0.5,1.2-0.5c0.3,0,0.5,0.1,0.6,0.3l-0.1,0c-0.4,0.2-0.9,0.6-1.3,1.2
				c-0.8,1.3-0.7,2.8-0.6,3.3C38.6,43.6,38,43.5,37.8,43.1L37.8,43.1L37.8,43.1z M39.2,43.6c-0.1-0.4-0.2-1.9,0.6-3.1
				c0.3-0.5,0.7-0.9,1.1-1.1c0.3-0.1,0.5-0.2,0.8-0.2c0.2,0,0.4,0.1,0.5,0.2c0,0,0.1,0.1,0.1,0.2c-0.4,0.1-0.9,0.4-1.4,0.9
				c-1.1,1.1-1,3-0.9,3.6c-0.3,0-0.7-0.1-0.7-0.3L39.2,43.6L39.2,43.6L39.2,43.6z M40.4,44c-0.1-0.5-0.2-2.3,0.8-3.3
				c0.6-0.6,1.1-0.8,1.5-0.8l0,0c0.3,0,0.6,0.2,0.8,0.4c-0.4,0.1-0.8,0.3-1.3,0.7c-1.2,0.9-1.1,2.8-1,3.5c-0.3-0.1-0.7-0.2-0.8-0.4
				L40.4,44L40.4,44L40.4,44z M41.6,44.6c-0.1-0.4-0.3-2.4,0.9-3.3c0.7-0.5,1.2-0.7,1.6-0.7c0.3,0,0.6,0.1,0.8,0.4
				c-0.2,0-0.3,0.1-0.5,0.1c-2,0.6-1.7,3.5-1.6,4.3C42.5,45.3,41.9,45.2,41.6,44.6L41.6,44.6L41.6,44.6L41.6,44.6z M43.1,45.3
				c-0.1-0.6-0.4-3.4,1.3-4c0.3-0.1,0.5-0.1,0.8-0.1c0.4,0,0.7,0.2,1,0.4c0.3,0.3,0.4,0.6,0.5,1c0.1,0.4,0.2,0.7,0.2,1
				c-0.3,0.5-1,1.5-1.5,1.5c-0.1,0-0.1,0-0.2,0c-0.3,0-0.5-0.2-0.7-0.5c-0.2-0.3-0.3-0.6-0.3-0.8c0-0.1,0-0.1,0-0.2
				c0-0.2,0.1-0.3,0.2-0.4c0.1-0.1,0.2-0.3,0.4-0.3l0,0c0.1-0.1,0.3-0.1,0.4-0.1c0.1,0,0.1,0,0.2,0.1v0c0.4,0.2,0.3,0.8,0.3,0.8
				l0.3,0c0,0,0.1-0.8-0.5-1.1l0,0c-0.1-0.1-0.2-0.1-0.3-0.1c-0.2,0-0.4,0-0.6,0.1l0,0c-0.2,0.1-0.4,0.3-0.5,0.5
				c-0.1,0.2-0.2,0.3-0.2,0.5c0,0.1,0,0.2,0,0.3c0,0.4,0.2,0.7,0.4,1c0.2,0.3,0.6,0.5,0.9,0.6c0.1,0,0.2,0,0.2,0
				c0.7,0,1.4-1.1,1.8-1.7h0l0,0c0.1-0.2,0.2-0.3,0.2-0.3c0.6-0.9,1.2-2.5,1.5-4.4c0.7-3.1,1-6.7,1-7.4c0-1.1,0.8-4.6,1-5.3
				c0.4,0,0.7,0,1.1,0c-0.4,1.9-1.7,9-1.7,10.7c0,1.2-0.3,3.7-1.1,5.8c-0.5,1.3-1.2,2.5-2.1,3.1C47,46,44.1,47.3,43.1,45.3
				L43.1,45.3L43.1,45.3z M52.4,26.3c4.1-0.1,8.6,0.2,12.8,1.3c0,0.4-0.1,1-0.2,1.8c-0.2,0-0.9,0-1.4,0c-0.7,0-3.5,0.4-3.6,2.7
				c-0.2,2.3-0.1,3.2,0.1,3.8c0.2,0.5,0.9,2.1,0.7,2.7c-0.2,0.7-1.3,1.4-1.3,1.4s2-0.1,2.1-1.6c0,0-0.1-0.5-0.4-1.1
				c-0.4-0.5-1.1-2.9-0.6-2.9c0,0,0.7,0,1,0.5c0.4,0.4,1.3,0.9,1.1,0.6c-0.2-0.4-1.2-1-0.9-1.1c0.3-0.1,2.5-0.2,2.7-0.5
				c0-0.1,0.1-0.1,0.1-0.2c-0.1,0.7-0.1,1.3-0.1,1.6l-0.1,1.4l0,0c0,0.1,0,0.3,0,0.4l0,0l0,0.1c-0.2,3-1.4,9.1-6.6,10.4l0,0l0,0
				c0,0-2.7,1.2-8.7-3.6c0.2-0.3,0.3-0.7,0.4-1.1c0.8-2.1,1-4.7,1.1-5.9c0-0.7,0.3-2.3,0.6-4.1c0.3,0.1,1.1,0.4,1.3,0.6
				c0.2,0.2,1.8,0.8,2.5,0.8c0.6,0-0.8,0.7-1,0.9c-0.2,0.2,1.5,0,2.6-0.8c1.1-0.8,1.1-1.1,0.8-1.5c-0.3-0.3,0-0.5,0.2-0.7
				c0.2-0.1-0.4-0.8-0.8-1c-0.3-0.2-2.2-0.8-4.6,0c-0.7,0.3-0.4,0.5-0.4,0.5s2.1-0.6,2.7-0.6c0.6,0.1,2.3,0.2,2.6,0.8
				c0.3,0.6-0.9,0-0.9,0c-0.1-0.1-2.4-0.5-3.7,0.2c-0.9,0.4-1.3,0.6-1.5,0.7C51.7,30.3,52.2,27.4,52.4,26.3L52.4,26.3z M48.8,26.5
				l0.3,0c-0.2,1.1-0.8,5.3-0.8,5.7c0,0.2-0.1,1.3-0.3,2.4c-0.2,1.2-0.4,2.5-0.4,2.9c0,0.3-0.3,1.6-0.6,2.6
				c-0.2,0.6-0.4,1.1-0.6,1.4c-0.2-0.2-0.5-0.4-0.9-0.4c0.3-0.6,0.6-1.7,0.9-3c0.5-2.4,0.9-5.2,1-6.1c0-1.2,0.7-4.8,0.8-5.3
				L48.8,26.5L48.8,26.5z M47.8,26.6c-0.1,0.8-0.7,4-0.8,5.2c0,0.8-0.4,3.7-0.9,6c-0.3,1.3-0.6,2.5-0.9,2.9
				c-0.3-0.3-0.6-0.5-0.9-0.5c0.3-0.4,0.6-1.2,0.8-2.1c0.4-1.8,0.7-4.2,0.7-5.1c0-1.2,0.8-5.1,1.1-6.3L47.8,26.6L47.8,26.6z
				 M46.5,26.8c-0.3,1.3-1,5-1.1,6.2c0,0.9-0.3,3.3-0.7,5.1c-0.2,1-0.5,1.8-0.8,2.1c-0.2-0.3-0.5-0.4-0.8-0.5
				c0.4-0.4,0.7-1.5,0.9-2.7c0.3-1.4,0.5-2.8,0.5-3.2c0.1-0.7,0.9-5.4,1.2-6.8L46.5,26.8L46.5,26.8z M45.4,26.9
				c-0.3,1.6-1.1,6.1-1.2,6.8c0,0.4-0.2,1.9-0.5,3.2c-0.3,1.3-0.6,2.5-0.9,2.6l0,0.1c0,0,0,0-0.1,0l0,0c-0.1-0.1-0.1-0.3-0.2-0.4
				c-0.1-0.1-0.3-0.2-0.5-0.3c0.6-1.3,2.1-9.7,2.5-11.9L45.4,26.9L45.4,26.9z M44,27.1c-0.4,2.4-2,11.5-2.4,11.7l0.1,0.1
				c-0.2,0-0.3,0-0.5,0.1l0,0c-0.1-0.1-0.3-0.3-0.6-0.4c0.6-1.3,1.9-9.3,2.2-11.3L44,27.1L44,27.1z M42.4,27.3
				c-0.4,2.3-1.7,10.9-2.2,11.1l0,0.1h0c-0.1-0.1-0.1-0.2-0.2-0.2h0c-0.3-0.3-0.7-0.4-1.1-0.5c1.3-1.8,2-8.4,2.2-10.3
				c0.3,0,0.5-0.1,0.8-0.1L42.4,27.3L42.4,27.3z M49.4,26.4c0.4,0,0.8,0,1.2-0.1c-0.2,0.9-1,4.3-1,5.3c0,0.7-0.3,4.3-1,7.3
				c-0.4,1.7-0.9,3.3-1.4,4.1c0-0.2-0.1-0.4-0.1-0.6c-0.1-0.3-0.3-0.7-0.5-0.9c0.2-0.3,0.5-0.9,0.7-1.5c0.4-1.1,0.7-2.3,0.7-2.7
				c0-0.3,0.2-1.6,0.4-2.8c0.2-1.1,0.3-2.2,0.3-2.4C48.6,31.8,49.3,27.4,49.4,26.4L49.4,26.4z M65.1,32c0.4,1.6,1.1,4.4,1.6,4.8
				c0.3,0.2,0.6,0.2,1,0.1c0.6-0.1,1.3-0.1,1.4,1.2c0,0.4,0,0.7-0.1,0.9c-0.1,0.3-0.3,0.4-0.6,0.5c-0.3,0.1-0.6,0.1-0.8,0.1
				c-0.3,0-0.6-0.1-0.7-0.1l0,0l0,0c0,0-1.8-1.1-2.1-2.4c0.1-0.8,0.1-1.3,0.1-1.5h0v0c0,0,0-0.1,0-0.2l0.2-2.3L65.1,32L65.1,32z
				 M52,30.6c0.1-0.5,2.2-1.4,3.1-1.5c0.9-0.1,2.6,0.4,2.9,1c0.3,0.7-1,0.3-1.9-0.1C55.3,29.7,52,30.6,52,30.6L52,30.6z M53.2,32.5
				c0,0-0.2,0.9,0,1s-1.1-0.3-1.1-0.5C52.2,32.7,53.2,32.4,53.2,32.5L53.2,32.5z M54,32.4c0,0,0.1,0.9,0.9,0.8
				c0.8,0,0.8-0.8,0.8-0.8l0.3,0.2c0,0-0.1,1.2-1.3,1c-1.2-0.1-1.1-1-1.1-1.2L54,32.4L54,32.4z M56.3,32.7c0,0,0.7,0.3,0.7,0.5
				c0,0.2-0.7,0.8-0.9,0.6C55.9,33.7,56.3,32.7,56.3,32.7L56.3,32.7z M64.8,31l-0.1,0.7c-1.2-1.2-3.9-0.3-3.9-0.3
				c0.5-1,1.7-1.3,1.7-1.3C64.7,29.9,64.8,31,64.8,31L64.8,31z M60.6,32.3c0,0,0.9-0.8,1.7-1c0.8-0.2,2.3,0.3,2.4,0.7
				c0,0.4-0.4,0.2-1.3-0.1C62.4,31.7,60.6,32.3,60.6,32.3L60.6,32.3z M62.2,32.6c0,0,0.1,0.7,0.6,0.8c0.5,0.1,0.8-0.5,0.8-0.5L64,33
				c0,0-0.2,1-1.1,1c-0.9,0-1.1-0.9-1.1-1C61.8,32.9,62.2,32.6,62.2,32.6L62.2,32.6z M61.2,32.8c0,0,0.3,0.7,0.5,0.8
				c0.2,0.1-0.2,0.4-0.5,0.2c-0.3-0.1-0.8-0.6-0.7-0.8C60.7,32.8,61.3,32.8,61.2,32.8L61.2,32.8z M57,37.5c0,0-1.1,1-0.4,1.6
				c0.7,0.6,1.5-0.3,1.6-0.4c0.1-0.1,0.7-0.5,1-0.2c0.3,0.3,0.1,0.8-0.8,1.1c-0.9,0.3-1.9,0.2-2.2-0.1c-0.3-0.3-0.7-0.9,0.3-2.1
				c0,0,0.3-0.3,0.5-0.2C57.2,37.3,57,37.5,57,37.5L57,37.5z M55.6,41.5c0,0,1,0.6,1.8,0.1c0.8-0.5,0.8,0.1,0.9,0.1
				c0.1,0,0.3,0.2,0.8-0.1c0.5-0.3,0.5-0.2,0.9,0.1c0.4,0.2,0.6,0,0.9-0.2h0.3V43c0,0-0.4-0.1-0.5-0.1c-0.1-0.1-0.9-0.1-1.4,0
				c-0.5,0.2-1.2,0.4-2.1,0.2c-1-0.2-0.6-0.4-1.4-0.2C55,43,54.8,43,55,42.7C55.1,42.5,55.6,41.5,55.6,41.5L55.6,41.5z M56.5,43.7
				c0,0,2.3,0.6,3.6,0c0,0,0.3,0,0,0.4c-0.4,0.4-1,0.5-0.7,0.9c0.3,0.4-0.1,0.3-0.4,0.1c-0.4-0.2-1-0.2-1.3,0.1
				c-0.3,0.3-0.5,0.1-0.2-0.2c0.3-0.3-0.5-0.7-0.7-0.7C56.6,44.2,56.1,43.8,56.5,43.7L56.5,43.7z M63.3,43.2L63.3,43.2L63.3,43.2
				L63.3,43.2z M67.2,24.7l0.8-1.5c0.1,0.1,0.3,0.2,0.3,0.3c0,0.4,0.1,0.8,0.2,0.7c0.2-0.1,0.7-0.5,0.7,0.1c0.1,0.6,0.1,1,0.3,0.8
				c0.2-0.2,0.8-0.2,0.8,0c0,0.2-0.1,1.5,0.2,1.5c0.3,0.1,0.7,0,0.7,0.5c0,0.5,0.2,0.3,0.8,0.3c0.6,0.1-0.3-0.6,0.2-0.6
				c0.6,0,0.4-0.2,0.1-0.3c-0.3-0.1-1-0.5-0.7-0.5c0.4,0,0.4-0.3,0.3-0.3c-0.1,0-0.2-0.2-0.6-0.3C71,25.4,70.5,25,70.8,25
				c0.3,0,0.5-0.3,0.3-0.4c-0.1-0.1-1.2-0.9-1.1-0.9c0.1,0,0.8-0.4,0.3-0.4c-0.5-0.1-1.3-0.8-1.3-0.8s0.8-0.3,0.7-0.3
				c-0.1,0-0.5-0.3-0.7-0.6l1-1.8c0.7,0.5,1.4,2.3,1.6,2.7c0.2,0.5,2.3,6.1,2.3,6.1C69.1,28.5,67.6,25.7,67.2,24.7z"/>
		</g>
		<path id="XMLID_26_" class="st1" d="M70.6,16.1H33.4L40.3,27c0,0,12.6-3.2,24.4-0.3L70.6,16.1z"/>
		<path class="st9" d="M52.7,23.2c0.4,0,0.7,0.3,0.7,0.7c0,0.4-0.3,0.7-0.7,0.7c-0.4,0-0.7-0.3-0.7-0.7
			C52.1,23.5,52.4,23.2,52.7,23.2L52.7,23.2z M36.5,16.1h-1.2l5.3,8.5l0.8-0.3c0,0-0.4-0.8,1.5-1.4c1.9-0.6,2.8,1.2,2.8,1.2l0.8-0.1
			l-2.4-7.9h-1l1.9,6.2c-2.9-1.1-4.2,0.9-4.2,0.9L36.5,16.1L36.5,16.1z M46.9,16.1h-0.7l1.8,7.7H49c0,0,1-2.2,4-2
			c3,0.2,3.6,1.9,3.6,1.9l0.8,0.2l1.6-7.8h-0.9l-1.2,6.3c0,0-4.6-3.1-8.4,0.3L46.9,16.1L46.9,16.1z M62.1,16.1h-1l-1.8,7.8l0.7,0.1
			c0,0,0.8-1.7,2.4-1.4c1.6,0.3,1.8,1.7,1.8,1.8l0.7,0.1l4.2-8.5h-1.1l-3.4,6.8c0,0-1.7-1.7-4-0.8L62.1,16.1L62.1,16.1z M62.1,23.9
			c0.3,0,0.6,0.3,0.6,0.6c0,0.3-0.3,0.6-0.6,0.6c-0.3,0-0.6-0.3-0.6-0.6C61.5,24.2,61.8,23.9,62.1,23.9L62.1,23.9z M43.3,23.9
			c0.3,0,0.6,0.3,0.6,0.6c0,0.3-0.3,0.6-0.6,0.6c-0.3,0-0.6-0.3-0.6-0.6C42.7,24.2,43,23.9,43.3,23.9z"/>
		<polygon id="XMLID_19_" class="st5" points="82.3,31.5 82.3,21.2 72.4,31.5 		"/>
		<polygon id="XMLID_18_" class="st4" points="82.3,30.8 82.3,22.4 74.1,30.8 		"/>
		<polygon id="XMLID_17_" class="st1" points="82.3,29.7 82.3,24.1 76.5,29.7 		"/>
		<path class="st8" d="M17.1,136.5h65.6V15.1H16.6v121.4H17.1L17.1,136.5z M17.6,135.5L17.6,135.5c0-1,0-118.3,0-119.3
			c1,0,63,0,64,0c0,1,0,118.3,0,119.3C80.6,135.5,18.6,135.5,17.6,135.5z"/>
	</g>
</g>
</svg>
