<?xml version="1.0" encoding="utf-8"?>
<!-- Generator: Adobe Illustrator 19.0.0, SVG Export Plug-In . SVG Version: 6.00 Build 0)  -->
<svg version="1.1" xmlns="http://www.w3.org/2000/svg" xmlns:xlink="http://www.w3.org/1999/xlink" x="0px" y="0px"
	 viewBox="0 0 99.4 151.6" style="enable-background:new 0 0 99.4 151.6;" xml:space="preserve">
<style type="text/css">
	.st0{fill:#FFFFFF;stroke:#000000;stroke-width:0.25;stroke-miterlimit:2.6131;}
	.st1{fill-rule:evenodd;clip-rule:evenodd;fill:#E52529;}
	.st2{fill:#E52529;}
	.st3{fill:#FFDD09;}
	.st4{fill:#111A16;}
	.st5{fill:#DC3538;}
</style>
<g id="Calque_2">
	<path id="XMLID_15_" class="st0" d="M99.3,5.3v140.9c0,2.9-2.3,5.2-5.2,5.2H5.3c-2.9,0-5.2-2.3-5.2-5.2V5.3c0-2.9,2.3-5.2,5.2-5.2
		h88.7C96.9,0.1,99.3,2.5,99.3,5.3z"/>
</g>
<g id="Calque_1">
	<g>
		<g>
			<g>
				<g>
					<path class="st1" d="M552.8,134.6c-3.2-4.4-4.1-8-4.1-8s-0.9,3.7-4.1,8c-3.2,4.4-6.2,5.6-6.2,5.6s3,1.2,6.2,5.6
						c3.2,4.4,4.1,8,4.1,8s0.9-3.7,4.1-8c3.2-4.4,6.2-5.6,6.2-5.6S556.1,138.9,552.8,134.6z"/>
					<path class="st1" d="M510.8,134.6c-3.2-4.4-4.1-8-4.1-8s-0.9,3.7-4.1,8c-3.2,4.4-6.2,5.6-6.2,5.6s3,1.2,6.2,5.6
						c3.2,4.4,4.1,8,4.1,8s0.9-3.7,4.1-8c3.2-4.4,6.2-5.6,6.2-5.6S514,138.9,510.8,134.6z"/>
				</g>
				<g>
					<path class="st1" d="M531.8,177.1c-3.2-4.4-4.1-8-4.1-8s-0.9,3.7-4.1,8c-3.2,4.4-6.2,5.6-6.2,5.6s3,1.2,6.2,5.6
						c3.2,4.4,4.1,8,4.1,8s0.9-3.7,4.1-8c3.2-4.4,6.2-5.6,6.2-5.6S535,181.5,531.8,177.1z"/>
				</g>
				<g>
					<path class="st1" d="M552.8,219.7c-3.2-4.4-4.1-8-4.1-8s-0.9,3.7-4.1,8c-3.2,4.4-6.2,5.6-6.2,5.6s3,1.2,6.2,5.6
						c3.2,4.4,4.1,8,4.1,8s0.9-3.7,4.1-8c3.2-4.4,6.2-5.6,6.2-5.6S556.1,224,552.8,219.7z"/>
					<path class="st1" d="M510.8,219.7c-3.2-4.4-4.1-8-4.1-8s-0.9,3.7-4.1,8c-3.2,4.4-6.2,5.6-6.2,5.6s3,1.2,6.2,5.6
						c3.2,4.4,4.1,8,4.1,8s0.9-3.7,4.1-8c3.2-4.4,6.2-5.6,6.2-5.6S514,224,510.8,219.7z"/>
				</g>
			</g>
		</g>
		<g>
			<g>
				<g>
					<g>
						<g>
							<g>
								<path class="st2" d="M486.7,117.5h7.8v1.8h-6l-0.2,3c0,0,2.8-1.6,5.5,0.7c0.5,0.4,2.9,2.9,1.4,7.8c-0.3,1-2,3.6-5.6,3.1
									c-0.2,0-2.9-0.7-3.9-3.7l1.7-0.4c0,0,1.3,2.7,3.1,2.5c0.9-0.1,3.3-0.7,3.2-4.6c0-0.3,0-3.7-2.9-4.2c-1-0.2-2.2,0-3.9,1.7
									l-0.8-0.5L486.7,117.5z"/>
							</g>
						</g>
						<g>
							<g>
								<path class="st2" d="M568.8,247.8h-7.9V246h6l0.2-3c0,0-2.8,1.6-5.5-0.7c-0.5-0.4-2.9-2.9-1.4-7.8c0.3-1,2-3.6,5.6-3.1
									c0.2,0,2.9,0.7,3.9,3.7l-1.7,0.4c0,0-1.3-2.7-3.1-2.5c-0.9,0.1-3.3,0.7-3.2,4.6c0,0.3,0,3.7,2.9,4.2c1,0.2,2.2,0,3.9-1.7
									l0.8,0.5L568.8,247.8z"/>
							</g>
						</g>
					</g>
				</g>
			</g>
		</g>
		<g>
			<g>
				<path class="st2" d="M490.8,137.7c0,0,1.4,4.5,4.7,6.3c0,0-3.2,1.7-4.7,6.2c-1.5-4.6-4.7-6.2-4.7-6.2
					C489.4,142.2,490.8,137.7,490.8,137.7z"/>
			</g>
			<g>
				<path class="st2" d="M564.7,227.6c0,0-1.4-4.5-4.7-6.3c0,0,3.2-1.7,4.7-6.2c1.5,4.6,4.7,6.2,4.7,6.2
					C566.1,223.1,564.7,227.6,564.7,227.6z"/>
			</g>
		</g>
	</g>
	<g>
		<g>
			<g>
				<g>
					<path class="st1" d="M552.8,134.6c-3.2-4.4-4.1-8-4.1-8s-0.9,3.7-4.1,8c-3.2,4.4-6.2,5.6-6.2,5.6s3,1.2,6.2,5.6
						c3.2,4.4,4.1,8,4.1,8s0.9-3.7,4.1-8c3.2-4.4,6.2-5.6,6.2-5.6S556.1,138.9,552.8,134.6z"/>
					<path class="st1" d="M510.8,134.6c-3.2-4.4-4.1-8-4.1-8s-0.9,3.7-4.1,8c-3.2,4.4-6.2,5.6-6.2,5.6s3,1.2,6.2,5.6
						c3.2,4.4,4.1,8,4.1,8s0.9-3.7,4.1-8c3.2-4.4,6.2-5.6,6.2-5.6S514,138.9,510.8,134.6z"/>
				</g>
				<g>
					<path class="st1" d="M531.8,177.1c-3.2-4.4-4.1-8-4.1-8s-0.9,3.7-4.1,8c-3.2,4.4-6.2,5.6-6.2,5.6s3,1.2,6.2,5.6
						c3.2,4.4,4.1,8,4.1,8s0.9-3.7,4.1-8c3.2-4.4,6.2-5.6,6.2-5.6S535,181.5,531.8,177.1z"/>
				</g>
				<g>
					<path class="st1" d="M552.8,219.7c-3.2-4.4-4.1-8-4.1-8s-0.9,3.7-4.1,8c-3.2,4.4-6.2,5.6-6.2,5.6s3,1.2,6.2,5.6
						c3.2,4.4,4.1,8,4.1,8s0.9-3.7,4.1-8c3.2-4.4,6.2-5.6,6.2-5.6S556.1,224,552.8,219.7z"/>
					<path class="st1" d="M510.8,219.7c-3.2-4.4-4.1-8-4.1-8s-0.9,3.7-4.1,8c-3.2,4.4-6.2,5.6-6.2,5.6s3,1.2,6.2,5.6
						c3.2,4.4,4.1,8,4.1,8s0.9-3.7,4.1-8c3.2-4.4,6.2-5.6,6.2-5.6S514,224,510.8,219.7z"/>
				</g>
			</g>
		</g>
		<g>
			<g>
				<g>
					<g>
						<g>
							<g>
								<path class="st2" d="M486.7,117.5h7.8v1.8h-6l-0.2,3c0,0,2.8-1.6,5.5,0.7c0.5,0.4,2.9,2.9,1.4,7.8c-0.3,1-2,3.6-5.6,3.1
									c-0.2,0-2.9-0.7-3.9-3.7l1.7-0.4c0,0,1.3,2.7,3.1,2.5c0.9-0.1,3.3-0.7,3.2-4.6c0-0.3,0-3.7-2.9-4.2c-1-0.2-2.2,0-3.9,1.7
									l-0.8-0.5L486.7,117.5z"/>
							</g>
						</g>
						<g>
							<g>
								<path class="st2" d="M568.8,247.8h-7.9V246h6l0.2-3c0,0-2.8,1.6-5.5-0.7c-0.5-0.4-2.9-2.9-1.4-7.8c0.3-1,2-3.6,5.6-3.1
									c0.2,0,2.9,0.7,3.9,3.7l-1.7,0.4c0,0-1.3-2.7-3.1-2.5c-0.9,0.1-3.3,0.7-3.2,4.6c0,0.3,0,3.7,2.9,4.2c1,0.2,2.2,0,3.9-1.7
									l0.8,0.5L568.8,247.8z"/>
							</g>
						</g>
					</g>
				</g>
			</g>
		</g>
		<g>
			<g>
				<path class="st2" d="M490.8,137.7c0,0,1.4,4.5,4.7,6.3c0,0-3.2,1.7-4.7,6.2c-1.5-4.6-4.7-6.2-4.7-6.2
					C489.4,142.2,490.8,137.7,490.8,137.7z"/>
			</g>
			<g>
				<path class="st2" d="M564.7,227.6c0,0-1.4-4.5-4.7-6.3c0,0,3.2-1.7,4.7-6.2c1.5,4.6,4.7,6.2,4.7,6.2
					C566.1,223.1,564.7,227.6,564.7,227.6z"/>
			</g>
		</g>
	</g>
	<g>
		<g>
			<g>
				<g>
					<path class="st1" d="M552.8,134.6c-3.2-4.4-4.1-8-4.1-8s-0.9,3.7-4.1,8c-3.2,4.4-6.2,5.6-6.2,5.6s3,1.2,6.2,5.6
						c3.2,4.4,4.1,8,4.1,8s0.9-3.7,4.1-8c3.2-4.4,6.2-5.6,6.2-5.6S556.1,138.9,552.8,134.6z"/>
					<path class="st1" d="M510.8,134.6c-3.2-4.4-4.1-8-4.1-8s-0.9,3.7-4.1,8c-3.2,4.4-6.2,5.6-6.2,5.6s3,1.2,6.2,5.6
						c3.2,4.4,4.1,8,4.1,8s0.9-3.7,4.1-8c3.2-4.4,6.2-5.6,6.2-5.6S514,138.9,510.8,134.6z"/>
				</g>
				<g>
					<path class="st1" d="M531.8,177.1c-3.2-4.4-4.1-8-4.1-8s-0.9,3.7-4.1,8c-3.2,4.4-6.2,5.6-6.2,5.6s3,1.2,6.2,5.6
						c3.2,4.4,4.1,8,4.1,8s0.9-3.7,4.1-8c3.2-4.4,6.2-5.6,6.2-5.6S535,181.5,531.8,177.1z"/>
				</g>
				<g>
					<path class="st1" d="M552.8,219.7c-3.2-4.4-4.1-8-4.1-8s-0.9,3.7-4.1,8c-3.2,4.4-6.2,5.6-6.2,5.6s3,1.2,6.2,5.6
						c3.2,4.4,4.1,8,4.1,8s0.9-3.7,4.1-8c3.2-4.4,6.2-5.6,6.2-5.6S556.1,224,552.8,219.7z"/>
					<path class="st1" d="M510.8,219.7c-3.2-4.4-4.1-8-4.1-8s-0.9,3.7-4.1,8c-3.2,4.4-6.2,5.6-6.2,5.6s3,1.2,6.2,5.6
						c3.2,4.4,4.1,8,4.1,8s0.9-3.7,4.1-8c3.2-4.4,6.2-5.6,6.2-5.6S514,224,510.8,219.7z"/>
				</g>
			</g>
		</g>
		<g>
			<g>
				<g>
					<g>
						<g>
							<g>
								<path class="st2" d="M486.7,117.5h7.8v1.8h-6l-0.2,3c0,0,2.8-1.6,5.5,0.7c0.5,0.4,2.9,2.9,1.4,7.8c-0.3,1-2,3.6-5.6,3.1
									c-0.2,0-2.9-0.7-3.9-3.7l1.7-0.4c0,0,1.3,2.7,3.1,2.5c0.9-0.1,3.3-0.7,3.2-4.6c0-0.3,0-3.7-2.9-4.2c-1-0.2-2.2,0-3.9,1.7
									l-0.8-0.5L486.7,117.5z"/>
							</g>
						</g>
						<g>
							<g>
								<path class="st2" d="M568.8,247.8h-7.9V246h6l0.2-3c0,0-2.8,1.6-5.5-0.7c-0.5-0.4-2.9-2.9-1.4-7.8c0.3-1,2-3.6,5.6-3.1
									c0.2,0,2.9,0.7,3.9,3.7l-1.7,0.4c0,0-1.3-2.7-3.1-2.5c-0.9,0.1-3.3,0.7-3.2,4.6c0,0.3,0,3.7,2.9,4.2c1,0.2,2.2,0,3.9-1.7
									l0.8,0.5L568.8,247.8z"/>
							</g>
						</g>
					</g>
				</g>
			</g>
		</g>
		<g>
			<g>
				<path class="st2" d="M490.8,137.7c0,0,1.4,4.5,4.7,6.3c0,0-3.2,1.7-4.7,6.2c-1.5-4.6-4.7-6.2-4.7-6.2
					C489.4,142.2,490.8,137.7,490.8,137.7z"/>
			</g>
			<g>
				<path class="st2" d="M564.7,227.6c0,0-1.4-4.5-4.7-6.3c0,0,3.2-1.7,4.7-6.2c1.5,4.6,4.7,6.2,4.7,6.2
					C566.1,223.1,564.7,227.6,564.7,227.6z"/>
			</g>
		</g>
	</g>
	<g>
		<g>
			<path id="XMLID_304_" class="st2" d="M42.7,71.5c0,0,5,1,7.6,1.3c2.8,0.3,6,0.4,6,0.4s-0.2,3.6,0.5,7c0,0-6.5-1.6-13.5-1.8
				C43.2,78.4,43.5,75,42.7,71.5z"/>
			<g>
				<g>
					<path id="XMLID_303_" class="st3" d="M33.3,58L18.9,73.9v7l10.4,11.7l0.1-0.7c0.2-2,1.2-9.1,3.8-15.1c2.5-5.7,6.6-10,7.4-10.8
						l0.1-0.1l-0.1-0.2c-2.6-5-6.3-7.3-7-7.8l-0.2-0.1L33.3,58z"/>
					<path id="XMLID_302_" class="st3" d="M27.5,45.2c-0.6,0-1.2,0.6-1.5,1c0,0-0.1,0-0.1,0c-0.4-0.3-0.9-0.5-1.5-0.4
						c-0.7,0.1-1.3,0.5-1.5,0.8c-0.4,0.6-0.6,1.5-0.4,2.4c0.1,0.5,0.4,0.8,0.6,1l0.2,0.2c0,0.1-0.1,0.3-0.1,0.5l-0.2,0.6
						c0,0.4,0.2,1.6,0.7,2.1c0.6,0.7,1.9,0.5,2.3,0.4l0.6-0.5c0,0,0.2-0.2,0.2-0.2c0.1,0,0.2,0.1,0.2,0.1c0.3,0.2,0.6,0.4,1.1,0.5
						c0.7,0.1,1.5-0.3,1.9-1.1c0.4-0.8,0.2-2.6-0.2-3.1c-0.3-0.3-0.1-0.6,0-0.8c0.2-0.3,0.4-0.8,0.1-1.9
						C29.5,45.8,28.4,45.2,27.5,45.2z"/>
					<path id="XMLID_301_" class="st3" d="M20.2,53.9c0.1-0.2,0.5-0.3,0.8-0.2c0.4,0,1,0.1,1.2,0.1c0.3,0,0.7,0.1,1,0.2
						c0.2,0.1,0.4,0.1,0.7,0.2c0.3,0.1,0.7,0.1,0.9,0.3c0.2,0.2,0.5,0.4,0.8,0.7c0.2,0.2,0.4,0.4,0.3,0.6C25.8,56,25.4,56,25.1,56
						c-0.3,0-0.6,0.2-0.9,0.2c-0.3,0-1,0.1-1.3,0c-0.3-0.1-0.9-0.2-1.2-0.4c-0.3-0.2-0.9-0.5-1-0.8C20.5,54.9,20,54.2,20.2,53.9z"/>
					<path id="XMLID_300_" class="st3" d="M28.1,55.6c0.3-0.2,0.9-0.4,1.3-0.6c0.4-0.1,0.9-0.3,1.2-0.4c0.3-0.2,1.1-0.4,1.3-0.3
						c0.2,0.1,0.3,0.3,0.3,0.7c0,0.4-0.2,0.7-0.5,1c-0.3,0.3-0.7,0.8-0.9,0.9c-0.2,0.2-0.9,0.5-1.4,0.6c-0.4,0-0.9-0.3-1.2-0.4
						c-0.3-0.1-0.6-0.4-0.8-0.5C27.1,56.5,27.3,56,28.1,55.6z"/>
					<path id="XMLID_299_" class="st3" d="M22.2,65.2c0.3,0.1,0.7,0.2,0.8,0.7c0.1,0.5,0,0.8,0,1.1c0,0.3-0.2,1.1-0.2,1.3
						c0,0.2-0.1,0.5-0.2,0.7c-0.1,0.2-0.5,0.4-0.7,0.4c-0.3,0-0.7,0-0.8-0.3c-0.1-0.3-0.2-0.6-0.1-1.1c0-0.5,0.3-1.2,0.3-1.4
						c0-0.2,0.2-1,0.3-1.2C21.6,65.2,22,65.2,22.2,65.2z"/>
					<path id="XMLID_298_" class="st3" d="M25.8,59.5c0.3-0.1,0.4,0.1,0.4,0.3c0,0.2-0.1,0.5,0,0.6c0,0.2-0.1,0.5-0.1,0.7
						c0,0.2-0.3,0.6-0.4,0.8c-0.1,0.1-0.3,0.6-0.4,0.7c-0.1,0.1-0.4,0.4-0.3-0.2c0.1-0.6,0.3-1,0.3-1.3c0-0.3,0.1-0.7,0.3-1
						C25.6,59.8,25.7,59.5,25.8,59.5z"/>
					<path id="XMLID_297_" class="st3" d="M59.3,17.1l13.5,20.7c1.7-0.9,5.6-1.4,5.6-1.4C74.4,25.7,76.2,17,76.2,17L59.3,17.1z"/>
					<path id="XMLID_296_" class="st3" d="M74.5,52.1c-5.4-3.5-8.8-9.3-8.8-9.3C53.8,49,46,43.9,46,43.9l-8.6,9.5
						c0,0,3.7,2.9,10.7,4.4l-2.9,9.8c0,0,1,0.6,2.9,0.9c1.9,0.3,2.7,0.1,2.7,0.1l3.4-10.1c0.6,0,1.3,0,1.9,0
						C66.1,58.6,74.5,52.1,74.5,52.1z"/>
				</g>
				<g>
					<polygon id="XMLID_295_" class="st2" points="80.5,59.3 80.5,49.4 59.5,17.1 55.9,17.1 					"/>
					<polygon id="XMLID_294_" class="st2" points="41.6,59.9 45.7,61.3 44.1,67.1 40.7,65.9 40.1,64.7 					"/>
					<path id="XMLID_293_" class="st2" d="M59.4,62.5c0,0-0.9,1.6-1.6,3.3c-0.7,1.8-1,3.2-1,3.2l-4-0.1l-0.1-1.5l1.8-4.8L59.4,62.5z
						"/>
					<ellipse id="XMLID_292_" class="st2" cx="26.4" cy="49.6" rx="1" ry="1.2"/>
					<path id="XMLID_291_" class="st2" d="M36.4,71.2c-1.3,1.9-2.4,3.8-3.2,5.7c-2.4,5.6-3.4,12.1-3.7,14.7L29.4,92l0.4-0.2
						c1.2-0.6,5.1-2.9,7.2-9.4c1.5-4.8,0-10.1-0.3-11.1l-0.1-0.5L36.4,71.2z"/>
					<path id="XMLID_290_" class="st2" d="M46.7,34.3c0,0-1.8,2.8-2.7,6c-0.9,3.2-0.9,5.5-1,6.9l4.8-5.4
						C47.8,41.8,46.7,38.6,46.7,34.3z"/>
				</g>
				<g>
					<g id="XMLID_799_">
						<g id="XMLID_802_">
							<path id="XMLID_925_" class="st4" d="M60.3,31.2c0-0.3-0.4-0.7-0.8-1.1c-0.4-0.4-1-1.1-1.7-1.6c-0.7-0.4-1.7-0.4-2.2-0.1
								c-0.5,0.2-1.4,0.8-1.7,1c0,0-0.7-0.2-0.8,0.1c-0.1,0.2,0.3,1,0.4,1.2c0.2,0.2,0,0.6,0,0.9c0,0.3,0.5,0.9,0.9,1.3
								c0.3,0.4,1.2,1.4,1.5,1.6c0.3,0.2,0.4,0,0.3-0.1c-0.1-0.1-0.2-0.3-0.5-0.5c-0.2-0.2-0.3-0.4-0.5-0.8
								c-0.2-0.4,0.3-0.4,0.5-0.3c0.3,0.1,0.5,0.1,0.8,0c0.3,0,0.7,0,1-0.2c0.3-0.2,0.8-0.4,1.2-0.5c0.3-0.1,0.9-0.1,1.2-0.2
								C60.2,31.6,60.3,31.5,60.3,31.2L60.3,31.2z M54.9,31.7L54.9,31.7c-0.3-0.2-0.6-0.6-0.3-0.9c0.2-0.1,0.3,0.1,0.4,0.2
								c0.1,0.1,0.3,0.4,0.3,0.5C55.3,31.7,55.2,31.9,54.9,31.7L54.9,31.7z M57.6,31.3L57.6,31.3c-0.1,0.2-0.3,0.9-0.9,0.9
								c-0.7,0.1-1-0.2-1.2-0.7c-0.2-0.5,0-0.8,0.1-0.8c0.2-0.1,0.2,0.1,0.2,0.3c0,0.2,0.2,0.9,0.5,0.9c0.3,0,0.6-0.3,0.7-0.5
								c0.1-0.2,0.1-0.5,0.3-0.5C57.6,30.8,57.6,31,57.6,31.3L57.6,31.3z M58.6,31.5L58.6,31.5c-0.1,0.1-0.3,0.3-0.4,0.3
								c-0.2,0-0.3-0.1-0.3-0.4c0-0.3,0.2-0.2,0.3-0.3c0.1,0,0.3,0,0.4,0.1C58.7,31.2,58.7,31.4,58.6,31.5L58.6,31.5z M57.9,29.6
								L57.9,29.6c-0.3-0.2-1.2-0.3-1.6-0.3c-0.4,0-1.1,0.2-1.3,0.3c-0.2,0.1-0.7,0-0.2-0.3c0.5-0.4,1-0.6,1.6-0.6
								c0.6,0,1.2,0.2,1.5,0.4c0.3,0.2,0.9,0.6,0.9,0.8C58.7,30,58.2,29.8,57.9,29.6z"/>
							<path id="XMLID_924_" class="st4" d="M54,28.4c0.2-0.2,0.3-0.3,0.9-0.5c0.6-0.3,1.8-0.2,2.7,0c0.9,0.2,2.5,1.2,2.8,1.5
								c0.3,0.3,0.6,0.5,0.7,0.4c0.1-0.1-0.1-0.6-0.3-0.8c-0.3-0.2-0.4-0.5-1.1-1.1c-0.7-0.6-1.9-1.2-2.7-1.4
								c-0.8-0.1-1.8-0.1-2.6,0.3c-0.5,0.2-0.8,0.5-1.1,1.1C52.9,28.3,53.5,28.7,54,28.4z"/>
							<path id="XMLID_807_" class="st4" d="M56.2,16.8h-0.8l1.6,2.8c-1.6-1.2-2.3-2.8-2.3-2.8h-0.6c0,0.1,1.2,2.6,3.5,3.8l0.7,1.3
								c-3.7-1.9-4.8-5-4.9-5.1h-0.6c0.1,0.2,1.5,4,5.9,5.9l0.6,1.1c-5.7-1.9-7.3-6.9-7.3-7h-0.6c0,0.1,1.9,5.8,8.3,7.7l0.8,1.4
								c-4.7-1.4-7.5-4.6-8.7-6.5c0,0-0.8-1.5-0.8-1.5c0.2-0.6,0.3-1,0.4-1.1h-0.5c0,0-1.1,3.5-3.8,6.2c0-0.4,0-0.7,0-1.1
								c2.2-2.3,3.3-4.9,3.3-5.1h-0.6c0,0-0.8,2.1-2.7,4.3c0-0.4,0-0.8,0-1.2c1.5-1.1,1.9-3,1.9-3.1h-0.6c0,0-0.3,1.4-1.3,2.4
								c0-1.4,0-2.4,0-2.4h-0.5c0,0-0.3,13.9-0.1,18.4c0.1,2.1,0.3,4.4,1.1,6.4L31,60.2c-0.3-1.7-1.1-2.4-1.1-2.4s0.7-0.4,1.5-1.2
								c0.8-0.8,0.9-1.8,1-2.3c0.1-0.4,0-0.8-0.2-0.7c-0.2,0-0.6,0.2-1,0.4c-0.5,0.2-1.1,0.4-1.5,0.5c-0.4,0.1-1.4,0.4-1.7,0.7
								c-0.3,0.2-0.4,0.1-0.4,0.1s0-0.8,0-0.9c0-0.2,0.1-0.2,0.1-0.2c0.7,0.1,1.5-0.2,2-0.8c0.5-0.6,0.7-1.6,0.7-1.9
								c0-0.6-0.2-1.1-0.2-1.4c0-0.2,0.4-0.5,0.6-0.6c0.1-0.1,0.1-0.3,0-0.5c-0.2-0.1-0.7-0.6-0.7-0.6s0.1-0.7-0.1-1.4
								c-0.2-0.9-0.9-1.6-1.5-1.8c-0.6-0.3-1.4-0.1-1.6,0c-0.2,0.1-0.3,0.1-0.4,0c-0.2-0.1-0.8-0.7-0.8-0.7c-0.1,0-0.7,1.1-0.7,1.1
								s-0.9-0.1-1.5,0.1c-0.6,0.3-1.3,1.1-1.4,2c-0.1,0.9,0.2,1.7,0.1,2c-0.1,0.3-0.4,0.8-0.5,1c0,0.4,0.8,0.6,0.8,0.6
								s0,0.6,0.1,1.1c0.1,0.5,0.5,0.9,0.4,1.1c-0.1,0.2-1,0.1-1.5,0.1c-0.5-0.1-1.3-0.5-1.6-0.5c-0.3,0-0.5,0.2-0.2,0.8
								c0.2,0.6,0.5,1.1,1,1.6c0.5,0.5,1.4,0.8,1.7,0.8c0.3,0,0.3,0.2,0,0.4c-0.3,0.2-0.5,0.4-0.6,0.8c0,0.5-0.3,0.5-0.5,0.9
								c-0.2,0.4-0.2,0.7-0.2,1.1c0,0.4-0.1,0.7-0.2,0.9c-0.1,0.2-0.3,0.5-0.3,0.8c0,0.3,0,0.8,0.1,2c0.1,1.2,0.5,1.5,0.6,1.8
								c0.1,0.3-0.1,1-0.2,1.5c-0.1,0.6-0.4,1.4-0.4,2.2c0,0.8,0.7,1,1.3,0.9c0.5-0.1,1-0.9,1.1-1.2c0.1-0.3,0.2-1.2,0.2-1.6
								c0-0.4,0-0.8,0.2-0.8c0.2,0,0.3,0.2,0.6,0.5c0.2,0.2,0.5,0.4,0.8,0.6L18.6,74l-0.1,0.1v18l3.9,6.8l2.6,1.3l0.1-0.1
								c5.3-4.2,11.4-5.8,11.5-5.8l0.1,0l0.1,0c0.1-0.1,6.2-5.7,6.8-15.4c0-0.7,0.1-1.3,0.1-1.9c0-5.2-1.4-9.2-3.1-12.1l2.6-8.5
								c-2.1-0.8-4.7-2.2-5.3-2.7c3.9-4.4,7.5-8.3,9.2-10.3c0.3,0.2,1,0.5,2,0.7c0.8,1,2,1.6,3.5,1.8c1.8,0.2,3.4-0.4,4.8-1.4
								c3.4-0.3,6.9-1.8,7.8-2.2c0.8,1.5,1.7,2.9,2.8,4.2c4.7,5.6,7.7,6.7,8.6,6.9l4.3,7.2l0-1.7L56.2,16.8L56.2,16.8z M29.4,55.2
								L29.4,55.2c0.3-0.1,0.8-0.3,1.1-0.4c0.3-0.1,1.2-0.4,1.3-0.3c0.1,0.1,0.2,0.6,0,1c-0.2,0.4-1.1,1.2-1.4,1.3
								c-0.3,0.2-0.8,0.4-1,0.4c-0.3,0-0.6-0.1-0.8-0.2c-0.2-0.1-0.3-0.2,0.2-0.3c0.5-0.2,1-0.3,1.3-0.4c0.3-0.2,0.9-0.6,0.8-0.8
								c0-0.2-0.4-0.2-0.8,0c-0.4,0.2-0.9,0.4-1.3,0.5c-0.4,0.1-0.8,0.4-1,0.5c-0.2,0.1-0.6,0-0.4-0.3
								C27.8,55.9,28.5,55.5,29.4,55.2L29.4,55.2z M23,51.5L23,51.5c0-0.3,0.4-0.9,0.3-1.2c0-0.3-0.5-0.5-0.7-1.3
								c-0.2-0.8,0-1.7,0.4-2.2c0.4-0.5,1.6-1.2,2.7-0.4c0.1,0.1,0.3,0.1,0.5,0c0.3-0.4,0.8-0.9,1.4-1c0.8,0,1.8,0.5,2.1,1.5
								c0.3,1,0.1,1.5-0.1,1.7c-0.2,0.3-0.3,0.7,0.1,1.1c0.4,0.4,0.5,2.1,0.2,2.8c-0.4,0.7-1.1,1.1-1.7,1c-0.6-0.1-1.2-0.6-1.3-0.6
								c-0.2,0-0.6,0.6-1,0.7c-0.4,0.2-1.6,0.2-2-0.3C23.2,52.9,23,51.8,23,51.5L23,51.5z M27.3,54.5L27.3,54.5c0,0.4,0,1.2,0,1.4
								c0,0.2-0.2,0.4-0.4,0.4c-0.2,0-0.4-0.2-0.4-0.5c0-0.3,0-0.9,0-1.1c0-0.2,0-0.6,0.3-0.7C26.9,54,27.3,54.2,27.3,54.5
								L27.3,54.5z M25.9,55.3L25.9,55.3c-0.3-0.2-0.9-0.7-0.9-0.9c0,0,0.9-0.3,1.1-0.4c0.1-0.1,0.2,0.2,0.2,0.4c0,0.1,0,0.7,0,0.9
								C26.2,55.5,26.2,55.5,25.9,55.3L25.9,55.3z M26.1,56.7L26.1,56.7c0,0.2-0.4,0.3-0.7,0.3c-0.3,0-0.9,0-0.9-0.2
								c-0.1-0.2,0.2-0.4,0.6-0.4C25.3,56.3,26.1,56.4,26.1,56.7L26.1,56.7z M22.5,55.9L22.5,55.9c-0.5-0.1-1-0.4-1.5-0.8
								c-0.5-0.4-0.8-1-0.6-1.2c0.1-0.2,1.4,0,1.8,0c0.4,0,1.4,0.4,1.9,0.5c0.5,0.1,1,0.7,1.3,0.9c0.3,0.2,0.4,0.5,0,0.3
								c-0.4-0.2-2-0.9-2.4-0.9c-0.4,0-0.8,0.2-0.2,0.4c0.5,0.2,1.2,0.3,1.5,0.4c0.3,0.1,0.4,0.4,0,0.4C23.8,55.9,23.1,56,22.5,55.9
								L22.5,55.9z M22.8,57.1L22.8,57.1c0.3-0.2,1.2-0.4,1.2-0.1c0,0.2,0,0.3,0.1,0.5c0.1,0.1,0,0.3-0.2,0.2
								c-0.2-0.1-0.6,0.1-0.3,0.3c0.3,0.2,0.6,0.5,0.8,0.6c0.2,0.1,0.2,0.1,0,0.3c-0.2,0.2-0.6,0.4-0.5,0.7c0.1,0.3,0.2,0.2,0.4,0
								c0.1-0.2,0.5-0.4,0.8-0.4c0.2,0,0.4,0.3,0.4,0.5c0,0.2-0.3,0.5-0.6,0.5c-0.4,0-0.8,0-1.3-0.5c-0.5-0.5-0.9-1.2-1-1.7
								C22.4,57.6,22.5,57.3,22.8,57.1L22.8,57.1z M24,61.9L24,61.9c-0.3-0.2,0-0.7,0.3-1c0.2-0.2,0.5,0,0.6,0.2
								c0.1,0.2,0,0.6-0.1,0.8C24.6,62,24.3,62.2,24,61.9L24,61.9z M24.4,63.5L24.4,63.5c-0.3,0.1-0.5,0.2-0.7,0
								c-0.2-0.2,0.1-0.6,0.3-0.7c0.2-0.2,0.6,0,0.7,0.1C24.7,63,24.7,63.3,24.4,63.5L24.4,63.5z M22,58.8L22,58.8
								c0.1,0,0.3,0.2,0.5,0.4c0.2,0.3,0.5,0.7,0.7,0.9c0.3,0.2,0.4,0.4,0.6,0.5c0.1,0.1-0.2,0.3-0.2,0.5c-0.1,0.2-0.1,0.6-0.3,0.5
								c-0.2,0-0.5-0.2-0.9-0.6c-0.3-0.4-0.8-0.9-0.8-1.4C21.6,59.2,21.7,58.8,22,58.8L22,58.8z M22.5,68.7L22.5,68.7
								c-0.1,0.2-0.5,0.5-0.8,0.6c-0.3,0-0.4,0-0.6-0.3c-0.1-0.3,0.1-0.4,0.5-0.6c0.2-0.1,0.4-0.2,0.6-0.2
								C22.5,68.3,22.5,68.5,22.5,68.7L22.5,68.7z M22.8,67.3L22.8,67.3c0,0.3-0.1,0.5-0.4,0.5c-0.3,0-0.8,0.2-0.8,0.2
								c-0.1,0-0.4,0.1-0.4-0.3c0-0.4,0.3-0.8,0.3-1.2c0-0.4,0.1-1,0.7-1c0.3,0,0.5,0.2,0.7,0.6C22.9,66.5,22.8,67,22.8,67.3
								L22.8,67.3z M22.4,65L22.4,65c-0.4-0.1-0.6-0.1-0.9-0.6c-0.3-0.4-0.4-0.8-0.3-1c0.1-0.3,0.5-0.1,0.6,0
								c0.1,0.1,0.4,0.5,0.6,0.5c0.2,0,0.2,0.2,0.3,0.3c0,0.1,0.1,0.5,0.2,0.7C22.9,65,22.7,65.1,22.4,65L22.4,65z M23,63.2L23,63.2
								c0,0.1-0.3,0.3-0.5,0.2c-0.3-0.1-1-0.8-1.2-1.1c-0.2-0.3-0.3-0.7-0.2-1c0.1-0.4,0.2-0.5,0.4-0.5c0.1,0,0.4,0.3,0.5,0.4
								c0.1,0.1,0.5,0.7,0.8,0.8c0.3,0.2,0.4,0.3,0.6,0.4c0.2,0,0.1,0.2,0,0.4C23.2,62.9,23.1,63.1,23,63.2L23,63.2z M23.3,64.7
								L23.3,64.7c-0.2-0.2-0.2-0.4-0.2-0.4c0-0.2,0.1-0.1,0.4-0.1c0.3,0,0.5,0.4,0.3,0.6C23.7,64.9,23.5,64.9,23.3,64.7L23.3,64.7z
								 M23.8,66L23.8,66c-0.2-0.1-0.1-0.5,0-0.6c0.2-0.1,0.4-0.4,0.4-0.7c0-0.3,0.3-0.6,0.5-0.8c0.2-0.2,0.3-0.6,0.3-1
								c0-0.3,0.1-0.7,0.2-0.9c0.1-0.3,0.1-0.8,0.3-1.2c0.1-0.5,0.3-1.1,0.5-1c0.2,0.1,0,0.4-0.1,1c-0.1,0.6,0.3,0.4,0.4,0.1
								c0.1-0.3,0.2-0.6,0.4-0.6c0.1,0,0.2,0.4,0.1,0.9c0,0.5,0,1,0,1.4c0.1,0.5,0.3,0.8,0.4,0.8c0.1,0,0-0.5-0.1-0.9
								c-0.1-0.5,0-0.7,0-1.2c0-0.5,0.3-1,0.3-1.3c0-0.3-0.4-0.5-0.7-0.6c-0.3-0.1-0.3-0.3-0.5-0.5c-0.2-0.2-0.4-0.2-0.8-0.4
								c-0.4-0.2-0.8-0.6-0.8-0.9c0.1-0.2,0.5-0.1,1-0.2c0.5,0,0.7-0.3,0.9-0.5c0.3-0.2,0.9,0.1,0.9,0.1s1.2,0.5,1.7,0.9
								c1,0.9,1.3,2,1.3,2.7l-5.5,6.1C24.7,66.5,24,66.1,23.8,66L23.8,66z M29.9,96.4L29.9,96.4L19,84.6c0-1.1,0-2.2,0-3.3
								l12.5,14.2C31,95.8,30.4,96.1,29.9,96.4L29.9,96.4z M37.6,70L37.6,70c0.1-0.2,0.3-0.4,0.4-0.5c0.5,1.4,2.3,6.8,0.8,13.1
								c-1.6,6.3-7,10.3-8.2,11.1l-0.5-0.5c1-0.6,5.9-3.7,7.8-10C39.8,76.9,38,71.1,37.6,70L37.6,70z M38.4,68.9L38.4,68.9
								c0.1-0.2,0.3-0.3,0.4-0.5c0.6,1.6,2.5,7.3,1,13.8c-1.7,7.2-7.3,11.4-8.4,12.2L31,94c1.4-0.9,6.8-5,8.4-11.4
								C41.1,75.7,38.7,69.7,38.4,68.9L38.4,68.9z M36.8,82.4L36.8,82.4c-2.1,6.5-6.1,8.8-7.1,9.2c0.3-2.5,1.3-9,3.7-14.6
								c0.9-2.1,2-4,3.1-5.6C36.9,72.4,38.4,77.7,36.8,82.4L36.8,82.4z M32.1,95.3L32.1,95.3L31.8,95c1.3-0.9,6.9-5.3,8.6-12.5
								c1.6-7.1-0.7-13.3-1.2-14.5c0.1-0.1,0.3-0.3,0.4-0.4c0.6,1.5,2.9,7.2,1.6,13.8c-0.7,3.3-1.8,6-3.6,8.5
								c-1.4,1.9-3.2,3.8-5.2,5.4C32.3,95.2,32.2,95.3,32.1,95.3L32.1,95.3z M40.7,66.4L40.7,66.4C42,69.1,43,72.6,43,76.9
								c0,0.6,0,1.2-0.1,1.9c-0.6,9.1-6.1,14.6-6.6,15c-0.2,0.1-1.1,0.3-2.3,0.7c1.5-1.3,2.8-2.7,3.9-4.3c1.8-2.6,3-5.4,3.7-8.7
								c1.4-7.1-1.2-13.3-1.7-14.4C40.3,66.8,40.5,66.5,40.7,66.4L40.7,66.4z M40.4,65.9L40.4,65.9c-0.8,0.8-5,5.2-7.5,10.9
								c-2.6,6-3.5,13-3.8,15.2L19,80.4c0-3.3,0-6,0-6.1c0.1-0.1,7.2-8.1,14.5-16.1C34.3,58.7,37.9,61,40.4,65.9L40.4,65.9z
								 M65,33.4L65,33.4c-0.5,1.8-0.6,4.4-0.6,5.9c-0.2-0.4-0.3-0.9-0.5-1.3c0-0.5,0.2-3.3,0.8-5L65,33.4L65,33.4z M64.4,32.4
								L64.4,32.4c-0.6,1.1-0.8,2.9-0.9,4.2c-0.2-0.6-0.3-1.2-0.5-1.8l0.9-3.2L64.4,32.4L64.4,32.4z M63.6,30.9L63.6,30.9l-0.8,2.8
								c-0.1-0.5-0.2-1-0.3-1.4l0.6-2.1L63.6,30.9L63.6,30.9z M62.7,29.5L62.7,29.5l-0.4,1.4c-0.1-1-0.2-1.9-0.2-2.5L62.7,29.5
								L62.7,29.5z M47.1,23.7L47.1,23.7c1.9-1.7,3.1-3.8,3.7-5.2c0.1,0.2,0.3,0.5,0.5,0.8c-1.4,2.9-3.3,4.7-4.2,5.4
								C47.1,24.4,47.1,24.1,47.1,23.7L47.1,23.7z M50.2,29.6L50.2,29.6c-0.3-0.1-1.1-0.4-1.6-0.4c-0.5,0-1.2,0.3-1.3,0.4
								c-0.1,0.1-0.2,0-0.3,0c0-0.1,0-0.2,0-0.2c0,0,0,0,0-0.1c0.3-0.3,1-0.5,1.5-0.5c0.4,0,1,0.1,1.4,0.2c0.4,0.1,0.9,0.5,0.9,0.6
								C50.8,29.9,50.5,29.8,50.2,29.6L50.2,29.6z M50.6,31.7L50.6,31.7c-0.2,0.1-0.4,0.3-0.6,0.1c-0.2-0.2,0.1-0.5,0.3-0.6
								c0.2-0.1,0.4-0.1,0.6,0C51,31.4,50.8,31.6,50.6,31.7L50.6,31.7z M49.7,31.5L49.7,31.5c-0.1,0.2-0.4,0.7-1,0.8
								c-0.5,0-0.9-0.2-1-0.5c-0.1-0.3-0.2-0.8,0.1-0.8c0.1,0,0.2,0.1,0.2,0.2c0,0.1,0.2,0.8,0.7,0.8c0.4,0,0.6-0.3,0.6-0.6
								c0-0.3,0.2-0.5,0.3-0.5C49.8,30.9,49.7,31.3,49.7,31.5L49.7,31.5z M47,31.4L47,31.4C47,31.3,47.1,31.3,47,31.4
								c0.3-0.2,0.3,0.1,0.4,0.2c0.1,0.1,0.2,0.4,0.1,0.5c-0.2,0.1-0.3,0-0.4-0.2c0-0.1,0-0.1-0.1-0.2C47,31.6,47,31.5,47,31.4
								L47,31.4z M50.4,29L50.4,29c-0.4-0.2-1.1-0.6-1.6-0.6c-0.5,0-1,0.2-1.2,0.3c-0.2,0.1-0.5,0-0.5-0.2c0,0,0,0,0,0c0,0,0,0,0,0
								c0-0.2,0.3-0.4,1-0.6c0.4-0.1,1-0.1,1.3,0c0.3,0.1,0.8,0.4,1,0.6C50.5,28.7,50.8,29.1,50.4,29L50.4,29z M47.3,42.8L47.3,42.8
								c0.2-0.3,0.4-0.5,0.6-0.6c0.2,0.4,0.4,0.7,0.6,1.1C47.9,43.1,47.5,43,47.3,42.8L47.3,42.8z M52.5,45.2L52.5,45.2
								c-4.5-0.4-5.3-5.9-5.4-10c0-0.7,0-1.6-0.1-2.6c0.1,0,0.3,0.1,0.4,0.1c0.3,0,0.7,0.2,1.1,0.2c0.4,0,0.8-0.1,1.1-0.2
								c0.3-0.1,0.6-0.1,0.5,0.1c-0.2,0.2-0.4,0.4-0.6,0.8c-0.3,0.4,0.2,0.5,0.3,0.3c0.1-0.1,0.4-0.4,0.5-0.4c0.2,0,0,0.6-0.3,1.1
								c-0.3,0.7-0.4,1.2-0.4,1.6c0,0.4,0.9,0.9,1.3,1.1c0.4,0.3,0.6,0.8,0.8,0.7c0.2-0.1-0.2-0.7-0.3-0.9c-0.1-0.3,0.3-0.5,0.7-0.2
								c0.4,0.3,0.7,0.4,1.3,0.3c0.6-0.1,0.8-0.8,0.7-1.3c-0.1-0.5-0.3-1.1-0.6-1.2c-0.3-0.1-0.5,0.4-0.2,0.5
								c0.2,0.1,0.4,0.2,0.5,0.5c0.2,0.3,0.1,0.7-0.1,0.9c-0.2,0.1-0.7,0.1-1.1-0.1c-0.4-0.3-0.4-0.6-1.1-0.7
								c-0.7-0.1-0.5,0.6-0.7,0.7c-0.2,0-0.4,0-0.5-0.3c-0.1-0.3-0.1-0.7,0-1.1c0.1-0.4,0.5-1.6,0.8-2.3c0.2-0.8,0.3-1.2,0.2-2.7
								c-0.1-1.5-1.2-2.9-2.3-3.1c-0.8-0.1-1.8,0.3-2.1,0.4c0-0.6,0-1.2,0-1.8c0.6-0.4,2.9-2.2,4.5-5.6C53,22,56,25.2,61,26.5
								l0.5,0.9c0,1,0.2,4.9,1.5,9.4l0,0C62.9,36.9,58.5,45.7,52.5,45.2L52.5,45.2z M58.2,43.7L58.2,43.7c0.2-0.1,0.3-0.3,0.5-0.4
								l0.2,0.3C58.7,43.6,58.4,43.7,58.2,43.7L58.2,43.7z M59.5,43.5L59.5,43.5l-0.4-0.5c0.1-0.1,0.2-0.2,0.3-0.3l0.4,0.8
								C59.7,43.4,59.6,43.5,59.5,43.5L59.5,43.5z M60.4,43.3L60.4,43.3l-0.5-1.1c0.1-0.1,0.2-0.3,0.4-0.4l0.7,1.3
								C60.7,43.2,60.5,43.2,60.4,43.3L60.4,43.3z M61.4,43L61.4,43l-0.8-1.6c0.1-0.2,0.3-0.3,0.4-0.5l0.9,2
								C61.7,42.9,61.6,42.9,61.4,43L61.4,43z M62.4,42.6L62.4,42.6l-1-2.3c0.1-0.2,0.2-0.3,0.4-0.5l1.1,2.6
								C62.7,42.5,62.5,42.6,62.4,42.6L62.4,42.6z M63.3,42.3L63.3,42.3l-1.2-3c0.1-0.2,0.2-0.4,0.3-0.5l1.4,3.3
								C63.7,42.2,63.5,42.2,63.3,42.3L63.3,42.3z M64.3,41.9L64.3,41.9l-1.5-3.6c0.2-0.3,0.3-0.6,0.4-0.8c0.4,1.4,1,2.8,1.6,4.2
								C64.7,41.7,64.5,41.8,64.3,41.9L64.3,41.9z M65.5,41.8L65.5,41.8c-0.2-0.4-0.4-0.8-0.5-1.1c0-0.5-0.1-4.1,0.4-6.6l0.6,1
								C65.4,36.9,65.4,40,65.5,41.8L65.5,41.8z M66.6,43.6L66.6,43.6c-0.2-0.3-0.3-0.5-0.5-0.8c0-0.6-0.4-4.8,0.2-7.2l0.5,0.9
								C66.2,38.8,66.4,41.9,66.6,43.6L66.6,43.6z M67.2,44.7L67.2,44.7c-0.1-0.6-0.7-4.7,0-7.4l0.5,0.8c-0.6,2.3-0.1,5.8,0.3,7.6
								C67.7,45.3,67.5,45,67.2,44.7L67.2,44.7z M68.7,46.5L68.7,46.5c-0.1-0.5-1.2-4.9-0.7-7.8l0.6,1c-0.2,3,0.6,6.2,1,7.9
								C69.4,47.3,69.1,46.9,68.7,46.5L68.7,46.5z M70.5,48.5L70.5,48.5c-0.2-0.5-1.4-4.3-1.4-7.9l0.8,1.4c-0.2,2.6,0.5,5.4,0.9,6.9
								C70.8,48.7,70.6,48.6,70.5,48.5L70.5,48.5z M71.7,49.6L71.7,49.6c-0.2-0.5-1.3-3.7-1.2-6.8l0.9,1.5c0.1,2.1,0.8,4.7,1.2,6
								C72.3,50.1,72,49.9,71.7,49.6L71.7,49.6z M73.3,50.9L73.3,50.9c-0.2-0.5-1.1-3.2-1.4-5.6l0.9,1.5c0.2,1.5,0.9,3.5,1.2,4.6
								C73.8,51.3,73.6,51.1,73.3,50.9L73.3,50.9z M74.7,51.9L74.7,51.9c-0.1-0.4-0.7-2-1.1-3.6l2.5,4.3
								C75.8,52.4,75.3,52.2,74.7,51.9z"/>
							<path id="XMLID_806_" class="st4" d="M80.9,49.9c0,0-7.4-11.2-7.8-11.9c0.4-0.2,0.9-0.4,1.4-0.5l0.4-0.1
								c1-0.2,2.8-0.6,3.4-0.6h0.5l-0.2-0.5c0-0.1-2.6-6.5-2.6-14c0-1.8,0.2-3.6,0.5-5.5h-0.8c-0.3,1.9-0.5,3.6-0.5,5.4
								c0,6.6,1.9,12.3,2.5,13.9c-0.7,0.1-1.9,0.3-3,0.6l-0.4,0.1c-0.9,0.2-1.9,0.7-2,0.8l-0.4,0.2l8.3,12.6L80.9,49.9z"/>
							<path id="XMLID_803_" class="st4" d="M25,48.9c0.2,0.1,0.2,0.3,0.2,0.4s0,0.7,0,1c0,0.3,0.2,0.4,0.1,0.6
								c-0.1,0.2-0.8,1-1,1.4c-0.2,0.4,0.2,0.6,0.3,0.4c0.2-0.3,1.1-1.6,1.3-1.6c0.2,0,0.5,0.2,0.8,0.1c0.3,0,0.5-0.3,0.6-0.2
								c0.1,0.1,0.9,0.8,1.2,1.1c0.3,0.2,0.4-0.1,0.2-0.3c-0.2-0.2-0.8-0.9-0.9-1c-0.1-0.1-0.3-0.2-0.2-0.4c0-0.1,0-0.3,0-0.6
								c0-0.3-0.1-0.8-0.2-1c-0.1-0.1,0-0.3,0.1-0.4c0.1-0.1,0.8-1.1,1-1.4c0.1-0.3-0.2-0.4-0.3-0.2c-0.1,0.2-0.9,1.2-1,1.3
								c-0.2,0.1-0.3,0.2-0.5,0.2c-0.3-0.1-0.9,0-1,0.1c-0.1,0.1-0.5,0.2-0.6,0.1c-0.1-0.1-0.6-0.5-0.8-0.7
								c-0.2-0.2-0.5-0.4-0.6-0.3c-0.1,0.2,0,0.5,0.2,0.6C24,48.3,24.8,48.7,25,48.9L25,48.9z M26.4,48.7L26.4,48.7
								c0.4,0,0.8,0.4,0.8,0.9c0,0.5-0.4,0.9-0.8,0.9c-0.4,0-0.8-0.4-0.8-0.9C25.6,49.1,25.9,48.7,26.4,48.7z"/>
						</g>
						<path id="XMLID_801_" class="st4" d="M49.8,39c0.2-0.1,0.4,0.1,0.6,0c0.2-0.1,0.6-0.5,1.1-0.3c0.5,0.2,0.6,0.1,0.8,0
							c0.1-0.1,0.7,0,1,0.1c0.3,0.2,0.4,0.1,0.6,0.2c0.2,0.1,0.4-0.1,0.6-0.2c0.1-0.2,0.3-0.3,0.4-0.1c0.1,0.2,0.1,0.8,0.3,0.9
							c0.1,0.1,0,0.6,0,0.8c-0.1,0.2-0.1,0.2-0.4,0c-0.3-0.2-0.6-0.3-1-0.2c-0.4,0.1-0.6,0.2-1,0.3c-0.4,0-0.6,0-0.9-0.1
							c-0.4-0.1-0.8-0.3-1.2-0.1c-0.5,0.2-0.4,0.3-0.5,0.5c-0.1,0.2-0.5,0.1-0.5-0.3c0-0.4,0.1-0.2,0.2-0.6
							C49.7,39.4,49.5,39.1,49.8,39z"/>
						<path id="XMLID_800_" class="st4" d="M52.1,41.4c0.6,0,0.9,0,1-0.2c0.1-0.1,0.3-0.3,0.5-0.2c0.2,0.1,0,0.6-0.3,0.7
							c-0.2,0.1-1,0.2-1.5,0.1c-0.5-0.1-0.7-0.2-0.9-0.4c-0.2-0.2,0-0.3,0.4-0.2C51.6,41.4,52.1,41.4,52.1,41.4z"/>
					</g>
				</g>
				<g>
					<g id="XMLID_824_">
						<path id="XMLID_887_" class="st5" d="M72.2,38c0.7-0.5,1.7-0.8,1.7-0.8L61.1,17.1h-2.5L72.2,38z"/>
						<path id="XMLID_886_" class="st5" d="M62.9,17.1c-0.1-0.1,0.1,2.9,1.4,4.7c1.2,1.6,2.3,2,2.5,2.1c0.1,0.4,0.5,2.7,1.5,4.4
							c1,1.6,2.9,2.5,3.3,2.6c0,0.4,0.2,2.6,1.6,4.6c0.4,0.5,0.8,1,1.4,1.5l0.3-0.1c-2.8-2.2-3-6.1-3-6.1l0-0.1l-0.1,0
							c0,0-2.2-0.9-3.2-2.6c-1.1-1.7-1.5-4.3-1.5-4.3l0-0.1l-0.1,0c0,0-1.2-0.3-2.4-2c-1.2-1.7-1.4-4.7-1.3-4.5H62.9z"/>
						<path id="XMLID_885_" class="st5" d="M63.8,17c0,0-0.7,4.1,3.9,6.5c0,0-0.2,5,4.7,6.7c0,0,0.2,4.6,3.2,6.5l1.5-0.3
							c0,0-1.7-1-2-2.8c0,0-2.2-0.6-2.2-3.2c0-0.5,0.4-0.5,0.4,0c0,0.5,0.1,1.5,1.3,1.5c1,0,1.1-1.7,0.7-2.4c0,0,0.7-0.7,0.6-1.6
							c-0.2-1-0.6-1.5-0.9-1.6c-0.6-0.2-1,0.2-1.1,0.3c-0.1,0.1-0.2,0.3-0.6-0.3c-0.4-0.5-1.4-0.6-1.8,0.1c-0.4,0.7-0.4,1.7,0.6,2.4
							c0.4,0.3-0.1,0.4-0.6,0.1c-0.5-0.3-1.3-1.5-1.4-2.7c0,0-1.6-0.8-1.6-2.8c0-0.9,0.3-0.4,0.3-0.1c0,0.3,0.2,1.5,1.2,1.5
							c1,0,1.3-0.9,1-2.3c0,0,1.1-0.3,1.1-1.9c0-1.7-1.8-2.2-2.7-0.7c0,0-0.9-1-1.6-0.5c-0.7,0.5-1,1.9,0.1,2.8c0,0-2.1-0.1-2-3.7
							c0,0-0.6-1-0.5-1.6H63.8z"/>
						<path id="XMLID_850_" class="st5" d="M60.5,57.9c3-0.5,6.2-1.5,9.4-3.2c1.5-0.8,2.9-1.7,4.4-2.7l0.3,0.3
							c-0.3,0.2-0.9,0.6-1.2,0.8c-1.6,1.1-3.2,2-4.8,2.7c-17,8-31.3-2.1-31.4-2.2l0.3-0.3C37.7,53.3,47.5,60.1,60.5,57.9L60.5,57.9z
							 M63.3,53.1L63.3,53.1c-0.9,0.3-1.8,0.5-2.7,0.7l0.4,2.5c0.9-0.2,1.9-0.5,2.9-0.8L63.3,53.1L63.3,53.1z M45.2,44.7L45.2,44.7
							c11.5,5.3,21.1-1,21.1-1l-0.7-1.2c-4.9,2.6-9.4,3.2-12.8,2.9c-4-0.3-6.6-1.8-6.6-1.8L45.2,44.7L45.2,44.7z M45.1,49.5
							L45.1,49.5c-0.3-0.1-0.6-0.2-0.8-0.4c-0.5-0.3-1.1-0.5-1.6-0.8l-0.9,2.7c0.7,0.3,1.5,0.7,2.5,1.1L45.1,49.5L45.1,49.5z M50,51
							L50,51c-0.8-0.1-1.5-0.3-2.3-0.6L47.2,53c0.8,0.2,1.6,0.4,2.5,0.6L50,51L50,51z M55.1,51.3L55.1,51.3c-0.8,0-1.7,0-2.6,0
							l-0.1,2.6c0.9,0.1,1.8,0.1,2.7,0.1L55.1,51.3L55.1,51.3z M57.8,53.9L57.8,53.9c0.9-0.1,1.8-0.2,2.7-0.4l-0.3-2.7
							c-0.3,0.1-0.7,0.1-1,0.2c-0.4,0.1-0.9,0.2-1.3,0.2L57.8,53.9L57.8,53.9z M63.2,52.7L63.2,52.7c0.8-0.3,1.6-0.6,2.5-0.9
							l-0.8-2.5c-0.2,0.1-0.5,0.2-0.7,0.3c-0.5,0.2-1,0.3-1.5,0.5L63.2,52.7L63.2,52.7z M44.5,45.6l-4.4,5c0,0,0.4,0.3,1.5,0.8
							l-1,2.1c-1.2-0.6-1.9-1.1-2-1.2l-0.3,0.3c0.2,0.1,13.1,8.8,28.2,2.5c1.9-0.8,3.9-1.8,5.9-3.2c0.2-0.1,0.6-0.4,0.8-0.6L72.8,51
							c-0.2,0.2-0.5,0.4-0.8,0.6l-0.8-1.9l-0.5-0.5c-0.7,0.5-1.7,1-2.4,1.4l-0.8-2.4c0.8-0.4,1.5-0.9,1.5-0.9l-1.3-1.6l-0.9-1.3
							c-1.2,0.7-2.6,1.4-3.7,1.9c-3.1,1.2-6.2,1.6-8.9,1.5c-2.5-0.1-4.7-0.5-6.3-1C45.7,46.2,44.5,45.6,44.5,45.6L44.5,45.6
							L44.5,45.6z M46.9,53.3L46.9,53.3c-1-0.3-1.9-0.6-2.7-0.9l-0.7,2.3c0.9,0.3,1.8,0.7,2.9,1L46.9,53.3L46.9,53.3z M52.3,54.3
							L52.3,54.3c-1-0.1-1.9-0.2-2.8-0.4l-0.2,2.5c0.9,0.2,1.9,0.3,2.8,0.4L52.3,54.3L52.3,54.3z M57.8,54.2L57.8,54.2
							c-0.9,0.1-1.9,0.1-2.7,0.1l0.1,2.5c0.9,0,1.8,0,2.8-0.1L57.8,54.2L57.8,54.2z M68.3,50.9L68.3,50.9c-0.8,0.5-1.7,0.9-2.5,1.2
							l0.8,2.3c0.8-0.4,1.7-0.8,2.5-1.2L68.3,50.9L68.3,50.9z M66.1,45.2l1.1,2.6c-0.6,0.3-1.4,0.6-2.3,1l-0.8-2.7
							C64.9,45.8,65.3,45.6,66.1,45.2L66.1,45.2L66.1,45.2z M60.1,50.3l-0.3-2.7c0.6-0.1,1.3-0.3,2-0.5l0.6,2.7
							C61.6,49.9,60.9,50.1,60.1,50.3L60.1,50.3L60.1,50.3z M55.2,50.9l0-2.8c0.7,0,1.3,0,2-0.1l0.2,2.8
							C56.7,50.9,55.9,50.9,55.2,50.9L55.2,50.9L55.2,50.9z M52.6,50.8L52.6,50.8c-0.8,0-1.7-0.1-2.5-0.2l0.5-2.8
							c0.6,0.1,1.3,0.2,2,0.3L52.6,50.8L52.6,50.8L52.6,50.8z M48,47.2L47.5,50c-0.8-0.2-1.5-0.5-2.3-0.9l0.6-2.6
							C46.4,46.7,47.2,47,48,47.2L48,47.2L48,47.2z M44.3,46.6c0.3,0,0.5,0.3,0.5,0.6c0,0.3-0.2,0.6-0.5,0.6c-0.3,0-0.5-0.3-0.5-0.6
							C43.8,46.8,44,46.6,44.3,46.6L44.3,46.6L44.3,46.6z M49.1,48.4c0.3,0,0.5,0.3,0.5,0.6c0,0.3-0.2,0.6-0.5,0.6
							c-0.3,0-0.5-0.3-0.5-0.6C48.5,48.6,48.7,48.4,49.1,48.4L49.1,48.4L49.1,48.4z M53.8,48.9c0.3,0,0.5,0.3,0.5,0.6
							c0,0.3-0.2,0.6-0.5,0.6c-0.3,0-0.5-0.3-0.5-0.6C53.3,49.2,53.5,48.9,53.8,48.9L53.8,48.9L53.8,48.9z M58.7,48.7
							c0.3,0,0.5,0.3,0.5,0.6c0,0.3-0.2,0.6-0.5,0.6c-0.3,0-0.5-0.3-0.5-0.6C58.2,48.9,58.4,48.7,58.7,48.7L58.7,48.7L58.7,48.7z
							 M63.3,47.4c0.3,0,0.5,0.3,0.5,0.6c0,0.3-0.2,0.6-0.5,0.6c-0.3,0-0.5-0.3-0.5-0.6C62.8,47.7,63,47.4,63.3,47.4L63.3,47.4
							L63.3,47.4z M66.6,49.2c0.3,0,0.5,0.3,0.5,0.6c0,0.3-0.2,0.6-0.5,0.6c-0.3,0-0.5-0.3-0.5-0.6C66,49.5,66.3,49.2,66.6,49.2
							L66.6,49.2L66.6,49.2z M61.6,51L61.6,51c-0.3,0-0.6,0.3-0.6,0.6c0,0.3,0.3,0.6,0.6,0.6c0.3,0,0.6-0.3,0.6-0.6
							C62.1,51.3,61.9,51,61.6,51L61.6,51z M56.5,52L56.5,52c-0.3,0-0.6,0.3-0.6,0.6c0,0.3,0.3,0.6,0.6,0.6c0.3,0,0.6-0.3,0.6-0.6
							C57.1,52.3,56.8,52,56.5,52L56.5,52z M51.2,51.9L51.2,51.9c-0.3,0-0.6,0.3-0.6,0.6c0,0.4,0.3,0.6,0.6,0.6
							c0.3,0,0.6-0.3,0.6-0.6C51.8,52.2,51.5,51.9,51.2,51.9L51.2,51.9z M46.1,50.6c0.3,0,0.6,0.3,0.6,0.6c0,0.3-0.3,0.6-0.6,0.6
							c-0.3,0-0.6-0.3-0.6-0.6C45.5,50.9,45.8,50.6,46.1,50.6L46.1,50.6L46.1,50.6z M42.4,52.5L42.4,52.5c-0.3,0-0.6,0.3-0.6,0.6
							c0,0.3,0.3,0.6,0.6,0.6c0.3,0,0.6-0.3,0.6-0.6C43,52.8,42.7,52.5,42.4,52.5L42.4,52.5z M48.1,54.5L48.1,54.5
							c-0.3,0-0.6,0.3-0.6,0.6c0,0.3,0.3,0.6,0.6,0.6c0.3,0,0.6-0.3,0.6-0.6C48.6,54.7,48.4,54.5,48.1,54.5L48.1,54.5z M53.6,55.3
							L53.6,55.3c-0.3,0-0.6,0.3-0.6,0.6c0,0.3,0.3,0.6,0.6,0.6c0.3,0,0.6-0.3,0.6-0.6C54.2,55.5,53.9,55.3,53.6,55.3L53.6,55.3z
							 M59.4,54.7L59.4,54.7c-0.3,0-0.6,0.3-0.6,0.6c0,0.4,0.3,0.6,0.6,0.6c0.3,0,0.6-0.3,0.6-0.6C60,55,59.7,54.7,59.4,54.7
							L59.4,54.7z M64.9,53.4L64.9,53.4c-0.3,0-0.6,0.3-0.6,0.6c0,0.4,0.3,0.6,0.6,0.6c0.3,0,0.6-0.3,0.6-0.6
							C65.4,53.7,65.2,53.4,64.9,53.4L64.9,53.4z M70.3,50.8L70.3,50.8c-0.3,0-0.6,0.3-0.6,0.6c0,0.3,0.3,0.6,0.6,0.6
							c0.3,0,0.6-0.3,0.6-0.6C70.9,51.1,70.6,50.8,70.3,50.8z"/>
						<path id="XMLID_845_" class="st5" d="M43.9,66.8l1.5-5.4l-3.7-1.2l0.2-0.5l3.7,1.3l0.3-1.3l-3.7-1.4l0.7-2.2
							c4.1,1.7,8.8,2.4,12.3,2.4c4.4,0.1,7.9-0.9,7.9-0.9c-1,1-1.9,2.1-2.6,3.1l-5,0.3l-0.4,1.3l4.5-0.2c-0.1,0.2-0.2,0.4-0.3,0.6
							l-4.4,0.1l-1.7,4.7l0.1,1.1l3.7,0.1c-0.2,1-0.4,1.9-0.5,2.6c-0.2,1.4-0.2,2.2-0.2,2.2c-5.7,0.2-13.4-1.7-13.4-1.7
							c-0.4-2.2-1.6-5-2.3-6.3L43.9,66.8L43.9,66.8z M48.7,59.1L48.7,59.1c-0.1,0.3,0.4,0.4,0.4,0.8c0,0.4-1,0.6-1,0.8
							c0,0.2,0.6,0.5,0.4,0.9c-0.1,0.4-0.8,0.3-0.8,0.6s0.4,0.6,0.3,0.9c-0.1,0.3-0.8,0.5-0.9,0.8c-0.1,0.2,0.4,0.7,0.4,0.9
							c0,0.2-0.5,0.4-0.7,0.5c-0.3,0.1-0.3,0.3,0,0.5c0.2,0.2,0.4,0.5,0.3,0.7c-0.1,0.2-0.3,0.3-0.6,0.4c-0.3,0.1,0,0.4,0.2,0.4
							c0.2,0,0.5,0,0.6-0.3c0.1-0.3,2.4-7.5,2.6-8c0.1-0.2,0-0.3-0.3-0.3C49.2,58.8,48.7,58.9,48.7,59.1L48.7,59.1z M47.6,67.7
							L47.6,67.7c0.2,0,0.4-0.3,0.4-0.6c0-0.2,0.2-0.3,0.4-0.3c0.2,0,0.3,0.4,0.2,0.7c0,0.3,0.3,0.2,0.4,0c0.2-0.6,0.6-2.2,1-3.3
							c0.4-1.1,1.4-4.2,1.6-4.6c0.2-0.5,0.1-0.6-0.1-0.7c-0.2,0-0.4,0.1-0.4,0.3c0,0.2-0.2,0.4-0.4,0.3c-0.2,0-0.2-0.3-0.2-0.7
							c0-0.4-0.3-0.3-0.4,0c-0.1,0.3-2.5,7.5-2.6,8C47.4,67.3,47.4,67.7,47.6,67.7L47.6,67.7z M52.1,59.4L52.1,59.4
							c-0.1,0.3-2.2,6.4-2.4,7c-0.1,0.5-0.3,1.2-0.2,1.5c0.2,0.3,1,0.1,1.1-0.1c0-0.2-0.5-0.5-0.4-0.8c0.1-0.3,0.8-0.4,0.8-0.7
							c0.1-0.3-0.7-0.7-0.6-1.1c0.1-0.3,1.2-0.3,1.2-0.7c0-0.3-0.6-0.7-0.5-1.1c0.1-0.4,1-0.5,1.1-0.8c0-0.3-0.7-0.6-0.6-0.9
							c0.1-0.3,0.9-0.2,1-0.5s-0.4-0.7-0.4-0.9c0.1-0.2,0.3-0.4,0.6-0.4c0.3,0,0.4-0.2,0.4-0.4c0-0.2-0.5-0.6-0.7-0.7
							C52.4,58.9,52.2,59.1,52.1,59.4z"/>
						<path id="XMLID_832_" class="st5" d="M20.1,74.5l13.5-14.9c0,0,1.5,0.9,3.1,2.9c1.7,2,2,3.1,2,3.1s-9.1,8.9-10.5,23.8L20.2,80
							L20.1,74.5L20.1,74.5z M33.2,64.3L33.2,64.3c0,0.5-0.2,0.6-0.4,0.2c-0.1-0.4-0.9-1.5-1.4-1.2c-0.5,0.2-0.1,1.6,0,2.1
							c0.1,0.5-0.1,0.5-0.5,0.5c-0.4,0-1.6-0.1-1.6,0.5c0,0.6,1,0.8,1.4,0.9c0.5,0.1,0.4,0.4,0,0.6c-0.3,0.2-1.5,1.5-1.2,1.9
							c0.3,0.4,1.4-0.2,1.7-0.3c0.4-0.2,0.4,0.1,0.3,0.5c-0.1,0.5-0.1,1.9,0.4,2c0.6,0.1,1.2-2,1.2-2.2c0-0.2,0.1-0.5,0.4,0
							c0.2,0.5,0.9,0.9,1.2,0.7c0.3-0.2,0.1-1.2,0-1.5c-0.1-0.3-0.2-0.5-0.1-0.6c0.1-0.1,0.3,0,0.8,0.1s1-0.1,1.1-0.5
							c0.1-0.4-0.6-0.8-1.1-0.9c-0.4-0.1-0.2-0.3,0-0.4c0.2-0.1,1.9-1.6,1.3-2.1c-0.6-0.5-2,0.7-2.2,0.6c-0.2-0.1,0.1-0.8,0.2-1.5
							c0.1-0.7-0.1-1.2-0.3-1.2C33.6,62.3,33.2,63.8,33.2,64.3L33.2,64.3z M28.3,67.8L28.3,67.8c-0.5,0-0.8,0.4-0.8,0.9
							c0,0.5,0.4,0.9,0.8,0.9s0.8-0.4,0.8-0.9C29.2,68.2,28.8,67.8,28.3,67.8L28.3,67.8z M33,65.3L33,65.3c-0.9,0-1.5,0.8-1.5,1.8
							c0,1,0.7,1.8,1.5,1.8c0.9,0,1.5-0.8,1.5-1.8C34.5,66.1,33.8,65.3,33,65.3L33,65.3z M33.9,67.1c0-0.6-0.4-1-0.9-1
							c-0.5,0-0.9,0.5-0.9,1c0,0.6,0.4,1,0.9,1C33.5,68.2,33.9,67.7,33.9,67.1L33.9,67.1L33.9,67.1z M27.7,74.1L27.7,74.1
							c-0.4,0-0.8,0.4-0.8,0.9c0,0.5,0.3,0.9,0.8,0.9c0.4,0,0.8-0.4,0.8-0.9C28.4,74.5,28.1,74.1,27.7,74.1L27.7,74.1z M21.6,76.4
							L21.6,76.4c-0.4,0-0.8,0.4-0.8,0.9c0,0.5,0.4,0.9,0.8,0.9s0.8-0.4,0.8-0.9C22.4,76.8,22.1,76.4,21.6,76.4L21.6,76.4z
							 M27.7,82.6L27.7,82.6c-0.4,0-0.7,0.4-0.7,0.8c0,0.5,0.3,0.8,0.7,0.8c0.4,0,0.7-0.4,0.7-0.8C28.5,82.9,28.2,82.6,27.7,82.6
							L27.7,82.6z M25.6,73L25.6,73c-0.4,0.5-1.6,0.5-1.6,0.5c0,0.8-0.1,2.4-0.1,2.4l4.5-5.1c-0.5,0.2-2.4,0.2-2.4,0.2
							S26.1,72.2,25.6,73L25.6,73z M29.5,78.1L29.5,78.1c0,0,0-0.9,0.3-1.6c0.3-0.8,1.4-0.9,1.4-0.9l0.2-2l-4.3,4.7L29.5,78.1
							L29.5,78.1z M23,81.1L23,81.1c0,0-0.5-0.8-1.4-1.2c-0.8-0.4-0.9,0.2-0.7,0.5c0.3,0.3,1.4,1.5,1.4,1.5s1.6-1,2.4,0
							c0.8,1,0.1,2.9,0.1,2.9s1.8,2.1,2.3,1.4c0.4-0.7-1.6-3.1-1.6-3.1s3.1-2.4,2.5-2.9c-0.6-0.5-3.2,1.2-3.2,1.2s0.3-0.4,0.3-1.4
							c0-0.9-0.1-2.5-0.4-2.5C23.5,77.6,23,81.1,23,81.1L23,81.1z M24,83.8L24,83.8c0.1,0.1,0.5-0.2,0.5-0.5c0-0.3-0.2-0.9-0.7-0.9
							c-0.5,0-0.8,0.4-0.6,0.6C23.2,83,23.8,83.7,24,83.8z"/>
						<path id="XMLID_831_" class="st5" d="M43.3,46.8l-4.9,5.5c-1-17.2,8.3-26.9,8.3-26.9c-0.1,2.7-0.1,4.8-0.1,6.7
							c0,1,0,1.9,0.1,2.7C46.7,34.8,43.5,39.1,43.3,46.8z"/>
						<polygon id="XMLID_830_" class="st5" points="18.9,81.5 18.9,84.9 29.8,96.7 31.9,95.6 31.7,95.4 18.9,80.8 						"/>
						
							<ellipse id="XMLID_829_" transform="matrix(0.9991 -4.210121e-002 4.210121e-002 0.9991 -2.5029 2.1818)" class="st5" cx="50.5" cy="60.5" rx="0.4" ry="0.4"/>
						
							<ellipse id="XMLID_828_" transform="matrix(0.9991 -4.322021e-002 4.322021e-002 0.9991 -2.6258 2.2251)" class="st5" cx="50.1" cy="61.8" rx="0.4" ry="0.4"/>
						
							<ellipse id="XMLID_827_" transform="matrix(0.999 -4.443610e-002 4.443610e-002 0.999 -2.7576 2.2727)" class="st5" cx="49.7" cy="63.2" rx="0.4" ry="0.4"/>
						
							<ellipse id="XMLID_826_" transform="matrix(0.9991 -4.315975e-002 4.315975e-002 0.9991 -2.7373 2.1894)" class="st5" cx="49.3" cy="64.5" rx="0.4" ry="0.4"/>
						
							<ellipse id="XMLID_825_" transform="matrix(0.9991 -4.320752e-002 4.320752e-002 0.9991 -2.7979 2.1757)" class="st5" cx="48.9" cy="65.8" rx="0.4" ry="0.4"/>
					</g>
				</g>
			</g>
			<g>
				<g>
					<path id="XMLID_167_" class="st3" d="M66.1,93.6l14.3-15.9l0-7L70.1,58.9L70,59.6c-0.2,2-1.2,9.1-3.8,15.1
						c-2.5,5.7-6.6,10-7.4,10.8l-0.1,0.1l0.1,0.2c2.6,5,6.3,7.3,7,7.8l0.2,0.1L66.1,93.6z"/>
					<path id="XMLID_166_" class="st3" d="M71.9,106.4c0.6,0,1.2-0.6,1.5-1c0,0,0.1,0,0.1,0c0.4,0.3,0.9,0.5,1.5,0.4
						c0.7-0.1,1.3-0.5,1.5-0.8c0.4-0.6,0.6-1.5,0.4-2.4c-0.1-0.5-0.4-0.8-0.6-1l-0.2-0.2c0-0.1,0.1-0.3,0.1-0.5l0.2-0.6
						c0-0.4-0.2-1.6-0.7-2.1c-0.6-0.7-1.9-0.5-2.3-0.4l-0.7,0.5c0,0-0.2,0.2-0.2,0.2c-0.1,0-0.2-0.1-0.2-0.1
						c-0.3-0.2-0.6-0.4-1.1-0.5c-0.7-0.1-1.5,0.3-1.9,1.1c-0.4,0.8-0.2,2.6,0.2,3.1c0.3,0.3,0.1,0.6,0,0.8c-0.2,0.3-0.4,0.8-0.1,1.9
						C69.9,105.8,71,106.4,71.9,106.4z"/>
					<path id="XMLID_165_" class="st3" d="M79.2,97.7c-0.1,0.2-0.5,0.3-0.8,0.2c-0.4,0-1-0.1-1.2-0.1c-0.3,0-0.7-0.1-1-0.2
						c-0.2-0.1-0.4-0.1-0.7-0.2c-0.3-0.1-0.7-0.1-0.9-0.3c-0.2-0.2-0.5-0.4-0.8-0.7c-0.2-0.2-0.4-0.4-0.3-0.6
						c0.1-0.2,0.4-0.2,0.8-0.2c0.3,0,0.6-0.2,0.9-0.2c0.3,0,1-0.1,1.3,0c0.3,0,0.9,0.2,1.2,0.4c0.3,0.2,0.9,0.5,1,0.8
						C78.9,96.7,79.4,97.4,79.2,97.7z"/>
					<path id="XMLID_164_" class="st3" d="M71.3,96.1c-0.3,0.2-0.9,0.4-1.3,0.6c-0.4,0.1-0.9,0.3-1.2,0.4c-0.3,0.2-1.1,0.4-1.3,0.3
						c-0.2-0.1-0.3-0.3-0.3-0.7c0-0.4,0.2-0.7,0.5-1c0.3-0.3,0.7-0.8,0.9-0.9c0.2-0.2,0.9-0.5,1.4-0.6c0.4-0.1,0.9,0.3,1.2,0.4
						c0.3,0.1,0.6,0.4,0.8,0.5C72.3,95.1,72.1,95.6,71.3,96.1z"/>
					<path id="XMLID_163_" class="st3" d="M77.3,86.4c-0.3-0.1-0.7-0.2-0.8-0.7c-0.1-0.5,0-0.8,0-1.1c0-0.3,0.2-1.1,0.2-1.3
						c0-0.2,0.1-0.5,0.2-0.7c0.1-0.2,0.5-0.4,0.7-0.4c0.3,0,0.7,0,0.8,0.3c0.1,0.3,0.2,0.6,0.1,1.1c0,0.5-0.3,1.2-0.3,1.4
						c0,0.2-0.2,1-0.3,1.2C77.8,86.4,77.4,86.4,77.3,86.4z"/>
					<path id="XMLID_162_" class="st3" d="M73.6,92.1c-0.3,0.1-0.4-0.1-0.4-0.3c0-0.2,0.1-0.5,0-0.6c0-0.2,0.1-0.5,0.1-0.7
						c0-0.2,0.3-0.6,0.4-0.8c0.1-0.1,0.3-0.6,0.4-0.7c0.1-0.1,0.4-0.4,0.3,0.2c-0.1,0.6-0.3,1-0.3,1.3c0,0.3-0.1,0.7-0.3,1
						C73.8,91.8,73.7,92.1,73.6,92.1z"/>
					<path id="XMLID_161_" class="st3" d="M40.2,134.5l-13.5-20.7c-1.7,0.9-5.6,1.4-5.6,1.4c3.9,10.7,2.1,19.4,2.1,19.4L40.2,134.5z
						"/>
					<path id="XMLID_160_" class="st3" d="M24.9,99.5c5.4,3.5,8.8,9.3,8.8,9.3c11.9-6.2,19.7-1.1,19.7-1.1l8.6-9.5
						c0,0-3.7-2.9-10.7-4.4l2.9-9.8c0,0-1-0.6-2.9-0.9c-1.9-0.3-2.7-0.1-2.7-0.1l-3.4,10.1c-0.6,0-1.3,0-1.9,0
						C33.3,93,24.9,99.5,24.9,99.5z"/>
				</g>
				<g>
					<polygon id="XMLID_159_" class="st2" points="18.9,92.3 18.9,102.2 39.9,134.5 43.5,134.5 					"/>
					<polygon id="XMLID_158_" class="st2" points="57.8,91.7 53.8,90.3 55.3,84.5 58.7,85.7 59.3,86.9 					"/>
					<path id="XMLID_157_" class="st2" d="M40,89.1c0,0,0.9-1.6,1.6-3.3c0.7-1.8,1-3.2,1-3.2l4,0.1l0.1,1.5L44.9,89L40,89.1z"/>
					<ellipse id="XMLID_156_" class="st2" cx="73.1" cy="102" rx="1" ry="1.2"/>
					<path id="XMLID_155_" class="st2" d="M63,80.4c1.3-1.9,2.4-3.8,3.2-5.7c2.4-5.6,3.4-12.1,3.7-14.7l0.1-0.4l-0.4,0.2
						c-1.2,0.5-5.1,2.9-7.2,9.4c-1.6,4.8,0,10.1,0.3,11.1l0.1,0.5L63,80.4z"/>
					<path id="XMLID_154_" class="st2" d="M52.7,117.3c0,0,1.8-2.8,2.7-6c0.9-3.2,0.9-5.5,1-6.9l-4.8,5.3
						C51.6,109.8,52.7,113.1,52.7,117.3z"/>
				</g>
				<g>
					<g id="XMLID_931_">
						<g id="XMLID_934_">
							<path id="XMLID_1035_" class="st4" d="M39.2,120.4c0,0.3,0.4,0.8,0.8,1.1c0.4,0.4,1,1.1,1.7,1.6c0.7,0.4,1.7,0.4,2.2,0.1
								c0.5-0.2,1.4-0.8,1.7-1c0,0,0.7,0.2,0.8-0.1c0.1-0.2-0.3-1-0.4-1.2c-0.2-0.2,0-0.6,0-0.9c0-0.3-0.5-0.9-0.9-1.3
								c-0.3-0.4-1.2-1.4-1.5-1.6c-0.3-0.2-0.4,0-0.3,0.1c0.1,0.1,0.2,0.3,0.5,0.5c0.2,0.2,0.3,0.4,0.5,0.8c0.2,0.4-0.3,0.4-0.5,0.3
								c-0.3-0.1-0.5-0.1-0.8,0c-0.3,0-0.7,0-1,0.2c-0.3,0.2-0.8,0.4-1.2,0.5c-0.3,0.1-0.9,0.1-1.2,0.2
								C39.2,120,39.1,120.1,39.2,120.4L39.2,120.4z M44.5,119.9L44.5,119.9c0.3,0.2,0.6,0.6,0.3,0.9c-0.2,0.1-0.3-0.1-0.4-0.2
								c-0.1-0.1-0.3-0.4-0.3-0.5C44.1,119.9,44.2,119.7,44.5,119.9L44.5,119.9z M41.8,120.3L41.8,120.3c0.1-0.2,0.3-0.9,0.9-0.9
								c0.6-0.1,1,0.2,1.2,0.7c0.2,0.5,0,0.8-0.1,0.8c-0.2,0.1-0.2-0.1-0.2-0.3c0-0.2-0.2-0.9-0.5-0.9c-0.3,0-0.6,0.3-0.7,0.5
								c-0.1,0.2-0.1,0.5-0.3,0.5C41.8,120.8,41.8,120.6,41.8,120.3L41.8,120.3z M40.8,120.1L40.8,120.1c0.1-0.1,0.3-0.3,0.4-0.2
								c0.2,0,0.3,0.1,0.3,0.4c0,0.3-0.2,0.2-0.3,0.3c-0.1,0-0.3,0-0.4-0.1C40.7,120.4,40.7,120.2,40.8,120.1L40.8,120.1z M41.5,122
								L41.5,122c0.3,0.2,1.2,0.3,1.6,0.3c0.4,0,1.1-0.2,1.3-0.3c0.2-0.1,0.7,0,0.2,0.3c-0.5,0.4-1,0.6-1.6,0.6
								c-0.6,0-1.2-0.2-1.5-0.4c-0.3-0.2-0.9-0.6-0.9-0.8C40.7,121.6,41.2,121.8,41.5,122z"/>
							<path id="XMLID_1034_" class="st4" d="M45.4,123.2c-0.2,0.2-0.3,0.3-0.9,0.5c-0.6,0.3-1.8,0.2-2.7,0
								c-0.9-0.2-2.5-1.2-2.8-1.5c-0.3-0.3-0.6-0.5-0.7-0.4c-0.1,0.1,0.1,0.6,0.3,0.8c0.3,0.2,0.4,0.5,1.1,1.1
								c0.7,0.6,1.9,1.2,2.7,1.4c0.7,0.1,1.8,0.1,2.6-0.3c0.5-0.2,0.8-0.5,1.1-1.1C46.5,123.3,45.9,122.9,45.4,123.2z"/>
							<path id="XMLID_939_" class="st4" d="M43.2,134.8H44l-1.6-2.8c1.6,1.2,2.3,2.8,2.3,2.8h0.6c0-0.1-1.2-2.6-3.5-3.8l-0.7-1.3
								c3.6,1.9,4.8,5,4.9,5.1h0.6c-0.1-0.2-1.5-4-5.9-5.9l-0.6-1.1c5.7,1.9,7.3,6.9,7.3,7h0.6c0-0.1-1.9-5.8-8.3-7.7l-0.8-1.4
								c4.7,1.4,7.5,4.6,8.7,6.5c0,0,0.8,1.5,0.8,1.5c-0.2,0.6-0.3,1-0.4,1.1h0.5c0,0,1.1-3.5,3.8-6.2c0,0.4,0,0.7,0,1.1
								c-2.2,2.3-3.3,4.9-3.3,5.1h0.6c0,0,0.8-2.1,2.7-4.2c0,0.4,0,0.8,0,1.2c-1.5,1.1-1.9,3-1.9,3.1h0.6c0,0,0.3-1.4,1.3-2.4
								c0,1.4,0,2.4,0,2.4l0.5,0c0,0,0.3-13.9,0.1-18.4c-0.1-2-0.3-4.4-1.1-6.4l16.6-18.5c0.3,1.7,1.1,2.4,1.1,2.4S68.8,94.2,68,95
								c-0.8,0.8-0.9,1.8-1,2.3c-0.1,0.4,0,0.8,0.2,0.7c0.2,0,0.6-0.2,1-0.4c0.5-0.2,1.1-0.4,1.5-0.5c0.4-0.1,1.4-0.4,1.7-0.7
								c0.3-0.2,0.4-0.1,0.4-0.1s0,0.8,0,0.9c0,0.2-0.1,0.2-0.1,0.2c-0.7-0.1-1.5,0.2-2,0.8c-0.5,0.6-0.7,1.6-0.7,1.9
								c0,0.6,0.2,1.1,0.2,1.4c0,0.2-0.4,0.5-0.6,0.6c-0.1,0.1-0.1,0.3,0,0.5c0.2,0.1,0.7,0.6,0.7,0.6s-0.1,0.7,0.1,1.4
								c0.2,0.9,0.9,1.6,1.5,1.8c0.6,0.3,1.4,0.1,1.6,0c0.2-0.1,0.3-0.1,0.4,0c0.2,0.1,0.8,0.7,0.8,0.7c0.1,0,0.7-1.1,0.7-1.1
								s0.8,0.1,1.5-0.1c0.6-0.3,1.3-1.1,1.4-2s-0.2-1.7-0.1-2c0.1-0.3,0.4-0.8,0.5-1c0-0.4-0.8-0.6-0.8-0.6s0-0.6-0.1-1.1
								c-0.1-0.5-0.5-0.9-0.4-1.1c0.1-0.2,1-0.1,1.5-0.1c0.5,0.1,1.3,0.5,1.6,0.5c0.3,0,0.5-0.2,0.2-0.8c-0.2-0.6-0.5-1.1-1-1.6
								c-0.5-0.5-1.4-0.8-1.7-0.8c-0.3,0-0.3-0.2,0-0.4c0.3-0.2,0.5-0.4,0.6-0.8c0-0.5,0.3-0.5,0.5-0.9c0.2-0.4,0.2-0.7,0.2-1.1
								c0-0.4,0.1-0.7,0.2-0.9c0.1-0.2,0.3-0.5,0.3-0.8c0-0.3,0-0.8-0.1-2c-0.1-1.2-0.5-1.5-0.6-1.8c-0.1-0.3,0.1-1,0.2-1.5
								c0.1-0.6,0.4-1.4,0.4-2.2c0-0.8-0.7-1-1.3-0.9c-0.5,0.1-1,0.9-1.1,1.2c-0.1,0.3-0.2,1.2-0.2,1.6c0,0.4,0,0.8-0.2,0.8
								c-0.2,0-0.3-0.2-0.6-0.5c-0.2-0.2-0.5-0.4-0.8-0.6l6.1-6.8l0.1-0.1v-18L77,52.7l-2.6-1.3l-0.1,0.1
								c-5.3,4.2-11.4,5.8-11.5,5.8l-0.1,0l0,0c-0.1,0.1-6.2,5.7-6.8,15.4c0,0.7-0.1,1.3-0.1,1.9c0,5.2,1.4,9.2,3.1,12.1l-2.6,8.5
								c2.1,0.8,4.7,2.2,5.3,2.7c-3.9,4.4-7.5,8.3-9.2,10.3c-0.3-0.2-1-0.5-2-0.7c-0.8-1-2-1.7-3.5-1.8c-1.8-0.2-3.4,0.4-4.8,1.4
								c-3.4,0.3-6.9,1.8-7.8,2.2c-0.8-1.5-1.7-2.9-2.8-4.2c-4.7-5.6-7.7-6.7-8.6-6.9l-4.3-7.2l0,1.7L43.2,134.8L43.2,134.8z
								 M70.1,96.4L70.1,96.4c-0.3,0.1-0.8,0.3-1.1,0.4c-0.3,0.1-1.2,0.4-1.3,0.3c-0.1-0.1-0.2-0.6,0-1c0.2-0.4,1.1-1.2,1.4-1.3
								c0.3-0.2,0.8-0.4,1-0.4c0.3,0,0.6,0.1,0.8,0.2c0.2,0.1,0.3,0.2-0.2,0.3c-0.5,0.2-1,0.3-1.3,0.4c-0.3,0.2-0.9,0.6-0.8,0.8
								c0,0.2,0.4,0.2,0.8,0c0.4-0.2,0.9-0.4,1.3-0.5c0.4-0.1,0.8-0.4,1-0.5c0.2-0.1,0.6,0,0.4,0.3C71.6,95.7,70.9,96.1,70.1,96.4
								L70.1,96.4z M76.4,100.1L76.4,100.1c0,0.3-0.4,0.9-0.3,1.2c0,0.3,0.5,0.5,0.7,1.3c0.2,0.8,0,1.7-0.4,2.2
								c-0.4,0.5-1.6,1.2-2.7,0.4c-0.1-0.1-0.3-0.1-0.5,0c-0.3,0.4-0.8,0.9-1.4,1c-0.8,0-1.8-0.5-2.1-1.5c-0.3-1-0.1-1.5,0.1-1.7
								c0.2-0.3,0.3-0.7-0.1-1.1c-0.4-0.4-0.5-2.1-0.2-2.8c0.4-0.7,1.1-1.1,1.7-1c0.6,0.1,1.2,0.6,1.3,0.6c0.2,0,0.6-0.6,1-0.7
								c0.4-0.2,1.6-0.2,2,0.3C76.2,98.7,76.4,99.8,76.4,100.1L76.4,100.1z M72.1,97.1L72.1,97.1c0-0.4,0-1.2,0-1.4
								c0-0.2,0.2-0.4,0.4-0.4c0.2,0,0.4,0.2,0.4,0.5c0,0.3,0,0.9,0,1.1c0,0.2,0,0.6-0.3,0.7C72.5,97.6,72.1,97.4,72.1,97.1
								L72.1,97.1z M73.5,96.3L73.5,96.3c0.3,0.2,0.9,0.7,0.9,0.9c0,0-0.9,0.3-1.1,0.4c-0.1,0.1-0.2-0.2-0.2-0.4c0-0.1,0-0.7,0-0.9
								C73.2,96.1,73.2,96.1,73.5,96.3L73.5,96.3z M73.3,94.9L73.3,94.9c0-0.2,0.4-0.3,0.7-0.3c0.3,0,0.9,0,0.9,0.2
								c0.1,0.2-0.2,0.4-0.6,0.4C74.1,95.3,73.3,95.2,73.3,94.9L73.3,94.9z M76.9,95.7L76.9,95.7c0.5,0.1,1,0.4,1.5,0.8
								c0.5,0.4,0.8,1,0.6,1.2c-0.1,0.2-1.4,0-1.8,0c-0.4,0-1.4-0.4-1.9-0.5c-0.5-0.1-1-0.7-1.3-0.9c-0.3-0.2-0.4-0.5,0-0.3
								c0.4,0.2,2,0.9,2.4,0.9c0.4,0,0.8-0.2,0.2-0.4c-0.5-0.2-1.2-0.3-1.5-0.4c-0.3-0.1-0.4-0.4,0-0.4
								C75.6,95.7,76.3,95.6,76.9,95.7L76.9,95.7z M76.6,94.5L76.6,94.5c-0.3,0.2-1.2,0.4-1.2,0.1c0-0.2,0-0.3-0.1-0.5
								c-0.1-0.1,0-0.3,0.2-0.2c0.2,0.1,0.6-0.1,0.3-0.3c-0.3-0.2-0.6-0.5-0.8-0.6c-0.2-0.1-0.2-0.1,0-0.3c0.2-0.2,0.6-0.4,0.5-0.7
								c-0.1-0.3-0.2-0.2-0.4,0c-0.1,0.2-0.5,0.4-0.8,0.4c-0.2,0-0.4-0.3-0.4-0.5c0-0.2,0.3-0.5,0.6-0.5c0.4,0,0.8,0,1.3,0.5
								c0.5,0.5,0.9,1.2,1,1.7C77.1,94,76.9,94.3,76.6,94.5L76.6,94.5z M75.4,89.7L75.4,89.7c0.3,0.2,0,0.7-0.3,1
								c-0.2,0.2-0.5,0-0.6-0.2c-0.1-0.2,0-0.6,0.1-0.8C74.8,89.6,75.1,89.4,75.4,89.7L75.4,89.7z M75,88.1L75,88.1
								c0.3-0.1,0.5-0.2,0.7,0c0.2,0.2-0.1,0.6-0.3,0.7c-0.2,0.2-0.6,0-0.7-0.1C74.8,88.6,74.8,88.3,75,88.1L75,88.1z M77.4,92.8
								L77.4,92.8c-0.1,0-0.3-0.2-0.5-0.4c-0.2-0.3-0.5-0.7-0.7-0.9c-0.3-0.2-0.4-0.4-0.6-0.5c-0.1,0,0.2-0.3,0.2-0.5
								c0.1-0.2,0.1-0.6,0.3-0.5c0.2,0,0.5,0.2,0.8,0.6c0.3,0.4,0.8,0.9,0.8,1.4C77.8,92.4,77.7,92.8,77.4,92.8L77.4,92.8z
								 M76.9,82.9L76.9,82.9c0.1-0.2,0.5-0.5,0.8-0.6c0.3,0,0.4,0,0.6,0.3c0.1,0.3-0.1,0.4-0.5,0.6c-0.2,0.1-0.4,0.2-0.6,0.2
								C77,83.3,76.9,83.1,76.9,82.9L76.9,82.9z M76.6,84.3L76.6,84.3c0-0.3,0.1-0.5,0.4-0.5c0.3,0,0.8-0.2,0.8-0.2
								c0.1,0,0.4-0.1,0.4,0.3c0,0.4-0.3,0.8-0.3,1.2c0,0.4-0.1,1-0.7,1c-0.3,0-0.5-0.2-0.7-0.6C76.5,85.1,76.6,84.6,76.6,84.3
								L76.6,84.3z M77.1,86.6L77.1,86.6c0.4,0.1,0.6,0.1,0.9,0.6c0.3,0.4,0.4,0.8,0.3,1c-0.1,0.3-0.5,0.1-0.6,0
								c-0.1-0.1-0.4-0.5-0.6-0.5c-0.2,0-0.2-0.2-0.3-0.3c0-0.1-0.1-0.5-0.2-0.7C76.5,86.6,76.7,86.5,77.1,86.6L77.1,86.6z
								 M76.4,88.4L76.4,88.4c0-0.1,0.3-0.3,0.5-0.2c0.3,0.1,1,0.8,1.2,1.1c0.2,0.3,0.3,0.7,0.2,1c-0.1,0.4-0.2,0.5-0.4,0.5
								c-0.1,0-0.4-0.3-0.5-0.4c-0.1-0.1-0.5-0.7-0.8-0.8c-0.3-0.2-0.4-0.3-0.6-0.4c-0.2,0-0.1-0.2,0-0.4
								C76.2,88.7,76.3,88.5,76.4,88.4L76.4,88.4z M76.1,86.9L76.1,86.9c0.2,0.2,0.2,0.4,0.2,0.4c0,0.2-0.1,0.1-0.4,0.1
								c-0.3,0-0.5-0.4-0.3-0.6C75.7,86.7,75.9,86.7,76.1,86.9L76.1,86.9z M75.6,85.6L75.6,85.6c0.2,0.1,0.1,0.5,0,0.6
								c-0.2,0.1-0.4,0.4-0.4,0.7c0,0.3-0.3,0.6-0.5,0.8c-0.2,0.2-0.3,0.6-0.3,1c0,0.3-0.1,0.7-0.2,0.9c-0.1,0.3-0.1,0.8-0.3,1.2
								c-0.1,0.5-0.3,1.1-0.5,1c-0.2-0.1,0-0.4,0.1-1c0.1-0.6-0.3-0.4-0.4-0.1c-0.1,0.3-0.2,0.6-0.4,0.6s-0.2-0.4-0.1-0.9
								c0-0.5,0-1,0-1.4c-0.1-0.5-0.3-0.8-0.4-0.8c-0.1,0,0,0.5,0.1,0.9c0.1,0.5,0,0.7,0,1.2c0,0.5-0.3,1-0.3,1.3
								c0,0.3,0.4,0.5,0.7,0.6c0.3,0.1,0.3,0.3,0.5,0.5c0.2,0.2,0.4,0.2,0.8,0.4c0.4,0.2,0.8,0.6,0.8,0.9c-0.1,0.2-0.5,0.1-1,0.2
								c-0.5,0-0.7,0.3-0.9,0.5c-0.3,0.2-0.9-0.1-0.9-0.1s-1.2-0.5-1.7-0.9c-1-0.9-1.3-2.1-1.3-2.7l5.5-6.1
								C74.7,85.1,75.4,85.5,75.6,85.6L75.6,85.6z M69.5,55.2L69.5,55.2L80.4,67c0,1.1,0,2.2,0,3.3L67.9,56.1
								C68.4,55.8,69,55.5,69.5,55.2L69.5,55.2z M61.8,81.6L61.8,81.6c-0.1,0.2-0.3,0.4-0.4,0.5c-0.5-1.4-2.3-6.8-0.8-13.1
								c1.6-6.3,7-10.3,8.2-11.1l0.5,0.5c-1,0.6-5.9,3.7-7.8,10C59.6,74.7,61.5,80.6,61.8,81.6L61.8,81.6z M61,82.7L61,82.7
								c-0.1,0.2-0.3,0.3-0.4,0.5c-0.6-1.6-2.5-7.3-1-13.8c1.7-7.2,7.3-11.4,8.4-12.2l0.4,0.5c-1.4,0.9-6.8,5-8.4,11.4
								C58.3,75.9,60.7,81.9,61,82.7L61,82.7z M62.6,69.2L62.6,69.2c2.1-6.5,6.1-8.7,7.1-9.2c-0.3,2.5-1.3,9-3.7,14.6
								c-0.9,2.1-2,4-3.2,5.6C62.5,79.2,61,73.9,62.6,69.2L62.6,69.2z M67.3,56.3L67.3,56.3l0.3,0.3c-1.3,0.9-6.9,5.3-8.6,12.5
								c-1.6,7.1,0.7,13.3,1.2,14.5c-0.1,0.1-0.3,0.3-0.4,0.4c-0.6-1.5-2.9-7.2-1.6-13.8c0.7-3.3,1.8-6,3.6-8.5
								c1.4-1.9,3.2-3.8,5.2-5.4C67.2,56.4,67.2,56.3,67.3,56.3L67.3,56.3z M58.7,85.2L58.7,85.2c-1.3-2.7-2.3-6.2-2.3-10.5
								c0-0.6,0-1.2,0.1-1.9c0.6-9.1,6.1-14.6,6.6-15c0.2-0.1,1.1-0.3,2.3-0.7c-1.5,1.3-2.8,2.7-3.9,4.3c-1.8,2.6-3,5.4-3.7,8.7
								c-1.4,7.1,1.2,13.3,1.7,14.4C59.1,84.8,58.9,85.1,58.7,85.2L58.7,85.2z M59,85.7L59,85.7c0.8-0.8,5-5.2,7.5-10.9
								c2.6-6,3.5-13,3.8-15.2l10.1,11.5c0,3.3,0,6,0,6.1c-0.1,0.1-7.2,8.1-14.5,16.1C65.1,92.9,61.5,90.6,59,85.7L59,85.7z
								 M34.4,118.2L34.4,118.2c0.5-1.8,0.6-4.4,0.6-5.9c0.2,0.4,0.3,0.9,0.5,1.3c0,0.5-0.2,3.3-0.8,5L34.4,118.2L34.4,118.2z
								 M35,119.2L35,119.2c0.6-1.1,0.8-2.9,0.9-4.2c0.2,0.6,0.3,1.2,0.5,1.8l-0.9,3.2L35,119.2L35,119.2z M35.9,120.7L35.9,120.7
								l0.8-2.8c0.1,0.5,0.2,1,0.3,1.4l-0.6,2.1L35.9,120.7L35.9,120.7z M36.7,122.1L36.7,122.1l0.4-1.4c0.1,1,0.2,1.9,0.2,2.5
								L36.7,122.1L36.7,122.1z M52.3,127.9L52.3,127.9c-1.9,1.7-3.1,3.8-3.7,5.2c-0.1-0.2-0.3-0.5-0.5-0.8c1.4-2.9,3.3-4.7,4.2-5.4
								C52.3,127.2,52.3,127.5,52.3,127.9L52.3,127.9z M49.2,122L49.2,122c0.3,0.1,1.1,0.4,1.6,0.4c0.5,0,1.2-0.3,1.3-0.4
								c0.1-0.1,0.2,0,0.3,0c0,0.1,0,0.2,0,0.2c0,0,0,0,0,0.1c-0.3,0.3-1,0.5-1.5,0.5c-0.4,0-1-0.1-1.4-0.3
								c-0.4-0.1-0.9-0.5-0.9-0.6C48.6,121.7,48.9,121.8,49.2,122L49.2,122z M48.8,119.9L48.8,119.9c0.2-0.1,0.4-0.2,0.6-0.1
								c0.2,0.2-0.1,0.5-0.3,0.6c-0.2,0.1-0.4,0.1-0.6,0C48.4,120.2,48.6,120,48.8,119.9L48.8,119.9z M49.7,120.1L49.7,120.1
								c0.1-0.2,0.4-0.7,1-0.8c0.5,0,0.8,0.2,1,0.5c0.1,0.3,0.2,0.8-0.1,0.8c-0.1,0-0.2-0.1-0.2-0.3c0-0.1-0.2-0.8-0.7-0.8
								c-0.4,0-0.6,0.3-0.6,0.6c0,0.3-0.2,0.5-0.3,0.5C49.6,120.7,49.7,120.3,49.7,120.1L49.7,120.1z M52.4,120.2L52.4,120.2
								C52.4,120.3,52.4,120.3,52.4,120.2c-0.3,0.2-0.3-0.1-0.4-0.2c-0.1-0.1-0.2-0.4-0.1-0.5c0.2-0.1,0.3,0,0.4,0.2
								c0,0.1,0,0.1,0.1,0.2C52.4,120,52.4,120.1,52.4,120.2L52.4,120.2z M49,122.6L49,122.6c0.4,0.2,1.1,0.6,1.6,0.6
								c0.5,0,1-0.2,1.2-0.3c0.2-0.1,0.5,0,0.5,0.2c0,0,0,0,0,0c0,0,0,0,0,0c0,0.2-0.3,0.4-1,0.6c-0.4,0.1-1,0.1-1.3,0
								c-0.3-0.1-0.8-0.4-1-0.6C49,122.9,48.7,122.5,49,122.6L49,122.6z M52.2,108.8L52.2,108.8c-0.2,0.3-0.4,0.5-0.6,0.6
								c-0.2-0.4-0.4-0.7-0.6-1.1C51.5,108.5,51.9,108.6,52.2,108.8L52.2,108.8z M46.9,106.4L46.9,106.4c4.5,0.4,5.3,5.9,5.4,10
								c0,0.7,0,1.6,0.1,2.6c-0.1,0-0.3,0-0.4-0.1c-0.3,0-0.7-0.2-1.1-0.2c-0.4,0-0.8,0.1-1.1,0.2c-0.3,0.1-0.6,0.1-0.5-0.1
								c0.2-0.2,0.4-0.4,0.6-0.8c0.3-0.4-0.2-0.5-0.3-0.3c-0.1,0.1-0.4,0.4-0.5,0.4c-0.2,0,0-0.6,0.3-1.1c0.3-0.7,0.4-1.2,0.4-1.6
								c0-0.4-0.9-0.9-1.3-1.1c-0.4-0.3-0.6-0.8-0.8-0.7c-0.2,0.1,0.2,0.7,0.3,0.9c0.1,0.3-0.3,0.5-0.7,0.2
								c-0.4-0.3-0.7-0.4-1.3-0.3c-0.6,0.1-0.8,0.8-0.7,1.3c0.1,0.5,0.3,1.1,0.6,1.2c0.3,0.1,0.5-0.4,0.2-0.5
								c-0.2-0.1-0.4-0.2-0.5-0.5c-0.2-0.3-0.1-0.7,0.1-0.9c0.2-0.1,0.7-0.1,1.1,0.1c0.4,0.3,0.4,0.6,1.1,0.7
								c0.7,0.1,0.5-0.6,0.7-0.7c0.2,0,0.4,0,0.5,0.3c0.1,0.3,0.1,0.7,0,1.1c-0.1,0.4-0.5,1.6-0.8,2.3c-0.2,0.8-0.3,1.2-0.2,2.7
								c0.1,1.5,1.2,2.9,2.3,3.1c0.8,0.1,1.8-0.3,2.1-0.4c0,0.6,0,1.2,0,1.8c-0.6,0.4-2.9,2.2-4.5,5.6c-1.4-2.1-4.4-5.4-9.4-6.7
								l-0.5-0.9c0-1-0.2-4.9-1.5-9.4l0,0C36.5,114.7,40.9,105.9,46.9,106.4L46.9,106.4z M41.2,107.9L41.2,107.9
								c-0.2,0.1-0.3,0.3-0.5,0.4l-0.2-0.3C40.7,108,41,107.9,41.2,107.9L41.2,107.9z M39.9,108.1L39.9,108.1l0.4,0.5
								c-0.1,0.1-0.2,0.2-0.4,0.3l-0.4-0.8C39.7,108.2,39.8,108.1,39.9,108.1L39.9,108.1z M39,108.3L39,108.3l0.5,1.1
								c-0.1,0.1-0.2,0.3-0.4,0.4l-0.7-1.3C38.7,108.4,38.9,108.4,39,108.3L39,108.3z M38,108.6L38,108.6l0.8,1.6
								c-0.1,0.2-0.3,0.3-0.4,0.5l-0.9-2C37.7,108.7,37.9,108.7,38,108.6L38,108.6z M37,109L37,109l1,2.3c-0.1,0.2-0.2,0.3-0.4,0.5
								l-1.1-2.6C36.7,109.1,36.9,109,37,109L37,109z M36.1,109.3L36.1,109.3l1.2,3c-0.1,0.2-0.2,0.4-0.3,0.5l-1.4-3.3
								C35.7,109.4,35.9,109.4,36.1,109.3L36.1,109.3z M35.1,109.7L35.1,109.7l1.5,3.6c-0.2,0.3-0.3,0.6-0.4,0.8
								c-0.4-1.4-1-2.8-1.6-4.2C34.7,109.9,34.9,109.8,35.1,109.7L35.1,109.7z M33.9,109.8L33.9,109.8c0.2,0.4,0.4,0.8,0.5,1.1
								c0,0.5,0.1,4.1-0.4,6.6l-0.6-1C34.1,114.7,34,111.6,33.9,109.8L33.9,109.8z M32.8,108L32.8,108c0.2,0.3,0.3,0.5,0.5,0.8
								c0,0.6,0.4,4.8-0.2,7.2l-0.5-0.9C33.3,112.8,33,109.7,32.8,108L32.8,108z M32.2,107L32.2,107c0.1,0.6,0.7,4.7,0,7.4l-0.5-0.8
								c0.6-2.3,0.1-5.8-0.3-7.6C31.7,106.3,31.9,106.6,32.2,107L32.2,107z M30.7,105.1L30.7,105.1c0.1,0.5,1.2,4.9,0.7,7.8l-0.6-1
								c0.2-3-0.6-6.2-1-7.9C30,104.3,30.4,104.7,30.7,105.1L30.7,105.1z M28.9,103.1L28.9,103.1c0.2,0.5,1.4,4.3,1.4,7.9l-0.8-1.4
								c0.2-2.6-0.5-5.4-0.9-6.9C28.7,102.9,28.8,103,28.9,103.1L28.9,103.1z M27.7,102L27.7,102c0.2,0.5,1.3,3.7,1.2,6.8l-0.9-1.5
								c-0.1-2.1-0.8-4.7-1.2-6C27.1,101.5,27.4,101.7,27.7,102L27.7,102z M26.1,100.7L26.1,100.7c0.2,0.5,1.1,3.2,1.4,5.6l-0.9-1.5
								c-0.2-1.5-0.9-3.5-1.2-4.6C25.6,100.3,25.9,100.5,26.1,100.7L26.1,100.7z M24.7,99.7L24.7,99.7c0.1,0.4,0.7,2,1.1,3.6
								l-2.5-4.3C23.7,99.2,24.1,99.4,24.7,99.7z"/>
							<path id="XMLID_938_" class="st4" d="M18.5,101.7c0,0,7.4,11.2,7.8,11.9c-0.4,0.2-0.9,0.4-1.4,0.5l-0.4,0.1
								c-1,0.2-2.8,0.6-3.4,0.6h-0.5l0.2,0.5c0,0.1,2.6,6.5,2.6,14c0,1.8-0.2,3.6-0.5,5.5h0.8c0.3-1.9,0.5-3.6,0.5-5.4
								c0-6.6-1.9-12.3-2.5-13.9c0.7-0.1,1.9-0.3,3-0.6l0.4-0.1c0.9-0.2,1.9-0.7,2-0.8l0.4-0.2l-8.3-12.6L18.5,101.7z"/>
							<path id="XMLID_935_" class="st4" d="M74.4,102.7c-0.2-0.1-0.2-0.3-0.2-0.4c0-0.1,0-0.7,0-1c0-0.3-0.2-0.4-0.1-0.6
								c0.1-0.2,0.8-1,1-1.4c0.2-0.4-0.2-0.6-0.3-0.4c-0.2,0.3-1.1,1.6-1.3,1.6c-0.2,0-0.5-0.2-0.8-0.1c-0.3,0-0.5,0.3-0.6,0.2
								c-0.1-0.1-0.9-0.8-1.2-1.1c-0.3-0.2-0.4,0.1-0.2,0.3c0.2,0.2,0.8,0.9,0.9,1c0.1,0.1,0.3,0.2,0.2,0.4c0,0.1,0,0.3,0,0.6
								c0,0.3,0.1,0.8,0.2,1c0.1,0.1,0,0.3-0.1,0.4c-0.1,0.1-0.8,1.1-1,1.4c-0.1,0.3,0.2,0.4,0.3,0.2c0.1-0.2,0.9-1.2,1-1.3
								c0.2-0.1,0.3-0.2,0.5-0.2c0.3,0.1,0.9,0,1-0.1c0.1-0.1,0.5-0.2,0.6-0.1c0.1,0.1,0.6,0.5,0.8,0.7c0.2,0.2,0.5,0.4,0.6,0.3
								c0.1-0.2,0-0.5-0.2-0.6C75.4,103.3,74.6,102.9,74.4,102.7L74.4,102.7z M73,102.9L73,102.9c-0.4,0-0.8-0.4-0.8-0.9
								c0-0.5,0.4-0.9,0.8-0.9c0.4,0,0.8,0.4,0.8,0.9C73.8,102.5,73.5,102.9,73,102.9z"/>
						</g>
						<path id="XMLID_933_" class="st4" d="M49.6,112.6c-0.2,0-0.4-0.1-0.6,0c-0.2,0.1-0.6,0.5-1.1,0.3c-0.5-0.2-0.6-0.1-0.8,0
							c-0.1,0.1-0.7,0-1-0.1c-0.3-0.2-0.4-0.1-0.6-0.2c-0.2-0.1-0.4,0.1-0.6,0.2c-0.1,0.2-0.3,0.3-0.4,0.1c-0.1-0.2-0.1-0.8-0.3-0.9
							c-0.1-0.1,0-0.6,0-0.8c0.1-0.2,0.1-0.2,0.4,0c0.3,0.2,0.6,0.3,1,0.2c0.4-0.1,0.6-0.2,1-0.3c0.4,0,0.6,0,0.9,0.1
							c0.4,0.1,0.8,0.3,1.2,0.1c0.5-0.2,0.4-0.3,0.5-0.5c0.1-0.2,0.5-0.1,0.5,0.3c0,0.4-0.1,0.2-0.2,0.6
							C49.7,112.2,49.9,112.5,49.6,112.6z"/>
						<path id="XMLID_932_" class="st4" d="M47.3,110.2c-0.6,0-0.9,0-1,0.2c-0.1,0.1-0.3,0.3-0.5,0.2c-0.2-0.1,0-0.6,0.3-0.7
							c0.2-0.1,1-0.2,1.5-0.1c0.5,0.1,0.7,0.2,0.9,0.4c0.2,0.2,0,0.3-0.4,0.2C47.8,110.2,47.3,110.2,47.3,110.2z"/>
					</g>
				</g>
				<g>
					<g id="XMLID_756_">
						<path id="XMLID_998_" class="st5" d="M27.2,113.6c-0.7,0.5-1.7,0.8-1.7,0.8l12.8,20.1h2.5L27.2,113.6z"/>
						<path id="XMLID_997_" class="st5" d="M36.5,134.5c0.1,0.1-0.1-2.9-1.4-4.7c-1.2-1.6-2.3-2-2.5-2.1c-0.1-0.4-0.5-2.7-1.5-4.4
							c-1-1.6-2.9-2.5-3.3-2.6c0-0.4-0.2-2.6-1.6-4.6c-0.4-0.5-0.8-1-1.4-1.5l-0.3,0.1c2.8,2.2,3,6.1,3,6.1l0,0.1l0.1,0
							c0,0,2.2,0.9,3.2,2.6c1.1,1.7,1.5,4.3,1.5,4.3l0,0.1l0.1,0c0,0,1.2,0.3,2.4,2c1.2,1.7,1.4,4.7,1.3,4.5H36.5z"/>
						<path id="XMLID_996_" class="st5" d="M35.6,134.6c0,0,0.7-4.1-3.9-6.5c0,0,0.2-5-4.7-6.7c0,0-0.2-4.6-3.2-6.5l-1.5,0.3
							c0,0,1.7,1,2,2.8c0,0,2.2,0.6,2.2,3.2c0,0.5-0.4,0.5-0.4,0c0-0.5-0.1-1.5-1.3-1.5c-1,0-1.1,1.7-0.7,2.4c0,0-0.7,0.7-0.6,1.6
							c0.2,1,0.6,1.5,0.9,1.6c0.6,0.2,1-0.2,1.1-0.3c0.1-0.1,0.2-0.3,0.6,0.3c0.4,0.5,1.4,0.6,1.8-0.1c0.4-0.7,0.4-1.7-0.6-2.4
							c-0.4-0.3,0.1-0.4,0.6-0.1c0.5,0.3,1.3,1.5,1.4,2.7c0,0,1.6,0.8,1.6,2.8c0,0.9-0.3,0.4-0.3,0.1c0-0.3-0.2-1.5-1.2-1.5
							c-1,0-1.3,0.9-1,2.3c0,0-1.1,0.3-1.1,1.9c0,1.7,1.8,2.2,2.7,0.7c0,0,0.9,1,1.6,0.5c0.7-0.5,1-1.9-0.1-2.8c0,0,2.1,0.1,2,3.7
							c0,0,0.6,1,0.5,1.6H35.6z"/>
						<path id="XMLID_961_" class="st5" d="M39,93.7c-3,0.5-6.2,1.5-9.4,3.2c-1.5,0.8-2.9,1.7-4.4,2.7l-0.3-0.3
							c0.3-0.2,0.9-0.6,1.2-0.8c1.6-1.1,3.2-2,4.8-2.7c17-8,31.3,2.1,31.4,2.2l-0.3,0.3C61.7,98.3,51.9,91.5,39,93.7L39,93.7z
							 M36.2,98.5L36.2,98.5c0.9-0.3,1.8-0.5,2.7-0.7l-0.4-2.5c-0.9,0.2-1.9,0.5-2.9,0.8L36.2,98.5L36.2,98.5z M54.2,106.9
							L54.2,106.9c-11.5-5.3-21.1,1-21.1,1l0.7,1.2c4.9-2.6,9.4-3.2,12.8-2.9c4,0.3,6.6,1.8,6.6,1.8L54.2,106.9L54.2,106.9z
							 M54.3,102.1L54.3,102.1c0.3,0.1,0.6,0.2,0.8,0.4c0.5,0.3,1.1,0.5,1.6,0.8l0.9-2.7c-0.7-0.3-1.5-0.7-2.6-1.1L54.3,102.1
							L54.3,102.1z M49.5,100.6L49.5,100.6c0.8,0.1,1.5,0.3,2.3,0.5l0.4-2.5c-0.8-0.2-1.6-0.4-2.5-0.6L49.5,100.6L49.5,100.6z
							 M44.3,100.3L44.3,100.3c0.8,0,1.7,0,2.6,0l0.1-2.6c-0.9-0.1-1.8-0.1-2.7-0.1L44.3,100.3L44.3,100.3z M41.6,97.7L41.6,97.7
							c-0.9,0.1-1.8,0.2-2.7,0.4l0.3,2.7c0.3-0.1,0.7-0.1,1-0.2c0.4-0.1,0.9-0.1,1.3-0.2V97.7L41.6,97.7z M36.2,98.9L36.2,98.9
							c-0.8,0.3-1.6,0.6-2.5,0.9l0.8,2.5c0.2-0.1,0.5-0.2,0.7-0.3c0.5-0.2,1-0.3,1.5-0.5L36.2,98.9L36.2,98.9z M54.9,106l4.4-5
							c0,0-0.4-0.3-1.5-0.8l1-2.1c1.2,0.6,1.9,1.1,2,1.2l0.3-0.3C61,98.9,48.1,90.3,33,96.6c-1.9,0.8-3.9,1.8-5.9,3.2
							c-0.2,0.1-0.6,0.4-0.8,0.6l0.4,0.3c0.2-0.2,0.5-0.4,0.8-0.6l0.8,1.9l0.5,0.5c0.7-0.5,1.7-1,2.4-1.4l0.8,2.4
							c-0.8,0.4-1.5,0.9-1.5,0.9l1.3,1.6l0.9,1.3c1.2-0.7,2.6-1.4,3.7-1.9c3.1-1.2,6.2-1.6,8.9-1.5c2.5,0.1,4.7,0.5,6.3,1
							C53.7,105.4,54.9,106,54.9,106L54.9,106L54.9,106z M52.5,98.3L52.5,98.3c1,0.3,1.9,0.6,2.7,0.9l0.7-2.3
							c-0.9-0.3-1.8-0.7-2.9-1L52.5,98.3L52.5,98.3z M47.1,97.3L47.1,97.3c1,0.1,1.9,0.2,2.8,0.4l0.2-2.5c-0.9-0.2-1.8-0.3-2.8-0.4
							L47.1,97.3L47.1,97.3z M41.6,97.4L41.6,97.4c0.9-0.1,1.9-0.1,2.7-0.1l-0.1-2.5c-0.9,0-1.8,0-2.8,0.1L41.6,97.4L41.6,97.4z
							 M31.1,100.7L31.1,100.7c0.8-0.5,1.7-0.9,2.5-1.2l-0.8-2.3c-0.8,0.4-1.7,0.8-2.5,1.2L31.1,100.7L31.1,100.7z M33.4,106.4
							l-1.1-2.6c0.6-0.3,1.4-0.6,2.3-1l0.8,2.7C34.6,105.8,34.1,106,33.4,106.4L33.4,106.4L33.4,106.4z M39.3,101.3l0.3,2.7
							c-0.6,0.1-1.3,0.3-2,0.5l-0.6-2.7C37.8,101.7,38.5,101.5,39.3,101.3L39.3,101.3L39.3,101.3z M44.2,100.7l0,2.8
							c-0.7,0-1.3,0-2,0.1l-0.2-2.8C42.7,100.7,43.5,100.7,44.2,100.7L44.2,100.7L44.2,100.7z M46.8,100.8L46.8,100.8
							c0.8,0,1.7,0.1,2.5,0.2l-0.5,2.8c-0.6-0.1-1.3-0.2-2-0.3L46.8,100.8L46.8,100.8L46.8,100.8z M51.4,104.4l0.5-2.8
							c0.8,0.2,1.6,0.5,2.3,0.9l-0.6,2.6C53,104.9,52.2,104.6,51.4,104.4L51.4,104.4L51.4,104.4z M55.1,105c-0.3,0-0.5-0.3-0.5-0.6
							c0-0.3,0.2-0.6,0.5-0.6c0.3,0,0.5,0.3,0.5,0.6C55.6,104.8,55.4,105,55.1,105L55.1,105L55.1,105z M50.4,103.2
							c-0.3,0-0.5-0.3-0.5-0.6c0-0.3,0.2-0.6,0.5-0.6c0.3,0,0.5,0.3,0.5,0.6C50.9,103,50.7,103.2,50.4,103.2L50.4,103.2L50.4,103.2z
							 M45.6,102.7c-0.3,0-0.5-0.3-0.5-0.6c0-0.3,0.2-0.6,0.5-0.6c0.3,0,0.5,0.3,0.5,0.6C46.1,102.4,45.9,102.7,45.6,102.7
							L45.6,102.7L45.6,102.7z M40.7,102.9c-0.3,0-0.5-0.3-0.5-0.6c0-0.3,0.2-0.6,0.5-0.6c0.3,0,0.5,0.3,0.5,0.6
							C41.2,102.7,41,102.9,40.7,102.9L40.7,102.9L40.7,102.9z M36.1,104.2c-0.3,0-0.5-0.3-0.5-0.6c0-0.3,0.2-0.6,0.5-0.6
							c0.3,0,0.5,0.3,0.5,0.6C36.6,103.9,36.4,104.2,36.1,104.2L36.1,104.2L36.1,104.2z M32.8,102.4c-0.3,0-0.5-0.3-0.5-0.6
							c0-0.3,0.2-0.6,0.5-0.6c0.3,0,0.5,0.3,0.5,0.6C33.4,102.1,33.1,102.4,32.8,102.4L32.8,102.4L32.8,102.4z M37.8,100.6
							L37.8,100.6c0.3,0,0.6-0.3,0.6-0.6c0-0.4-0.3-0.6-0.6-0.6c-0.3,0-0.6,0.3-0.6,0.6C37.3,100.3,37.5,100.6,37.8,100.6
							L37.8,100.6z M42.9,99.6L42.9,99.6c0.3,0,0.6-0.3,0.6-0.6c0-0.3-0.3-0.6-0.6-0.6c-0.3,0-0.6,0.3-0.6,0.6
							C42.4,99.3,42.6,99.6,42.9,99.6L42.9,99.6z M48.2,99.7L48.2,99.7c0.3,0,0.6-0.3,0.6-0.6c0-0.3-0.3-0.6-0.6-0.6
							c-0.3,0-0.6,0.3-0.6,0.6C47.7,99.5,47.9,99.7,48.2,99.7L48.2,99.7z M53.3,101c-0.3,0-0.6-0.3-0.6-0.6c0-0.4,0.3-0.6,0.6-0.6
							c0.3,0,0.6,0.3,0.6,0.6C53.9,100.7,53.6,101,53.3,101L53.3,101L53.3,101z M57,99.1L57,99.1c0.3,0,0.6-0.3,0.6-0.6
							c0-0.4-0.3-0.6-0.6-0.6c-0.3,0-0.6,0.3-0.6,0.6C56.4,98.8,56.7,99.1,57,99.1L57,99.1z M51.4,97.1L51.4,97.1
							c0.3,0,0.6-0.3,0.6-0.6c0-0.4-0.3-0.6-0.6-0.6c-0.3,0-0.6,0.3-0.6,0.6C50.8,96.9,51,97.1,51.4,97.1L51.4,97.1z M45.8,96.3
							L45.8,96.3c0.3,0,0.6-0.3,0.6-0.6c0-0.3-0.3-0.6-0.6-0.6c-0.3,0-0.6,0.3-0.6,0.6C45.2,96.1,45.5,96.3,45.8,96.3L45.8,96.3z
							 M40,96.9L40,96.9c0.3,0,0.6-0.3,0.6-0.6c0-0.4-0.3-0.6-0.6-0.6c-0.3,0-0.6,0.3-0.6,0.6C39.4,96.6,39.7,96.9,40,96.9L40,96.9z
							 M34.5,98.2L34.5,98.2c0.3,0,0.6-0.3,0.6-0.6c0-0.3-0.3-0.6-0.6-0.6c-0.3,0-0.6,0.3-0.6,0.6C34,97.9,34.2,98.2,34.5,98.2
							L34.5,98.2z M29.1,100.8L29.1,100.8c0.3,0,0.6-0.3,0.6-0.6c0-0.4-0.3-0.6-0.6-0.6c-0.3,0-0.6,0.3-0.6,0.6
							C28.5,100.5,28.8,100.8,29.1,100.8z"/>
						<path id="XMLID_956_" class="st5" d="M55.5,84.8L54,90.2l3.8,1.2l-0.2,0.5l-3.7-1.3l-0.3,1.3l3.7,1.4l-0.7,2.2
							c-4.1-1.7-8.8-2.4-12.3-2.4c-4.4-0.1-7.9,1-7.9,1c1-1,1.9-2.1,2.6-3.1l5-0.3l0.4-1.3l-4.5,0.2c0.1-0.2,0.2-0.4,0.3-0.6
							l4.4-0.1l1.7-4.7L46.1,83l-3.7-0.1c0.2-1,0.4-1.9,0.5-2.6c0.2-1.4,0.2-2.2,0.2-2.2c5.7-0.2,13.4,1.7,13.4,1.7
							c0.4,2.2,1.6,5,2.3,6.3L55.5,84.8L55.5,84.8z M50.7,92.5L50.7,92.5c0.1-0.3-0.4-0.4-0.4-0.8c0-0.4,1-0.6,1-0.8
							c0-0.2-0.6-0.5-0.4-0.9c0.1-0.4,0.8-0.3,0.9-0.6c0.1-0.3-0.4-0.6-0.3-0.9c0.1-0.3,0.8-0.5,0.9-0.8c0.1-0.2-0.4-0.7-0.4-0.9
							c0-0.2,0.5-0.4,0.7-0.5c0.3-0.1,0.3-0.3,0-0.5c-0.2-0.2-0.4-0.5-0.3-0.7c0.1-0.2,0.3-0.3,0.6-0.4c0.3-0.1,0-0.4-0.2-0.4
							c-0.2,0-0.5,0-0.6,0.3c-0.1,0.3-2.4,7.5-2.6,8c-0.1,0.2,0,0.3,0.3,0.3C50.2,92.8,50.7,92.7,50.7,92.5L50.7,92.5z M51.8,83.9
							L51.8,83.9c-0.2,0-0.4,0.3-0.4,0.6c0,0.2-0.2,0.3-0.4,0.3c-0.2,0-0.3-0.4-0.2-0.7c0-0.3-0.3-0.2-0.4,0c-0.2,0.6-0.6,2.2-1,3.3
							c-0.4,1.1-1.4,4.2-1.6,4.6c-0.2,0.5-0.1,0.6,0.1,0.7c0.2,0,0.4-0.1,0.4-0.3c0-0.2,0.2-0.4,0.4-0.3c0.2,0,0.2,0.3,0.2,0.7
							c0,0.4,0.3,0.3,0.4,0c0.1-0.3,2.5-7.5,2.6-8C52,84.3,52,83.9,51.8,83.9L51.8,83.9z M47.3,92.2L47.3,92.2
							c0.1-0.3,2.2-6.4,2.4-7c0.1-0.5,0.3-1.2,0.2-1.5c-0.2-0.3-1-0.1-1.1,0.1c0,0.2,0.5,0.5,0.4,0.8c-0.1,0.3-0.8,0.4-0.8,0.7
							c-0.1,0.3,0.7,0.7,0.6,1.1c-0.1,0.3-1.2,0.3-1.2,0.7c0,0.3,0.6,0.7,0.5,1.1c-0.1,0.4-1,0.5-1.1,0.8c0,0.3,0.7,0.6,0.6,0.9
							c-0.1,0.3-0.9,0.2-1,0.5c-0.1,0.3,0.4,0.7,0.4,0.9c-0.1,0.2-0.3,0.4-0.6,0.4c-0.3,0-0.4,0.2-0.4,0.4c0,0.2,0.5,0.6,0.7,0.7
							C47.1,92.7,47.2,92.5,47.3,92.2z"/>
						<path id="XMLID_765_" class="st5" d="M79.3,77.1L65.8,92.1c0,0-1.5-0.9-3.1-2.9c-1.7-2-2-3.1-2-3.1s9.1-8.9,10.5-23.8l8.1,9.3
							L79.3,77.1L79.3,77.1z M66.2,87.3L66.2,87.3c0-0.5,0.2-0.6,0.4-0.2c0.1,0.4,0.9,1.5,1.4,1.2c0.5-0.2,0.1-1.6,0-2.1
							c-0.1-0.5,0.1-0.5,0.5-0.5c0.4,0,1.6,0.1,1.6-0.5c0-0.6-1-0.8-1.4-0.9c-0.5-0.1-0.4-0.4,0-0.6c0.3-0.2,1.5-1.5,1.2-1.9
							c-0.3-0.4-1.4,0.2-1.7,0.3c-0.4,0.2-0.4-0.1-0.3-0.5c0.1-0.5,0.1-1.9-0.4-2c-0.6-0.1-1.2,2-1.2,2.2c0,0.2-0.1,0.5-0.4,0
							c-0.2-0.5-0.9-0.9-1.2-0.7c-0.3,0.2-0.1,1.2,0,1.5c0.1,0.3,0.2,0.5,0.1,0.6c-0.1,0.1-0.3,0-0.8-0.1c-0.4-0.1-1.1,0.1-1.1,0.5
							c-0.1,0.4,0.6,0.8,1.1,0.9c0.4,0.1,0.2,0.3,0,0.4c-0.2,0.1-1.9,1.6-1.3,2.1c0.6,0.5,2-0.7,2.2-0.6c0.2,0.1-0.1,0.8-0.2,1.5
							c-0.1,0.7,0.1,1.2,0.3,1.2C65.8,89.3,66.2,87.8,66.2,87.3L66.2,87.3z M71.1,83.8L71.1,83.8c0.5,0,0.8-0.4,0.8-0.9
							s-0.4-0.9-0.8-0.9c-0.5,0-0.8,0.4-0.8,0.9S70.6,83.8,71.1,83.8L71.1,83.8z M66.4,86.3L66.4,86.3c0.9,0,1.5-0.8,1.5-1.8
							c0-1-0.7-1.8-1.5-1.8c-0.9,0-1.5,0.8-1.5,1.8C64.9,85.5,65.6,86.3,66.4,86.3L66.4,86.3z M65.5,84.5c0,0.6,0.4,1,0.9,1
							c0.5,0,0.9-0.5,0.9-1c0-0.6-0.4-1-0.9-1C65.9,83.4,65.5,83.9,65.5,84.5L65.5,84.5L65.5,84.5z M71.8,77.5L71.8,77.5
							c0.4,0,0.8-0.4,0.8-0.9c0-0.5-0.3-0.9-0.8-0.9c-0.4,0-0.8,0.4-0.8,0.9C71,77.1,71.3,77.5,71.8,77.5L71.8,77.5z M77.8,75.2
							L77.8,75.2c0.4,0,0.8-0.4,0.8-0.9c0-0.5-0.4-0.9-0.8-0.9c-0.4,0-0.8,0.4-0.8,0.9C77,74.8,77.3,75.2,77.8,75.2L77.8,75.2z
							 M71.7,69L71.7,69c0.4,0,0.7-0.4,0.7-0.8c0-0.5-0.3-0.8-0.7-0.8c-0.4,0-0.7,0.4-0.7,0.8C70.9,68.7,71.3,69,71.7,69L71.7,69z
							 M73.8,78.6L73.8,78.6c0.4-0.5,1.6-0.5,1.6-0.5c0-0.8,0.1-2.4,0.1-2.4l-4.5,5.1c0.5-0.2,2.4-0.2,2.4-0.2S73.3,79.4,73.8,78.6
							L73.8,78.6z M69.9,73.5L69.9,73.5c0,0,0,0.9-0.3,1.6c-0.3,0.8-1.4,0.9-1.4,0.9l-0.2,2l4.3-4.7L69.9,73.5L69.9,73.5z
							 M76.5,70.5L76.5,70.5c0,0,0.5,0.8,1.4,1.2c0.8,0.4,0.9-0.2,0.7-0.5c-0.3-0.3-1.4-1.5-1.4-1.5s-1.6,1-2.4,0
							c-0.8-1-0.1-2.9-0.1-2.9s-1.8-2.1-2.3-1.4c-0.4,0.7,1.6,3.1,1.6,3.1s-3.1,2.4-2.5,2.9c0.6,0.5,3.2-1.2,3.2-1.2
							s-0.3,0.4-0.3,1.4c0,0.9,0.1,2.5,0.4,2.5C75.9,74,76.5,70.5,76.5,70.5L76.5,70.5z M75.4,67.8L75.4,67.8
							c-0.1-0.1-0.5,0.2-0.5,0.5c0,0.3,0.2,0.9,0.7,0.9c0.5,0,0.8-0.4,0.6-0.6C76.2,68.6,75.6,67.9,75.4,67.8z"/>
						<path id="XMLID_764_" class="st5" d="M56.1,104.8l4.9-5.5c1,17.2-8.3,26.9-8.3,26.9c0.1-2.7,0.1-4.8,0.1-6.7
							c0-1,0-1.9-0.1-2.7C52.7,116.8,55.9,112.5,56.1,104.8z"/>
						<polygon id="XMLID_763_" class="st5" points="80.5,70.1 80.5,66.7 69.6,54.9 67.5,56 67.7,56.2 80.5,70.8 						"/>
						
							<ellipse id="XMLID_762_" transform="matrix(-0.999 4.565621e-002 -4.565621e-002 -0.999 101.8309 179.8495)" class="st5" cx="48.9" cy="91.1" rx="0.4" ry="0.4"/>
						
							<ellipse id="XMLID_761_" transform="matrix(-0.9991 4.318169e-002 -4.318169e-002 -0.9991 102.3609 177.3157)" class="st5" cx="49.3" cy="89.8" rx="0.4" ry="0.4"/>
						
							<ellipse id="XMLID_760_" transform="matrix(-0.999 4.567010e-002 -4.567010e-002 -0.999 103.3256 174.5178)" class="st5" cx="49.7" cy="88.4" rx="0.4" ry="0.4"/>
						<path id="XMLID_759_" class="st5" d="M49.7,87.1c0-0.2,0.2-0.4,0.4-0.4c0.2,0,0.4,0.2,0.4,0.4c0,0.2-0.2,0.4-0.4,0.4
							C49.9,87.5,49.7,87.4,49.7,87.1z"/>
						
							<ellipse id="XMLID_757_" transform="matrix(-0.999 4.562245e-002 -4.562245e-002 -0.999 104.8178 169.1892)" class="st5" cx="50.5" cy="85.8" rx="0.4" ry="0.4"/>
					</g>
				</g>
			</g>
			<path class="st4" d="M18.9,135.2H81V16.4H18.4v118.7H18.9L18.9,135.2z M19.3,134.2L19.3,134.2c0-1,0-115.8,0-116.8
				c0.9,0,59.8,0,60.7,0c0,1,0,115.8,0,116.8C79.1,134.2,20.3,134.2,19.3,134.2z"/>
		</g>
		<g>
			<path id="XMLID_24_" class="st1" d="M33.6,27.2c-2.6-3.6-3.4-6.6-3.4-6.6s-0.7,3-3.4,6.6c-2.6,3.6-5.1,4.6-5.1,4.6s2.4,1,5.1,4.6
				c2.6,3.6,3.4,6.6,3.4,6.6s0.7-3,3.4-6.6c2.6-3.6,5.1-4.6,5.1-4.6S36.3,30.8,33.6,27.2z"/>
			<path id="XMLID_23_" class="st1" d="M65.8,124.4c2.6,3.6,3.4,6.6,3.4,6.6s0.7-3,3.3-6.6c2.6-3.6,5.1-4.6,5.1-4.6s-2.4-1-5.1-4.6
				c-2.6-3.6-3.3-6.6-3.3-6.6s-0.7,3-3.4,6.6c-2.6,3.6-5.1,4.6-5.1,4.6S63.2,120.8,65.8,124.4z"/>
		</g>
		<g>
			<g>
				<path id="XMLID_22_" class="st2" d="M12.7,30.9c0,0,1.4,4.5,4.6,6.3c0,0-3.2,1.7-4.6,6.2c-1.4-4.6-4.6-6.2-4.6-6.2
					C11.3,35.3,12.7,30.9,12.7,30.9z"/>
			</g>
			<g>
				<path id="XMLID_21_" class="st2" d="M86.7,120.7c0,0-1.4-4.5-4.6-6.3c0,0,3.2-1.7,4.6-6.2c1.4,4.6,4.6,6.2,4.6,6.2
					C88.1,116.3,86.7,120.7,86.7,120.7z"/>
			</g>
		</g>
		<g>
			<path class="st1" d="M17.3,26.6c0,0-1.1,0.2-2.1-0.6c-0.7,0.7-1.7,1.1-2.8,1.1c-2.3,0-4.1-1.8-4.1-4.1v-2.5c-0.5,0-1.1,0-1.1,0
				v-1.8c0,0,0.4,0,1.1,0v-3.9c0-2.3,1.9-4.1,4.1-4.1c2.3,0,4.1,1.8,4.1,4.1V23c0,0.5-0.1,1.1-0.3,1.5c0.3,0.3,0.7,0.4,1,0.5V26.6
				L17.3,26.6z M12.4,25.4L12.4,25.4c0.6,0,1.2-0.2,1.6-0.6c-0.5-0.8-0.9-1.5-1.5-2.2c-0.9-0.9-1.7-1.3-2.4-1.6v2.1
				C10,24.3,11.1,25.4,12.4,25.4L12.4,25.4z M12.4,12.5L12.4,12.5c-1.3,0-2.4,1-2.4,2.3V19c0.2,0.1,0.5,0.1,0.7,0.2
				c2,0.8,3.2,2.2,4,3.4v-7.8C14.7,13.5,13.7,12.5,12.4,12.5z"/>
			<path class="st1" d="M82.2,125c0,0,1.1-0.2,2.1,0.5c0.7-0.7,1.7-1.1,2.8-1.1c2.3,0,4.1,1.8,4.1,4.1v2.5c0.5,0,1.1,0,1.1,0v1.8
				c0,0-0.4,0-1.1,0v3.9c0,2.3-1.9,4.1-4.1,4.1c-2.3,0-4.1-1.8-4.1-4.1v-8.2c0-0.5,0.1-1.1,0.3-1.5c-0.3-0.3-0.7-0.4-1-0.5V125
				L82.2,125z M87,126.2L87,126.2c-0.6,0-1.2,0.2-1.6,0.6c0.5,0.8,0.9,1.5,1.5,2.2c0.9,0.9,1.7,1.3,2.4,1.6v-2.1
				C89.4,127.3,88.3,126.2,87,126.2L87,126.2z M87,139.1L87,139.1c1.3,0,2.4-1,2.4-2.3v-4.2c-0.2-0.1-0.5-0.1-0.7-0.2
				c-2-0.8-3.2-2.2-4-3.4v7.8C84.7,138.1,85.7,139.1,87,139.1z"/>
		</g>
	</g>
</g>
</svg>
