<?xml version="1.0" encoding="utf-8"?>
<!-- Generator: Adobe Illustrator 19.0.0, SVG Export Plug-In . SVG Version: 6.00 Build 0)  -->
<svg version="1.1" xmlns="http://www.w3.org/2000/svg" xmlns:xlink="http://www.w3.org/1999/xlink" x="0px" y="0px"
	 viewBox="0 0 99.4 151.6" style="enable-background:new 0 0 99.4 151.6;" xml:space="preserve">
<style type="text/css">
	.st0{fill:#FFFFFF;stroke:#000000;stroke-width:0.25;stroke-miterlimit:2.6131;}
	.st1{fill-rule:evenodd;clip-rule:evenodd;fill:#E52529;}
	.st2{fill:#E52529;}
	.st3{fill:#FFDD09;}
	.st4{fill:#111A16;}
	.st5{fill:#DC3538;}
</style>
<g id="Calque_2">
	<path id="XMLID_15_" class="st0" d="M99.3,5.3v140.9c0,2.9-2.3,5.2-5.2,5.2H5.3c-2.9,0-5.2-2.3-5.2-5.2V5.3c0-2.9,2.3-5.2,5.2-5.2
		h88.7C96.9,0.1,99.3,2.5,99.3,5.3z"/>
</g>
<g id="Calque_1">
	<g>
		<g>
			<g>
				<g>
					<path class="st1" d="M552.8,134.6c-3.2-4.4-4.1-8-4.1-8s-0.9,3.7-4.1,8c-3.2,4.4-6.2,5.6-6.2,5.6s3,1.2,6.2,5.6
						c3.2,4.4,4.1,8,4.1,8s0.9-3.7,4.1-8c3.2-4.4,6.2-5.6,6.2-5.6S556.1,138.9,552.8,134.6z"/>
					<path class="st1" d="M510.8,134.6c-3.2-4.4-4.1-8-4.1-8s-0.9,3.7-4.1,8c-3.2,4.4-6.2,5.6-6.2,5.6s3,1.2,6.2,5.6
						c3.2,4.4,4.1,8,4.1,8s0.9-3.7,4.1-8c3.2-4.4,6.2-5.6,6.2-5.6S514,138.9,510.8,134.6z"/>
				</g>
				<g>
					<path class="st1" d="M531.8,177.1c-3.2-4.4-4.1-8-4.1-8s-0.9,3.7-4.1,8c-3.2,4.4-6.2,5.6-6.2,5.6s3,1.2,6.2,5.6
						c3.2,4.4,4.1,8,4.1,8s0.9-3.7,4.1-8c3.2-4.4,6.2-5.6,6.2-5.6S535,181.5,531.8,177.1z"/>
				</g>
				<g>
					<path class="st1" d="M552.8,219.7c-3.2-4.4-4.1-8-4.1-8s-0.9,3.7-4.1,8c-3.2,4.4-6.2,5.6-6.2,5.6s3,1.2,6.2,5.6
						c3.2,4.4,4.1,8,4.1,8s0.9-3.7,4.1-8c3.2-4.4,6.2-5.6,6.2-5.6S556.1,224,552.8,219.7z"/>
					<path class="st1" d="M510.8,219.7c-3.2-4.4-4.1-8-4.1-8s-0.9,3.7-4.1,8c-3.2,4.4-6.2,5.6-6.2,5.6s3,1.2,6.2,5.6
						c3.2,4.4,4.1,8,4.1,8s0.9-3.7,4.1-8c3.2-4.4,6.2-5.6,6.2-5.6S514,224,510.8,219.7z"/>
				</g>
			</g>
		</g>
		<g>
			<g>
				<g>
					<g>
						<g>
							<g>
								<path class="st2" d="M486.7,117.5h7.8v1.8h-6l-0.2,3c0,0,2.8-1.6,5.5,0.7c0.5,0.4,2.9,2.9,1.4,7.8c-0.3,1-2,3.6-5.6,3.1
									c-0.2,0-2.9-0.7-3.9-3.7l1.7-0.4c0,0,1.3,2.7,3.1,2.5c0.9-0.1,3.3-0.7,3.2-4.6c0-0.3,0-3.7-2.9-4.2c-1-0.2-2.2,0-3.9,1.7
									l-0.8-0.5L486.7,117.5z"/>
							</g>
						</g>
						<g>
							<g>
								<path class="st2" d="M568.8,247.8h-7.9V246h6l0.2-3c0,0-2.8,1.6-5.5-0.7c-0.5-0.4-2.9-2.9-1.4-7.8c0.3-1,2-3.6,5.6-3.1
									c0.2,0,2.9,0.7,3.9,3.7l-1.7,0.4c0,0-1.3-2.7-3.1-2.5c-0.9,0.1-3.3,0.7-3.2,4.6c0,0.3,0,3.7,2.9,4.2c1,0.2,2.2,0,3.9-1.7
									l0.8,0.5L568.8,247.8z"/>
							</g>
						</g>
					</g>
				</g>
			</g>
		</g>
		<g>
			<g>
				<path class="st2" d="M490.8,137.7c0,0,1.4,4.5,4.7,6.3c0,0-3.2,1.7-4.7,6.2c-1.5-4.6-4.7-6.2-4.7-6.2
					C489.4,142.2,490.8,137.7,490.8,137.7z"/>
			</g>
			<g>
				<path class="st2" d="M564.7,227.6c0,0-1.4-4.5-4.7-6.3c0,0,3.2-1.7,4.7-6.2c1.5,4.6,4.7,6.2,4.7,6.2
					C566.1,223.1,564.7,227.6,564.7,227.6z"/>
			</g>
		</g>
	</g>
	<g>
		<g>
			<g>
				<g>
					<path class="st1" d="M552.8,134.6c-3.2-4.4-4.1-8-4.1-8s-0.9,3.7-4.1,8c-3.2,4.4-6.2,5.6-6.2,5.6s3,1.2,6.2,5.6
						c3.2,4.4,4.1,8,4.1,8s0.9-3.7,4.1-8c3.2-4.4,6.2-5.6,6.2-5.6S556.1,138.9,552.8,134.6z"/>
					<path class="st1" d="M510.8,134.6c-3.2-4.4-4.1-8-4.1-8s-0.9,3.7-4.1,8c-3.2,4.4-6.2,5.6-6.2,5.6s3,1.2,6.2,5.6
						c3.2,4.4,4.1,8,4.1,8s0.9-3.7,4.1-8c3.2-4.4,6.2-5.6,6.2-5.6S514,138.9,510.8,134.6z"/>
				</g>
				<g>
					<path class="st1" d="M531.8,177.1c-3.2-4.4-4.1-8-4.1-8s-0.9,3.7-4.1,8c-3.2,4.4-6.2,5.6-6.2,5.6s3,1.2,6.2,5.6
						c3.2,4.4,4.1,8,4.1,8s0.9-3.7,4.1-8c3.2-4.4,6.2-5.6,6.2-5.6S535,181.5,531.8,177.1z"/>
				</g>
				<g>
					<path class="st1" d="M552.8,219.7c-3.2-4.4-4.1-8-4.1-8s-0.9,3.7-4.1,8c-3.2,4.4-6.2,5.6-6.2,5.6s3,1.2,6.2,5.6
						c3.2,4.4,4.1,8,4.1,8s0.9-3.7,4.1-8c3.2-4.4,6.2-5.6,6.2-5.6S556.1,224,552.8,219.7z"/>
					<path class="st1" d="M510.8,219.7c-3.2-4.4-4.1-8-4.1-8s-0.9,3.7-4.1,8c-3.2,4.4-6.2,5.6-6.2,5.6s3,1.2,6.2,5.6
						c3.2,4.4,4.1,8,4.1,8s0.9-3.7,4.1-8c3.2-4.4,6.2-5.6,6.2-5.6S514,224,510.8,219.7z"/>
				</g>
			</g>
		</g>
		<g>
			<g>
				<g>
					<g>
						<g>
							<g>
								<path class="st2" d="M486.7,117.5h7.8v1.8h-6l-0.2,3c0,0,2.8-1.6,5.5,0.7c0.5,0.4,2.9,2.9,1.4,7.8c-0.3,1-2,3.6-5.6,3.1
									c-0.2,0-2.9-0.7-3.9-3.7l1.7-0.4c0,0,1.3,2.7,3.1,2.5c0.9-0.1,3.3-0.7,3.2-4.6c0-0.3,0-3.7-2.9-4.2c-1-0.2-2.2,0-3.9,1.7
									l-0.8-0.5L486.7,117.5z"/>
							</g>
						</g>
						<g>
							<g>
								<path class="st2" d="M568.8,247.8h-7.9V246h6l0.2-3c0,0-2.8,1.6-5.5-0.7c-0.5-0.4-2.9-2.9-1.4-7.8c0.3-1,2-3.6,5.6-3.1
									c0.2,0,2.9,0.7,3.9,3.7l-1.7,0.4c0,0-1.3-2.7-3.1-2.5c-0.9,0.1-3.3,0.7-3.2,4.6c0,0.3,0,3.7,2.9,4.2c1,0.2,2.2,0,3.9-1.7
									l0.8,0.5L568.8,247.8z"/>
							</g>
						</g>
					</g>
				</g>
			</g>
		</g>
		<g>
			<g>
				<path class="st2" d="M490.8,137.7c0,0,1.4,4.5,4.7,6.3c0,0-3.2,1.7-4.7,6.2c-1.5-4.6-4.7-6.2-4.7-6.2
					C489.4,142.2,490.8,137.7,490.8,137.7z"/>
			</g>
			<g>
				<path class="st2" d="M564.7,227.6c0,0-1.4-4.5-4.7-6.3c0,0,3.2-1.7,4.7-6.2c1.5,4.6,4.7,6.2,4.7,6.2
					C566.1,223.1,564.7,227.6,564.7,227.6z"/>
			</g>
		</g>
	</g>
	<g>
		<g>
			<g>
				<g>
					<path class="st1" d="M552.8,134.6c-3.2-4.4-4.1-8-4.1-8s-0.9,3.7-4.1,8c-3.2,4.4-6.2,5.6-6.2,5.6s3,1.2,6.2,5.6
						c3.2,4.4,4.1,8,4.1,8s0.9-3.7,4.1-8c3.2-4.4,6.2-5.6,6.2-5.6S556.1,138.9,552.8,134.6z"/>
					<path class="st1" d="M510.8,134.6c-3.2-4.4-4.1-8-4.1-8s-0.9,3.7-4.1,8c-3.2,4.4-6.2,5.6-6.2,5.6s3,1.2,6.2,5.6
						c3.2,4.4,4.1,8,4.1,8s0.9-3.7,4.1-8c3.2-4.4,6.2-5.6,6.2-5.6S514,138.9,510.8,134.6z"/>
				</g>
				<g>
					<path class="st1" d="M531.8,177.1c-3.2-4.4-4.1-8-4.1-8s-0.9,3.7-4.1,8c-3.2,4.4-6.2,5.6-6.2,5.6s3,1.2,6.2,5.6
						c3.2,4.4,4.1,8,4.1,8s0.9-3.7,4.1-8c3.2-4.4,6.2-5.6,6.2-5.6S535,181.5,531.8,177.1z"/>
				</g>
				<g>
					<path class="st1" d="M552.8,219.7c-3.2-4.4-4.1-8-4.1-8s-0.9,3.7-4.1,8c-3.2,4.4-6.2,5.6-6.2,5.6s3,1.2,6.2,5.6
						c3.2,4.4,4.1,8,4.1,8s0.9-3.7,4.1-8c3.2-4.4,6.2-5.6,6.2-5.6S556.1,224,552.8,219.7z"/>
					<path class="st1" d="M510.8,219.7c-3.2-4.4-4.1-8-4.1-8s-0.9,3.7-4.1,8c-3.2,4.4-6.2,5.6-6.2,5.6s3,1.2,6.2,5.6
						c3.2,4.4,4.1,8,4.1,8s0.9-3.7,4.1-8c3.2-4.4,6.2-5.6,6.2-5.6S514,224,510.8,219.7z"/>
				</g>
			</g>
		</g>
		<g>
			<g>
				<g>
					<g>
						<g>
							<g>
								<path class="st2" d="M486.7,117.5h7.8v1.8h-6l-0.2,3c0,0,2.8-1.6,5.5,0.7c0.5,0.4,2.9,2.9,1.4,7.8c-0.3,1-2,3.6-5.6,3.1
									c-0.2,0-2.9-0.7-3.9-3.7l1.7-0.4c0,0,1.3,2.7,3.1,2.5c0.9-0.1,3.3-0.7,3.2-4.6c0-0.3,0-3.7-2.9-4.2c-1-0.2-2.2,0-3.9,1.7
									l-0.8-0.5L486.7,117.5z"/>
							</g>
						</g>
						<g>
							<g>
								<path class="st2" d="M568.8,247.8h-7.9V246h6l0.2-3c0,0-2.8,1.6-5.5-0.7c-0.5-0.4-2.9-2.9-1.4-7.8c0.3-1,2-3.6,5.6-3.1
									c0.2,0,2.9,0.7,3.9,3.7l-1.7,0.4c0,0-1.3-2.7-3.1-2.5c-0.9,0.1-3.3,0.7-3.2,4.6c0,0.3,0,3.7,2.9,4.2c1,0.2,2.2,0,3.9-1.7
									l0.8,0.5L568.8,247.8z"/>
							</g>
						</g>
					</g>
				</g>
			</g>
		</g>
		<g>
			<g>
				<path class="st2" d="M490.8,137.7c0,0,1.4,4.5,4.7,6.3c0,0-3.2,1.7-4.7,6.2c-1.5-4.6-4.7-6.2-4.7-6.2
					C489.4,142.2,490.8,137.7,490.8,137.7z"/>
			</g>
			<g>
				<path class="st2" d="M564.7,227.6c0,0-1.4-4.5-4.7-6.3c0,0,3.2-1.7,4.7-6.2c1.5,4.6,4.7,6.2,4.7,6.2
					C566.1,223.1,564.7,227.6,564.7,227.6z"/>
			</g>
		</g>
	</g>
	<g id="XMLID_14_">
		<g>
			<g>
				<path id="XMLID_364_" class="st3" d="M46.8,29.2c1.3,0.1,2.6,0.5,3.6,0.9c1.1,0.4,1.9,0.8,2.1,0.9c0.3,0.2,2.2,1.1,4.3,1.7
					c1,0.3,2.1,0.5,3.1,0.7c1.3,0.2,2.5,0,3.1-0.3c0.2-0.1,0.5-0.4,0.5-0.4c0,0,0.3-0.8,0.1-1.3c0-0.1,0.2-0.6,0.2-1
					c0-0.4-0.2-0.7-0.3-1c0.5-1.4,5.6-12.4,5.6-12.4L35.8,17l4,8.8c0,0-0.4,0.5-0.2,1.2c0.1,0.3,0.4,0.8,0.7,1.1
					c0,0.5,0.1,0.7,0.2,0.9c0.1,0.2,0.2,0.4,0.4,0.4c0.4-0.2,1.4-0.4,2.7-0.4C44.7,29,45.7,29.1,46.8,29.2z"/>
				<path id="XMLID_363_" class="st3" d="M63.5,54.9c0.6-1,1.1-1.9,1.5-2.5c0.5-0.9,0.8-1.2,1.1-1.6c-1.3,0-3.4,0-5.3,0
					c-3.7,0-7.6,0-7.6,0s-0.8,2.4-3.1,4.7c-1.3,1.3-2.8,2.4-5,3.3c-0.2-1-0.2-1.2-0.3-1.6c0.7-0.2,1.4-0.4,1.8-0.6
					c0.5-0.2,0.7-0.4,0.8-0.5c-0.2-0.6-0.5-1.4-0.8-2c-0.3-1-0.6-1.8-0.6-1.8l-0.5,0.3c-0.2,0.1-0.6,0.3-1.3,0.4
					c-0.8,0.2-1.8,0.2-2.4,0.2c0.7,2.5,1.6,5.2,2.2,8.9c0.4,2.2,0.6,4.5,0.7,7.7c0.1,3.7,0.1,7.2-0.3,10.6c0.8,0,1.6,0,1.6,0
					s0.2-3.6,0.2-5.6c0-1.8,0-3.4,0-5.4c0-2.6-0.3-4.6-0.6-6.2c2.3-0.8,4.3-2.3,5.9-3.7c2.1-1.9,3.5-3.9,3.7-4.2c1.8,0,4.9,0,4.9,0
					s-0.8,1.5-1.8,4.1c-0.7,1.7-1.4,3.7-2.1,6.1c-0.2,0.8-0.7,2.6-0.7,2.6l3,4.6c0,0,0.2-4.5,1.1-7.5c0.8-2.8,1.6-5.1,2.6-7.3
					C62.6,56.6,63,55.8,63.5,54.9z"/>
				<path id="XMLID_362_" class="st3" d="M71.5,77.9c-1.1,1.6-2.4,3.5-3.2,5.2c-2.5,4.8-3.6,9.3-3.6,9.6c0,0-0.2-0.6-0.5-1.2
					c-0.3-0.7-0.6-1.7-1.1-3c-0.4-1.2-0.8-2.6-1.2-4.3c-0.6-2.8-0.9-6.2-0.9-9.6c0-2.1,0-4.1,0.3-6.2c0.2-1,0.4-2,0.7-3
					c1.4,2.3,6.3,9.8,7.7,11.5c0.8-1.1,1.6-2.2,2.5-3.1c1.3-1.4,2.4-2.4,2.4-2.4l-4.5-7l-4.6-7.2c1.4-2.4,2.8-4.5,3.9-5.9
					c1-1.3,1.9-2.2,2-2.3c-1.2,0-2.3,0-2.3,0c0,0.1-0.8,0.9-1.2,1.6c-0.4,0.6-1.7,2.3-3.1,4.9c-0.6,1-1.2,2.1-1.7,3.2
					c-0.8,1.6-1.3,3.1-1.5,3.6c-0.8,2.2-1.1,3.9-1.6,6.5c-0.3,1.8-0.4,3.9-0.5,6c0,1.8,0.2,4.1,0.4,6.1c0.5,4.2,1.7,8.4,3.5,12.5
					c0.9,2.1,1.9,4.2,3.2,6c0.7-0.5,1.4-1,1.4-1l-1.5-2.5l-1.2-2.2l5.7-2.9c0,0,0.2-1.4,1.1-3.4c0.7-1.6,1.7-3.5,3.2-5.5
					c1.3-1.8,3-3.7,5.2-5.2c0-2.4,0-7,0-7s-1.6,0.9-3.7,2.7C75,73.7,73.1,75.6,71.5,77.9z"/>
				<polygon id="XMLID_361_" class="st3" points="80.3,59.4 80.2,19.4 74.7,26 74.7,52.9 				"/>
				<path id="XMLID_360_" class="st3" d="M67.9,33c0,1.8,0.5,3.5,1.1,4.9c0.6,1.3,1.6,2.8,1.7,2.8c0.3-0.9,0.7-2,1.2-2.8
					c0.6-0.9,1.4-1.6,1.7-1.7c-0.6-0.8-1-2-1-3.3c0-1.3,0.4-2.4,0.9-2.9c-0.8-0.7-1.3-1.2-1.8-1.8c-0.6-0.9-0.8-2-1-2.8
					c0,0-1.1,1.4-1.7,2.7C68.4,29.6,67.9,31.1,67.9,33z"/>
			</g>
			<g>
				<path id="XMLID_359_" class="st2" d="M48.1,26.3c-3.8-0.7-7.3-0.5-8-0.5c-0.3,0-0.5,0.6-0.2,1.3c0.1,0.3,0.3,0.6,0.6,0.7
					c0,0-0.2,0.5-0.1,1c0.1,0.3,0.5,0.6,0.8,0.7c0.8-0.1,1.4-0.4,2.7-0.4c1.1,0,3,0.2,4.1,0.5c1.6,0.4,2.2,0.5,3.4,1
					c1.2,0.6,2.1,1.1,3,1.4c0.6,0.2,1.7,0.8,3.3,1.1c0.9,0.2,2.2,0.4,3,0.4c2.3,0,3-0.7,3-1.2c0-0.8-0.2-1.1-0.2-1.1
					s0.3-0.6,0.3-1.1c0-0.4-0.3-1-0.6-0.8c-1.2,0.3-2.8,0.5-4.1,0.4c-2.5-0.3-4.4-1.3-5.5-1.8C53.1,27.8,50.1,26.7,48.1,26.3z"/>
				<path id="XMLID_358_" class="st2" d="M50.2,48c-0.2,0.5-0.7,1.1-1.7,2c-0.8,0.8-1.9,1.6-2.8,2.2c0.3,0.6,1.4,3.9,1.4,3.9
					s1.6-0.8,3.1-2.9c0.8-1.1,1.8-2.7,2.4-4.3C52,49,51,48.6,50.2,48z"/>
				<path id="XMLID_357_" class="st2" d="M57.2,62c0.5-1.2,1-3,1.9-5c0.4-0.9,0.9-2,0.9-2l-5,0c0,0-1.3,2-3.5,4
					c-1.6,1.5-3.7,3-6.1,3.9c0.1,0.6,0.2,1.4,0.3,2.4c0.1,0.8,0.1,1.7,0.1,1.9c2.2,0,9.8,0,9.8,0S56.6,63.6,57.2,62z"/>
				<path id="XMLID_356_" class="st2" d="M75.1,65.5l-7.7-11.8c-0.1,0.1-0.5,0.7-1,1.6c-0.3,0.6-0.6,1-1.1,1.8c1,1.4,3.3,5,5.4,8.2
					c2.1,3.2,3.8,5.9,3.8,5.9s-0.9,0.8-2.3,2.4c-1.1,1.2-2.4,2.8-3.7,5c-0.9,1.5-1.8,3-2.5,4.5c-1.6,3.5-2.6,6.8-2.6,6.8l1.1,2.7
					c0,0,1.2-3.7,2.2-6.4c0.3-0.7,1.3-2.9,2.5-5.1c1-1.8,2.2-3.4,2.9-4.4c0.7-1,3.1-3.3,3.6-3.9c0.6-0.5,1.1-1,1.7-1.5
					c1.3-1,2.6-1.6,2.7-1.8c0-0.6,0-2.8,0-2.8s-2.7,1.7-2.9,2L75.1,65.5z"/>
				<path id="XMLID_355_" class="st2" d="M80.4,79.5c0,0-0.9,0.8-1.8,1.7c-1,1-2.3,2.6-3.3,4.3c-0.7,1.1-1.4,2.6-1.6,3.8
					c1.2-0.5,6.7-3.6,6.7-3.6V79.5z"/>
				<polygon id="XMLID_354_" class="st2" points="80.1,41.4 80.1,21.7 76.1,27 76.1,34.3 76.1,54.4 80.2,59.1 				"/>
			</g>
			<g>
				<g id="XMLID_1117_">
					<path id="XMLID_1223_" class="st4" d="M42.6,32.4c0.5,0.1,1.5-0.3,2.7-0.1c0.7,0.1,1.7,0.7,2.2,1c1.4,0.9,1.1,0.8,1.2,0.9
						c0.3,0.3,0.7,0.4,0.3-0.2c-0.2-0.3-0.6-0.8-1.2-1.3c-0.6-0.5-1.5-1.1-2-1.3c-0.5-0.2-1.1-0.3-1.6-0.4c-0.7,0-1.4,0-1.8,0.2
						C42,31.4,41.9,32.3,42.6,32.4z"/>
					<path id="XMLID_1222_" class="st4" d="M48.5,35.1c-0.1-0.1-1.4-1-2-1.4c-1.1-0.6-2.1-0.8-2.8-0.5c-0.4,0.1-0.7,0.5-0.1,0.5
						c0.4,0,1.3-0.2,2.5,0.2c0.6,0.2,2,1.2,2.2,1.4C48.9,35.8,49,35.4,48.5,35.1z"/>
					<path id="XMLID_1218_" class="st4" d="M48,35.7c-0.2-0.1-0.5-0.3-0.7-0.5c-0.4-0.3-0.9-0.6-1-0.7c-0.1-0.1-0.6-0.4-1-0.5
						C44.8,34,44.3,34,44,34c-0.2,0-0.4,0-0.5,0c-0.2,0-0.5-0.1-0.6-0.3c-0.3-0.3-0.6-0.2-0.4,0.2c0.1,0.4,0.5,0.8,0.4,1.4
						c-0.1,0.4,0.1,0.6,0.4,0.3c0.3-0.3,0.6-0.6,0.7,0c0.1,0.7,0,0.9-0.4,0.5c-0.3-0.3-0.4,0-0.6,0.2c-0.2,0.2,0,0.9,0.2,0.9
						c0.1,0,0.3,0.1,0.5,0.2c0.2,0.1,0.5,0.3,0.7,0.5c0.2,0.2,0.4,0.3,0.5,0.4c0.2,0.2,0.6,0,0.4-0.3c-0.1-0.1-0.5-0.4-0.8-0.7
						c-0.2-0.2-0.2-0.3,0.1-0.4c0.4,0,0.8-0.2,0.9-0.3c0.1-0.1,0.8-0.4,1.4-0.5c0.3,0,0.6,0,0.8,0.1c0.4,0.2,0.7,0,0.7-0.2
						C48.3,36.1,48.2,35.9,48,35.7L48,35.7z M45.3,35.5L45.3,35.5c0,0-0.1,0.4-0.3,0.6c-0.4,0.4-0.4-0.3-0.2-0.7
						C45.1,35,45.4,35.2,45.3,35.5L45.3,35.5z M45.8,36.1L45.8,36.1c-0.4,0.1-0.5,0-0.3-0.4c0.2-0.4,0.5-0.4,0.6-0.2
						C46.3,35.7,46.2,36,45.8,36.1z"/>
					<path id="XMLID_1217_" class="st4" d="M47.2,43c0.2-0.3,0.2-0.8,0.2-1.1c-0.1-0.5-0.5-0.9-0.9-1.1c-0.4-0.3-0.9,0.3-0.4,0.5
						c0.2,0.1,0.5,0.2,0.6,0.4c0.1,0.2,0.1,0.4,0.1,0.8c-0.1,0.2-0.2,0.5-0.4,0.5c-0.3,0.1-0.6,0-0.9-0.2c-0.5-0.3-0.7-0.6-1.2-0.9
						c-0.5-0.2-1-0.5-1.1-0.5c0.7-0.4,0.9-0.7,0.9-1.2c0-0.5-0.2-1-0.4-1.1c-0.3-0.3-0.8-0.2-0.5,0.2c0.2,0.2,0.6,0.7,0.2,1.1
						c-0.3,0.3-0.7,0.4-1.4-0.4c-0.7-0.8-1.2-0.2-1.2,0.1c0,0.3,0,0.6,0.4,0.6c0.4,0,0.7,0.3,0.9,0.5c0.2,0.2,0.6,0.2,0.6,0.2
						s-0.3,0.3-0.4,0.7c0,0.2,0,0.5,0.4,0.6c0.5,0.1,1,0.3,1.5,0.4c0.5,0.2,0.9,0.4,1.3,0.6C46,44.1,46.8,43.7,47.2,43z"/>
					<path id="XMLID_1136_" class="st4" d="M64,29.6c-0.1-0.2,0-0.7,0.5-1.8c0.4-0.8,5.1-11,5.1-11H35.2l4.3,9.2
						c0,0-0.3,0.5-0.2,1.2c0.1,0.6,0.4,0.9,0.8,1.1c-0.2,0.7,0.1,1.2,0.5,1.4c-0.2,1.1,0,2.2,0.4,3.1c0.1,0.3,0.1,1.1-0.1,2.1
						c-0.4,1.8-1.3,4.2-1.6,4.8c-0.2,0.5-0.2,1,0.1,1.4c0.2,0.3,0.8,0.4,1,0.6c0.5,0.4,0.8,0.4,0.6,1.4c-0.1,0.4,0,0.6,0.2,0.8
						c0.2,0.2,0.2,0.5,0,0.7c-0.2,0.2-0.1,0.3,0,0.9c0.1,0.2,0.1,0.9-0.2,1.5c-0.4,0.7-1.2,1.3-1.4,1.5c-0.4-0.7-0.8-1.2-1.3-1.4
						c-0.7-0.3-1.5,0-2,0.6c-0.8,0.8-0.7,2.4-0.6,2.7c0.2,0.5,0.3,0.9,1,1.6c0.3,0.3,0.7,0.7,1.2,0.9c0.9,0.5,2.1,0.5,2.4,0.5
						c0.3,0,0.7,0,1.2,0c0.3,1,2.1,6,2.6,11.3c0.5,4.9,0.7,9.6,0.2,15.6l1.5,0c0,0,0.6-7.3,0-15.5c0-0.5-0.1-1-0.1-1.6
						c0.6-0.3,2.8-1.3,4.9-3c1.2-0.9,2.1-1.9,2.8-2.8c0.6-0.8,1.3-1.5,1.8-2.1c4.3,0,4.4,0,4.4,0S58,58.9,57,62
						c-0.9,2.7-1.6,5.6-1.6,5.6l3.1,4.7c0,0,0.1-2,0.5-4.5c0.3-1.9,0.9-4.2,1.7-6.6c0.6-1.7,1.4-3.5,2.1-5c0.7-1.5,1.4-2.5,2-3.4
						c0.9-1.4,1.4-2.1,1.5-2.2l-13.2,0c-0.1,0.3-0.8,2.1-2.6,4.2c-1.2,1.4-3,2.8-5.5,3.8c-0.1-0.5-0.2-1-0.3-1.4
						c2.2-0.6,4-1.6,5.6-3.9c1.1-1.5,1.8-3,2.2-3.9c0,0,0,0,0.1,0c0.8,0,10.7,0,15.8,0c-0.5,0.7-1.7,2.3-3,4.4
						c-1.2,1.9-2.3,3.9-3.4,6.3c-1.2,2.5-2,5.6-2.4,8.8c-0.3,2.1-0.4,4.2-0.4,6.7c0,4.6,0.9,9.5,2.4,14c1.2,3.4,2.8,6.8,4.6,9.7
						l-0.8,0.6c-0.2-0.3-2.9-5.1-4.6-9.9C58,82,58.4,75.4,58.4,72.1l-0.3-0.6l-1,1.6l-1.2-1.8l-0.1,1.7c0,0.3-0.4,4.6,0,10.3
						c0.2,2.9,0.7,6.2,1.5,9.3c0.6,2.4,1.3,4.3,2.3,6.2c0,0,0.6-0.2,1.3,0.1c0.5,0.2,0.6,0.8,0.6,0.8s0.7,0.2,1.3,0.8
						c0.4,0.5,0.8,1.4,0.8,1.4l6.6-4.7c0.1,0.3,0.4,0.9,0.5,1.8c0.1,0.7,0.1,1.6,0,2.6c0,0.3-0.1,0.6,0.1,0.8
						c0.1,0.1,0.3,0.2,0.6,0.1c0.2-0.1,0.6-0.3,0.9-0.7c0.2-0.3,0.4-0.7,0.4-0.8c0-0.2,0.2-0.5,0.5,0.5c0.1,0.4,0.7,1.5,1.2,2.2
						c0.3,0.4,0.5,0.7,0.6,0.7c0.1,0.1,0.2,0.2,0.6,0.1c0.2-0.1,0.6-0.4,0.7-0.5c0.5,0.5,0.9,0.6,1.2,0.4c0.4-0.2,0.6-0.8,0.5-1.3
						c0.5-0.1,0.7-0.5,0.8-0.8c0.2-0.7,0-1.5,0-1.7c0.2-0.2,0.3-0.5,0.4-0.8c0.1-0.4,0-0.9-0.1-1.4c-0.2-0.7-2-4.9-2.5-5.8l4.1-2.9
						l0-0.6L68,97.8c-2-3.2-2-3.2-1.3-2.1c0.2,0.3-1.1-2.1-1.1-2.1l14.9-7.9l-0.2-67.2l-5.8,7.3l0,4.5c-0.2-0.1-0.4-0.2-0.7-0.4
						c-0.6-0.4-1.3-1-1.9-1.9c-0.7-1.1-1.1-3-1.3-4.1c0,0,0-0.7-0.4-0.3c-0.1,0.1-0.8,0.7-1.6,2.2c-1,1.8-1.9,4.5-1.9,7.2
						c0,2,0.6,4.5,1.5,6.3c0.8,1.6,2,2.7,2.1,2.9c0.1,0.2,0.2-0.2,0.3-0.7c0.1-0.6,0.4-1.4,0.7-2.1c0.3-0.8,0.7-1.7,1.3-2.3
						c0.7-0.7,1.2-0.9,1.5-1c0.1,0,0.3,0,0.4,0l0.1,16.1l-3-3.5l0,0l-6.2,0c0.2-0.4,0.5-1,0.6-1.8c0.2-1.2,0.1-2.8-0.8-5
						c-0.2-0.5-0.8-2.6-1.3-4.3c-0.5-1.9-0.9-2.9-1.1-3.8c-0.1-0.4,0.5-0.6,0.7-0.8c0.2-0.2,0.3-0.8,0.2-1.4c0-0.4-0.1-0.7,0.1-0.9
						C64.2,30.6,64.2,30,64,29.6L64,29.6z M59.4,29.7L59.4,29.7c-2.7-0.3-6.3-2.5-10.6-3.5c-3.3-0.8-8.6-0.8-8.6-0.8l-3.8-8.2l32,0
						c0,0-4,9.1-5.3,12.2C63.1,29.4,61,29.8,59.4,29.7L59.4,29.7z M40.2,26.9L40.2,26.9c-0.2-0.6,0-0.8,0.6-0.8
						c0.6,0,3.9-0.1,7.7,0.7c1.9,0.4,5.4,1.8,6,2c2,0.9,3.2,1.3,4.6,1.4c1.9,0.2,3.3,0,3.7-0.2c0.6-0.3,0.6,0.1,0.5,0.5
						c0,0.3-0.5,0.5-1.1,0.6c-1.3,0.2-3.5,0.2-4.5,0c-0.5-0.1-1.4-0.4-2.4-0.9c-0.9-0.4-1.8-0.8-2.7-1.2c-1.4-0.6-2.6-1-3.3-1.2
						c-1.1-0.3-2.7-0.5-4.1-0.6c-2.2-0.1-3.9,0.1-4.2,0.1C40.7,27.3,40.4,27.5,40.2,26.9L40.2,26.9z M40.8,28.7L40.8,28.7
						c-0.2-0.4,0.1-0.8,0.8-0.9c0,0,1.6-0.1,3.2,0c0.8,0,1.4,0.1,2.3,0.2c1.1,0.2,2.4,0.5,4.1,1.1c1.3,0.5,2.7,1.2,3.2,1.4
						c0.8,0.3,2.7,1.1,4.7,1.3c1.4,0.2,3-0.1,3.4-0.2c0.9-0.2,0.9,0.2,0.9,0.4c0,0.3-0.1,0.5-0.3,0.6c-0.2,0.2-0.5,0.3-1,0.4
						c-0.4,0.1-2.3,0.2-4.2-0.3c-0.9-0.2-1.9-0.5-2.7-0.8c-1.6-0.6-2.9-1.3-3.3-1.5c-0.4-0.3-2.3-1.1-4-1.3
						c-2.7-0.4-5.5-0.3-5.8-0.2c-0.3,0-0.6,0.2-0.9,0.1C41.1,29.1,40.9,28.9,40.8,28.7L40.8,28.7z M42,52.2L42,52.2
						c0.1-0.2,1.1-0.9,1.9-1.9c0.8-1.2,1.4-2.6,1.5-2.8c0.1-0.4-0.2-1-0.6,0c-0.1,0.2-0.2,0.6-0.4,1.1c-0.4,0.8-1,1.7-1.5,2.2
						c-0.6,0.6-1,1.2-1.7,1.5c-0.9,0.4-1.6,0.6-2,0.6c-1,0-1.1-0.4-0.2-0.6c1.3-0.3,2.4-1.1,3.2-2.1c1.1-1.2,1.7-2.4,1.8-2.7
						c0.2-0.5,0-0.9-0.5,0.1c-0.2,0.3-0.4,0.8-0.8,1.3c-0.6,0.8-1.3,1.6-1.6,1.8c-0.8,0.6-1.7,1.1-2.4,1.1c-1,0.1-1.5-0.3-1.5-0.3
						c-1.2-1.1-1.2-2.3-0.7-3.1c0.5-0.7,1.3-1,1.9-0.7c0.6,0.3,1,1,1,1.5c0,0.5-0.4,0.8-0.6,1c-0.3,0.3-0.4,0.1-0.3,0
						c0.3-0.3,0.2-0.8,0.2-1.1c-0.1-0.5-0.4-0.8-0.6-0.9c-0.3-0.1-0.6-0.1-0.9,0.2c-0.4,0.3-0.6,0.8-0.3,1.6c0.3,0.8,1,1.2,1.6,1.2
						c0.6,0,1.4-0.4,2-0.8c1.3-0.9,2.1-2.5,2.3-2.8c0.3-0.7-0.4-0.5-0.6,0.1c-0.1,0.2-0.3,0.6-0.6,1c-0.4,0.6-1,1.1-1.5,1.3
						c-0.5,0.2-0.5,0-0.4-0.4c0.1-0.2,0.3-0.5,0.5-0.7c0.2-0.2,1.1-1.1,1.4-1.8c0.4-0.9,0.2-1.2,0.2-1.8c0-0.5,0.2-0.7,0.9-0.7
						s1.3,0.2,1.6,0.5c0.7,0.7,0.7,0.2,0.6-0.2c-0.2-1-0.6-1-0.7-0.9c-0.1,0.1-0.4,0.2-0.7-0.1c-0.1-0.1-0.4-0.3-0.8-0.5
						c-0.3-0.1-0.6-0.1-0.9-0.2c-0.4-0.2-0.4-0.4-0.4-0.6c0-0.2,0-0.6-0.2-0.9c-0.3-0.4-0.7-0.8-1.2-1c-0.2-0.1-0.4-0.3-0.3-0.7
						c0.2-1,1.1-2.8,1.3-3.7c0.1-0.4,0.4-1.3,0.4-2c0-1.6-0.5-3.2-0.5-3.7c0-0.3,0-0.5,0.2-0.7c0.3-0.2,1-0.3,1.2-0.4
						c0.3-0.1,2-0.1,3.6,0c1.3,0.1,2.4,0.5,2.7,0.6c0.7,0.2,0.9,0.2,1,0.8c0.2,0.6,0.5,2.8,0.9,4.8c0.3,1.4,0.8,2.7,0.9,3.1
						c0.2,0.8,0.7,2,1,3.5c0.2,0.8,0.3,1.7,0.3,2.6c-0.2-0.3-0.5-0.4-0.8-0.5c-0.4-0.1-0.8,0-1.2,0.1c-0.6,0.2-1,0.7-1.1,1.5
						c-0.1,0.4,0,1,0.1,1.6c0,0.2,0,0.5-0.1,0.8c-0.1,0.3-0.4,0.5-0.9,1.1c-1.5,1.8-0.9,0.5-0.8,0.4c0.1-0.1,0.4-0.8,0.7-1.5
						c0.2-0.6,0.4-1.1,0.5-1.4c0.1-0.4,0-0.7-0.4,0c-0.2,0.4-0.5,1.4-0.9,2.2c-0.6,1.1-1.2,2.1-1.6,2.5c-0.9,1-0.6,0.1-0.4-0.3
						c0.3-0.4,0.7-1.2,1.1-2.1c0.5-1,0.9-2.1,1-2.4c0.2-0.6-0.2-0.9-0.5,0.2c-0.1,0.5-0.6,1.6-1.2,2.6c-0.8,1.4-1.7,2.8-2.1,3
						c-0.6,0.4-0.6-0.2-0.4-0.4c0.1-0.1,1-1.4,1.7-2.6c0.5-1,1-2,1-2.2c0.1-0.6-0.3-0.7-0.5,0c-0.1,0.3-0.9,2.1-1.5,3.1
						c-0.3,0.5-0.7,1.1-1.1,1.6c-0.3,0.4-0.7,0.5-1,0.7C41.6,53.2,41.7,52.5,42,52.2L42,52.2z M58.2,71L58.2,71l-2.3-3.5l2.8,0
						C58.3,69.8,58.2,71,58.2,71L58.2,71z M58.8,67L58.8,67h-2.8c0.2-0.9,0.5-1.9,0.8-2.9l2.7,0C59.1,65.1,58.9,66.1,58.8,67
						L58.8,67z M59.6,63.6L59.6,63.6h-2.7c0.1-0.4,0.2-0.7,0.3-1c0.2-0.5,0.4-1.1,0.5-1.6l2.7,0C60.1,61.9,59.8,62.8,59.6,63.6
						L59.6,63.6z M60.6,60.6L60.6,60.6h-2.8c0.3-0.9,0.6-1.7,0.9-2.4c0-0.1,0-0.1,0.1-0.2l2.8,0C61.4,58.5,61,59.5,60.6,60.6
						L60.6,60.6z M61.8,57.4L61.8,57.4l-2.7-0.1c0.6-1.3,1.1-2,1.1-2.1c0,0,1.4,0,2.7,0C62.7,55.7,62.3,56.3,61.8,57.4L61.8,57.4z
						 M65.4,51.1L65.4,51.1l-2.2,3.6l-2.6,0l1.9-3.6H65.4L65.4,51.1z M51,55L51,55c1.8-2,2.4-3.8,2.5-3.9l8.4,0L60,54.7c0,0-3,0-5,0
						c-0.1,0.1-0.9,1.3-1.8,2.4c-0.8,1-1.8,1.9-2.5,2.5c-1.3,1.1-2.5,1.9-3.5,2.4c-0.8,0.4-1.3,0.6-1.6,0.7
						c-0.1-1.2-0.3-2.4-0.5-3.5C47.8,58,49.7,56.5,51,55L51,55z M45.5,64.7L45.5,64.7c0.2,2,0.3,3.4,0.3,5.9c0,5-0.2,8.5-0.3,9.3
						c-0.2,0-0.6,0-0.8,0c0.3-3,0.3-5.1,0.3-7.6c0-2.7-0.2-5.3-0.4-7.8c-0.4-4.6-1.8-8.9-2.4-10.7c-0.1-0.2,0.1-0.5,0.5-0.6
						c0.4-0.1,0.7,0.2,0.7,0.4C44.5,56.8,45.2,60.5,45.5,64.7L45.5,64.7z M45.2,56.6L45.2,56.6c-0.3,0.1-0.5,0-0.6,0
						c-0.3-1.1-0.5-2.1-0.9-3.1c0-0.1,0.1-0.3,0.5-0.4c0.5-0.1,0.6,0.1,0.6,0.1l0.8,2.9C45.7,56.2,45.6,56.5,45.2,56.6L45.2,56.6z
						 M46.6,56L46.6,56c-0.3,0.1-0.5,0-0.5,0l-0.8-2.8c0,0-0.1-0.4,0.2-0.5c0.4-0.1,0.5,0.1,0.5,0.1l0.9,2.8
						C46.8,55.7,46.8,55.9,46.6,56L46.6,56z M50.1,53L50.1,53c-0.9,1.2-2.9,2.5-2.9,2.5l-1.1-3.2c0,0,1.1-0.8,2.2-1.8
						c0.7-0.6,1.4-1.4,1.9-2.1c0.5,0.4,0.9,0.6,1.2,0.7c0.2,0.1,0.4,0.1,0.7,0.1C51.9,50.2,51.2,51.6,50.1,53L50.1,53z M52.6,48.6
						L52.6,48.6c-0.3,0.1-0.7,0.2-1,0.1c-0.6-0.2-1.1-0.7-1.1-1c-0.5-1.3-0.1-2.1,0.4-2.6c0.5-0.4,1.1-0.4,1.4-0.3
						c0.4,0.2,0.7,0.6,0.8,1c0.1,0.3,0.1,0.7-0.1,1.1c-0.2,0.4-0.5,0.7-1,0.7c-0.7,0-0.8-0.7-0.8-1c-0.1-0.7,0.9-1.1,1.2-0.3
						c0.2,0.6,0.7,0.2,0.4-0.3c-0.1-0.3-0.4-1-1.3-0.7c-0.5,0.1-0.7,0.6-0.8,1.1c0,0.6,0.3,1.3,0.8,1.5c0.3,0.1,0.8,0.2,1.2,0
						c0.5-0.3,0.9-0.9,1-1.6c0.1-0.6,0-1.3-0.1-2.1c-0.3-1.8-0.9-3.7-1-3.9c-0.1-0.3-0.7-2.1-1.1-4c-0.6-2.4-1.1-5-1.1-5.3
						c0-0.6,0.6-0.6,0.7,0.1c0,0,0.4,1.7,0.8,3.6c0.4,1.9,0.9,3.9,1.1,4.6c0.2,0.7,0.6,2.1,0.9,3.6c0.3,1.5,0.5,3.1,0.3,3.8
						C53.8,47.6,53.2,48.4,52.6,48.6L52.6,48.6z M53.7,48.7L53.7,48.7c-0.1-0.1,0-0.4,0.3-0.7c0.5-0.5,0.6-1.5,0.6-2.5
						c0-2.1-0.7-4.5-0.8-4.9c0-0.2-0.6-1.8-1.1-3.6c-0.6-2.5-1.2-5.4-1.3-5.7c-0.1-0.5,0.4-0.5,0.6,0c0,0,0.6,2.9,1.4,5.8
						c0.6,2.5,1.4,5.1,1.6,5.7c0.4,1.8,0.4,3,0.3,3.9c-0.2,1-0.6,1.5-0.9,1.8C54,48.8,53.8,48.8,53.7,48.7L53.7,48.7z M55.5,48.6
						L55.5,48.6c-0.5,0.5-0.6,0.1-0.4-0.4c0.5-0.8,0.6-1.7,0.6-2.7c0-2-0.8-4.1-0.9-4.4c0-0.2-0.4-1.7-0.9-3.3
						c-0.6-2.4-1.4-5.3-1.4-5.7c0-0.7,0-0.7,0.3-0.7c0.2,0,0.2,0.2,0.4,0.7c0,0,0.8,3,1.5,5.9c0.6,2.3,1.1,4.5,1.3,4.8
						c0.7,2.3,0.5,3.7,0.2,4.7C56,48.1,55.7,48.4,55.5,48.6L55.5,48.6z M56.3,48.8L56.3,48.8c-0.1-0.1-0.1-0.3,0.2-0.9
						c0.4-0.8,0.5-1.8,0.4-2.7c-0.1-1.8-0.8-3.4-0.8-3.5c-0.1-0.7-0.7-2.1-1.2-4.2c-0.6-2.4-1.1-4.9-1.2-5.1
						c-0.2-0.5,0.5-0.3,0.7,0.4c0,0,0.8,3,1.5,5.9c0.7,2.5,1.3,5,1.3,5.3c0.2,1.1,0.3,1.9,0.2,2.6c-0.1,1.1-0.5,1.7-0.7,2
						C56.6,48.7,56.4,48.8,56.3,48.8L56.3,48.8z M58.5,47.8L58.5,47.8c-0.3,0.6-0.5,0.9-0.8,0.9c-0.3,0-0.2-0.4-0.1-0.5
						c0.4-0.9,0.5-1.8,0.4-2.6c-0.1-1.4-0.5-2.6-0.6-2.8c-0.1-0.2-0.5-1.9-1-3.8C55.8,36.3,55,33.4,55,33c-0.1-0.6,0-0.6,0.3-0.5
						c0.2,0.1,0.4,0,0.5,0.6c0,0,1.9,7.9,2.2,8.6c0.1,0.5,0.7,2.5,0.8,4.1C58.9,46.7,58.7,47.5,58.5,47.8L58.5,47.8z M58.9,48
						L58.9,48c0.2-0.5,0.3-1.1,0.3-1.7c0-1-0.1-1.9-0.2-2.2c0-0.2-0.5-1.9-1-3.9c-0.8-3-1.7-6.6-1.8-7c-0.1-0.5,0.7-0.3,0.8,0.4
						c0,0,0.7,2.9,1.4,5.7c0.3,1.1,0.6,2,0.9,2.8c0.3,1.2,0.5,2.2,0.7,2.9c0.1,0.3,0.1,1.3-0.1,2.2c-0.1,0.6-0.3,1-0.5,1.3
						C58.8,49.1,58.7,48.6,58.9,48L58.9,48z M59.9,48.1L59.9,48.1c0.4-0.7,0.4-1.2,0.4-1.9c0-1-0.1-1.9-0.3-2.4
						c-0.1-0.4-0.8-2.7-1.5-5.1c-0.6-2.4-1.2-4.8-1.2-5.1c0-0.6,0.6-0.4,0.7,0.1c0,0,0.8,3,1.4,5.3c0.3,1,0.5,1.9,0.7,2.3
						c0.5,1.6,0.9,3,0.9,4.1c0,1.7-0.5,2.8-0.7,3C60.1,48.9,59.6,48.9,59.9,48.1L59.9,48.1z M61.2,48L61.2,48
						c0.4-1.1,0.5-2.2,0.3-3.3c-0.2-1.6-0.8-3-0.9-3.5c-0.1-0.3-0.5-1.4-0.8-2.5c-0.6-2.1-1.1-4.6-1.1-4.8c0-0.3,0.3-0.4,0.5,0.1
						c0,0,0.4,1.8,1.1,3.9c0.4,1.3,0.9,2.7,1.3,3.9c0.4,1.5,0.6,2.7,0.7,2.9c0.2,0.8,0.2,1.5,0.1,2.2c-0.1,1-0.5,1.7-0.7,1.9
						C61.2,49.1,60.9,48.8,61.2,48L61.2,48z M62.2,48.1L62.2,48.1c0.3-0.5,0.5-1.2,0.5-1.9c0.1-1.3-0.3-2.7-0.4-3
						c-0.1-0.2-0.7-2.4-1.4-4.6c-0.6-2.1-1.2-4.3-1.3-4.5c-0.1-0.6,0.5-0.5,0.7,0c0,0,1.3,4.1,2.1,7.2c0.4,1.3,0.7,2.6,0.8,3.1
						c0.2,0.8,0.3,1.8,0.2,2.6c-0.1,0.7-0.5,1.1-0.7,1.4C62.4,49.1,61.9,48.7,62.2,48.1L62.2,48.1z M64.3,47.7L64.3,47.7
						c-0.1,0.4-0.3,0.5-0.4,0.7c-0.3,0.6-0.7,0.1-0.3-0.5c0.2-0.3,0.3-0.9,0.3-1.3c0.1-0.5,0-0.8,0-1.2c-0.1-1.3-0.6-2.4-0.6-2.6
						c0-0.2-0.6-1.8-1.2-3.7c-0.7-2.1-1.3-4.4-1.4-4.9c-0.2-0.8,0.6-0.7,0.6-0.2c0,0,0.9,3,1.7,5.7c0.6,1.9,1.1,3.7,1.2,4
						C64.6,45.3,64.6,46.9,64.3,47.7L64.3,47.7z M64.6,48.1L64.6,48.1c0.4-0.9,0.4-1.7,0.4-2.5c-0.1-1.5-0.6-2.6-0.7-3
						c-0.1-0.3-0.8-2.5-1.4-4.5c-0.6-2-1.2-3.9-1.2-4.1c0-0.6,0.6-0.5,0.7-0.1c0,0,1.2,4.3,2,7.4c0.4,1.3,0.7,2.3,0.8,2.8
						c0.2,1.1,0.4,2,0.3,2.6c-0.1,1.1-0.6,1.7-0.7,1.9C64.6,48.9,64.4,48.7,64.6,48.1L64.6,48.1z M57.1,73.9L57.1,73.9l0.8,1.3
						L57,76.5l-0.8-1.3L57.1,73.9L57.1,73.9z M57,77.3L57,77.3l0.9,1.1L57.1,80l-1-1.4L57,77.3L57,77.3z M57,80.8L57,80.8l1.2,1.1
						l-0.8,1.7l-1.1-1.3L57,80.8L57,80.8z M56.8,86L56.8,86l0.8-1.6l1.3,1.3l-0.8,1.7L56.8,86L56.8,86z M58.3,88.2L58.3,88.2
						l1.4,1.2L59,91.2l-1.4-1.1L58.3,88.2L58.3,88.2z M58.8,94.3L58.8,94.3l0.5-2.3l1.8,1.2l-0.5,2.2L58.8,94.3L58.8,94.3z
						 M62.5,99.5L62.5,99.5l-2-1.2l0.3-2.2l2.1,1.1L62.5,99.5L62.5,99.5z M63.4,101.1L63.4,101.1l-0.3-0.7l0.8,0.3L63.4,101.1
						L63.4,101.1z M67.1,91.6L67.1,91.6c-0.2-0.3-0.4-0.5-0.6,0.1c-0.1,0.5-0.2,0.8-0.6,0.8c-0.3,0-0.1-1,0.3-1.8
						c0.4-0.8,0.7-0.6,0.8-0.3C67.9,92.1,67.3,91.9,67.1,91.6L67.1,91.6z M66,89.5L66,89.5c0-0.2,0.1-0.3,0.3-0.3
						c0.2,0,0.3,0.1,0.3,0.3c0,0.2-0.1,0.3-0.3,0.3C66.1,89.8,66,89.7,66,89.5L66,89.5z M68.3,86.8L68.3,86.8c0,0,0.3,1,0.7,1.4
						c0.4,0.4,0.1,0.5-0.1,0.5c-0.3,0-0.8,0-1.5,0.4c-0.4,0.2-0.5-0.1-0.4-0.7c0.1-0.6,0.4-1.4,0.5-1.7C67.7,86,68.3,86.2,68.3,86.8
						L68.3,86.8z M67.5,85.3L67.5,85.3c0-0.2,0.1-0.3,0.3-0.3c0.2,0,0.3,0.1,0.3,0.3c0,0.2-0.1,0.3-0.3,0.3
						C67.6,85.6,67.5,85.4,67.5,85.3L67.5,85.3z M70,82.9L70,82.9c0,0,0.5,1.6,0.8,1.9c0.3,0.3,0,0.4-0.3,0.3
						c-0.9-0.3-1.5,0.1-1.7,0.1c-0.5,0.1-0.4-0.5-0.1-1.1c0.2-0.5,0.4-0.9,0.6-1.2C69.6,82.2,70,82.5,70,82.9L70,82.9z M69.4,81.5
						L69.4,81.5c0-0.2,0.1-0.3,0.3-0.3c0.2,0,0.3,0.1,0.3,0.3c0,0.2-0.1,0.3-0.3,0.3C69.5,81.8,69.4,81.7,69.4,81.5L69.4,81.5z
						 M72.1,79.5L72.1,79.5c0,0,0.4,1.5,0.5,1.9c0.2,0.4-0.1,0.4-0.3,0.3c-0.4-0.2-0.7-0.2-1.5-0.1c-0.4,0-0.4-0.4-0.2-0.9
						c0.2-0.5,0.5-1,0.8-1.3C72,78.8,72,79.2,72.1,79.5L72.1,79.5z M71.6,78.2L71.6,78.2c0-0.2,0.1-0.3,0.3-0.3
						c0.2,0,0.3,0.1,0.3,0.3c0,0.2-0.1,0.3-0.3,0.3C71.7,78.5,71.6,78.4,71.6,78.2L71.6,78.2z M74.5,76.4L74.5,76.4
						c0,0,0.2,1.5,0.5,2c0.2,0.5,0,0.5-0.4,0.3c-0.6-0.3-0.7-0.3-1.6-0.3c-0.2,0-0.3,0-0.3-0.1c-0.1-0.4,0.7-1.5,1.1-1.9
						C74.2,75.8,74.5,76,74.5,76.4L74.5,76.4z M74.3,74.9L74.3,74.9c0-0.2,0.1-0.3,0.3-0.3c0.2,0,0.3,0.1,0.3,0.3
						c0,0.2-0.1,0.3-0.3,0.3C74.4,75.2,74.3,75.1,74.3,74.9L74.3,74.9z M79.8,72.9L79.8,72.9c0.4,0.4-0.2,0.3-0.2,0.3
						s-0.5-0.3-1-0.6c-0.2-0.1-0.3-0.4-0.1-0.7c0.2-0.3,0.8-0.7,1-1c0.4-0.5,0.3,0.3,0.3,0.4c0,0,0,0.1-0.3,0.4
						C78.9,72.4,79.4,72.5,79.8,72.9L79.8,72.9z M78.5,73.2L78.5,73.2c0.7,0.3,1.5,0.9,1.2,1.1c-0.1,0.1-1,0.8-1.7,1.4
						c-0.7,0.6-0.4-1.4-0.4-1.9C77.7,73.1,78.2,73.1,78.5,73.2L78.5,73.2z M77.5,72.6L77.5,72.6c-0.2,0-0.3-0.1-0.3-0.3
						c0-0.2,0.1-0.3,0.3-0.3c0.2,0,0.3,0.1,0.3,0.3C77.8,72.4,77.6,72.6,77.5,72.6L77.5,72.6z M77.3,73.6L77.3,73.6
						c0,0-0.1,1.3-0.1,1.8c0,0.5-0.2,0.6-0.4,0.3c-0.2-0.3-0.8-0.4-1.4-0.5c-0.6-0.1,0.4-1.4,1.2-1.9C77.3,73,77.3,73.3,77.3,73.6
						L77.3,73.6z M76.1,75.8L76.1,75.8c0,0,0.6,0.4,0.9,0.6c0.2,0.3-0.7,1.2-1.1,1.6c-0.4,0.4-0.5,0-0.6-0.2
						c-0.1-0.3-0.3-0.9-0.4-1.6C74.8,75.5,75.7,75.6,76.1,75.8L76.1,75.8z M73.2,78.9L73.2,78.9c1,0,1.7,0.3,1.3,0.8
						c-0.2,0.2-0.9,0.9-1,1.4c-0.2,0.5-0.5,0-0.5,0s-0.3-0.9-0.5-1.7C72.4,78.7,73,78.9,73.2,78.9L73.2,78.9z M72.4,82.9L72.4,82.9
						c-0.2,0.2-0.6,0.7-0.8,1.3c-0.1,0.2-0.4,0.4-0.5,0.2c-0.3-0.3-0.6-1.2-0.6-1.5c-0.2-0.6,0.1-0.8,0.4-0.8c0,0,0.4,0,1,0.1
						C72.5,82.4,72.6,82.7,72.4,82.9L72.4,82.9z M70.6,86L70.6,86c-0.2,0.5-0.5,1-0.8,1.7c-0.1,0.3-0.3,0.4-0.6,0.2
						c-0.3-0.3-0.6-1.1-0.7-1.5c-0.2-0.6,0.4-0.9,0.7-0.9C70,85.4,70.9,85.4,70.6,86L70.6,86z M68.7,91.1L68.7,91.1
						c-0.2,0.5-0.5,0.4-0.7,0.4c-0.1,0-0.3-0.4-0.6-1c-0.3-0.6,0-0.9,0.2-0.9c2-0.7,1.5,0.3,1.5,0.3S68.8,90.6,68.7,91.1L68.7,91.1z
						 M71.2,90.3L71.2,90.3c0.3-1.1,0.5-1.8,1-2.9c0.7-1.6,1.6-3.1,2.5-4.4c1.6-2.4,3.2-4.3,5.5-6l0,2.7l-0.9,0.8
						c-0.9,0.8-1.8,1.7-2.9,3.2c-1.4,1.9-2.3,3.8-2.7,5.5C73.6,89,71.7,90,71.2,90.3L71.2,90.3z M80.1,85.5L80.1,85.5
						c-0.1,0.1-2.8,1.5-5.9,3.1c0.4-1.3,1.3-3,2.6-4.8c1-1.4,1.9-2.3,2.8-3.1l0.5-0.5C80.1,83.2,80.1,85.4,80.1,85.5L80.1,85.5z
						 M80.1,76.3L80.1,76.3c-0.9,0.5-3.6,3-5.8,6.3c-1.8,2.6-3,5.3-3.7,7.9c-0.5,0.3-1,0.5-1.5,0.8c1.7-5.1,5-11.9,11-16.6
						C80.1,75.2,80.1,75.7,80.1,76.3L80.1,76.3z M80.1,69.5L80.1,69.5c-0.3,0.2-1.2,0.8-2.4,1.7c-1.4,1.1-3.6,3-5.6,5.5
						c-1.7,2.1-3.3,4.7-4.7,7.5c-1.2,2.5-2.2,5-2.8,7.4c-0.3-0.5-0.5-1.1-0.7-1.7l-0.1,0.3c0.1-0.5,0.7-2.6,1.9-5.3
						c1-2.5,2.8-6.1,5.1-9.2c1.5-2.1,3.6-4.1,6.1-6c1.4-1,2.5-1.8,3.1-2.2l0.1,0C80.1,68.1,80.1,68.8,80.1,69.5L80.1,69.5z
						 M74.2,71.3L74.2,71.3c-1.5,1.3-2.7,2.7-3.8,4.1c-0.2,0.3-0.5,0.7-0.7,1l-7.5-11.5c0.8-2.7,2-5.2,3.1-7.3L74.2,71.3L74.2,71.3z
						 M65.6,57.1L65.6,57.1c0.3-0.5,0.5-1,0.8-1.4c0.3-0.6,0.7-1.1,1-1.6L77.1,69c-0.1,0.1-0.3,0.2-0.4,0.3
						c-0.7,0.6-1.4,1.1-2.1,1.7L65.6,57.1L65.6,57.1z M62.5,70L62.5,70c0.3-1.5,0.5-0.6,0.8-0.3c0,0,1.5,2.4,2.9,4.5
						c0.7,1.1,1.4,2.1,1.9,2.8c-0.8,1.1-1.6,2.6-2.3,4c-0.9,1.8-1.6,3.4-1.8,3.8c-0.2,0.3-0.3,1-0.7-0.1c-0.7-2-1-4.1-1.2-6.2
						C61.9,74.5,62.3,71,62.5,70L62.5,70z M79.7,20.6L79.7,20.6v1.4l-3.8,4.8v27.1l-0.8-1L75,26.1L79.7,20.6L79.7,20.6z M79.8,42.5
						L79.8,42.5l0,15.9l-3.4-4l0.1-27.5l3.2-4.1L79.8,42.5L79.8,42.5z M71.3,28.1L71.3,28.1c0.4,0.2,0.5,0.7,0.3,1.1
						c-0.1,0.2-0.3,0.3-0.4,0.3c-0.2,0-0.3-0.4-0.3-0.8C70.7,28.1,71.2,28,71.3,28.1L71.3,28.1z M70.6,31.6L70.6,31.6
						c-0.2-0.1-0.3-0.3-0.5-0.7c-0.1-0.3-0.1-0.4,0.1-0.5c0.2-0.2,0.6-0.2,0.6-0.2c0.3,0,0.3,0.1,0.3,0.3c-0.1,0.4-0.2,0.6-0.2,0.9
						C70.9,31.6,70.7,31.7,70.6,31.6L70.6,31.6z M70.8,32.7L70.8,32.7c0,0,0,0.6,0,1s-0.4,0.1-0.8-0.2c-0.1-0.1-0.3-0.3-0.2-0.5
						c0.1-0.2,0.5-0.4,0.6-0.5C70.8,32.3,70.8,32.7,70.8,32.7L70.8,32.7z M70.7,29.7L70.7,29.7c-0.1,0.2-0.3,0.2-0.5,0.3
						c-0.1,0-0.3,0.1-0.4,0c-0.1-0.2,0.1-0.8,0.3-1.1c0.2-0.5,0.3,0,0.4,0.1C70.7,29.3,70.8,29.5,70.7,29.7L70.7,29.7z M70.2,31.6
						L70.2,31.6c0.1,0.1,0.1,0.2,0,0.4c-0.1,0.2-0.3,0.3-0.6,0.6c-0.1,0.1-0.2,0.1-0.3,0c-0.1-0.3,0-1,0-1.2c0-0.3,0.3-0.2,0.4-0.1
						C69.7,31.2,70,31.5,70.2,31.6L70.2,31.6z M69.7,33.8L69.7,33.8c0,0,0.2,0.2,0.4,0.4c0.2,0.2,0,0.4-0.4,0.8
						c-0.3,0.3-0.4-0.5-0.4-0.9C69.3,33.6,69.6,33.7,69.7,33.8L69.7,33.8z M70.3,36.5L70.3,36.5c0.3,0.1,0.4,0.2,0.4,0.4
						c0,0.1-0.1,0.3-0.2,0.5c-0.1,0.1-0.1,0.2-0.2,0.2c-0.2,0-0.4-0.4-0.5-0.7C69.8,36.5,70,36.4,70.3,36.5L70.3,36.5z M70.3,36
						L70.3,36C70,35.9,70,35.7,70,35.5c0.1-0.3,0.4-0.6,0.5-0.7c0.4-0.4,0.5,0.1,0.5,0.1s0.1,0.5,0.2,1c0,0.1,0.1,0.3,0,0.3
						C71.1,36.4,70.5,36.2,70.3,36L70.3,36z M70.2,41.3L70.2,41.3c-0.1,0-0.3-0.2-0.6-0.6c-0.1-0.2-0.8-1.2-1.3-2.2
						c-0.7-1.4-1.2-3.3-1.1-5.2c0-1.9,0.3-3.8,0.9-5.3c0.6-1.6,1.6-2.9,1.8-3.1c0.4-0.5,0.5-0.2,0.5,0.1l0.1,0.6
						c-0.3,0.5-1,1.3-1.6,2.6c-0.6,1.3-1.1,2.9-1.1,4.8c0,3.8,2.6,7.3,2.6,7.6C70.4,40.9,70.4,41.3,70.2,41.3L70.2,41.3z M70.8,39.6
						L70.8,39.6c-0.1,0.1-0.2,0.5-0.7-0.2c-0.3-0.4-0.7-1-1-1.8c-0.5-1.3-0.9-2.9-0.9-4.6c0-1.6,0.3-3.1,0.8-4.3
						c0.5-1.2,1.1-2,1.2-2.1c0.4-0.6,0.7-0.1,0.4,0.3c-0.1,0.2-0.8,1.2-1.3,2.5c-0.4,1.1-0.5,2.4-0.5,3.7c0,1.5,0.4,3,0.8,4.1
						c0.4,1.1,0.9,1.7,0.9,1.8C70.9,39.3,70.9,39.5,70.8,39.6L70.8,39.6z M71.8,37.6L71.8,37.6c-0.1,0.2-0.4,0.4-0.7,0.5
						c-0.2,0-0.2,0-0.2-0.2c0-0.2,0.1-0.6,0.3-0.8c0.1-0.2,0.3-0.2,0.5,0C71.8,37.3,71.8,37.5,71.8,37.6L71.8,37.6z M72.8,36.4
						L72.8,36.4c-0.4,0.3-0.4,0.3-0.6,0.4c-0.1,0-0.3-0.1-0.4-0.3c-0.5-1-0.7-2.4-0.7-3.6c0.1-1.6,0.5-2.8,0.6-3.1
						c0.2-0.4,0.5-0.2,0.7,0c0.2,0.2,0.5,0.2,0.3,0.8c-0.2,0.5-0.5,1.3-0.5,2.5c0,0.7,0.1,1.3,0.2,1.7c0.2,0.6,0.4,0.9,0.4,0.9
						C73.1,36,73.1,36.3,72.8,36.4L72.8,36.4z M73.9,35.6L73.9,35.6c-0.3,0.1-0.5,0.1-0.6-0.1c-0.2-0.3-0.5-1.2-0.6-1.8
						c-0.1-1.2,0.2-2.5,0.4-2.9c0.1-0.2,0.3-0.3,0.3-0.3c0.1,0,0.3,0.1,0.4,0.1l0.8,0.4l0,4.3C74.4,35.5,74.1,35.6,73.9,35.6
						L73.9,35.6z M71.1,49.3L71.1,49.3c0.2,0,0.3,0,0.3,0c0.1,0.2,7.9,9.3,8.7,10.1c0,0.9,0,3.8,0,7.5l-0.3,0.2
						c-0.5,0.3-1.3,0.9-2.3,1.6l-9.8-15C69.3,51.2,70.7,49.7,71.1,49.3L71.1,49.3z M66.6,98.8L66.6,98.8c-1.8-2.9-3.3-6.1-4.5-9.5
						c-1.5-4.4-2.4-9.3-2.4-13.9c0-2.4,0.1-4.6,0.4-6.6c0.4-3.2,1.3-6.2,2.4-8.7c1.1-2.4,2.2-4.4,3.3-6.3c1.6-2.6,2.9-4.3,3.2-4.6
						c0.6,0,1.2,0,1.6,0c-0.9,0.9-2.8,3.3-4.5,6.2c-2.2,3.7-5,9.4-5.4,15.5c-0.1,1.1-0.1,2.2-0.1,3.3c0,5.4,0.8,10.4,2.6,15.2
						c0.1,0.2,0.1,0.4,0.2,0.6c0,0,0,0,0,0l0,0c1.6,4.2,3.7,7.3,4.2,8C67.1,98.5,66.8,98.7,66.6,98.8L66.6,98.8z M71.3,101.7
						L71.3,101.7c-0.4,0-0.2-0.5-0.2-1c0-0.5,0.5-0.2,0.5-0.1c0,0.2,0.1,0.5,0.2,0.6C71.8,101.4,71.7,101.7,71.3,101.7L71.3,101.7z
						 M77.6,96.3L77.6,96.3c0.5,1.2,0.9,2.4,1,2.7c0.4,0.9-0.2,0.8-0.4,0.7c-0.1-0.1-0.4-0.4-0.3-0.9c0.1-0.4,0.1-0.6-0.1-0.6
						c-0.2,0-0.3-0.1-0.3-0.6c0-0.2,0-0.5-0.1-0.5c-0.2,0.2-0.3,0.1-0.4-0.1c-0.1-0.5-0.4-0.6-0.5-0.4c-0.2,0.2-0.2,0.4-0.1,0.6
						c0.1,0.1,0.5,0.8,1,1.6c0.4,0.8,0.8,1.7,0.9,2c0.1,0.2,0,0.9-0.1,1.1c-0.2,0.3-0.5,0.1-0.5,0c0,0-0.2-0.5-0.4-0.9
						c-0.2-0.4-0.5-0.8-0.4-1.1c0.1-0.6,0.1-0.7-0.2-0.8c-0.1,0-0.2-0.1-0.3-0.3c-0.2-0.3-0.3-0.7-0.3-1c0-0.5-0.4-0.4-0.5-0.2
						c-0.2,0.2-0.3,0.5-0.1,0.7c0.1,0.1,0.5,0.5,0.6,0.9c0.1,0.2,0,0.5,0,0.5c-0.2,0.2-0.4,0.4,0.1,0.5c0.4,0.1,0.5,0.3,0.6,0.5
						c0.1,0.3,0,0.5-0.1,0.6c-0.2,0.2-0.2,0.4,0.1,0.5c0.2,0,0.3,0.1,0.4,0.2c0.2,0.1,0.3,0.4,0.4,0.7c0.1,0.3-0.1,0.6-0.3,0.7
						c-0.3,0.1-0.7-0.1-0.8-0.3c-0.1-0.2-0.4-0.8-0.7-1.5c-0.4-1-0.8-2.2-0.9-2.6c-0.1-0.3-0.3-0.5-0.5-0.2c-0.2,0.3-0.3,0.5,0,0.7
						c0.3,0.2,0.5,0.7,0.3,1.1c-0.2,0.5,0.1,0.3,0.3,0.5c0.2,0.2,0.4,0.3,0.7,1.4c0.1,0.4,0.1,0.7,0,0.8c-0.2,0.2-0.6,0-0.8-0.3
						c-0.1-0.2-0.6-1-1-1.9c-0.5-1-0.8-2-0.8-2.2c0-0.3,0-1,0.2-0.6c0.1,0.2,0.3,0.1,0.4-0.3c0.1-0.2,0.2-0.6,0.3-0.7
						c0.2-0.2,1.2-1.5,1.5-1.9c0.3-0.5-0.1-0.5-0.4-0.1c-0.4,0.6-0.6,0.8-0.7,0.7c-0.2-0.1,0-0.9,0-1.2c0-0.6-0.5-0.3-0.5,0.3
						c0,0.3-0.1,1-0.2,1.5c-0.2,0.5-0.5,0.7-0.6,0.7c-0.3,0.1-0.3,0.5-0.3,0.6c0,0.2-0.1,1.4-0.2,1.9c-0.3,1.1-0.5,0.4-0.5,0.2
						c0-0.3-0.5-0.7-0.6-0.8c-0.2-0.2-0.2-0.8-0.2-1.3c-0.1-0.5-0.3-1.2-0.4-1.6l5.2-3.7c0.2,0,0.3,0.2,0.4,0.3
						C76.3,93.4,77,94.8,77.6,96.3z"/>
					<path id="XMLID_1135_" class="st4" d="M64.4,80.8c0.3-0.7,2-3.7,2-3.7l-2.3-3.6c-0.3-0.3-0.7-0.9-0.7,0.3
						c0,1.2-0.3,4.7,0.2,6.4C63.8,80.7,64.1,81.6,64.4,80.8z"/>
					<path id="XMLID_1134_" class="st4" d="M76.2,74.3c-0.3,0.3-0.3,0.4,0,0.7c0.3,0.3,0.7,0.6,0.7,0c0-0.3-0.2-0.7-0.2-0.7
						C76.6,74.1,76.4,74.2,76.2,74.3z"/>
					<path id="XMLID_1133_" class="st4" d="M73.6,77.2c-0.2,0.2-0.4,0.8,0.3,0.8c0.6,0,0.6-0.1,0.4-0.8C74.2,77,73.9,76.9,73.6,77.2
						z"/>
					<path id="XMLID_1132_" class="st4" d="M71.4,81.2c0.4,0,0.9,0.1,0.5-0.9c-0.2-0.4-0.4-0.2-0.6,0.1C71.1,80.7,71,81.2,71.4,81.2
						z"/>
					<path id="XMLID_1131_" class="st4" d="M69.1,83.8c-0.1,0.4-0.3,0.6,0.2,0.6c0.5,0,1,0.1,0.4-0.9C69.7,83.3,69.3,83.2,69.1,83.8
						z"/>
					<path id="XMLID_1130_" class="st4" d="M67.9,88.4c0.4,0,0.8-0.1,0.4-0.8c-0.2-0.2-0.6-0.3-0.7,0.1
						C67.4,88.2,67.5,88.4,67.9,88.4z"/>
					<ellipse id="XMLID_1129_" class="st4" cx="78.5" cy="79.6" rx="0.5" ry="0.5"/>
					<path id="XMLID_1128_" class="st4" d="M77.7,81c0.3,0,0.5-0.2,0.5-0.5c0-0.3-0.2-0.5-0.5-0.5c-0.3,0-0.5,0.2-0.5,0.5
						C77.2,80.8,77.4,81,77.7,81z"/>
					<ellipse id="XMLID_1127_" class="st4" cx="76.9" cy="81.5" rx="0.5" ry="0.5"/>
					<ellipse id="XMLID_1126_" class="st4" cx="76.1" cy="82.5" rx="0.5" ry="0.5"/>
					<ellipse id="XMLID_1125_" class="st4" cx="75.4" cy="83.5" rx="0.5" ry="0.5"/>
					<ellipse id="XMLID_1124_" class="st4" cx="74.7" cy="84.5" rx="0.5" ry="0.5"/>
					<ellipse id="XMLID_1123_" class="st4" cx="74" cy="85.7" rx="0.5" ry="0.5"/>
					<ellipse id="XMLID_1122_" class="st4" cx="73.5" cy="86.8" rx="0.5" ry="0.5"/>
					<ellipse id="XMLID_1121_" class="st4" cx="73" cy="88" rx="0.5" ry="0.5"/>
					<path id="XMLID_1120_" class="st4" d="M72.5,88.7c-0.3,0-0.5,0.2-0.5,0.5c0,0.3,0.2,0.5,0.5,0.5c0.3,0,0.5-0.2,0.5-0.5
						C73,88.9,72.8,88.7,72.5,88.7z"/>
					<ellipse id="XMLID_1119_" class="st4" cx="79.5" cy="78.8" rx="0.5" ry="0.5"/>
					<path id="XMLID_1118_" class="st4" d="M75.6,96.3c-0.1,0.1-1.5,1.6-1.8,1.9c-0.2,0.2-0.2,0.6,0.2,0.5c0.4-0.1,1.8-2.2,1.9-2.2
						C76,96.4,76.1,95.7,75.6,96.3z"/>
				</g>
			</g>
			<g>
				<g id="XMLID_491_">
					<polygon id="XMLID_515_" class="st5" points="56.8,51.4 55.8,53 56.9,54.3 57.9,53 					"/>
					<polygon id="XMLID_514_" class="st5" points="59.5,51.5 58.4,52.9 59.3,54.3 60.4,53 					"/>
					<polygon id="XMLID_513_" class="st5" points="53.8,51.5 53.6,53.6 54.9,54.5 55.2,52.6 					"/>
					<polygon id="XMLID_512_" class="st5" points="46.3,59.3 45.8,60.8 47,61.7 47.4,60.1 					"/>
					<polygon id="XMLID_511_" class="st5" points="50.1,56.5 49.8,58.3 51.1,58.7 51.3,57 					"/>
					<polygon id="XMLID_510_" class="st5" points="48,58.2 47.8,60.1 49.1,60.5 49.3,58.7 					"/>
					<polygon id="XMLID_509_" class="st5" points="51.7,54.6 51.9,56.4 53.2,56.6 53.3,54.7 					"/>
					<polygon id="XMLID_508_" class="st5" points="62.7,51.7 61.7,53.8 63,53.8 64.2,51.7 					"/>
					<polygon id="XMLID_507_" class="st5" points="61.3,55.3 60,56.2 60.8,57.3 62.1,56.4 					"/>
					<polygon id="XMLID_506_" class="st5" points="59.9,58 58.7,59.1 59.6,60.4 60.8,59.3 					"/>
					<polygon id="XMLID_505_" class="st5" points="57.9,64.3 56.6,65.4 57.6,66.6 58.9,65.6 					"/>
					<polygon id="XMLID_504_" class="st5" points="58.8,61.2 57.5,62.4 58.4,63.4 59.7,62.5 					"/>
					<path id="XMLID_501_" class="st5" d="M69.6,66.3c-2.4-3.7-5-7.7-5-7.7s-0.6,1.1-1.2,2.4c-0.4,0.8-0.7,1.8-0.9,2.5
						c0.4,0.5,2.4,3.5,4.2,6.4c1.9,2.9,3.7,5.8,3.7,5.8s0.9-1,1.7-2c0.7-0.7,1.3-1.4,1.4-1.4C73.1,71.8,71.4,69.1,69.6,66.3
						L69.6,66.3z M72.1,73.1L72.1,73.1c-0.1,0.3-0.3,0.4-0.4,0.5c-0.3,0.4-0.4,0.3-0.4,0.2c0-0.1,0-0.4-0.1-0.7
						c-0.1-0.4-0.2-0.9-0.4-1c-0.3-0.2-0.6-0.2-0.8,0.1c-0.1,0.2-0.1,0.5,0,0.8c0.2,0.3-0.1,0.5-0.5,0.3c-0.3-0.2-0.5-0.4-0.5-1.1
						c0-0.5,0.8-0.8,1-0.8c0.2,0,0.3-0.1,0.2-0.2c-0.1-0.1-0.5-0.3-0.8-0.3c-0.2,0-1.4-0.2-2.1-0.8c-1-0.9-1.6-2.3-1.7-2.6
						c0-0.1-0.2-0.6-0.3-1.2c-0.2-1-0.3-2.4-0.5-2.8c-0.1-0.3-0.3-0.4-0.5-0.4c-0.3,0-0.7,0.3-0.7,0.8c0,0.2-0.3,0.6-0.6,0.1
						c-0.2-0.3-0.2-0.6-0.2-0.9c0.1-0.4,0.5-0.7,0.8-0.7c0.5,0,0.1-0.5-0.2-0.5c-0.4,0-0.2-0.4,0-0.7c0.2-0.4,0.4-0.3,0.6-0.2
						c0.2,0.1,0.6,0.4,1.1,0.9c0.2,0.2,0.4,0.5,0.6,0.9c0.2,0.4,0.3,1.1,0.4,1.7c0.1,0.7,0.1,1.3,0.1,1.4c0,0.6,0.2,1.3,0.4,0.5
						c0.1-0.4,0.8-0.9,1.4-0.6c0.4,0.2,0.8,0.9,0.8,1.3c0,0.7-0.5,0.6-0.5,0.4c0-0.1-0.2-0.5-0.4-0.7c-0.3-0.2-0.8-0.1-1,0.3
						c-0.1,0.4-0.1,1,0.3,1.5c0.5,0.5,1.6,1,2.3,1.2c0.8,0.2,1.4,0.9,1.8,1.7C72,72,72.2,73,72.1,73.1z"/>
					<path id="XMLID_500_" class="st5" d="M71.1,49c0,0-0.9,1-1.5,1.8c-0.6,0.8-1.5,2-1.5,2l10.1,15.7l2.1-1.5v-7.8L71.5,49H71.1z"
						/>
					<path id="XMLID_493_" class="st5" d="M66,23.3c-0.2-0.1-0.6-0.2-0.8-0.1c-0.6,0.1-1.3,0.7-1.2,1.8c-0.7-0.2-1.1,0.1-1.3,0.5
						C62.4,26,62.6,26.7,63,27c0.2,0.2,0.3,0.2,0.1,0.4c-0.1,0.1-0.5,0.4-0.9,0.5c-0.7,0-1.2-0.3-1.4-0.4c-0.4-0.2-0.3-0.4,0.1-0.3
						c0.5,0.1,0.8-0.3,1-0.8c0.1-0.6,0-1.3-0.7-1.8c0.6-1.4,0-2.3-0.7-2.5c-0.7-0.1-1.6,0.5-1.3,2c-0.7,0-1,0.1-1.2,0.4
						c-0.5,0.7-0.1,1.8,0.8,2c0.3,0.1,0.2,0.3,0.1,0.4c-0.1,0.1-0.6,0.2-1,0.2c-0.6,0-1.1-0.2-1.3-0.3c-0.3-0.2-0.9-0.6-0.4-0.8
						c0.5-0.1,0.9-0.6,0.9-1.2c0-0.5-0.2-1.1-0.8-1.4c0.8-1,0.5-2.1-0.1-2.5c-0.8-0.5-2-0.2-2,1.7c-0.8,0-1.2,0.4-1.3,0.9
						c-0.1,0.6,0.2,1.4,0.6,1.5c0.3,0.1,0.2,0.3,0,0.4c-0.1,0.1-0.6,0.2-1,0.1c-0.5-0.1-0.9-0.3-1.2-0.5c-0.5-0.3-1-0.8-0.3-0.8
						c0.5,0,0.9-0.6,0.9-1.1c0-0.4-0.2-0.9-0.9-1.3c0.7-1.1,0.2-1.9-0.4-2.1c-0.8-0.3-1.8,0-1.8,1.7c-0.4-0.2-0.9,0-1.1,0.4
						c-0.4,0.5-0.4,1.4,0.5,1.8c0.4,0.2,0.2,0.3,0,0.5c-0.2,0.2-0.7,0.4-1.3,0.3c-0.7,0-1.4-0.5-1.4-0.5c-0.4-0.2-1.1-0.7-0.3-0.6
						c0.6,0.1,1.2-0.7,1.1-1.3c-0.1-0.6-0.5-1.1-1.2-1.2c0.3-1.2-0.2-1.9-0.8-2.1c-0.8-0.2-1.7,0.4-1.4,2.1
						c-1.1,0.2-1.3,1.1-1.1,1.8c0.2,0.5,0.6,0.8,0.9,0.9c0.2,0.1,0.4,0,0.1,0.3c-0.1,0.1-0.5,0.4-1,0.4c-0.6,0.1-1.2,0-1.3-0.1
						C40,24,39.8,23.7,40,23.6c0.5-0.2,0.9-1,0.6-1.6c-0.2-0.4-0.6-0.6-1.5-0.6c-0.1-0.7-0.1-1.1-0.5-1.3c-0.5-0.3-1.2-0.1-1.2-0.1
						l2.6,5.8c0,0,2.2-0.1,5.2,0.2c2.1,0.2,4.5,0.5,6.5,1.3c3.6,1.5,5.2,2.4,7.1,2.5c2.9,0.3,4.5-0.3,4.5-0.3L66,23.3L66,23.3z
						 M40.1,24.7L40.1,24.7c-0.1-0.2,0.1-0.1,0.5,0c1.2,0.3,2.2-0.2,2.8-1.1c0.5-0.7,0.1-1.5,0-1.6c-0.2-0.4,0.1-1,0.6-0.9
						c0.5,0.1,0.5,0.6,0.3,0.8c0,0-0.2,0.5-0.1,1.1c0.1,0.4,0.3,0.9,0.9,1.3c1.3,0.9,2.5,0.6,3.2,0.3c0.9-0.4,1.3-1.2,0.9-1.9
						c-0.3-0.5,0.3-0.9,0.7-0.8c0.5,0.2,0.3,0.7,0.3,0.7s-0.4,0.8-0.2,1.5c0.1,0.4,0.4,0.9,0.8,1.3c0.3,0.3,0.6,0.5,0.9,0.7
						c0.3,0.2,0.8,0.1,1.1,0.2c0.9,0,1.8-0.6,1.8-2.1c0-0.7,0.3-0.9,0.8-0.7c0.5,0.2,0.2,0.8-0.1,1c-0.2,0.1-0.5,0.7-0.3,1.3
						c0.1,0.4,0.4,0.8,1,1.3c0.9,0.7,2.2,0.9,2.9,0.5c0.6-0.3,0.8-0.9,0.7-2.1c-0.1-0.4,0.1-0.9,0.7-0.8c0.6,0.2,0.2,0.9,0.1,0.9
						c-0.1,0.1-0.4,0.6-0.4,0.6c-0.2,1.2,0.5,1.7,1.2,1.9c0.7,0.2,1.5,0,1.6,0c0.3-0.2,0.6,0,0.4,0.2c-0.1,0.1-0.4,0.6-1.1,0.7
						c-0.7,0.1-1.6-0.2-2.6-1.3c-0.3,0.2-1.5,1-2.9,0.6c-0.8-0.2-1.5-0.9-2.2-2c-0.3,0.3-1.5,0.6-2.7,0.3c-0.9-0.2-1.8-0.8-2.4-1.9
						c-0.2,0.2-1.2,0.8-2.4,0.7c-0.9,0-2-0.4-3-1.3c-0.1,0.1-1,0.9-1.5,1c-1.2,0.3-1.7,0.4-2.1,0C40.3,25,40.2,24.9,40.1,24.7
						L40.1,24.7z M58.7,29.1L58.7,29.1c-0.8-0.1-0.2-0.6,0.8-0.8c0,0,0.4,0.2,0.8,0.6C60.8,29.4,59.5,29.3,58.7,29.1L58.7,29.1z
						 M53.8,27.4L53.8,27.4c-0.6-0.3,0.4-0.4,0.6-0.4c0,0,0.2,0.1,0.5,0.6C55.2,28.3,54.4,27.7,53.8,27.4L53.8,27.4z M48.6,25.9
						L48.6,25.9c-0.6-0.2,0.5-0.7,0.7-0.4C50,26.3,49.6,26.3,48.6,25.9L48.6,25.9z M43.5,25.3L43.5,25.3c-0.7-0.1,0.4-0.7,0.5-0.6
						C44.8,25.1,44.9,25.6,43.5,25.3z"/>
					<polygon id="XMLID_492_" class="st5" points="80.5,86.4 65.5,94.3 67.9,98.2 80.5,89.4 					"/>
				</g>
			</g>
		</g>
		<g>
			<path id="XMLID_175_" class="st3" d="M52.6,122.4c-1.3-0.1-2.6-0.5-3.6-0.9c-1.1-0.4-1.9-0.8-2.1-0.9c-0.3-0.2-2.2-1.1-4.3-1.7
				c-1-0.3-2.1-0.5-3.1-0.7c-1.3-0.2-2.5,0-3.1,0.3c-0.2,0.1-0.5,0.4-0.5,0.4c0,0-0.3,0.8-0.1,1.3c0,0.1-0.2,0.6-0.2,1
				c0,0.4,0.2,0.7,0.3,1c-0.5,1.4-5.6,12.4-5.6,12.4l33.2-0.1l-4-8.8c0,0,0.4-0.5,0.2-1.2c-0.1-0.3-0.4-0.8-0.7-1.1
				c0-0.5-0.1-0.7-0.2-0.9c-0.1-0.2-0.2-0.4-0.4-0.4c-0.4,0.2-1.4,0.4-2.7,0.4C54.7,122.6,53.7,122.5,52.6,122.4z"/>
			<path id="XMLID_174_" class="st3" d="M35.9,96.7c-0.6,1-1.1,1.9-1.5,2.5c-0.5,0.9-0.8,1.2-1.1,1.6c1.3,0,3.4,0,5.3,0
				c3.7,0,7.6,0,7.6,0s0.8-2.4,3.1-4.7c1.3-1.3,2.8-2.4,5.1-3.3c0.2,1,0.2,1.2,0.3,1.6c-0.7,0.2-1.4,0.4-1.8,0.6
				c-0.5,0.2-0.7,0.4-0.8,0.5c0.2,0.6,0.5,1.4,0.8,2c0.3,1,0.6,1.9,0.6,1.9l0.5-0.3c0.2-0.1,0.6-0.2,1.3-0.4
				c0.8-0.2,1.8-0.2,2.4-0.2c-0.7-2.5-1.6-5.2-2.2-8.9c-0.4-2.2-0.6-4.5-0.7-7.7c-0.1-3.8-0.1-7.2,0.3-10.6c-0.8,0-1.6,0-1.6,0
				S53.3,75,53.3,77c0,1.8,0,3.4,0,5.4c0,2.6,0.3,4.6,0.6,6.2c-2.3,0.8-4.3,2.3-5.9,3.7c-2.1,1.9-3.5,3.9-3.7,4.2
				c-1.8,0-4.9,0-4.9,0s0.8-1.5,1.8-4.1c0.7-1.7,1.4-3.7,2.1-6.1c0.2-0.8,0.7-2.6,0.7-2.6l-3-4.6c0,0-0.2,4.5-1.1,7.5
				c-0.8,2.8-1.6,5.1-2.6,7.3C36.9,95,36.4,95.8,35.9,96.7z"/>
			<path id="XMLID_173_" class="st3" d="M28,73.7c1.1-1.6,2.4-3.5,3.2-5.2c2.5-4.8,3.6-9.3,3.6-9.6c0,0,0.2,0.6,0.5,1.2
				c0.3,0.7,0.6,1.7,1.1,3c0.4,1.2,0.8,2.6,1.2,4.3c0.6,2.8,0.9,6.1,0.9,9.6c0,2.1,0,4.1-0.3,6.2c-0.2,1-0.4,2-0.7,3
				c-1.4-2.3-6.3-9.8-7.7-11.5c-0.8,1.1-1.6,2.2-2.5,3.1c-1.3,1.4-2.4,2.4-2.4,2.4l4.5,7l4.6,7.2c-1.4,2.4-2.8,4.5-3.9,5.9
				c-1,1.3-1.9,2.2-2,2.3c1.2,0,2.3,0,2.3,0c0-0.1,0.8-0.9,1.2-1.6c0.4-0.6,1.7-2.3,3.1-4.9c0.6-1,1.2-2.1,1.7-3.2
				c0.8-1.6,1.3-3.1,1.5-3.6c0.8-2.2,1.1-3.9,1.6-6.5c0.3-1.8,0.4-3.9,0.5-6c0-1.8-0.2-4.1-0.4-6.1c-0.5-4.2-1.7-8.4-3.5-12.5
				c-0.9-2.1-1.9-4.2-3.2-6c-0.7,0.5-1.4,1-1.4,1l1.5,2.5l1.2,2.2l-5.7,2.9c0,0-0.2,1.4-1.1,3.4c-0.7,1.6-1.7,3.5-3.2,5.5
				c-1.3,1.8-3,3.7-5.2,5.2c0,2.4,0,7,0,7s1.6-0.9,3.7-2.7C24.4,77.9,26.4,76,28,73.7z"/>
			<polygon id="XMLID_172_" class="st3" points="19.1,92.2 19.3,132.2 24.8,125.6 24.7,98.7 			"/>
			<path id="XMLID_171_" class="st3" d="M31.5,118.6c0-1.8-0.5-3.5-1.1-4.9c-0.6-1.3-1.6-2.8-1.7-2.8c-0.3,0.9-0.7,2-1.2,2.8
				c-0.6,0.9-1.4,1.6-1.7,1.7c0.6,0.8,1,2,1,3.3c0,1.3-0.4,2.4-0.9,2.9c0.8,0.7,1.3,1.2,1.8,1.8c0.6,0.9,0.8,2,1,2.8
				c0,0,1.1-1.4,1.7-2.7C31,122,31.5,120.5,31.5,118.6z"/>
		</g>
		<g>
			<path id="XMLID_170_" class="st2" d="M51.4,125.3c3.8,0.7,7.3,0.5,8,0.5c0.3,0,0.5-0.6,0.2-1.3c-0.1-0.3-0.3-0.6-0.6-0.7
				c0,0,0.2-0.5,0.1-1c-0.1-0.3-0.5-0.6-0.8-0.7c-0.8,0.1-1.4,0.4-2.7,0.4c-1.1,0-3-0.2-4.1-0.5c-1.6-0.4-2.2-0.5-3.4-1
				c-1.2-0.6-2.1-1.1-3-1.4c-0.6-0.2-1.7-0.8-3.3-1.1c-0.9-0.2-2.2-0.4-3-0.4c-2.3,0-3,0.7-3,1.2c0,0.8,0.2,1.1,0.2,1.1
				s-0.3,0.6-0.3,1.1c0,0.4,0.3,1,0.6,0.8c1.2-0.3,2.8-0.5,4.1-0.4c2.5,0.3,4.4,1.3,5.5,1.8C46.3,123.8,49.3,124.9,51.4,125.3z"/>
			<path id="XMLID_169_" class="st2" d="M49.2,103.6c0.2-0.5,0.7-1.1,1.7-2c0.8-0.8,1.9-1.6,2.8-2.2c-0.3-0.6-1.4-3.9-1.4-3.9
				s-1.6,0.8-3.1,2.9c-0.8,1.1-1.8,2.7-2.4,4.3C47.4,102.6,48.4,103,49.2,103.6z"/>
			<path id="XMLID_168_" class="st2" d="M42.2,89.6c-0.5,1.2-1,3-1.9,5c-0.4,0.9-0.9,2-0.9,2l5,0c0,0,1.3-2,3.5-4
				c1.6-1.5,3.7-3,6.1-3.9c-0.1-0.6-0.2-1.4-0.3-2.4c-0.1-0.8-0.1-1.7-0.1-1.9c-2.2,0-9.8,0-9.8,0S42.8,88,42.2,89.6z"/>
			<path id="XMLID_167_" class="st2" d="M24.3,86.1L32,97.9c0.1-0.1,0.5-0.7,1-1.6c0.3-0.5,0.6-1,1.1-1.8c-1-1.4-3.3-5-5.4-8.2
				C26.7,83,25,80.3,25,80.3s0.9-0.8,2.3-2.4c1.1-1.2,2.4-2.8,3.7-5c0.9-1.5,1.8-3,2.5-4.5c1.6-3.5,2.6-6.8,2.6-6.8l-1.1-2.7
				c0,0-1.2,3.7-2.2,6.4c-0.3,0.7-1.3,2.9-2.5,5.1c-1,1.8-2.2,3.4-2.9,4.4c-0.7,1-3.1,3.3-3.6,3.9c-0.6,0.5-1.1,1-1.7,1.5
				c-1.3,1-2.6,1.6-2.7,1.8c0,0.6,0,2.8,0,2.8s2.7-1.8,2.9-2L24.3,86.1z"/>
			<path id="XMLID_166_" class="st2" d="M19,72.1c0,0,0.9-0.8,1.8-1.7c1-1,2.3-2.6,3.3-4.3c0.7-1.1,1.4-2.6,1.6-3.8
				C24.5,63,19,66,19,66V72.1z"/>
			<polygon id="XMLID_165_" class="st2" points="19.3,110.2 19.3,129.9 23.3,124.6 23.3,117.3 23.3,97.2 19.2,92.5 			"/>
		</g>
		<g>
			<g id="XMLID_1224_">
				<path id="XMLID_1330_" class="st4" d="M56.8,119.2c-0.5-0.1-1.5,0.3-2.7,0.1c-0.7-0.1-1.7-0.7-2.2-1c-1.4-0.9-1.1-0.8-1.2-0.9
					c-0.3-0.3-0.7-0.4-0.3,0.2c0.2,0.3,0.6,0.8,1.2,1.3c0.6,0.5,1.5,1.1,2,1.3c0.5,0.2,1.1,0.3,1.6,0.4c0.7,0,1.4,0,1.8-0.2
					C57.4,120.2,57.5,119.3,56.8,119.2z"/>
				<path id="XMLID_1329_" class="st4" d="M50.9,116.5c0.1,0.1,1.4,1,2,1.4c1.1,0.6,2.1,0.8,2.8,0.5c0.4-0.1,0.7-0.5,0.1-0.5
					c-0.4,0-1.3,0.2-2.5-0.2c-0.6-0.2-2-1.2-2.2-1.4C50.5,115.8,50.4,116.2,50.9,116.5z"/>
				<path id="XMLID_1325_" class="st4" d="M51.4,115.9c0.2,0.1,0.5,0.3,0.7,0.5c0.4,0.3,0.9,0.6,1,0.7c0.1,0.1,0.6,0.4,1,0.5
					c0.5,0.1,0.9,0.1,1.2,0.1c0.2,0,0.4,0,0.5,0c0.2,0,0.5,0.1,0.6,0.3c0.3,0.3,0.6,0.2,0.4-0.2c-0.1-0.4-0.5-0.8-0.4-1.4
					c0.1-0.4-0.1-0.6-0.4-0.3c-0.3,0.3-0.6,0.6-0.7-0.1c-0.1-0.7,0-0.9,0.4-0.5c0.3,0.3,0.4,0,0.6-0.2c0.2-0.2,0-0.9-0.2-0.9
					c-0.1,0-0.3-0.1-0.5-0.2c-0.2-0.1-0.5-0.3-0.7-0.5c-0.2-0.2-0.4-0.3-0.5-0.4c-0.2-0.2-0.6,0-0.4,0.3c0.1,0.1,0.5,0.4,0.8,0.7
					c0.2,0.2,0.2,0.4-0.1,0.4c-0.4,0-0.8,0.2-0.9,0.3c-0.1,0.1-0.8,0.4-1.4,0.5c-0.3,0-0.6,0-0.8-0.1c-0.4-0.2-0.7,0-0.7,0.2
					C51.1,115.5,51.2,115.7,51.4,115.9L51.4,115.9z M54.1,116.1L54.1,116.1c0,0,0.1-0.4,0.3-0.6c0.4-0.4,0.4,0.3,0.2,0.7
					C54.4,116.6,54,116.4,54.1,116.1L54.1,116.1z M53.6,115.5L53.6,115.5c0.4-0.1,0.5,0,0.3,0.4c-0.2,0.4-0.5,0.4-0.6,0.2
					C53.1,115.9,53.2,115.6,53.6,115.5z"/>
				<path id="XMLID_1324_" class="st4" d="M52.2,108.6c-0.2,0.3-0.2,0.8-0.2,1.1c0.1,0.5,0.5,0.9,0.9,1.1c0.4,0.3,0.9-0.3,0.4-0.5
					c-0.2-0.1-0.5-0.2-0.6-0.4c-0.1-0.2-0.1-0.4-0.1-0.8c0-0.2,0.2-0.5,0.4-0.5c0.3-0.1,0.6,0,0.9,0.2c0.5,0.3,0.7,0.6,1.2,0.9
					c0.5,0.2,1,0.5,1.1,0.5c-0.7,0.4-0.9,0.7-0.9,1.2c0,0.5,0.2,1,0.4,1.1c0.3,0.3,0.8,0.2,0.5-0.2c-0.2-0.2-0.6-0.7-0.2-1.1
					c0.3-0.3,0.7-0.4,1.4,0.4c0.7,0.8,1.2,0.2,1.2-0.1c0-0.3,0-0.6-0.4-0.6c-0.4,0-0.7-0.3-0.9-0.5c-0.2-0.2-0.6-0.2-0.6-0.2
					s0.3-0.3,0.4-0.7c0-0.2,0-0.5-0.4-0.6c-0.5-0.1-1-0.2-1.5-0.4c-0.5-0.2-0.9-0.4-1.3-0.6C53.4,107.6,52.6,107.9,52.2,108.6z"/>
				<path id="XMLID_1243_" class="st4" d="M35.5,122c0.1,0.2,0,0.7-0.5,1.8c-0.4,0.8-5.1,11-5.1,11h34.3l-4.3-9.2
					c0,0,0.3-0.5,0.2-1.2c-0.1-0.6-0.4-0.9-0.8-1.1c0.2-0.7-0.1-1.2-0.5-1.4c0.2-1.1,0-2.2-0.3-3.1c-0.1-0.3-0.1-1.1,0.1-2.1
					c0.4-1.8,1.3-4.2,1.6-4.8c0.2-0.5,0.2-1-0.1-1.4c-0.2-0.3-0.8-0.4-1-0.6c-0.5-0.4-0.8-0.4-0.6-1.4c0.1-0.4,0-0.6-0.2-0.8
					c-0.2-0.2-0.2-0.5,0-0.7c0.2-0.2,0.1-0.3,0-0.9c-0.1-0.2-0.1-0.9,0.2-1.5c0.4-0.7,1.2-1.3,1.4-1.5c0.4,0.7,0.8,1.2,1.3,1.4
					c0.7,0.3,1.5,0,2-0.6c0.8-0.8,0.7-2.4,0.6-2.7c-0.2-0.5-0.3-0.9-1-1.6c-0.3-0.3-0.7-0.7-1.2-0.9c-0.9-0.5-2.1-0.5-2.4-0.5
					c-0.3,0-0.7,0-1.2,0c-0.3-1-2.1-6-2.6-11.3c-0.5-4.9-0.7-9.6-0.2-15.6l-1.5,0c0,0-0.6,7.3,0,15.5c0,0.5,0.1,1,0.1,1.6
					c-0.6,0.3-2.8,1.3-4.9,3c-1.2,0.9-2.1,1.9-2.8,2.8c-0.6,0.8-1.3,1.5-1.8,2.1c-4.3,0-4.3,0-4.3,0s1.7-3.7,2.7-6.8
					c0.9-2.7,1.6-5.6,1.6-5.6L41,79.2c0,0-0.1,2-0.5,4.5c-0.3,1.9-0.9,4.2-1.7,6.6c-0.6,1.7-1.4,3.5-2.2,5c-0.7,1.5-1.4,2.5-2,3.4
					c-0.9,1.4-1.4,2.1-1.5,2.2l13.2,0c0.1-0.3,0.8-2.1,2.6-4.2c1.2-1.4,3-2.8,5.5-3.8c0.1,0.5,0.2,1,0.3,1.4c-2.2,0.6-4,1.6-5.6,3.9
					c-1.1,1.5-1.8,3-2.2,3.9c0,0,0,0-0.1,0c-0.8,0-10.7,0-15.8,0c0.5-0.7,1.7-2.3,3-4.4c1.2-1.9,2.3-3.9,3.4-6.3
					c1.2-2.5,2-5.6,2.4-8.8c0.3-2.1,0.4-4.2,0.4-6.7c0-4.6-0.8-9.5-2.4-14c-1.2-3.4-2.8-6.8-4.6-9.7l0.8-0.6
					c0.2,0.3,2.9,5.1,4.6,9.9c2.8,7.9,2.4,14.4,2.4,17.8l0.3,0.6l1-1.6l1.2,1.8l0.1-1.7c0-0.3,0.4-4.6,0-10.3
					c-0.2-2.9-0.7-6.2-1.5-9.3c-0.6-2.4-1.3-4.3-2.3-6.2c0,0-0.6,0.2-1.3-0.1C38.1,52.6,38,52,38,52s-0.7-0.2-1.3-0.8
					c-0.4-0.5-0.8-1.4-0.8-1.4l-6.6,4.7c-0.1-0.3-0.4-0.9-0.5-1.8c-0.1-0.7-0.1-1.6,0-2.6c0-0.3,0.1-0.6-0.1-0.8
					c-0.1-0.1-0.3-0.2-0.6-0.1c-0.2,0.1-0.6,0.3-0.9,0.7c-0.2,0.3-0.4,0.7-0.4,0.8c0,0.2-0.2,0.5-0.5-0.5c-0.1-0.4-0.7-1.5-1.2-2.2
					c-0.3-0.4-0.5-0.7-0.6-0.7c-0.1-0.1-0.2-0.2-0.6-0.1c-0.2,0.1-0.6,0.4-0.7,0.5c-0.5-0.5-0.9-0.6-1.2-0.4
					c-0.4,0.2-0.6,0.8-0.5,1.3c-0.5,0.1-0.7,0.5-0.8,0.8c-0.2,0.7,0,1.5,0,1.7c-0.2,0.2-0.3,0.5-0.4,0.8c-0.1,0.4,0,0.9,0.1,1.4
					c0.2,0.7,2,4.9,2.5,5.8l-4.1,2.8l0,0.6l12.5-8.7c2,3.2,2,3.2,1.3,2.1c-0.2-0.3,1.1,2.1,1.1,2.1l-14.9,7.9l0.2,67.2l5.8-7.3
					l0-4.5c0.2,0.1,0.4,0.2,0.7,0.4c0.6,0.4,1.3,1,1.9,1.9c0.7,1.1,1.1,3,1.3,4.1c0,0,0,0.7,0.4,0.3c0.1-0.1,0.8-0.7,1.6-2.2
					c1-1.8,1.9-4.5,1.9-7.2c0-2-0.6-4.5-1.5-6.3c-0.8-1.6-2-2.7-2.1-2.9c-0.1-0.2-0.2,0.2-0.3,0.7c-0.1,0.6-0.4,1.4-0.7,2.1
					c-0.3,0.8-0.7,1.7-1.3,2.3c-0.7,0.7-1.2,0.9-1.5,1c-0.1,0-0.3,0-0.4,0l-0.1-16.1l3,3.5l0,0l6.2,0c-0.2,0.4-0.5,1-0.6,1.8
					c-0.2,1.2-0.1,2.8,0.8,5c0.2,0.5,0.8,2.6,1.3,4.3c0.5,1.9,0.9,2.9,1.1,3.8c0.1,0.4-0.5,0.6-0.7,0.8c-0.2,0.2-0.3,0.8-0.2,1.4
					c0,0.4,0.1,0.7-0.1,0.9C35.2,121,35.2,121.7,35.5,122L35.5,122z M40,121.9L40,121.9c2.7,0.3,6.3,2.5,10.6,3.5
					c3.3,0.8,8.6,0.8,8.6,0.8l3.8,8.2l-32,0c0,0,4-9.1,5.3-12.2C36.3,122.2,38.4,121.8,40,121.9L40,121.9z M59.2,124.7L59.2,124.7
					c0.2,0.6,0,0.8-0.6,0.8c-0.6,0-3.9,0.1-7.7-0.7c-1.9-0.4-5.4-1.8-6-2c-2-0.9-3.2-1.3-4.6-1.4c-1.9-0.2-3.3,0-3.7,0.2
					c-0.6,0.3-0.6-0.1-0.5-0.5c0-0.3,0.5-0.5,1.1-0.6c1.3-0.2,3.5-0.2,4.5,0c0.5,0.1,1.4,0.4,2.4,0.9c0.9,0.4,1.8,0.8,2.7,1.2
					c1.4,0.6,2.6,1,3.3,1.2c1.1,0.3,2.7,0.5,4.1,0.6c2.2,0.1,3.9-0.1,4.2-0.1C58.7,124.3,59,124.1,59.2,124.7L59.2,124.7z
					 M58.6,122.9L58.6,122.9c0.2,0.4-0.1,0.8-0.8,0.9c0,0-1.6,0.1-3.2,0c-0.8,0-1.4-0.1-2.3-0.2c-1.1-0.2-2.4-0.5-4.1-1.1
					c-1.3-0.5-2.7-1.2-3.2-1.4c-0.8-0.3-2.7-1.1-4.7-1.3c-1.4-0.2-3,0.1-3.4,0.2c-0.9,0.2-0.9-0.2-0.9-0.4c0-0.3,0.1-0.5,0.3-0.6
					c0.2-0.2,0.5-0.3,1-0.4c0.4-0.1,2.3-0.2,4.2,0.3c0.9,0.2,1.9,0.5,2.7,0.8c1.6,0.6,2.9,1.3,3.3,1.5c0.4,0.3,2.3,1.1,4,1.3
					c2.7,0.4,5.5,0.3,5.8,0.2c0.3,0,0.6-0.2,0.9-0.1C58.4,122.5,58.5,122.7,58.6,122.9L58.6,122.9z M57.4,99.4L57.4,99.4
					c-0.1,0.1-1.1,0.9-1.9,1.9c-0.8,1.2-1.4,2.6-1.5,2.8c-0.1,0.4,0.2,1,0.6,0c0.1-0.2,0.2-0.6,0.4-1.1c0.4-0.8,1-1.7,1.5-2.2
					c0.6-0.6,1-1.2,1.7-1.5c0.9-0.4,1.6-0.6,2-0.6c1,0,1.1,0.4,0.2,0.6c-1.3,0.3-2.4,1.1-3.2,2.1c-1.1,1.2-1.7,2.4-1.8,2.7
					c-0.2,0.5,0,0.9,0.5-0.1c0.2-0.3,0.4-0.8,0.8-1.3c0.6-0.8,1.3-1.6,1.6-1.8c0.8-0.6,1.7-1.1,2.4-1.1c1-0.1,1.5,0.3,1.5,0.3
					c1.2,1.1,1.2,2.3,0.7,3.1c-0.5,0.7-1.3,1-1.9,0.7c-0.6-0.3-1-1-1-1.5c0-0.5,0.4-0.8,0.6-1c0.3-0.3,0.4-0.1,0.3,0
					c-0.3,0.3-0.2,0.8-0.2,1.1c0.1,0.5,0.4,0.8,0.6,0.9c0.3,0.1,0.6,0.1,1-0.2c0.4-0.3,0.6-0.8,0.3-1.6c-0.3-0.8-1-1.2-1.6-1.2
					c-0.6,0-1.4,0.4-2,0.8c-1.2,0.9-2.1,2.5-2.3,2.8c-0.3,0.7,0.4,0.5,0.6-0.1c0.1-0.2,0.3-0.6,0.6-1c0.4-0.6,1-1.1,1.5-1.3
					c0.5-0.2,0.5,0,0.4,0.4c-0.1,0.2-0.3,0.5-0.5,0.7c-0.2,0.2-1.1,1.1-1.4,1.8c-0.4,0.9-0.2,1.2-0.2,1.8c0,0.5-0.2,0.7-0.9,0.7
					s-1.3-0.2-1.6-0.5c-0.7-0.7-0.7-0.2-0.6,0.2c0.2,1,0.6,1,0.7,0.9c0.1-0.1,0.4-0.2,0.7,0.1c0.1,0.1,0.4,0.3,0.8,0.5
					c0.3,0.1,0.6,0.1,0.9,0.2c0.4,0.2,0.4,0.4,0.4,0.6c0,0.2,0,0.6,0.2,0.9c0.3,0.4,0.7,0.8,1.2,1c0.2,0.1,0.4,0.3,0.3,0.7
					c-0.2,1-1.1,2.8-1.3,3.7c-0.1,0.4-0.4,1.3-0.4,2c0,1.6,0.5,3.2,0.5,3.7c0,0.3,0,0.5-0.2,0.7c-0.3,0.2-1,0.3-1.2,0.4
					c-0.3,0.1-2,0.1-3.6,0c-1.3-0.1-2.4-0.5-2.7-0.6c-0.7-0.2-0.9-0.2-1-0.8c-0.2-0.6-0.5-2.8-0.9-4.8c-0.3-1.4-0.8-2.7-0.9-3.1
					c-0.2-0.8-0.7-2-1-3.5c-0.2-0.8-0.3-1.7-0.3-2.6c0.2,0.3,0.5,0.4,0.8,0.5c0.4,0.1,0.8,0,1.2-0.1c0.6-0.2,1-0.7,1.1-1.5
					c0.1-0.4,0-1-0.1-1.6c0-0.2,0-0.5,0.1-0.8c0.1-0.3,0.4-0.5,0.9-1.1c1.5-1.8,0.9-0.5,0.8-0.4c-0.1,0.1-0.4,0.8-0.7,1.5
					c-0.2,0.6-0.4,1.1-0.5,1.4c-0.1,0.4,0,0.7,0.4,0c0.2-0.4,0.5-1.4,0.9-2.2c0.6-1.1,1.2-2.1,1.6-2.5c0.9-1,0.6-0.1,0.4,0.3
					c-0.3,0.4-0.7,1.2-1.1,2.1c-0.5,1-0.9,2.1-1,2.4c-0.2,0.6,0.2,0.9,0.5-0.2c0.1-0.5,0.6-1.6,1.2-2.6c0.8-1.4,1.7-2.8,2.1-3
					c0.6-0.4,0.6,0.2,0.4,0.4c-0.1,0.1-1,1.4-1.7,2.6c-0.5,1-1,2-1,2.2c-0.1,0.6,0.3,0.7,0.5,0c0.1-0.3,0.9-2.1,1.5-3.1
					c0.3-0.5,0.7-1.1,1.1-1.6c0.3-0.4,0.7-0.5,1-0.7C57.9,98.4,57.7,99.1,57.4,99.4L57.4,99.4z M41.3,80.6L41.3,80.6l2.3,3.5l-2.8,0
					C41.1,81.8,41.3,80.6,41.3,80.6L41.3,80.6z M40.6,84.6L40.6,84.6h2.8c-0.2,0.9-0.5,1.9-0.8,2.9l-2.7,0
					C40.3,86.5,40.5,85.5,40.6,84.6L40.6,84.6z M39.8,88L39.8,88h2.7c-0.1,0.3-0.2,0.7-0.3,1c-0.2,0.5-0.4,1.1-0.5,1.6l-2.7,0
					C39.3,89.7,39.6,88.8,39.8,88L39.8,88z M38.8,91L38.8,91h2.8c-0.3,0.9-0.6,1.7-0.9,2.4c0,0.1,0,0.1-0.1,0.2l-2.8,0
					C38,93.1,38.4,92.1,38.8,91L38.8,91z M37.6,94.2L37.6,94.2l2.7,0.1c-0.6,1.3-1,2.1-1.1,2.1c0,0-1.4,0-2.7,0
					C36.7,95.9,37.1,95.3,37.6,94.2L37.6,94.2z M34,100.5L34,100.5l2.2-3.6l2.6,0l-1.9,3.6H34L34,100.5z M48.4,96.6L48.4,96.6
					c-1.8,2-2.4,3.8-2.5,3.9l-8.4,0l1.8-3.6c0,0,3,0,5,0c0.1-0.1,0.9-1.3,1.8-2.4c0.8-1,1.8-1.9,2.5-2.5c1.3-1.1,2.5-1.9,3.5-2.4
					c0.8-0.4,1.3-0.6,1.6-0.7c0.1,1.2,0.3,2.4,0.5,3.5C51.6,93.6,49.7,95.1,48.4,96.6L48.4,96.6z M53.9,86.9L53.9,86.9
					c-0.1-2-0.3-3.4-0.3-5.9c0-5,0.2-8.5,0.3-9.3c0.2,0,0.6,0,0.8,0c-0.3,3-0.3,5.1-0.3,7.6c0,2.7,0.2,5.3,0.4,7.8
					c0.4,4.6,1.8,8.9,2.4,10.7c0.1,0.2-0.1,0.5-0.5,0.6C56.3,98.5,56,98.2,56,98C54.9,94.8,54.2,91.1,53.9,86.9L53.9,86.9z M54.2,95
					L54.2,95c0.3-0.1,0.5,0,0.6,0c0.3,1.1,0.5,2.1,0.9,3.1c0,0.1-0.1,0.3-0.5,0.4c-0.5,0.1-0.6-0.1-0.6-0.1l-0.8-2.9
					C53.8,95.4,53.8,95.1,54.2,95L54.2,95z M52.9,95.6L52.9,95.6c0.3-0.1,0.5,0,0.5,0l0.8,2.8c0,0,0.1,0.4-0.2,0.5
					c-0.4,0.1-0.5-0.2-0.5-0.2L52.6,96C52.6,96,52.6,95.7,52.9,95.6L52.9,95.6z M49.3,98.6L49.3,98.6c0.9-1.2,2.9-2.5,2.9-2.5
					l1.1,3.2c0,0-1.1,0.8-2.2,1.8c-0.7,0.6-1.4,1.4-1.9,2.1c-0.5-0.4-0.9-0.6-1.2-0.7c-0.2-0.1-0.4-0.1-0.7-0.1
					C47.5,101.4,48.2,100,49.3,98.6L49.3,98.6z M46.8,103L46.8,103c0.3-0.1,0.7-0.2,1-0.1c0.6,0.2,1.1,0.7,1.1,1
					c0.5,1.3,0.1,2.1-0.4,2.6c-0.5,0.4-1.1,0.4-1.4,0.3c-0.4-0.2-0.7-0.6-0.8-1c-0.1-0.3-0.1-0.7,0.1-1.1c0.2-0.4,0.5-0.7,1-0.7
					c0.7,0,0.8,0.7,0.8,1c0.1,0.7-0.9,1.1-1.2,0.3c-0.2-0.6-0.7-0.2-0.4,0.3c0.1,0.3,0.4,1,1.3,0.7c0.5-0.1,0.7-0.6,0.8-1.1
					c0-0.6-0.3-1.3-0.8-1.5c-0.3-0.1-0.8-0.2-1.2,0c-0.5,0.3-0.9,0.9-1,1.6c-0.1,0.6,0,1.3,0.1,2.1c0.3,1.8,0.9,3.7,1,3.9
					c0.1,0.3,0.7,2.1,1.1,4c0.6,2.4,1.1,5,1.1,5.3c0,0.6-0.6,0.6-0.7-0.1c0,0-0.4-1.7-0.8-3.6c-0.4-1.9-0.9-3.9-1.1-4.6
					c-0.2-0.7-0.6-2.1-0.9-3.6c-0.3-1.5-0.5-3.1-0.3-3.8C45.6,104,46.2,103.2,46.8,103L46.8,103z M45.7,102.9L45.7,102.9
					c0.1,0.1,0,0.4-0.3,0.7c-0.5,0.5-0.6,1.5-0.6,2.5c0,2.1,0.7,4.5,0.8,4.9c0,0.2,0.6,1.8,1.1,3.6c0.6,2.5,1.2,5.4,1.3,5.7
					c0.1,0.5-0.4,0.5-0.6,0c0,0-0.6-2.9-1.4-5.8c-0.6-2.5-1.4-5.1-1.6-5.7c-0.4-1.8-0.4-3-0.3-3.9c0.2-1,0.6-1.5,0.9-1.8
					C45.4,102.8,45.6,102.8,45.7,102.9L45.7,102.9z M43.9,103L43.9,103c0.5-0.5,0.6-0.1,0.4,0.4c-0.5,0.8-0.6,1.7-0.6,2.7
					c0,2,0.8,4.1,0.9,4.4c0,0.2,0.4,1.7,0.9,3.3c0.6,2.4,1.4,5.3,1.4,5.7c0,0.7,0,0.7-0.3,0.7c-0.2,0-0.2-0.2-0.4-0.7
					c0,0-0.8-3-1.5-5.9c-0.6-2.3-1.1-4.5-1.3-4.8c-0.7-2.3-0.5-3.7-0.2-4.7C43.4,103.5,43.7,103.2,43.9,103L43.9,103z M43.1,102.8
					L43.1,102.8c0.1,0.1,0.1,0.3-0.2,0.9c-0.4,0.8-0.5,1.8-0.4,2.7c0.1,1.8,0.8,3.4,0.8,3.6c0.1,0.7,0.7,2.1,1.2,4.2
					c0.6,2.4,1.1,4.9,1.2,5.1c0.2,0.5-0.5,0.3-0.7-0.4c0,0-0.8-3-1.5-5.9c-0.7-2.5-1.3-5-1.3-5.3c-0.2-1.1-0.3-1.9-0.2-2.6
					c0.1-1.1,0.5-1.7,0.7-2C42.8,102.9,43,102.8,43.1,102.8L43.1,102.8z M40.9,103.8L40.9,103.8c0.3-0.6,0.5-0.9,0.8-0.9
					c0.3,0,0.2,0.4,0.1,0.5c-0.4,0.9-0.5,1.8-0.4,2.6c0.1,1.4,0.5,2.6,0.6,2.8c0.1,0.2,0.5,1.9,1,3.8c0.7,2.6,1.4,5.5,1.5,5.8
					c0.1,0.6,0,0.6-0.3,0.5c-0.2-0.1-0.4,0-0.5-0.6c0,0-1.9-7.9-2.2-8.6c-0.1-0.5-0.7-2.5-0.8-4.1C40.6,104.9,40.8,104.1,40.9,103.8
					L40.9,103.8z M40.5,103.6L40.5,103.6c-0.2,0.5-0.3,1.1-0.3,1.7c0,1,0.1,1.9,0.2,2.2c0,0.2,0.5,1.9,1,3.9c0.8,3,1.7,6.6,1.8,7
					c0.1,0.5-0.7,0.3-0.8-0.4c0,0-0.7-2.9-1.4-5.7c-0.3-1.1-0.6-2-0.9-2.8c-0.3-1.2-0.5-2.2-0.7-2.9c-0.1-0.3-0.1-1.3,0.1-2.2
					c0.1-0.6,0.4-1,0.5-1.3C40.6,102.5,40.7,103,40.5,103.6L40.5,103.6z M39.5,103.5L39.5,103.5c-0.4,0.7-0.4,1.2-0.4,1.9
					c0,1,0.1,1.9,0.3,2.4c0.1,0.4,0.8,2.7,1.5,5.1c0.6,2.4,1.2,4.8,1.2,5.1c0,0.6-0.6,0.4-0.7-0.1c0,0-0.8-3-1.4-5.3
					c-0.3-1-0.5-1.9-0.7-2.3c-0.5-1.6-0.9-3-0.9-4.1c0-1.7,0.5-2.8,0.7-3C39.3,102.7,39.8,102.7,39.5,103.5L39.5,103.5z M38.2,103.6
					L38.2,103.6c-0.4,1.1-0.5,2.2-0.3,3.3c0.2,1.6,0.8,3,0.9,3.5c0.1,0.3,0.5,1.4,0.8,2.5c0.6,2.1,1.1,4.6,1.1,4.8
					c0,0.3-0.3,0.4-0.5-0.1c0,0-0.4-1.8-1.1-3.9c-0.4-1.3-0.9-2.7-1.3-3.9c-0.4-1.5-0.6-2.7-0.7-2.9c-0.2-0.8-0.2-1.5-0.1-2.2
					c0.1-1,0.5-1.7,0.7-1.9C38.3,102.5,38.5,102.8,38.2,103.6L38.2,103.6z M37.2,103.5L37.2,103.5c-0.3,0.5-0.5,1.2-0.5,1.9
					c-0.1,1.3,0.3,2.7,0.4,3c0.1,0.2,0.7,2.4,1.4,4.6c0.6,2.1,1.2,4.3,1.3,4.5c0.1,0.6-0.5,0.5-0.7,0c0,0-1.3-4.1-2.1-7.2
					c-0.4-1.3-0.7-2.6-0.8-3.1c-0.2-0.8-0.3-1.8-0.2-2.6c0.1-0.7,0.5-1.1,0.7-1.4C37.1,102.5,37.5,102.9,37.2,103.5L37.2,103.5z
					 M35.1,103.9L35.1,103.9c0.1-0.4,0.3-0.5,0.4-0.7c0.3-0.6,0.7-0.1,0.3,0.5c-0.2,0.3-0.3,0.9-0.3,1.3c-0.1,0.5,0,0.8,0,1.2
					c0.1,1.3,0.6,2.4,0.6,2.6c0,0.2,0.6,1.8,1.2,3.7c0.7,2.1,1.3,4.4,1.4,4.9c0.2,0.8-0.6,0.7-0.6,0.2c0,0-0.9-3-1.7-5.7
					c-0.6-1.9-1.1-3.7-1.2-4C34.8,106.3,34.8,104.7,35.1,103.9L35.1,103.9z M34.8,103.5L34.8,103.5c-0.4,0.9-0.4,1.7-0.4,2.5
					c0.1,1.5,0.6,2.6,0.7,3c0.1,0.3,0.8,2.5,1.4,4.5c0.6,2,1.2,3.9,1.2,4.1c0,0.6-0.6,0.5-0.7,0.1c0,0-1.2-4.3-2-7.4
					c-0.4-1.3-0.7-2.3-0.8-2.8c-0.2-1.1-0.4-2-0.3-2.7c0.1-1.1,0.6-1.7,0.7-1.9C34.8,102.7,35,102.9,34.8,103.5L34.8,103.5z
					 M42.3,77.7L42.3,77.7l-0.8-1.3l0.9-1.3l0.8,1.3L42.3,77.7L42.3,77.7z M42.4,74.3L42.4,74.3l-0.9-1.1l0.8-1.5l1,1.4L42.4,74.3
					L42.4,74.3z M42.4,70.8L42.4,70.8l-1.2-1.1l0.8-1.7l1.1,1.3L42.4,70.8L42.4,70.8z M42.6,65.6L42.6,65.6l-0.8,1.6l-1.3-1.3
					l0.8-1.7L42.6,65.6L42.6,65.6z M41.1,63.4L41.1,63.4l-1.4-1.2l0.7-1.9l1.4,1.1L41.1,63.4L41.1,63.4z M40.6,57.3L40.6,57.3
					l-0.5,2.3l-1.8-1.2l0.5-2.2L40.6,57.3L40.6,57.3z M36.9,52.1L36.9,52.1l2,1.2l-0.3,2.2l-2.1-1.1L36.9,52.1L36.9,52.1z M36,50.5
					L36,50.5l0.3,0.7L35.5,51L36,50.5L36,50.5z M32.4,60L32.4,60c0.2,0.3,0.4,0.5,0.6-0.1c0.1-0.5,0.2-0.8,0.6-0.8
					c0.3,0,0.1,1-0.3,1.7c-0.4,0.8-0.7,0.6-0.8,0.3C31.5,59.5,32.1,59.7,32.4,60L32.4,60z M33.4,62.1L33.4,62.1
					c0,0.2-0.1,0.3-0.3,0.3c-0.2,0-0.3-0.1-0.3-0.3c0-0.2,0.1-0.3,0.3-0.3C33.3,61.8,33.4,61.9,33.4,62.1L33.4,62.1z M31.1,64.8
					L31.1,64.8c0,0-0.3-1-0.7-1.4c-0.4-0.4-0.1-0.5,0.1-0.5c0.3,0,0.8,0,1.5-0.4c0.4-0.2,0.5,0.1,0.4,0.7c-0.1,0.6-0.4,1.4-0.5,1.7
					C31.7,65.6,31.1,65.4,31.1,64.8L31.1,64.8z M31.9,66.3L31.9,66.3c0,0.2-0.1,0.3-0.3,0.3c-0.2,0-0.3-0.1-0.3-0.3
					c0-0.2,0.1-0.3,0.3-0.3C31.8,66,31.9,66.2,31.9,66.3L31.9,66.3z M29.4,68.7L29.4,68.7c0,0-0.5-1.6-0.8-1.9
					c-0.3-0.3,0-0.4,0.3-0.3c0.9,0.3,1.5-0.1,1.7-0.1c0.5-0.1,0.4,0.5,0.1,1.1c-0.2,0.5-0.4,0.9-0.6,1.2
					C29.8,69.4,29.4,69.1,29.4,68.7L29.4,68.7z M30,70.1L30,70.1c0,0.2-0.1,0.3-0.3,0.3c-0.2,0-0.3-0.1-0.3-0.3
					c0-0.2,0.1-0.3,0.3-0.3C29.9,69.8,30,69.9,30,70.1L30,70.1z M27.3,72.1L27.3,72.1c0,0-0.4-1.5-0.5-1.9c-0.2-0.4,0.1-0.4,0.3-0.3
					c0.4,0.2,0.7,0.2,1.5,0.1c0.4,0,0.4,0.4,0.2,0.9c-0.2,0.5-0.5,1-0.8,1.3C27.4,72.8,27.4,72.4,27.3,72.1L27.3,72.1z M27.8,73.4
					L27.8,73.4c0,0.2-0.1,0.3-0.3,0.3c-0.2,0-0.3-0.1-0.3-0.3c0-0.2,0.1-0.3,0.3-0.3C27.7,73.1,27.8,73.2,27.8,73.4L27.8,73.4z
					 M24.9,75.2L24.9,75.2c0,0-0.2-1.5-0.5-2c-0.2-0.5,0-0.5,0.4-0.3c0.6,0.3,0.7,0.3,1.6,0.3c0.2,0,0.3,0,0.3,0.1
					c0.1,0.4-0.7,1.5-1.1,1.9C25.2,75.8,24.9,75.6,24.9,75.2L24.9,75.2z M25.1,76.7L25.1,76.7c0,0.2-0.1,0.3-0.3,0.3
					c-0.2,0-0.3-0.1-0.3-0.3c0-0.2,0.1-0.3,0.3-0.3C25,76.4,25.1,76.5,25.1,76.7L25.1,76.7z M19.6,78.7L19.6,78.7
					c-0.4-0.4,0.2-0.3,0.2-0.3c0.1,0,0.5,0.3,1,0.6c0.2,0.1,0.3,0.4,0.1,0.7c-0.2,0.3-0.8,0.7-1,1c-0.4,0.5-0.3-0.3-0.3-0.4
					c0,0,0-0.1,0.3-0.4C20.5,79.2,20,79.1,19.6,78.7L19.6,78.7z M20.9,78.4L20.9,78.4c-0.7-0.3-1.5-0.9-1.2-1.1
					c0.1-0.1,1-0.8,1.7-1.4c0.7-0.6,0.4,1.4,0.4,1.9C21.8,78.5,21.3,78.6,20.9,78.4L20.9,78.4z M21.9,79L21.9,79
					c0.2,0,0.3,0.1,0.3,0.3c0,0.2-0.1,0.3-0.3,0.3c-0.2,0-0.3-0.1-0.3-0.3C21.7,79.2,21.8,79,21.9,79L21.9,79z M22.1,78L22.1,78
					c0,0,0.1-1.3,0.1-1.8c0-0.5,0.2-0.6,0.4-0.3c0.2,0.3,0.8,0.4,1.4,0.5c0.6,0.1-0.4,1.4-1.2,1.9C22.1,78.6,22.1,78.3,22.1,78
					L22.1,78z M23.3,75.8L23.3,75.8c0,0-0.6-0.4-0.9-0.6c-0.2-0.3,0.7-1.2,1.1-1.6c0.4-0.4,0.5,0,0.6,0.2c0.1,0.3,0.3,0.9,0.4,1.6
					C24.6,76.1,23.7,76,23.3,75.8L23.3,75.8z M26.2,72.7L26.2,72.7c-1,0-1.7-0.3-1.3-0.8c0.2-0.2,0.9-0.9,1-1.4c0.2-0.5,0.5,0,0.5,0
					s0.3,0.9,0.5,1.7C27,72.9,26.4,72.7,26.2,72.7L26.2,72.7z M27,68.7L27,68.7c0.2-0.2,0.6-0.7,0.8-1.3c0.1-0.2,0.4-0.4,0.5-0.2
					c0.3,0.3,0.6,1.2,0.6,1.5c0.2,0.6-0.1,0.8-0.4,0.8c0,0-0.4,0-1-0.1C26.9,69.2,26.8,68.9,27,68.7L27,68.7z M28.8,65.6L28.8,65.6
					c0.2-0.5,0.5-1,0.8-1.7c0.1-0.3,0.3-0.4,0.6-0.2c0.3,0.3,0.6,1.1,0.7,1.5c0.2,0.6-0.4,0.9-0.7,0.9
					C29.4,66.2,28.5,66.2,28.8,65.6L28.8,65.6z M30.8,60.5L30.8,60.5c0.2-0.5,0.5-0.4,0.7-0.4c0.1,0,0.3,0.4,0.6,1
					c0.3,0.6,0,0.9-0.2,0.9c-2,0.7-1.5-0.3-1.5-0.3S30.6,61,30.8,60.5L30.8,60.5z M28.2,61.3L28.2,61.3c-0.3,1.1-0.5,1.8-1,2.9
					c-0.7,1.6-1.6,3.1-2.5,4.4c-1.6,2.4-3.2,4.3-5.5,6l0-2.7l0.9-0.8c0.9-0.8,1.8-1.7,2.9-3.2c1.4-1.9,2.3-3.8,2.7-5.5
					C25.8,62.6,27.7,61.6,28.2,61.3L28.2,61.3z M19.3,66.1L19.3,66.1c0.1-0.1,2.8-1.5,5.9-3.1c-0.4,1.3-1.3,3-2.6,4.8
					c-1,1.4-1.9,2.3-2.8,3.1l-0.5,0.5C19.3,68.4,19.3,66.2,19.3,66.1L19.3,66.1z M19.3,75.3L19.3,75.3c0.9-0.5,3.6-3,5.8-6.3
					c1.8-2.6,3-5.3,3.7-7.9c0.5-0.3,1-0.5,1.5-0.8c-1.7,5.1-5,11.9-11,16.6C19.3,76.4,19.3,75.9,19.3,75.3L19.3,75.3z M19.3,82.1
					L19.3,82.1c0.3-0.2,1.2-0.8,2.4-1.7c1.4-1.1,3.6-3,5.6-5.5c1.7-2.1,3.3-4.7,4.7-7.5c1.2-2.5,2.2-5,2.8-7.4
					c0.3,0.5,0.5,1.1,0.7,1.7l0.1-0.3c-0.1,0.5-0.7,2.6-1.9,5.3c-1,2.5-2.8,6.1-5.1,9.2c-1.5,2-3.6,4.1-6.1,6
					c-1.4,1-2.5,1.8-3.1,2.2l-0.1,0C19.3,83.5,19.3,82.8,19.3,82.1L19.3,82.1z M25.2,80.3L25.2,80.3c1.5-1.3,2.7-2.7,3.8-4.1
					c0.2-0.3,0.5-0.7,0.7-1l7.5,11.5c-0.8,2.7-2,5.2-3.1,7.3L25.2,80.3L25.2,80.3z M33.8,94.5L33.8,94.5c-0.3,0.5-0.5,1-0.8,1.4
					c-0.3,0.6-0.7,1.1-1,1.6l-9.7-14.8c0.1-0.1,0.3-0.2,0.4-0.3c0.7-0.6,1.4-1.1,2.1-1.7L33.8,94.5L33.8,94.5z M36.9,81.6L36.9,81.6
					c-0.3,1.5-0.5,0.6-0.8,0.3c0,0-1.5-2.4-2.9-4.5c-0.7-1.1-1.4-2.1-1.9-2.8c0.8-1.1,1.6-2.6,2.3-4c0.9-1.8,1.6-3.4,1.8-3.8
					c0.2-0.3,0.3-1,0.7,0.1c0.7,2,1,4.1,1.2,6.2C37.5,77.1,37.1,80.6,36.9,81.6L36.9,81.6z M19.7,131L19.7,131v-1.4l3.8-4.8V97.8
					l0.8,1l0.1,26.8L19.7,131L19.7,131z M19.6,109.1L19.6,109.1l0-15.9l3.4,4l-0.1,27.5l-3.2,4.1L19.6,109.1L19.6,109.1z
					 M28.1,123.5L28.1,123.5c-0.4-0.2-0.5-0.7-0.3-1.1c0.1-0.2,0.3-0.3,0.4-0.3c0.2,0,0.3,0.4,0.3,0.8
					C28.7,123.5,28.2,123.6,28.1,123.5L28.1,123.5z M28.8,120L28.8,120c0.2,0.1,0.3,0.3,0.5,0.7c0.1,0.3,0.1,0.4-0.1,0.5
					c-0.2,0.2-0.6,0.2-0.6,0.2c-0.3,0-0.3-0.1-0.3-0.3c0.1-0.4,0.2-0.6,0.2-0.9C28.5,120,28.7,119.9,28.8,120L28.8,120z M28.6,118.9
					L28.6,118.9c0,0,0-0.6,0-1c0-0.4,0.4-0.1,0.8,0.2c0.1,0.1,0.3,0.3,0.2,0.5c-0.1,0.2-0.5,0.4-0.6,0.5
					C28.6,119.3,28.6,118.9,28.6,118.9L28.6,118.9z M28.7,121.9L28.7,121.9c0.1-0.2,0.3-0.2,0.5-0.3c0.1,0,0.3-0.1,0.4,0
					c0.1,0.2-0.1,0.8-0.3,1.1c-0.2,0.5-0.3,0-0.4-0.1C28.7,122.3,28.7,122.1,28.7,121.9L28.7,121.9z M29.3,120L29.3,120
					c-0.1-0.1-0.1-0.2,0-0.4c0.1-0.2,0.3-0.3,0.6-0.6c0.1-0.1,0.2-0.1,0.3,0c0.1,0.3,0,1,0,1.2c0,0.3-0.3,0.2-0.4,0.1
					C29.7,120.4,29.4,120.1,29.3,120L29.3,120z M29.7,117.8L29.7,117.8c0,0-0.2-0.2-0.4-0.4c-0.2-0.2,0-0.4,0.4-0.8
					c0.3-0.3,0.4,0.5,0.4,0.9C30.1,118,29.9,117.9,29.7,117.8L29.7,117.8z M29.1,115.1L29.1,115.1c-0.3-0.1-0.4-0.2-0.4-0.4
					c0-0.1,0.1-0.3,0.2-0.5c0.1-0.1,0.1-0.2,0.2-0.2c0.2,0,0.4,0.4,0.5,0.7C29.6,115.1,29.4,115.2,29.1,115.1L29.1,115.1z
					 M29.2,115.6L29.2,115.6c0.2,0.1,0.3,0.3,0.2,0.5c-0.1,0.3-0.4,0.6-0.5,0.7c-0.4,0.4-0.5-0.1-0.5-0.1s-0.1-0.5-0.2-1
					c0-0.1-0.1-0.3,0-0.3C28.3,115.2,28.9,115.4,29.2,115.6L29.2,115.6z M29.2,110.3L29.2,110.3c0.1,0,0.3,0.2,0.6,0.6
					c0.1,0.2,0.8,1.2,1.3,2.2c0.7,1.4,1.2,3.3,1.1,5.2c0,1.9-0.3,3.8-0.9,5.3c-0.6,1.6-1.6,2.9-1.8,3.1c-0.4,0.5-0.5,0.2-0.5-0.1
					L29,126c0.3-0.5,1-1.3,1.6-2.6c0.6-1.3,1.1-2.9,1.1-4.8c0-3.8-2.6-7.3-2.6-7.6C29,110.7,29.1,110.3,29.2,110.3L29.2,110.3z
					 M28.6,112L28.6,112c0.1-0.1,0.2-0.5,0.7,0.2c0.3,0.4,0.7,1,1,1.8c0.5,1.3,0.9,2.9,0.9,4.6c0,1.6-0.3,3.1-0.8,4.3
					c-0.5,1.2-1.1,2-1.2,2.1c-0.4,0.6-0.7,0.1-0.4-0.3c0.1-0.2,0.8-1.2,1.3-2.5c0.4-1.1,0.5-2.4,0.5-3.7c0-1.5-0.4-3-0.8-4.1
					c-0.4-1.1-0.9-1.7-0.9-1.8C28.5,112.3,28.5,112.1,28.6,112L28.6,112z M27.6,114L27.6,114c0.1-0.2,0.4-0.4,0.7-0.5
					c0.2,0,0.2,0,0.2,0.2c0,0.2-0.1,0.6-0.3,0.8c-0.1,0.2-0.3,0.2-0.5,0C27.6,114.3,27.6,114.1,27.6,114L27.6,114z M26.6,115.2
					L26.6,115.2c0.4-0.3,0.4-0.3,0.6-0.4c0.1,0,0.3,0.1,0.4,0.3c0.5,1,0.7,2.4,0.7,3.6c-0.1,1.6-0.5,2.8-0.6,3.1
					c-0.2,0.4-0.5,0.2-0.7,0c-0.2-0.2-0.5-0.2-0.3-0.8c0.2-0.5,0.5-1.3,0.5-2.5c0-0.7-0.1-1.3-0.2-1.7c-0.2-0.6-0.4-0.9-0.4-0.9
					C26.3,115.6,26.3,115.3,26.6,115.2L26.6,115.2z M25.5,116L25.5,116c0.3-0.1,0.5-0.1,0.6,0.1c0.2,0.3,0.5,1.2,0.6,1.8
					c0.1,1.2-0.2,2.5-0.4,2.9c-0.1,0.2-0.3,0.3-0.3,0.3c-0.1,0-0.3-0.1-0.4-0.1l-0.8-0.4l0-4.3C25,116.1,25.3,116,25.5,116L25.5,116
					z M28.3,102.3L28.3,102.3c-0.2,0-0.3,0-0.3,0c-0.1-0.2-7.9-9.3-8.7-10.1c0-0.9,0-3.8,0-7.5l0.3-0.2c0.5-0.3,1.3-0.9,2.3-1.6
					l9.8,15C30.1,100.4,28.7,101.9,28.3,102.3L28.3,102.3z M32.8,52.8L32.8,52.8c1.8,2.9,3.3,6.1,4.5,9.5c1.5,4.4,2.4,9.3,2.4,13.9
					c0,2.4-0.1,4.6-0.4,6.6c-0.4,3.2-1.3,6.2-2.4,8.7c-1.1,2.4-2.2,4.4-3.3,6.3c-1.6,2.6-2.9,4.3-3.2,4.6c-0.6,0-1.2,0-1.6,0
					c0.9-0.9,2.7-3.3,4.5-6.2c2.2-3.7,5-9.4,5.4-15.5c0.1-1.1,0.1-2.2,0.1-3.3c0-5.4-0.8-10.4-2.6-15.2c-0.1-0.2-0.1-0.4-0.2-0.6
					c0,0,0,0,0,0l0,0c-1.6-4.2-3.7-7.3-4.2-8C32.3,53.1,32.6,52.9,32.8,52.8L32.8,52.8z M28.2,49.9L28.2,49.9c0.4,0,0.2,0.5,0.2,1
					c0,0.5-0.5,0.2-0.5,0.1c0-0.2-0.1-0.5-0.2-0.6C27.6,50.2,27.7,49.9,28.2,49.9L28.2,49.9z M21.8,55.3L21.8,55.3
					c-0.5-1.2-0.9-2.4-1-2.7c-0.4-0.9,0.2-0.8,0.4-0.7c0.1,0.1,0.4,0.4,0.3,0.9c-0.1,0.4-0.1,0.6,0.1,0.6c0.2,0,0.3,0.1,0.3,0.6
					c0,0.2,0,0.5,0.1,0.5c0.2-0.2,0.3-0.1,0.4,0.1c0.1,0.5,0.4,0.6,0.5,0.4c0.2-0.2,0.2-0.4,0.1-0.6c-0.1-0.1-0.5-0.8-1-1.6
					c-0.4-0.8-0.8-1.7-0.9-2c-0.1-0.2,0-0.9,0.1-1.1c0.2-0.3,0.5-0.1,0.5,0c0,0,0.2,0.5,0.4,0.9c0.2,0.4,0.5,0.8,0.4,1.1
					c-0.1,0.6-0.1,0.7,0.2,0.8c0.1,0,0.2,0.1,0.3,0.3c0.2,0.3,0.3,0.7,0.3,1c0,0.5,0.4,0.4,0.5,0.2c0.2-0.2,0.3-0.5,0.1-0.7
					c-0.1-0.1-0.5-0.5-0.6-0.9c-0.1-0.2,0-0.5,0-0.5c0.2-0.2,0.4-0.4-0.1-0.5c-0.4-0.1-0.5-0.3-0.6-0.5c-0.1-0.3,0-0.5,0.1-0.6
					c0.2-0.2,0.2-0.4-0.1-0.5c-0.2,0-0.3-0.1-0.4-0.2c-0.2-0.1-0.3-0.4-0.4-0.7c-0.1-0.3,0.1-0.6,0.3-0.7c0.3-0.1,0.7,0.1,0.8,0.3
					c0.1,0.2,0.4,0.8,0.7,1.5c0.4,1,0.8,2.2,0.9,2.6c0.1,0.3,0.3,0.5,0.5,0.2c0.2-0.3,0.3-0.5,0-0.7c-0.3-0.2-0.5-0.7-0.3-1.1
					c0.2-0.5-0.1-0.3-0.3-0.5c-0.2-0.2-0.4-0.3-0.7-1.4c-0.1-0.4-0.1-0.7,0-0.8c0.2-0.2,0.6,0,0.8,0.3c0.1,0.2,0.6,1,1,1.9
					c0.5,1,0.8,2,0.8,2.2c0,0.3,0,1-0.2,0.6c-0.1-0.2-0.3-0.1-0.4,0.3c-0.1,0.2-0.2,0.6-0.3,0.7c-0.2,0.2-1.2,1.5-1.5,1.9
					c-0.3,0.5,0.1,0.5,0.4,0.1c0.4-0.6,0.6-0.8,0.7-0.7c0.2,0.1,0,0.9,0,1.2c0,0.6,0.5,0.3,0.5-0.3c0-0.3,0.1-1,0.2-1.5
					c0.2-0.5,0.5-0.7,0.6-0.7c0.3-0.1,0.3-0.5,0.3-0.6c0-0.2,0.1-1.4,0.2-1.9c0.3-1.1,0.5-0.4,0.5-0.2c0,0.3,0.5,0.7,0.6,0.8
					c0.2,0.2,0.2,0.8,0.2,1.3c0.1,0.5,0.3,1.2,0.4,1.6l-5.2,3.7c-0.2,0-0.3-0.2-0.4-0.3C23.1,58.2,22.4,56.8,21.8,55.3z"/>
				<path id="XMLID_1242_" class="st4" d="M35,70.8c-0.3,0.7-2,3.7-2,3.7l2.3,3.6c0.3,0.3,0.7,0.9,0.7-0.3c0-1.2,0.3-4.7-0.2-6.4
					C35.6,70.9,35.4,70,35,70.8z"/>
				<path id="XMLID_1241_" class="st4" d="M23.2,77.3c0.3-0.3,0.3-0.4,0-0.7c-0.3-0.3-0.7-0.6-0.7,0c0,0.3,0.2,0.7,0.2,0.7
					C22.8,77.5,23,77.4,23.2,77.3z"/>
				<path id="XMLID_1240_" class="st4" d="M25.8,74.4c0.2-0.2,0.4-0.8-0.3-0.8c-0.6,0-0.6,0.1-0.4,0.8
					C25.2,74.6,25.5,74.7,25.8,74.4z"/>
				<path id="XMLID_1239_" class="st4" d="M28,70.4c-0.4,0-0.9-0.1-0.5,0.9c0.2,0.4,0.4,0.2,0.6-0.1C28.3,70.9,28.4,70.4,28,70.4z"
					/>
				<path id="XMLID_1238_" class="st4" d="M30.3,67.8c0.1-0.4,0.3-0.6-0.2-0.6c-0.5,0-1-0.1-0.4,0.9C29.7,68.3,30.1,68.4,30.3,67.8z
					"/>
				<path id="XMLID_1237_" class="st4" d="M31.5,63.2c-0.4,0-0.8,0.1-0.4,0.8c0.2,0.2,0.6,0.3,0.7-0.1C32,63.4,31.9,63.2,31.5,63.2z
					"/>
				<ellipse id="XMLID_1236_" class="st4" cx="20.9" cy="72" rx="0.5" ry="0.5"/>
				<ellipse id="XMLID_1235_" class="st4" cx="21.7" cy="71.1" rx="0.5" ry="0.5"/>
				<ellipse id="XMLID_1234_" class="st4" cx="22.5" cy="70.1" rx="0.5" ry="0.5"/>
				<ellipse id="XMLID_1233_" class="st4" cx="23.3" cy="69.1" rx="0.5" ry="0.5"/>
				<path id="XMLID_1232_" class="st4" d="M24,68.6c0.3,0,0.5-0.2,0.5-0.5c0-0.3-0.2-0.5-0.5-0.5c-0.3,0-0.5,0.2-0.5,0.5
					C23.6,68.4,23.8,68.6,24,68.6z"/>
				<ellipse id="XMLID_1231_" class="st4" cx="24.7" cy="67.1" rx="0.5" ry="0.5"/>
				<path id="XMLID_1230_" class="st4" d="M25.4,66.4c0.3,0,0.5-0.2,0.5-0.5c0-0.3-0.2-0.5-0.5-0.5c-0.3,0-0.5,0.2-0.5,0.5
					C24.9,66.2,25.1,66.4,25.4,66.4z"/>
				<ellipse id="XMLID_1229_" class="st4" cx="25.9" cy="64.8" rx="0.5" ry="0.5"/>
				<ellipse id="XMLID_1228_" class="st4" cx="26.4" cy="63.6" rx="0.5" ry="0.5"/>
				<ellipse id="XMLID_1227_" class="st4" cx="26.9" cy="62.4" rx="0.5" ry="0.5"/>
				<ellipse id="XMLID_1226_" class="st4" cx="19.9" cy="72.8" rx="0.5" ry="0.5"/>
				<path id="XMLID_1225_" class="st4" d="M23.8,55.3c0.1-0.1,1.5-1.6,1.8-1.9c0.2-0.2,0.2-0.6-0.2-0.5c-0.4,0.1-1.8,2.2-1.9,2.2
					C23.5,55.2,23.3,55.9,23.8,55.3z"/>
			</g>
		</g>
		<g>
			<g id="XMLID_516_">
				<polygon id="XMLID_540_" class="st5" points="42.6,100.2 43.6,98.7 42.5,97.3 41.5,98.6 				"/>
				<polygon id="XMLID_539_" class="st5" points="39.9,100.1 41,98.7 40.1,97.3 39,98.6 				"/>
				<polygon id="XMLID_538_" class="st5" points="45.6,100.1 45.8,98 44.5,97.1 44.2,99 				"/>
				<polygon id="XMLID_537_" class="st5" points="53.2,92.3 53.7,90.8 52.4,89.9 52,91.5 				"/>
				<polygon id="XMLID_536_" class="st5" points="49.3,95.1 49.6,93.3 48.3,92.9 48.1,94.6 				"/>
				<polygon id="XMLID_535_" class="st5" points="51.4,93.4 51.6,91.5 50.3,91.1 50.1,92.9 				"/>
				<polygon id="XMLID_534_" class="st5" points="47.7,97 47.6,95.2 46.2,95 46.1,96.9 				"/>
				<polygon id="XMLID_533_" class="st5" points="36.7,99.9 37.7,97.8 36.4,97.8 35.2,99.9 				"/>
				<polygon id="XMLID_532_" class="st5" points="38.1,96.3 39.4,95.4 38.6,94.3 37.4,95.2 				"/>
				<polygon id="XMLID_531_" class="st5" points="39.5,93.6 40.7,92.5 39.8,91.2 38.6,92.3 				"/>
				<polygon id="XMLID_530_" class="st5" points="41.5,87.3 42.8,86.2 41.8,85 40.5,86 				"/>
				<polygon id="XMLID_529_" class="st5" points="40.6,90.4 41.9,89.2 41,88.2 39.7,89.1 				"/>
				<path id="XMLID_526_" class="st5" d="M29.8,85.3c2.4,3.7,5,7.7,5,7.7s0.6-1.1,1.2-2.4c0.4-0.8,0.7-1.8,0.9-2.5
					c-0.4-0.5-2.4-3.5-4.2-6.4c-1.9-2.9-3.7-5.8-3.7-5.8s-0.9,1-1.7,2c-0.7,0.7-1.3,1.4-1.4,1.4C26.3,79.8,28,82.5,29.8,85.3
					L29.8,85.3z M27.3,78.5L27.3,78.5c0.1-0.3,0.3-0.4,0.4-0.5c0.3-0.4,0.4-0.3,0.4-0.2c0,0.1,0,0.4,0.1,0.7c0.1,0.4,0.2,0.9,0.4,1
					c0.3,0.2,0.6,0.2,0.8-0.1c0.1-0.2,0.1-0.5,0-0.8c-0.2-0.3,0.1-0.5,0.5-0.3c0.3,0.2,0.5,0.4,0.5,1.1c0,0.5-0.8,0.8-1,0.8
					c-0.2,0-0.3,0.1-0.2,0.2c0.1,0.1,0.5,0.3,0.8,0.3c0.2,0,1.4,0.2,2.1,0.8c1,0.9,1.6,2.3,1.7,2.6c0,0.1,0.2,0.6,0.3,1.2
					c0.2,1,0.3,2.4,0.5,2.8c0.1,0.3,0.3,0.4,0.5,0.4c0.3,0,0.7-0.3,0.7-0.8c0-0.2,0.3-0.6,0.6-0.1c0.2,0.3,0.2,0.6,0.2,0.9
					c-0.1,0.4-0.5,0.7-0.8,0.7c-0.5,0-0.1,0.5,0.2,0.5c0.4,0,0.2,0.4,0,0.7c-0.2,0.4-0.4,0.3-0.6,0.2c-0.2-0.1-0.6-0.4-1.1-0.9
					c-0.2-0.2-0.4-0.6-0.6-0.9c-0.2-0.4-0.3-1.1-0.4-1.7c-0.1-0.7-0.1-1.3-0.1-1.4c0-0.6-0.2-1.3-0.4-0.5c-0.1,0.4-0.8,0.9-1.4,0.6
					c-0.4-0.2-0.8-0.9-0.8-1.3c0-0.7,0.5-0.6,0.5-0.4c0,0.1,0.2,0.5,0.4,0.7c0.3,0.2,0.8,0.1,1-0.3c0.1-0.4,0.1-1-0.3-1.5
					c-0.5-0.5-1.6-1-2.3-1.2c-0.8-0.2-1.4-0.8-1.8-1.7C27.4,79.6,27.2,78.6,27.3,78.5z"/>
				<path id="XMLID_525_" class="st5" d="M28.3,102.6c0,0,0.9-1,1.5-1.8c0.6-0.8,1.5-2,1.5-2L21.2,83.1l-2.1,1.5v7.8l8.9,10.2H28.3z
					"/>
				<path id="XMLID_518_" class="st5" d="M33.4,128.3c0.2,0.1,0.6,0.2,0.8,0.1c0.6-0.1,1.3-0.7,1.2-1.8c0.7,0.2,1.1-0.1,1.3-0.5
					c0.3-0.5,0.1-1.2-0.3-1.5c-0.2-0.2-0.3-0.2-0.1-0.4c0.1-0.1,0.5-0.4,0.9-0.5c0.7,0,1.2,0.3,1.4,0.4c0.4,0.2,0.3,0.4-0.1,0.3
					c-0.5-0.1-0.8,0.3-1,0.8c-0.1,0.6,0,1.3,0.7,1.8c-0.6,1.4,0,2.3,0.7,2.5c0.7,0.1,1.6-0.5,1.3-2c0.7,0,1-0.1,1.2-0.4
					c0.5-0.6,0.1-1.8-0.8-2c-0.3-0.1-0.2-0.3-0.1-0.4c0.1-0.1,0.6-0.2,1-0.2c0.6,0,1.1,0.2,1.3,0.3c0.3,0.2,0.9,0.6,0.4,0.8
					c-0.5,0.1-0.9,0.6-0.9,1.2c0,0.5,0.2,1.1,0.8,1.4c-0.8,1-0.5,2.1,0.1,2.5c0.8,0.5,2,0.2,2-1.7c0.8,0,1.2-0.4,1.3-0.9
					c0.1-0.6-0.2-1.4-0.6-1.5c-0.3-0.1-0.2-0.3,0-0.4c0.1-0.1,0.6-0.2,1-0.1c0.5,0.1,0.9,0.3,1.2,0.5c0.5,0.3,1,0.8,0.3,0.8
					c-0.5,0-0.9,0.6-0.9,1.1c0,0.4,0.2,0.9,0.9,1.3c-0.7,1.1-0.2,1.9,0.4,2.1c0.8,0.3,1.8,0,1.8-1.7c0.4,0.2,0.9,0,1.1-0.4
					c0.4-0.5,0.4-1.4-0.5-1.8c-0.4-0.2-0.2-0.3,0-0.5c0.2-0.2,0.7-0.4,1.3-0.3c0.7,0,1.4,0.5,1.4,0.5c0.4,0.2,1.1,0.7,0.3,0.6
					c-0.6-0.1-1.2,0.7-1.1,1.3c0.1,0.6,0.5,1.1,1.2,1.2c-0.3,1.2,0.2,1.9,0.8,2.1c0.8,0.2,1.7-0.4,1.4-2.1c1.1-0.2,1.3-1.1,1.1-1.8
					c-0.2-0.5-0.6-0.8-0.9-1c-0.2-0.1-0.4,0-0.1-0.3c0.1-0.1,0.5-0.4,1-0.4c0.6-0.1,1.2,0,1.3,0.1c0.2,0.1,0.5,0.4,0.2,0.5
					c-0.5,0.2-0.9,1-0.6,1.6c0.2,0.4,0.6,0.7,1.5,0.6c0.1,0.7,0.1,1.1,0.5,1.3c0.5,0.3,1.2,0.1,1.2,0.1l-2.6-5.8
					c0,0-2.2,0.1-5.2-0.2c-2.1-0.2-4.5-0.5-6.5-1.3c-3.6-1.5-5.2-2.4-7.1-2.5c-2.9-0.3-4.5,0.3-4.5,0.3L33.4,128.3L33.4,128.3z
					 M59.3,126.9L59.3,126.9c0.1,0.2-0.1,0.1-0.5,0c-1.2-0.3-2.2,0.2-2.8,1.1c-0.5,0.7-0.1,1.5,0,1.6c0.2,0.4-0.1,1-0.6,0.9
					c-0.5-0.1-0.5-0.6-0.3-0.8c0,0,0.2-0.5,0.1-1.1c-0.1-0.4-0.3-0.9-0.9-1.3c-1.3-0.9-2.5-0.6-3.2-0.3c-0.9,0.4-1.3,1.2-0.9,1.9
					c0.3,0.5-0.3,1-0.8,0.8c-0.5-0.2-0.3-0.7-0.3-0.7s0.4-0.8,0.2-1.5c-0.1-0.4-0.4-0.9-0.8-1.3c-0.3-0.3-0.6-0.5-0.9-0.7
					c-0.3-0.2-0.8-0.1-1.1-0.2c-0.9,0-1.8,0.6-1.8,2.1c0,0.7-0.3,0.9-0.8,0.7c-0.5-0.2-0.2-0.8,0.1-1c0.2-0.1,0.5-0.7,0.3-1.3
					c-0.1-0.4-0.4-0.8-1-1.3c-0.9-0.7-2.2-0.9-2.9-0.5c-0.6,0.3-0.8,0.9-0.7,2.1c0.1,0.4-0.1,0.9-0.7,0.8c-0.6-0.2-0.2-0.9-0.1-0.9
					c0.1-0.1,0.4-0.6,0.4-0.6c0.2-1.2-0.5-1.7-1.2-1.9c-0.7-0.2-1.5,0-1.6,0c-0.3,0.2-0.6,0-0.4-0.2c0.1-0.1,0.4-0.6,1.1-0.7
					c0.7-0.1,1.6,0.2,2.6,1.3c0.3-0.2,1.5-1,2.9-0.6c0.8,0.2,1.5,0.9,2.2,2c0.3-0.3,1.5-0.6,2.7-0.3c0.9,0.2,1.8,0.8,2.4,1.9
					c0.2-0.2,1.2-0.8,2.4-0.7c0.9,0,2,0.4,3,1.3c0.1-0.1,1-0.9,1.5-1c1.2-0.3,1.7-0.4,2.1,0C59.2,126.6,59.2,126.7,59.3,126.9
					L59.3,126.9z M40.7,122.5L40.7,122.5c0.8,0.1,0.2,0.6-0.8,0.8c0,0-0.4-0.2-0.8-0.6C38.6,122.2,39.9,122.3,40.7,122.5L40.7,122.5
					z M45.7,124.2L45.7,124.2c0.6,0.3-0.4,0.4-0.6,0.4c0,0-0.2-0.1-0.5-0.6C44.2,123.3,45,123.9,45.7,124.2L45.7,124.2z M50.8,125.7
					L50.8,125.7c0.6,0.2-0.5,0.7-0.7,0.4C49.4,125.3,49.8,125.3,50.8,125.7L50.8,125.7z M55.9,126.3L55.9,126.3
					c0.7,0.1-0.4,0.7-0.5,0.6C54.6,126.5,54.6,126,55.9,126.3z"/>
				<polygon id="XMLID_517_" class="st5" points="18.9,65.2 33.9,57.3 31.6,53.4 18.9,62.2 				"/>
			</g>
		</g>
		<g>
			<path id="XMLID_27_" class="st3" d="M80.4,63.9h-3.1c0,0,0,1.8,0,2.2c-0.4,0-2,0-2,0l-0.1,3.1c0,0,1.8,0,2.2,0c0,0.4,0,2.3,0,2.3
				h3.2c0,0,0-1.9,0-2.3c0.4,0,1.8,0,1.8,0l0.1-3.2c0,0-1.6,0-2,0c0-0.4,0-2.1,0-2.1H80.4z"/>
			<path class="st5" d="M82.8,66.1c-0.1,1.4-0.1,2.7-0.1,4.2c-0.1,3.7,0.2,6.1,0.2,6.1l-9.7,0l-2.8-4.3l0.1-0.9h4.4l0.2-0.1
				c0.2-2.1,0.2-3.9,0.3-6.2c0.1-3.7-0.2-6.1-0.2-6.1l9.7,0l2.8,4.3l-0.1,0.9h-4.6C82.9,64.1,82.8,65.5,82.8,66.1L82.8,66.1z
				 M82.4,66.2L82.4,66.2h-2v-2.1h-2.8v2.2h-2l-0.1,2.6h2.2v2.3h2.8V69h1.9L82.4,66.2L82.4,66.2z M80.1,66.5L80.1,66.5H78v2.1h2.1
				V66.5z"/>
		</g>
		<path class="st4" d="M18.9,135.2H81V16.4H18.4v118.7H18.9L18.9,135.2z M19.3,134.2L19.3,134.2c0-1,0-115.8,0-116.8
			c0.9,0,59.8,0,60.7,0c0,1,0,115.8,0,116.8C79.1,134.2,20.3,134.2,19.3,134.2z"/>
		<g>
			<g>
				<path id="XMLID_21_" class="st1" d="M33,27.2c-2.6-3.6-3.3-6.6-3.3-6.6s-0.7,3-3.4,6.6c-2.6,3.6-5.1,4.6-5.1,4.6s2.4,1,5.1,4.6
					C29,40,29.7,43,29.7,43s0.7-3,3.3-6.6c2.6-3.6,5.1-4.6,5.1-4.6S35.7,30.8,33,27.2z"/>
			</g>
			<g>
				<path id="XMLID_20_" class="st1" d="M66.4,124.4c2.6,3.6,3.3,6.6,3.3,6.6s0.7-3,3.4-6.6c2.6-3.6,5.1-4.6,5.1-4.6s-2.4-1-5.1-4.6
					c-2.6-3.6-3.4-6.6-3.4-6.6s-0.7,3-3.3,6.6c-2.6,3.6-5.1,4.6-5.1,4.6S63.7,120.8,66.4,124.4z"/>
			</g>
		</g>
		<g>
			<g>
				<path id="XMLID_19_" class="st2" d="M12.7,30.9c0,0,1.4,4.5,4.6,6.3c0,0-3.2,1.7-4.6,6.2c-1.4-4.6-4.6-6.2-4.6-6.2
					C11.3,35.3,12.7,30.9,12.7,30.9z"/>
			</g>
			<g>
				<path id="XMLID_18_" class="st2" d="M86.7,120.7c0,0-1.4-4.5-4.6-6.3c0,0,3.2-1.7,4.6-6.2c1.4,4.6,4.6,6.2,4.6,6.2
					C88.1,116.3,86.7,120.7,86.7,120.7z"/>
			</g>
		</g>
		<g>
			<polygon id="XMLID_17_" class="st1" points="17.4,25.3 17.4,27.1 12.9,27.1 12.9,25.3 14.5,25.3 11.9,19.5 10.4,21.9 10.4,25.3 
				11.8,25.3 11.8,27.1 7.2,27.1 7.2,25.3 8.5,25.3 8.5,12.4 7.2,12.4 7.2,10.7 11.6,10.7 11.6,12.4 10.4,12.4 10.4,18.3 14.1,12.4 
				12.9,12.4 12.9,10.7 17.4,10.7 17.4,12.4 16.4,12.4 13.2,17.6 16.6,25.3 			"/>
			<polygon id="XMLID_16_" class="st1" points="82,126.3 82,124.5 86.5,124.5 86.5,126.3 84.9,126.3 87.5,132.1 89,129.7 89,126.3 
				87.6,126.3 87.6,124.5 92.3,124.5 92.3,126.3 90.9,126.3 90.9,139.2 92.3,139.2 92.3,140.9 87.8,140.9 87.8,139.2 89,139.2 
				89,133.3 85.3,139.2 86.5,139.2 86.5,140.9 82,140.9 82,139.2 83,139.2 86.3,134 82.8,126.3 			"/>
		</g>
	</g>
</g>
</svg>
