<?xml version="1.0" encoding="utf-8"?>
<!-- Generator: Adobe Illustrator 19.0.0, SVG Export Plug-In . SVG Version: 6.00 Build 0)  -->
<svg version="1.1" xmlns="http://www.w3.org/2000/svg" xmlns:xlink="http://www.w3.org/1999/xlink" x="0px" y="0px"
	 viewBox="0 0 99.4 151.6" style="enable-background:new 0 0 99.4 151.6;" xml:space="preserve">
<style type="text/css">
	.st0{fill:#FFFFFF;stroke:#000000;stroke-width:0.25;stroke-miterlimit:2.6131;}
	.st1{fill-rule:evenodd;clip-rule:evenodd;fill:#E52529;}
	.st2{fill:#E52529;}
</style>
<g id="Calque_2">
	<path id="XMLID_15_" class="st0" d="M99.3,5.3v140.9c0,2.9-2.3,5.2-5.2,5.2H5.3c-2.9,0-5.2-2.3-5.2-5.2V5.3c0-2.9,2.3-5.2,5.2-5.2
		h88.7C96.9,0.1,99.3,2.5,99.3,5.3z"/>
</g>
<g id="Calque_1">
	<g>
		<g>
			<g>
				<g>
					<g>
						<g>
							<path class="st1" d="M13.1,13.9l1.5,7.2h-2.9L13.1,13.9L13.1,13.9z M7.7,27.1l4.6,0v-1.8h-1.4l0.5-2.5h3.6l0.5,2.5h-1.2v1.8
								h4.5v-1.8h-1.2l-3.2-14.7H12L8.8,25.3H7.7V27.1L7.7,27.1z"/>
						</g>
					</g>
					<g>
						<g>
							<path class="st1" d="M86.3,137.7l-1.5-7.2h2.9L86.3,137.7L86.3,137.7z M91.8,124.5l-4.6,0v1.8h1.4l-0.5,2.5h-3.6l-0.5-2.5
								h1.2v-1.8h-4.5v1.8h1.2l3.2,14.7h2.2l3.2-14.6h1.1V124.5L91.8,124.5z"/>
						</g>
					</g>
				</g>
			</g>
		</g>
	</g>
	<g>
		<path id="XMLID_17_" class="st2" d="M49.7,69.5c0,0,1.4,4.5,4.7,6.3c0,0-3.2,1.7-4.7,6.2c-1.5-4.6-4.7-6.2-4.7-6.2
			C48.3,74,49.7,69.5,49.7,69.5z"/>
	</g>
	<g>
		<path id="XMLID_16_" class="st2" d="M49.7,82.1c0,0-1.4-4.5-4.7-6.3c0,0,3.2-1.7,4.7-6.2c1.5,4.6,4.7,6.2,4.7,6.2
			C51.1,77.6,49.7,82.1,49.7,82.1z"/>
	</g>
	<g>
		<path id="XMLID_14_" class="st2" d="M49.7,100.1c0,0-5.5-17.4-18.2-24.4c0,0,12.5-6.4,18.2-24.2c5.7,17.7,18.2,24.2,18.2,24.2
			C55.2,82.7,49.7,100.1,49.7,100.1z"/>
	</g>
</g>
</svg>
