<?xml version="1.0" encoding="utf-8"?>
<!-- Generator: Adobe Illustrator 19.0.0, SVG Export Plug-In . SVG Version: 6.00 Build 0)  -->
<svg version="1.1" xmlns="http://www.w3.org/2000/svg" xmlns:xlink="http://www.w3.org/1999/xlink" x="0px" y="0px"
	 viewBox="0 0 99.4 151.6" style="enable-background:new 0 0 99.4 151.6;" xml:space="preserve">
<style type="text/css">
	.st0{fill:#FFFFFF;stroke:#000000;stroke-width:0.25;stroke-miterlimit:2.6131;}
	.st1{fill-rule:evenodd;clip-rule:evenodd;fill:#E52529;}
	.st2{fill:#E52529;}
</style>
<g id="Calque_2">
	<path id="XMLID_15_" class="st0" d="M99.3,5.3v140.9c0,2.9-2.3,5.2-5.2,5.2H5.3c-2.9,0-5.2-2.3-5.2-5.2V5.3c0-2.9,2.3-5.2,5.2-5.2
		h88.7C96.9,0.1,99.3,2.5,99.3,5.3z"/>
</g>
<g id="Calque_1">
	<g>
		<g>
			<g>
				<g>
					<path id="XMLID_24_" class="st1" d="M74.8,27.7c-3.2-4.4-4.1-8-4.1-8s-0.9,3.7-4.1,8c-3.2,4.4-6.2,5.6-6.2,5.6s3,1.2,6.2,5.6
						c3.2,4.4,4.1,8,4.1,8s0.9-3.7,4.1-8c3.2-4.4,6.2-5.6,6.2-5.6S78.1,32,74.8,27.7z"/>
					<path id="XMLID_23_" class="st1" d="M32.8,27.7c-3.2-4.4-4.1-8-4.1-8s-0.9,3.7-4.1,8c-3.2,4.4-6.2,5.6-6.2,5.6s3,1.2,6.2,5.6
						c3.2,4.4,4.1,8,4.1,8s0.9-3.7,4.1-8c3.2-4.4,6.2-5.6,6.2-5.6S36,32,32.8,27.7z"/>
				</g>
				<g>
					<path id="XMLID_22_" class="st1" d="M74.8,112.8c-3.2-4.4-4.1-8-4.1-8s-0.9,3.7-4.1,8c-3.2,4.4-6.2,5.6-6.2,5.6s3,1.2,6.2,5.6
						c3.2,4.4,4.1,8,4.1,8s0.9-3.7,4.1-8c3.2-4.4,6.2-5.6,6.2-5.6S78.1,117.1,74.8,112.8z"/>
					<path id="XMLID_21_" class="st1" d="M32.8,112.8c-3.2-4.4-4.1-8-4.1-8s-0.9,3.7-4.1,8c-3.2,4.4-6.2,5.6-6.2,5.6s3,1.2,6.2,5.6
						c3.2,4.4,4.1,8,4.1,8s0.9-3.7,4.1-8c3.2-4.4,6.2-5.6,6.2-5.6S36,117.1,32.8,112.8z"/>
				</g>
			</g>
		</g>
		<g>
			<g>
				<g>
					<g>
						<g>
							<path class="st1" d="M10,21.2h3.8v-6L10,21.2L10,21.2z M14.3,10.7L14.3,10.7h1.4v10.6h1.7V23h-1.7v2.4h1v1.7h-4.2v-1.7h1.2
								V23H7.7v-1.5L14.3,10.7z"/>
						</g>
						<g>
							<path class="st1" d="M89.5,130.4h-3.8v6L89.5,130.4L89.5,130.4z M85.2,140.9L85.2,140.9h-1.4v-10.6H82v-1.8h1.7v-2.4h-1v-1.7
								h4.2v1.7h-1.2v2.5h6.1v1.5L85.2,140.9z"/>
						</g>
					</g>
				</g>
			</g>
		</g>
		<g>
			<g>
				<path id="XMLID_16_" class="st2" d="M12.8,30.9c0,0,1.4,4.5,4.7,6.3c0,0-3.2,1.7-4.7,6.2c-1.5-4.6-4.7-6.2-4.7-6.2
					C11.3,35.3,12.8,30.9,12.8,30.9z"/>
			</g>
			<g>
				<path id="XMLID_14_" class="st2" d="M86.6,120.7c0,0-1.4-4.5-4.7-6.3c0,0,3.2-1.7,4.7-6.2c1.5,4.6,4.7,6.2,4.7,6.2
					C88.1,116.3,86.6,120.7,86.6,120.7z"/>
			</g>
		</g>
	</g>
</g>
</svg>
