<?xml version="1.0" encoding="utf-8"?>
<!-- Generator: Adobe Illustrator 19.0.0, SVG Export Plug-In . SVG Version: 6.00 Build 0)  -->
<svg version="1.1" xmlns="http://www.w3.org/2000/svg" xmlns:xlink="http://www.w3.org/1999/xlink" x="0px" y="0px"
	 viewBox="0 0 99.4 151.6" style="enable-background:new 0 0 99.4 151.6;" xml:space="preserve">
<style type="text/css">
	.st0{fill:#FFFFFF;stroke:#000000;stroke-width:0.25;stroke-miterlimit:2.6131;}
	.st1{fill-rule:evenodd;clip-rule:evenodd;fill:#E52529;}
	.st2{fill:#E52529;}
	.st3{fill:#FFDD09;}
	.st4{fill-rule:evenodd;clip-rule:evenodd;fill:#FFDD09;}
	.st5{fill-rule:evenodd;clip-rule:evenodd;fill:#111A16;}
	.st6{fill:#111A16;}
	.st7{fill:#DC3538;}
</style>
<g id="Calque_2">
	<path id="XMLID_15_" class="st0" d="M99.3,5.3v140.9c0,2.9-2.3,5.2-5.2,5.2H5.3c-2.9,0-5.2-2.3-5.2-5.2V5.3c0-2.9,2.3-5.2,5.2-5.2
		h88.7C96.9,0.1,99.3,2.5,99.3,5.3z"/>
</g>
<g id="Calque_1">
	<g>
		<g>
			<g>
				<g>
					<path class="st1" d="M552.8,134.6c-3.2-4.4-4.1-8-4.1-8s-0.9,3.7-4.1,8c-3.2,4.4-6.2,5.6-6.2,5.6s3,1.2,6.2,5.6
						c3.2,4.4,4.1,8,4.1,8s0.9-3.7,4.1-8c3.2-4.4,6.2-5.6,6.2-5.6S556.1,138.9,552.8,134.6z"/>
					<path class="st1" d="M510.8,134.6c-3.2-4.4-4.1-8-4.1-8s-0.9,3.7-4.1,8c-3.2,4.4-6.2,5.6-6.2,5.6s3,1.2,6.2,5.6
						c3.2,4.4,4.1,8,4.1,8s0.9-3.7,4.1-8c3.2-4.4,6.2-5.6,6.2-5.6S514,138.9,510.8,134.6z"/>
				</g>
				<g>
					<path class="st1" d="M531.8,177.1c-3.2-4.4-4.1-8-4.1-8s-0.9,3.7-4.1,8c-3.2,4.4-6.2,5.6-6.2,5.6s3,1.2,6.2,5.6
						c3.2,4.4,4.1,8,4.1,8s0.9-3.7,4.1-8c3.2-4.4,6.2-5.6,6.2-5.6S535,181.5,531.8,177.1z"/>
				</g>
				<g>
					<path class="st1" d="M552.8,219.7c-3.2-4.4-4.1-8-4.1-8s-0.9,3.7-4.1,8c-3.2,4.4-6.2,5.6-6.2,5.6s3,1.2,6.2,5.6
						c3.2,4.4,4.1,8,4.1,8s0.9-3.7,4.1-8c3.2-4.4,6.2-5.6,6.2-5.6S556.1,224,552.8,219.7z"/>
					<path class="st1" d="M510.8,219.7c-3.2-4.4-4.1-8-4.1-8s-0.9,3.7-4.1,8c-3.2,4.4-6.2,5.6-6.2,5.6s3,1.2,6.2,5.6
						c3.2,4.4,4.1,8,4.1,8s0.9-3.7,4.1-8c3.2-4.4,6.2-5.6,6.2-5.6S514,224,510.8,219.7z"/>
				</g>
			</g>
		</g>
		<g>
			<g>
				<g>
					<g>
						<g>
							<g>
								<path class="st2" d="M486.7,117.5h7.8v1.8h-6l-0.2,3c0,0,2.8-1.6,5.5,0.7c0.5,0.4,2.9,2.9,1.4,7.8c-0.3,1-2,3.6-5.6,3.1
									c-0.2,0-2.9-0.7-3.9-3.7l1.7-0.4c0,0,1.3,2.7,3.1,2.5c0.9-0.1,3.3-0.7,3.2-4.6c0-0.3,0-3.7-2.9-4.2c-1-0.2-2.2,0-3.9,1.7
									l-0.8-0.5L486.7,117.5z"/>
							</g>
						</g>
						<g>
							<g>
								<path class="st2" d="M568.8,247.8h-7.9V246h6l0.2-3c0,0-2.8,1.6-5.5-0.7c-0.5-0.4-2.9-2.9-1.4-7.8c0.3-1,2-3.6,5.6-3.1
									c0.2,0,2.9,0.7,3.9,3.7l-1.7,0.4c0,0-1.3-2.7-3.1-2.5c-0.9,0.1-3.3,0.7-3.2,4.6c0,0.3,0,3.7,2.9,4.2c1,0.2,2.2,0,3.9-1.7
									l0.8,0.5L568.8,247.8z"/>
							</g>
						</g>
					</g>
				</g>
			</g>
		</g>
		<g>
			<g>
				<path class="st2" d="M490.8,137.7c0,0,1.4,4.5,4.7,6.3c0,0-3.2,1.7-4.7,6.2c-1.5-4.6-4.7-6.2-4.7-6.2
					C489.4,142.2,490.8,137.7,490.8,137.7z"/>
			</g>
			<g>
				<path class="st2" d="M564.7,227.6c0,0-1.4-4.5-4.7-6.3c0,0,3.2-1.7,4.7-6.2c1.5,4.6,4.7,6.2,4.7,6.2
					C566.1,223.1,564.7,227.6,564.7,227.6z"/>
			</g>
		</g>
	</g>
	<g>
		<g>
			<g>
				<g>
					<path class="st1" d="M552.8,134.6c-3.2-4.4-4.1-8-4.1-8s-0.9,3.7-4.1,8c-3.2,4.4-6.2,5.6-6.2,5.6s3,1.2,6.2,5.6
						c3.2,4.4,4.1,8,4.1,8s0.9-3.7,4.1-8c3.2-4.4,6.2-5.6,6.2-5.6S556.1,138.9,552.8,134.6z"/>
					<path class="st1" d="M510.8,134.6c-3.2-4.4-4.1-8-4.1-8s-0.9,3.7-4.1,8c-3.2,4.4-6.2,5.6-6.2,5.6s3,1.2,6.2,5.6
						c3.2,4.4,4.1,8,4.1,8s0.9-3.7,4.1-8c3.2-4.4,6.2-5.6,6.2-5.6S514,138.9,510.8,134.6z"/>
				</g>
				<g>
					<path class="st1" d="M531.8,177.1c-3.2-4.4-4.1-8-4.1-8s-0.9,3.7-4.1,8c-3.2,4.4-6.2,5.6-6.2,5.6s3,1.2,6.2,5.6
						c3.2,4.4,4.1,8,4.1,8s0.9-3.7,4.1-8c3.2-4.4,6.2-5.6,6.2-5.6S535,181.5,531.8,177.1z"/>
				</g>
				<g>
					<path class="st1" d="M552.8,219.7c-3.2-4.4-4.1-8-4.1-8s-0.9,3.7-4.1,8c-3.2,4.4-6.2,5.6-6.2,5.6s3,1.2,6.2,5.6
						c3.2,4.4,4.1,8,4.1,8s0.9-3.7,4.1-8c3.2-4.4,6.2-5.6,6.2-5.6S556.1,224,552.8,219.7z"/>
					<path class="st1" d="M510.8,219.7c-3.2-4.4-4.1-8-4.1-8s-0.9,3.7-4.1,8c-3.2,4.4-6.2,5.6-6.2,5.6s3,1.2,6.2,5.6
						c3.2,4.4,4.1,8,4.1,8s0.9-3.7,4.1-8c3.2-4.4,6.2-5.6,6.2-5.6S514,224,510.8,219.7z"/>
				</g>
			</g>
		</g>
		<g>
			<g>
				<g>
					<g>
						<g>
							<g>
								<path class="st2" d="M486.7,117.5h7.8v1.8h-6l-0.2,3c0,0,2.8-1.6,5.5,0.7c0.5,0.4,2.9,2.9,1.4,7.8c-0.3,1-2,3.6-5.6,3.1
									c-0.2,0-2.9-0.7-3.9-3.7l1.7-0.4c0,0,1.3,2.7,3.1,2.5c0.9-0.1,3.3-0.7,3.2-4.6c0-0.3,0-3.7-2.9-4.2c-1-0.2-2.2,0-3.9,1.7
									l-0.8-0.5L486.7,117.5z"/>
							</g>
						</g>
						<g>
							<g>
								<path class="st2" d="M568.8,247.8h-7.9V246h6l0.2-3c0,0-2.8,1.6-5.5-0.7c-0.5-0.4-2.9-2.9-1.4-7.8c0.3-1,2-3.6,5.6-3.1
									c0.2,0,2.9,0.7,3.9,3.7l-1.7,0.4c0,0-1.3-2.7-3.1-2.5c-0.9,0.1-3.3,0.7-3.2,4.6c0,0.3,0,3.7,2.9,4.2c1,0.2,2.2,0,3.9-1.7
									l0.8,0.5L568.8,247.8z"/>
							</g>
						</g>
					</g>
				</g>
			</g>
		</g>
		<g>
			<g>
				<path class="st2" d="M490.8,137.7c0,0,1.4,4.5,4.7,6.3c0,0-3.2,1.7-4.7,6.2c-1.5-4.6-4.7-6.2-4.7-6.2
					C489.4,142.2,490.8,137.7,490.8,137.7z"/>
			</g>
			<g>
				<path class="st2" d="M564.7,227.6c0,0-1.4-4.5-4.7-6.3c0,0,3.2-1.7,4.7-6.2c1.5,4.6,4.7,6.2,4.7,6.2
					C566.1,223.1,564.7,227.6,564.7,227.6z"/>
			</g>
		</g>
	</g>
	<g>
		<g>
			<g>
				<g>
					<path class="st1" d="M552.8,134.6c-3.2-4.4-4.1-8-4.1-8s-0.9,3.7-4.1,8c-3.2,4.4-6.2,5.6-6.2,5.6s3,1.2,6.2,5.6
						c3.2,4.4,4.1,8,4.1,8s0.9-3.7,4.1-8c3.2-4.4,6.2-5.6,6.2-5.6S556.1,138.9,552.8,134.6z"/>
					<path class="st1" d="M510.8,134.6c-3.2-4.4-4.1-8-4.1-8s-0.9,3.7-4.1,8c-3.2,4.4-6.2,5.6-6.2,5.6s3,1.2,6.2,5.6
						c3.2,4.4,4.1,8,4.1,8s0.9-3.7,4.1-8c3.2-4.4,6.2-5.6,6.2-5.6S514,138.9,510.8,134.6z"/>
				</g>
				<g>
					<path class="st1" d="M531.8,177.1c-3.2-4.4-4.1-8-4.1-8s-0.9,3.7-4.1,8c-3.2,4.4-6.2,5.6-6.2,5.6s3,1.2,6.2,5.6
						c3.2,4.4,4.1,8,4.1,8s0.9-3.7,4.1-8c3.2-4.4,6.2-5.6,6.2-5.6S535,181.5,531.8,177.1z"/>
				</g>
				<g>
					<path class="st1" d="M552.8,219.7c-3.2-4.4-4.1-8-4.1-8s-0.9,3.7-4.1,8c-3.2,4.4-6.2,5.6-6.2,5.6s3,1.2,6.2,5.6
						c3.2,4.4,4.1,8,4.1,8s0.9-3.7,4.1-8c3.2-4.4,6.2-5.6,6.2-5.6S556.1,224,552.8,219.7z"/>
					<path class="st1" d="M510.8,219.7c-3.2-4.4-4.1-8-4.1-8s-0.9,3.7-4.1,8c-3.2,4.4-6.2,5.6-6.2,5.6s3,1.2,6.2,5.6
						c3.2,4.4,4.1,8,4.1,8s0.9-3.7,4.1-8c3.2-4.4,6.2-5.6,6.2-5.6S514,224,510.8,219.7z"/>
				</g>
			</g>
		</g>
		<g>
			<g>
				<g>
					<g>
						<g>
							<g>
								<path class="st2" d="M486.7,117.5h7.8v1.8h-6l-0.2,3c0,0,2.8-1.6,5.5,0.7c0.5,0.4,2.9,2.9,1.4,7.8c-0.3,1-2,3.6-5.6,3.1
									c-0.2,0-2.9-0.7-3.9-3.7l1.7-0.4c0,0,1.3,2.7,3.1,2.5c0.9-0.1,3.3-0.7,3.2-4.6c0-0.3,0-3.7-2.9-4.2c-1-0.2-2.2,0-3.9,1.7
									l-0.8-0.5L486.7,117.5z"/>
							</g>
						</g>
						<g>
							<g>
								<path class="st2" d="M568.8,247.8h-7.9V246h6l0.2-3c0,0-2.8,1.6-5.5-0.7c-0.5-0.4-2.9-2.9-1.4-7.8c0.3-1,2-3.6,5.6-3.1
									c0.2,0,2.9,0.7,3.9,3.7l-1.7,0.4c0,0-1.3-2.7-3.1-2.5c-0.9,0.1-3.3,0.7-3.2,4.6c0,0.3,0,3.7,2.9,4.2c1,0.2,2.2,0,3.9-1.7
									l0.8,0.5L568.8,247.8z"/>
							</g>
						</g>
					</g>
				</g>
			</g>
		</g>
		<g>
			<g>
				<path class="st2" d="M490.8,137.7c0,0,1.4,4.5,4.7,6.3c0,0-3.2,1.7-4.7,6.2c-1.5-4.6-4.7-6.2-4.7-6.2
					C489.4,142.2,490.8,137.7,490.8,137.7z"/>
			</g>
			<g>
				<path class="st2" d="M564.7,227.6c0,0-1.4-4.5-4.7-6.3c0,0,3.2-1.7,4.7-6.2c1.5,4.6,4.7,6.2,4.7,6.2
					C566.1,223.1,564.7,227.6,564.7,227.6z"/>
			</g>
		</g>
	</g>
	<g>
		<g>
			<g>
				<path id="XMLID_324_" class="st3" d="M62.9,77.3c-0.2-2.2-0.1-2.5-0.1-3.3c0-1.2,0-5,0.6-7.7c0.1-0.6,0.4-1.9,0.4-1.9l-0.4-0.4
					l-2.9,0c0,0,0,0,0,0l-0.1-3.4l-3-0.3l-6.7,8l2.6,0.3l0.1,3.7l3.1,0.1l0.3,3.3l2.6,0.3l0.3,3.5l2.5,0.2l0.4,3.2l1.2-0.1
					C63.7,82.7,63.2,80.9,62.9,77.3z"/>
				<path id="XMLID_323_" class="st4" d="M41.7,33.2c-0.2,0.1-0.2,0.4-0.2,0.4l-0.1,0.5c-0.2,0.9-0.5,1.7-0.6,1.7
					c-0.1,0.2-0.1,0.3-0.2,0.3l-0.2,0c-0.3-0.2-0.7-0.2-0.9-0.1c-0.7,0.4-0.7,1.1-0.7,1.1c0,0.4,0.1,0.7,0.4,0.9
					c0.4,0.3,0.9,0.2,1,0.2c0.8-0.1,1.4-1,1.7-1.7c0.6-1.7,0.3-3,0.3-3.1L42,33.3C41.9,33.2,41.7,33.2,41.7,33.2z"/>
				<path id="XMLID_322_" class="st3" d="M43.8,62.3c-0.3,0.1-0.5,0.4-0.6,0.6c-0.2,0.3-1.4,2.1-2.3,3.7c-0.7,1.2-1.1,2.3-1.1,2.3
					c0,0,0,1.8,0.3,1.9c0.2,0.1,0.8-1.6,1.3-2.5c0.8-1.4,1.5-2.6,1.7-2.9c1.1-1.5,1.7-2.4,1.5-2.7C44.3,62.3,44,62.2,43.8,62.3z"/>
				<path id="XMLID_321_" class="st3" d="M36.7,49.7l0,19.2l-1.3-1.7l-0.3-0.8l0-13.3C35.1,53.2,36.2,51,36.7,49.7z"/>
				<path id="XMLID_320_" class="st3" d="M78.2,58.3c-0.9,0.2-2.3,0-2.3,0v49.5l4.3,4.3c0,0,0-55.2,0-55.2
					C80.2,56.9,79.3,58.1,78.2,58.3z"/>
			</g>
			<path id="XMLID_319_" class="st3" d="M42.1,48c0.4,0.1,1.1,0.3,1.8,0.4c1.8,0.3,2.2,0.2,2.2,0.2c0.1,0,0.3-0.1,0.4-0.1
				c0.1,0,0.1-0.1,0.1-0.2c0-0.3-0.3-0.7-1-0.6c0,0,0,0,0,0c0,0-0.1,0-0.1,0.1c0.1-0.1,0.1-0.2,0.1-0.3c0-0.2,0-0.3-0.2-0.4
				c-0.2-0.2-0.6-0.1-0.7,0c0.1-0.1,0.2-0.3,0.2-0.4c0-0.1-0.1-0.5-0.4-0.7c-0.1-0.1-0.2-0.1-0.4,0c0,0,0,0,0,0
				c0-0.1,0.1-0.2,0.1-0.3c0,0,0-0.4-0.3-0.6c-0.1-0.1-0.2-0.1-0.4-0.1c0.1-0.2,0.2-0.3,0.2-0.5c0-0.1-0.1-0.7-0.5-0.8
				c-0.1,0-0.2,0-0.3,0c0.2-0.3,0.2-0.6,0.2-0.8c0,0,0,0,0-0.1c0-0.4-0.1-0.8-0.4-0.9c-0.1,0-0.2-0.3-0.2-0.5
				c0.1-0.3,0.1-0.6,0.1-0.9c0-0.4,0-0.6-0.1-0.7c0,0-0.1-0.5-0.5-0.4c0,0,0,0,0,0c-0.3,0.1-0.3,0.4-0.3,0.4
				c-0.1,0.4-0.3,1.1-0.4,1.4c0,0-0.1,0.2-0.3,0.5c-0.1,0.1-0.3,0.1-0.3-0.1c-0.2-0.7-0.6-1.1-0.9-1.2c-0.6-0.2-1.1-0.2-1.5,0.1
				c-0.7,0.4-0.7,1.5-0.8,1.9c0,0.4,0.2,1.5,0.2,1.5l-0.4,0.2l-2.7,1.7l-8.4,4.6l-3,1.7v10.9c1.4-0.8,4.3-4,7-7.9
				c2.4-3.5,4.2-7.5,4.4-8.7c0-0.1,0-0.2,0-0.2c0.2,0.4,0.9,1.5,2,2.9c0.9,1.1,2.1,2.3,3.5,3.4c0.6,0.4,1.6,1.1,2.6,1.5
				c0.9,0.4,1.7,0.6,1.7,0.6L44,55.7c0,0-0.8,0.9-1.2,1.9c-0.3,0.6-0.3,1.4-0.3,1.8c0,0.9,0.4,1.7,0.8,2.3c0.6,0.8,1.4,1.1,2.3,1.1
				c1.1,0,1.9-0.4,2.5-1.2c0.5-0.6,0.8-1.2,0.8-2.2c0-0.4,0.1-1.4,0.1-1.6c0.1-0.9,0.6-2.4,0.6-2.4s0,0,0.1,0c0.4,0,1.5,0.2,3.1-0.1
				c1.3-0.2,3-0.7,4.9-1.6c1.2-0.5,2.8-1.6,4.4-2.9c0.9-0.8,2.5-2.6,2.5-2.6s0.5,0.1,1.3,0c0.4,0,0.8-0.2,1.2-0.2
				c1-0.2,1.6-0.9,1.8-1.2c0.2-0.3,0.8-0.6,1.2-0.9c0.4-0.4,0.9-1.3,0.9-2.1c0-0.8-0.4-2-1.3-2.3c-0.9-0.3-1.4,0.1-1.7,0.2
				c-0.4,0.1-0.5,0.1-0.9-0.9c-0.4-1-1.1-3-1.6-4.3c-0.2-0.6-0.9-3.1-1.3-4.7c-0.3-1.2-0.5-2.2-0.6-2.8c-0.1-0.3,0-0.2-0.1-0.4
				c-0.1-0.6-1.3-0.6-1.3-0.6c-0.5-0.5-1.1-0.3-1.1-0.3c-0.4-0.6-1-0.2-1-0.2c-0.3-0.6-1-0.3-1-0.3c-0.5-0.5-1,0-1,0
				c0-0.2-0.3-0.5-0.7-0.5c-0.3,0-0.5,0.3-0.5,0.3c-0.1-0.3-0.4-0.4-0.6-0.4c-0.4,0.1-0.6,0.5-0.5,0.8c0.6,4.3,2.2,10.1,2.2,10.1
				s-0.7,0.5-1.2,1.6c-0.5,1-1.1,2.8-0.1,5.1c0.2,0.5,0.5,0.9,0.8,1.3c0.6,0.7,1.6,1.3,1.9,1.5c0.1,0.1,0,0.3-0.2,0.5
				c-0.3,0.3-0.9,0.7-1.1,0.8c-0.7,0.5-1.7,1.1-2.8,1.6c-1.4,0.7-4.1,1-4.1,1c-0.1,0-0.4,0-0.4,0c-0.1-0.7-0.2-1-0.7-1.5
				c-0.6-0.7-1.6-0.7-1.6-0.7c-0.9,0.1-1.6,1.1-2,2c0,0-2.2-0.6-4.5-2.5C41.9,48.1,41.6,47.8,42.1,48z"/>
			<path id="XMLID_318_" class="st3" d="M75.7,25.3l4.4-5v28.2l-4.2,1.6V37.9c0,0-2.6-1-4.8-3.5c-1.4-1.6-2.7-3.9-3.2-6.9
				c0,0,3.8,2.9,7.9,4.1V25.3z"/>
		</g>
		<g>
			<path class="st2" d="M34.6,17.1l7.2,9.9c0,0,5.6-1.2,11.2-0.8c2.3,0.1,4.3,0.5,6.1,0.9c2.4,0.6,4.5,1.4,4.5,1.4L70.4,17
				L34.6,17.1L34.6,17.1z M42.6,24.5L42.6,24.5l-4.2-7l1.4,0l3.3,5.6l2.4-0.5l-1.6-5.1h1.1l1.8,6.2C44,24,42.6,24.5,42.6,24.5
				L42.6,24.5z M56.9,24.1L56.9,24.1c-4.1-0.8-7.9-0.6-7.9-0.6l-1.6-6.1h1.1l1.3,4.9c0,0,2.1-0.1,3,0c0.9,0.1,3.1,0.3,3.1,0.3
				l0.8-5.2l1.1,0L56.9,24.1L56.9,24.1z M63.4,25.5L63.4,25.5c-2.2-0.7-4.5-1.2-4.5-1.2l1.3-6.9l1.3,0l-1.2,5.8
				c1.2,0.4,2.6,0.7,2.6,0.7l3.4-6.6l1.3,0L63.4,25.5z"/>
			<path id="XMLID_313_" class="st2" d="M68.9,55.1c-0.9,1.5-1.8,3.4-2.6,5.7c-1,2.8-1.9,6.1-2.2,10.3c-0.1,2.2-0.1,4.6,0.2,6.8
				c0.2,2.2,0.6,4.3,1.1,6c0.3,1,0.5,1.9,0.8,2.7c1.2,3.2,2.3,4.9,2.3,4.9l1.5-1.8c-0.6-0.9-1.3-2.3-1.9-4.3
				c-1.2-3.4-2.3-8.1-2-12.8c0.2-3.5,1.1-7.8,2.5-11.4c1.8-4.8,4.6-7.8,4.6-7.8l-0.7-3C72.5,50.3,70.8,51.8,68.9,55.1z"/>
			<path id="XMLID_312_" class="st2" d="M73.1,58.4c0,0-1.7,2.5-2.9,6.1c-0.9,2.9-1.5,6.7-1.4,10.2c0.1,3.1,0.8,6,1.4,8.2
				c0.7,2.2,2,4.5,2,4.5s1.4-1.2,1.9-1.6c0.5-0.4,1.9-1.4,1.9-1.4l0-25c0-0.3,0-0.7,0-0.7S74.4,58,74.3,58
				C73.4,57.7,73.1,58.3,73.1,58.4z"/>
			<path id="XMLID_311_" class="st2" d="M44.6,62.9c0,0-1.6,2.3-2.8,4.3c-0.5,0.9-1.1,1.9-1.5,2.9c-0.5,1.2-0.6,1.7-0.7,2.3
				c0,0,0.9,1.1,0.9,1.1c0,0,1.2-1.4,1.2-1.4s0.3-1.9,1.6-3.8c1-1.4,2.7-3.7,3-4.7c0,0,0.2-0.5,0-0.7c-0.1-0.1-0.6-0.3-0.8-0.3
				C44.8,62.5,44.6,62.9,44.6,62.9z"/>
			<path id="XMLID_310_" class="st2" d="M35.3,52.8l0,14c0,0-1-3.3-1.6-4.6c-0.5-1.1-1.9-3.5-1.9-3.5S34.1,55.3,35.3,52.8z"/>
		</g>
		<g>
			<g id="XMLID_1058_">
				<path id="XMLID_1161_" class="st5" d="M48.5,38.2c0,0-0.4-0.2-0.7,0.1c-0.2,0.1-0.3,0.4-0.3,0.9c0,0,0.2,0.6,0.7,0.2
					c0,0,0.3-0.2,0.6,0.1c0,0,1.2,0.7,1.9,0.1c0.2-0.2,0.6-0.7,0.4-1.4c-0.1-0.2-0.2-0.5-0.5-0.8c0,0-0.2-0.2-0.3-0.1
					c0,0-0.1,0.1,0,0.4c0.1,0.2,0.2,0.3,0.3,0.5c0,0,0.1,0.3,0,0.6c-0.1,0.1-0.2,0.3-0.5,0.3c0,0-0.4,0.1-0.7-0.2
					C49.5,38.8,48.9,38.4,48.5,38.2z"/>
				<path id="XMLID_1156_" class="st5" d="M56.1,33.7c-1.2-1.2-1.9-1.8-2.9-2c-2.1-0.4-2.9,0.8-3.1,0.5c-0.2-0.1,0.4-0.4,0.6-0.5
					c0.8-0.5,2-0.5,2-0.5c1.3,0,3,1.8,3,1.8c0.5,0.4,0.3-0.2,0.3-0.2c-0.4-0.4-1.5-1.4-1.5-1.4c-2.2-1.8-4.7,0.3-4.7,0.3
					c-0.4,0.3-0.5,0-0.5,0c-0.2-0.2-0.3,0-0.3,0.1c0,0.2,0.2,0.5,0.3,0.7c0.2,0.2,0.2,0.5,0.2,0.5c0,0.5,0.3,1,0.3,1
					c0.9,1.6,2.3,2.5,2.3,2.5c0.6,0.2,0.2-0.4,0.2-0.4c-0.7-0.5-1.2-1.2-1.2-1.2c-0.2-0.2,0-0.3,0-0.3c1.7,0.8,3.5-0.6,3.5-0.6
					c0.1-0.2,0.6,0,0.6,0c0.5,0.1,0.8,0.1,0.9,0C56.4,34,56.1,33.7,56.1,33.7L56.1,33.7z M51.1,34.1L51.1,34.1
					c-0.2,0.1-0.5-0.1-0.7-0.3c-0.2-0.2-0.1-0.4,0-0.5c0.2-0.1,0.4,0,0.4,0C51,33.5,51.3,34.1,51.1,34.1L51.1,34.1z M52.5,34.5
					L52.5,34.5c0,0-0.5,0.1-0.8-0.3c-0.1-0.1-0.3-0.4-0.4-1c0,0,0.1-0.4,0.3-0.1c0,0,0.2,1.1,0.7,1.1c0.5,0,0.8-0.6,0.8-1.1
					c0,0,0.2-0.2,0.3,0.1C53.4,33.1,53.2,34.5,52.5,34.5L52.5,34.5z M53.8,34.2L53.8,34.2c-0.4,0.1-0.5,0-0.3-0.2
					c0.1-0.2,0.3-0.8,0.3-0.8c0.3-0.3,0.8,0.3,0.8,0.3C54.7,33.9,54.1,34,53.8,34.2z"/>
				<g id="XMLID_1152_">
					<path id="XMLID_1155_" class="st6" d="M47.3,41.6c-0.4-0.3-0.7,0-0.7,0c-0.6,0.5-1.2,0-1.2,0c-0.1,0-0.2,0-0.2,0.3
						c0,0.4-0.1,1.2-0.1,1.5c0.1,0.6,0.4,0.1,0.4,0.1c0.2-0.5,0.7-0.5,0.7-0.5c0.2,0,0.4-0.1,0.7,0.1c0.5,0.2,1,0.1,1,0.1
						c0.6,0,1.4-0.4,1.4-0.4c1-0.2,1.6,0.5,1.6,0.5c0.2,0.2,0.3,0.2,0.4,0.1c0.1-0.1,0-0.4,0-0.4S51,41.8,51,41.6
						c-0.1-0.3-0.3-0.1-0.4,0c-0.6,0.4-1.2,0.1-1.2,0.1c-0.7-0.4-1.3,0-1.3,0C47.8,42,47.3,41.6,47.3,41.6z"/>
					<path id="XMLID_1154_" class="st6" d="M49.8,43.9c0.1-0.1,0.1-0.3,0-0.3c-0.1-0.1-0.3,0.1-0.3,0.1C49.1,43.9,48.5,44,48,44
						c-0.8,0-1.4-0.4-1.4-0.4c-0.4-0.1-0.3,0.2-0.3,0.2c0.3,0.4,1,0.7,1.8,0.7C49.3,44.5,49.8,43.9,49.8,43.9z"/>
					<path id="XMLID_1153_" class="st6" d="M49.7,45.6c-0.5-0.3-0.8-0.4-1.4-0.5c-1.1-0.1-1.7,0.6-1.7,0.6c-0.2,0.2,0,0.4,0,0.4
						c0.2,0.1,0.5-0.1,0.5-0.1c1-0.6,2.3,0,2.3,0c0.7,0.3,0.6,0.1,0.6,0.1C50.2,45.9,49.7,45.6,49.7,45.6z"/>
				</g>
				<g id="XMLID_1059_">
					<path id="XMLID_1151_" class="st6" d="M49,30.9c0,0,0.3,0.1,0.7-0.1c0,0,1.7-1,4.1-0.5c0,0,1.3,0.3,1.8,0.7
						c0,0,0.5,0.3,0.3-0.3c0,0-1.2-1.6-3.9-1.7c0,0-1.5-0.1-2.8,0.7C49.2,29.7,48.1,30.5,49,30.9z"/>
					<path id="XMLID_1060_" class="st6" d="M75.4,25.2l0,6.1c0,0-4.8-1.5-8-4.6c0,0,0.8,7.9,8,11.1l0,6.1c0,0,0.2,1-0.4,0.7
						c0,0-0.5-0.3-0.8,0.6c0,0-0.4,1-0.5,1.8c0,0-0.2,0.9-1.2,0.5c-0.5-0.1-1.4-0.9-2.2-1.7c0.7-0.9,0.9-1.7,0.8-2.3
						c0-0.2-0.1-0.8-0.3-1.3c-0.3-0.6-0.9-0.9-1.1-1c-0.8-0.2-1.5,0.2-1.5,0.2c-0.2,0.1-0.4,0.1-0.5,0c-0.3-0.2-0.4-0.7-0.4-0.7
						C67,40.4,65.7,37,65,34.7c-0.5-1.6-0.9-3.2-1.1-4.6c-0.1-0.3-0.1-0.7-0.2-0.8c0-0.1,0-0.1,0-0.2c0.2-0.4,0.5-1,0.5-1l6.4-11
						l-0.9,0L63.4,28c0,0-5.2-1.8-10.6-2.1C47.2,25.5,42,26.6,42,26.6l-6.8-9.6l-1.1,0l7.5,10.4c0.2,0.7,0.1,0.9,0.1,2.2
						c-0.1,1.3-0.1,2.2-0.4,3.3c-0.3,1.3-0.2,1.1-0.6,2.5c-0.1,0.4-0.4,0.3-0.4,0.3c-1.4-0.3-1.6,1-1.6,1c-0.2,1.9,1.4,1.6,1.4,1.6
						c1.1-0.1,1.7-1.6,1.7-1.6c0.6-0.5,0,2.6,0,2.6c-0.4,2.3-0.8,1.8-0.8,1.8c-1-2.1-2.4-1.1-2.4-1.1c-1.5,0.7-0.9,3.3-0.9,3.3
						c-2.5,2-14.6,8.2-14.6,8.2l0,15.9c2.9-1.7,5.6-4.4,7.7-7.4c3.9-5.2,6.1-10.5,6.1-10.5c0.4,0.6,2.4,2.2,2.4,2.2l0,20.3l0.3,0.3
						c0-0.8,1.1-3.4,2.2-5.3c1.2-2,2.9-4.3,2.9-4.3c0.2-0.4,1-0.2,1-0.2c0.6,0.1,0.4,0.5,0.4,0.5c-0.2,0.9-3,4.8-3,4.8
						c-1.1,1.6-1.7,4-1.7,4l-1.1,1.3l0.2,0.2L57,54.3c5-2.3,7.6-6,7.6-6c1,0.1,1.9-0.1,1.9-0.1c0.3-0.1,0.5-0.1,0.6,0.2
						c-1.1,1.4-7.5,9-9.3,11.1c-1.9,2.3-7.3,8.6-7.3,8.6l0.6,0.1l0.8-0.9l1.8,0l0.2-0.3c0,0-1.4,0-1.8,0L53,66l1.8,0l0.3-0.3
						c0,0-1.3,0-1.8,0l0.7-1l2,0l0.3-0.4c0,0-1.7,0-1.9,0l0.9-1l1.9,0l0.2-0.3c0,0-1.5,0-1.8,0l0.8-0.9l1.8,0l0.2-0.4
						c0,0-1.3,0-1.8,0l0.8-1l2.7,0.2l0.1,3.1l-0.8,0.9l-0.2-2.4l-0.3,0.3l0.2,2.5l-0.9,1l-0.1-2.4l-0.3,0.3l0.2,2.3l-0.8,0.9l0-2.4
						l-0.3,0.3l0,2.6l-0.7,0.8l-0.1-2.2l-0.2,0.2L56,69l-0.9,1.1l-0.1-2.2l-0.2,0.2l0.1,2.4l-1.3,1.7l0.3,0l1-1.2l1.9,0.1l0.3-0.3
						l-1.9-0.1l0.8-1l2,0.1l0.3-0.4l-2-0.1l0.7-0.9l2,0.1l0.4-0.4L57.3,68l0.8-1l2.1,0l0.3-0.4l-2.1-0.2l0.8-0.9l2.2,0l0.3-0.3
						l-2.1-0.1l0.8-1l3.1,0.2c0,0-0.3,1-0.4,1.8c-0.1,0.8-0.3,2.2-0.3,2.2l-0.2-2.1l-0.3,0.3l0.2,2l-0.8,1.1l-0.1-2.3l-0.3,0.4
						l0.1,2.2l-0.8,1.1l0-2.4l-0.3,0.3l-0.1,2.4l-0.9,1.2l0-2.4l-0.3,0.3l0,2.5l-0.8,1l0-2.5l-0.3,0.3l0.1,2.5l-1.1,1.3l0.5,0
						l0.7-0.9l1.9,0l0.2-0.3l-1.8,0l0.7-0.9l2-0.1l0.1-0.3h-1.8l0.9-1.1l2,0l0-0.3l-1.7,0l1-1.2l1,0.1c0,0-0.1,1.5-0.1,2.6
						c0,1.1,0.1,2.9,0.1,2.9l-0.4,0.3L62,74.2h-0.3l0.1,2.6l-0.6,0.8l-0.1-2.3l-0.2,0.2l0,2.5l-1.3,1.4l0.5,0.1l1.1-1.2l1.5,0
						c0,0,0.2,2.2,0.7,4.6c0.4,2,1.1,4.8,2.7,8.1c0.3,0.7,1.3,2.2,1.3,2.2s2.9-3.6,4.6-5.3c1.8-1.8,3.8-3.1,3.8-3.1l0,23.2l4.7,5.1
						l0-93.7L75.4,25.2L75.4,25.2z M41.6,36.4L41.6,36.4c-0.3,0.7-0.8,1.5-1.5,1.6c0,0-1,0.2-1-0.8c0,0-0.1-0.6,0.5-0.9
						c0,0,0.4-0.2,0.8,0.2c0,0,0.4,0.2,0.6-0.5c0,0,0.6-1.5,0.7-2.3c0,0,0.1-0.4,0.3-0.2C41.9,33.5,42.2,34.8,41.6,36.4L41.6,36.4z
						 M61.8,70.2L61.8,70.2l0.9-1.2l-0.1,1.2L61.8,70.2L61.8,70.2z M61.6,77.9L61.6,77.9l1-1.2l0,1.1L61.6,77.9L61.6,77.9z M68.1,28
						L68.1,28c0,0,5,4.5,11.7,4.5l0,5.8C79.8,38.4,70.9,38.4,68.1,28L68.1,28z M77.6,57L77.6,57c-0.2-0.3,0.1-0.4,0.1-0.4
						C77.9,56.5,79,56,79,56c0.7-0.3,0.7,0.6,0.7,0.6c-0.2,1.1-1.6,1.4-1.6,1.4c-0.6,0.1-0.5-0.3-0.5-0.3C77.8,57.4,77.6,57,77.6,57
						L77.6,57z M77.2,55L77.2,55c-0.4-0.3,0.1-0.5,0.1-0.5c0.5-0.1,1.6-0.7,1.6-0.7c0.8-0.3,0.8,0.7,0.8,0.7c0,0.9-1.7,1.5-1.7,1.5
						c-0.9,0.4-0.7-0.2-0.7-0.2C77.4,55.4,77.2,55,77.2,55L77.2,55z M76.6,50.4L76.6,50.4c0,0-0.2,0-0.1,0.2
						c0.1,0.1,0.2,0.3,0.2,0.6c0,0.4-0.3,0.8-0.7,0.8c-0.4,0-0.7-0.3-0.7-0.8c0-0.2,0.1-0.4,0.2-0.5c0,0,0.2-0.5,2.6-1.3
						c0,0,0.7-0.3,1.1,0.2c0,0,0.7,0.9-0.2,1.4c0,0-1.2,0.5-1.5,0.6c0,0-0.6,0.3-0.6-0.3C77,51.3,77.2,50.4,76.6,50.4L76.6,50.4z
						 M77.2,52.8L77.2,52.8c-0.4-0.7,0.4-0.7,0.4-0.7c0.4-0.1,0.8-0.4,1-0.5c0.7-0.3,0.8-0.1,0.8-0.1c0.5,0.7,0,1.4,0,1.4
						c-0.2,0.3-1.5,0.9-1.5,0.9c-0.6,0.3-0.6-0.2-0.6-0.2C77.5,53.2,77.2,52.8,77.2,52.8L77.2,52.8z M77.2,57.4L77.2,57.4
						c0,0.3-0.2,0.5-0.4,0.5c-0.2,0-0.4-0.2-0.4-0.5c0-0.3,0.2-0.5,0.4-0.5C77,56.9,77.2,57.1,77.2,57.4L77.2,57.4z M77.7,49.2
						L77.7,49.2c-0.6,0.3-1.6,0.5-1.6,0.5V38c0,0,0.9,0.4,1.8,0.6c0.7,0.1,1.9,0.3,1.9,0.3l0,9.4C79.8,48.2,79,48.7,77.7,49.2
						L77.7,49.2z M74.4,46.1L74.4,46.1c0.1-0.4,0.3-0.8,0.5-0.7c0.2,0,0.2,0.4,0.1,0.9c-0.1,0.4-0.3,0.8-0.5,0.7
						C74.4,46.9,74.4,46.5,74.4,46.1L74.4,46.1z M73.3,48.9L73.3,48.9c0,0,0.4-1.6,1.2-1.4c0,0,0.2,0.1,0.4-0.1
						c0.2-0.1,0.3-1.3,0.6-0.9c0,0,0.2,1.3-0.3,1.9c0,0,0.1,1.5,0,2.2c0,0.1-0.1,0.4-0.1,0.5c0.1,0.6,0.3,1.9,0.1,2.1
						c0,0-0.4,1.2-0.2,1.5c0,0,0.6-0.6,0.5,0.1c0,0-0.1,1.2,0.2,1.7l-0.1,0.9c0,0,0.3,1.3-1.2,0.5c0,0-0.7-0.2-0.8-2.5
						c0,0,0-1.9-0.3-2.8C73.2,52.7,72.7,50.5,73.3,48.9L73.3,48.9z M72,48.1L72,48.1c-0.2,0.7-0.6,1.1-1,1.3l-2-2.2
						c0.1-0.4,0.6-0.6,0.8-0.6C69.9,46.5,70.4,46.4,72,48.1L72,48.1z M70.1,50.4L70.1,50.4c0,0.5-0.2,0.8-0.7,1.1l-2.1-2.3
						c0.1-0.4,0.4-0.9,0.8-0.8L70.1,50.4L70.1,50.4z M62.9,28.5L62.9,28.5c0.4-0.1,0.5,0.5,0.6,0.8c0,0,0.8,3.8,1.8,7.3
						c0.6,1.8,1.7,4.9,2.2,5.7c0,0-0.1,0.2-0.2,0.4c-0.1,0.2-0.1,0.6-0.1,0.6s-1.1-1.5-2.4-5.7c-0.7-2.5-1.7-5.6-2.1-8.3
						C62.7,29.2,62.4,28.6,62.9,28.5L62.9,28.5z M61.8,28.2L61.8,28.2c0.3,0,0.6,1.5,0.6,1.5c0.4,2.4,2.1,8.1,2.1,8.1
						c1,3.5,2.8,6.5,2.8,6.5c0.5,0.6,0.8,0.9,1.4,0.9c1.3,0,1.4-1.2,1.4-1.2c0-1.4-1-1.3-1-1.3c-1.2,0-0.8,1.1-0.8,1.1
						c0.2-0.4,0.4-0.6,0.7-0.6c0.4,0,0.7,0.4,0.7,0.4c0.2,1.3-0.9,1.4-0.9,1.4c-0.6-0.1-0.9-0.4-1.2-1c-0.3-1.2,0.6-1.7,0.6-1.7
						c2.3-1.3,2.7,1.5,2.7,1.5c-0.1,2.5-1.9,2.5-1.9,2.5c-1.2,0-2.4-1.4-3.1-2.8c-1.2-2.7-1.4-3.4-2.1-5.5c-0.7-2.1-2.3-9.2-2.3-9.2
						C61.3,28.1,61.8,28.2,61.8,28.2L61.8,28.2z M60.6,27.8L60.6,27.8c0.3,0,0.4,0.4,0.4,0.4l1.6,6c1,4.6,2.8,8.6,2.8,8.6
						c0.5,1,0.8,1.6,1.2,2.3c0.8,0.9,1.6,1.2,1.6,1.2c0.9,0.3,0.4,0.8,0.4,0.8c-0.9,0.4-1.8-0.6-1.8-0.6c-2-1.6-4-8.5-4-8.5
						c-0.3-0.8-2.4-9.4-2.4-9.4C60.3,28.2,60.3,27.8,60.6,27.8L60.6,27.8z M56.4,27.1L56.4,27.1c0.3,0,0.4,0.4,0.4,0.6
						c0,0.1,0.6,3.8,1.7,8.4c0.5,1.9,1.1,3.8,1.9,5.8c0.7,1.8,1.4,3.7,2.1,5c0.1,0.2,0.3,0.5,0.1,0.6c-0.3,0.2-0.5-0.2-0.7-0.5
						c-0.8-1.5-1.5-3.2-2.2-5c-1.3-3.6-2.3-7.4-2.9-10.1c-0.5-2.4-0.7-3.9-0.7-4C56.1,27.3,56.2,27.1,56.4,27.1L56.4,27.1z
						 M48.9,53.5L48.9,53.5c1-1.4,0.6-2.7,0.4-2.8c-0.4-0.3-0.7-0.3-0.9-0.3c-0.7,0.1-1.1,1.3-1.1,1.3c-0.6,1.4-0.6,3.7-0.6,4.6
						l-1.2,1.5l-0.2-2.2l-1,0.1c0,0,0.5-0.7,0.9-1.7c0.3-0.5,0.6-1.1,0.8-1.6c0,0,0.3-0.9,0.8-1.7c0.5-0.8,1-1.6,1.7-1.6
						c0,0,2.3,0,2,2.9c0,0-0.2,0.7-0.4,1.3c-0.2,0.5-0.4,1.1-0.4,1.2c0,0-0.9,2.4-0.9,3.3l-0.6-1.2l-1.3,1.5v-1.6
						C47.3,55.9,48.4,54.4,48.9,53.5L48.9,53.5z M47.8,51.4L47.8,51.4c0,0,0.5-1.1,1.3-0.4c0,0,0.5,0.9-0.5,2.2c0,0-1.1,1.9-1.6,2.2
						C47,55.5,46.9,53.7,47.8,51.4L47.8,51.4z M40.4,45.5L40.4,45.5c1.1,0,1.9-0.9,1.9-0.9c0.6-0.8,0.7-0.9,0.7-0.9
						c0.5-0.4,0.6,0.5,0.6,0.5c0,0.6-0.9,1.1-1.3,1.5c-0.8,0.6-1.6,0.7-1.6,0.7c-0.6,0-0.8-0.7-0.8-0.7
						C39.8,45.5,40.4,45.5,40.4,45.5L40.4,45.5z M38.9,44.7L38.9,44.7c-0.1-0.4,0.6-0.2,0.6-0.2c1.5,0,2.4-1.3,2.4-1.3
						c0.7-1,0.7-1.1,0.7-1.1c0.4-0.5,0.5,0.5,0.5,0.5c0,0.7-0.6,1.5-1.1,1.9c-0.9,0.8-1.9,0.8-1.9,0.8
						C39.1,45.4,38.9,44.7,38.9,44.7L38.9,44.7z M41.6,46.4L41.6,46.4c0.9-0.2,1.3-0.8,1.3-0.8c0.4-0.4,0.8-0.7,0.8-0.7
						c0.5-0.2,0.5,0.4,0.5,0.4c0,0.5-0.8,0.9-1.2,1.2c-0.7,0.6-1.2,0.6-1.2,0.6C41,47.3,41,46.8,41,46.8
						C40.9,46.5,41.6,46.4,41.6,46.4L41.6,46.4z M45,47.9L45,47.9c0,0-0.4,0.3-1,0.2c0,0-0.3-0.2,0-0.5c0,0,0.4-0.3,0.6-0.5
						c0,0,0.5-0.5,0.8-0.1C45.4,47.1,45.8,47.4,45,47.9L45,47.9z M45.8,47.8L45.8,47.8c0.7-0.1,0.7,0.4,0.7,0.4c-0.5,0.3-1,0-1,0
						C45.3,48,45.8,47.8,45.8,47.8L45.8,47.8z M43.9,47.4L43.9,47.4c-0.5,0.5-0.8,0.5-0.8,0.5c-0.7,0.1-0.7-0.3-0.7-0.3
						c0-0.2,0.5-0.5,0.5-0.5c0.6-0.4,0.8-0.5,0.8-0.5c0.3-0.4,0.7-0.6,0.7-0.6c0.4-0.2,0.4,0.5,0.4,0.5
						C44.7,46.8,44.1,47.1,43.9,47.4L43.9,47.4z M42.7,48.3L42.7,48.3c0.2,0.1,0.6,0.2,0.9,0.2c1.6,0.3,3.5,0.3,3.5,0.3
						c0.4-0.1,0.4,0.1,0.4,0.3c0,0-0.7,1.2-0.9,1.3c-0.1,0.1-0.7-0.1-1.1-0.3c-0.7-0.2-1.8-0.8-2.7-1.5c-0.2-0.1-0.3-0.3-0.3-0.3
						S42.5,48.2,42.7,48.3L42.7,48.3z M49.8,49L49.8,49c-0.2-0.1-0.2-0.1-0.2-0.2c0-0.2,0.2-0.2,0.2-0.2c1.5,0,2.8-0.5,3.8-1.1
						c1.5-0.9,3.1-2.7,3.1-2.7C57.5,46.2,59,47,59,47c0.4,0.2-0.1,0.5-0.1,0.5c-1.1,0.9-2.5,1.8-3.9,2.4c-2.1,0.8-4.1,0.9-4.1,0.9
						c-0.1-0.4-0.2-0.7-0.3-0.9C50.3,49.3,49.8,49,49.8,49L49.8,49z M58.3,46L58.3,46c-0.6-0.5-1.1-1.2-1.5-2.3
						c-0.5-1.1-0.4-2.4-0.2-3.2c0.3-1.2,1-2.1,1.2-2.3c0.1-0.2,0.3-0.3,0.4-0.1c0.2,0.2,0.3,0.6-0.1,1.1c-0.3,0.4-0.8,1.2-0.8,2.3
						c0,0.5,0,1.1,0.3,1.9c0.8,2.5,2.9,2.6,3.1,2.6c0.4,0,0.8,0.4,0.8,0.8c0,0.3-0.6,0.2-0.9,0.2C60.2,47,59.2,46.7,58.3,46L58.3,46
						z M58.5,40.6L58.5,40.6c0,0-0.6,1.3-0.1,2.3c0.3,0.7,0.8,1.3,1.9,1.6c0.4,0.1,0.5,0.6,0.4,0.8c-0.1,0.2-0.6,0.1-0.9,0.1
						c-0.9-0.2-1.7-1.3-2-2.3c-0.6-1.6,0.1-3.1,0.1-3.1c0.1-0.2,0.4-0.6,0.6-0.5C58.7,39.6,58.9,40.1,58.5,40.6L58.5,40.6z M59,41
						L59,41c0.1,0.6,1,2.6,1,2.6c0.2,0.6-0.2,0.4-0.2,0.4c-1.7-0.9-1.2-2.9-1.2-2.9C58.8,40.6,59,41,59,41L59,41z M42.2,27.5
						L42.2,27.5c0.6-0.2,1.3-0.3,2-0.4c1.1-0.1,2.4-0.3,4-0.4c2.1-0.1,4.6-0.1,7.4,0.3c0.2,0.1,0.2,0.4,0.2,0.4
						c0.2,2,0.7,3.9,1.1,5.6c0.6,2.6,1.1,4.5,1.1,4.5c-3.2,3.1-1.4,6.9-1.4,6.9c-0.8,1.3-3.3,2.6-3.3,2.6c-4.7,2.5-6.9,0.5-6.9,0.5
						c-1.9-1.4-3-4.1-3.4-6.7c-0.5-3.1-0.6-5.7-0.6-5.7c-0.1-0.4,0.4-0.3,0.4-0.3c0.7,0.7,2.7,0.4,2.7,0.4c-0.1,0.5-0.7,0.9-0.7,0.9
						c-0.5,0.4-0.1,0.5-0.1,0.5c0.6-0.2,1.3-1,1.3-1c0.2-0.3,0.4,0,0.4,0c-0.1,0.7-0.7,3.3-0.7,3.3C45.3,40,46,39.9,46,39.9
						c1.1,0.2,1.6,0.6,1.6,0.6c0.3,0.4,0.3,0.1,0.3,0.1c0.2-1.2-1.5-1.5-1.5-1.5c-0.7-0.1-0.3-1.3-0.3-1.3c0.3-1.2,0.5-2.4,0.7-3.3
						c0.2-1.7,0.2-2.8,0.2-2.8c0.1-2-1.7-2.6-1.7-2.6c-1.3-0.5-2.6,0.4-2.6,0.4c-0.2,0.2-0.4,0.3-0.5,0
						C42.1,29.4,42.2,27.5,42.2,27.5L42.2,27.5z M42.3,33.8L42.3,33.8c0-0.2,0.1-0.4,0.2-0.4c0.2,0,0.3,0.2,0.3,0.2
						c0.3,0.7,0.1,0.8,0.1,0.8C42.5,34.4,42.3,33.8,42.3,33.8L42.3,33.8z M43.5,33.5L43.5,33.5c0,0,0.1,0.4,0.4,0.7
						c0.1,0.2,0.5,0.3,0.7,0c0,0,0.2-0.3,0.3-0.8c0,0,0.2-0.3,0.3,0c0,0,0,0.7-0.5,1.1c-0.3,0.3-0.8,0.3-1.2-0.1
						c0,0-0.3-0.1-0.4-0.9C43,33.2,43.3,33.1,43.5,33.5L43.5,33.5z M45.2,34.4L45.2,34.4c0.2-0.1,0.3-0.9,0.3-0.9
						c0.5-0.2,0.6,0.4,0.6,0.4C46,34.6,45.2,34.4,45.2,34.4L45.2,34.4z M42.1,32.2L42.1,32.2c-0.1-0.3-0.1-1,0.2-1.3
						c0,0,0.5-0.8,2.2-0.7c0,0,1.6,0.1,2.1,1.9c0,0,0.1,0.5-0.4,0.1c-0.1-0.1-0.6-0.6-1.4-0.9c-0.5-0.2-1.2-0.2-2.1,0.2
						c0,0-0.6,0.4-0.1,0.4c0,0,1.7-1,3.2,0.4c0,0,0.1,0.4-0.4,0.1c0,0-1-0.9-2.6,0C42.8,32.4,42.2,32.7,42.1,32.2L42.1,32.2z
						 M38,42.1L38,42.1c0,0,0.2-2.2,2.1-1.6c0,0,0.9,0.4,0.7,1.6c0,0-0.1,0.6-0.8,0.7c0,0-0.5,0.2-0.9-0.5c0-0.2-0.1-0.4,0-0.7
						c0,0,0.1-0.1,0.2-0.2c0.2-0.1,0.3-0.2,0.3-0.3c0,0-0.2-0.3-0.6,0.1c0,0-0.5,0.7-0.1,1.3c0,0,0.3,0.6,0.9,0.6
						c0.4,0,0.7-0.1,1.2-0.7c0,0,0.6-1,0.7-1.4c0.2-0.4,0.4-1.4,0.4-1.4s0-0.2,0.2-0.3c0.1,0,0.2,0,0.3,0.2c0,0,0.3,1.1-0.3,2.6
						c0,0-0.5,0.9-1.2,1.5c-0.5,0.4-1,0.6-1.7,0.5c0,0-0.8-0.1-1.2-0.9C38,43,37.9,42.6,38,42.1L38,42.1z M34.6,46.2L34.6,46.2
						c-0.3,2-3.2,7.2-5.9,10.8c-3.3,4.4-5,5.5-5,5.5l0-1.7c1-1,3-3.1,5-5.9c1.9-2.5,4.1-7.1,4.5-8L34.6,46.2L34.6,46.2z M32.6,47.3
						L32.6,47.3c-0.4,1-2,4.5-4.2,7.4c-2.2,2.9-3.4,4.6-4.7,5.5l0-2.4c0.6-0.8,1.8-2.1,2.9-3.7c1.4-1.9,2.7-4,3.1-5.3L32.6,47.3
						L32.6,47.3z M29.1,49.2L29.1,49.2c-0.4,0.9-1.3,2.6-2.6,4.4c-0.8,1.2-1.7,2.4-2.9,3.4l0-1.7c0,0,1.3-1.5,1.9-2.4
						c0.6-0.9,1.5-2.5,1.5-2.5L29.1,49.2L29.1,49.2z M23.7,52.3L23.7,52.3l2.4-1.3c-0.6,1.9-2.4,3.6-2.4,3.6L23.7,52.3L23.7,52.3z
						 M35.8,50.7L35.8,50.7c0,0-1.1,0.5-1.5,0.7c0,0.5,0.1,1.9,0.1,1.9c0,0.2-0.1,0.4-0.3,0.5c0,0-1.1,0.5-1.5,0.6
						c0,0.5,0,2.2,0,2.2c0,0.2-0.2,0.4-0.4,0.5c0,0-1.1,0.2-1.6,0.3c0,0.5-0.1,2.1-0.1,2.1c0,0.2-0.2,0.4-0.4,0.5
						c0,0-1.1,0.1-1.6,0.2c-0.1,0.5-0.3,1.9-0.3,1.9c0,0.2-0.2,0.4-0.5,0.4c0,0-1.1,0-1.6,0c-0.1,0.5-0.4,1.7-0.4,1.7
						c0,0.2-0.2,0.4-0.5,0.4l-1.1,0c-0.3,0-0.5-0.2-0.5-0.5c0,0,0,0,0,0c0-0.3,0.2-0.5,0.5-0.5c0,0,0.4,0,0.8,0
						c0.1-0.5,0.4-1.7,0.4-1.7c0.1-0.2,0.2-0.4,0.5-0.4c0,0,1.1,0,1.6,0c0.1-0.6,0.3-1.9,0.3-1.9c0-0.2,0.2-0.4,0.4-0.4
						c0,0,1-0.1,1.5-0.2c0-0.6,0.1-2,0.1-2c0-0.2,0.2-0.4,0.4-0.4c0,0,1.1-0.2,1.6-0.3c0-0.6,0-2.2,0-2.2c0-0.2,0.1-0.4,0.3-0.5
						c0,0,1.1-0.5,1.5-0.6c0-0.5-0.1-1.9-0.1-1.9c0-0.2,0.1-0.4,0.3-0.4c0,0,1.1-0.5,1.5-0.7c0-0.5-0.1-1.8-0.1-1.8c0,0,0,0,0,0
						c0-0.3,0.2-0.5,0.4-0.5c0.3,0,0.5,0.2,0.5,0.4l0.2,2.1c0,0,0,0,0,0C36,50.5,35.9,50.6,35.8,50.7L35.8,50.7z M35,45.9L35,45.9
						l3.1-1.9c3.1,5.3,8.4,6.8,8.4,6.8s-0.6,1.3-0.9,1.9c-0.3,0.6-0.8,1.6-0.8,1.6C38.3,52.7,35,45.9,35,45.9L35,45.9z M39.8,52.3
						L39.8,52.3c0,0,0.1,0.1,0.2,0.2l-0.2,0.2L39.8,52.3L39.8,52.3z M39.8,53.2L39.8,53.2l0.6-0.5c0.1,0.1,0.3,0.2,0.4,0.3l-1,0.9
						L39.8,53.2L39.8,53.2z M39.8,54.4L39.8,54.4l1.4-1.2c0.2,0.1,0.4,0.2,0.6,0.4l-2,1.6L39.8,54.4L39.8,54.4z M39.8,55.8
						L39.8,55.8l2.4-2c0.2,0.1,0.4,0.2,0.6,0.3l-3,2.5L39.8,55.8L39.8,55.8z M39.8,57.3L39.8,57.3l3.4-3c0.3,0.1,0.5,0.2,0.7,0.3
						L39.8,58L39.8,57.3L39.8,57.3z M39.8,58.4L39.8,58.4l4.5-3.6c0,0-0.2,0.4-0.5,0.8c-0.2,0.3-0.5,0.6-0.8,1l-3.3,2.5L39.8,58.4
						L39.8,58.4z M39.8,59.9L39.8,59.9l2.8-2.3c-0.1,0.3-0.2,0.6-0.2,0.9l-2.6,2.1L39.8,59.9L39.8,59.9z M39.8,61.2L39.8,61.2l2.6-2
						c0,0.3,0,0.5,0,0.8l-2.6,2.2L39.8,61.2L39.8,61.2z M39.8,62.6L39.8,62.6l2.7-2.3c0.1,0.2,0.2,0.4,0.3,0.6l-3,2.5L39.8,62.6
						L39.8,62.6z M39.8,64L39.8,64l3.2-2.7c0.1,0.2,0.2,0.4,0.4,0.5l-3.6,3.1L39.8,64L39.8,64z M39.8,65.4L39.8,65.4l2.9-2.4
						c-0.3,0.5-0.6,1.1-1,1.7l-1.9,1.3L39.8,65.4L39.8,65.4z M39.8,66.7L39.8,66.7l1.3-0.9c-0.6,1-1.1,1.9-1.3,2.1L39.8,66.7
						L39.8,66.7z M43.9,63.9L43.9,63.9c-0.2,0.4-0.6,0.8-1,1.4c0,0-0.7,1-1.5,2.4c-0.5,0.9-1,1.9-1.4,2.8L39.9,69c0,0,0.4-1,1.1-2.2
						c0.9-1.7,2.1-3.4,2.4-3.8c0,0,0.3-0.4,0.6-0.4c0.1,0,0.3,0.1,0.4,0.3C44.3,62.8,44.4,63,43.9,63.9L43.9,63.9z M45.6,62.5
						L45.6,62.5c-1.6,0-3-1.5-3-3.4c0-1.6,1-3.1,2.3-3.1l0.3,2.5l1.2-1.3l0.1,1.8l1.4-1.7c0.5,0.1,0.6,1.1,0.6,1.8
						C48.6,61,47.3,62.5,45.6,62.5L45.6,62.5z M42.4,71L42.4,71c0,0,0-0.3,0.2-1l0.3,0.4L42.4,71L42.4,71z M43.2,70L43.2,70
						l-0.4-0.5c0.1-0.2,0.2-0.3,0.3-0.5l0.5,0.6L43.2,70L43.2,70z M43.9,69.2L43.9,69.2l-0.6-0.7c0.1-0.2,0.2-0.4,0.4-0.6l0.6,0.8
						L43.9,69.2L43.9,69.2z M44.6,68.4L44.6,68.4l-0.6-0.9c0.1-0.2,0.2-0.3,0.3-0.5l0.8,0.9L44.6,68.4L44.6,68.4z M45.4,67.4
						L45.4,67.4l-0.7-0.9c0.2-0.2,0.3-0.4,0.5-0.7l0.7,1L45.4,67.4L45.4,67.4z M46.2,66.5L46.2,66.5c-0.2-0.4-0.5-0.8-0.7-1.1
						c0.1-0.2,0.3-0.4,0.5-0.7l0.8,1.2L46.2,66.5L46.2,66.5z M47,65.5L47,65.5c-0.2-0.4-0.6-0.9-0.8-1.2c0.1-0.2,0.3-0.5,0.4-0.7
						l1,1.3L47,65.5L47,65.5z M47.8,64.5L47.8,64.5c-0.3-0.4-0.8-1.1-1.1-1.4c0-0.2,0-0.3-0.1-0.4c0,0,0.2,0,0.5-0.2l1.1,1.4
						L47.8,64.5L47.8,64.5z M48.5,63.7L48.5,63.7c-0.3-0.5-0.7-1.1-1-1.4c0.2-0.2,0.4-0.3,0.6-0.6l0.9,1.3L48.5,63.7L48.5,63.7z
						 M49.4,62.7L49.4,62.7c-0.3-0.4-0.7-1-1-1.3c0.1-0.2,0.3-0.4,0.4-0.7l1.1,1.4L49.4,62.7L49.4,62.7z M50.1,61.8L50.1,61.8
						l-1.3-1.6c0.1-0.4,0.2-0.9,0.1-1.3l1.8,2.2L50.1,61.8L50.1,61.8z M51.1,60.7L51.1,60.7l-2-2.5c0-0.2,0.1-0.6,0.1-1l2.4,3
						L51.1,60.7L51.1,60.7z M51.9,59.7L51.9,59.7c-0.8-1-2.6-3.2-2.6-3.2s0.1-0.6,0.2-0.8c0,0,0,0,0.1,0l2.6,3.5L51.9,59.7
						L51.9,59.7z M52.7,58.8L52.7,58.8l-2.4-3c0.3,0,0.7,0,1.1,0l1.9,2.4L52.7,58.8L52.7,58.8z M53.5,57.8L53.5,57.8l-1.5-2.1
						c0.3,0,0.7,0,1-0.1l1,1.6L53.5,57.8L53.5,57.8z M54.3,56.9L54.3,56.9l-0.9-1.3c0.3,0,0.6-0.1,0.8-0.2l0.5,1L54.3,56.9
						L54.3,56.9z M55,56L55,56l-0.4-0.7c0.2-0.1,0.4-0.1,0.6-0.2l0.2,0.4L55,56L55,56z M57.7,53.5L57.7,53.5
						c-4.7,2.4-8.1,1.7-8.1,1.7s0.5-1.6,0.7-2c0.5-0.9,0.5-1.9,0.5-1.9s3.1-0.3,4.6-1.1c2.4-1.2,4.4-2.9,4.4-2.9l4.2,1
						C62.2,51,59.3,52.8,57.7,53.5L57.7,53.5z M64.2,47.9L64.2,47.9c-0.3,0.1-0.8-0.2-0.9-0.4c-1.2-2-2.9-6.2-4.1-10.6
						c-1.3-4.7-2-9.2-2-9.2c0-0.2,0-0.6,0.3-0.6c0.3-0.1,0.6,0.3,0.6,0.4c0,0,0.6,4.4,1.8,9.1c0.7,2.4,1.5,4.7,2.3,6.6
						c0.5,1.2,1.5,3.2,2.1,4.1C64.4,47.6,64.3,47.8,64.2,47.9L64.2,47.9z M65.9,47.9L65.9,47.9c-0.1,0.1-0.6,0.2-1-0.2
						c-1.1-1-2.8-4.7-3.7-7.6c-0.3-1-0.7-2.1-1-3.2c-1.2-4.6-1.8-8.6-1.9-9.1c0-0.3,0-0.4,0.1-0.5c0.2,0,0.5,0.2,0.5,0.3
						c0.1,0.3,0.6,3.5,1.6,7.4c0.7,2.7,1.6,5.6,2.6,8c0.8,1.9,1.6,3.4,2.5,4.3C65.9,47.6,66,47.8,65.9,47.9L65.9,47.9z M65.9,47.1
						L65.9,47.1c0,0-1.7-1.7-3.4-6.8c0,0-1.7-5.3-2.5-9c0,0-0.5-2.6-0.6-3.4c0,0-0.1-0.6,0.4-0.3c0,0,0.2,0,0.3,0.5
						c0,0,0.7,3.9,1.9,8.1c0,0,0.5,1.9,1.3,4.2c0.9,2.5,2.1,5.6,4.1,6.7c0,0,0.7,0.2,0.3,0.5C67.7,47.7,67,48.2,65.9,47.1L65.9,47.1
						z M66.4,50.4L66.4,50.4l2.3,2.1c-0.2,0.6-0.2,0.9-0.8,1.1l-2.2-2.4C65.6,50.8,66,50.3,66.4,50.4L66.4,50.4z M64.8,52.2
						L64.8,52.2l2.3,2.6c-0.1,0.7-0.1,1-0.6,1.1L64,53.2C64.1,52.7,64.3,52.4,64.8,52.2L64.8,52.2z M63.1,54.3L63.1,54.3l2.9,3.2
						c0.1,0.4-0.3,1-0.8,0.9l-2.8-3.3C62.4,54.8,62.7,54.3,63.1,54.3L63.1,54.3z M63.5,64L63.5,64l-4.4-5.1c0-0.2,0.1-0.4,0.2-0.6
						c0.2-0.2,0.4-0.2,0.6-0.2l3.9,4.5C63.9,63.4,63.8,63.7,63.5,64L63.5,64z M60.7,57L60.7,57c0.1-0.4,0.5-0.8,0.8-0.8l3.3,3.6
						c0,0.6-0.1,1-0.5,1.3L60.7,57L60.7,57z M68.6,91L68.6,91c0,0-2.1-3.2-3.4-9.4c-0.6-2.9-1-6.1-0.8-10.6c0.2-3.7,1-6.8,1.9-9.3
						c2.5-7.7,6.1-10.9,6.1-10.9l0.7,2.9l0.2,1.7c0,0-1.8,1.7-3.7,6.6c-1.3,3.3-1.9,7-2.1,10.8c-0.1,1.9,0.2,4.7,0.5,6.5
						c1,5.7,3,9.1,3,9.1L68.6,91L68.6,91z M75.7,84.2L75.7,84.2c0,0-1.2,0.9-1.7,1.3c-0.5,0.4-1.6,1.3-1.6,1.3s-1-1.8-1.7-3.9
						c-0.7-2.1-1.4-5.1-1.5-8.3c-0.2-8.2,2.4-13,4.3-16.1c0,0,0.4-0.3,0.9-0.2c0,0,0.6,0.2,1,0.5c0.2,0.1,0.4,0.3,0.4,0.5L75.7,84.2
						L75.7,84.2z M75.7,53.4L75.7,53.4c0-0.4,0.3-0.7,0.6-0.7c0.4,0,0.6,0.3,0.6,0.7c0,0.4-0.3,0.7-0.6,0.7
						C76,54.1,75.7,53.8,75.7,53.4L75.7,53.4z M75.8,55.4L75.8,55.4c0-0.3,0.2-0.6,0.5-0.6c0.3,0,0.5,0.3,0.5,0.6
						c0,0.3-0.2,0.6-0.5,0.6C76.1,56,75.8,55.8,75.8,55.4L75.8,55.4z M79.9,111.2L79.9,111.2l-3.6-3.7l0-49c0,0,0.8,0.2,1.1,0.2
						c1.5,0,2.4-1,2.4-1V111.2L79.9,111.2z M79.9,32L79.9,32c-0.9,0-1.6,0-2.5-0.1c-0.9-0.2-1.4-0.3-1.4-0.3v-6.1l3.9-4.6V32z"/>
				</g>
			</g>
		</g>
		<g>
			<g id="XMLID_418_">
				<path id="XMLID_435_" class="st7" d="M36.5,50.2l0,18.4l2,2.4l0-20.1c0,0-1-0.9-1.6-1.8C36.9,49.2,36.8,49.6,36.5,50.2z"/>
				<path id="XMLID_429_" class="st7" d="M80,33.8c-5.1,0.3-9.6-2.7-9.6-2.7c2.7,6.1,9.6,6.2,9.6,6.2V33.8L80,33.8z M72.9,33.5
					L72.9,33.5c-0.2,0-0.4-0.2-0.4-0.4c0-0.2,0.2-0.4,0.4-0.4c0.2,0,0.4,0.2,0.4,0.4C73.2,33.3,73.1,33.5,72.9,33.5L72.9,33.5z
					 M74.3,34.6L74.3,34.6c-0.3,0-0.5-0.3-0.5-0.6c0-0.3,0.2-0.6,0.5-0.6c0.3,0,0.5,0.3,0.5,0.6C74.8,34.4,74.6,34.6,74.3,34.6
					L74.3,34.6z M76.4,35.5L76.4,35.5c-0.4,0-0.6-0.3-0.6-0.7c0-0.4,0.3-0.7,0.6-0.7c0.4,0,0.6,0.3,0.6,0.7
					C77,35.2,76.7,35.5,76.4,35.5L76.4,35.5z M78.6,36.2L78.6,36.2c-0.4,0-0.8-0.4-0.8-0.9c0-0.5,0.4-0.9,0.8-0.9
					c0.4,0,0.8,0.4,0.8,0.9C79.4,35.8,79.1,36.2,78.6,36.2z"/>
				<path id="XMLID_428_" class="st7" d="M80,22.1l-3.4,4l0,5.7c0,0,0.4,0.1,0.6,0.2c0.2,0,0.7,0.1,0.7,0.1s0.1-2-0.2-2.9
					c0,0-0.2-0.7-0.3-1.6c-0.1-0.8,0-1.7,0.3-2.2c0,0,0.7-1.3,1.1-0.7c0,0,0,0.1,0,0.3c-0.1,0.5-0.2,1.4-0.2,1.9
					c0,0.6,0,1.4,0.3,2.3c0,0,0.2,0.6,0.2,1.2c0.1,0.7,0.1,1.4-0.2,1.7c0.4,0,0.8,0,1.1,0L80,22.1z"/>
				<path id="XMLID_427_" class="st7" d="M76.8,49.7l0.8-0.3c0,0,0.4-1.7,0.5-3.7c0.1-1.1,0.1-2.3-0.1-3.4c0,0-0.8-3.5-0.2-3.5
					c0,0,0.7-0.3,1,1c0,0,0.6,2.2,0.6,4.9c0,1.3-0.1,3-0.5,4.3l1.1-0.4v-9.7c0,0-0.8-0.1-1.6-0.2c-0.7-0.1-1.3-0.3-1.6-0.4
					L76.8,49.7z"/>
				<path id="XMLID_426_" class="st7" d="M40.5,48.6c-1.2-1.1-2.4-2.4-3.4-4.2l-1.4,0.8c0,0,1.6,2.9,4.6,5.4
					c1.4,1.1,3.1,2.3,5.1,2.9l0.8-1.6C46.2,51.9,43.3,51.1,40.5,48.6z"/>
				<path id="XMLID_425_" class="st7" d="M50.4,52.4c0,0,2.1,0.3,5.7-1.3c2.4-0.9,4.2-2.7,4.9-3.5l2.2,0.5c0,0-1.9,2.6-6.4,4.6
					c-4.6,2-7,1.4-7,1.4S50.2,53.2,50.4,52.4z"/>
				<path id="XMLID_424_" class="st7" d="M62.1,50.8c-0.8,0.7-1.9,1.6-2.2,1.7l-18.4,22l1.2,1.5l23.4-27.7c0,0-0.4,0.1-0.8,0.1
					c-0.3,0-0.9-0.1-0.9-0.1S63.7,49.4,62.1,50.8z"/>
				<polygon id="XMLID_423_" class="st7" points="57.1,60.6 58.8,58.7 63.8,64.4 60.3,64.3 60.2,60.9 				"/>
				<g id="XMLID_419_">
					<path id="XMLID_422_" class="st7" d="M79.8,103.8c-0.4,1.5-0.5,5.3-0.5,5.3c-1.6-0.8-1-3.2-1-3.2c1.2-4.4,0.3-6.3,0.3-6.3
						c-1.4-2.8-0.5-4.8-0.5-4.8c0.6-1.8,0.8-3.1,0.9-4c0.1-1.5-0.3-2.2-0.3-2.2c-0.2-1-0.5-1.9-0.6-2.6c-0.3-2-0.2-3-0.2-3
						c0.1-1.2,0.6-2.2,0.8-3c0.4-2.7-0.4-4-0.4-4c-1.1-2.8-0.4-5.3-0.4-5.3c0.2-1.2,0.6-2.2,0.7-3.2c0.2-2-0.3-3.4-0.3-3.4
						c-1.2-4.6-0.1-5.6-0.1-5.6s-0.5,0-0.6,0c-0.1,0-0.4,0-0.4,0l0,48.9l2.9,3V102C79.9,103,79.8,103.8,79.8,103.8z"/>
					<path id="XMLID_421_" class="st7" d="M79.2,98.2c0.3,0.7,0.8,1.1,0.8,2v-8.1C78.3,95.6,79.2,98.2,79.2,98.2z"/>
					<path id="XMLID_420_" class="st7" d="M79.1,58.1c-0.2,0.4-0.3,1.7-0.2,2.8c0,1.1,0.2,2.1,0.2,2.1c0.2,0.9,0.4,1.6,0.5,2.5
						c0.1,0.6,0.1,1.1,0.1,1.5c0,0.8-0.1,1.3-0.1,1.3c-0.1,0.6-0.2,1-0.4,1.4c-0.7,2.7-0.2,3.9-0.2,3.9c1.6,4.3,0.8,6.9,0.8,6.9
						c-1.1,2.4-0.6,5-0.6,5c0.4,1,0.8,2.4,0.8,3.8V57.3C79.6,57.8,79.1,58.1,79.1,58.1z"/>
				</g>
			</g>
		</g>
		<g>
			<g>
				<g>
					<path id="XMLID_195_" class="st3" d="M36.5,74.3c0.2,2.2,0.1,2.5,0.1,3.3c0,1.2,0,5-0.6,7.6c-0.1,0.6-0.4,1.9-0.4,1.9l0.4,0.4
						l2.9,0c0,0,0,0,0,0L39,91l3,0.3l6.7-8L46.1,83L46,79.4l-3.1-0.1l-0.3-3.3L40,75.6l-0.3-3.5L37.3,72l-0.4-3.2l-1.2,0.1
						C35.7,68.9,36.2,70.7,36.5,74.3z"/>
					<path id="XMLID_194_" class="st4" d="M57.7,118.4c0.2-0.1,0.2-0.4,0.2-0.4l0.1-0.5c0.2-0.9,0.5-1.7,0.6-1.7
						c0.1-0.2,0.1-0.3,0.2-0.3l0.2,0c0.3,0.2,0.7,0.2,0.9,0.1c0.7-0.4,0.7-1.1,0.6-1.1c0-0.4-0.1-0.7-0.4-0.9
						c-0.4-0.3-0.9-0.2-1-0.2c-0.8,0.1-1.4,1-1.7,1.7c-0.6,1.7-0.3,3-0.3,3.1l0.1,0.2C57.5,118.4,57.7,118.4,57.7,118.4z"/>
					<path id="XMLID_193_" class="st3" d="M55.7,89.3c0.3-0.1,0.5-0.4,0.6-0.6c0.2-0.3,1.4-2.1,2.3-3.7c0.7-1.2,1.1-2.3,1.1-2.3
						c0,0,0-1.8-0.3-1.9c-0.2-0.1-0.8,1.6-1.3,2.5c-0.8,1.4-1.5,2.6-1.7,2.9c-1.1,1.5-1.7,2.4-1.5,2.7
						C55.2,89.3,55.4,89.4,55.7,89.3z"/>
					<path id="XMLID_192_" class="st3" d="M62.7,101.9l0-19.2l1.3,1.7l0.3,0.8l0,13.3C64.3,98.4,63.2,100.6,62.7,101.9z"/>
					<path id="XMLID_191_" class="st3" d="M21.2,93.3c0.9-0.2,2.3,0,2.3,0V43.8l-4.3-4.3c0,0,0,55.2,0,55.2
						C19.2,94.7,20.1,93.5,21.2,93.3z"/>
				</g>
				<path id="XMLID_190_" class="st3" d="M57.3,103.6c-0.4-0.1-1.1-0.3-1.8-0.4c-1.8-0.3-2.2-0.2-2.2-0.2c-0.1,0-0.3,0.1-0.4,0.1
					c-0.1,0-0.1,0.1-0.1,0.2c0,0.3,0.3,0.7,1,0.6c0,0,0,0,0,0c0,0,0.1,0,0.1-0.1c-0.1,0.1-0.1,0.2-0.1,0.3c0,0.2,0,0.3,0.2,0.4
					c0.2,0.2,0.6,0.1,0.7,0c-0.1,0.1-0.2,0.3-0.2,0.4c0,0.1,0.1,0.5,0.4,0.7c0.1,0.1,0.2,0.1,0.4,0c0,0,0,0,0,0
					c0,0.1-0.1,0.2-0.1,0.3c0,0,0,0.4,0.3,0.6c0.1,0.1,0.2,0.1,0.4,0.1c-0.1,0.2-0.2,0.3-0.2,0.5c0,0.1,0.1,0.7,0.5,0.8
					c0.1,0,0.2,0,0.3,0c-0.2,0.3-0.2,0.6-0.2,0.8c0,0,0,0,0,0.1c0,0.4,0.1,0.8,0.4,0.9c0.1,0,0.2,0.3,0.2,0.5
					c-0.1,0.3-0.1,0.6-0.1,0.9c0,0.4,0,0.6,0.1,0.7c0,0,0.1,0.5,0.5,0.4c0,0,0,0,0,0c0.3-0.1,0.3-0.4,0.3-0.4
					c0.1-0.4,0.3-1.1,0.4-1.4c0,0,0.1-0.2,0.3-0.5c0.1-0.1,0.3-0.1,0.3,0.1c0.2,0.7,0.6,1.1,0.9,1.2c0.6,0.2,1.1,0.2,1.5-0.1
					c0.7-0.4,0.7-1.5,0.8-1.9c0-0.4-0.2-1.5-0.2-1.5l0.4-0.2l2.7-1.7l8.4-4.6l3-1.7V88.7c-1.4,0.8-4.3,4-7,7.9
					c-2.4,3.5-4.2,7.5-4.4,8.7c0,0.1,0,0.2,0,0.2c-0.2-0.4-0.9-1.5-2-2.9c-0.9-1.1-2-2.3-3.5-3.4c-0.6-0.4-1.6-1.1-2.6-1.5
					c-0.9-0.4-1.7-0.6-1.7-0.6l0.6-1.1c0,0,0.8-0.9,1.2-1.9c0.3-0.6,0.3-1.4,0.3-1.8c0-0.9-0.4-1.7-0.8-2.3
					c-0.6-0.8-1.4-1.1-2.3-1.1c-1.1,0-1.9,0.4-2.5,1.2c-0.5,0.6-0.8,1.2-0.8,2.2c0,0.4-0.1,1.4-0.1,1.6c-0.1,0.9-0.6,2.4-0.6,2.4
					s0,0-0.1,0c-0.4,0-1.5-0.2-3.1,0.1c-1.3,0.2-3,0.7-4.9,1.6c-1.2,0.5-2.8,1.6-4.4,2.9c-0.9,0.8-2.5,2.6-2.5,2.6s-0.5-0.1-1.3,0
					c-0.4,0-0.8,0.2-1.2,0.2c-1,0.2-1.6,0.9-1.8,1.2c-0.2,0.3-0.8,0.6-1.2,0.9c-0.4,0.4-0.9,1.3-0.9,2.1c0,0.8,0.4,2,1.3,2.3
					c0.9,0.3,1.4-0.1,1.7-0.2c0.4-0.1,0.5-0.1,0.9,0.9c0.4,1,1.1,3,1.6,4.3c0.2,0.6,0.9,3,1.3,4.7c0.3,1.2,0.5,2.2,0.6,2.8
					c0.1,0.3,0,0.2,0.1,0.4c0.1,0.6,1.3,0.6,1.3,0.6c0.5,0.5,1.1,0.3,1.1,0.3c0.4,0.6,1,0.2,1,0.2c0.3,0.6,1,0.3,1,0.3
					c0.5,0.5,1,0,1,0c0,0.2,0.3,0.5,0.7,0.5c0.3,0,0.5-0.3,0.5-0.3c0.1,0.3,0.4,0.4,0.6,0.4c0.4-0.1,0.6-0.5,0.5-0.8
					c-0.6-4.3-2.2-10.1-2.2-10.1s0.7-0.5,1.2-1.6c0.5-1,1.1-2.8,0.1-5.1c-0.2-0.5-0.5-0.9-0.8-1.3c-0.6-0.7-1.6-1.3-1.9-1.5
					c-0.1-0.1,0-0.3,0.2-0.5c0.3-0.3,0.9-0.7,1.1-0.8c0.7-0.5,1.7-1.1,2.8-1.6c1.4-0.7,4.1-1,4.1-1c0.1,0,0.4,0,0.4,0
					c0.1,0.7,0.2,1,0.7,1.5c0.6,0.7,1.6,0.7,1.6,0.7c0.9-0.1,1.6-1.1,2-2c0,0,2.2,0.6,4.5,2.4C57.5,103.5,57.8,103.8,57.3,103.6z"/>
				<path id="XMLID_189_" class="st3" d="M23.7,126.3l-4.4,5v-28.2l4.2-1.6v12.3c0,0,2.6,1,4.8,3.5c1.4,1.6,2.7,3.9,3.2,6.9
					c0,0-3.8-2.9-7.9-4.1V126.3z"/>
			</g>
			<g>
				<path class="st2" d="M64.8,134.5l-7.2-9.9c0,0-5.6,1.2-11.2,0.8c-2.3-0.1-4.3-0.5-6.1-0.9c-2.4-0.6-4.5-1.4-4.5-1.4L29,134.6
					L64.8,134.5L64.8,134.5z M56.8,127.1L56.8,127.1l4.2,7l-1.4,0l-3.3-5.6L54,129l1.6,5.1h-1.1l-1.8-6.2
					C55.4,127.6,56.8,127.1,56.8,127.1L56.8,127.1z M42.5,127.5L42.5,127.5c4.1,0.8,7.9,0.6,7.9,0.6l1.6,6.1H51l-1.3-4.9
					c0,0-2.1,0.1-3,0c-0.9-0.1-3.1-0.3-3.1-0.3l-0.8,5.2l-1.1,0L42.5,127.5L42.5,127.5z M36,126.1L36,126.1c2.2,0.7,4.5,1.2,4.5,1.2
					l-1.3,6.9l-1.3,0l1.2-5.8c-1.2-0.4-2.6-0.7-2.6-0.7l-3.4,6.6l-1.3,0L36,126.1z"/>
				<path id="XMLID_166_" class="st2" d="M30.5,96.5c0.9-1.5,1.8-3.4,2.6-5.7c1-2.8,1.9-6.1,2.2-10.3c0.1-2.2,0.1-4.6-0.2-6.8
					c-0.2-2.2-0.6-4.3-1.1-6c-0.3-1-0.5-1.9-0.8-2.7c-1.2-3.2-2.3-4.9-2.3-4.9L29.3,62c0.6,0.9,1.3,2.3,1.9,4.3
					c1.2,3.4,2.3,8.1,2,12.8c-0.2,3.5-1.1,7.8-2.5,11.4c-1.8,4.8-4.6,7.8-4.6,7.8l0.7,3C26.9,101.3,28.6,99.8,30.5,96.5z"/>
				<path id="XMLID_147_" class="st2" d="M26.4,93.2c0,0,1.7-2.5,2.9-6.1c0.9-2.9,1.5-6.7,1.4-10.2c-0.1-3.1-0.8-6-1.4-8.2
					c-0.7-2.2-2-4.5-2-4.5s-1.4,1.2-1.9,1.6c-0.5,0.4-1.9,1.4-1.9,1.4l0,24.9c0,0.3,0,0.7,0,0.7s1.6,0.6,1.6,0.6
					C26,93.9,26.3,93.3,26.4,93.2z"/>
				<path id="XMLID_146_" class="st2" d="M54.8,88.7c0,0,1.6-2.3,2.8-4.3c0.5-0.9,1.1-1.9,1.5-2.9c0.5-1.2,0.6-1.7,0.7-2.3
					c0,0-0.9-1.1-0.9-1.1c0,0-1.2,1.4-1.2,1.4s-0.3,1.9-1.6,3.8c-1,1.4-2.7,3.7-3,4.7c0,0-0.2,0.5,0,0.7c0.1,0.1,0.6,0.3,0.8,0.3
					C54.6,89.1,54.8,88.7,54.8,88.7z"/>
				<path id="XMLID_145_" class="st2" d="M64.2,98.8l0-14c0,0,1,3.3,1.6,4.6c0.5,1.1,1.9,3.5,1.9,3.5S65.3,96.3,64.2,98.8z"/>
			</g>
			<g>
				<g id="XMLID_1162_">
					<path id="XMLID_1265_" class="st5" d="M50.9,113.4c0,0,0.4,0.2,0.7-0.1c0.2-0.1,0.3-0.4,0.3-0.9c0,0-0.2-0.6-0.7-0.2
						c0,0-0.3,0.2-0.6-0.1c0,0-1.2-0.7-1.9-0.1c-0.2,0.2-0.6,0.7-0.4,1.4c0.1,0.2,0.2,0.5,0.5,0.8c0,0,0.2,0.2,0.3,0.1
						c0,0,0.1-0.1,0-0.4c-0.1-0.2-0.2-0.3-0.3-0.5c0,0-0.1-0.3,0-0.6c0.1-0.1,0.2-0.3,0.5-0.3c0,0,0.4-0.1,0.7,0.2
						C49.9,112.8,50.5,113.2,50.9,113.4z"/>
					<path id="XMLID_1260_" class="st5" d="M43.3,117.9c1.2,1.2,1.9,1.8,2.9,2c2.1,0.4,2.9-0.8,3.1-0.5c0.2,0.1-0.4,0.4-0.6,0.5
						c-0.8,0.5-2,0.5-2,0.5c-1.3,0-3-1.8-3-1.8c-0.5-0.4-0.3,0.2-0.3,0.2c0.4,0.4,1.5,1.4,1.5,1.4c2.2,1.8,4.7-0.3,4.7-0.3
						c0.4-0.3,0.5,0,0.5,0c0.2,0.2,0.3,0,0.3-0.1c0-0.2-0.2-0.5-0.3-0.7c-0.2-0.2-0.2-0.5-0.2-0.5c0-0.5-0.3-1-0.3-1
						c-0.9-1.6-2.3-2.5-2.3-2.5c-0.6-0.2-0.2,0.4-0.2,0.4c0.7,0.5,1.2,1.2,1.2,1.2c0.2,0.2,0,0.3,0,0.3c-1.7-0.8-3.5,0.6-3.5,0.6
						c-0.1,0.2-0.6,0-0.6,0c-0.5-0.1-0.8-0.1-0.9,0C43.1,117.6,43.3,117.9,43.3,117.9L43.3,117.9z M48.3,117.5L48.3,117.5
						c0.2-0.1,0.5,0.1,0.7,0.3c0.2,0.2,0.1,0.4,0,0.5c-0.2,0.1-0.4,0-0.4,0C48.4,118.1,48.1,117.5,48.3,117.5L48.3,117.5z M47,117.1
						L47,117.1c0,0,0.5-0.1,0.8,0.3c0.1,0.1,0.3,0.4,0.4,1c0,0-0.1,0.4-0.3,0.1c0,0-0.2-1.1-0.7-1.1c-0.5,0-0.8,0.6-0.8,1.1
						c0,0-0.2,0.2-0.3-0.1C46,118.5,46.2,117.1,47,117.1L47,117.1z M45.6,117.4L45.6,117.4c0.4-0.1,0.5,0,0.3,0.2
						c-0.1,0.2-0.3,0.8-0.3,0.8c-0.3,0.3-0.8-0.3-0.8-0.3C44.8,117.7,45.3,117.6,45.6,117.4z"/>
					<g id="XMLID_1256_">
						<path id="XMLID_1259_" class="st6" d="M52.1,110c0.4,0.3,0.7,0,0.7,0c0.6-0.5,1.2,0,1.2,0c0.1,0,0.2,0,0.2-0.3
							c0-0.4,0.1-1.2,0.1-1.5c-0.1-0.6-0.4-0.1-0.4-0.1c-0.2,0.5-0.7,0.5-0.7,0.5c-0.2,0-0.4,0.1-0.7-0.1c-0.5-0.2-1-0.1-1-0.1
							c-0.6,0-1.4,0.4-1.4,0.4c-1,0.2-1.6-0.5-1.6-0.5c-0.2-0.2-0.3-0.2-0.4-0.1c-0.1,0.1,0,0.4,0,0.4s0.3,1.2,0.4,1.5
							c0.1,0.3,0.3,0.1,0.4,0c0.6-0.4,1.2-0.1,1.2-0.1c0.7,0.4,1.3,0,1.3,0C51.6,109.6,52.1,110,52.1,110z"/>
						<path id="XMLID_1258_" class="st6" d="M49.6,107.7c-0.1,0.1-0.1,0.3,0,0.3c0.1,0.1,0.3-0.1,0.3-0.1c0.5-0.3,1.1-0.3,1.5-0.3
							c0.8,0,1.4,0.4,1.4,0.4c0.4,0.1,0.3-0.2,0.3-0.2c-0.3-0.4-1-0.7-1.8-0.7C50.1,107.1,49.6,107.7,49.6,107.7z"/>
						<path id="XMLID_1257_" class="st6" d="M49.7,106c0.5,0.3,0.8,0.4,1.4,0.5c1.1,0.1,1.7-0.6,1.7-0.6c0.2-0.2,0-0.4,0-0.4
							c-0.2-0.1-0.5,0.1-0.5,0.1c-1,0.6-2.3,0-2.3,0c-0.7-0.3-0.6-0.1-0.6-0.1C49.2,105.7,49.7,106,49.7,106z"/>
					</g>
					<g id="XMLID_1163_">
						<path id="XMLID_1255_" class="st6" d="M50.4,120.7c0,0-0.3-0.1-0.7,0.1c0,0-1.7,1-4.1,0.5c0,0-1.3-0.3-1.8-0.7
							c0,0-0.5-0.3-0.3,0.3c0,0,1.2,1.6,3.9,1.7c0,0,1.5,0.1,2.8-0.7C50.2,121.9,51.3,121.1,50.4,120.7z"/>
						<path id="XMLID_1164_" class="st6" d="M24,126.4l0-6.1c0,0,4.8,1.5,8,4.6c0,0-0.8-7.9-8-11.1l0-6.1c0,0-0.2-1,0.4-0.7
							c0,0,0.5,0.3,0.8-0.6c0,0,0.4-1,0.5-1.8c0,0,0.2-0.9,1.2-0.5c0.5,0.1,1.4,0.9,2.2,1.7c-0.7,0.9-0.9,1.7-0.8,2.3
							c0,0.2,0.1,0.8,0.3,1.3c0.3,0.6,0.9,0.9,1.1,1c0.8,0.2,1.5-0.2,1.5-0.2c0.2-0.1,0.4-0.1,0.5,0c0.3,0.2,0.4,0.7,0.4,0.7
							c0.3,0.5,1.5,3.9,2.2,6.3c0.5,1.6,0.9,3.2,1.1,4.6c0.1,0.3,0.1,0.7,0.2,0.8c0,0.1,0,0.2,0,0.2c-0.2,0.4-0.5,1-0.5,1l-6.4,11
							h0.9l6.4-10.9c0,0,5.2,1.8,10.5,2.1c5.7,0.3,10.9-0.8,10.9-0.8l6.8,9.6h1.1l-7.5-10.4c-0.2-0.7-0.1-0.9-0.1-2.2
							c0.1-1.3,0.1-2.2,0.4-3.3c0.3-1.3,0.2-1.1,0.6-2.5c0.1-0.4,0.4-0.3,0.4-0.3c1.4,0.3,1.6-1,1.6-1c0.2-1.9-1.4-1.6-1.4-1.6
							c-1.1,0.1-1.7,1.6-1.7,1.6c-0.6,0.5,0-2.6,0-2.6c0.4-2.3,0.8-1.8,0.8-1.8c1,2.1,2.4,1.1,2.4,1.1c1.5-0.7,0.9-3.3,0.9-3.3
							c2.5-2,14.6-8.2,14.6-8.2l0-15.9c-2.9,1.7-5.6,4.4-7.7,7.4c-3.9,5.2-6.1,10.5-6.1,10.5c-0.4-0.6-2.4-2.2-2.4-2.2l0-20.3
							L59.7,79c0,0.8-1.1,3.4-2.2,5.3c-1.2,2-2.9,4.3-2.9,4.3c-0.2,0.4-1,0.2-1,0.2c-0.6-0.1-0.4-0.5-0.4-0.5c0.2-0.9,3-4.8,3-4.8
							c1.1-1.6,1.7-4,1.7-4l1.1-1.3l-0.2-0.2L42.4,97.3c-5,2.3-7.6,6-7.6,6c-1-0.1-1.9,0.1-1.9,0.1c-0.3,0.1-0.5,0.1-0.6-0.2
							c1.1-1.4,7.5-9,9.3-11.1c1.9-2.3,7.3-8.6,7.3-8.6l-0.6-0.1l-0.8,0.9l-1.8,0l-0.2,0.3c0,0,1.4,0,1.8,0l-0.9,1.1l-1.8,0
							l-0.3,0.3c0,0,1.3,0,1.8,0l-0.7,1l-2,0L43,87.3c0,0,1.7,0,1.9,0l-0.9,1l-1.9,0l-0.2,0.3c0,0,1.5,0,1.8,0L43,89.6l-1.8,0
							L40.9,90c0,0,1.3,0,1.8,0l-0.8,1l-2.7-0.2l-0.1-3.1l0.8-0.9l0.2,2.4l0.3-0.3l-0.2-2.5l0.9-1l0.1,2.4l0.3-0.3l-0.2-2.3l0.8-0.9
							l0,2.4l0.3-0.3l0-2.6l0.7-0.8l0.1,2.2l0.2-0.2l-0.1-2.4l0.9-1.1l0.1,2.2l0.2-0.2l-0.1-2.4l1.3-1.7l-0.3,0l-1,1.2l-1.9-0.1
							l-0.3,0.3l1.9,0.1l-0.8,1l-2-0.1l-0.3,0.4l2,0.1l-0.7,0.9l-2-0.1L40,83.5l2.1,0.1l-0.8,1l-2.1,0l-0.3,0.4l2.1,0.2L40.1,86
							l-2.2,0l-0.3,0.3l2.1,0.1l-0.8,1L36,87.2c0,0,0.3-1,0.4-1.8c0.1-0.8,0.3-2.2,0.3-2.2l0.2,2.1l0.3-0.3l-0.2-2l0.8-1.1l0.1,2.3
							l0.3-0.4l-0.1-2.2l0.8-1.1l0,2.4l0.3-0.3l0.1-2.4l0.9-1.2l0,2.4l0.3-0.3l0-2.5l0.8-1l0,2.5l0.3-0.3l-0.1-2.5l1.1-1.3l-0.5,0
							l-0.7,0.9l-1.9,0l-0.2,0.3l1.8,0L40.5,78l-2,0.1l-0.1,0.3h1.8l-0.9,1.1l-2,0l0,0.3l1.7,0l-1,1.2l-1-0.1c0,0,0.1-1.5,0.1-2.6
							c0-1.1-0.1-2.9-0.1-2.9l0.4-0.3l0.2,2.3h0.3l-0.1-2.6l0.6-0.8l0.1,2.3l0.2-0.2l0-2.5l1.3-1.4l-0.5-0.1l-1.1,1.2l-1.5,0
							c0,0-0.2-2.2-0.7-4.6c-0.4-2-1.1-4.8-2.7-8.1c-0.3-0.7-1.3-2.2-1.3-2.2s-2.9,3.6-4.6,5.3c-1.8,1.8-3.8,3.1-3.8,3.1l0-23.2
							l-4.7-5.1l0,93.7L24,126.4L24,126.4z M57.8,115.2L57.8,115.2c0.3-0.7,0.8-1.5,1.5-1.6c0,0,1-0.2,1,0.8c0,0,0.1,0.6-0.5,0.9
							c0,0-0.4,0.2-0.8-0.2c0,0-0.4-0.2-0.6,0.5c0,0-0.6,1.5-0.7,2.3c0,0-0.1,0.4-0.3,0.2C57.5,118.1,57.2,116.8,57.8,115.2
							L57.8,115.2z M37.7,81.4L37.7,81.4l-0.9,1.2l0.1-1.2L37.7,81.4L37.7,81.4z M37.8,73.7L37.8,73.7l-1,1.2l0-1.1L37.8,73.7
							L37.8,73.7z M31.3,123.6L31.3,123.6c0,0-5-4.5-11.7-4.5l0-5.8C19.6,113.2,28.5,113.2,31.3,123.6L31.3,123.6z M21.8,94.6
							L21.8,94.6c0.2,0.3-0.1,0.4-0.1,0.4c-0.2,0.1-1.3,0.6-1.3,0.6c-0.7,0.3-0.7-0.6-0.7-0.6c0.2-1.1,1.6-1.4,1.6-1.4
							c0.6-0.1,0.5,0.3,0.5,0.3C21.7,94.2,21.8,94.6,21.8,94.6L21.8,94.6z M22.2,96.6L22.2,96.6c0.4,0.3-0.1,0.5-0.1,0.5
							c-0.5,0.1-1.6,0.7-1.6,0.7c-0.8,0.3-0.8-0.7-0.8-0.7c0-0.9,1.7-1.5,1.7-1.5c0.9-0.4,0.7,0.2,0.7,0.2
							C22,96.2,22.2,96.6,22.2,96.6L22.2,96.6z M22.8,101.2L22.8,101.2c0,0,0.2,0,0.1-0.2c-0.1-0.1-0.2-0.3-0.2-0.6
							c0-0.4,0.3-0.8,0.7-0.8c0.4,0,0.7,0.3,0.7,0.8c0,0.2-0.1,0.4-0.2,0.5c0,0-0.2,0.5-2.6,1.3c0,0-0.7,0.3-1.1-0.2
							c0,0-0.7-0.9,0.2-1.4c0,0,1.2-0.5,1.5-0.6c0,0,0.6-0.3,0.6,0.3C22.4,100.3,22.2,101.2,22.8,101.2L22.8,101.2z M22.2,98.8
							L22.2,98.8c0.4,0.7-0.4,0.7-0.4,0.7c-0.4,0.1-0.8,0.4-1,0.5c-0.7,0.3-0.8,0.1-0.8,0.1c-0.5-0.7,0-1.4,0-1.4
							c0.2-0.3,1.5-0.9,1.5-0.9c0.6-0.3,0.6,0.2,0.6,0.2C22,98.4,22.2,98.8,22.2,98.8L22.2,98.8z M22.2,94.2L22.2,94.2
							c0-0.3,0.2-0.5,0.4-0.5c0.2,0,0.4,0.2,0.4,0.5c0,0.3-0.2,0.5-0.4,0.5C22.4,94.7,22.2,94.5,22.2,94.2L22.2,94.2z M21.7,102.4
							L21.7,102.4c0.6-0.3,1.6-0.5,1.6-0.5v11.7c0,0-0.9-0.4-1.8-0.6c-0.7-0.1-1.9-0.2-1.9-0.2l0-9.4
							C19.6,103.4,20.4,102.9,21.7,102.4L21.7,102.4z M25,105.5L25,105.5c-0.1,0.4-0.3,0.8-0.5,0.7c-0.2,0-0.2-0.4-0.1-0.9
							c0.1-0.4,0.3-0.8,0.5-0.7C25,104.7,25.1,105.1,25,105.5L25,105.5z M26.1,102.7L26.1,102.7c0,0-0.4,1.6-1.2,1.4
							c0,0-0.2-0.1-0.4,0.1c-0.2,0.1-0.3,1.2-0.6,0.9c0,0-0.2-1.3,0.3-1.9c0,0-0.1-1.5,0-2.2c0-0.1,0.1-0.4,0.1-0.5
							c-0.1-0.6-0.3-1.9-0.1-2.1c0,0,0.4-1.2,0.2-1.5c0,0-0.6,0.6-0.5-0.1c0,0,0.1-1.2-0.2-1.7l0.1-0.9c0,0-0.3-1.3,1.2-0.5
							c0,0,0.7,0.2,0.8,2.5c0,0,0,1.9,0.3,2.8C26.2,98.9,26.7,101.1,26.1,102.7L26.1,102.7z M27.4,103.5L27.4,103.5
							c0.2-0.7,0.6-1.1,1-1.3l2,2.2c-0.1,0.4-0.6,0.6-0.8,0.6C29.6,105.1,29,105.2,27.4,103.5L27.4,103.5z M29.3,101.2L29.3,101.2
							c0-0.5,0.2-0.8,0.7-1.1l2.1,2.3c-0.1,0.4-0.4,0.9-0.8,0.8L29.3,101.2L29.3,101.2z M36.5,123.1L36.5,123.1
							c-0.4,0.1-0.5-0.5-0.6-0.8c0,0-0.8-3.8-1.8-7.3c-0.6-1.8-1.7-4.9-2.2-5.7c0,0,0.1-0.2,0.2-0.4c0.1-0.2,0.1-0.6,0.1-0.6
							s1.1,1.5,2.4,5.7c0.7,2.5,1.7,5.6,2.1,8.3C36.8,122.4,37,123,36.5,123.1L36.5,123.1z M37.6,123.3L37.6,123.3
							c-0.3,0-0.6-1.5-0.6-1.5c-0.4-2.4-2.1-8.1-2.1-8.1c-1-3.5-2.8-6.5-2.8-6.5c-0.5-0.6-0.8-0.9-1.4-0.9c-1.3,0-1.4,1.2-1.4,1.2
							c0,1.4,1,1.3,1,1.3c1.2,0,0.8-1.1,0.8-1.1c-0.2,0.4-0.4,0.6-0.7,0.6c-0.4,0-0.7-0.4-0.7-0.4c-0.2-1.3,0.9-1.4,0.9-1.4
							c0.6,0.1,0.9,0.4,1.2,1c0.3,1.2-0.6,1.7-0.6,1.7c-2.3,1.3-2.7-1.5-2.7-1.5c0.1-2.5,1.9-2.5,1.9-2.5c1.2,0,2.4,1.4,3.1,2.8
							c1.2,2.7,1.4,3.4,2.1,5.5c0.7,2.1,2.3,9.2,2.3,9.2C38.1,123.5,37.6,123.3,37.6,123.3L37.6,123.3z M38.8,123.8L38.8,123.8
							c-0.3,0-0.4-0.4-0.4-0.4l-1.6-6c-1-4.6-2.8-8.6-2.8-8.6c-0.5-1-0.8-1.6-1.2-2.3c-0.8-0.9-1.6-1.2-1.6-1.2
							c-0.9-0.3-0.4-0.8-0.4-0.8c0.9-0.4,1.8,0.6,1.8,0.6c2,1.6,4,8.5,4,8.5c0.3,0.8,2.4,9.4,2.4,9.4
							C39.1,123.4,39.1,123.8,38.8,123.8L38.8,123.8z M43,124.5L43,124.5c-0.3,0-0.4-0.4-0.4-0.6c0-0.1-0.6-3.8-1.7-8.4
							c-0.5-1.9-1.1-3.8-1.9-5.8c-0.7-1.8-1.4-3.7-2.1-5c-0.1-0.2-0.3-0.5-0.1-0.6c0.3-0.2,0.5,0.2,0.7,0.5c0.8,1.5,1.5,3.2,2.2,5
							c1.3,3.6,2.3,7.4,2.9,10.1c0.5,2.4,0.7,3.9,0.7,4C43.3,124.3,43.2,124.5,43,124.5L43,124.5z M50.5,98.1L50.5,98.1
							c-1,1.4-0.6,2.7-0.4,2.8c0.4,0.3,0.7,0.3,0.9,0.3c0.7-0.1,1.1-1.3,1.1-1.3c0.6-1.4,0.6-3.7,0.6-4.6l1.2-1.5l0.2,2.2l1-0.1
							c0,0-0.5,0.7-0.9,1.7c-0.3,0.5-0.6,1.1-0.8,1.6c0,0-0.3,0.9-0.8,1.7c-0.5,0.8-1,1.6-1.7,1.6c0,0-2.3,0-2-2.9
							c0,0,0.2-0.7,0.4-1.3c0.2-0.5,0.4-1.1,0.4-1.2c0,0,0.9-2.4,0.9-3.3l0.6,1.2l1.3-1.5v1.6C52.1,95.7,51,97.2,50.5,98.1
							L50.5,98.1z M51.6,100.2L51.6,100.2c0,0-0.5,1.1-1.3,0.4c0,0-0.5-0.9,0.5-2.2c0,0,1.1-1.9,1.6-2.2
							C52.4,96.1,52.5,97.9,51.6,100.2L51.6,100.2z M59,106.1L59,106.1c-1.1,0-1.9,0.9-1.9,0.9c-0.6,0.8-0.7,0.9-0.7,0.9
							c-0.5,0.4-0.6-0.5-0.6-0.5c0-0.6,0.9-1.1,1.3-1.5c0.8-0.6,1.6-0.7,1.6-0.7c0.6,0,0.8,0.7,0.8,0.7
							C59.6,106.1,59,106.1,59,106.1L59,106.1z M60.5,106.9L60.5,106.9c0.1,0.4-0.6,0.2-0.6,0.2c-1.5,0-2.4,1.3-2.4,1.3
							c-0.7,1-0.7,1.1-0.7,1.1c-0.4,0.5-0.5-0.5-0.5-0.5c0-0.7,0.6-1.5,1.1-1.9c0.9-0.8,1.9-0.8,1.9-0.8
							C60.3,106.2,60.5,106.9,60.5,106.9L60.5,106.9z M57.8,105.2L57.8,105.2c-0.9,0.2-1.3,0.8-1.3,0.8c-0.4,0.4-0.8,0.6-0.8,0.6
							c-0.5,0.2-0.5-0.4-0.5-0.4c0-0.5,0.8-0.9,1.2-1.2c0.7-0.6,1.2-0.6,1.2-0.6c0.7-0.1,0.7,0.4,0.7,0.4
							C58.5,105.1,57.8,105.2,57.8,105.2L57.8,105.2z M54.4,103.7L54.4,103.7c0,0,0.4-0.3,1-0.2c0,0,0.3,0.2,0,0.5
							c0,0-0.4,0.3-0.6,0.5c0,0-0.5,0.5-0.8,0.1C54,104.5,53.6,104.2,54.4,103.7L54.4,103.7z M53.6,103.8L53.6,103.8
							c-0.7,0.1-0.7-0.4-0.7-0.4c0.5-0.3,1,0,1,0C54.1,103.6,53.6,103.8,53.6,103.8L53.6,103.8z M55.5,104.2L55.5,104.2
							c0.5-0.5,0.8-0.5,0.8-0.5c0.7-0.1,0.7,0.3,0.7,0.3c0,0.2-0.5,0.5-0.5,0.5c-0.6,0.4-0.8,0.5-0.8,0.5c-0.3,0.4-0.6,0.6-0.6,0.6
							c-0.4,0.2-0.4-0.5-0.4-0.5C54.7,104.8,55.3,104.5,55.5,104.2L55.5,104.2z M56.7,103.3L56.7,103.3c-0.2-0.1-0.6-0.2-0.9-0.2
							c-1.6-0.3-3.5-0.3-3.5-0.3c-0.4,0.1-0.4-0.1-0.4-0.3c0,0,0.7-1.2,0.9-1.3c0.1-0.1,0.7,0.1,1.1,0.3c0.7,0.2,1.8,0.8,2.7,1.5
							c0.2,0.1,0.3,0.3,0.3,0.3S56.9,103.4,56.7,103.3L56.7,103.3z M49.6,102.6L49.6,102.6c0.2,0.1,0.2,0.1,0.2,0.2
							c0,0.2-0.2,0.2-0.2,0.2c-1.5,0-2.8,0.5-3.8,1.1c-1.5,0.9-3.1,2.7-3.1,2.7c-0.7-1.3-2.3-2.1-2.3-2.1c-0.4-0.2,0.1-0.5,0.1-0.5
							c1.1-0.9,2.5-1.8,3.9-2.4c2.1-0.8,4.1-0.9,4.1-0.9c0.1,0.4,0.2,0.7,0.3,0.9C49.1,102.3,49.6,102.6,49.6,102.6L49.6,102.6z
							 M41.1,105.6L41.1,105.6c0.6,0.5,1.1,1.2,1.5,2.3c0.5,1.1,0.4,2.4,0.2,3.2c-0.3,1.2-1,2.1-1.2,2.3c-0.1,0.2-0.3,0.3-0.4,0.1
							c-0.2-0.2-0.3-0.6,0.1-1.1c0.3-0.4,0.8-1.3,0.8-2.3c0-0.5,0-1.1-0.3-1.9c-0.8-2.5-2.9-2.6-3.1-2.6c-0.4,0-0.8-0.4-0.8-0.8
							c0-0.3,0.6-0.2,0.9-0.2C39.3,104.6,40.2,104.9,41.1,105.6L41.1,105.6z M40.9,111L40.9,111c0,0,0.6-1.3,0.1-2.3
							c-0.3-0.8-0.8-1.3-1.9-1.6c-0.4-0.1-0.5-0.6-0.4-0.8c0.1-0.2,0.6-0.1,0.9-0.1c0.9,0.2,1.6,1.3,2,2.3c0.6,1.6-0.1,3.1-0.1,3.1
							c-0.1,0.2-0.4,0.6-0.6,0.5C40.7,112,40.6,111.5,40.9,111L40.9,111z M40.4,110.6L40.4,110.6c-0.1-0.6-1-2.6-1-2.6
							c-0.2-0.6,0.2-0.4,0.2-0.4c1.7,0.9,1.2,2.9,1.2,2.9C40.6,111,40.4,110.6,40.4,110.6L40.4,110.6z M57.3,124.1L57.3,124.1
							c-0.6,0.2-1.3,0.3-2,0.4c-1.1,0.2-2.4,0.3-4,0.4c-2.1,0.1-4.6,0.1-7.4-0.3c-0.2-0.1-0.2-0.4-0.2-0.4c-0.2-2-0.7-3.9-1.1-5.6
							c-0.6-2.6-1.1-4.5-1.1-4.5c3.2-3.1,1.4-6.9,1.4-6.9c0.8-1.3,3.3-2.6,3.3-2.6c4.7-2.5,6.9-0.5,6.9-0.5c1.9,1.4,3,4.1,3.4,6.7
							c0.5,3.1,0.6,5.7,0.6,5.7c0.1,0.4-0.4,0.3-0.4,0.3c-0.7-0.7-2.7-0.3-2.7-0.3c0.1-0.5,0.7-0.9,0.7-0.9c0.5-0.4,0.1-0.5,0.1-0.5
							c-0.6,0.2-1.3,1-1.3,1c-0.2,0.3-0.4,0-0.4,0c0.1-0.7,0.7-3.3,0.7-3.3c0.1-1.2-0.5-1.1-0.5-1.1c-1.1-0.2-1.6-0.6-1.6-0.6
							c-0.3-0.4-0.3-0.1-0.3-0.1c-0.2,1.2,1.5,1.5,1.5,1.5c0.7,0.1,0.3,1.3,0.3,1.3c-0.3,1.2-0.5,2.4-0.7,3.3
							c-0.2,1.7-0.2,2.8-0.2,2.8c-0.1,2,1.7,2.6,1.7,2.6c1.3,0.5,2.6-0.4,2.6-0.4c0.2-0.2,0.4-0.3,0.5,0
							C57.3,122.2,57.3,124.1,57.3,124.1L57.3,124.1z M57.1,117.8L57.1,117.8c0,0.3-0.1,0.4-0.2,0.4c-0.2,0-0.3-0.2-0.3-0.2
							c-0.3-0.7-0.1-0.8-0.1-0.8C56.9,117.2,57.1,117.8,57.1,117.8L57.1,117.8z M55.9,118.1L55.9,118.1c0,0-0.1-0.4-0.4-0.7
							c-0.1-0.2-0.5-0.3-0.7,0c0,0-0.2,0.3-0.3,0.8c0,0-0.2,0.3-0.3,0c0,0,0-0.7,0.5-1.1c0.3-0.3,0.8-0.3,1.2,0.1
							c0,0,0.3,0.1,0.4,0.9C56.4,118.3,56.1,118.5,55.9,118.1L55.9,118.1z M54.2,117.2L54.2,117.2c-0.2,0.1-0.3,0.9-0.3,0.9
							c-0.5,0.2-0.6-0.4-0.6-0.4C53.4,117,54.2,117.2,54.2,117.2L54.2,117.2z M57.3,119.4L57.3,119.4c0.1,0.3,0.1,1-0.2,1.3
							c0,0-0.5,0.8-2.2,0.7c0,0-1.6-0.1-2.1-1.9c0,0-0.1-0.5,0.4-0.1c0.1,0.1,0.6,0.6,1.4,0.9c0.5,0.2,1.2,0.2,2.1-0.2
							c0,0,0.6-0.4,0.1-0.4c0,0-1.7,1-3.2-0.4c0,0-0.1-0.4,0.4-0.1c0,0,1,0.9,2.6,0C56.7,119.2,57.2,118.9,57.3,119.4L57.3,119.4z
							 M61.5,109.5L61.5,109.5c0,0-0.2,2.2-2.1,1.6c0,0-0.9-0.4-0.7-1.6c0,0,0.1-0.6,0.8-0.7c0,0,0.5-0.2,0.9,0.5
							c0,0.2,0.1,0.3,0,0.7c0,0-0.1,0.2-0.2,0.2c-0.2,0.1-0.3,0.2-0.3,0.3c0,0,0.2,0.3,0.6-0.1c0,0,0.5-0.7,0.1-1.3
							c0,0-0.3-0.6-0.9-0.6c-0.4,0-0.7,0.1-1.2,0.7c0,0-0.6,1-0.7,1.4c-0.2,0.4-0.4,1.4-0.4,1.4s0,0.2-0.2,0.3c-0.1,0-0.2,0-0.3-0.2
							c0,0-0.3-1.1,0.3-2.6c0,0,0.5-0.9,1.2-1.5c0.5-0.4,1-0.6,1.7-0.5c0,0,0.8,0.1,1.2,0.9C61.4,108.6,61.5,109,61.5,109.5
							L61.5,109.5z M64.8,105.4L64.8,105.4c0.3-2,3.2-7.2,5.9-10.8c3.3-4.4,5-5.5,5-5.5l0,1.7c-1,1-3,3.1-5,5.9
							c-1.9,2.5-4.1,7.1-4.5,8L64.8,105.4L64.8,105.4z M66.8,104.3L66.8,104.3c0.4-1,2-4.5,4.2-7.4c2.2-2.9,3.4-4.6,4.7-5.5l0,2.4
							c-0.6,0.8-1.8,2.1-2.9,3.7c-1.4,1.9-2.6,4-3.1,5.3L66.8,104.3L66.8,104.3z M70.3,102.4L70.3,102.4c0.4-0.9,1.3-2.6,2.6-4.4
							c0.8-1.2,1.7-2.4,2.9-3.4l0,1.7c0,0-1.3,1.5-1.9,2.4c-0.6,0.9-1.5,2.5-1.5,2.5L70.3,102.4L70.3,102.4z M75.7,99.3L75.7,99.3
							l-2.4,1.3c0.6-1.9,2.4-3.6,2.4-3.6L75.7,99.3L75.7,99.3z M63.7,100.9L63.7,100.9c0,0,1.1-0.5,1.5-0.7c0-0.5-0.1-1.9-0.1-1.9
							c0-0.2,0.1-0.4,0.3-0.5c0,0,1.1-0.5,1.5-0.6c0-0.5,0-2.2,0-2.2c0-0.2,0.2-0.4,0.4-0.5c0,0,1.1-0.2,1.6-0.3
							c0-0.5,0.1-2.1,0.1-2.1c0-0.2,0.2-0.4,0.4-0.5c0,0,1.1-0.1,1.6-0.2c0.1-0.5,0.3-1.9,0.3-1.9c0-0.2,0.2-0.4,0.5-0.4
							c0,0,1.1,0,1.6,0c0.1-0.5,0.4-1.7,0.4-1.7c0-0.2,0.2-0.4,0.5-0.4l1.1,0c0.3,0,0.5,0.2,0.5,0.5c0,0,0,0,0,0
							c0,0.3-0.2,0.5-0.5,0.5c0,0-0.4,0-0.8,0c-0.1,0.5-0.4,1.7-0.4,1.7c0,0.2-0.2,0.4-0.5,0.4c0,0-1.1,0-1.6,0
							c-0.1,0.6-0.3,1.9-0.3,1.9c0,0.2-0.2,0.4-0.4,0.4c0,0-1,0.1-1.5,0.2c0,0.6-0.1,2-0.1,2c0,0.2-0.2,0.4-0.4,0.4
							c0,0-1.1,0.2-1.6,0.3c0,0.6,0,2.2,0,2.2c0,0.2-0.1,0.4-0.3,0.5c0,0-1.1,0.5-1.5,0.6c0,0.5,0.1,1.9,0.1,1.9
							c0,0.2-0.1,0.4-0.3,0.4c0,0-1.1,0.5-1.5,0.7c0,0.5,0.1,1.8,0.1,1.8c0,0,0,0,0,0c0,0.3-0.2,0.5-0.4,0.5c-0.3,0-0.5-0.2-0.5-0.4
							l-0.2-2.1c0,0,0,0,0,0C63.4,101.1,63.5,101,63.7,100.9L63.7,100.9z M64.4,105.7L64.4,105.7l-3.1,1.9c-3.1-5.3-8.4-6.8-8.4-6.8
							s0.6-1.3,0.9-1.9c0.3-0.6,0.8-1.6,0.8-1.6C61.1,98.9,64.4,105.7,64.4,105.7L64.4,105.7z M59.6,99.3L59.6,99.3
							c0,0-0.1-0.1-0.2-0.2l0.2-0.2L59.6,99.3L59.6,99.3z M59.6,98.4L59.6,98.4L59,98.9c-0.1-0.1-0.3-0.2-0.4-0.3l1-0.9L59.6,98.4
							L59.6,98.4z M59.6,97.2L59.6,97.2l-1.4,1.2c-0.2-0.1-0.4-0.2-0.6-0.4l2-1.6L59.6,97.2L59.6,97.2z M59.6,95.8L59.6,95.8l-2.4,2
							c-0.2-0.1-0.4-0.2-0.6-0.3l3-2.5L59.6,95.8L59.6,95.8z M59.6,94.3L59.6,94.3l-3.4,3c-0.3-0.1-0.5-0.2-0.7-0.3l4.1-3.4
							L59.6,94.3L59.6,94.3z M59.6,93.2L59.6,93.2l-4.5,3.6c0,0,0.2-0.4,0.5-0.8c0.2-0.3,0.5-0.6,0.8-1l3.3-2.5L59.6,93.2L59.6,93.2
							z M59.6,91.7L59.6,91.7L56.7,94c0.1-0.3,0.2-0.6,0.2-0.9l2.6-2.1L59.6,91.7L59.6,91.7z M59.6,90.4L59.6,90.4l-2.6,2
							c0-0.3,0-0.5,0-0.8l2.6-2.2L59.6,90.4L59.6,90.4z M59.6,89L59.6,89l-2.7,2.3c-0.1-0.2-0.2-0.4-0.3-0.6l3-2.5L59.6,89L59.6,89z
							 M59.6,87.6L59.6,87.6l-3.2,2.7c-0.1-0.2-0.2-0.4-0.4-0.5l3.6-3.1L59.6,87.6L59.6,87.6z M59.6,86.2L59.6,86.2l-2.9,2.4
							c0.3-0.5,0.6-1.1,1-1.7l1.9-1.3L59.6,86.2L59.6,86.2z M59.6,84.9L59.6,84.9l-1.3,0.9c0.6-1,1.1-1.9,1.3-2.1L59.6,84.9
							L59.6,84.9z M55.5,87.7L55.5,87.7c0.2-0.4,0.6-0.8,1-1.4c0,0,0.7-1,1.5-2.4c0.5-0.9,1-1.9,1.4-2.8l0.1,1.5c0,0-0.4,1-1.1,2.2
							c-0.9,1.7-2.1,3.4-2.4,3.8c0,0-0.3,0.4-0.6,0.4c-0.1,0-0.3-0.1-0.4-0.3C55.1,88.8,55,88.6,55.5,87.7L55.5,87.7z M53.8,89.1
							L53.8,89.1c1.6,0,3,1.5,3,3.4c0,1.6-1,3.1-2.3,3.1l-0.3-2.5L53,94.4l-0.1-1.8l-1.4,1.7c-0.5-0.1-0.6-1.1-0.6-1.8
							C50.8,90.6,52.1,89.1,53.8,89.1L53.8,89.1z M57,80.6L57,80.6c0,0,0,0.3-0.2,1l-0.3-0.4L57,80.6L57,80.6z M56.2,81.6L56.2,81.6
							l0.4,0.5c-0.1,0.2-0.2,0.3-0.3,0.5l-0.5-0.6L56.2,81.6L56.2,81.6z M55.5,82.4L55.5,82.4l0.6,0.7c-0.1,0.2-0.2,0.4-0.4,0.6
							l-0.6-0.8L55.5,82.4L55.5,82.4z M54.8,83.2L54.8,83.2l0.6,0.9c-0.1,0.2-0.2,0.3-0.3,0.5l-0.8-0.9L54.8,83.2L54.8,83.2z
							 M54.1,84.2L54.1,84.2l0.7,0.9c-0.2,0.2-0.3,0.4-0.5,0.7l-0.7-1L54.1,84.2L54.1,84.2z M53.2,85.1L53.2,85.1
							c0.2,0.4,0.5,0.8,0.7,1.1c-0.1,0.2-0.3,0.4-0.5,0.7l-0.8-1.2L53.2,85.1L53.2,85.1z M52.4,86.1L52.4,86.1
							c0.2,0.4,0.6,0.9,0.8,1.2c-0.1,0.2-0.3,0.5-0.4,0.7l-1-1.3L52.4,86.1L52.4,86.1z M51.6,87.1L51.6,87.1
							c0.3,0.4,0.8,1.1,1.1,1.4c0,0.2,0,0.3,0.1,0.4c0,0-0.2,0-0.5,0.2l-1.1-1.4L51.6,87.1L51.6,87.1z M50.9,87.9L50.9,87.9
							c0.3,0.5,0.7,1.1,1,1.4c-0.2,0.2-0.4,0.3-0.6,0.6l-0.9-1.3L50.9,87.9L50.9,87.9z M50,88.9L50,88.9c0.3,0.4,0.7,1,1,1.3
							c-0.1,0.2-0.3,0.4-0.4,0.7l-1.1-1.4L50,88.9L50,88.9z M49.3,89.8L49.3,89.8l1.3,1.6c-0.1,0.4-0.2,0.9-0.1,1.3l-1.8-2.2
							L49.3,89.8L49.3,89.8z M48.3,90.9L48.3,90.9l2,2.5c0,0.2-0.1,0.6-0.1,1l-2.4-3L48.3,90.9L48.3,90.9z M47.5,91.9L47.5,91.9
							c0.8,1,2.6,3.2,2.6,3.2s-0.1,0.6-0.2,0.8c0,0,0,0-0.1,0l-2.6-3.5L47.5,91.9L47.5,91.9z M46.7,92.8L46.7,92.8l2.4,3
							c-0.3,0-0.7,0-1.1,0l-1.9-2.4L46.7,92.8L46.7,92.8z M45.9,93.8L45.9,93.8l1.5,2.1c-0.3,0-0.7,0-1,0.1l-1-1.6L45.9,93.8
							L45.9,93.8z M45.2,94.7L45.2,94.7l0.9,1.3c-0.3,0-0.6,0.1-0.8,0.1l-0.5-1L45.2,94.7L45.2,94.7z M44.4,95.6L44.4,95.6l0.4,0.7
							c-0.2,0.1-0.4,0.1-0.6,0.2L44,96.1L44.4,95.6L44.4,95.6z M41.7,98.1L41.7,98.1c4.7-2.4,8.1-1.7,8.1-1.7s-0.5,1.6-0.7,2
							c-0.5,0.9-0.5,1.9-0.5,1.9s-3.1,0.3-4.6,1.1c-2.4,1.2-4.4,2.9-4.4,2.9l-4.2-1C37.2,100.6,40.1,98.8,41.7,98.1L41.7,98.1z
							 M35.2,103.7L35.2,103.7c0.3-0.1,0.8,0.2,0.9,0.4c1.2,2,2.9,6.2,4.1,10.6c1.3,4.7,2,9.2,2,9.2c0,0.2,0,0.6-0.3,0.6
							c-0.3,0.1-0.6-0.3-0.6-0.4c0,0-0.6-4.4-1.8-9.1c-0.7-2.4-1.5-4.7-2.3-6.6c-0.5-1.2-1.5-3.2-2.1-4.1
							C35,104,35.1,103.8,35.2,103.7L35.2,103.7z M33.5,103.7L33.5,103.7c0.1-0.1,0.6-0.2,1,0.2c1.1,1,2.8,4.7,3.7,7.6
							c0.3,1,0.7,2.1,1,3.2c1.2,4.6,1.8,8.6,1.9,9.1c0,0.3,0,0.4-0.1,0.5c-0.2,0-0.5-0.2-0.5-0.3c-0.1-0.3-0.6-3.5-1.6-7.4
							c-0.7-2.7-1.6-5.5-2.6-8c-0.8-1.9-1.6-3.4-2.5-4.3C33.5,104,33.4,103.8,33.5,103.7L33.5,103.7z M33.5,104.5L33.5,104.5
							c0,0,1.7,1.7,3.4,6.8c0,0,1.7,5.3,2.5,9c0,0,0.5,2.6,0.6,3.4c0,0,0.1,0.6-0.4,0.3c0,0-0.2,0-0.3-0.5c0,0-0.7-3.9-1.9-8.1
							c0,0-0.5-1.9-1.3-4.2c-0.9-2.5-2.1-5.6-4.1-6.7c0,0-0.7-0.2-0.3-0.5C31.8,103.9,32.5,103.4,33.5,104.5L33.5,104.5z M33,101.2
							L33,101.2l-2.3-2.1c0.2-0.6,0.2-0.8,0.8-1.1l2.2,2.4C33.8,100.8,33.4,101.3,33,101.2L33,101.2z M34.6,99.4L34.6,99.4l-2.3-2.6
							c0.1-0.7,0.1-1,0.6-1.1l2.6,2.8C35.3,98.9,35.1,99.2,34.6,99.4L34.6,99.4z M36.3,97.3L36.3,97.3l-2.9-3.2
							c-0.1-0.4,0.3-1,0.8-0.9l2.8,3.3C37.1,96.8,36.7,97.3,36.3,97.3L36.3,97.3z M35.9,87.6L35.9,87.6l4.4,5.1
							c0,0.2-0.1,0.4-0.2,0.6c-0.2,0.2-0.4,0.2-0.6,0.2L35.6,89C35.5,88.2,35.7,87.9,35.9,87.6L35.9,87.6z M38.7,94.6L38.7,94.6
							c0,0.4-0.5,0.8-0.8,0.8l-3.3-3.6c0-0.6,0.1-1,0.5-1.3L38.7,94.6L38.7,94.6z M30.8,60.6L30.8,60.6c0,0,2.1,3.2,3.4,9.4
							c0.6,2.9,1,6.1,0.8,10.6c-0.2,3.7-1,6.8-1.9,9.3c-2.5,7.7-6.1,10.9-6.1,10.9l-0.7-2.9l-0.2-1.7c0,0,1.8-1.7,3.7-6.6
							c1.3-3.3,1.9-7,2.1-10.8c0.1-1.9-0.2-4.7-0.5-6.5c-1-5.7-3-9.1-3-9.1L30.8,60.6L30.8,60.6z M23.7,67.4L23.7,67.4
							c0,0,1.2-0.9,1.7-1.3c0.5-0.4,1.6-1.3,1.6-1.3s1,1.8,1.7,3.9c0.7,2.1,1.4,5.1,1.5,8.3c0.2,8.2-2.4,13-4.3,16.1
							c0,0-0.4,0.3-0.9,0.2c0,0-0.6-0.2-1-0.5c-0.2-0.1-0.4-0.3-0.4-0.5L23.7,67.4L23.7,67.4z M23.7,98.2L23.7,98.2
							c0,0.4-0.3,0.7-0.6,0.7c-0.4,0-0.6-0.3-0.6-0.7c0-0.4,0.3-0.7,0.6-0.7C23.4,97.5,23.7,97.8,23.7,98.2L23.7,98.2z M23.6,96.2
							L23.6,96.2c0,0.3-0.2,0.6-0.5,0.6c-0.3,0-0.5-0.3-0.5-0.6c0-0.3,0.2-0.6,0.5-0.6C23.3,95.6,23.6,95.8,23.6,96.2L23.6,96.2z
							 M19.6,40.4L19.6,40.4l3.6,3.7l0,49c0,0-0.8-0.2-1.1-0.2c-1.5,0-2.4,1-2.4,1V40.4L19.6,40.4z M19.6,119.6L19.6,119.6
							c0.9,0,1.6,0,2.5,0.1c0.9,0.2,1.4,0.3,1.4,0.3v6.1l-3.9,4.6V119.6z"/>
					</g>
				</g>
			</g>
			<g>
				<g id="XMLID_436_">
					<path id="XMLID_453_" class="st7" d="M62.9,101.4L63,83l-2-2.4l0,20.1c0,0,1,0.9,1.6,1.8C62.5,102.4,62.6,102,62.9,101.4z"/>
					<path id="XMLID_447_" class="st7" d="M19.4,117.8c5.1-0.3,9.6,2.7,9.6,2.7c-2.7-6.1-9.6-6.2-9.6-6.2V117.8L19.4,117.8z
						 M26.6,118.1L26.6,118.1c0.2,0,0.4,0.2,0.4,0.4c0,0.2-0.2,0.4-0.4,0.4s-0.4-0.2-0.4-0.4C26.2,118.3,26.4,118.1,26.6,118.1
						L26.6,118.1z M25.1,117L25.1,117c0.3,0,0.5,0.3,0.5,0.6s-0.2,0.6-0.5,0.6c-0.3,0-0.5-0.2-0.5-0.6S24.8,117,25.1,117L25.1,117z
						 M23.1,116.1L23.1,116.1c0.4,0,0.6,0.3,0.6,0.7c0,0.4-0.3,0.7-0.6,0.7c-0.4,0-0.6-0.3-0.6-0.7
						C22.4,116.4,22.7,116.1,23.1,116.1L23.1,116.1z M20.8,115.4L20.8,115.4c0.4,0,0.8,0.4,0.8,0.9c0,0.5-0.4,0.9-0.8,0.9
						c-0.4,0-0.8-0.4-0.8-0.9C20,115.8,20.3,115.4,20.8,115.4z"/>
					<path id="XMLID_446_" class="st7" d="M19.4,129.5l3.4-4l0-5.7c0,0-0.4-0.1-0.6-0.2c-0.2,0-0.7-0.1-0.7-0.1s-0.1,2,0.2,2.9
						c0,0,0.2,0.7,0.3,1.6c0.1,0.8,0,1.7-0.3,2.2c0,0-0.7,1.3-1.1,0.7c0,0,0-0.1,0-0.3c0.1-0.5,0.2-1.4,0.2-1.9c0-0.6,0-1.4-0.3-2.3
						c0,0-0.2-0.6-0.2-1.2c-0.1-0.7-0.1-1.4,0.2-1.7c-0.4,0-0.8,0-1.1,0L19.4,129.5z"/>
					<path id="XMLID_445_" class="st7" d="M22.6,101.9l-0.8,0.3c0,0-0.4,1.7-0.5,3.7c-0.1,1.1-0.1,2.3,0.1,3.4c0,0,0.8,3.5,0.2,3.5
						c0,0-0.7,0.3-1-1c0,0-0.6-2.2-0.6-4.9c0-1.3,0.1-3,0.5-4.3l-1.1,0.4v9.7c0,0,0.8,0.1,1.6,0.2c0.7,0.1,1.3,0.3,1.6,0.4
						L22.6,101.9z"/>
					<path id="XMLID_444_" class="st7" d="M58.9,103c1.2,1.1,2.4,2.4,3.4,4.2l1.4-0.8c0,0-1.6-2.9-4.6-5.4c-1.4-1.1-3.1-2.3-5.1-2.9
						l-0.8,1.6C53.2,99.7,56.1,100.5,58.9,103z"/>
					<path id="XMLID_443_" class="st7" d="M49,99.2c0,0-2.1-0.3-5.7,1.3c-2.4,0.9-4.2,2.7-4.9,3.5l-2.2-0.5c0,0,1.9-2.6,6.4-4.6
						c4.6-2,7-1.4,7-1.4S49.2,98.4,49,99.2z"/>
					<path id="XMLID_442_" class="st7" d="M37.3,100.8c0.8-0.7,1.9-1.6,2.2-1.7l18.4-22l-1.2-1.5l-23.4,27.7c0,0,0.4-0.1,0.8-0.1
						c0.3,0,0.9,0.1,0.9,0.1S35.7,102.2,37.3,100.8z"/>
					<polygon id="XMLID_441_" class="st7" points="42.3,91 40.6,92.9 35.6,87.2 39.1,87.3 39.2,90.7 					"/>
					<g id="XMLID_437_">
						<path id="XMLID_440_" class="st7" d="M19.6,47.8c0.4-1.4,0.5-5.3,0.5-5.3c1.6,0.8,1,3.2,1,3.2c-1.2,4.4-0.3,6.3-0.3,6.3
							c1.4,2.8,0.5,4.8,0.5,4.8c-0.6,1.8-0.8,3.1-0.9,4c-0.1,1.5,0.3,2.2,0.3,2.2c0.2,1,0.5,1.9,0.6,2.6c0.3,2,0.2,3,0.2,3
							c-0.1,1.2-0.6,2.2-0.8,3c-0.4,2.7,0.4,4,0.4,4c1.1,2.8,0.4,5.3,0.4,5.3c-0.2,1.2-0.6,2.2-0.7,3.2c-0.2,2,0.3,3.4,0.3,3.4
							c1.2,4.6,0.1,5.6,0.1,5.6s0.5,0,0.6,0c0.1,0,0.4,0,0.4,0l0-48.9l-2.9-3v8.4C19.5,48.6,19.6,47.8,19.6,47.8z"/>
						<path id="XMLID_439_" class="st7" d="M20.2,53.4c-0.3-0.7-0.8-1.1-0.8-2v8.1C21.1,56,20.2,53.4,20.2,53.4z"/>
						<path id="XMLID_438_" class="st7" d="M20.3,93.5c0.2-0.4,0.3-1.7,0.2-2.8c0-1.1-0.2-2.1-0.2-2.1c-0.2-0.9-0.4-1.7-0.5-2.5
							c-0.1-0.6-0.1-1.1-0.1-1.5c0-0.8,0.1-1.3,0.1-1.3c0.1-0.6,0.2-1,0.4-1.4c0.7-2.7,0.2-3.9,0.2-3.9c-1.6-4.3-0.8-6.9-0.8-6.9
							c1.1-2.4,0.6-5,0.6-5c-0.4-1-0.8-2.4-0.8-3.8v31.9C19.8,93.8,20.3,93.5,20.3,93.5z"/>
					</g>
				</g>
			</g>
		</g>
		<path id="XMLID_23_" class="st7" d="M63.9,83.8c-0.2-0.9-0.3-1.6-0.3-1.6l-0.6,0L62.6,79l-2.5-0.1L60,75.6l-2.7-0.3l-0.3-3.4
			l-3-0.1l-0.1-3.6l-3-0.4l-7.3,8.5l-7.2-8.6L35,66.1c0,0,0.3,1.3,0.5,1.9c0.1,0.6,0.3,1.5,0.3,1.5l0.7-0.1l0.4,3.2l2.4,0.2l0.3,3.3
			l2.6,0.3l0.3,3.4l3.2,0.1l0,3.5l3.1,0.3l7.3-8.5l8.4,10.2C64,84.6,64,84.6,63.9,83.8z"/>
		<path class="st6" d="M18.9,135.2H81V16.4H18.4v118.7H18.9L18.9,135.2z M19.3,134.2L19.3,134.2c0-1,0-115.8,0-116.8
			c0.9,0,59.8,0,60.7,0c0,1,0,115.8,0,116.8C79.1,134.2,20.3,134.2,19.3,134.2z"/>
		<g>
			<path id="XMLID_20_" class="st1" d="M33.6,27.2c-2.6-3.6-3.3-6.6-3.3-6.6s-0.7,3-3.3,6.6c-2.6,3.6-5.1,4.6-5.1,4.6s2.4,1,5.1,4.6
				c2.6,3.6,3.3,6.6,3.3,6.6s0.7-3,3.3-6.6c2.6-3.6,5.1-4.6,5.1-4.6S36.3,30.8,33.6,27.2z"/>
			<path id="XMLID_19_" class="st1" d="M65.8,124.4c2.6,3.6,3.3,6.6,3.3,6.6s0.7-3,3.3-6.6c2.6-3.6,5.1-4.6,5.1-4.6s-2.4-1-5.1-4.6
				c-2.6-3.6-3.3-6.6-3.3-6.6s-0.7,3-3.3,6.6c-2.6,3.6-5.1,4.6-5.1,4.6S63.2,120.8,65.8,124.4z"/>
		</g>
		<g>
			<g>
				<path id="XMLID_18_" class="st2" d="M12.7,30.9c0,0,1.4,4.5,4.6,6.3c0,0-3.2,1.7-4.6,6.2c-1.4-4.6-4.6-6.2-4.6-6.2
					C11.3,35.3,12.7,30.9,12.7,30.9z"/>
			</g>
			<g>
				<path id="XMLID_17_" class="st2" d="M86.7,120.7c0,0-1.4-4.5-4.6-6.3c0,0,3.2-1.7,4.6-6.2c1.4,4.6,4.6,6.2,4.6,6.2
					C88.1,116.3,86.7,120.7,86.7,120.7z"/>
			</g>
		</g>
		<path id="XMLID_16_" class="st2" d="M11.3,10.7v1.9h2.4c0,0,0,10.2,0,10.5c0,0.3-0.1,0.8-0.3,1.2c-0.2,0.3-0.6,0.6-1.1,0.6
			c-0.5,0-1.9,0.2-2.2-1.2c-0.1-0.5-0.1-1.5-0.1-1.5l-2,0c0,0,0,1.5,0.1,2.1c0.2,1,1.3,2.6,3.9,2.6c0.9,0,3.3-0.4,3.6-3.1
			c0.1-1.1,0.1-11.2,0.1-11.2h2v-1.9H11.3z"/>
		<path id="XMLID_14_" class="st2" d="M88.1,140.9v-1.9h-2.4c0,0,0-10.2,0-10.5c0-0.3,0.1-0.8,0.3-1.2c0.2-0.3,0.6-0.6,1.1-0.6
			c0.5,0,1.9-0.2,2.2,1.2c0.1,0.5,0.1,1.5,0.1,1.5h2c0,0,0-1.5-0.1-2.1c-0.2-1-1.3-2.6-3.9-2.6c-0.9,0-3.3,0.4-3.6,3.1
			c-0.1,1.1-0.1,11.2-0.1,11.2h-2v1.9H88.1z"/>
	</g>
</g>
</svg>
