<?xml version="1.0" encoding="utf-8"?>
<!-- Generator: Adobe Illustrator 19.0.0, SVG Export Plug-In . SVG Version: 6.00 Build 0)  -->
<svg version="1.1" xmlns="http://www.w3.org/2000/svg" xmlns:xlink="http://www.w3.org/1999/xlink" x="0px" y="0px"
	 viewBox="0 0 99.4 151.6" style="enable-background:new 0 0 99.4 151.6;" xml:space="preserve">
<style type="text/css">
	.st0{fill:#FFFFFF;stroke:#000000;stroke-width:0.25;stroke-miterlimit:2.6131;}
	.st1{fill-rule:evenodd;clip-rule:evenodd;fill:#E52529;}
	.st2{fill:#E52529;}
</style>
<g id="Calque_2">
	<path id="XMLID_15_" class="st0" d="M99.3,5.3v140.9c0,2.9-2.3,5.2-5.2,5.2H5.3c-2.9,0-5.2-2.3-5.2-5.2V5.3c0-2.9,2.3-5.2,5.2-5.2
		h88.7C96.9,0.1,99.3,2.5,99.3,5.3z"/>
</g>
<g id="Calque_1">
	<g>
		<g>
			<g>
				<g>
					<path class="st1" d="M552.8,134.6c-3.2-4.4-4.1-8-4.1-8s-0.9,3.7-4.1,8c-3.2,4.4-6.2,5.6-6.2,5.6s3,1.2,6.2,5.6
						c3.2,4.4,4.1,8,4.1,8s0.9-3.7,4.1-8c3.2-4.4,6.2-5.6,6.2-5.6S556.1,138.9,552.8,134.6z"/>
					<path class="st1" d="M510.8,134.6c-3.2-4.4-4.1-8-4.1-8s-0.9,3.7-4.1,8c-3.2,4.4-6.2,5.6-6.2,5.6s3,1.2,6.2,5.6
						c3.2,4.4,4.1,8,4.1,8s0.9-3.7,4.1-8c3.2-4.4,6.2-5.6,6.2-5.6S514,138.9,510.8,134.6z"/>
				</g>
				<g>
					<path class="st1" d="M531.8,177.1c-3.2-4.4-4.1-8-4.1-8s-0.9,3.7-4.1,8c-3.2,4.4-6.2,5.6-6.2,5.6s3,1.2,6.2,5.6
						c3.2,4.4,4.1,8,4.1,8s0.9-3.7,4.1-8c3.2-4.4,6.2-5.6,6.2-5.6S535,181.5,531.8,177.1z"/>
				</g>
				<g>
					<path class="st1" d="M552.8,219.7c-3.2-4.4-4.1-8-4.1-8s-0.9,3.7-4.1,8c-3.2,4.4-6.2,5.6-6.2,5.6s3,1.2,6.2,5.6
						c3.2,4.4,4.1,8,4.1,8s0.9-3.7,4.1-8c3.2-4.4,6.2-5.6,6.2-5.6S556.1,224,552.8,219.7z"/>
					<path class="st1" d="M510.8,219.7c-3.2-4.4-4.1-8-4.1-8s-0.9,3.7-4.1,8c-3.2,4.4-6.2,5.6-6.2,5.6s3,1.2,6.2,5.6
						c3.2,4.4,4.1,8,4.1,8s0.9-3.7,4.1-8c3.2-4.4,6.2-5.6,6.2-5.6S514,224,510.8,219.7z"/>
				</g>
			</g>
		</g>
		<g>
			<g>
				<g>
					<g>
						<g>
							<g>
								<path class="st2" d="M486.7,117.5h7.8v1.8h-6l-0.2,3c0,0,2.8-1.6,5.5,0.7c0.5,0.4,2.9,2.9,1.4,7.8c-0.3,1-2,3.6-5.6,3.1
									c-0.2,0-2.9-0.7-3.9-3.7l1.7-0.4c0,0,1.3,2.7,3.1,2.5c0.9-0.1,3.3-0.7,3.2-4.6c0-0.3,0-3.7-2.9-4.2c-1-0.2-2.2,0-3.9,1.7
									l-0.8-0.5L486.7,117.5z"/>
							</g>
						</g>
						<g>
							<g>
								<path class="st2" d="M568.8,247.8h-7.9V246h6l0.2-3c0,0-2.8,1.6-5.5-0.7c-0.5-0.4-2.9-2.9-1.4-7.8c0.3-1,2-3.6,5.6-3.1
									c0.2,0,2.9,0.7,3.9,3.7l-1.7,0.4c0,0-1.3-2.7-3.1-2.5c-0.9,0.1-3.3,0.7-3.2,4.6c0,0.3,0,3.7,2.9,4.2c1,0.2,2.2,0,3.9-1.7
									l0.8,0.5L568.8,247.8z"/>
							</g>
						</g>
					</g>
				</g>
			</g>
		</g>
		<g>
			<g>
				<path class="st2" d="M490.8,137.7c0,0,1.4,4.5,4.7,6.3c0,0-3.2,1.7-4.7,6.2c-1.5-4.6-4.7-6.2-4.7-6.2
					C489.4,142.2,490.8,137.7,490.8,137.7z"/>
			</g>
			<g>
				<path class="st2" d="M564.7,227.6c0,0-1.4-4.5-4.7-6.3c0,0,3.2-1.7,4.7-6.2c1.5,4.6,4.7,6.2,4.7,6.2
					C566.1,223.1,564.7,227.6,564.7,227.6z"/>
			</g>
		</g>
	</g>
	<g>
		<g>
			<g>
				<g>
					<path id="XMLID_23_" class="st1" d="M74.8,27.7c-3.2-4.4-4.1-8-4.1-8s-0.9,3.7-4.1,8c-3.2,4.4-6.2,5.6-6.2,5.6s3,1.2,6.2,5.6
						c3.2,4.4,4.1,8,4.1,8s0.9-3.7,4.1-8c3.2-4.4,6.2-5.6,6.2-5.6S78.1,32,74.8,27.7z"/>
					<path id="XMLID_22_" class="st1" d="M32.8,27.7c-3.2-4.4-4.1-8-4.1-8s-0.9,3.7-4.1,8c-3.2,4.4-6.2,5.6-6.2,5.6s3,1.2,6.2,5.6
						c3.2,4.4,4.1,8,4.1,8s0.9-3.7,4.1-8c3.2-4.4,6.2-5.6,6.2-5.6S36,32,32.8,27.7z"/>
				</g>
				<g>
					<path id="XMLID_21_" class="st1" d="M53.8,70.2c-3.2-4.4-4.1-8-4.1-8s-0.9,3.7-4.1,8c-3.2,4.4-6.2,5.6-6.2,5.6s3,1.2,6.2,5.6
						c3.2,4.4,4.1,8,4.1,8s0.9-3.7,4.1-8C57,77,60,75.8,60,75.8S57,74.6,53.8,70.2z"/>
				</g>
				<g>
					<path id="XMLID_20_" class="st1" d="M74.8,112.8c-3.2-4.4-4.1-8-4.1-8s-0.9,3.7-4.1,8c-3.2,4.4-6.2,5.6-6.2,5.6s3,1.2,6.2,5.6
						c3.2,4.4,4.1,8,4.1,8s0.9-3.7,4.1-8c3.2-4.4,6.2-5.6,6.2-5.6S78.1,117.1,74.8,112.8z"/>
					<path id="XMLID_19_" class="st1" d="M32.8,112.8c-3.2-4.4-4.1-8-4.1-8s-0.9,3.7-4.1,8c-3.2,4.4-6.2,5.6-6.2,5.6s3,1.2,6.2,5.6
						c3.2,4.4,4.1,8,4.1,8s0.9-3.7,4.1-8c3.2-4.4,6.2-5.6,6.2-5.6S36,117.1,32.8,112.8z"/>
				</g>
			</g>
		</g>
		<g>
			<g>
				<g>
					<g>
						<g>
							<g>
								<path id="XMLID_18_" class="st2" d="M8.6,10.7h7.8v1.8h-6l-0.2,3c0,0,2.8-1.6,5.5,0.7c0.5,0.4,2.9,2.9,1.4,7.8
									c-0.3,1-2,3.6-5.6,3.1c-0.2,0-2.9-0.7-3.9-3.7L9.4,23c0,0,1.3,2.7,3.1,2.5c0.9-0.1,3.3-0.7,3.2-4.6c0-0.3,0-3.7-2.9-4.2
									c-1-0.2-2.2,0-3.9,1.7l-0.8-0.5L8.6,10.7z"/>
							</g>
						</g>
						<g>
							<g>
								<path id="XMLID_17_" class="st2" d="M90.8,140.9h-7.9v-1.8h6l0.2-3c0,0-2.8,1.6-5.5-0.7c-0.5-0.4-2.9-2.9-1.4-7.8
									c0.3-1,2-3.6,5.6-3.1c0.2,0,2.9,0.7,3.9,3.7l-1.7,0.4c0,0-1.3-2.7-3.1-2.5c-0.9,0.1-3.3,0.7-3.2,4.6c0,0.3,0,3.7,2.9,4.2
									c1,0.2,2.2,0,3.9-1.7l0.8,0.5L90.8,140.9z"/>
							</g>
						</g>
					</g>
				</g>
			</g>
		</g>
		<g>
			<g>
				<path id="XMLID_16_" class="st2" d="M12.8,30.9c0,0,1.4,4.5,4.7,6.3c0,0-3.2,1.7-4.7,6.2c-1.5-4.6-4.7-6.2-4.7-6.2
					C11.3,35.3,12.8,30.9,12.8,30.9z"/>
			</g>
			<g>
				<path id="XMLID_14_" class="st2" d="M86.6,120.7c0,0-1.4-4.5-4.7-6.3c0,0,3.2-1.7,4.7-6.2c1.5,4.6,4.7,6.2,4.7,6.2
					C88.1,116.3,86.6,120.7,86.6,120.7z"/>
			</g>
		</g>
	</g>
	<g>
		<g>
			<g>
				<g>
					<path class="st1" d="M552.8,134.6c-3.2-4.4-4.1-8-4.1-8s-0.9,3.7-4.1,8c-3.2,4.4-6.2,5.6-6.2,5.6s3,1.2,6.2,5.6
						c3.2,4.4,4.1,8,4.1,8s0.9-3.7,4.1-8c3.2-4.4,6.2-5.6,6.2-5.6S556.1,138.9,552.8,134.6z"/>
					<path class="st1" d="M510.8,134.6c-3.2-4.4-4.1-8-4.1-8s-0.9,3.7-4.1,8c-3.2,4.4-6.2,5.6-6.2,5.6s3,1.2,6.2,5.6
						c3.2,4.4,4.1,8,4.1,8s0.9-3.7,4.1-8c3.2-4.4,6.2-5.6,6.2-5.6S514,138.9,510.8,134.6z"/>
				</g>
				<g>
					<path class="st1" d="M531.8,177.1c-3.2-4.4-4.1-8-4.1-8s-0.9,3.7-4.1,8c-3.2,4.4-6.2,5.6-6.2,5.6s3,1.2,6.2,5.6
						c3.2,4.4,4.1,8,4.1,8s0.9-3.7,4.1-8c3.2-4.4,6.2-5.6,6.2-5.6S535,181.5,531.8,177.1z"/>
				</g>
				<g>
					<path class="st1" d="M552.8,219.7c-3.2-4.4-4.1-8-4.1-8s-0.9,3.7-4.1,8c-3.2,4.4-6.2,5.6-6.2,5.6s3,1.2,6.2,5.6
						c3.2,4.4,4.1,8,4.1,8s0.9-3.7,4.1-8c3.2-4.4,6.2-5.6,6.2-5.6S556.1,224,552.8,219.7z"/>
					<path class="st1" d="M510.8,219.7c-3.2-4.4-4.1-8-4.1-8s-0.9,3.7-4.1,8c-3.2,4.4-6.2,5.6-6.2,5.6s3,1.2,6.2,5.6
						c3.2,4.4,4.1,8,4.1,8s0.9-3.7,4.1-8c3.2-4.4,6.2-5.6,6.2-5.6S514,224,510.8,219.7z"/>
				</g>
			</g>
		</g>
		<g>
			<g>
				<g>
					<g>
						<g>
							<g>
								<path class="st2" d="M486.7,117.5h7.8v1.8h-6l-0.2,3c0,0,2.8-1.6,5.5,0.7c0.5,0.4,2.9,2.9,1.4,7.8c-0.3,1-2,3.6-5.6,3.1
									c-0.2,0-2.9-0.7-3.9-3.7l1.7-0.4c0,0,1.3,2.7,3.1,2.5c0.9-0.1,3.3-0.7,3.2-4.6c0-0.3,0-3.7-2.9-4.2c-1-0.2-2.2,0-3.9,1.7
									l-0.8-0.5L486.7,117.5z"/>
							</g>
						</g>
						<g>
							<g>
								<path class="st2" d="M568.8,247.8h-7.9V246h6l0.2-3c0,0-2.8,1.6-5.5-0.7c-0.5-0.4-2.9-2.9-1.4-7.8c0.3-1,2-3.6,5.6-3.1
									c0.2,0,2.9,0.7,3.9,3.7l-1.7,0.4c0,0-1.3-2.7-3.1-2.5c-0.9,0.1-3.3,0.7-3.2,4.6c0,0.3,0,3.7,2.9,4.2c1,0.2,2.2,0,3.9-1.7
									l0.8,0.5L568.8,247.8z"/>
							</g>
						</g>
					</g>
				</g>
			</g>
		</g>
		<g>
			<g>
				<path class="st2" d="M490.8,137.7c0,0,1.4,4.5,4.7,6.3c0,0-3.2,1.7-4.7,6.2c-1.5-4.6-4.7-6.2-4.7-6.2
					C489.4,142.2,490.8,137.7,490.8,137.7z"/>
			</g>
			<g>
				<path class="st2" d="M564.7,227.6c0,0-1.4-4.5-4.7-6.3c0,0,3.2-1.7,4.7-6.2c1.5,4.6,4.7,6.2,4.7,6.2
					C566.1,223.1,564.7,227.6,564.7,227.6z"/>
			</g>
		</g>
	</g>
	<g>
		<g>
			<g>
				<g>
					<path class="st1" d="M552.8,134.6c-3.2-4.4-4.1-8-4.1-8s-0.9,3.7-4.1,8c-3.2,4.4-6.2,5.6-6.2,5.6s3,1.2,6.2,5.6
						c3.2,4.4,4.1,8,4.1,8s0.9-3.7,4.1-8c3.2-4.4,6.2-5.6,6.2-5.6S556.1,138.9,552.8,134.6z"/>
					<path class="st1" d="M510.8,134.6c-3.2-4.4-4.1-8-4.1-8s-0.9,3.7-4.1,8c-3.2,4.4-6.2,5.6-6.2,5.6s3,1.2,6.2,5.6
						c3.2,4.4,4.1,8,4.1,8s0.9-3.7,4.1-8c3.2-4.4,6.2-5.6,6.2-5.6S514,138.9,510.8,134.6z"/>
				</g>
				<g>
					<path class="st1" d="M531.8,177.1c-3.2-4.4-4.1-8-4.1-8s-0.9,3.7-4.1,8c-3.2,4.4-6.2,5.6-6.2,5.6s3,1.2,6.2,5.6
						c3.2,4.4,4.1,8,4.1,8s0.9-3.7,4.1-8c3.2-4.4,6.2-5.6,6.2-5.6S535,181.5,531.8,177.1z"/>
				</g>
				<g>
					<path class="st1" d="M552.8,219.7c-3.2-4.4-4.1-8-4.1-8s-0.9,3.7-4.1,8c-3.2,4.4-6.2,5.6-6.2,5.6s3,1.2,6.2,5.6
						c3.2,4.4,4.1,8,4.1,8s0.9-3.7,4.1-8c3.2-4.4,6.2-5.6,6.2-5.6S556.1,224,552.8,219.7z"/>
					<path class="st1" d="M510.8,219.7c-3.2-4.4-4.1-8-4.1-8s-0.9,3.7-4.1,8c-3.2,4.4-6.2,5.6-6.2,5.6s3,1.2,6.2,5.6
						c3.2,4.4,4.1,8,4.1,8s0.9-3.7,4.1-8c3.2-4.4,6.2-5.6,6.2-5.6S514,224,510.8,219.7z"/>
				</g>
			</g>
		</g>
		<g>
			<g>
				<g>
					<g>
						<g>
							<g>
								<path class="st2" d="M486.7,117.5h7.8v1.8h-6l-0.2,3c0,0,2.8-1.6,5.5,0.7c0.5,0.4,2.9,2.9,1.4,7.8c-0.3,1-2,3.6-5.6,3.1
									c-0.2,0-2.9-0.7-3.9-3.7l1.7-0.4c0,0,1.3,2.7,3.1,2.5c0.9-0.1,3.3-0.7,3.2-4.6c0-0.3,0-3.7-2.9-4.2c-1-0.2-2.2,0-3.9,1.7
									l-0.8-0.5L486.7,117.5z"/>
							</g>
						</g>
						<g>
							<g>
								<path class="st2" d="M568.8,247.8h-7.9V246h6l0.2-3c0,0-2.8,1.6-5.5-0.7c-0.5-0.4-2.9-2.9-1.4-7.8c0.3-1,2-3.6,5.6-3.1
									c0.2,0,2.9,0.7,3.9,3.7l-1.7,0.4c0,0-1.3-2.7-3.1-2.5c-0.9,0.1-3.3,0.7-3.2,4.6c0,0.3,0,3.7,2.9,4.2c1,0.2,2.2,0,3.9-1.7
									l0.8,0.5L568.8,247.8z"/>
							</g>
						</g>
					</g>
				</g>
			</g>
		</g>
		<g>
			<g>
				<path class="st2" d="M490.8,137.7c0,0,1.4,4.5,4.7,6.3c0,0-3.2,1.7-4.7,6.2c-1.5-4.6-4.7-6.2-4.7-6.2
					C489.4,142.2,490.8,137.7,490.8,137.7z"/>
			</g>
			<g>
				<path class="st2" d="M564.7,227.6c0,0-1.4-4.5-4.7-6.3c0,0,3.2-1.7,4.7-6.2c1.5,4.6,4.7,6.2,4.7,6.2
					C566.1,223.1,564.7,227.6,564.7,227.6z"/>
			</g>
		</g>
	</g>
</g>
</svg>
