<?xml version="1.0" encoding="utf-8"?>
<!-- Generator: Adobe Illustrator 19.0.0, SVG Export Plug-In . SVG Version: 6.00 Build 0)  -->
<svg version="1.1" xmlns="http://www.w3.org/2000/svg" xmlns:xlink="http://www.w3.org/1999/xlink" x="0px" y="0px"
	 viewBox="0 0 99.4 151.6" style="enable-background:new 0 0 99.4 151.6;" xml:space="preserve">
<style type="text/css">
	.st0{fill:#FFFFFF;stroke:#000000;stroke-width:0.25;stroke-miterlimit:2.6131;}
	.st1{fill-rule:evenodd;clip-rule:evenodd;fill:#E52529;}
	.st2{fill:#E52529;}
</style>
<g id="Calque_2">
	<path id="XMLID_15_" class="st0" d="M99.3,5.3v140.9c0,2.9-2.3,5.2-5.2,5.2H5.3c-2.9,0-5.2-2.3-5.2-5.2V5.3c0-2.9,2.3-5.2,5.2-5.2
		h88.7C96.9,0.1,99.3,2.5,99.3,5.3z"/>
</g>
<g id="Calque_1">
	<g>
		<g>
			<g>
				<path id="XMLID_20_" class="st1" d="M53.8,27.7c-3.2-4.4-4.1-8-4.1-8s-0.9,3.7-4.1,8c-3.2,4.4-6.2,5.6-6.2,5.6s3,1.2,6.2,5.6
					c3.2,4.4,4.1,8,4.1,8s0.9-3.7,4.1-8c3.2-4.4,6.2-5.6,6.2-5.6S57,32,53.8,27.7z"/>
				<path id="XMLID_19_" class="st1" d="M53.8,112.8c-3.2-4.4-4.1-8-4.1-8s-0.9,3.7-4.1,8c-3.2,4.4-6.2,5.6-6.2,5.6s3,1.2,6.2,5.6
					c3.2,4.4,4.1,8,4.1,8s0.9-3.7,4.1-8c3.2-4.4,6.2-5.6,6.2-5.6S57,117.1,53.8,112.8z"/>
			</g>
		</g>
		<g>
			<g>
				<g>
					<g>
						<g>
							<g>
								<path id="XMLID_18_" class="st2" d="M91.3,135.7c0,0,0.9,2.1-0.6,3.8c-0.4,0.5-2.3,2.4-5.8,1c-0.9-0.3-3.2-1.8-2.4-4.9
									c0.1-0.5,0-2,3.2-4.1c0.6-0.4,2.9-2,3.8-5.2h-5.2v2.2h-1.9v-4.1h9.3c0,0,0.2,3.2-2.7,6.5c-0.3,0.3-2.1,2.1-3,2.7
									c-0.6,0.4-2,1.4-1.7,3.3c0.1,0.4,0.3,1.7,2,1.9c0.6,0.1,2.1,0.3,2.9-0.9c0.1-0.2,0.5-1,0.3-1.8L91.3,135.7z"/>
							</g>
						</g>
						<g>
							<g>
								<path id="XMLID_17_" class="st2" d="M8.1,15.9c0,0-0.9-2.1,0.6-3.8c0.4-0.4,2.3-2.4,5.8-1c0.9,0.3,3.2,1.8,2.4,4.8
									c-0.1,0.5,0,2-3.2,4.1c-0.6,0.4-2.9,2-3.8,5.2h5.2V23H17v4.1H7.7c0,0-0.2-3.2,2.7-6.5c0.3-0.3,2.1-2.1,3-2.7
									c0.6-0.4,2-1.4,1.7-3.3c-0.1-0.4-0.3-1.7-2-1.9c-0.6-0.1-2.1-0.3-2.9,0.9c-0.1,0.2-0.5,1-0.3,1.8L8.1,15.9z"/>
							</g>
						</g>
					</g>
				</g>
			</g>
		</g>
		<g>
			<g>
				<path id="XMLID_16_" class="st2" d="M12.8,30.9c0,0,1.4,4.5,4.7,6.3c0,0-3.2,1.7-4.7,6.2c-1.5-4.6-4.7-6.2-4.7-6.2
					C11.3,35.3,12.8,30.9,12.8,30.9z"/>
			</g>
			<g>
				<path id="XMLID_14_" class="st2" d="M86.6,120.7c0,0-1.4-4.5-4.7-6.3c0,0,3.2-1.7,4.7-6.2c1.5,4.6,4.7,6.2,4.7,6.2
					C88.1,116.3,86.6,120.7,86.6,120.7z"/>
			</g>
		</g>
	</g>
</g>
</svg>
