<?xml version="1.0" encoding="utf-8"?>
<!-- Generator: Adobe Illustrator 19.0.0, SVG Export Plug-In . SVG Version: 6.00 Build 0)  -->
<svg version="1.1" xmlns="http://www.w3.org/2000/svg" xmlns:xlink="http://www.w3.org/1999/xlink" x="0px" y="0px"
	 viewBox="0 0 99.4 151.6" style="enable-background:new 0 0 99.4 151.6;" xml:space="preserve">
<style type="text/css">
	.st0{fill:#FFFFFF;stroke:#000000;stroke-width:0.25;stroke-miterlimit:2.6131;}
	.st1{fill-rule:evenodd;clip-rule:evenodd;fill:#E52529;}
	.st2{fill:#E52529;}
</style>
<g id="Calque_2">
	<path id="XMLID_15_" class="st0" d="M99.3,5.3v140.9c0,2.9-2.3,5.2-5.2,5.2H5.3c-2.9,0-5.2-2.3-5.2-5.2V5.3c0-2.9,2.3-5.2,5.2-5.2
		h88.7C96.9,0.1,99.3,2.5,99.3,5.3z"/>
</g>
<g id="Calque_1">
	<g>
		<g>
			<g>
				<g>
					<path class="st1" d="M552.8,134.6c-3.2-4.4-4.1-8-4.1-8s-0.9,3.7-4.1,8c-3.2,4.4-6.2,5.6-6.2,5.6s3,1.2,6.2,5.6
						c3.2,4.4,4.1,8,4.1,8s0.9-3.7,4.1-8c3.2-4.4,6.2-5.6,6.2-5.6S556.1,138.9,552.8,134.6z"/>
					<path class="st1" d="M510.8,134.6c-3.2-4.4-4.1-8-4.1-8s-0.9,3.7-4.1,8c-3.2,4.4-6.2,5.6-6.2,5.6s3,1.2,6.2,5.6
						c3.2,4.4,4.1,8,4.1,8s0.9-3.7,4.1-8c3.2-4.4,6.2-5.6,6.2-5.6S514,138.9,510.8,134.6z"/>
				</g>
				<g>
					<path class="st1" d="M531.8,177.1c-3.2-4.4-4.1-8-4.1-8s-0.9,3.7-4.1,8c-3.2,4.4-6.2,5.6-6.2,5.6s3,1.2,6.2,5.6
						c3.2,4.4,4.1,8,4.1,8s0.9-3.7,4.1-8c3.2-4.4,6.2-5.6,6.2-5.6S535,181.5,531.8,177.1z"/>
				</g>
				<g>
					<path class="st1" d="M552.8,219.7c-3.2-4.4-4.1-8-4.1-8s-0.9,3.7-4.1,8c-3.2,4.4-6.2,5.6-6.2,5.6s3,1.2,6.2,5.6
						c3.2,4.4,4.1,8,4.1,8s0.9-3.7,4.1-8c3.2-4.4,6.2-5.6,6.2-5.6S556.1,224,552.8,219.7z"/>
					<path class="st1" d="M510.8,219.7c-3.2-4.4-4.1-8-4.1-8s-0.9,3.7-4.1,8c-3.2,4.4-6.2,5.6-6.2,5.6s3,1.2,6.2,5.6
						c3.2,4.4,4.1,8,4.1,8s0.9-3.7,4.1-8c3.2-4.4,6.2-5.6,6.2-5.6S514,224,510.8,219.7z"/>
				</g>
			</g>
		</g>
		<g>
			<g>
				<g>
					<g>
						<g>
							<g>
								<path class="st2" d="M486.7,117.5h7.8v1.8h-6l-0.2,3c0,0,2.8-1.6,5.5,0.7c0.5,0.4,2.9,2.9,1.4,7.8c-0.3,1-2,3.6-5.6,3.1
									c-0.2,0-2.9-0.7-3.9-3.7l1.7-0.4c0,0,1.3,2.7,3.1,2.5c0.9-0.1,3.3-0.7,3.2-4.6c0-0.3,0-3.7-2.9-4.2c-1-0.2-2.2,0-3.9,1.7
									l-0.8-0.5L486.7,117.5z"/>
							</g>
						</g>
						<g>
							<g>
								<path class="st2" d="M568.8,247.8h-7.9V246h6l0.2-3c0,0-2.8,1.6-5.5-0.7c-0.5-0.4-2.9-2.9-1.4-7.8c0.3-1,2-3.6,5.6-3.1
									c0.2,0,2.9,0.7,3.9,3.7l-1.7,0.4c0,0-1.3-2.7-3.1-2.5c-0.9,0.1-3.3,0.7-3.2,4.6c0,0.3,0,3.7,2.9,4.2c1,0.2,2.2,0,3.9-1.7
									l0.8,0.5L568.8,247.8z"/>
							</g>
						</g>
					</g>
				</g>
			</g>
		</g>
		<g>
			<g>
				<path class="st2" d="M490.8,137.7c0,0,1.4,4.5,4.7,6.3c0,0-3.2,1.7-4.7,6.2c-1.5-4.6-4.7-6.2-4.7-6.2
					C489.4,142.2,490.8,137.7,490.8,137.7z"/>
			</g>
			<g>
				<path class="st2" d="M564.7,227.6c0,0-1.4-4.5-4.7-6.3c0,0,3.2-1.7,4.7-6.2c1.5,4.6,4.7,6.2,4.7,6.2
					C566.1,223.1,564.7,227.6,564.7,227.6z"/>
			</g>
		</g>
	</g>
	<g>
		<g>
			<g>
				<g>
					<path class="st1" d="M552.8,134.6c-3.2-4.4-4.1-8-4.1-8s-0.9,3.7-4.1,8c-3.2,4.4-6.2,5.6-6.2,5.6s3,1.2,6.2,5.6
						c3.2,4.4,4.1,8,4.1,8s0.9-3.7,4.1-8c3.2-4.4,6.2-5.6,6.2-5.6S556.1,138.9,552.8,134.6z"/>
					<path class="st1" d="M510.8,134.6c-3.2-4.4-4.1-8-4.1-8s-0.9,3.7-4.1,8c-3.2,4.4-6.2,5.6-6.2,5.6s3,1.2,6.2,5.6
						c3.2,4.4,4.1,8,4.1,8s0.9-3.7,4.1-8c3.2-4.4,6.2-5.6,6.2-5.6S514,138.9,510.8,134.6z"/>
				</g>
				<g>
					<path class="st1" d="M531.8,177.1c-3.2-4.4-4.1-8-4.1-8s-0.9,3.7-4.1,8c-3.2,4.4-6.2,5.6-6.2,5.6s3,1.2,6.2,5.6
						c3.2,4.4,4.1,8,4.1,8s0.9-3.7,4.1-8c3.2-4.4,6.2-5.6,6.2-5.6S535,181.5,531.8,177.1z"/>
				</g>
				<g>
					<path class="st1" d="M552.8,219.7c-3.2-4.4-4.1-8-4.1-8s-0.9,3.7-4.1,8c-3.2,4.4-6.2,5.6-6.2,5.6s3,1.2,6.2,5.6
						c3.2,4.4,4.1,8,4.1,8s0.9-3.7,4.1-8c3.2-4.4,6.2-5.6,6.2-5.6S556.1,224,552.8,219.7z"/>
					<path class="st1" d="M510.8,219.7c-3.2-4.4-4.1-8-4.1-8s-0.9,3.7-4.1,8c-3.2,4.4-6.2,5.6-6.2,5.6s3,1.2,6.2,5.6
						c3.2,4.4,4.1,8,4.1,8s0.9-3.7,4.1-8c3.2-4.4,6.2-5.6,6.2-5.6S514,224,510.8,219.7z"/>
				</g>
			</g>
		</g>
		<g>
			<g>
				<g>
					<g>
						<g>
							<g>
								<path class="st2" d="M486.7,117.5h7.8v1.8h-6l-0.2,3c0,0,2.8-1.6,5.5,0.7c0.5,0.4,2.9,2.9,1.4,7.8c-0.3,1-2,3.6-5.6,3.1
									c-0.2,0-2.9-0.7-3.9-3.7l1.7-0.4c0,0,1.3,2.7,3.1,2.5c0.9-0.1,3.3-0.7,3.2-4.6c0-0.3,0-3.7-2.9-4.2c-1-0.2-2.2,0-3.9,1.7
									l-0.8-0.5L486.7,117.5z"/>
							</g>
						</g>
						<g>
							<g>
								<path class="st2" d="M568.8,247.8h-7.9V246h6l0.2-3c0,0-2.8,1.6-5.5-0.7c-0.5-0.4-2.9-2.9-1.4-7.8c0.3-1,2-3.6,5.6-3.1
									c0.2,0,2.9,0.7,3.9,3.7l-1.7,0.4c0,0-1.3-2.7-3.1-2.5c-0.9,0.1-3.3,0.7-3.2,4.6c0,0.3,0,3.7,2.9,4.2c1,0.2,2.2,0,3.9-1.7
									l0.8,0.5L568.8,247.8z"/>
							</g>
						</g>
					</g>
				</g>
			</g>
		</g>
		<g>
			<g>
				<path class="st2" d="M490.8,137.7c0,0,1.4,4.5,4.7,6.3c0,0-3.2,1.7-4.7,6.2c-1.5-4.6-4.7-6.2-4.7-6.2
					C489.4,142.2,490.8,137.7,490.8,137.7z"/>
			</g>
			<g>
				<path class="st2" d="M564.7,227.6c0,0-1.4-4.5-4.7-6.3c0,0,3.2-1.7,4.7-6.2c1.5,4.6,4.7,6.2,4.7,6.2
					C566.1,223.1,564.7,227.6,564.7,227.6z"/>
			</g>
		</g>
	</g>
	<g>
		<g>
			<g>
				<g>
					<path class="st1" d="M552.8,134.6c-3.2-4.4-4.1-8-4.1-8s-0.9,3.7-4.1,8c-3.2,4.4-6.2,5.6-6.2,5.6s3,1.2,6.2,5.6
						c3.2,4.4,4.1,8,4.1,8s0.9-3.7,4.1-8c3.2-4.4,6.2-5.6,6.2-5.6S556.1,138.9,552.8,134.6z"/>
					<path class="st1" d="M510.8,134.6c-3.2-4.4-4.1-8-4.1-8s-0.9,3.7-4.1,8c-3.2,4.4-6.2,5.6-6.2,5.6s3,1.2,6.2,5.6
						c3.2,4.4,4.1,8,4.1,8s0.9-3.7,4.1-8c3.2-4.4,6.2-5.6,6.2-5.6S514,138.9,510.8,134.6z"/>
				</g>
				<g>
					<path class="st1" d="M531.8,177.1c-3.2-4.4-4.1-8-4.1-8s-0.9,3.7-4.1,8c-3.2,4.4-6.2,5.6-6.2,5.6s3,1.2,6.2,5.6
						c3.2,4.4,4.1,8,4.1,8s0.9-3.7,4.1-8c3.2-4.4,6.2-5.6,6.2-5.6S535,181.5,531.8,177.1z"/>
				</g>
				<g>
					<path class="st1" d="M552.8,219.7c-3.2-4.4-4.1-8-4.1-8s-0.9,3.7-4.1,8c-3.2,4.4-6.2,5.6-6.2,5.6s3,1.2,6.2,5.6
						c3.2,4.4,4.1,8,4.1,8s0.9-3.7,4.1-8c3.2-4.4,6.2-5.6,6.2-5.6S556.1,224,552.8,219.7z"/>
					<path class="st1" d="M510.8,219.7c-3.2-4.4-4.1-8-4.1-8s-0.9,3.7-4.1,8c-3.2,4.4-6.2,5.6-6.2,5.6s3,1.2,6.2,5.6
						c3.2,4.4,4.1,8,4.1,8s0.9-3.7,4.1-8c3.2-4.4,6.2-5.6,6.2-5.6S514,224,510.8,219.7z"/>
				</g>
			</g>
		</g>
		<g>
			<g>
				<g>
					<g>
						<g>
							<g>
								<path class="st2" d="M486.7,117.5h7.8v1.8h-6l-0.2,3c0,0,2.8-1.6,5.5,0.7c0.5,0.4,2.9,2.9,1.4,7.8c-0.3,1-2,3.6-5.6,3.1
									c-0.2,0-2.9-0.7-3.9-3.7l1.7-0.4c0,0,1.3,2.7,3.1,2.5c0.9-0.1,3.3-0.7,3.2-4.6c0-0.3,0-3.7-2.9-4.2c-1-0.2-2.2,0-3.9,1.7
									l-0.8-0.5L486.7,117.5z"/>
							</g>
						</g>
						<g>
							<g>
								<path class="st2" d="M568.8,247.8h-7.9V246h6l0.2-3c0,0-2.8,1.6-5.5-0.7c-0.5-0.4-2.9-2.9-1.4-7.8c0.3-1,2-3.6,5.6-3.1
									c0.2,0,2.9,0.7,3.9,3.7l-1.7,0.4c0,0-1.3-2.7-3.1-2.5c-0.9,0.1-3.3,0.7-3.2,4.6c0,0.3,0,3.7,2.9,4.2c1,0.2,2.2,0,3.9-1.7
									l0.8,0.5L568.8,247.8z"/>
							</g>
						</g>
					</g>
				</g>
			</g>
		</g>
		<g>
			<g>
				<path class="st2" d="M490.8,137.7c0,0,1.4,4.5,4.7,6.3c0,0-3.2,1.7-4.7,6.2c-1.5-4.6-4.7-6.2-4.7-6.2
					C489.4,142.2,490.8,137.7,490.8,137.7z"/>
			</g>
			<g>
				<path class="st2" d="M564.7,227.6c0,0-1.4-4.5-4.7-6.3c0,0,3.2-1.7,4.7-6.2c1.5,4.6,4.7,6.2,4.7,6.2
					C566.1,223.1,564.7,227.6,564.7,227.6z"/>
			</g>
		</g>
	</g>
	<g>
		<g>
			<g>
				<g>
					<g>
						<path id="XMLID_30_" class="st1" d="M74.8,27.7c-3.2-4.4-4.1-8-4.1-8s-0.9,3.7-4.1,8c-3.2,4.4-6.2,5.6-6.2,5.6s3,1.2,6.2,5.6
							c3.2,4.4,4.1,8,4.1,8s0.9-3.7,4.1-8c3.2-4.4,6.2-5.6,6.2-5.6S78.1,32,74.8,27.7z"/>
						<path id="XMLID_29_" class="st1" d="M32.8,27.7c-3.2-4.4-4.1-8-4.1-8s-0.9,3.7-4.1,8c-3.2,4.4-6.2,5.6-6.2,5.6s3,1.2,6.2,5.6
							c3.2,4.4,4.1,8,4.1,8s0.9-3.7,4.1-8c3.2-4.4,6.2-5.6,6.2-5.6S36,32,32.8,27.7z"/>
					</g>
					<g>
						<path id="XMLID_28_" class="st1" d="M74.8,70.2c-3.2-4.4-4.1-8-4.1-8s-0.9,3.7-4.1,8c-3.2,4.4-6.2,5.6-6.2,5.6s3,1.2,6.2,5.6
							c3.2,4.4,4.1,8,4.1,8s0.9-3.7,4.1-8c3.2-4.4,6.2-5.6,6.2-5.6S78.1,74.6,74.8,70.2z"/>
						<path id="XMLID_27_" class="st1" d="M32.8,70.2c-3.2-4.4-4.1-8-4.1-8s-0.9,3.7-4.1,8c-3.2,4.4-6.2,5.6-6.2,5.6s3,1.2,6.2,5.6
							c3.2,4.4,4.1,8,4.1,8s0.9-3.7,4.1-8C36,77,39,75.8,39,75.8S36,74.6,32.8,70.2z"/>
					</g>
					<g>
						<path id="XMLID_26_" class="st1" d="M74.8,112.8c-3.2-4.4-4.1-8-4.1-8s-0.9,3.7-4.1,8c-3.2,4.4-6.2,5.6-6.2,5.6s3,1.2,6.2,5.6
							c3.2,4.4,4.1,8,4.1,8s0.9-3.7,4.1-8c3.2-4.4,6.2-5.6,6.2-5.6S78.1,117.1,74.8,112.8z"/>
						<path id="XMLID_25_" class="st1" d="M32.8,112.8c-3.2-4.4-4.1-8-4.1-8s-0.9,3.7-4.1,8c-3.2,4.4-6.2,5.6-6.2,5.6s3,1.2,6.2,5.6
							c3.2,4.4,4.1,8,4.1,8s0.9-3.7,4.1-8c3.2-4.4,6.2-5.6,6.2-5.6S36,117.1,32.8,112.8z"/>
					</g>
				</g>
				<g>
					<path id="XMLID_24_" class="st1" d="M53.8,49c-3.2-4.4-4.1-8-4.1-8s-0.9,3.7-4.1,8c-3.2,4.4-6.2,5.6-6.2,5.6s3,1.2,6.2,5.6
						c3.2,4.4,4.1,8,4.1,8s0.9-3.7,4.1-8c3.2-4.4,6.2-5.6,6.2-5.6S57,53.3,53.8,49z"/>
					<path id="XMLID_23_" class="st1" d="M53.8,91.5c-3.2-4.4-4.1-8-4.1-8s-0.9,3.7-4.1,8c-3.2,4.4-6.2,5.6-6.2,5.6s3,1.2,6.2,5.6
						c3.2,4.4,4.1,8,4.1,8s0.9-3.7,4.1-8c3.2-4.4,6.2-5.6,6.2-5.6S57,95.9,53.8,91.5z"/>
				</g>
			</g>
		</g>
		<g>
			<g>
				<g>
					<g>
						<g>
							<path class="st1" d="M12.9,19.7c2.1,0,3.5,1.1,3.5,3.1c0,1.9-2.2,2.7-3.3,2.7s-3.6-0.7-3.6-2.8C9.5,20.8,11.1,19.7,12.9,19.7
								L12.9,19.7z M12.9,12.3L12.9,12.3c1.4,0,3,1,3,2.6s-1.6,2.4-3.1,2.4c-1.5,0-3.1-1-3.1-2.4S11,12.3,12.9,12.3L12.9,12.3z
								 M10.5,18.4c0,0-3.2,1.5-2.8,4.8c0.1,1.2,1.6,3.9,5.3,3.9c3.7,0,4.8-2.7,5.1-3.4c1-3.4-2.8-5.3-2.8-5.3
								c1.5-0.7,2.5-2.4,2.4-3.5c-0.2-3.2-2.9-4.2-4.9-4.2c-2,0-4.8,1.6-4.7,4.1C8.2,17.3,10.5,18.4,10.5,18.4L10.5,18.4z"/>
						</g>
						<g>
							<path class="st1" d="M86.5,131.9c-2.1,0-3.5-1.1-3.5-3.1c0-1.9,2.2-2.7,3.3-2.7c1,0,3.6,0.7,3.6,2.8
								C89.9,130.8,88.3,131.9,86.5,131.9L86.5,131.9z M86.5,139.3L86.5,139.3c-1.4,0-3-1-3-2.6c0-1.5,1.6-2.4,3.1-2.4
								s3.1,1,3.1,2.4C89.7,138.1,88.4,139.3,86.5,139.3L86.5,139.3z M88.9,133.2c0,0,3.2-1.5,2.8-4.8c-0.1-1.2-1.6-3.9-5.3-3.9
								c-3.7,0-4.8,2.7-5.1,3.4c-1,3.4,2.8,5.3,2.8,5.3c-1.5,0.7-2.5,2.4-2.4,3.5c0.2,3.2,2.9,4.2,4.9,4.2c2,0,4.8-1.6,4.7-4.1
								C91.2,134.3,88.9,133.2,88.9,133.2L88.9,133.2z"/>
						</g>
					</g>
				</g>
			</g>
		</g>
		<g>
			<g>
				<path id="XMLID_16_" class="st2" d="M12.8,30.9c0,0,1.4,4.5,4.7,6.3c0,0-3.2,1.7-4.7,6.2c-1.5-4.6-4.7-6.2-4.7-6.2
					C11.3,35.3,12.8,30.9,12.8,30.9z"/>
			</g>
			<g>
				<path id="XMLID_14_" class="st2" d="M86.6,120.7c0,0-1.4-4.5-4.7-6.3c0,0,3.2-1.7,4.7-6.2c1.5,4.6,4.7,6.2,4.7,6.2
					C88.1,116.3,86.6,120.7,86.6,120.7z"/>
			</g>
		</g>
	</g>
</g>
</svg>
