<?xml version="1.0" encoding="utf-8"?>
<!-- Generator: Adobe Illustrator 19.0.0, SVG Export Plug-In . SVG Version: 6.00 Build 0)  -->
<svg version="1.1" xmlns="http://www.w3.org/2000/svg" xmlns:xlink="http://www.w3.org/1999/xlink" x="0px" y="0px"
	 viewBox="0 0 99.4 151.6" style="enable-background:new 0 0 99.4 151.6;" xml:space="preserve">
<style type="text/css">
	.st0{fill:#FFFFFF;stroke:#000000;stroke-width:0.25;stroke-miterlimit:2.6131;}
	.st1{fill-rule:evenodd;clip-rule:evenodd;fill:#E52529;}
	.st2{fill:#E52529;}
</style>
<g id="Calque_2">
	<path id="XMLID_15_" class="st0" d="M99.3,5.3v140.9c0,2.9-2.3,5.2-5.2,5.2H5.3c-2.9,0-5.2-2.3-5.2-5.2V5.3c0-2.9,2.3-5.2,5.2-5.2
		h88.7C96.9,0.1,99.3,2.5,99.3,5.3z"/>
</g>
<g id="Calque_1">
	<g>
		<g>
			<g>
				<path id="XMLID_21_" class="st1" d="M53.8,27.7c-3.2-4.4-4.1-8-4.1-8s-0.9,3.7-4.1,8c-3.2,4.4-6.2,5.6-6.2,5.6s3,1.2,6.2,5.6
					c3.2,4.4,4.1,8,4.1,8s0.9-3.7,4.1-8c3.2-4.4,6.2-5.6,6.2-5.6S57,32,53.8,27.7z"/>
				<path id="XMLID_20_" class="st1" d="M53.8,70.2c-3.2-4.4-4.1-8-4.1-8s-0.9,3.7-4.1,8c-3.2,4.4-6.2,5.6-6.2,5.6s3,1.2,6.2,5.6
					c3.2,4.4,4.1,8,4.1,8s0.9-3.7,4.1-8C57,77,60,75.8,60,75.8S57,74.6,53.8,70.2z"/>
				<path id="XMLID_19_" class="st1" d="M53.8,112.8c-3.2-4.4-4.1-8-4.1-8s-0.9,3.7-4.1,8c-3.2,4.4-6.2,5.6-6.2,5.6s3,1.2,6.2,5.6
					c3.2,4.4,4.1,8,4.1,8s0.9-3.7,4.1-8c3.2-4.4,6.2-5.6,6.2-5.6S57,117.1,53.8,112.8z"/>
			</g>
		</g>
		<g>
			<g>
				<g>
					<g>
						<g>
							<g>
								<path id="XMLID_18_" class="st2" d="M8.2,10.7h9.4v1.9l-3.5,3.3c0,0,4,0.1,4.3,5.3c0.1,1.2-0.6,5.4-5,5.9
									c-0.6,0.1-4.1,0.2-5.7-3.8l1.7-0.7c0,0,1,2.6,3,2.6c0.6,0,3.6,0.2,4-3.3c0.1-0.8,0-3.3-2-4.1c-0.7-0.3-1.7-0.4-3.3,0.7
									l-1-1.2l4.9-4.9h-5v2.4H8.2V10.7z"/>
							</g>
						</g>
						<g>
							<g>
								<path id="XMLID_17_" class="st2" d="M91.2,140.9h-9.4v-1.9l3.5-3.3c0,0-4-0.1-4.3-5.3c-0.1-1.2,0.6-5.4,5-5.9
									c0.7-0.1,4.1-0.2,5.7,3.8l-1.7,0.7c0,0-1-2.6-3-2.6c-0.6,0-3.6-0.2-4,3.3c-0.1,0.8,0,3.3,2,4.1c0.7,0.3,1.7,0.4,3.3-0.7
									l1,1.2l-4.9,4.9h5v-2.4h1.8V140.9z"/>
							</g>
						</g>
					</g>
				</g>
			</g>
		</g>
		<g>
			<g>
				<path id="XMLID_16_" class="st2" d="M12.8,30.9c0,0,1.4,4.5,4.7,6.3c0,0-3.2,1.7-4.7,6.2c-1.5-4.6-4.7-6.2-4.7-6.2
					C11.3,35.3,12.8,30.9,12.8,30.9z"/>
			</g>
			<g>
				<path id="XMLID_14_" class="st2" d="M86.6,120.7c0,0-1.4-4.5-4.7-6.3c0,0,3.2-1.7,4.7-6.2c1.5,4.6,4.7,6.2,4.7,6.2
					C88.1,116.3,86.6,120.7,86.6,120.7z"/>
			</g>
		</g>
	</g>
</g>
</svg>
