<?xml version="1.0" encoding="utf-8"?>
<!-- Generator: Adobe Illustrator 19.0.0, SVG Export Plug-In . SVG Version: 6.00 Build 0)  -->
<svg version="1.1" xmlns="http://www.w3.org/2000/svg" xmlns:xlink="http://www.w3.org/1999/xlink" x="0px" y="0px"
	 viewBox="0 0 99.4 151.6" style="enable-background:new 0 0 99.4 151.6;" xml:space="preserve">
<style type="text/css">
	.st0{fill:#FFFFFF;stroke:#000000;stroke-width:0.25;stroke-miterlimit:2.6131;}
	.st1{fill-rule:evenodd;clip-rule:evenodd;fill:#E52529;}
	.st2{fill:#E52529;}
</style>
<g id="Calque_2">
	<path id="XMLID_15_" class="st0" d="M99.3,5.3v140.9c0,2.9-2.3,5.2-5.2,5.2H5.3c-2.9,0-5.2-2.3-5.2-5.2V5.3c0-2.9,2.3-5.2,5.2-5.2
		h88.7C96.9,0.1,99.3,2.5,99.3,5.3z"/>
</g>
<g id="Calque_1">
	<g>
		<g>
			<g>
				<g>
					<path class="st1" d="M552.8,134.6c-3.2-4.4-4.1-8-4.1-8s-0.9,3.7-4.1,8c-3.2,4.4-6.2,5.6-6.2,5.6s3,1.2,6.2,5.6
						c3.2,4.4,4.1,8,4.1,8s0.9-3.7,4.1-8c3.2-4.4,6.2-5.6,6.2-5.6S556.1,138.9,552.8,134.6z"/>
					<path class="st1" d="M510.8,134.6c-3.2-4.4-4.1-8-4.1-8s-0.9,3.7-4.1,8c-3.2,4.4-6.2,5.6-6.2,5.6s3,1.2,6.2,5.6
						c3.2,4.4,4.1,8,4.1,8s0.9-3.7,4.1-8c3.2-4.4,6.2-5.6,6.2-5.6S514,138.9,510.8,134.6z"/>
				</g>
				<g>
					<path class="st1" d="M531.8,177.1c-3.2-4.4-4.1-8-4.1-8s-0.9,3.7-4.1,8c-3.2,4.4-6.2,5.6-6.2,5.6s3,1.2,6.2,5.6
						c3.2,4.4,4.1,8,4.1,8s0.9-3.7,4.1-8c3.2-4.4,6.2-5.6,6.2-5.6S535,181.5,531.8,177.1z"/>
				</g>
				<g>
					<path class="st1" d="M552.8,219.7c-3.2-4.4-4.1-8-4.1-8s-0.9,3.7-4.1,8c-3.2,4.4-6.2,5.6-6.2,5.6s3,1.2,6.2,5.6
						c3.2,4.4,4.1,8,4.1,8s0.9-3.7,4.1-8c3.2-4.4,6.2-5.6,6.2-5.6S556.1,224,552.8,219.7z"/>
					<path class="st1" d="M510.8,219.7c-3.2-4.4-4.1-8-4.1-8s-0.9,3.7-4.1,8c-3.2,4.4-6.2,5.6-6.2,5.6s3,1.2,6.2,5.6
						c3.2,4.4,4.1,8,4.1,8s0.9-3.7,4.1-8c3.2-4.4,6.2-5.6,6.2-5.6S514,224,510.8,219.7z"/>
				</g>
			</g>
		</g>
		<g>
			<g>
				<g>
					<g>
						<g>
							<g>
								<path class="st2" d="M486.7,117.5h7.8v1.8h-6l-0.2,3c0,0,2.8-1.6,5.5,0.7c0.5,0.4,2.9,2.9,1.4,7.8c-0.3,1-2,3.6-5.6,3.1
									c-0.2,0-2.9-0.7-3.9-3.7l1.7-0.4c0,0,1.3,2.7,3.1,2.5c0.9-0.1,3.3-0.7,3.2-4.6c0-0.3,0-3.7-2.9-4.2c-1-0.2-2.2,0-3.9,1.7
									l-0.8-0.5L486.7,117.5z"/>
							</g>
						</g>
						<g>
							<g>
								<path class="st2" d="M568.8,247.8h-7.9V246h6l0.2-3c0,0-2.8,1.6-5.5-0.7c-0.5-0.4-2.9-2.9-1.4-7.8c0.3-1,2-3.6,5.6-3.1
									c0.2,0,2.9,0.7,3.9,3.7l-1.7,0.4c0,0-1.3-2.7-3.1-2.5c-0.9,0.1-3.3,0.7-3.2,4.6c0,0.3,0,3.7,2.9,4.2c1,0.2,2.2,0,3.9-1.7
									l0.8,0.5L568.8,247.8z"/>
							</g>
						</g>
					</g>
				</g>
			</g>
		</g>
		<g>
			<g>
				<path class="st2" d="M490.8,137.7c0,0,1.4,4.5,4.7,6.3c0,0-3.2,1.7-4.7,6.2c-1.5-4.6-4.7-6.2-4.7-6.2
					C489.4,142.2,490.8,137.7,490.8,137.7z"/>
			</g>
			<g>
				<path class="st2" d="M564.7,227.6c0,0-1.4-4.5-4.7-6.3c0,0,3.2-1.7,4.7-6.2c1.5,4.6,4.7,6.2,4.7,6.2
					C566.1,223.1,564.7,227.6,564.7,227.6z"/>
			</g>
		</g>
	</g>
	<g>
		<g>
			<g>
				<g>
					<path class="st1" d="M552.8,134.6c-3.2-4.4-4.1-8-4.1-8s-0.9,3.7-4.1,8c-3.2,4.4-6.2,5.6-6.2,5.6s3,1.2,6.2,5.6
						c3.2,4.4,4.1,8,4.1,8s0.9-3.7,4.1-8c3.2-4.4,6.2-5.6,6.2-5.6S556.1,138.9,552.8,134.6z"/>
					<path class="st1" d="M510.8,134.6c-3.2-4.4-4.1-8-4.1-8s-0.9,3.7-4.1,8c-3.2,4.4-6.2,5.6-6.2,5.6s3,1.2,6.2,5.6
						c3.2,4.4,4.1,8,4.1,8s0.9-3.7,4.1-8c3.2-4.4,6.2-5.6,6.2-5.6S514,138.9,510.8,134.6z"/>
				</g>
				<g>
					<path class="st1" d="M531.8,177.1c-3.2-4.4-4.1-8-4.1-8s-0.9,3.7-4.1,8c-3.2,4.4-6.2,5.6-6.2,5.6s3,1.2,6.2,5.6
						c3.2,4.4,4.1,8,4.1,8s0.9-3.7,4.1-8c3.2-4.4,6.2-5.6,6.2-5.6S535,181.5,531.8,177.1z"/>
				</g>
				<g>
					<path class="st1" d="M552.8,219.7c-3.2-4.4-4.1-8-4.1-8s-0.9,3.7-4.1,8c-3.2,4.4-6.2,5.6-6.2,5.6s3,1.2,6.2,5.6
						c3.2,4.4,4.1,8,4.1,8s0.9-3.7,4.1-8c3.2-4.4,6.2-5.6,6.2-5.6S556.1,224,552.8,219.7z"/>
					<path class="st1" d="M510.8,219.7c-3.2-4.4-4.1-8-4.1-8s-0.9,3.7-4.1,8c-3.2,4.4-6.2,5.6-6.2,5.6s3,1.2,6.2,5.6
						c3.2,4.4,4.1,8,4.1,8s0.9-3.7,4.1-8c3.2-4.4,6.2-5.6,6.2-5.6S514,224,510.8,219.7z"/>
				</g>
			</g>
		</g>
		<g>
			<g>
				<g>
					<g>
						<g>
							<g>
								<path class="st2" d="M486.7,117.5h7.8v1.8h-6l-0.2,3c0,0,2.8-1.6,5.5,0.7c0.5,0.4,2.9,2.9,1.4,7.8c-0.3,1-2,3.6-5.6,3.1
									c-0.2,0-2.9-0.7-3.9-3.7l1.7-0.4c0,0,1.3,2.7,3.1,2.5c0.9-0.1,3.3-0.7,3.2-4.6c0-0.3,0-3.7-2.9-4.2c-1-0.2-2.2,0-3.9,1.7
									l-0.8-0.5L486.7,117.5z"/>
							</g>
						</g>
						<g>
							<g>
								<path class="st2" d="M568.8,247.8h-7.9V246h6l0.2-3c0,0-2.8,1.6-5.5-0.7c-0.5-0.4-2.9-2.9-1.4-7.8c0.3-1,2-3.6,5.6-3.1
									c0.2,0,2.9,0.7,3.9,3.7l-1.7,0.4c0,0-1.3-2.7-3.1-2.5c-0.9,0.1-3.3,0.7-3.2,4.6c0,0.3,0,3.7,2.9,4.2c1,0.2,2.2,0,3.9-1.7
									l0.8,0.5L568.8,247.8z"/>
							</g>
						</g>
					</g>
				</g>
			</g>
		</g>
		<g>
			<g>
				<path class="st2" d="M490.8,137.7c0,0,1.4,4.5,4.7,6.3c0,0-3.2,1.7-4.7,6.2c-1.5-4.6-4.7-6.2-4.7-6.2
					C489.4,142.2,490.8,137.7,490.8,137.7z"/>
			</g>
			<g>
				<path class="st2" d="M564.7,227.6c0,0-1.4-4.5-4.7-6.3c0,0,3.2-1.7,4.7-6.2c1.5,4.6,4.7,6.2,4.7,6.2
					C566.1,223.1,564.7,227.6,564.7,227.6z"/>
			</g>
		</g>
	</g>
	<g>
		<g>
			<g>
				<g>
					<path class="st1" d="M552.8,134.6c-3.2-4.4-4.1-8-4.1-8s-0.9,3.7-4.1,8c-3.2,4.4-6.2,5.6-6.2,5.6s3,1.2,6.2,5.6
						c3.2,4.4,4.1,8,4.1,8s0.9-3.7,4.1-8c3.2-4.4,6.2-5.6,6.2-5.6S556.1,138.9,552.8,134.6z"/>
					<path class="st1" d="M510.8,134.6c-3.2-4.4-4.1-8-4.1-8s-0.9,3.7-4.1,8c-3.2,4.4-6.2,5.6-6.2,5.6s3,1.2,6.2,5.6
						c3.2,4.4,4.1,8,4.1,8s0.9-3.7,4.1-8c3.2-4.4,6.2-5.6,6.2-5.6S514,138.9,510.8,134.6z"/>
				</g>
				<g>
					<path class="st1" d="M531.8,177.1c-3.2-4.4-4.1-8-4.1-8s-0.9,3.7-4.1,8c-3.2,4.4-6.2,5.6-6.2,5.6s3,1.2,6.2,5.6
						c3.2,4.4,4.1,8,4.1,8s0.9-3.7,4.1-8c3.2-4.4,6.2-5.6,6.2-5.6S535,181.5,531.8,177.1z"/>
				</g>
				<g>
					<path class="st1" d="M552.8,219.7c-3.2-4.4-4.1-8-4.1-8s-0.9,3.7-4.1,8c-3.2,4.4-6.2,5.6-6.2,5.6s3,1.2,6.2,5.6
						c3.2,4.4,4.1,8,4.1,8s0.9-3.7,4.1-8c3.2-4.4,6.2-5.6,6.2-5.6S556.1,224,552.8,219.7z"/>
					<path class="st1" d="M510.8,219.7c-3.2-4.4-4.1-8-4.1-8s-0.9,3.7-4.1,8c-3.2,4.4-6.2,5.6-6.2,5.6s3,1.2,6.2,5.6
						c3.2,4.4,4.1,8,4.1,8s0.9-3.7,4.1-8c3.2-4.4,6.2-5.6,6.2-5.6S514,224,510.8,219.7z"/>
				</g>
			</g>
		</g>
		<g>
			<g>
				<g>
					<g>
						<g>
							<g>
								<path class="st2" d="M486.7,117.5h7.8v1.8h-6l-0.2,3c0,0,2.8-1.6,5.5,0.7c0.5,0.4,2.9,2.9,1.4,7.8c-0.3,1-2,3.6-5.6,3.1
									c-0.2,0-2.9-0.7-3.9-3.7l1.7-0.4c0,0,1.3,2.7,3.1,2.5c0.9-0.1,3.3-0.7,3.2-4.6c0-0.3,0-3.7-2.9-4.2c-1-0.2-2.2,0-3.9,1.7
									l-0.8-0.5L486.7,117.5z"/>
							</g>
						</g>
						<g>
							<g>
								<path class="st2" d="M568.8,247.8h-7.9V246h6l0.2-3c0,0-2.8,1.6-5.5-0.7c-0.5-0.4-2.9-2.9-1.4-7.8c0.3-1,2-3.6,5.6-3.1
									c0.2,0,2.9,0.7,3.9,3.7l-1.7,0.4c0,0-1.3-2.7-3.1-2.5c-0.9,0.1-3.3,0.7-3.2,4.6c0,0.3,0,3.7,2.9,4.2c1,0.2,2.2,0,3.9-1.7
									l0.8,0.5L568.8,247.8z"/>
							</g>
						</g>
					</g>
				</g>
			</g>
		</g>
		<g>
			<g>
				<path class="st2" d="M490.8,137.7c0,0,1.4,4.5,4.7,6.3c0,0-3.2,1.7-4.7,6.2c-1.5-4.6-4.7-6.2-4.7-6.2
					C489.4,142.2,490.8,137.7,490.8,137.7z"/>
			</g>
			<g>
				<path class="st2" d="M564.7,227.6c0,0-1.4-4.5-4.7-6.3c0,0,3.2-1.7,4.7-6.2c1.5,4.6,4.7,6.2,4.7,6.2
					C566.1,223.1,564.7,227.6,564.7,227.6z"/>
			</g>
		</g>
	</g>
	<g>
		<g>
			<g>
				<g>
					<g>
						<g>
							<path id="XMLID_25_" class="st2" d="M27.8,68.3c0.4,0,0.3-0.3,0.4-1.3c0.1-1,1.3-3.7,4.8-3.4c1.5,0.1,5.2,2.1,4.7,6.7
								c-0.2,1.7-0.6,3-2.8,6.5c-0.3,0.5-4.1,6.3-7.1,11.1c-3-4.9-6.8-10.6-7.1-11.1c-2.3-3.5-2.6-4.8-2.8-6.5
								c-0.5-4.5,3.2-6.5,4.7-6.7c3.5-0.3,4.7,2.4,4.8,3.4C27.4,68,27.4,68.3,27.8,68.3z"/>
						</g>
						<g>
							<path id="XMLID_24_" class="st2" d="M71.7,68.3c0.4,0,0.3-0.3,0.4-1.3c0.1-1,1.3-3.7,4.8-3.4c1.5,0.1,5.2,2.1,4.7,6.7
								c-0.2,1.7-0.6,3-2.8,6.5c-0.3,0.5-4.1,6.3-7.1,11.1c-3-4.9-6.8-10.6-7.1-11.1c-2.3-3.5-2.6-4.8-2.8-6.5
								c-0.5-4.5,3.2-6.5,4.7-6.7c3.5-0.3,4.7,2.4,4.8,3.4C71.3,68,71.3,68.3,71.7,68.3z"/>
						</g>
					</g>
					<g>
						<g>
							<g>
								<path id="XMLID_23_" class="st2" d="M27.8,21.6c0.4,0,0.3-0.3,0.4-1.3c0.1-1,1.3-3.7,4.8-3.4c1.5,0.1,5.2,2.1,4.7,6.7
									c-0.2,1.7-0.6,3-2.8,6.5c-0.3,0.5-4.1,6.3-7.1,11.1c-3-4.9-6.8-10.6-7.1-11.1c-2.3-3.5-2.6-4.8-2.8-6.5
									c-0.5-4.5,3.2-6.5,4.7-6.7c3.5-0.3,4.7,2.4,4.8,3.4C27.4,21.3,27.4,21.6,27.8,21.6z"/>
							</g>
							<g>
								<path id="XMLID_22_" class="st2" d="M71.7,21.6c0.4,0,0.3-0.3,0.4-1.3c0.1-1,1.3-3.7,4.8-3.4c1.5,0.1,5.2,2.1,4.7,6.7
									c-0.2,1.7-0.6,3-2.8,6.5c-0.3,0.5-4.1,6.3-7.1,11.1c-3-4.9-6.8-10.6-7.1-11.1c-2.3-3.5-2.6-4.8-2.8-6.5
									c-0.5-4.5,3.2-6.5,4.7-6.7c3.5-0.3,4.7,2.4,4.8,3.4C71.3,21.3,71.3,21.6,71.7,21.6z"/>
							</g>
						</g>
						<g>
							<g>
								<path id="XMLID_21_" class="st2" d="M71.7,130c-0.4,0-0.3,0.3-0.4,1.3c-0.1,1-1.3,3.7-4.8,3.4c-1.5-0.1-5.2-2.1-4.7-6.7
									c0.2-1.7,0.6-3,2.8-6.5c0.3-0.5,4.1-6.3,7.1-11.1c3,4.9,6.8,10.6,7.1,11.1c2.3,3.5,2.6,4.8,2.8,6.5c0.5,4.5-3.2,6.5-4.7,6.7
									c-3.5,0.3-4.7-2.4-4.8-3.4C72,130.3,72,130,71.7,130z"/>
							</g>
							<g>
								<path id="XMLID_20_" class="st2" d="M27.7,130c-0.4,0-0.3,0.3-0.4,1.3c-0.1,1-1.3,3.7-4.8,3.4c-1.5-0.1-5.2-2.1-4.7-6.7
									c0.2-1.7,0.6-3,2.8-6.5c0.3-0.5,4.1-6.3,7.1-11.1c3,4.9,6.8,10.6,7.1,11.1c2.3,3.5,2.6,4.8,2.8,6.5c0.5,4.5-3.2,6.5-4.7,6.7
									c-3.5,0.3-4.7-2.4-4.8-3.4C28.1,130.3,28.1,130,27.7,130z"/>
							</g>
						</g>
					</g>
				</g>
				<g>
					<g>
						<path id="XMLID_19_" class="st2" d="M49.7,44.9c0.4,0,0.3-0.3,0.4-1.3c0.1-1,1.3-3.7,4.8-3.4c1.5,0.1,5.2,2.1,4.7,6.7
							c-0.2,1.7-0.6,3-2.8,6.5c-0.3,0.5-4.1,6.3-7.1,11.1c-3-4.9-6.8-10.6-7.1-11.1c-2.3-3.5-2.6-4.8-2.8-6.5
							c-0.5-4.5,3.2-6.5,4.7-6.7c3.5-0.3,4.7,2.4,4.8,3.4C49.4,44.7,49.3,44.9,49.7,44.9z"/>
					</g>
				</g>
			</g>
		</g>
		<g>
			<g>
				<g>
					<g>
						<g>
							<g>
								<path id="XMLID_18_" class="st2" d="M5.1,6.7h9l1.1,1.6c0,0-3.9,5.2-5.9,15.9h-2c0,0,1.2-8,5.3-15.7H7.2v2.1H5.1L5.1,6.7z"
									/>
							</g>
						</g>
						<g>
							<g>
								<path id="XMLID_17_" class="st2" d="M94.3,144.9h-9l-1.1-1.6c0,0,3.9-5.2,5.9-15.9h2c0,0-1.2,8-5.3,15.7h5.5v-2.1h2.1
									L94.3,144.9z"/>
							</g>
						</g>
					</g>
				</g>
			</g>
		</g>
		<g>
			<g>
				<path id="XMLID_16_" class="st2" d="M10.3,30.3c0.2,0,0.2-0.1,0.2-0.6c0.1-0.5,0.6-1.8,2.3-1.6c0.7,0.1,2.5,1,2.2,3.2
					c-0.1,0.8-0.3,1.4-1.3,3.1c-0.2,0.2-2,3-3.4,5.3c-1.4-2.3-3.2-5-3.4-5.3c-1.1-1.6-1.2-2.3-1.3-3.1c-0.2-2.2,1.5-3.1,2.2-3.2
					c1.7-0.1,2.2,1.1,2.3,1.6C10.2,30.2,10.2,30.3,10.3,30.3z"/>
			</g>
			<g>
				<path id="XMLID_14_" class="st2" d="M89.1,121.3c-0.2,0-0.2,0.1-0.2,0.6c-0.1,0.5-0.6,1.8-2.3,1.6c-0.7-0.1-2.5-1-2.2-3.2
					c0.1-0.8,0.3-1.4,1.3-3.1c0.2-0.3,2-3,3.4-5.3c1.4,2.3,3.2,5,3.4,5.3c1.1,1.6,1.2,2.3,1.3,3.1c0.2,2.2-1.5,3.1-2.2,3.2
					c-1.7,0.1-2.2-1.1-2.3-1.6C89.2,121.4,89.2,121.3,89.1,121.3z"/>
			</g>
		</g>
	</g>
</g>
</svg>
