<?xml version="1.0" encoding="utf-8"?>
<!-- Generator: Adobe Illustrator 19.0.0, SVG Export Plug-In . SVG Version: 6.00 Build 0)  -->
<svg version="1.1" xmlns="http://www.w3.org/2000/svg" xmlns:xlink="http://www.w3.org/1999/xlink" x="0px" y="0px"
	 viewBox="0 0 99.4 151.6" style="enable-background:new 0 0 99.4 151.6;" xml:space="preserve">
<style type="text/css">
	.st0{fill:#FFFFFF;stroke:#000000;stroke-width:0.25;stroke-miterlimit:2.6131;}
	.st1{fill-rule:evenodd;clip-rule:evenodd;fill:#E52529;}
	.st2{fill:#E52529;}
	.st3{fill-rule:evenodd;clip-rule:evenodd;fill:#BF1818;}
	.st4{fill-rule:evenodd;clip-rule:evenodd;fill:#6FC8E5;}
	.st5{fill-rule:evenodd;clip-rule:evenodd;fill:#6FC8E5;stroke:#0D4F9E;stroke-width:0.5669;stroke-miterlimit:2.6131;}
	.st6{fill-rule:evenodd;clip-rule:evenodd;fill:none;stroke:#0D4F9E;stroke-width:0.5669;stroke-miterlimit:2.6131;}
	.st7{fill-rule:evenodd;clip-rule:evenodd;fill:#3B160E;}
	.st8{fill-rule:evenodd;clip-rule:evenodd;fill:#6FC8E5;stroke:#0D4F9E;stroke-width:0.2835;stroke-miterlimit:2.6131;}
	.st9{fill-rule:evenodd;clip-rule:evenodd;fill:none;stroke:#0D4F9E;stroke-width:0.2835;stroke-miterlimit:2.6131;}
	.st10{fill-rule:evenodd;clip-rule:evenodd;fill:#E52529;stroke:#0D4F9E;stroke-width:0.2835;stroke-miterlimit:2.6131;}
	.st11{fill-rule:evenodd;clip-rule:evenodd;fill:none;stroke:#FBEA26;stroke-width:3.700000e-003;stroke-miterlimit:2.6131;}
	.st12{fill-rule:evenodd;clip-rule:evenodd;fill:#E52529;stroke:#231F20;stroke-width:0.5669;stroke-miterlimit:2.6131;}
	.st13{fill-rule:evenodd;clip-rule:evenodd;fill:#E52529;stroke:#231F20;stroke-width:0.2835;stroke-miterlimit:2.6131;}
	.st14{fill-rule:evenodd;clip-rule:evenodd;fill:#FFFFFF;}
	.st15{fill:#BF1818;}
</style>
<g id="Calque_2">
	<path id="XMLID_15_" class="st0" d="M99.3,5.3v140.9c0,2.9-2.3,5.2-5.2,5.2H5.3c-2.9,0-5.2-2.3-5.2-5.2V5.3c0-2.9,2.3-5.2,5.2-5.2
		h88.7C96.9,0.1,99.3,2.5,99.3,5.3z"/>
</g>
<g id="Calque_1">
	<g>
		<g>
			<g>
				<g>
					<path class="st1" d="M552.8,134.6c-3.2-4.4-4.1-8-4.1-8s-0.9,3.7-4.1,8c-3.2,4.4-6.2,5.6-6.2,5.6s3,1.2,6.2,5.6
						c3.2,4.4,4.1,8,4.1,8s0.9-3.7,4.1-8c3.2-4.4,6.2-5.6,6.2-5.6S556.1,138.9,552.8,134.6z"/>
					<path class="st1" d="M510.8,134.6c-3.2-4.4-4.1-8-4.1-8s-0.9,3.7-4.1,8c-3.2,4.4-6.2,5.6-6.2,5.6s3,1.2,6.2,5.6
						c3.2,4.4,4.1,8,4.1,8s0.9-3.7,4.1-8c3.2-4.4,6.2-5.6,6.2-5.6S514,138.9,510.8,134.6z"/>
				</g>
				<g>
					<path class="st1" d="M531.8,177.1c-3.2-4.4-4.1-8-4.1-8s-0.9,3.7-4.1,8c-3.2,4.4-6.2,5.6-6.2,5.6s3,1.2,6.2,5.6
						c3.2,4.4,4.1,8,4.1,8s0.9-3.7,4.1-8c3.2-4.4,6.2-5.6,6.2-5.6S535,181.5,531.8,177.1z"/>
				</g>
				<g>
					<path class="st1" d="M552.8,219.7c-3.2-4.4-4.1-8-4.1-8s-0.9,3.7-4.1,8c-3.2,4.4-6.2,5.6-6.2,5.6s3,1.2,6.2,5.6
						c3.2,4.4,4.1,8,4.1,8s0.9-3.7,4.1-8c3.2-4.4,6.2-5.6,6.2-5.6S556.1,224,552.8,219.7z"/>
					<path class="st1" d="M510.8,219.7c-3.2-4.4-4.1-8-4.1-8s-0.9,3.7-4.1,8c-3.2,4.4-6.2,5.6-6.2,5.6s3,1.2,6.2,5.6
						c3.2,4.4,4.1,8,4.1,8s0.9-3.7,4.1-8c3.2-4.4,6.2-5.6,6.2-5.6S514,224,510.8,219.7z"/>
				</g>
			</g>
		</g>
		<g>
			<g>
				<g>
					<g>
						<g>
							<g>
								<path class="st2" d="M486.7,117.5h7.8v1.8h-6l-0.2,3c0,0,2.8-1.6,5.5,0.7c0.5,0.4,2.9,2.9,1.4,7.8c-0.3,1-2,3.6-5.6,3.1
									c-0.2,0-2.9-0.7-3.9-3.7l1.7-0.4c0,0,1.3,2.7,3.1,2.5c0.9-0.1,3.3-0.7,3.2-4.6c0-0.3,0-3.7-2.9-4.2c-1-0.2-2.2,0-3.9,1.7
									l-0.8-0.5L486.7,117.5z"/>
							</g>
						</g>
						<g>
							<g>
								<path class="st2" d="M568.8,247.8h-7.9V246h6l0.2-3c0,0-2.8,1.6-5.5-0.7c-0.5-0.4-2.9-2.9-1.4-7.8c0.3-1,2-3.6,5.6-3.1
									c0.2,0,2.9,0.7,3.9,3.7l-1.7,0.4c0,0-1.3-2.7-3.1-2.5c-0.9,0.1-3.3,0.7-3.2,4.6c0,0.3,0,3.7,2.9,4.2c1,0.2,2.2,0,3.9-1.7
									l0.8,0.5L568.8,247.8z"/>
							</g>
						</g>
					</g>
				</g>
			</g>
		</g>
		<g>
			<g>
				<path class="st2" d="M490.8,137.7c0,0,1.4,4.5,4.7,6.3c0,0-3.2,1.7-4.7,6.2c-1.5-4.6-4.7-6.2-4.7-6.2
					C489.4,142.2,490.8,137.7,490.8,137.7z"/>
			</g>
			<g>
				<path class="st2" d="M564.7,227.6c0,0-1.4-4.5-4.7-6.3c0,0,3.2-1.7,4.7-6.2c1.5,4.6,4.7,6.2,4.7,6.2
					C566.1,223.1,564.7,227.6,564.7,227.6z"/>
			</g>
		</g>
	</g>
	<g>
		<g>
			<g>
				<g>
					<path class="st1" d="M552.8,134.6c-3.2-4.4-4.1-8-4.1-8s-0.9,3.7-4.1,8c-3.2,4.4-6.2,5.6-6.2,5.6s3,1.2,6.2,5.6
						c3.2,4.4,4.1,8,4.1,8s0.9-3.7,4.1-8c3.2-4.4,6.2-5.6,6.2-5.6S556.1,138.9,552.8,134.6z"/>
					<path class="st1" d="M510.8,134.6c-3.2-4.4-4.1-8-4.1-8s-0.9,3.7-4.1,8c-3.2,4.4-6.2,5.6-6.2,5.6s3,1.2,6.2,5.6
						c3.2,4.4,4.1,8,4.1,8s0.9-3.7,4.1-8c3.2-4.4,6.2-5.6,6.2-5.6S514,138.9,510.8,134.6z"/>
				</g>
				<g>
					<path class="st1" d="M531.8,177.1c-3.2-4.4-4.1-8-4.1-8s-0.9,3.7-4.1,8c-3.2,4.4-6.2,5.6-6.2,5.6s3,1.2,6.2,5.6
						c3.2,4.4,4.1,8,4.1,8s0.9-3.7,4.1-8c3.2-4.4,6.2-5.6,6.2-5.6S535,181.5,531.8,177.1z"/>
				</g>
				<g>
					<path class="st1" d="M552.8,219.7c-3.2-4.4-4.1-8-4.1-8s-0.9,3.7-4.1,8c-3.2,4.4-6.2,5.6-6.2,5.6s3,1.2,6.2,5.6
						c3.2,4.4,4.1,8,4.1,8s0.9-3.7,4.1-8c3.2-4.4,6.2-5.6,6.2-5.6S556.1,224,552.8,219.7z"/>
					<path class="st1" d="M510.8,219.7c-3.2-4.4-4.1-8-4.1-8s-0.9,3.7-4.1,8c-3.2,4.4-6.2,5.6-6.2,5.6s3,1.2,6.2,5.6
						c3.2,4.4,4.1,8,4.1,8s0.9-3.7,4.1-8c3.2-4.4,6.2-5.6,6.2-5.6S514,224,510.8,219.7z"/>
				</g>
			</g>
		</g>
		<g>
			<g>
				<g>
					<g>
						<g>
							<g>
								<path class="st2" d="M486.7,117.5h7.8v1.8h-6l-0.2,3c0,0,2.8-1.6,5.5,0.7c0.5,0.4,2.9,2.9,1.4,7.8c-0.3,1-2,3.6-5.6,3.1
									c-0.2,0-2.9-0.7-3.9-3.7l1.7-0.4c0,0,1.3,2.7,3.1,2.5c0.9-0.1,3.3-0.7,3.2-4.6c0-0.3,0-3.7-2.9-4.2c-1-0.2-2.2,0-3.9,1.7
									l-0.8-0.5L486.7,117.5z"/>
							</g>
						</g>
						<g>
							<g>
								<path class="st2" d="M568.8,247.8h-7.9V246h6l0.2-3c0,0-2.8,1.6-5.5-0.7c-0.5-0.4-2.9-2.9-1.4-7.8c0.3-1,2-3.6,5.6-3.1
									c0.2,0,2.9,0.7,3.9,3.7l-1.7,0.4c0,0-1.3-2.7-3.1-2.5c-0.9,0.1-3.3,0.7-3.2,4.6c0,0.3,0,3.7,2.9,4.2c1,0.2,2.2,0,3.9-1.7
									l0.8,0.5L568.8,247.8z"/>
							</g>
						</g>
					</g>
				</g>
			</g>
		</g>
		<g>
			<g>
				<path class="st2" d="M490.8,137.7c0,0,1.4,4.5,4.7,6.3c0,0-3.2,1.7-4.7,6.2c-1.5-4.6-4.7-6.2-4.7-6.2
					C489.4,142.2,490.8,137.7,490.8,137.7z"/>
			</g>
			<g>
				<path class="st2" d="M564.7,227.6c0,0-1.4-4.5-4.7-6.3c0,0,3.2-1.7,4.7-6.2c1.5,4.6,4.7,6.2,4.7,6.2
					C566.1,223.1,564.7,227.6,564.7,227.6z"/>
			</g>
		</g>
	</g>
	<g>
		<g>
			<g>
				<g>
					<path class="st1" d="M552.8,134.6c-3.2-4.4-4.1-8-4.1-8s-0.9,3.7-4.1,8c-3.2,4.4-6.2,5.6-6.2,5.6s3,1.2,6.2,5.6
						c3.2,4.4,4.1,8,4.1,8s0.9-3.7,4.1-8c3.2-4.4,6.2-5.6,6.2-5.6S556.1,138.9,552.8,134.6z"/>
					<path class="st1" d="M510.8,134.6c-3.2-4.4-4.1-8-4.1-8s-0.9,3.7-4.1,8c-3.2,4.4-6.2,5.6-6.2,5.6s3,1.2,6.2,5.6
						c3.2,4.4,4.1,8,4.1,8s0.9-3.7,4.1-8c3.2-4.4,6.2-5.6,6.2-5.6S514,138.9,510.8,134.6z"/>
				</g>
				<g>
					<path class="st1" d="M531.8,177.1c-3.2-4.4-4.1-8-4.1-8s-0.9,3.7-4.1,8c-3.2,4.4-6.2,5.6-6.2,5.6s3,1.2,6.2,5.6
						c3.2,4.4,4.1,8,4.1,8s0.9-3.7,4.1-8c3.2-4.4,6.2-5.6,6.2-5.6S535,181.5,531.8,177.1z"/>
				</g>
				<g>
					<path class="st1" d="M552.8,219.7c-3.2-4.4-4.1-8-4.1-8s-0.9,3.7-4.1,8c-3.2,4.4-6.2,5.6-6.2,5.6s3,1.2,6.2,5.6
						c3.2,4.4,4.1,8,4.1,8s0.9-3.7,4.1-8c3.2-4.4,6.2-5.6,6.2-5.6S556.1,224,552.8,219.7z"/>
					<path class="st1" d="M510.8,219.7c-3.2-4.4-4.1-8-4.1-8s-0.9,3.7-4.1,8c-3.2,4.4-6.2,5.6-6.2,5.6s3,1.2,6.2,5.6
						c3.2,4.4,4.1,8,4.1,8s0.9-3.7,4.1-8c3.2-4.4,6.2-5.6,6.2-5.6S514,224,510.8,219.7z"/>
				</g>
			</g>
		</g>
		<g>
			<g>
				<g>
					<g>
						<g>
							<g>
								<path class="st2" d="M486.7,117.5h7.8v1.8h-6l-0.2,3c0,0,2.8-1.6,5.5,0.7c0.5,0.4,2.9,2.9,1.4,7.8c-0.3,1-2,3.6-5.6,3.1
									c-0.2,0-2.9-0.7-3.9-3.7l1.7-0.4c0,0,1.3,2.7,3.1,2.5c0.9-0.1,3.3-0.7,3.2-4.6c0-0.3,0-3.7-2.9-4.2c-1-0.2-2.2,0-3.9,1.7
									l-0.8-0.5L486.7,117.5z"/>
							</g>
						</g>
						<g>
							<g>
								<path class="st2" d="M568.8,247.8h-7.9V246h6l0.2-3c0,0-2.8,1.6-5.5-0.7c-0.5-0.4-2.9-2.9-1.4-7.8c0.3-1,2-3.6,5.6-3.1
									c0.2,0,2.9,0.7,3.9,3.7l-1.7,0.4c0,0-1.3-2.7-3.1-2.5c-0.9,0.1-3.3,0.7-3.2,4.6c0,0.3,0,3.7,2.9,4.2c1,0.2,2.2,0,3.9-1.7
									l0.8,0.5L568.8,247.8z"/>
							</g>
						</g>
					</g>
				</g>
			</g>
		</g>
		<g>
			<g>
				<path class="st2" d="M490.8,137.7c0,0,1.4,4.5,4.7,6.3c0,0-3.2,1.7-4.7,6.2c-1.5-4.6-4.7-6.2-4.7-6.2
					C489.4,142.2,490.8,137.7,490.8,137.7z"/>
			</g>
			<g>
				<path class="st2" d="M564.7,227.6c0,0-1.4-4.5-4.7-6.3c0,0,3.2-1.7,4.7-6.2c1.5,4.6,4.7,6.2,4.7,6.2
					C566.1,223.1,564.7,227.6,564.7,227.6z"/>
			</g>
		</g>
	</g>
	<g>
		<path class="st3" d="M74.6,102.8c0,0-0.5,1.1-1.2,1.2c-0.7,0.2-6.8-0.9-8.9,2.3c0,0-0.8,2.2-0.7,2.5c0.1,0.3,0.9,0.1,1.3-0.1
			c0.4-0.1,1.6-0.7,2.9-0.7c1.3,0,5.3,0.3,6.6-1.1c1.3-1.4,1.2-2.7,1.2-2.7s2.1,1.4,2.5-1.2c0,0,1.7-0.4,1.3-2.1c0,0-0.1,0,0.3-0.4
			c0.5-0.4,0.4-1.4,0.2-1.9c0,0,0.7-0.9,0.2-1.5c-0.5-0.6-0.7-0.8-0.6-1.4c0.1-0.6,0.1-2-0.1-2.3c-0.2-0.3-1-0.1-1.2,0.3
			c-0.2,0.4-0.6-0.2-0.8-0.5c-0.2-0.4-0.3-0.6-0.3-0.6l-0.4,0.4l1,1.5l0.1,0.8c0,0-1.4-0.1-1.2,1.4c0,0-1.1,0.6-1,1.5
			c0,0-0.9,0.6-0.9,0.9c0,0.3-0.4,0-0.4,0s0.1-2.5-0.6-2.9l-0.4-0.9L73.4,96c0,0,1.8,2.5,0.6,3.7c0,0,0.7,0.6,0.7,1
			c0,0.4,0.8-0.1,0.9-0.3c0.1-0.2,0.8-0.5,0.7,0.1c-0.1,0.6-0.4,2-1.1,2c-0.7,0-1.8,0-2.1-0.5c-0.3-0.5-1.7-1.2-1.7-2.5L70.5,98
			l-0.2,0.4c0,0,0.8,1.8,0.8,2.1C71,100.7,72.5,103.2,74.6,102.8L74.6,102.8z M76.2,104.2c0,0-1-0.5-0.8-1.1c0.2-0.6,1-1,1.5-0.9
			c0.5,0.1,1.1,0.8,0.7,1.4C77.4,104.2,76.6,104.3,76.2,104.2L76.2,104.2z M78.3,102.7c0,0-0.8-0.1-1-0.8c0,0,0.6-0.7,0.3-1.4
			s-0.4-1.2,0.1-1c0.5,0.2,1.3,1.3,1.3,1.5C79.1,101,79.6,102.1,78.3,102.7L78.3,102.7z M79.5,100.2c0,0-1.1-0.3-1.5-1.1
			c-0.3-0.8,0.1-1.5,0.6-1.2c0.5,0.3,1,0.7,1.2,0.9C80,98.9,80.1,100.1,79.5,100.2L79.5,100.2z M80,98.1c0,0-1,0.3-1.5-0.9
			c0,0,0.1-1.1,0.7-0.9c0.6,0.1,1,0.9,1,1.1C80.3,97.7,80.2,98.1,80,98.1L80,98.1z M78.1,96.6c0,0-0.6,0.2-0.6-0.2
			c0-0.4,0.5-0.8,0.8-0.8C78.6,95.6,78.9,96.1,78.1,96.6L78.1,96.6z M79.4,95.7c0,0-0.5,0.5-0.6-0.4c-0.1-0.9,0.4-1.9,0.7-1.4
			C79.7,94.5,79.5,95.6,79.4,95.7L79.4,95.7z M77,98.7c0,0-0.6-0.1-0.6-0.6c0-0.5,0.3-0.9,0.7-0.8C77.6,97.4,77.7,98.3,77,98.7
			L77,98.7z M76.7,99.2c0.1,0.3-0.2,0.3-0.7,0.4c-0.5,0.1-0.6-0.3-0.6-0.3C76.3,98.2,76.7,99.2,76.7,99.2L76.7,99.2z M76.5,101.4
			c0,0-0.2-0.7,0.3-1c0.5-0.3,0.8,0.3,0.4,0.6C76.8,101.5,76.5,101.4,76.5,101.4z"/>
		<path id="XMLID_401_" class="st3" d="M75.2,103.3c0,0-1.3,1.4-2.1,1.5c-0.7,0.2-5-0.6-7.1,1.3c-3.5,3.1,1.4,0.9,3.5,0.9
			c1.3,0,3.3,0.3,4.6-1.1c1.3-1.4,1.3-2,1.3-2L75.2,103.3z"/>
		<path id="XMLID_400_" class="st4" d="M75.5,104.6c0,0-0.2,1.4-1.8,2c-1.6,0.6-2.8,0.7-2.9,0.7c-0.2,0-4.3,0.2-6,0.9
			c0,0-0.6-2.7,4-3.6c0,0,3.2-0.1,3.7,0.1c0.6,0.2,2-0.7,2.3-1c0.3-0.3,0,0.7-0.3,0.9c-0.2,0.2-0.9,0.9-2,0.9c-1.1,0-5-0.2-5.7,0.7
			c0,0,4.3,0.5,5.7,0.1c1.4-0.4,2-0.9,2.4-1.4C75.3,104.3,75.5,104.5,75.5,104.6z"/>
		<polygon id="XMLID_399_" class="st3" points="75.7,104.6 75.5,104.5 74.9,103.5 75.1,103 75.6,103.8 		"/>
		<path id="XMLID_398_" class="st5" d="M76.2,23.2c0,0-1.3,2.3-0.4,6.2l-2,2.2l2.4,2.1c0,0-0.8,3.6-0.5,5c0,0.1,0,0.2,0.1,0.3
			c0.2,0.4,0.5,0.9,0.8,1.3c0,0,1-4,2.8-4.6v-7.4c0,0-3.1-2.7-3-5.3c0,0,0,0-0.1,0.1L76.2,23.2z"/>
		<path class="st6" d="M75.6,25.8h1.6H75.6 M78,26.8h-2.4H78 M78.9,27.8h-3.3H78.9L78.9,27.8z M79.3,28.8h-3.6H79.3L79.3,28.8z
			 M79.3,29.7h-3.8H79.3L79.3,29.7z M79.3,30.6h-4.6H79.3L79.3,30.6z M79.3,31.7H74H79.3L79.3,31.7z M79.3,32.9h-4H79.3L79.3,32.9z
			 M79.3,34h-3.2H79.3L79.3,34z M79.3,35.2h-3.4H79.3L79.3,35.2z M78.4,36.3h-2.6H78.4 M77.6,37.5h-2H77.6L77.6,37.5z M77.1,38.6
			h-1.4H77.1L77.1,38.6z M76.7,39.8h-0.4H76.7"/>
		<path id="XMLID_383_" class="st5" d="M22.7,128.4c0,0,1.3-2.3,0.4-6.2l2.1-2.2l-2.4-2.1c0,0,0.8-3.6,0.5-5c0-0.1,0-0.2-0.1-0.3
			c-0.2-0.4-0.5-0.9-0.8-1.3c0,0-1,4-2.8,4.6v7.4c0,0,3.1,2.7,3,5.3c0,0,0,0,0.1-0.1L22.7,128.4z"/>
		<path class="st6" d="M23.3,125.8h-1.6H23.3 M21,124.8h2.4H21 M20,123.8h3.3H20L20,123.8z M19.6,122.8h3.6H19.6L19.6,122.8z
			 M19.6,121.9h3.8H19.6L19.6,121.9z M19.6,121h4.6H19.6L19.6,121z M19.6,119.9h5.3H19.6L19.6,119.9z M19.6,118.7h4H19.6L19.6,118.7
			z M19.6,117.6h3.2H19.6L19.6,117.6z M19.6,116.4H23H19.6L19.6,116.4z M20.5,115.3h2.6H20.5 M21.3,114.1h2H21.3L21.3,114.1z
			 M21.8,113h1.4H21.8L21.8,113z M22.2,111.8h0.4H22.2"/>
		<path id="XMLID_368_" class="st7" d="M82.3,89V71.7l-2.7,1.8c-0.8-14.2-9.3-19.4-9.3-19.4l4.9-7.3l-1-1C69.4,48.7,69,46,69,46
			L49.2,72.2l-0.5,11.1c3.7,16.3,10.9,23.4,10.9,23.4L82.3,89z"/>
		<path id="XMLID_367_" class="st4" d="M54.9,78.6c0,0,3.8-2.1,3.4-7l0.7-1.3c0,0,1.3,5.4-3.6,8.8L54.9,78.6z"/>
		<path class="st4" d="M59.4,73.8c0.3-1.4,0.2-2.6,0.2-3.2c0,0,0,0,0,0c0.9,0,1.6,0.7,1.6,1.6c0,0.9-0.7,1.6-1.6,1.6
			C59.6,73.8,59.5,73.8,59.4,73.8L59.4,73.8z M57.4,77.9c0.8-0.9,1.3-1.8,1.6-2.8c0.5,0.3,0.8,0.8,0.8,1.4c0,0.9-0.7,1.6-1.6,1.6
			C57.9,78.1,57.6,78,57.4,77.9L57.4,77.9z M56.5,78.7c-0.3,0.2-0.6,0.5-0.9,0.7l-1.6,1.3c0.3,0.5,0.8,0.8,1.4,0.8
			c0.9,0,1.6-0.7,1.6-1.6C57.1,79.5,56.9,79,56.5,78.7z"/>
		<path class="st4" d="M61.8,63.9c0,0-0.6,0-0.7-0.2c-0.1-0.2-0.4,2.6-1.3,3.4c-0.9,0.8-1.1,1.5-1.1,1.5s-0.4-0.3-0.5-0.6
			c0-0.3-2.2,0.5-2.5-1.3c-0.3-1.8,0.7-3.7,1.3-3.8c0.7-0.1,1.6,0.3,1.1,0.9c0,0-0.3,0.3-0.7,0.3c-0.4,0-0.8,1.5-0.3,1.6
			c0.5,0.2,1.4,0,1.1-0.4c-0.2-0.4-0.2-0.5,0.2-0.7c0.4-0.2,1.3-1,1.3-1.8c0-0.7,0.1-3.7,1.2-5.3c1.1-1.6,2.1-1.8,2.8-1.8
			c0,0,1.6,0,1.6,1.2c0,0,0,1-0.7,1c-0.7-0.1-0.5-0.3-0.6-0.8c-0.1-0.5-1.6-0.6-2.2,0.7c-0.6,1.4-1.2,3.2-0.4,4.1
			c0.8,0.9,1.2,0.9,1.5,0.8C63.1,62.8,62.2,64,61.8,63.9L61.8,63.9z M64,60.4c0,0-0.7,0.2-1.1,0c-0.4-0.2-1.1,0-0.4,0.5
			c0,0,0.9,0.8,1.7,0.5c0,0,0.4-0.3,0.1-0.8C64.2,60.3,64,60.4,64,60.4L64,60.4z M59.6,65.3c0,0-0.7,1.3-1.9,1.3
			c-1.2,0-1.4-1.2-1.4-1.3c0-0.2-0.5,1.7,1.4,1.8C59.6,67.1,59.6,65.3,59.6,65.3L59.6,65.3z M63.2,57.7c0,0-1-0.3-1,0.8
			c0,1.1,0.7,1.4,1.3,1.4c0.5,0,2.7-0.2,3.4-3c0.7-2.8,0.4-3,0.4-3.3c0-0.3,0.6-2,1.1-2.3c0.6-0.3,1.1-0.6,0.7-0.8
			c-0.4-0.2,0-0.5,0.3-0.5c0.3,0,1,0.2,0.8,0.9c0,0-0.2,0.8-0.8,1c-0.5,0.2-0.5,0.8-0.2,1c0.3,0.2,1.6,0.1,1.9-0.9
			c0.3-1,0.8-2.7,0.3-3.5c-0.6-0.8-2.2-0.6-2.2-0.6c-0.1,0.1-0.4-0.8-0.8-0.2c-0.5,0.5-2.2,2.6-1.9,4.3c0,0-1.7-0.1-1.8,0.6
			c0,0,0,0.3,0.4,0.3c0.4,0,2,1.9,1.1,3.9c0,0-0.8,2.1-2.2,1.8C63.2,58.4,63.2,57.8,63.2,57.7L63.2,57.7z M65.3,55.5
			c0,0-0.9-0.6-1.2-0.4c-0.4,0.2-0.6,0.1-0.7,0c-0.2-0.1-0.8-1.2,0.2-1.4C64.9,53.5,65.8,55.5,65.3,55.5L65.3,55.5z M70.9,50.5
			c0,0-0.2-1.9-2.5-0.8c0,0-0.2,0.1,0-0.2c0.2-0.3,1.9-1.3,2.7,0.4C71.2,50.8,70.9,50.3,70.9,50.5z"/>
		<path id="XMLID_357_" class="st7" d="M16.6,62.6v17.3l2.6-1.7c0.8,14.2,9.5,19.3,9.5,19.3l-4.9,7.3l1,1c4.7-2.8,5.1-0.1,5.1-0.1
			l19.2-23l1.3-14.8c-3.2-14-11.2-22.9-11.2-22.9L16.6,62.6z"/>
		<path id="XMLID_356_" class="st3" d="M40.3,45.4l2.3,4.3c3.3,6.2,4.7,9.3,7.8,18.4l13.3-18.3l3.9-5L67,43.7H42.9L40.3,45.4z"/>
		<path id="XMLID_355_" class="st1" d="M26.6,22.8c0.1,0.5,0.2,1.1,0.3,1.6c0.1,0.9,0.8,1.4,1.1,0.1c0.1-0.3,0.2-0.8,0.3-1.4
			c0.8-4.2,7-3.3,7.8,0.1c0.8,3.4-0.3,6.1-3.4,10c-3.1,3.9-4.5,6.3-5.3,8.8c-0.6-3-6.3-9.9-7.9-13c-1.6-3.1-1-7.2,1.4-8.2
			C23.5,19.6,26.4,20.8,26.6,22.8z"/>
		<path id="XMLID_354_" class="st8" d="M66.6,27.3c0,0,1.5,5.1,1.6,7.3c0.1,2.2,1.5,6.1,2.7,6.4c0,0,0.6-1.5,2.7-1
			c0,0,2.5,0.6,2.2,3.2c0,0-0.1,1.3-1.2,2.1c0,0-2.8,2.1-6.2-0.4c0,0-1.7-1.4-1.8-1.7l-19-0.2c0,0,8.5-2.6,8.3-11.5
			c0,0-0.4-5.5-2.3-6.9C60,24.5,66.6,27.3,66.6,27.3z"/>
		<path id="XMLID_353_" class="st3" d="M75.8,15.5H33l7.4,10.5c0,0,14.4-3.2,26,1.6L75.8,15.5z"/>
		<path class="st9" d="M62.7,26.4c0,0,1.4,8.3,1.5,9.6c0,1.3,0.8,4.6,2.2,6.6c1.3,2,3.9,4.4,7.2,3.4c0,0,3.1-1,2.2-4.1
			c0,0-0.9-2.5-3.7-1.9c0,0-1.6,0.6-1.2,2.2c0.4,1.5,1.8,0.6,1.6-0.1c-0.2-0.6-0.4-1.1,0.7-1c1.1,0.1,2.3,1.9,1.6,2.8
			c-0.7,0.9-2.3,1.8-4,1C69,44.1,66.9,42.3,66,39c-0.9-3.3-2.3-12.4-2.3-12.4 M65.7,27.4c0,0,1.4,6.8,1.4,8.2c0,1.4,1.7,6.3,3.6,6.7
			 M64.7,26.9c0,0,1.1,6,1.3,7.6c0.2,1.7,1.6,6.3,2.5,7.5c0.9,1.2,3,2.6,4.5,1.9c1.5-0.7,0.4-1.6-0.4-1.6 M61.5,26.1
			c0,0,1.3,6.6,1.4,8.5c0.1,1.9,1.8,7.1,2.4,8.3 M60.3,25.8c0,0,1.6,8.1,1.6,9.4c0,1.3,1.1,5.9,2.3,7.7 M59,25.6c0,0,1.5,5.8,1.6,9
			C60.7,37.8,63,43,63,43 M57.9,25.4c0,0,1.5,6.5,1.6,8.9c0.1,2.5,2.3,8.2,2.5,8.5 M56.7,25.2c0,0,1.8,6.3,1.8,7.9
			c0,1.6,1.3,8.6,2.4,9.8 M55.5,25.2c0,0,2.1,6.7,2.1,9.7c0,3,2,8.1,2,8.1 M56,33.4c0,0,2.1,9,2.5,9.6 M55.4,36.2l2.3,6.8
			 M54.6,37.6l1.8,5.3 M53.9,38.8l1.4,4.1 M53.1,39.7l1.2,3.2 M52.1,40.6l0.8,2.4 M51.3,41.3l0.4,1.6 M50.3,41.9l0.2,1"/>
		<path id="XMLID_335_" class="st7" d="M48.6,42.9c-1.3,0.5-2.6,0.8-3.4,0.9l21.9,0.1l-0.7-0.9L48.6,42.9z"/>
		<path id="XMLID_334_" class="st6" d="M40.7,25.6c0,0-0.5,1.1,0.1,1.8c0.6,0.7,0.3,2.1,0.1,2.4c-0.2,0.3-2.2,3.7-2.2,3.7
			s-0.6,0.9,0,1.4c0,0,1.7,1,2.1,1.6c0.4,0.6,0.3,0.9,0.3,1.5c0,0.6-0.2,0.7,0.1,1c0.3,0.4,0.5,0.7,0.4,1.2c0,0.5,0.7,1,0.9,1.2
			c0.2,0.2,0.1,1.6,0.1,1.6s1,2.2,7-0.7c6-2.9,8.2-9.9,4.8-17.5C46.5,23.8,40.7,25.6,40.7,25.6z"/>
		<path class="st3" d="M42.1,26.9c0,0,1,0.2,2.1,0.2c1.1,0,4.1,0.8,5.2,2.4c0,0-0.2,0.2-0.5-0.2c-0.3-0.4-3.2-1.7-4.7-1.4
			C42.8,28.1,41.7,27.5,42.1,26.9L42.1,26.9z M42.4,29.1c-0.2,0,0.2,0.4,0.5,0.8c0.3,0.3,0.2,1.2-0.1,1.4c-0.3,0.3-0.1,0.5,0.4,0.5
			c0.5,0,1,0.4,1.1,0.5c0.1,0.1,0,0.5,0.1,0.5c0.1,0,0.5,0.1,0.7,0.2c0.2,0.1,0.8,0.4,0.8,0.2c0-0.1-0.3-0.3-0.8-0.8
			c-0.5-0.5-0.4-0.8-0.4-0.8s1.4,0.1,1.9-0.1c0.5-0.2,0.5-0.4,1.6-0.1c1.1,0.3,1.1-0.1,1.1-0.1s-1-0.6-1.8-1.1
			c-0.8-0.6-1.9-0.9-2.6-1c-0.7-0.1-0.6-0.3-0.6-0.3c2.2-0.5,4.7,1.6,4.7,1.6c0-0.2-0.8-1.1-2-1.5c-1.2-0.5-2.5-0.5-2.7-0.3
			C44.1,28.9,42.4,29.1,42.4,29.1L42.4,29.1z M44.4,30.6c0,0,0.3-0.4,0.6-0.2c0.4,0.2,0.1,0.8-0.2,1c-0.3,0.2-0.7,0.2-0.5-0.4
			C44.4,30.5,44.4,30.6,44.4,30.6L44.4,30.6z M45.5,31.4c0,0,0-0.8,0.3-0.9c0.3-0.1,0.6,0.1,0.7,0.3c0.1,0.2,0.3,0.4,0,0.5
			C46.2,31.4,45.5,31.4,45.5,31.4L45.5,31.4z M40.3,34.6c0,0,0.4-0.3,1,0c0.7,0.2,0.8,0.3,0.9,0.6c0.2,0.3,1,0.3,1.1-0.2
			c0.1-0.4,0.1-0.8-0.2-1.1c-0.3-0.3,0-0.5,0.2-0.3c0,0,0.6,0.4,0.6,1.2c0,0.8-0.7,1-1.5,0.8c-0.8-0.2-1.2-0.5-1.2-0.5
			s-0.2-0.1-0.9,0C39.7,35.2,40.3,34.6,40.3,34.6L40.3,34.6z M42.6,37.2c-0.1,0.1-0.2,0.6,0.9,0.5c1-0.1,1.1,0.3,2.3,0.7
			c1.2,0.4,2.1-0.2,2.5-1.1c0.3-0.9-0.6-1.3-1-1.4c-0.4-0.1-0.3,0.2-0.1,0.4c0.2,0.1,0.8,0.5,0.4,1c-0.4,0.5-1.4,0.7-1.7,0.3
			c-0.3-0.4-1.4-0.8-2.2-0.9C42.9,36.5,42.6,37.2,42.6,37.2L42.6,37.2z M41,38.6c0,0,0-0.5,0.6-0.4c0.6,0.1,1.2,0.1,1.4,0.3
			c0.2,0.2,0.9,0.2,1.2,0.2c0.2,0,0.4,0.1,0.4,0.3c0,0.2,0.3,0.6,0.4,0.6c0.1,0.1-0.3,0.2-0.6-0.1c-0.3-0.2-1.2-0.5-1.6,0
			c-0.5,0.5-0.7,0.7-0.5,0.9c0.1,0.2-0.5,0.1-0.5-0.5C41.6,39.4,41,38.6,41,38.6L41,38.6z M53.4,34.5c0,0-0.2,0.7,0.2,1.1
			c0.4,0.3,1,0.7,1.5-0.1c0.5-0.8,0.6-1,0.6-1s-0.2,2-1.4,2.3c-1.2,0.2-1.7-1.1-1.7-1.3C52.6,35.2,52.5,34,53.4,34.5z"/>
		<path class="st4" d="M46.8,61.9c0,0,0.3,1.1-0.5,1.5c0,0-0.2,0.4,0.2,0.2c0.4-0.1,0.9-0.7,0.8-1.4C47.3,62.2,47.1,61.8,46.8,61.9
			C46.7,61.8,46.8,61.9,46.8,61.9L46.8,61.9z M45.4,56.1c0,0,0,0.3,0.1,0.4c0.1,0.1,0.4,0.9,0,1.1c-0.4,0.2-0.7-0.3-0.7-0.8
			C44.9,56.4,45.1,55.9,45.4,56.1L45.4,56.1z M42.7,56.3c0,0-0.5,0.2,0,0.8c0.5,0.6,1.6,1.9,2.3,2c0.6,0.1,1.1,0.1,1.1-0.1
			c0-0.3,0.6-0.1,0.4,0.4c-0.1,0.5-0.2,0.5-0.4,0.7c-0.2,0.1,1.6,0.9,1.7,2.1c0.1,1.2,0,1.5,0,1.5s0.4,0.2,0.5,0.2
			c0.1,0-0.3,0.5-0.8,0.5c-0.5,0-0.7,0-0.7,0s-1.1,1-2.3,0c-1.2-1-0.5-2.1-0.2-2.2c0.3-0.1,0.2,0.2,0.3,0.4c0.1,0.3,1.1,1.2,1.6-0.1
			c0,0-0.6,0-0.3-0.5c0.3-0.5-0.1-0.9-0.5-1.2c-0.4-0.3-1.7-1.5-2-1.7c-0.3-0.2-1.4-1.1-1.4-2.1c0-1,0-1.4,0.5-1.4
			C42.9,55.4,42.8,56,42.7,56.3L42.7,56.3z M41.4,54.7c0,0-0.1,0,0,0.6c0.1,0.6,0.6,0.2,0.6-0.5c0-0.7-0.1-0.8-0.3-0.8
			C41.4,54,41.4,54.7,41.4,54.7L41.4,54.7z M39.6,50.3c0,0-0.6-0.4,0.1-0.8c0.7-0.3,1,0,1.1,0.2c0.2,0.3,0.4,1,0.5,0
			c0.2-1-0.3-1.5-0.9-1.6c-0.7-0.2-1.8,0.2-2.3,0.5c-0.4,0.3-0.8,0.2-0.8,0.2s-0.5,0.3,0,0.5c0.5,0.2,0.2,1,0.5,1.4
			c0.3,0.4,1,1.7,1.7,1.9c0,0,0.2,0,0,0.3c-0.2,0.4,0,0.8,0.5,0.6c0.6-0.2,1.1-0.2,1.5,0c0.4,0.2,1.5,0.8,1.8,1.3
			c0.3,0.5,0.4,0.7,0.2,1c-0.1,0.3,0,1.1,0.4,0.6c0.4-0.5,0.6-1.4,0-2.1c-0.6-0.7-2.6-1.9-2.9-2c0,0-1.6-1.1-1.6-1.4
			c0-0.4,0-0.5,0.2-0.6C40,50.2,39.8,50.2,39.6,50.3L39.6,50.3z M39.1,49.1c0,0-0.5,0.7-0.4,1c0.1,0.3,0.1,0.6-0.2,0.4
			c-0.3-0.2-0.5-1,0.1-1.4C39.2,48.7,39.1,49.1,39.1,49.1L39.1,49.1z M38.5,46.4c0-0.2,0.4-0.2,0.6-0.2c0.2,0,0.3,0.3,0.6,0.9
			c0.3,0.6-0.4,0.1-0.4,0.2c-0.1,0.2-0.5,0.5-0.5,0.5c-1.1,0.6-2.2-0.2-2.2-0.2l0.7-0.6c0,0,0.4,0.3,0.9,0.3
			C38.7,47.3,38.5,46.4,38.5,46.4z"/>
		<path id="XMLID_318_" class="st4" d="M45.9,66.6l1.1,0.1c0,0,0.4-0.8,0.8-0.4c0.4,0.3,0.4,0.4,0.4,0.5c0,0.1,1.1-0.1,1.1-0.1
			s-0.1-1.8-1.2-1.9c-1.1-0.1-1.8,0.5-1.9,0.7C45.8,65.9,45.9,66.6,45.9,66.6z"/>
		<path id="XMLID_317_" class="st4" d="M34.5,48.7c0,0,6.8,9.3,8.1,15l0.9-0.4c0,0-4.3-11.4-8.2-15C35,48.3,34.5,48.7,34.5,48.7z"/>
		<path class="st4" d="M39.1,60.1c1.4,0,2.5,1.1,2.5,2.5s-1.1,2.5-2.5,2.5c-1.4,0-2.5-1.1-2.5-2.5S37.7,60.1,39.1,60.1L39.1,60.1z
			 M39.1,61.7c-0.5,0-1,0.4-1,1c0,0.5,0.4,1,1,1c0.5,0,1-0.4,1-1C40.1,62.2,39.7,61.7,39.1,61.7L39.1,61.7z M36.9,55
			c1.3,0,2.3,1,2.3,2.3s-1,2.3-2.3,2.3c-1.3,0-2.3-1-2.3-2.3S35.7,55,36.9,55L36.9,55z M37,56.5c-0.5,0-0.9,0.4-0.9,0.9
			s0.4,0.9,0.9,0.9c0.5,0,0.9-0.4,0.9-0.9S37.5,56.5,37,56.5L37,56.5z M33.7,49.2l-3,2.4c0,0,0,0.1,0,0.1c0,1.4,1.1,2.5,2.5,2.5
			c1.4,0,2.5-1.1,2.5-2.5C35.7,50.5,34.9,49.5,33.7,49.2L33.7,49.2z M33.3,50.8c0.5,0,1,0.4,1,1c0,0.5-0.4,1-1,1c-0.5,0-1-0.4-1-1
			C32.3,51.2,32.8,50.8,33.3,50.8z"/>
		<path id="XMLID_310_" class="st4" d="M36.3,68L35.9,67c-3.4,3.4-5.5,8.1-5.5,13.3c0,3.3,0.8,6.3,2.3,9l0.7-0.7
			c-1.3-2.5-2-5.3-2-8.3C31.4,75.5,33.3,71.2,36.3,68z"/>
		<path id="XMLID_309_" class="st4" d="M43.7,64.6l-0.1-0.8c-6.7,2.3-11.5,8.9-11.5,16.4c0,2.8,0.7,5.4,1.9,7.8l0.6-0.4
			c-1.1-2.2-1.7-4.7-1.7-7.3C32.9,73.1,37.4,66.9,43.7,64.6z"/>
		<path class="st4" d="M40.7,66.8c1.5-1.1,2.8-1.8,3.4-2.2c0.3,0.4,0.6,0.9,0.6,1.4c0,1.1-0.9,2.1-2.1,2.1
			C41.7,68.1,41,67.6,40.7,66.8L40.7,66.8z M35.7,72c1-1.5,2.1-2.7,3.3-3.8c0.5,0.5,0.9,1.1,0.9,1.9c0,1.4-1.1,2.5-2.5,2.5
			C36.7,72.6,36.1,72.3,35.7,72L35.7,72z M33.3,78.5c0.2-1.8,0.7-3.4,1.4-4.8c1,0.3,1.8,1.3,1.8,2.4c0,1.4-1.1,2.5-2.5,2.5
			C33.7,78.6,33.5,78.6,33.3,78.5L33.3,78.5z M34.3,85.4c-0.6-1.7-0.9-3.4-1-4.9c0.2-0.1,0.4-0.1,0.7-0.1c1.4,0,2.5,1.1,2.5,2.5
			C36.4,84.2,35.5,85.3,34.3,85.4z"/>
		<path class="st3" d="M24.3,48.8c0,0,0.5-1.1,1.2-1.2c0.7-0.1,6.8,0.9,8.9-2.3c0,0,0.8-2.2,0.7-2.5c-0.1-0.3-0.9-0.1-1.3,0.1
			c-0.4,0.2-1.6,0.7-2.9,0.7c-1.3,0-5.3-0.3-6.6,1.1c-1.3,1.4-1.2,2.7-1.2,2.7S21,46,20.5,48.6c0,0-1.7,0.4-1.3,2.1
			c0,0,0.1,0-0.3,0.4c-0.5,0.4-0.4,1.4-0.2,1.9c0,0-0.7,0.9-0.2,1.5c0.5,0.6,0.7,0.8,0.6,1.4c-0.1,0.6-0.1,2,0.1,2.3s1,0.1,1.2-0.3
			c0.2-0.4,0.6,0.2,0.8,0.5c0.2,0.4,0.3,0.6,0.3,0.6l0.4-0.4l-1-1.5l-0.1-0.8c0,0,1.4,0.1,1.2-1.4c0,0,1.1-0.6,1-1.5
			c0,0,0.9-0.6,0.9-0.9c0-0.3,0.4,0,0.4,0s-0.1,2.5,0.6,2.9l0.4,0.9l0.4-0.7c0,0-1.8-2.5-0.6-3.7c0,0-0.7-0.6-0.7-1
			c0-0.4-0.8,0.1-0.9,0.3c-0.1,0.2-0.8,0.5-0.7-0.1c0.1-0.6,0.4-2,1.1-2c0.7,0,1.8,0,2.1,0.5c0.3,0.5,1.7,1.2,1.7,2.5l0.9,1.4
			l0.2-0.4c0,0-0.8-1.8-0.8-2.1C27.9,50.9,26.4,48.4,24.3,48.8L24.3,48.8z M22.7,47.4c0,0,1,0.5,0.8,1.1c-0.2,0.6-1,1-1.5,0.9
			c-0.5-0.1-1.1-0.8-0.7-1.4C21.6,47.4,22.4,47.3,22.7,47.4L22.7,47.4z M20.6,48.9c0,0,0.8,0.1,1,0.8c0,0-0.6,0.7-0.3,1.4
			c0.2,0.7,0.4,1.2-0.1,1c-0.5-0.2-1.3-1.3-1.3-1.5C19.8,50.6,19.3,49.5,20.6,48.9L20.6,48.9z M19.4,51.4c0,0,1.1,0.3,1.5,1.1
			c0.3,0.8-0.1,1.5-0.6,1.2c-0.5-0.3-1-0.7-1.2-0.9C18.9,52.7,18.8,51.5,19.4,51.4L19.4,51.4z M18.9,53.5c0,0,1-0.3,1.5,0.9
			c0,0-0.1,1.1-0.7,0.9c-0.6-0.2-1-0.9-1-1.1C18.6,53.9,18.7,53.5,18.9,53.5L18.9,53.5z M20.8,55c0,0,0.6-0.2,0.6,0.2
			s-0.5,0.8-0.8,0.8C20.3,56,20.1,55.5,20.8,55L20.8,55z M19.5,55.9c0,0,0.5-0.5,0.6,0.4c0.1,0.9-0.4,1.9-0.7,1.4
			C19.3,57.1,19.5,56,19.5,55.9L19.5,55.9z M21.9,52.9c0,0,0.6,0.1,0.6,0.6c0,0.5-0.3,0.9-0.7,0.8C21.3,54.2,21.2,53.3,21.9,52.9
			L21.9,52.9z M22.2,52.4c-0.1-0.3,0.2-0.3,0.7-0.4c0.5-0.1,0.6,0.3,0.6,0.3C22.6,53.4,22.2,52.4,22.2,52.4L22.2,52.4z M22.5,50.2
			c0,0,0.2,0.7-0.3,1c-0.5,0.3-0.8-0.3-0.4-0.6C22.1,50.1,22.5,50.2,22.5,50.2z"/>
		<path id="XMLID_294_" class="st3" d="M23.7,48.3c0,0,1.3-1.4,2.1-1.5c0.7-0.1,5,0.6,7.1-1.3c3.5-3.1-1.4-0.9-3.5-0.9
			c-1.3,0-3.3-0.3-4.6,1.1c-1.3,1.4-1.3,2-1.3,2L23.7,48.3z"/>
		<path id="XMLID_293_" class="st4" d="M23.4,47c0,0,0.2-1.4,1.8-2c1.6-0.6,2.8-0.7,2.9-0.7c0.2,0,4.3-0.2,6-0.9c0,0,0.7,2.7-4,3.6
			c0,0-3.2,0.1-3.7-0.1c-0.6-0.2-2,0.7-2.3,1c-0.3,0.3,0-0.7,0.3-0.9c0.2-0.2,0.9-0.9,2-0.9c1.1,0,5,0.2,5.7-0.7
			c0,0-4.3-0.5-5.7-0.1c-1.4,0.4-2,0.9-2.4,1.4C23.6,47.3,23.4,47.1,23.4,47z"/>
		<path class="st4" d="M37.1,87.7c0,0,0.6,0,0.7,0.2c0.1,0.2,0.4-2.6,1.3-3.4c0.9-0.8,1.1-1.5,1.1-1.5s0.4,0.3,0.5,0.6
			c0,0.3,2.2-0.5,2.5,1.3c0.3,1.8-0.7,3.7-1.3,3.8c-0.7,0.1-1.6-0.3-1.1-0.9c0,0,0.3-0.3,0.7-0.3c0.4,0,0.8-1.5,0.3-1.6
			c-0.5-0.2-1.4,0-1.1,0.4c0.2,0.4,0.2,0.5-0.2,0.7c-0.4,0.2-1.3,1-1.3,1.8c0,0.7-0.1,3.7-1.2,5.3c-1.1,1.6-2.1,1.8-2.8,1.8
			c0,0-1.6,0-1.6-1.2c0,0,0-1,0.7-1c0.7,0.1,0.5,0.3,0.6,0.8c0.1,0.5,1.6,0.6,2.2-0.7c0.6-1.4,1.2-3.2,0.4-4.1
			c-0.8-0.9-1.2-0.9-1.5-0.8C35.8,88.8,36.8,87.6,37.1,87.7L37.1,87.7z M34.9,91.2c0,0,0.7-0.2,1.1,0c0.4,0.2,1.1,0,0.4-0.5
			c0,0-0.9-0.8-1.7-0.5c0,0-0.4,0.3-0.1,0.8C34.7,91.3,34.9,91.2,34.9,91.2L34.9,91.2z M39.3,86.3c0,0,0.7-1.3,1.9-1.3
			c1.2,0,1.4,1.2,1.4,1.3c0,0.2,0.5-1.7-1.4-1.8C39.3,84.5,39.3,86.3,39.3,86.3L39.3,86.3z M35.7,93.9c0,0,1,0.3,1-0.8
			c0-1.1-0.7-1.4-1.3-1.4c-0.5,0-2.7,0.2-3.4,3c-0.7,2.8-0.4,3-0.4,3.3c0,0.4-0.6,2-1.1,2.3c-0.6,0.3-1.1,0.6-0.7,0.8
			c0.4,0.2,0,0.5-0.3,0.5s-1-0.2-0.8-0.9c0,0,0.2-0.8,0.8-1c0.5-0.2,0.5-0.8,0.2-1c-0.3-0.2-1.6-0.1-1.9,0.9c-0.3,1-0.8,2.7-0.3,3.5
			c0.6,0.8,2.2,0.6,2.2,0.6c0.1-0.1,0.4,0.8,0.8,0.2c0.5-0.5,2.2-2.6,1.9-4.3c0,0,1.7,0.1,1.8-0.6c0,0,0-0.3-0.4-0.3
			c-0.4,0-2-1.9-1.1-3.9c0,0,0.8-2.1,2.2-1.8C35.7,93.2,35.7,93.8,35.7,93.9L35.7,93.9z M33.6,96.1c0,0,0.9,0.6,1.2,0.4
			c0.4-0.2,0.6-0.1,0.7,0c0.2,0.1,0.8,1.2-0.2,1.4C34,98.1,33.1,96.1,33.6,96.1L33.6,96.1z M28,101.1c0,0,0.2,1.9,2.5,0.8
			c0,0,0.2-0.1,0,0.2c-0.2,0.3-1.9,1.3-2.7-0.4C27.7,100.8,28,101.3,28,101.1z"/>
		<path id="XMLID_286_" class="st6" d="M79.3,35.6v-7.4c0,0-3.1-2.7-3-5.3c0,0-6.8,6.6,0.2,17.3C76.6,40.2,77.5,36.2,79.3,35.6z"/>
		<polygon id="XMLID_285_" class="st5" points="79.2,48.5 79.2,26.7 82.5,24.4 82.5,51.3 		"/>
		<polygon id="XMLID_284_" class="st10" points="82.4,25.8 80.4,27.1 80.4,49.2 82.4,51.3 		"/>
		<path id="XMLID_283_" class="st4" d="M44,73c0,0-3.8,2.1-3.4,7l-0.7,1.3c0,0-1.3-5.4,3.6-8.8L44,73z"/>
		<path id="XMLID_282_" class="st4" d="M17.9,78.8L17.9,78.8l1.5-0.7c0.8,14.2,9.3,19.4,9.3,19.4l-4.9,7.3l0.6,0.8l-0.3,0.6l-1.3-1
			l4.7-6.7C27.6,98.4,19.3,90.7,17.9,78.8z"/>
		<path id="XMLID_281_" class="st11" d="M22.8,105.1l4.7-6.7c0,0-8.1-7-9.5-18.8"/>
		<path id="XMLID_280_" class="st3" d="M16.6,78.7v22.1l5.9,4.5l0.3-0.2l4.7-6.7c0,0-8.1-7-9.5-18.8l-0.2-1.5L16.6,78.7z"/>
		<path id="XMLID_279_" class="st12" d="M34.6,63.8l-2.5-5.2c0,0-1.9,11.9-12.3,19.4c0,0,0.3,13.1,9.1,19.2l2.1-2.7
			C31,94.5,18.8,77.3,34.6,63.8z"/>
		<polygon id="XMLID_278_" class="st4" points="39.7,45.4 42.6,49.7 53.1,49.7 63.9,49.7 67.8,44.6 67,43.7 42.9,43.7 		"/>
		<polygon id="XMLID_277_" class="st13" points="67.8,44.5 69.6,45.8 52.8,67.8 50.5,67.8 		"/>
		<polygon id="XMLID_276_" class="st3" points="45.4,67.3 59.3,67.3 59.9,68.6 56.8,73.6 44.3,73.6 44.3,69.8 		"/>
		<polygon id="XMLID_275_" class="st14" points="46.9,68.5 48.3,68.5 45.8,73.1 44.4,73.1 		"/>
		<polygon id="XMLID_274_" class="st14" points="49.6,68.5 50.9,68.5 48.4,73.1 47.1,73.1 		"/>
		<polygon id="XMLID_273_" class="st14" points="51.9,68.5 53.3,68.5 50.8,73.1 49.4,73.1 		"/>
		<polygon id="XMLID_272_" class="st14" points="54.5,68.5 55.8,68.5 53.3,73.1 52,73.1 		"/>
		<polygon id="XMLID_271_" class="st14" points="44.3,71.3 44.3,69.8 44.9,68.5 45.8,68.5 		"/>
		<polygon id="XMLID_270_" class="st14" points="57.2,68.5 58.5,68.5 56,73.1 54.7,73.1 		"/>
		<polygon id="XMLID_269_" class="st3" points="56,83.5 39.5,83.5 43.5,77.2 56,77.2 56,81 		"/>
		<polygon id="XMLID_268_" class="st14" points="53.4,82.3 52,82.3 54.5,77.7 55.9,77.7 		"/>
		<polygon id="XMLID_267_" class="st14" points="50.7,82.3 49.4,82.3 51.9,77.7 53.2,77.7 		"/>
		<polygon id="XMLID_266_" class="st14" points="48.4,82.3 47,82.3 49.5,77.7 50.9,77.7 		"/>
		<polygon id="XMLID_265_" class="st14" points="45.8,82.3 44.5,82.3 47,77.7 48.3,77.7 		"/>
		<polygon id="XMLID_264_" class="st14" points="56,79.5 56,81 55.4,82.3 54.5,82.3 		"/>
		<polygon id="XMLID_263_" class="st14" points="43.1,82.3 41.8,82.3 44.3,77.7 45.6,77.7 		"/>
		<path id="XMLID_262_" class="st1" d="M46.1,76.9c0.8,0,1.4-0.6,1.4-1.4c0-0.8-0.6-1.4-1.4-1.4c-0.8,0-1.4,0.6-1.4,1.4
			C44.7,76.3,45.3,76.9,46.1,76.9z"/>
		<path id="XMLID_261_" class="st1" d="M54.3,76.9c0.8,0,1.4-0.6,1.4-1.4c0-0.8-0.6-1.4-1.4-1.4c-0.8,0-1.4,0.6-1.4,1.4
			C52.9,76.3,53.5,76.9,54.3,76.9z"/>
		<path class="st4" d="M39.5,77.8c-0.3,1.4-0.2,2.6-0.2,3.2c0,0,0,0,0,0c-0.9,0-1.6-0.7-1.6-1.6c0-0.9,0.7-1.6,1.6-1.6
			C39.4,77.8,39.4,77.8,39.5,77.8L39.5,77.8z M41.5,73.7c-0.8,0.9-1.3,1.8-1.6,2.7c-0.5-0.3-0.8-0.8-0.8-1.4c0-0.9,0.7-1.6,1.6-1.6
			C41,73.5,41.3,73.6,41.5,73.7L41.5,73.7z M42.4,72.9c0.3-0.2,0.6-0.5,0.9-0.7l1.6-1.3c-0.3-0.5-0.8-0.8-1.4-0.8
			c-0.9,0-1.6,0.7-1.6,1.6C41.8,72.1,42,72.6,42.4,72.9z"/>
		<path id="XMLID_257_" class="st4" d="M32.6,58.3c0,0,2.2,4.1,2.4,4.9l-0.2,0.3l-2.6-5.1L32.6,58.3z"/>
		<path id="XMLID_256_" class="st1" d="M16.6,63.5v4.1c3.2-1.3,5.2-8.4,5.2-8.4L16.6,63.5z"/>
		<path id="XMLID_255_" class="st1" d="M34,15.5h41.4l-8.3,10.3C55.3,21.3,40,24,40,24L34,15.5z"/>
		<path class="st14" d="M43.6,21.9c0.4,0,0.6,0.3,0.6,0.6c0,0.4-0.3,0.6-0.6,0.6c-0.4,0-0.6-0.3-0.6-0.6
			C42.9,22.1,43.2,21.9,43.6,21.9L43.6,21.9z M52.2,21.3c0.4,0,0.6,0.3,0.6,0.6c0,0.4-0.3,0.6-0.6,0.6c-0.4,0-0.6-0.3-0.6-0.6
			C51.6,21.6,51.9,21.3,52.2,21.3L52.2,21.3z M62.8,22.8c0.4,0,0.6,0.3,0.6,0.6c0,0.4-0.3,0.6-0.6,0.6c-0.4,0-0.6-0.3-0.6-0.6
			C62.1,23.1,62.4,22.8,62.8,22.8L62.8,22.8z M39.4,15.5h-1.5l3,7.3l0.8-0.2c0,0,0-2.1,1.8-1.9c1.9,0.1,2,1.4,2,1.4l1-0.1l-2.1-6.4
			h-1.9l1.2,4c-1.7-0.3-2.3,0.6-2.3,0.6L39.4,15.5L39.4,15.5z M56.3,15.5l-1.4,4.9c-0.6-1-2.3-1.3-2.3-1.3c-1-0.3-2.8,0.7-2.8,0.7
			l-0.7-4.3h-1.5l1,6.2h1.8c0,0,0.4-2,1.9-1.7c1.5,0.3,1.8,1.9,1.8,2h1.9l1.8-6.6H56.3L56.3,15.5z M69.6,15.5l-4.3,6.3
			c-1.2-1.6-3.5-1.1-3.5-1.1l2.2-5.2h-1.6l-2.9,7l1.5,0.4c0,0,0.9-1.9,2.5-1.2c0,0,0.9,0.4,1.1,1.9l1.2,0.4l5.9-8.5H69.6z"/>
		<path class="st7" d="M40.4,44.8h27.2l-2.9,3.7H43.4L40.4,44.8L40.4,44.8z M41.2,45.3l1.4,2.1l2.8-2.1L41.2,45.3L41.2,45.3
			L41.2,45.3z M41.5,45.8l1,1.4c0.2-0.2,0.3-0.4,0.3-0.6c0-0.5-0.4-0.9-0.9-0.9C41.8,45.7,41.7,45.7,41.5,45.8L41.5,45.8z
			 M63.3,45.7c-0.5,0-0.9,0.4-0.9,0.9c0,0.5,0.4,0.9,0.9,0.9c0.5,0,0.9-0.4,0.9-0.9C64.1,46.1,63.7,45.7,63.3,45.7L63.3,45.7z
			 M62.6,45.3L59,47.9h4.3l3.4-2.6H62.6L62.6,45.3z M55.8,45.3l-3.5,2.6h4.3l3.4-2.6H55.8L55.8,45.3z M56.5,45.7
			c-0.5,0-0.9,0.4-0.9,0.9c0,0.5,0.4,0.9,0.9,0.9c0.5,0,0.9-0.4,0.9-0.9C57.4,46.1,57,45.7,56.5,45.7L56.5,45.7z M48.8,45.3
			l-3.5,2.6h4.3l3.4-2.6H48.8L48.8,45.3z M49.5,45.7c-0.5,0-0.9,0.4-0.9,0.9c0,0.5,0.4,0.9,0.9,0.9c0.5,0,0.9-0.4,0.9-0.9
			C50.3,46.1,50,45.7,49.5,45.7z"/>
		<path class="st3" d="M38.2,46.7c0,0-0.8-3.4,1.1-4.3c0,0,1.9-0.9,3.9,1.1c0,0,0.4,0.3-0.4,0.7C41.9,44.5,38.2,46.7,38.2,46.7
			L38.2,46.7z M38.4,45.5c0,0,0.4-1,0.7-0.8c0.3,0.2,0.5-0.1,0.4-0.5c-0.1-0.3,0.4-0.5,0.9-0.3c0.5,0.2,0.5,0,0.5-0.3
			c0-0.3,0.2-0.4,0.6-0.1c0,0,0.8,0.5,1-0.1c0.2-0.6-1.9-0.9-2.8-0.6C38.8,43.1,37.8,44.8,38.4,45.5z"/>
		<path id="XMLID_237_" class="st4" d="M29.6,52.4l-0.1,0.1c0,0.1-0.1,0.2-0.3,0.2c5.4,6.1,7.4,14.6,7.4,14.6l0.5-0.1
			C36.4,60.9,30.6,53.6,29.6,52.4z"/>
		<path class="st4" d="M17.1,71.1v2.1c1.1-0.1,2-1,2-2.1c0-0.6-0.2-1.1-0.6-1.5C17.6,70.5,17.1,71.1,17.1,71.1L17.1,71.1L17.1,71.1z
			 M27.3,54.2l-2.8,2.2c0,0.2,0,0.3,0,0.5C24.8,57,25,57,25.3,57c1.2,0,2.1-1,2.1-2.1C27.4,54.7,27.4,54.5,27.3,54.2L27.3,54.2z
			 M21.2,65.9c0.6,0.4,1,1,1,1.8c0,1.2-1,2.1-2.1,2.1c-0.5,0-1-0.2-1.4-0.5C19.4,68.4,20.3,67.2,21.2,65.9L21.2,65.9z M23.3,61.9
			c-0.6,1.3-1.3,2.6-2,3.7c0.3,0.2,0.7,0.3,1.2,0.3c1.2,0,2.1-1,2.1-2.1C24.6,62.9,24.1,62.2,23.3,61.9L23.3,61.9z M24.5,57.5
			c-0.1,1.4-0.5,2.8-1.1,4.1c0.2,0.1,0.4,0.1,0.6,0.1c1.2,0,2.1-1,2.1-2.1C26.2,58.5,25.5,57.7,24.5,57.5L24.5,57.5z M18.9,72.8
			c0,0,1.3,0.7,2.7,0.4l0.6,1.2l-3,2.5l-0.7-0.6c0,0,0.3-3,0-3.2C18.3,72.9,18.9,72.8,18.9,72.8L18.9,72.8z M22.5,69.2
			c0,0,1.9,0.4,2.7-0.4l1.1,1.1l-2.2,2.7l-1.2-0.4c0,0,0.2-1.9-0.1-2.1C22.6,69.9,22.5,69.2,22.5,69.2L22.5,69.2z M24.7,65
			c0,0,1.6,0.2,2.1-0.3c0.5-0.5,0.9-0.8,0.9-0.8l1.2,1l-1.3,2.9l-1.6-0.2l0-1.1C26,66.5,24.7,65,24.7,65L24.7,65z M29.7,54.1
			c0,0-1.2,1-1.4,1l-0.1,0.2c0,0,1.2,0.9,1.3,1.7c0.1,0.8,0.2,1,0.2,1l1.2,0l0.2-1.7L29.7,54.1L29.7,54.1z M26.4,60
			c0,0,2.1-0.1,2.7-1.1l0.2-0.1l1.1,0.8c0,0-0.5,2.9-0.7,3.1c-0.2,0.2-1.6,0.2-1.6,0.2S27.5,60.3,26.4,60z"/>
		<path id="XMLID_226_" class="st4" d="M16.6,68.1v11.2l0.3-0.1c12.7-6.3,15.2-21.3,15.2-21.3l-0.8-1.1c0,0,0.4,0.6-1.3,6.8
			c-2.9,9.7-12.9,15-12.9,15v-8.4c6.2-6.8,6.9-11.5,7-13.3l-1.6,1.3C22.2,63.6,17.8,67.2,16.6,68.1z"/>
		<path class="st4" d="M29.3,91.1c0.3,0.7,0.7,1.3,0.9,1.9c0,0,0,0,0.1,0c0.7,0,1.2-0.5,1.2-1.2c0-0.7-0.5-1.2-1.2-1.2
			C29.9,90.6,29.5,90.8,29.3,91.1L29.3,91.1z M28.1,88.1c0.2,0.6,0.4,1.2,0.7,1.8c0.1,0,0.2,0.1,0.4,0.1c0.7,0,1.2-0.5,1.2-1.2
			c0-0.7-0.5-1.2-1.2-1.2C28.7,87.6,28.3,87.8,28.1,88.1L28.1,88.1z M27.2,85c0.1,0.7,0.3,1.3,0.5,1.9c0.1,0,0.3,0.1,0.4,0.1
			c0.7,0,1.2-0.5,1.2-1.2c0-0.7-0.5-1.2-1.2-1.2C27.8,84.6,27.5,84.7,27.2,85L27.2,85z M26.8,81.4c0,0.8,0.1,1.6,0.2,2.3
			c0.1,0,0.1,0,0.2,0c0.7,0,1.2-0.5,1.2-1.2c0-0.7-0.5-1.2-1.2-1.2C27.1,81.4,26.9,81.4,26.8,81.4L26.8,81.4z M26.9,78.2
			c-0.1,0.7-0.1,1.5-0.1,2.2c0.2,0.1,0.4,0.1,0.6,0.1c0.7,0,1.2-0.5,1.2-1.2c0-0.7-0.5-1.2-1.2-1.2C27.2,78.1,27,78.2,26.9,78.2
			L26.9,78.2z M27.5,74.9c-0.2,0.7-0.4,1.4-0.5,2.1c0.2,0.2,0.5,0.3,0.7,0.3c0.7,0,1.2-0.5,1.2-1.2c0-0.7-0.5-1.2-1.2-1.2
			C27.7,74.8,27.6,74.9,27.5,74.9L27.5,74.9z M28.8,71.6c-0.3,0.7-0.6,1.4-0.9,2.1c0.2,0.2,0.5,0.3,0.8,0.3c0.7,0,1.2-0.5,1.2-1.2
			C29.9,72.2,29.4,71.6,28.8,71.6L28.8,71.6z M30.3,68.9c-0.5,0.7-0.9,1.4-1.3,2.1c0.2,0.1,0.4,0.2,0.7,0.2c0.7,0,1.2-0.5,1.2-1.2
			C31,69.5,30.7,69.1,30.3,68.9L30.3,68.9z M32.5,66.2c-0.6,0.6-1.1,1.2-1.6,1.9c0.2,0.2,0.5,0.3,0.8,0.3c0.7,0,1.2-0.5,1.2-1.2
			C33,66.8,32.8,66.5,32.5,66.2L32.5,66.2z M34.7,64.1c-0.6,0.5-1.2,1.1-1.7,1.6c0.2,0.1,0.4,0.2,0.7,0.2c0.7,0,1.2-0.5,1.2-1.2
			C34.9,64.5,34.8,64.3,34.7,64.1z"/>
		<path class="st6" d="M19.3,65l-2.5-1.7L19.3,65 M21.4,60.7l-2.3,0.7L21.4,60.7z"/>
		<polygon id="XMLID_213_" class="st4" points="16.6,98 16.6,100.2 22.5,104.7 23.3,103.3 		"/>
		<path class="st14" d="M16.6,87.8v1.2l7,5.7v-0.7c-0.2-0.3-0.5-0.7-0.7-1L16.6,87.8L16.6,87.8z M16.6,85.9l4.3,3.5
			c0.3,0.7,0.7,1.4,1.1,2L16.6,87V85.9L16.6,85.9z M16.6,83.9l3.1,2.5c0.2,0.6,0.4,1.2,0.7,1.7l-3.8-3V83.9L16.6,83.9z M16.6,82v1.2
			l2.7,2.2c-0.2-0.5-0.3-1-0.5-1.5L16.6,82L16.6,82z M16.6,80.7l1.8,1.5c0.1,0.5,0.2,1,0.3,1.4l-2.2-1.8V80.7L16.6,80.7z M16.6,79.2
			v1.2l1.8,1.4c-0.1-0.4-0.2-0.9-0.2-1.3L16.6,79.2z"/>
		<path class="st14" d="M24.2,101.4l-1-0.8v-1.4l1,0.8V101.4L24.2,101.4z M16.6,96.5v0.9l0.8,0.6v-0.9L16.6,96.5L16.6,96.5z
			 M16.6,94.2v1.4l0.8,0.6v-1.4L16.6,94.2L16.6,94.2z M16.6,91.7v1.4l0.8,0.6v-1.4L16.6,91.7L16.6,91.7z M16.6,89.8v0.9l0.9,0.7
			v-0.9L16.6,89.8L16.6,89.8z M24.2,103.2v-1l-1-0.8v1.1L24.2,103.2L24.2,103.2L24.2,103.2z M26.4,100.1l-0.3,0.4l-0.7-0.6v-1.4
			l1,0.8V100.1L26.4,100.1z M19.7,97.9l-1-0.8v-1.4l1,0.8V97.9L19.7,97.9z M21.9,99.6l-1-0.8v-1.4l1,0.8V99.6L21.9,99.6z M19.7,99.9
			v-1.1l-1-0.8V99L19.7,99.9L19.7,99.9z M21.9,101.5l-1-0.8v-0.9l1,0.8V101.5L21.9,101.5z M24.2,99l-1-0.8v-1.4l1,0.8V99L24.2,99z
			 M19.7,95.5l-1-0.8v-1.4l1,0.8V95.5L19.7,95.5z M21.9,97.2l-1-0.8V95l1,0.8V97.2L21.9,97.2z M24.3,96.7l-1-0.8v-1l1,0.8V96.7
			L24.3,96.7z M19.8,93.3l-1-0.8v-1l1,0.8V93.3L19.8,93.3z M22,94.9l-1-0.8v-0.9l1,0.8V94.9z"/>
		<polygon id="XMLID_189_" class="st14" points="59.9,68.5 59.9,68.6 57.1,73.1 56.9,73.1 59.4,68.5 		"/>
		<polygon id="XMLID_188_" class="st14" points="43.2,77.7 40.3,82.3 40.7,82.3 43.2,77.7 		"/>
		<path class="st3" d="M80.4,28.8v-0.3l2-1.1v0.3L80.4,28.8L80.4,28.8z M80.4,30.2v-0.3c0.7-0.4,1.3-0.7,2-1.1v0.3
			C81.7,29.5,81.1,29.8,80.4,30.2L80.4,30.2z M80.4,31.5v-0.3c0.7-0.4,1.3-0.7,2-1.1v0.3C81.7,30.8,81.1,31.2,80.4,31.5L80.4,31.5z
			 M80.4,32.9v-0.3c0.7-0.4,1.3-0.7,2-1.1v0.3C81.7,32.2,81.1,32.5,80.4,32.9L80.4,32.9z M80.4,34.2V34c0.7-0.4,1.3-0.7,2-1.1v0.3
			C81.7,33.5,81.1,33.9,80.4,34.2L80.4,34.2z M80.4,35.6v-0.3c0.7-0.4,1.3-0.7,2-1.1v0.3C81.7,34.9,81.1,35.3,80.4,35.6L80.4,35.6z
			 M80.4,37v-0.3c0.7-0.4,1.3-0.7,2-1.1v0.3C81.7,36.3,81.1,36.6,80.4,37L80.4,37z M80.4,38.3v-0.3c0.7-0.4,1.3-0.7,2-1.1v0.3
			C81.7,37.6,81.1,38,80.4,38.3L80.4,38.3z M80.4,39.7v-0.3c0.7-0.4,1.3-0.7,2-1.1v0.3C81.7,39,81.1,39.3,80.4,39.7L80.4,39.7z
			 M80.4,41v-0.3c0.7-0.4,1.3-0.7,2-1.1V40C81.7,40.3,81.1,40.7,80.4,41L80.4,41z M80.4,42.4v-0.3c0.7-0.4,1.3-0.7,2-1.1v0.3
			C81.7,41.7,81.1,42.1,80.4,42.4L80.4,42.4z M80.4,43.8v-0.3c0.7-0.4,1.3-0.7,2-1.1v0.3C81.7,43.1,81.1,43.4,80.4,43.8L80.4,43.8z
			 M80.4,45.1v-0.3c0.7-0.4,1.3-0.7,2-1.1v0.3C81.7,44.4,81.1,44.8,80.4,45.1L80.4,45.1z M80.4,46.5v-0.3c0.7-0.4,1.3-0.7,2-1.1v0.3
			C81.7,45.8,81.1,46.1,80.4,46.5L80.4,46.5z M80.4,47.8v-0.3c0.7-0.4,1.3-0.7,2-1.1v0.3C81.7,47.1,81.1,47.5,80.4,47.8L80.4,47.8z
			 M80.4,49.2v-0.3c0.7-0.4,1.3-0.7,2-1.1v0.3C81.7,48.5,81.1,48.9,80.4,49.2L80.4,49.2z M81.2,50.1l-0.2-0.2l1.3-0.7v0.3L81.2,50.1
			z"/>
		<path id="XMLID_170_" class="st3" d="M59.2,106.1l-3-4.1c-3.3-6.2-4.5-10.2-7.4-18.9l-13.9,18.8l-3.6,5l0.7,1.1H56L59.2,106.1z"/>
		<path id="XMLID_169_" class="st1" d="M72.3,128.8c-0.1-0.5-0.2-1.1-0.3-1.6c-0.1-0.9-0.8-1.4-1.1-0.1c-0.1,0.3-0.2,0.8-0.3,1.4
			c-0.8,4.2-7,3.3-7.8-0.1c-0.8-3.4,0.3-6.1,3.4-10c3.1-3.9,4.5-6.3,5.3-8.8c0.6,3,6.3,9.9,7.9,13c1.6,3.1,1,7.2-1.4,8.2
			C75.5,132,72.5,130.8,72.3,128.8z"/>
		<path id="XMLID_168_" class="st8" d="M32.3,124.3c0,0-1.5-5.1-1.6-7.3c-0.1-2.2-1.5-6.1-2.7-6.4c0,0-0.6,1.5-2.7,1
			c0,0-2.5-0.6-2.2-3.2c0,0,0.1-1.3,1.2-2.1c0,0,2.8-2.1,6.2,0.4c0,0,1.7,1.4,1.8,1.7l19,0.2c0,0-8.5,2.6-8.3,11.5
			c0,0,0.4,5.5,2.3,6.9C38.9,127.1,32.3,124.3,32.3,124.3z"/>
		<path id="XMLID_167_" class="st3" d="M23.2,136.1h42.8l-7.4-10.5c0,0-14.4,3.2-26-1.6L23.2,136.1z"/>
		<path id="XMLID_166_" class="st6" d="M58.3,126c0,0,0.5-1.1-0.1-1.8c-0.6-0.7-0.3-2.1-0.1-2.4c0.2-0.3,2.2-3.7,2.2-3.7
			s0.6-0.9,0-1.4c0,0-1.7-1-2.1-1.6c-0.4-0.6-0.3-0.9-0.3-1.5c0-0.6,0.2-0.7-0.1-1c-0.3-0.4-0.5-0.7-0.4-1.2c0-0.5-0.7-1-0.9-1.2
			c-0.2-0.2-0.1-1.6-0.1-1.6s-1-2.2-7,0.7c-6,2.9-8.2,9.9-4.8,17.5C52.5,127.8,58.3,126,58.3,126z"/>
		<path class="st3" d="M56.8,124.7c0,0-1-0.2-2.1-0.2c-1.1,0-4.1-0.8-5.2-2.4c0,0,0.2-0.2,0.5,0.2c0.3,0.4,3.2,1.7,4.7,1.4
			C56.1,123.5,57.2,124.1,56.8,124.7L56.8,124.7z M56.5,122.5c0.2,0-0.2-0.4-0.5-0.8c-0.3-0.3-0.2-1.2,0.1-1.4
			c0.3-0.3,0.1-0.5-0.4-0.5c-0.5,0-1-0.4-1.1-0.5c-0.1-0.1,0-0.5-0.1-0.5c-0.1,0-0.5-0.1-0.7-0.3c-0.2-0.1-0.8-0.4-0.8-0.2
			c0,0.1,0.3,0.3,0.8,0.8c0.5,0.5,0.4,0.8,0.4,0.8s-1.4-0.1-1.9,0.1c-0.5,0.2-0.5,0.4-1.6,0.1c-1.1-0.3-1.1,0.1-1.1,0.1
			s1,0.6,1.8,1.1c0.8,0.6,1.9,0.9,2.6,1c0.7,0.1,0.6,0.3,0.6,0.3c-2.1,0.5-4.7-1.6-4.7-1.6c0,0.2,0.8,1.1,2,1.5
			c1.2,0.5,2.5,0.5,2.7,0.3C54.8,122.8,56.5,122.5,56.5,122.5L56.5,122.5z M54.5,121c0,0-0.3,0.4-0.6,0.2c-0.4-0.2-0.1-0.8,0.2-1
			c0.3-0.2,0.7-0.2,0.5,0.4C54.5,121.1,54.5,121,54.5,121L54.5,121z M53.4,120.2c0,0,0,0.8-0.3,0.9c-0.3,0.1-0.6-0.1-0.7-0.3
			c-0.1-0.2-0.3-0.4,0.1-0.5C52.8,120.2,53.4,120.2,53.4,120.2L53.4,120.2z M58.6,117c0,0-0.4,0.3-1,0c-0.7-0.2-0.8-0.3-0.9-0.6
			c-0.1-0.3-1-0.3-1.1,0.2c-0.1,0.4-0.1,0.8,0.2,1.1c0.3,0.3,0,0.5-0.2,0.3c0,0-0.6-0.4-0.6-1.2c0-0.8,0.7-1,1.5-0.8
			c0.8,0.2,1.2,0.5,1.2,0.5s0.2,0.1,0.9,0C59.2,116.4,58.6,117,58.6,117L58.6,117z M56.3,114.4c0.1-0.1,0.2-0.6-0.9-0.5
			c-1,0.1-1.1-0.3-2.3-0.7c-1.2-0.4-2.1,0.2-2.5,1.1c-0.3,0.9,0.6,1.3,1,1.4c0.4,0.1,0.3-0.2,0.1-0.4c-0.2-0.1-0.8-0.5-0.4-1
			c0.4-0.5,1.4-0.7,1.7-0.3c0.3,0.4,1.4,0.8,2.2,0.9C56,115.1,56.3,114.4,56.3,114.4L56.3,114.4z M58,113c0,0,0,0.5-0.6,0.4
			c-0.6-0.1-1.2-0.1-1.4-0.3c-0.2-0.2-0.9-0.2-1.2-0.2c-0.2,0-0.4-0.1-0.4-0.3c0-0.2-0.3-0.6-0.4-0.6c-0.1-0.1,0.3-0.2,0.6,0.1
			c0.3,0.2,1.2,0.5,1.6,0c0.5-0.5,0.7-0.7,0.5-1c-0.1-0.2,0.5-0.1,0.5,0.5C57.3,112.2,57.9,113,58,113L58,113z M45.5,117.1
			c0,0,0.2-0.7-0.2-1.1c-0.4-0.3-1-0.7-1.5,0.1c-0.5,0.8-0.6,1-0.6,1s0.2-2,1.4-2.3c1.2-0.2,1.7,1.1,1.7,1.3
			C46.3,116.4,46.4,117.6,45.5,117.1z"/>
		<path class="st4" d="M52.1,89.7c0,0-0.3-1.1,0.5-1.5c0,0,0.2-0.4-0.2-0.2c-0.4,0.1-0.9,0.7-0.8,1.4C51.6,89.5,51.8,89.8,52.1,89.7
			C52.2,89.8,52.1,89.7,52.1,89.7L52.1,89.7z M53.5,95.5c0,0,0-0.3-0.1-0.4c-0.1-0.1-0.4-0.9,0-1.1c0.4-0.2,0.7,0.3,0.7,0.8
			C54,95.2,53.8,95.7,53.5,95.5L53.5,95.5z M56.2,95.3c0,0,0.5-0.2,0-0.8c-0.5-0.6-1.6-1.9-2.3-2c-0.6-0.1-1.1-0.1-1.1,0.1
			c0,0.3-0.6,0.1-0.4-0.4c0.1-0.5,0.2-0.5,0.3-0.7c0.2-0.1-1.6-0.9-1.7-2.1c-0.1-1.2,0-1.5,0-1.5s-0.3-0.2-0.5-0.2s0.3-0.5,0.8-0.5
			c0.5,0,0.7,0,0.7,0s1.1-1,2.3,0c1.2,1,0.5,2.1,0.2,2.2c-0.3,0.1-0.2-0.2-0.3-0.4c-0.1-0.3-1.1-1.2-1.6,0.1c0,0,0.6,0,0.3,0.5
			c-0.3,0.5,0.1,0.9,0.5,1.2c0.4,0.3,1.7,1.5,2,1.7c0.3,0.2,1.4,1.1,1.4,2.1c0,1,0,1.4-0.5,1.4C56,96.2,56.1,95.6,56.2,95.3
			L56.2,95.3z M57.5,96.9c0,0,0.1,0,0-0.6c-0.1-0.6-0.6-0.2-0.6,0.5c0,0.7,0.1,0.8,0.3,0.8C57.5,97.6,57.5,96.9,57.5,96.9L57.5,96.9
			z M59.3,101.3c0,0,0.6,0.4-0.1,0.8c-0.7,0.3-1,0-1.1-0.2c-0.2-0.3-0.4-1-0.5,0c-0.2,1,0.3,1.5,0.9,1.6c0.7,0.2,1.8-0.2,2.3-0.5
			c0.4-0.3,0.8-0.2,0.8-0.2s0.5-0.3,0-0.5c-0.5-0.2-0.2-1-0.5-1.4c-0.3-0.4-1-1.7-1.7-1.9c0,0-0.2,0,0-0.3c0.2-0.4,0-0.8-0.5-0.6
			c-0.6,0.2-1.1,0.2-1.5,0c-0.4-0.2-1.5-0.8-1.8-1.3c-0.3-0.5-0.4-0.7-0.2-1c0.1-0.3,0-1.1-0.4-0.6c-0.4,0.5-0.6,1.4,0,2.1
			c0.6,0.7,2.6,1.9,2.9,2c0,0,1.6,1.1,1.6,1.4c0,0.4,0,0.5-0.2,0.6C58.9,101.4,59.2,101.4,59.3,101.3L59.3,101.3z M59.8,102.5
			c0,0,0.5-0.7,0.4-1c-0.1-0.3-0.1-0.6,0.2-0.4c0.3,0.2,0.5,1-0.1,1.4C59.7,102.9,59.8,102.5,59.8,102.5L59.8,102.5z M60.4,105.2
			c0,0.2-0.4,0.2-0.6,0.2c-0.2,0-0.3-0.3-0.7-0.9c-0.3-0.6,0.4-0.1,0.4-0.2c0.1-0.2,0.5-0.5,0.5-0.5c1.1-0.6,2.2,0.2,2.2,0.2
			l-0.7,0.6c0,0-0.4-0.3-0.9-0.3C60.2,104.3,60.4,105.2,60.4,105.2z"/>
		<path id="XMLID_150_" class="st4" d="M53,85l-1.1-0.1c0,0-0.4,0.8-0.8,0.4c-0.4-0.3-0.4-0.4-0.4-0.5c0-0.1-1.1,0.1-1.1,0.1
			s0.1,1.8,1.2,1.9c1.1,0.1,1.8-0.5,1.9-0.7C53.2,85.7,53,85,53,85z"/>
		<path id="XMLID_149_" class="st4" d="M64.4,103c0,0-6.8-9.3-8.1-15l-0.9,0.4c0,0,4.3,11.4,8.2,15C63.9,103.3,64.4,103,64.4,103z"
			/>
		<path class="st4" d="M59.8,91.5c-1.4,0-2.5-1.1-2.5-2.5c0-1.4,1.1-2.5,2.5-2.5c1.4,0,2.5,1.1,2.5,2.5
			C62.4,90.3,61.2,91.5,59.8,91.5L59.8,91.5z M59.8,89.9c0.5,0,1-0.4,1-1c0-0.5-0.4-1-1-1c-0.5,0-1,0.4-1,1
			C58.8,89.4,59.2,89.9,59.8,89.9L59.8,89.9z M62,96.6c-1.3,0-2.3-1-2.3-2.3c0-1.3,1-2.3,2.3-2.3c1.3,0,2.3,1,2.3,2.3
			C64.3,95.6,63.3,96.6,62,96.6L62,96.6z M61.9,95.1c0.5,0,0.9-0.4,0.9-0.9c0-0.5-0.4-0.9-0.9-0.9c-0.5,0-0.9,0.4-0.9,0.9
			C61.1,94.7,61.5,95.1,61.9,95.1L61.9,95.1z M65.2,102.4l3-2.3c0,0,0-0.1,0-0.1c0-1.4-1.1-2.5-2.5-2.5c-1.4,0-2.5,1.1-2.5,2.5
			C63.2,101.1,64.1,102.1,65.2,102.4L65.2,102.4z M65.6,100.8c-0.5,0-1-0.4-1-1c0-0.5,0.4-1,1-1c0.5,0,1,0.4,1,1
			C66.6,100.4,66.2,100.8,65.6,100.8z"/>
		<path id="XMLID_142_" class="st4" d="M62.6,83.6l0.3,1.1c3.4-3.4,5.5-8.1,5.5-13.3c0-3.3-0.8-6.3-2.3-9l-0.7,0.7
			c1.3,2.5,2,5.3,2,8.3C67.5,76.1,65.6,80.4,62.6,83.6z"/>
		<path id="XMLID_141_" class="st4" d="M55.2,87l0.1,0.8c6.7-2.3,11.5-8.9,11.5-16.4c0-2.8-0.7-5.4-1.9-7.7l-0.6,0.4
			c1.1,2.2,1.7,4.7,1.7,7.3C66,78.5,61.5,84.7,55.2,87z"/>
		<path class="st4" d="M58.2,84.8c-1.5,1.1-2.8,1.8-3.4,2.2c-0.3-0.4-0.6-0.9-0.6-1.4c0-1.1,0.9-2.1,2.1-2.1
			C57.2,83.5,57.9,84,58.2,84.8L58.2,84.8z M63.2,79.6c-1,1.5-2.1,2.7-3.3,3.8c-0.5-0.5-0.9-1.1-0.9-1.9c0-1.4,1.1-2.5,2.5-2.5
			C62.2,79,62.8,79.3,63.2,79.6L63.2,79.6z M65.6,73.1c-0.2,1.8-0.7,3.4-1.4,4.8c-1-0.3-1.8-1.3-1.8-2.4c0-1.4,1.1-2.5,2.5-2.5
			C65.2,73,65.4,73,65.6,73.1L65.6,73.1z M64.7,66.2c0.6,1.7,0.9,3.4,1,4.9c-0.2,0.1-0.4,0.1-0.7,0.1c-1.4,0-2.5-1.1-2.5-2.5
			C62.5,67.4,63.4,66.3,64.7,66.2z"/>
		<path id="XMLID_136_" class="st6" d="M19.6,116v7.4c0,0,3.1,2.7,3,5.3c0,0,6.8-6.6-0.2-17.3C22.4,111.4,21.4,115.4,19.6,116z"/>
		<polygon id="XMLID_135_" class="st5" points="20,103.1 20,124.9 16.6,127.2 16.6,100.3 		"/>
		<path id="XMLID_134_" class="st4" d="M81.1,72.6L81.1,72.6l-1.6,0.9c-0.8-14.2-9.3-19.4-9.3-19.4l4.9-7.3l-0.6-0.8l0.3-0.6l1.3,1
			l-4.7,6.6C71.4,53.2,79.7,60.7,81.1,72.6z"/>
		<path id="XMLID_133_" class="st11" d="M76.1,46.5l-4.7,6.6c0,0,8.1,7,9.5,18.8"/>
		<path id="XMLID_132_" class="st3" d="M82.3,72.9V50.9l-5.9-4.5l-0.3,0.2l-4.7,6.6c0,0,8.1,7,9.5,18.8l0.2,1.5L82.3,72.9z"/>
		<path id="XMLID_131_" class="st12" d="M64.3,87.8l2.5,5.2c0,0,1.9-11.9,12.3-19.4c0,0-0.3-13.1-9.1-19.2l-2.1,2.7
			C67.9,57.1,80.1,74.3,64.3,87.8z"/>
		<path class="st9" d="M36.2,125.2c0,0-1.4-8.3-1.5-9.6c0-1.3-0.8-4.6-2.2-6.6c-1.3-2-3.9-4.4-7.2-3.4c0,0-3.1,1-2.2,4.1
			c0,0,0.9,2.5,3.7,1.9c0,0,1.6-0.6,1.2-2.2c-0.4-1.5-1.8-0.6-1.6,0.1c0.2,0.6,0.4,1.1-0.7,1c-1.1-0.1-2.3-1.9-1.6-2.8
			c0.7-1,2.3-1.8,4-1c1.7,0.8,3.8,2.6,4.7,5.9c0.9,3.3,2.3,12.4,2.3,12.4 M33.2,124.2c0,0-1.4-6.8-1.4-8.2c0-1.4-1.7-6.3-3.6-6.7
			 M34.2,124.7c0,0-1.1-6-1.3-7.6c-0.2-1.7-1.6-6.3-2.5-7.5c-0.9-1.2-3-2.6-4.5-1.9c-1.5,0.7-0.4,1.6,0.4,1.6 M37.4,125.5
			c0,0-1.3-6.6-1.4-8.5c-0.1-1.9-1.7-7.2-2.3-8.4 M38.6,125.8c0,0-1.6-8.1-1.6-9.4c0-1.3-1.1-5.9-2.3-7.8 M39.9,126
			c0,0-1.5-5.8-1.6-9c-0.1-3.2-2.3-8.4-2.3-8.4 M41,126.2c0,0-1.5-6.5-1.6-8.9c-0.1-2.5-2.3-8.4-2.5-8.7 M42.3,126.4
			c0,0-1.8-6.3-1.8-7.9c0-1.6-1.3-8.6-2.4-9.9 M43.4,126.4c0,0-2.1-6.7-2.1-9.7c0-3-2-8.2-2-8.2 M42.9,118.2c0,0-2.1-9.1-2.5-9.7
			 M43.6,115.4l-2.2-6.8 M44.3,114l-1.8-5.3 M45,112.8l-1.4-4.2 M45.8,111.9l-1.2-3.3 M46.8,111l-0.8-2.4 M47.7,110.3l-0.5-1.7
			 M48.6,109.7l-0.2-1.1"/>
		<path id="XMLID_113_" class="st7" d="M50.7,108.7c1.3-0.5,2.2-0.8,3-0.9H32.3v0.9H50.7z"/>
		<polygon id="XMLID_112_" class="st4" points="58.6,106.2 55.8,101.9 45.8,101.9 35,101.9 31.3,106.8 31.9,107.9 56,107.9 		"/>
		<polygon id="XMLID_111_" class="st13" points="31.1,107.1 29.7,105.6 46.5,83.4 48.7,83.4 		"/>
		<path id="XMLID_110_" class="st4" d="M66.3,93.3c0,0-2.2-4.1-2.4-4.9l0.2-0.3l2.6,5.1L66.3,93.3z"/>
		<path id="XMLID_109_" class="st1" d="M82.3,88.1V84c-3.2,1.3-5.2,8.4-5.2,8.4L82.3,88.1z"/>
		<path id="XMLID_108_" class="st1" d="M64.9,136.1H23.5l8.3-10.3c11.7,4.5,27.1,1.8,27.1,1.8L64.9,136.1z"/>
		<path class="st14" d="M55.3,129.7c-0.4,0-0.6-0.3-0.6-0.6c0-0.4,0.3-0.6,0.6-0.6c0.4,0,0.6,0.3,0.6,0.6
			C56,129.5,55.7,129.7,55.3,129.7L55.3,129.7z M46.7,130.3c-0.4,0-0.6-0.3-0.6-0.6c0-0.4,0.3-0.6,0.6-0.6c0.4,0,0.6,0.3,0.6,0.6
			C47.3,130,47,130.3,46.7,130.3L46.7,130.3z M36.2,128.8c-0.4,0-0.6-0.3-0.6-0.6c0-0.4,0.3-0.6,0.6-0.6c0.4,0,0.6,0.3,0.6,0.6
			C36.8,128.5,36.5,128.8,36.2,128.8L36.2,128.8z M59.5,136.1H61l-3-7.3l-0.8,0.2c0,0,0,2.1-1.8,1.9c-1.9-0.1-2-1.4-2-1.4l-1,0.1
			l2.1,6.4h1.9l-1.2-4c1.7,0.3,2.3-0.6,2.3-0.6L59.5,136.1L59.5,136.1z M42.6,136.1l1.4-4.9c0.6,1,2.3,1.3,2.3,1.3
			c1,0.3,2.8-0.7,2.8-0.7l0.7,4.3h1.5l-1-6.2h-1.8c0,0-0.4,2-1.9,1.7c-1.5-0.3-1.8-1.9-1.8-2h-1.9l-1.8,6.6H42.6L42.6,136.1z
			 M29.3,136.1l4.3-6.3c1.2,1.6,3.5,1.1,3.5,1.1l-2.2,5.2h1.6l2.9-7l-1.5-0.4c0,0-0.9,1.9-2.5,1.2c0,0-0.9-0.4-1.1-1.9l-1.2-0.4
			l-5.9,8.5H29.3z"/>
		<path class="st7" d="M58,106.8H31.2l2.9-3.7h21.3L58,106.8L58,106.8z M57.7,106.3l-1.4-2.1l-2.8,2.1L57.7,106.3L57.7,106.3
			L57.7,106.3z M57.4,105.8l-1-1.4c-0.2,0.2-0.3,0.4-0.3,0.6c0,0.5,0.4,0.9,0.9,0.9C57.1,105.9,57.2,105.9,57.4,105.8L57.4,105.8z
			 M35.6,105.9c0.5,0,0.9-0.4,0.9-0.9c0-0.5-0.4-0.9-0.9-0.9c-0.5,0-0.9,0.4-0.9,0.9C34.8,105.5,35.2,105.9,35.6,105.9L35.6,105.9z
			 M36.3,106.3l3.5-2.6h-4.3l-3.4,2.6H36.3L36.3,106.3z M43.1,106.3l3.5-2.6h-4.3l-3.4,2.6H43.1L43.1,106.3z M42.4,105.9
			c0.5,0,0.9-0.4,0.9-0.9c0-0.5-0.4-0.9-0.9-0.9c-0.5,0-0.9,0.4-0.9,0.9C41.5,105.5,41.9,105.9,42.4,105.9L42.4,105.9z M50.1,106.3
			l3.5-2.6h-4.3l-3.4,2.6H50.1L50.1,106.3z M49.4,105.9c0.5,0,0.9-0.4,0.9-0.9c0-0.5-0.4-0.9-0.9-0.9c-0.5,0-0.9,0.4-0.9,0.9
			C48.6,105.5,49,105.9,49.4,105.9z"/>
		<path class="st3" d="M60.8,104.9c0,0,0.8,3.4-1.1,4.3c0,0-1.9,0.9-3.9-1.1c0,0-0.4-0.3,0.4-0.7C57,107.1,60.8,104.9,60.8,104.9
			L60.8,104.9z M60.5,106.1c0,0-0.4,1-0.7,0.8c-0.3-0.2-0.5,0.1-0.4,0.5c0.1,0.3-0.4,0.5-0.9,0.3c-0.5-0.2-0.5,0-0.5,0.3
			c0,0.3-0.2,0.4-0.6,0.1c0,0-0.8-0.5-1,0.1c-0.2,0.6,1.9,0.9,2.8,0.6C60.2,108.5,61.1,106.8,60.5,106.1z"/>
		<path id="XMLID_90_" class="st4" d="M69.3,99.2l0.1-0.1c0-0.1,0.1-0.2,0.3-0.2c-5.4-6.1-7.4-14.6-7.4-14.6l-0.5,0.1
			C62.5,90.7,68.3,98,69.3,99.2z"/>
		<path class="st4" d="M81.9,80.5v-2.1c-1.1,0.1-2,1-2,2.1c0,0.6,0.2,1.1,0.6,1.5C81.3,81,81.8,80.5,81.9,80.5L81.9,80.5L81.9,80.5z
			 M71.6,97.4l2.8-2.2c0-0.2,0-0.3,0-0.5c-0.2-0.1-0.5-0.1-0.7-0.1c-1.2,0-2.1,1-2.1,2.1C71.5,96.9,71.5,97.1,71.6,97.4L71.6,97.4z
			 M77.7,85.7c-0.6-0.4-1-1-1-1.8c0-1.2,1-2.1,2.1-2.1c0.5,0,1,0.2,1.4,0.5C79.5,83.2,78.6,84.4,77.7,85.7L77.7,85.7z M75.6,89.7
			c0.6-1.3,1.3-2.6,2-3.7c-0.3-0.2-0.7-0.3-1.2-0.3c-1.2,0-2.1,1-2.1,2.1C74.3,88.7,74.8,89.4,75.6,89.7L75.6,89.7z M74.4,94.1
			c0.1-1.4,0.5-2.8,1.1-4.1c-0.2-0.1-0.4-0.1-0.6-0.1c-1.2,0-2.1,1-2.1,2.1C72.7,93.1,73.4,93.9,74.4,94.1L74.4,94.1z M80,78.8
			c0,0-1.3-0.7-2.7-0.4l-0.6-1.2l3-2.5l0.7,0.6c0,0-0.3,3,0,3.2C80.6,78.7,80,78.8,80,78.8L80,78.8z M76.4,82.4c0,0-1.9-0.4-2.7,0.4
			l-1.1-1.1l2.2-2.7l1.2,0.4c0,0-0.2,1.9,0.1,2.1C76.4,81.7,76.4,82.4,76.4,82.4L76.4,82.4z M74.2,86.6c0,0-1.6-0.2-2.1,0.3
			c-0.5,0.5-0.9,0.8-0.9,0.8l-1.2-1l1.3-2.9L73,84l0,1.1C72.9,85.1,74.3,86.6,74.2,86.6L74.2,86.6z M69.3,97.5c0,0,1.2-1,1.4-1
			l0.1-0.2c0,0-1.2-0.9-1.3-1.7c-0.1-0.8-0.2-1-0.2-1l-1.2,0l-0.2,1.7L69.3,97.5L69.3,97.5z M72.5,91.6c0,0-2.1,0.1-2.7,1.1
			l-0.2,0.1L68.5,92c0,0,0.5-2.9,0.6-3.1c0.2-0.2,1.6-0.2,1.6-0.2S71.4,91.3,72.5,91.6z"/>
		<path id="XMLID_79_" class="st4" d="M82.3,83.5V72.3L82,72.4c-12.7,6.3-15.2,21.3-15.2,21.3l0.8,1.1c0,0-0.4-0.6,1.3-6.8
			c2.9-9.7,12.9-15,12.9-15v8.4c-6.2,6.8-6.9,11.5-7,13.3l1.6-1.3C76.7,88,81.1,84.4,82.3,83.5z"/>
		<path class="st4" d="M69.6,60.5c-0.3-0.7-0.7-1.3-0.9-1.9c0,0,0,0-0.1,0c-0.7,0-1.2,0.5-1.2,1.2S68,61,68.6,61
			C69,61,69.4,60.8,69.6,60.5L69.6,60.5z M70.8,63.5c-0.2-0.6-0.4-1.2-0.7-1.8c-0.1,0-0.2-0.1-0.4-0.1c-0.7,0-1.2,0.5-1.2,1.2
			c0,0.7,0.5,1.2,1.2,1.2C70.2,64,70.6,63.8,70.8,63.5L70.8,63.5z M71.7,66.6c-0.1-0.7-0.3-1.3-0.5-1.9c-0.1-0.1-0.3-0.1-0.4-0.1
			c-0.7,0-1.2,0.5-1.2,1.2s0.5,1.2,1.2,1.2C71.1,67,71.4,66.9,71.7,66.6L71.7,66.6z M72.1,70.2c0-0.8-0.1-1.6-0.2-2.3
			c-0.1,0-0.1,0-0.2,0c-0.7,0-1.2,0.5-1.2,1.2c0,0.7,0.5,1.2,1.2,1.2C71.8,70.2,72,70.2,72.1,70.2L72.1,70.2z M72,73.4
			c0.1-0.7,0.1-1.5,0.1-2.2C72,71.1,71.8,71,71.6,71c-0.7,0-1.2,0.5-1.2,1.2c0,0.7,0.5,1.2,1.2,1.2C71.7,73.5,71.9,73.4,72,73.4
			L72,73.4z M71.4,76.7c0.2-0.7,0.4-1.4,0.5-2.1c-0.2-0.2-0.5-0.3-0.7-0.3c-0.7,0-1.2,0.5-1.2,1.2c0,0.7,0.5,1.2,1.2,1.2
			C71.2,76.8,71.3,76.7,71.4,76.7L71.4,76.7z M70.2,80c0.3-0.7,0.6-1.4,0.9-2.1c-0.2-0.2-0.5-0.3-0.8-0.3c-0.7,0-1.2,0.5-1.2,1.2
			C69,79.4,69.5,80,70.2,80L70.2,80z M68.6,82.7c0.5-0.7,0.9-1.4,1.3-2.1c-0.2-0.1-0.4-0.2-0.7-0.2c-0.7,0-1.2,0.5-1.2,1.2
			C67.9,82.1,68.2,82.5,68.6,82.7L68.6,82.7z M66.4,85.4c0.6-0.6,1.1-1.2,1.6-1.9c-0.2-0.2-0.5-0.3-0.8-0.3c-0.7,0-1.2,0.5-1.2,1.2
			C65.9,84.8,66.1,85.1,66.4,85.4L66.4,85.4z M64.2,87.5c0.6-0.5,1.2-1.1,1.7-1.6c-0.2-0.1-0.4-0.2-0.7-0.2c-0.7,0-1.2,0.5-1.2,1.2
			C64,87.1,64.1,87.3,64.2,87.5z"/>
		<path class="st6" d="M79.6,86.6l2.6,1.7L79.6,86.6 M77.6,90.9l2.3-0.7L77.6,90.9z"/>
		<polygon id="XMLID_66_" class="st4" points="82.3,53.6 82.3,51.4 76.4,46.9 75.6,48.3 		"/>
		<path class="st14" d="M82.3,63.8v-1.2l-7-5.7v0.7c0.2,0.3,0.5,0.7,0.7,1L82.3,63.8L82.3,63.8z M82.3,65.7L78,62.2
			c-0.3-0.7-0.7-1.4-1.1-2l5.4,4.4V65.7L82.3,65.7z M82.3,67.7l-3.1-2.5c-0.2-0.6-0.4-1.2-0.7-1.7l3.8,3V67.7L82.3,67.7z M82.3,69.6
			v-1.2l-2.7-2.2c0.2,0.5,0.3,1,0.5,1.5L82.3,69.6L82.3,69.6z M82.3,70.9l-1.8-1.5c-0.1-0.5-0.2-1-0.3-1.4l2.2,1.8V70.9L82.3,70.9z
			 M82.3,72.4v-1.2l-1.8-1.4c0.1,0.4,0.2,0.9,0.2,1.3L82.3,72.4z"/>
		<path class="st14" d="M74.7,50.3l1,0.8v1.4l-1-0.8V50.3L74.7,50.3z M82.3,55.1v-0.9l-0.8-0.6v0.9L82.3,55.1L82.3,55.1z M82.3,57.4
			V56l-0.8-0.6v1.4L82.3,57.4L82.3,57.4z M82.3,59.9v-1.4l-0.8-0.6v1.4L82.3,59.9L82.3,59.9z M82.3,61.8v-0.9l-0.9-0.7v0.9
			L82.3,61.8L82.3,61.8z M74.7,48.4v1l1,0.8v-1.1L74.7,48.4L74.7,48.4L74.7,48.4z M72.5,51.5l0.3-0.4l0.7,0.6v1.4l-1-0.8V51.5
			L72.5,51.5z M79.2,53.7l1,0.8v1.4l-1-0.8V53.7L79.2,53.7z M77,52l1,0.8v1.4l-1-0.8V52L77,52z M79.2,51.7v1.1l1,0.8v-1.1L79.2,51.7
			L79.2,51.7z M77,50.1l1,0.8v0.9L77,51V50.1L77,50.1z M74.7,52.6l1,0.8v1.4l-1-0.8V52.6L74.7,52.6z M79.2,56.1l1,0.8v1.4l-1-0.8
			V56.1L79.2,56.1z M77,54.4l1,0.8v1.4l-1-0.8V54.4L77,54.4z M74.6,54.9l1,0.8v1l-1-0.8V54.9L74.6,54.9z M79.1,58.3l1,0.8v1l-1-0.8
			V58.3L79.1,58.3z M76.9,56.7l1,0.8v0.9l-1-0.8V56.7z"/>
		<path id="XMLID_42_" class="st4" d="M50,76.9c0.8,0,1.4-0.6,1.4-1.4c0-0.8-0.6-1.4-1.4-1.4c-0.8,0-1.4,0.6-1.4,1.4
			C48.7,76.3,49.3,76.9,50,76.9z"/>
		<line id="XMLID_41_" class="st6" x1="16.8" y1="62.3" x2="38.7" y2="45.4"/>
		<line id="XMLID_40_" class="st6" x1="60.7" y1="105.7" x2="82.6" y2="88.8"/>
		<polygon id="XMLID_39_" class="st3" points="23.2,47 23.5,47.1 24,48.1 23.9,48.6 23.3,47.8 		"/>
		<path id="XMLID_38_" class="st2" d="M9.4,6.7v2h2.5c0,0,0,10.8,0,11.2c0,0.3-0.1,0.9-0.4,1.3c-0.2,0.3-0.6,0.6-1.1,0.7
			c-0.6,0.1-2,0.2-2.4-1.3c-0.1-0.5-0.1-1.6-0.1-1.6l-2.1,0c0,0,0,1.6,0.1,2.2c0.2,1,1.4,2.7,4.1,2.7c0.9,0,3.5-0.4,3.8-3.3
			c0.1-1.2,0.1-11.9,0.1-11.9h2.1v-2H9.4z"/>
		<path id="XMLID_37_" class="st2" d="M90.8,144.9v-2h-2.5c0,0,0-10.8,0-11.2c0-0.3,0.1-0.9,0.4-1.3c0.2-0.3,0.6-0.6,1.1-0.7
			c0.6-0.1,2-0.2,2.4,1.3c0.1,0.5,0.1,1.6,0.1,1.6h2.1c0,0,0-1.6-0.1-2.2c-0.2-1-1.4-2.7-4.1-2.7c-0.9,0-3.5,0.4-3.8,3.3
			c-0.1,1.2-0.1,11.9-0.1,11.9h-2.1v2H90.8z"/>
		<g>
			<path id="XMLID_36_" class="st2" d="M9.8,30.3c0.2,0,0.2-0.1,0.2-0.6c0.1-0.5,0.6-1.8,2.3-1.6c0.7,0.1,2.5,1,2.2,3.2
				c-0.1,0.8-0.3,1.4-1.3,3.1c-0.2,0.3-2,3-3.4,5.3c-1.4-2.3-3.2-5-3.4-5.3c-1.1-1.6-1.2-2.3-1.3-3.1c-0.2-2.2,1.5-3.1,2.2-3.2
				c1.7-0.1,2.2,1.1,2.3,1.6C9.6,30.2,9.6,30.3,9.8,30.3z"/>
		</g>
		<g>
			<path id="XMLID_35_" class="st2" d="M88.5,121.3c-0.2,0-0.2,0.1-0.2,0.6c-0.1,0.5-0.6,1.8-2.3,1.6c-0.7-0.1-2.5-1-2.2-3.2
				c0.1-0.8,0.3-1.4,1.3-3.1c0.2-0.3,2-3,3.4-5.3c1.4,2.3,3.2,5,3.4,5.3c1.1,1.6,1.2,2.3,1.3,3.1c0.2,2.2-1.5,3.1-2.2,3.2
				c-1.7,0.1-2.2-1.1-2.3-1.6C88.7,121.4,88.7,121.3,88.5,121.3z"/>
		</g>
		<path class="st15" d="M16.9,136.8h66V14.8H16.4v122.1H16.9L16.9,136.8z M17.4,135.8L17.4,135.8c0-1,0-119.1,0-120.1
			c1,0,63.4,0,64.4,0c0,1,0,119.1,0,120.1C80.8,135.8,18.4,135.8,17.4,135.8z"/>
		<g>
			<polygon id="XMLID_32_" class="st10" points="17.1,126.6 19.1,125.2 19.1,103.1 17.1,101 			"/>
			<path class="st3" d="M19.1,123.5v0.3l-2,1.1v-0.3L19.1,123.5L19.1,123.5z M19.1,122.1v0.3c-0.7,0.4-1.3,0.7-2,1.1v-0.3
				C17.8,122.9,18.5,122.5,19.1,122.1L19.1,122.1z M19.1,120.8v0.3c-0.7,0.4-1.3,0.7-2,1.1v-0.3C17.8,121.5,18.5,121.1,19.1,120.8
				L19.1,120.8z M19.1,119.4v0.3c-0.7,0.4-1.3,0.7-2,1.1v-0.3C17.8,120.1,18.5,119.8,19.1,119.4L19.1,119.4z M19.1,118.1v0.3
				c-0.7,0.4-1.3,0.7-2,1.1v-0.3C17.8,118.8,18.5,118.4,19.1,118.1L19.1,118.1z M19.1,116.7v0.3c-0.7,0.4-1.3,0.7-2,1.1v-0.3
				C17.8,117.4,18.5,117.1,19.1,116.7L19.1,116.7z M19.1,115.4v0.3c-0.7,0.4-1.3,0.7-2,1.1v-0.3C17.8,116.1,18.5,115.7,19.1,115.4
				L19.1,115.4z M19.1,114v0.3c-0.7,0.4-1.3,0.7-2,1.1v-0.3C17.8,114.7,18.5,114.3,19.1,114L19.1,114z M19.1,112.6v0.3
				c-0.7,0.4-1.3,0.7-2,1.1v-0.3C17.8,113.3,18.5,113,19.1,112.6L19.1,112.6z M19.1,111.3v0.3c-0.7,0.4-1.3,0.7-2,1.1v-0.3
				C17.8,112,18.5,111.6,19.1,111.3L19.1,111.3z M19.1,109.9v0.3c-0.7,0.4-1.3,0.7-2,1.1V111C17.8,110.6,18.5,110.3,19.1,109.9
				L19.1,109.9z M19.1,108.6v0.3c-0.7,0.4-1.3,0.7-2,1.1v-0.3C17.8,109.3,18.5,108.9,19.1,108.6L19.1,108.6z M19.1,107.2v0.3
				c-0.7,0.4-1.3,0.7-2,1.1v-0.3C17.8,107.9,18.5,107.5,19.1,107.2L19.1,107.2z M19.1,105.8v0.3c-0.7,0.4-1.3,0.7-2,1.1v-0.3
				C17.8,106.5,18.5,106.2,19.1,105.8L19.1,105.8z M19.1,104.5v0.3c-0.7,0.4-1.3,0.7-2,1.1v-0.3C17.8,105.2,18.5,104.8,19.1,104.5
				L19.1,104.5z M19.1,103.1v0.3c-0.7,0.4-1.3,0.7-2,1.1v-0.3C17.8,103.8,18.5,103.5,19.1,103.1L19.1,103.1z M18.3,102.2l0.2,0.2
				l-1.3,0.7v-0.3L18.3,102.2z"/>
		</g>
	</g>
</g>
</svg>
