<?xml version="1.0" encoding="utf-8"?>
<!-- Generator: Adobe Illustrator 19.0.0, SVG Export Plug-In . SVG Version: 6.00 Build 0)  -->
<svg version="1.1" xmlns="http://www.w3.org/2000/svg" xmlns:xlink="http://www.w3.org/1999/xlink" x="0px" y="0px"
	 viewBox="0 0 99.4 151.6" style="enable-background:new 0 0 99.4 151.6;" xml:space="preserve">
<style type="text/css">
	.st0{fill:#FFFFFF;stroke:#000000;stroke-width:0.25;stroke-miterlimit:2.6131;}
	.st1{fill-rule:evenodd;clip-rule:evenodd;fill:#E52529;}
	.st2{fill:#E52529;}
	.st3{fill-rule:evenodd;clip-rule:evenodd;fill:#FFFFFF;}
	.st4{fill-rule:evenodd;clip-rule:evenodd;fill:#6FC8E5;}
	.st5{fill-rule:evenodd;clip-rule:evenodd;fill:#E52529;stroke:#2AABE3;stroke-width:0.216;stroke-miterlimit:2.6131;}
	
		.st6{fill-rule:evenodd;clip-rule:evenodd;fill:none;stroke:#0D4F9E;stroke-width:0.8504;stroke-linecap:round;stroke-linejoin:round;stroke-miterlimit:2.6131;}
	.st7{fill-rule:evenodd;clip-rule:evenodd;fill:#3B160E;}
	
		.st8{fill-rule:evenodd;clip-rule:evenodd;fill:#6FC8E5;stroke:#0D4F9E;stroke-width:0.7087;stroke-linecap:round;stroke-linejoin:round;stroke-miterlimit:2.6131;}
	.st9{fill-rule:evenodd;clip-rule:evenodd;fill:#BF1818;stroke:#0D4F9E;stroke-width:0.5669;stroke-miterlimit:2.6131;}
	.st10{fill-rule:evenodd;clip-rule:evenodd;fill:#BF1818;}
	.st11{fill-rule:evenodd;clip-rule:evenodd;fill:#0CA551;}
	.st12{fill-rule:evenodd;clip-rule:evenodd;fill:#E32285;}
	
		.st13{fill-rule:evenodd;clip-rule:evenodd;fill:none;stroke:#0D4F9E;stroke-width:0.652;stroke-linecap:round;stroke-linejoin:round;stroke-miterlimit:2.6131;}
	
		.st14{fill-rule:evenodd;clip-rule:evenodd;fill:none;stroke:#10447F;stroke-width:0.652;stroke-linecap:round;stroke-linejoin:round;stroke-miterlimit:2.6131;}
	.st15{fill-rule:evenodd;clip-rule:evenodd;fill:#E52529;stroke:#0D4F9E;stroke-width:0.216;stroke-miterlimit:2.6131;}
	.st16{fill-rule:evenodd;clip-rule:evenodd;fill:none;stroke:#0D4F9E;stroke-width:0.5669;stroke-miterlimit:2.6131;}
	.st17{fill:#BF1818;}
	
		.st18{fill-rule:evenodd;clip-rule:evenodd;fill:none;stroke:#0D4F9E;stroke-width:1.4173;stroke-linecap:round;stroke-linejoin:round;stroke-miterlimit:2.6131;}
	
		.st19{fill-rule:evenodd;clip-rule:evenodd;fill:none;stroke:#2AABE3;stroke-width:0.652;stroke-linecap:round;stroke-linejoin:round;stroke-miterlimit:2.6131;}
	
		.st20{fill-rule:evenodd;clip-rule:evenodd;fill:none;stroke:#0D4F9E;stroke-width:2.126;stroke-linecap:round;stroke-linejoin:round;stroke-miterlimit:2.6131;}
	
		.st21{fill-rule:evenodd;clip-rule:evenodd;fill:#6FC8E5;stroke:#0D4F9E;stroke-width:0.8504;stroke-linecap:round;stroke-linejoin:round;stroke-miterlimit:2.6131;}
	
		.st22{fill-rule:evenodd;clip-rule:evenodd;fill:#6FC8E5;stroke:#0CA551;stroke-width:0.8504;stroke-linecap:round;stroke-linejoin:round;stroke-miterlimit:2.6131;}
	
		.st23{fill-rule:evenodd;clip-rule:evenodd;fill:none;stroke:#0CA551;stroke-width:0.8504;stroke-linecap:round;stroke-linejoin:round;stroke-miterlimit:2.6131;}
	
		.st24{fill-rule:evenodd;clip-rule:evenodd;fill:none;stroke:#0D4F9E;stroke-width:0.9921;stroke-linecap:round;stroke-linejoin:round;stroke-miterlimit:2.6131;}
	.st25{fill-rule:evenodd;clip-rule:evenodd;fill:#6FC8E5;stroke:#0CA551;stroke-width:0.5669;stroke-miterlimit:2.6131;}
</style>
<g id="Calque_2">
	<path id="XMLID_15_" class="st0" d="M99.3,5.3v140.9c0,2.9-2.3,5.2-5.2,5.2H5.3c-2.9,0-5.2-2.3-5.2-5.2V5.3c0-2.9,2.3-5.2,5.2-5.2
		h88.7C96.9,0.1,99.3,2.5,99.3,5.3z"/>
</g>
<g id="Calque_1">
	<g>
		<g>
			<g>
				<g>
					<path class="st1" d="M552.8,134.6c-3.2-4.4-4.1-8-4.1-8s-0.9,3.7-4.1,8c-3.2,4.4-6.2,5.6-6.2,5.6s3,1.2,6.2,5.6
						c3.2,4.4,4.1,8,4.1,8s0.9-3.7,4.1-8c3.2-4.4,6.2-5.6,6.2-5.6S556.1,138.9,552.8,134.6z"/>
					<path class="st1" d="M510.8,134.6c-3.2-4.4-4.1-8-4.1-8s-0.9,3.7-4.1,8c-3.2,4.4-6.2,5.6-6.2,5.6s3,1.2,6.2,5.6
						c3.2,4.4,4.1,8,4.1,8s0.9-3.7,4.1-8c3.2-4.4,6.2-5.6,6.2-5.6S514,138.9,510.8,134.6z"/>
				</g>
				<g>
					<path class="st1" d="M531.8,177.1c-3.2-4.4-4.1-8-4.1-8s-0.9,3.7-4.1,8c-3.2,4.4-6.2,5.6-6.2,5.6s3,1.2,6.2,5.6
						c3.2,4.4,4.1,8,4.1,8s0.9-3.7,4.1-8c3.2-4.4,6.2-5.6,6.2-5.6S535,181.5,531.8,177.1z"/>
				</g>
				<g>
					<path class="st1" d="M552.8,219.7c-3.2-4.4-4.1-8-4.1-8s-0.9,3.7-4.1,8c-3.2,4.4-6.2,5.6-6.2,5.6s3,1.2,6.2,5.6
						c3.2,4.4,4.1,8,4.1,8s0.9-3.7,4.1-8c3.2-4.4,6.2-5.6,6.2-5.6S556.1,224,552.8,219.7z"/>
					<path class="st1" d="M510.8,219.7c-3.2-4.4-4.1-8-4.1-8s-0.9,3.7-4.1,8c-3.2,4.4-6.2,5.6-6.2,5.6s3,1.2,6.2,5.6
						c3.2,4.4,4.1,8,4.1,8s0.9-3.7,4.1-8c3.2-4.4,6.2-5.6,6.2-5.6S514,224,510.8,219.7z"/>
				</g>
			</g>
		</g>
		<g>
			<g>
				<g>
					<g>
						<g>
							<g>
								<path class="st2" d="M486.7,117.5h7.8v1.8h-6l-0.2,3c0,0,2.8-1.6,5.5,0.7c0.5,0.4,2.9,2.9,1.4,7.8c-0.3,1-2,3.6-5.6,3.1
									c-0.2,0-2.9-0.7-3.9-3.7l1.7-0.4c0,0,1.3,2.7,3.1,2.5c0.9-0.1,3.3-0.7,3.2-4.6c0-0.3,0-3.7-2.9-4.2c-1-0.2-2.2,0-3.9,1.7
									l-0.8-0.5L486.7,117.5z"/>
							</g>
						</g>
						<g>
							<g>
								<path class="st2" d="M568.8,247.8h-7.9V246h6l0.2-3c0,0-2.8,1.6-5.5-0.7c-0.5-0.4-2.9-2.9-1.4-7.8c0.3-1,2-3.6,5.6-3.1
									c0.2,0,2.9,0.7,3.9,3.7l-1.7,0.4c0,0-1.3-2.7-3.1-2.5c-0.9,0.1-3.3,0.7-3.2,4.6c0,0.3,0,3.7,2.9,4.2c1,0.2,2.2,0,3.9-1.7
									l0.8,0.5L568.8,247.8z"/>
							</g>
						</g>
					</g>
				</g>
			</g>
		</g>
		<g>
			<g>
				<path class="st2" d="M490.8,137.7c0,0,1.4,4.5,4.7,6.3c0,0-3.2,1.7-4.7,6.2c-1.5-4.6-4.7-6.2-4.7-6.2
					C489.4,142.2,490.8,137.7,490.8,137.7z"/>
			</g>
			<g>
				<path class="st2" d="M564.7,227.6c0,0-1.4-4.5-4.7-6.3c0,0,3.2-1.7,4.7-6.2c1.5,4.6,4.7,6.2,4.7,6.2
					C566.1,223.1,564.7,227.6,564.7,227.6z"/>
			</g>
		</g>
	</g>
	<g>
		<g>
			<g>
				<g>
					<path class="st1" d="M552.8,134.6c-3.2-4.4-4.1-8-4.1-8s-0.9,3.7-4.1,8c-3.2,4.4-6.2,5.6-6.2,5.6s3,1.2,6.2,5.6
						c3.2,4.4,4.1,8,4.1,8s0.9-3.7,4.1-8c3.2-4.4,6.2-5.6,6.2-5.6S556.1,138.9,552.8,134.6z"/>
					<path class="st1" d="M510.8,134.6c-3.2-4.4-4.1-8-4.1-8s-0.9,3.7-4.1,8c-3.2,4.4-6.2,5.6-6.2,5.6s3,1.2,6.2,5.6
						c3.2,4.4,4.1,8,4.1,8s0.9-3.7,4.1-8c3.2-4.4,6.2-5.6,6.2-5.6S514,138.9,510.8,134.6z"/>
				</g>
				<g>
					<path class="st1" d="M531.8,177.1c-3.2-4.4-4.1-8-4.1-8s-0.9,3.7-4.1,8c-3.2,4.4-6.2,5.6-6.2,5.6s3,1.2,6.2,5.6
						c3.2,4.4,4.1,8,4.1,8s0.9-3.7,4.1-8c3.2-4.4,6.2-5.6,6.2-5.6S535,181.5,531.8,177.1z"/>
				</g>
				<g>
					<path class="st1" d="M552.8,219.7c-3.2-4.4-4.1-8-4.1-8s-0.9,3.7-4.1,8c-3.2,4.4-6.2,5.6-6.2,5.6s3,1.2,6.2,5.6
						c3.2,4.4,4.1,8,4.1,8s0.9-3.7,4.1-8c3.2-4.4,6.2-5.6,6.2-5.6S556.1,224,552.8,219.7z"/>
					<path class="st1" d="M510.8,219.7c-3.2-4.4-4.1-8-4.1-8s-0.9,3.7-4.1,8c-3.2,4.4-6.2,5.6-6.2,5.6s3,1.2,6.2,5.6
						c3.2,4.4,4.1,8,4.1,8s0.9-3.7,4.1-8c3.2-4.4,6.2-5.6,6.2-5.6S514,224,510.8,219.7z"/>
				</g>
			</g>
		</g>
		<g>
			<g>
				<g>
					<g>
						<g>
							<g>
								<path class="st2" d="M486.7,117.5h7.8v1.8h-6l-0.2,3c0,0,2.8-1.6,5.5,0.7c0.5,0.4,2.9,2.9,1.4,7.8c-0.3,1-2,3.6-5.6,3.1
									c-0.2,0-2.9-0.7-3.9-3.7l1.7-0.4c0,0,1.3,2.7,3.1,2.5c0.9-0.1,3.3-0.7,3.2-4.6c0-0.3,0-3.7-2.9-4.2c-1-0.2-2.2,0-3.9,1.7
									l-0.8-0.5L486.7,117.5z"/>
							</g>
						</g>
						<g>
							<g>
								<path class="st2" d="M568.8,247.8h-7.9V246h6l0.2-3c0,0-2.8,1.6-5.5-0.7c-0.5-0.4-2.9-2.9-1.4-7.8c0.3-1,2-3.6,5.6-3.1
									c0.2,0,2.9,0.7,3.9,3.7l-1.7,0.4c0,0-1.3-2.7-3.1-2.5c-0.9,0.1-3.3,0.7-3.2,4.6c0,0.3,0,3.7,2.9,4.2c1,0.2,2.2,0,3.9-1.7
									l0.8,0.5L568.8,247.8z"/>
							</g>
						</g>
					</g>
				</g>
			</g>
		</g>
		<g>
			<g>
				<path class="st2" d="M490.8,137.7c0,0,1.4,4.5,4.7,6.3c0,0-3.2,1.7-4.7,6.2c-1.5-4.6-4.7-6.2-4.7-6.2
					C489.4,142.2,490.8,137.7,490.8,137.7z"/>
			</g>
			<g>
				<path class="st2" d="M564.7,227.6c0,0-1.4-4.5-4.7-6.3c0,0,3.2-1.7,4.7-6.2c1.5,4.6,4.7,6.2,4.7,6.2
					C566.1,223.1,564.7,227.6,564.7,227.6z"/>
			</g>
		</g>
	</g>
	<g>
		<g>
			<g>
				<g>
					<path class="st1" d="M552.8,134.6c-3.2-4.4-4.1-8-4.1-8s-0.9,3.7-4.1,8c-3.2,4.4-6.2,5.6-6.2,5.6s3,1.2,6.2,5.6
						c3.2,4.4,4.1,8,4.1,8s0.9-3.7,4.1-8c3.2-4.4,6.2-5.6,6.2-5.6S556.1,138.9,552.8,134.6z"/>
					<path class="st1" d="M510.8,134.6c-3.2-4.4-4.1-8-4.1-8s-0.9,3.7-4.1,8c-3.2,4.4-6.2,5.6-6.2,5.6s3,1.2,6.2,5.6
						c3.2,4.4,4.1,8,4.1,8s0.9-3.7,4.1-8c3.2-4.4,6.2-5.6,6.2-5.6S514,138.9,510.8,134.6z"/>
				</g>
				<g>
					<path class="st1" d="M531.8,177.1c-3.2-4.4-4.1-8-4.1-8s-0.9,3.7-4.1,8c-3.2,4.4-6.2,5.6-6.2,5.6s3,1.2,6.2,5.6
						c3.2,4.4,4.1,8,4.1,8s0.9-3.7,4.1-8c3.2-4.4,6.2-5.6,6.2-5.6S535,181.5,531.8,177.1z"/>
				</g>
				<g>
					<path class="st1" d="M552.8,219.7c-3.2-4.4-4.1-8-4.1-8s-0.9,3.7-4.1,8c-3.2,4.4-6.2,5.6-6.2,5.6s3,1.2,6.2,5.6
						c3.2,4.4,4.1,8,4.1,8s0.9-3.7,4.1-8c3.2-4.4,6.2-5.6,6.2-5.6S556.1,224,552.8,219.7z"/>
					<path class="st1" d="M510.8,219.7c-3.2-4.4-4.1-8-4.1-8s-0.9,3.7-4.1,8c-3.2,4.4-6.2,5.6-6.2,5.6s3,1.2,6.2,5.6
						c3.2,4.4,4.1,8,4.1,8s0.9-3.7,4.1-8c3.2-4.4,6.2-5.6,6.2-5.6S514,224,510.8,219.7z"/>
				</g>
			</g>
		</g>
		<g>
			<g>
				<g>
					<g>
						<g>
							<g>
								<path class="st2" d="M486.7,117.5h7.8v1.8h-6l-0.2,3c0,0,2.8-1.6,5.5,0.7c0.5,0.4,2.9,2.9,1.4,7.8c-0.3,1-2,3.6-5.6,3.1
									c-0.2,0-2.9-0.7-3.9-3.7l1.7-0.4c0,0,1.3,2.7,3.1,2.5c0.9-0.1,3.3-0.7,3.2-4.6c0-0.3,0-3.7-2.9-4.2c-1-0.2-2.2,0-3.9,1.7
									l-0.8-0.5L486.7,117.5z"/>
							</g>
						</g>
						<g>
							<g>
								<path class="st2" d="M568.8,247.8h-7.9V246h6l0.2-3c0,0-2.8,1.6-5.5-0.7c-0.5-0.4-2.9-2.9-1.4-7.8c0.3-1,2-3.6,5.6-3.1
									c0.2,0,2.9,0.7,3.9,3.7l-1.7,0.4c0,0-1.3-2.7-3.1-2.5c-0.9,0.1-3.3,0.7-3.2,4.6c0,0.3,0,3.7,2.9,4.2c1,0.2,2.2,0,3.9-1.7
									l0.8,0.5L568.8,247.8z"/>
							</g>
						</g>
					</g>
				</g>
			</g>
		</g>
		<g>
			<g>
				<path class="st2" d="M490.8,137.7c0,0,1.4,4.5,4.7,6.3c0,0-3.2,1.7-4.7,6.2c-1.5-4.6-4.7-6.2-4.7-6.2
					C489.4,142.2,490.8,137.7,490.8,137.7z"/>
			</g>
			<g>
				<path class="st2" d="M564.7,227.6c0,0-1.4-4.5-4.7-6.3c0,0,3.2-1.7,4.7-6.2c1.5,4.6,4.7,6.2,4.7,6.2
					C566.1,223.1,564.7,227.6,564.7,227.6z"/>
			</g>
		</g>
	</g>
	<g id="XMLID_14_">
		<path id="XMLID_403_" class="st1" d="M44.4,59.9C43.9,54.8,34.8,43,36,43.9l1.2-0.6l0.9,1c0,0.6,0.5,1.1,1.2,1.6l1.2,1.3l0.6,1
			l1.7,0.2l2.4-0.6l0.8-1l1.5-0.7l0.2-1.6h0.9l1.2,2.7l1.7,1.4l2.5,0.6l2.6-0.6C56.4,48.4,44.3,59.7,44.4,59.9z"/>
		<path id="XMLID_402_" class="st1" d="M55.5,90.6c0.5,5.1,9.5,17.1,8.3,16.2l-1.2,0.6l-0.8-1.3l-1.3-1.3l-1.2-1.3l-0.6-1l-1.7-0.2
			l-2.4,0.6l-0.8,1l-1.5,0.7l-0.2,1.6h-0.9l-1.2-2.7l-1.7-1.4l-3.1-0.6l-2.1,0.6C43.4,102.3,55.7,90.7,55.5,90.6z"/>
		<path id="XMLID_401_" class="st3" d="M61.2,46.2l10.1-0.1c-20.9,22.4-12.4,44.5,1.5,57.7l-9.6,3.3C53.3,89.7,46.8,69.4,61.2,46.2z
			"/>
		<path id="XMLID_400_" class="st3" d="M38.6,104.5l-10.1,0.1c21-22.4,12.4-44.5-1.5-57.7l9.7-3.3C46.5,61,53,81.3,38.6,104.5z"/>
		<path id="XMLID_399_" class="st4" d="M72.8,103.5l-6.4-7.3l7.6-5.3l8.6-6l0.2,11.7C79.9,99.6,76.5,101.7,72.8,103.5z"/>
		<path id="XMLID_398_" class="st4" d="M26.9,47.1l6.4,7.3l-7.6,5.3L16.8,66l-0.3-11.7C19.4,51.3,23.2,49,26.9,47.1z"/>
		<path id="XMLID_397_" class="st1" d="M62.6,90.5l3.1-0.4l2.2-1.5l1.7,0.1l2.4,1.2l2.1,2.2c-2.2,1.7-4.8,3.3-7.7,4.5L62.6,90.5z"/>
		<path id="XMLID_396_" class="st5" d="M37.2,60.2l-3.1,0.4l-2.2,1.5l-1.7-0.1l-2.4-1.2l-2.1-2.2c2.2-1.8,4.8-3.3,7.7-4.5L37.2,60.2
			z"/>
		<path id="XMLID_395_" class="st6" d="M74.2,92c0,0-5.2,3.6-7.6,4.4"/>
		<path id="XMLID_394_" class="st6" d="M25.5,58.6c0,0,5.2-3.6,7.6-4.4"/>
		<rect id="XMLID_393_" x="46.9" y="70.9" class="st7" width="6" height="8"/>
		<path id="XMLID_392_" class="st7" d="M67.5,97.7c0,0,1.3,2,2,2.1c0.6,0.1,12.1-6.9,13.2-10v-3.1C82.6,86.7,76.9,93.4,67.5,97.7z"
			/>
		<path id="XMLID_391_" class="st7" d="M32.3,53c0,0-1.3-2-2-2.1c-0.6-0.1-12.6,7.4-13.7,10.4v3.1C16.7,64.4,22.9,57.3,32.3,53z"/>
		<path id="XMLID_390_" class="st7" d="M69.9,100.4c0,0,0.6,1.9,1.2,2c0.6-0.1,10.5-5.7,11.6-7.9v-3.1
			C82.8,91.3,79.3,96.1,69.9,100.4z"/>
		<path id="XMLID_389_" class="st7" d="M29.8,50.3c0,0-0.6-1.9-1.2-2C27.9,48.3,18,54,16.9,56.2v3.1C16.9,59.3,20.4,54.5,29.8,50.3z
			"/>
		<polygon id="XMLID_388_" class="st1" points="68.2,75.6 68.8,82.6 71.2,81.2 73.6,79.6 76.9,79.3 77.1,61 77.1,60.1 71.6,55.2 
			73.2,63.3 71.6,71.6 		"/>
		<polygon id="XMLID_387_" class="st1" points="31.5,75 30.9,67.8 28.5,69.4 26.1,71.1 22.8,71.4 22.7,89.7 22.7,90.5 28.1,95.4 
			26.5,87.4 28.1,79.1 		"/>
		<path id="XMLID_386_" class="st8" d="M68.3,49.8c0,0-5.6,7.2-7.2,12.4c-1.6,5.3-2.3,9.6-2.2,12.4c0.1,2.8,0.1,6.1,0.6,6.4
			c0.5,0.4,11.7-4.1,13.3-13.3C74.5,58.5,70.1,52.3,68.3,49.8z"/>
		<path id="XMLID_385_" class="st8" d="M31.4,100.9c0,0,5.6-7.2,7.3-12.4c1.6-5.3,2.3-9.6,2.2-12.4c-0.1-2.8-0.1-6.1-0.6-6.4
			c-0.5-0.4-11.7,4.1-13.3,13.3C25.2,92.2,29.6,98.4,31.4,100.9z"/>
		<g>
			<path id="XMLID_384_" class="st7" d="M64.4,55.3l2.7-4.1c4.3,3.3,5.6,10.7,4.6,15.4c-1.2,5.9-4.5,11.5-12.5,13.8L59.1,75
				C67.1,70.6,70.5,63.1,64.4,55.3z"/>
			<path id="XMLID_383_" class="st7" d="M59.2,72.5c1.2-0.1,2.3-0.7,2.6-1.2c0.3-0.4,0.5-1.9,1.2-2.2c0.7-0.3,1.5-1.4,1.6-1.8
				c0.1-0.5-0.1-1.1,0.2-1.8c0.3-0.7,0.7-1,0.9-1.6c0.2-0.5,0.1-1.7-0.3-2.3c-1.2-1.5-0.3-0.5-0.4-2.4c-0.1-0.9-1.8-2.3-1.8-2.3
				l0.4-0.9c2.8,3.2,3.2,6.8,2.4,10c-1,3.8-4,6.9-7,7.9L59.2,72.5z"/>
			<path id="XMLID_382_" class="st7" d="M62.2,59.6c0,0,0.7,1.3,0.7,3.2c0.1,1.6-0.3,4.1-2.2,6c-1.7,1.5-1.5,0.9-1.5,0.9l-0.1,1.2
				c0,0,2.1-1.1,2.6-1.6c0.5-0.5,0.4-0.7,0.6-1.1c0.3-0.4,0.2-0.9,0.9-1.9c0.9-1,0.5-1.2,0.4-2c-0.4-1-0.2-1.9,0.1-2.4
				c0.3-0.5,0.4-0.9-0.1-1.4c-0.7-0.5-1.1-1.6-1.1-1.6L62.2,59.6z"/>
			<path id="XMLID_381_" class="st7" d="M61.8,60.5l-2.2,7.9c0,0,1.9-1.4,2.4-3.5C62.4,62.8,62.2,62,61.8,60.5z"/>
		</g>
		<g>
			<path id="XMLID_380_" class="st7" d="M35.4,95.4l-2.7,4.1c-4.3-3.3-5.6-10.7-4.6-15.4c1.2-5.9,4.5-11.5,12.5-13.8l0.1,5.4
				C32.6,80,29.3,87.6,35.4,95.4z"/>
			<path id="XMLID_379_" class="st7" d="M40.6,78.1c-1.2,0.1-2.3,0.7-2.6,1.2c-0.3,0.4-0.5,1.9-1.2,2.2c-0.7,0.3-1.5,1.4-1.6,1.8
				c-0.1,0.5,0.1,1.1-0.2,1.8c-0.3,0.7-0.7,1-0.9,1.6c-0.2,0.5-0.1,1.7,0.3,2.3c1.2,1.5,0.3,0.5,0.4,2.4c0.1,0.9,1.8,2.3,1.8,2.3
				L36,94.5c-2.8-3.2-3.2-6.8-2.4-10c1-3.8,4-6.9,7.1-7.9L40.6,78.1z"/>
			<path id="XMLID_378_" class="st7" d="M37.5,91.1c0,0-0.7-1.3-0.7-3.2c-0.1-1.6,0.3-4.1,2.2-6c1.7-1.5,1.5-0.9,1.5-0.9l0.1-1.2
				c0,0-2.1,1.1-2.6,1.6c-0.5,0.5-0.4,0.7-0.6,1.1c-0.3,0.4-0.2,0.9-0.9,1.9c-0.9,1-0.5,1.2-0.4,2c0.4,1,0.2,1.9-0.1,2.4
				c-0.3,0.5-0.4,0.9,0.1,1.4c0.7,0.5,1.1,1.6,1.1,1.6L37.5,91.1z"/>
			<path id="XMLID_377_" class="st7" d="M38,90.2l2.2-7.9c0,0-1.9,1.4-2.4,3.5C37.4,87.9,37.5,88.7,38,90.2z"/>
		</g>
		<path id="XMLID_376_" class="st9" d="M59.5,81c0,0,4.3-1.2,5.2-2.1c1-0.9,4-3.3,4-3.3l0.3,6.9l-1.7,0.2c0.7,0.4,1.3,5.6,0.2,6.6
			c-1.7,1.6-3.6,1.3-4.5,1.4c-0.3,0,0.1,0.7,0.2,1.4l-3.4-0.6l-4.5-3.8l1.7-2.1l0.2-2.4l-1.1-1.8c0.8-1,1.7-2,2.5-2.9L59.5,81z"/>
		<path id="XMLID_375_" class="st10" d="M40.3,69.7c0,0-4.3,1.2-5.2,2.1c-1,0.9-4,3.3-4,3.3l-0.3-6.9l1.7-0.2
			c-0.7-0.4-1.4-5.6-0.2-6.6c1.7-1.6,3.6-1.3,4.6-1.4c0.3,0-0.1-0.7-0.2-1.4l3.4,0.6l4.6,3.8l-1.7,2.1l-0.2,2.4l1.1,1.8
			c-0.8,1-1.7,2-2.5,2.9L40.3,69.7z"/>
		<path id="XMLID_374_" class="st10" d="M67.9,40.5c0,0,1-1.3,1-2c0-0.7-0.8-1-0.3-2c0.6-1,0.8-1.2,0.8-1.2
			c-0.1,0.1-0.1-1.1,0.5-1.5c0,0-0.5-0.2-0.5,0.2c0,0.4-0.7,0.6-0.7,0.9c-0.7,0.8-2.1,0.5-2.6-0.1c-0.6-0.7-0.7-1.8,0.6-2.2
			c1.1,0,1,0.1,0.7-1.1c-0.3-0.6-2.7-0.2-2.7-0.2l-1.3,0.1l-0.7-3.5l1.4-1.9l2.9,0.1c0,0-0.5-2.1,0.7-2.9c1.1-0.8,1.2-1,2.3-0.6
			c1.1,0.5,1.1,1.3,1,1.7c-0.1,0.4-0.3,0.6,0.1,0.8c0.5,0.2,1.7-0.7,2.2,0.3c0.2,0.3,1-0.1,1.6,0.3c0.7-0.2,1.2-0.1,1.8,0.7
			c0.7-0.2,1.2-0.4,1.6,0.6c1.6-0.8,3.1,0.9,2.9,2.2c-0.2,1.2-0.8,2.7-3,2c-0.2-0.4-0.1,1.4-1.6,2.7c0.7,0.2,1.1,1.2,0.6,1.7
			c0.9,0.6,1.2,2.1,0.2,2.7c-0.2,1.4,3.7,8.6,3.9,7.8l-15.1,0.2C67.9,44.3,68.4,42.4,67.9,40.5z"/>
		<path id="XMLID_373_" class="st10" d="M31.8,110.1c0,0-1,1.3-1,2s0.8,1,0.3,2c-0.6,1-0.8,1.2-0.8,1.2c0.1-0.1,0.1,1.1-0.5,1.5
			c0,0,0.5,0.2,0.5-0.2c0-0.4,0.7-0.6,0.7-0.9c0.7-0.8,2.1-0.5,2.6,0.1c0.6,0.7,0.7,1.8-0.6,2.2c-1.1,0-1-0.1-0.7,1.1
			c0.3,0.6,2.7,0.2,2.7,0.2l1.3-0.1l0.7,3.5l-1.4,1.9l-2.9-0.1c0,0,0.5,2.1-0.7,2.9c-1.2,0.8-1.2,1-2.4,0.6c-1.2-0.5-1.1-1.3-1-1.7
			c0.1-0.4,0.3-0.6-0.1-0.8c-0.5-0.2-1.7,0.7-2.3-0.3c-0.2-0.3-1,0.1-1.6-0.3c-0.7,0.2-1.2,0.1-1.8-0.7c-0.7,0.2-1.2,0.4-1.6-0.6
			c-1.7,0.8-3.1-0.9-3-2.2c0.2-1.2,0.8-2.7,3-2c0.2,0.4,0.1-1.4,1.6-2.7c-0.7-0.2-1.2-1.2-0.6-1.7c-0.9-0.6-1.2-2.1-0.2-2.7
			c0.2-1.4-3.7-8.6-3.9-7.8l15.1-0.2C31.8,106.3,31.3,108.2,31.8,110.1z"/>
		<path id="XMLID_372_" class="st11" d="M67.9,40.5c0,0,1-1.3,1-2c0-0.7-0.8-1-0.3-2c0.6-1,0.8-1.2,0.8-1.2
			c-0.1,0.1-0.1-1.1,0.5-1.5c-0.5-0.2,4.9,0.8,6.8,0c0.7,0.2,1.1,1.2,0.6,1.7c0.9,0.6,1.2,2.1,0.2,2.7c-0.2,1.4,3.7,8.6,3.9,7.8
			l-15.1,0.2C67.9,44.3,68.4,42.4,67.9,40.5z"/>
		<path id="XMLID_371_" class="st10" d="M31.8,110.1c0,0-1,1.3-1,2s0.8,1,0.3,2c-0.6,1-0.8,1.2-0.8,1.2c0.1-0.1,0.1,1.1-0.5,1.5
			c0.5,0.2-4.9-0.8-6.8,0c-0.7-0.2-1.2-1.2-0.6-1.7c-0.9-0.6-1.2-2.1-0.2-2.7c0.2-1.4-3.7-8.6-3.9-7.8l15.1-0.2
			C31.8,106.3,31.3,108.2,31.8,110.1z"/>
		<path id="XMLID_370_" class="st4" d="M40.7,27L31.8,16l41.2-0.2l-10.5,12C56,25.6,48.7,25.4,40.7,27z"/>
		<path id="XMLID_369_" class="st4" d="M59.1,123.6l9.1,12.3H26.8l10.4-13.1C43.8,125.1,51.1,125.3,59.1,123.6z"/>
		<polygon id="XMLID_368_" class="st7" points="39.9,26.3 38.3,24.3 41.7,23.5 42.7,24.3 43.6,23.2 49.7,22.9 50.5,23.8 51.7,22.9 
			58,23.4 58.9,24.4 60.7,23.7 65.1,24.7 63.1,27.1 62.5,27.3 54.7,26.3 		"/>
		<polygon id="XMLID_367_" class="st7" points="60,124.4 61.6,126.4 58.1,127.2 57.2,126.4 56.2,127.4 50.1,127.8 49.3,126.9 
			48.1,127.8 41.7,127.3 40.9,126.2 39.1,127 34.6,125.9 36.6,123.6 37.3,123.4 45.1,124.4 		"/>
		<path class="st7" d="M46,19.2l2.3,3L44,22.5L46,19.2L46,19.2z M46.1,20.6l-0.7,1.1l1.5-0.1L46.1,20.6z"/>
		<path class="st7" d="M53.8,131.9l-2.3-3l4.4-0.3L53.8,131.9L53.8,131.9z M53.7,130.5l0.7-1.1l-1.5,0.1L53.7,130.5z"/>
		<path class="st7" d="M55.4,19.4l1.9,3.3l-4.3-0.3L55.4,19.4L55.4,19.4z M55.3,20.8l-0.8,1l1.5,0.1L55.3,20.8z"/>
		<path class="st7" d="M44.4,131.7l-1.9-3.3l4.4,0.3L44.4,131.7L44.4,131.7z M44.5,130.2l0.8-1l-1.5-0.1L44.5,130.2z"/>
		<path class="st7" d="M64,20.7l1.2,3.6L61,23.1L64,20.7L64,20.7z M63.6,22l-1,0.8l1.4,0.4L63.6,22z"/>
		<path class="st7" d="M35.7,130l-1.2-3.6l4.2,1.1L35.7,130L35.7,130z M36.1,128.6l1-0.8l-1.4-0.4L36.1,128.6z"/>
		<path class="st7" d="M37.8,20l3.1,3.1l-3.3,0.6l-0.9-0.9L37.8,20L37.8,20z M38.1,21.5l-0.5,1.3l1.8-0.4L38.1,21.5z"/>
		<path class="st7" d="M62.1,131.1L59,128l3.3-0.6l0.8,1.2L62.1,131.1L62.1,131.1z M61.8,129.6l0.5-1.3l-1.8,0.3L61.8,129.6z"/>
		
			<ellipse id="XMLID_350_" transform="matrix(-8.727374e-002 -0.9962 0.9962 -8.727374e-002 31.908 65.746)" class="st7" cx="46.1" cy="18.3" rx="0.8" ry="0.9"/>
		
			<ellipse id="XMLID_349_" transform="matrix(8.612625e-002 0.9963 -0.9963 8.612625e-002 181.463 67.8436)" class="st7" cx="53.8" cy="132.8" rx="0.8" ry="0.9"/>
		<path id="XMLID_348_" class="st7" d="M55.6,17.3c-0.5,0-0.9,0.3-0.9,0.8c0,0.5,0.3,0.9,0.8,0.9c0.5,0,0.9-0.3,0.9-0.8
			C56.5,17.8,56.1,17.4,55.6,17.3z"/>
		
			<ellipse id="XMLID_347_" transform="matrix(-7.768931e-002 0.997 -0.997 -7.768931e-002 180.1554 99.1773)" class="st7" cx="44.2" cy="132.9" rx="0.8" ry="0.9"/>
		
			<ellipse id="XMLID_346_" transform="matrix(0.2734 -0.9619 0.9619 0.2734 28.0883 76.167)" class="st7" cx="64.5" cy="19.5" rx="0.8" ry="0.9"/>
		
			<ellipse id="XMLID_345_" transform="matrix(-0.2734 0.9619 -0.9619 -0.2734 171.5286 133.6275)" class="st7" cx="35.3" cy="131.6" rx="0.8" ry="0.9"/>
		<path id="XMLID_344_" class="st7" d="M37.5,17.9c-0.5,0.1-0.8,0.5-0.7,1c0.1,0.4,0.6,0.7,1,0.6c0.5-0.1,0.8-0.5,0.7-1
			C38.4,18.1,37.9,17.8,37.5,17.9z"/>
		
			<ellipse id="XMLID_343_" transform="matrix(0.2077 0.9782 -0.9782 0.2077 178.7491 43.9896)" class="st7" cx="62.2" cy="132.3" rx="0.8" ry="0.9"/>
		<path id="XMLID_342_" class="st1" d="M27,25.2c0.1,0.5,0.2,1.1,0.3,1.6c0.1,0.9,0.8,1.4,1.1,0.1c0.1-0.3,0.2-0.8,0.3-1.3
			c0.8-4.2,6.9-3.3,7.6,0.1c0.7,3.4-0.3,6-3.3,9.8c-3,3.8-4.4,6.3-5.1,8.6c-0.6-3-6.2-9.7-7.7-12.8c-1.5-3.1-1-7.1,1.4-8.1
			C23.9,22.1,26.7,23.2,27,25.2z"/>
		<path id="XMLID_341_" class="st1" d="M72.9,125.5c-0.1-0.5-0.2-1.1-0.3-1.6c-0.1-0.9-0.8-1.4-1.1-0.1c-0.1,0.3-0.2,0.8-0.3,1.3
			c-0.8,4.2-6.9,3.3-7.6-0.1c-0.7-3.4,0.3-6,3.3-9.8c3-3.8,4.4-6.3,5.1-8.6c0.6,3,6.2,9.7,7.7,12.8c1.5,3.1,1,7.1-1.4,8.1
			C76,128.5,73.2,127.4,72.9,125.5z"/>
		<path id="XMLID_340_" class="st1" d="M39.5,25.6c9.4-1.9,13.9-1.8,24.3,0.3l-0.6,1.5C55.7,25.9,48.3,25.9,41,27L39.5,25.6z"/>
		<path id="XMLID_339_" class="st12" d="M60.3,125.1c-9.5,1.9-13.9,1.8-24.4-0.3l0.6-1.5c7.5,1.5,15,1.5,22.3,0.5L60.3,125.1z"/>
		<path id="XMLID_338_" class="st13" d="M40.9,27.3c0,0,0.2,6.4,0.2,9.4c0,3.1,0.3,3.2,0.7,4.2c0.4,1,0,2.4-0.7,3
			c-2.9,2.3-4.5-1.4-4.1-2.6"/>
		<path id="XMLID_337_" class="st13" d="M59,123.4c0,0-0.2-6.4-0.2-9.4c0-3.1-0.3-3.2-0.7-4.2c-0.4-1,0-2.4,0.7-3
			c2.9-2.3,4.5,1.4,4.1,2.6"/>
		<path id="XMLID_336_" class="st13" d="M40.9,30.1l-1.4,3.7c0,0-1.9-0.5-2,0.5c-0.1,1,0.3,2.4,1.7,2.2c1.4-0.2,1.7-1.7,1.7-1.7"/>
		<path id="XMLID_335_" class="st13" d="M58.9,120.6l1.4-3.7c0,0,1.9,0.5,2-0.5c0.1-1-0.3-2.4-1.7-2.2c-1.4,0.2-1.7,1.7-1.7,1.7"/>
		<path id="XMLID_334_" class="st14" d="M37.8,40.7c0,0,2.6-1.1,3.2-3.4"/>
		<path id="XMLID_333_" class="st13" d="M62.1,110c0,0-2.6,1.1-3.2,3.4"/>
		<path id="XMLID_332_" class="st14" d="M39,40.1c0,0-1-2-2.2-0.8c-1.1,1.2,0.1,2.6,1.2,2.6c1.1,0,3.2-1.8,3.2-2.2"/>
		<path id="XMLID_331_" class="st13" d="M60.8,110.6c0,0,1,2,2.2,0.8c1.1-1.2-0.1-2.6-1.2-2.6c-1.1,0-3.2,1.8-3.2,2.2"/>
		<path id="XMLID_330_" class="st14" d="M36.9,41.4c0,0-0.4,2.7,2.9,1.5c0.8-0.8,1-1,1.8-2.6"/>
		<path id="XMLID_329_" class="st13" d="M63,109.2c0,0,0.4-2.7-2.9-1.5c-0.8,0.8-1,1-1.8,2.6"/>
		<path id="XMLID_328_" class="st14" d="M38,44.3c-0.3,0.3,1.5,2.9,3.5,1.2c2-1.7,1.7-2.3,1.6-2.7"/>
		<path id="XMLID_327_" class="st13" d="M61.8,106.3c0.3-0.3-1.5-2.9-3.5-1.2c-2,1.7-1.7,2.3-1.6,2.7"/>
		<path id="XMLID_326_" class="st13" d="M39.4,45.9c0.1,0,0.3,2.3,3.3,0.7c1.2-0.9,1-1.4,1.5-2.7"/>
		<path id="XMLID_325_" class="st13" d="M60.5,104.8c-0.1,0-0.3-2.3-3.3-0.7c-1.2,0.9-1,1.4-1.5,2.7"/>
		<path id="XMLID_324_" class="st13" d="M40.2,47.1c0,0,1.7,2.2,3.3,0.6c1.6-1.7,1.7-3.1,1.7-3.1"/>
		<path id="XMLID_323_" class="st13" d="M59.6,103.6c0,0-1.7-2.2-3.3-0.6c-1.6,1.7-1.7,3.1-1.7,3.1"/>
		<path id="XMLID_322_" class="st13" d="M43.4,48c0,0,2.3-0.2,2.6-1.4c0.3-1.2,0.4-2.2,0.4-2.2"/>
		<path id="XMLID_321_" class="st13" d="M56.4,102.7c0,0-2.3,0.2-2.6,1.4c-0.3,1.2-0.4,2.2-0.4,2.2"/>
		<path id="XMLID_320_" class="st13" d="M48.6,44.5c0,0,1.1,3.7,3.3,4.2"/>
		<path id="XMLID_319_" class="st13" d="M51.3,106.2c0,0-1.1-3.7-3.3-4.2"/>
		<path id="XMLID_318_" class="st14" d="M45.9,46.6c0,0,1.3,0.3,1.8-2.1"/>
		<path id="XMLID_317_" class="st13" d="M53.9,104.1c0,0-1.3-0.3-1.8,2.1"/>
		<path id="XMLID_316_" class="st13" d="M54.3,47.7c0,0-3.8,0.7-4.8-3.2"/>
		<path id="XMLID_315_" class="st13" d="M45.5,103c0,0,3.8-0.7,4.8,3.2"/>
		<path id="XMLID_314_" class="st14" d="M53.6,46.5c0,0-1.1,0.3-3.1-2.4"/>
		<path id="XMLID_313_" class="st13" d="M46.2,104.1c0,0,1.1-0.3,3.1,2.4"/>
		<path id="XMLID_312_" class="st14" d="M53.8,45.7c0,0-1.3-0.2-1.9-1.7"/>
		<path id="XMLID_311_" class="st13" d="M46,105c0,0,1.3,0.2,1.9,1.7"/>
		<path id="XMLID_310_" class="st14" d="M54.4,45c0,0-1.4-0.9-1.8-1.7"/>
		<path id="XMLID_309_" class="st13" d="M45.3,105.6c0,0,1.5,0.9,1.8,1.7"/>
		<line id="XMLID_308_" class="st14" x1="55.5" y1="44.8" x2="54.1" y2="42.8"/>
		<line id="XMLID_307_" class="st13" x1="44.3" y1="105.9" x2="45.7" y2="107.9"/>
		<path id="XMLID_306_" class="st14" d="M57,44.1c0,0-1.8-1.5-2.1-2.3"/>
		<path id="XMLID_305_" class="st13" d="M42.8,106.6c0,0,1.8,1.5,2.1,2.3"/>
		<path id="XMLID_304_" class="st14" d="M57.4,43.4c0,0-0.9-2.1-1.3-2.7"/>
		<path id="XMLID_303_" class="st13" d="M42.4,107.3c0,0,0.9,2.1,1.3,2.7"/>
		<path id="XMLID_302_" class="st14" d="M57.8,42.7c0,0-0.3-2-1.2-3.2"/>
		<path id="XMLID_301_" class="st13" d="M41.9,107.9c0,0,0.3,2,1.2,3.2"/>
		<path id="XMLID_300_" class="st14" d="M58.9,42.5c0,0-0.5-3.2-1.2-4.2"/>
		<path id="XMLID_299_" class="st13" d="M40.8,108.2c0,0,0.5,3.2,1.2,4.2"/>
		<path id="XMLID_298_" class="st14" d="M60,42.8c0,0-0.4-5.3-1.6-6.1"/>
		<path id="XMLID_297_" class="st13" d="M39.8,107.8c0,0,0.4,5.3,1.6,6.1"/>
		<path id="XMLID_296_" class="st13" d="M60.3,43.6c0.8,0.1,1.8-1.2,0.7-3.4c-1-2.3-4.1-10-4.5-13.3"/>
		<path id="XMLID_295_" class="st13" d="M39.5,107.1c-0.8-0.1-1.8,1.2-0.7,3.4c1.1,2.3,4.1,10,4.5,13.3"/>
		<path id="XMLID_294_" class="st13" d="M59.3,27.1c-0.4-0.4-0.1,4.4,1.7,7.6c1.8,3.1,5.4,9.6,0.8,11.4c-1.8,0-1.1,0.3-1.5,0.2"/>
		<path id="XMLID_293_" class="st13" d="M40.4,123.6c0.4,0.4-0.5-5.7-1.7-7.6c-0.6-1.1-5.5-9.6-0.8-11.4c1.8,0,1.1-0.3,1.5-0.2"/>
		<path id="XMLID_292_" class="st13" d="M60.7,27.2c-1.4,5.7,5.9,11.2,4.3,17.3c-0.4,1.6-0.6,2.2-2.7,1.6"/>
		<path id="XMLID_291_" class="st13" d="M39.1,123.5c0,0,0.8-1.6-0.1-3.8c-0.9-2.1-3.8-7.4-4-8.2c-0.3-0.8-0.9-3.8-0.2-5.3
			c0.8-1.5,0.6-2.2,2.7-1.6"/>
		<path class="st10" d="M41,30.2c0,0,1-1.2,3-0.9c2,0.3,2.4,1.4,2.5,2c0.2,0.6-0.1,2.6-0.6,4.1c-0.5,1.5-0.8,2.3-0.1,2.7
			c0.7,0.4,1,0.4,1,0.4s0.2,0.6-0.2,0.4c-0.4-0.2-2.1-0.7-1.9-1.3c0.2-0.6,0.6-2.2,0.6-2.2s-1.3,0.9-1.6,0.7c-0.3-0.2,1.5-1.5,1.6-2
			c0.1-0.4-2,0.9-2.9,0.2c-0.9-0.6-1.3-0.5-1.3-0.5L41,30.2L41,30.2z M41.4,30.7c-0.1,0.2,0,0.5,0,0.5s0.2-0.2,1.3-0.4
			c1.1-0.2,1.8,0,2.4,0.3c0.5,0.3,0.5,0,0.5,0s-0.2-0.3-0.8-0.7c-0.7-0.4-1.5-0.4-2-0.4C42.3,30.1,41.4,30.7,41.4,30.7L41.4,30.7z
			 M41.6,31.7c-0.2,0.1-0.1,0.4-0.1,0.4s1-0.3,1.6-0.4c0.6-0.1,1.6,0.4,2,0.5c0.3,0.1-0.1-0.5-0.1-0.5s0-0.2-1.2-0.4
			C42.6,31,41.6,31.7,41.6,31.7L41.6,31.7z M42.3,32.8c0,0,0,0.3,0.2,0.8c0.2,0.5,1,0.5,1.5,0.4c0.5-0.1,0.5-1.1,0.5-1.1h-0.3
			c0,0,0,0.1-0.1,0.5c-0.1,0.4-0.7,0.4-1,0.2c-0.3-0.1-0.5-0.8-0.5-0.8H42.3L42.3,32.8z M51.2,32.6h0.3c0,0,0.4,0.7,0.7,0.7
			c0.3,0,0.6,0.1,0.7-0.2c0.2-0.4,0.1-0.4,0.1-0.4h0.3c0,0-0.1,1.3-1.2,1.1C51.6,33.6,51.2,33.2,51.2,32.6L51.2,32.6z M44.9,33
			c0,0-0.2,0.5,0.1,0.6c0.3,0,0.3-0.2,0.3-0.2L44.9,33L44.9,33z M53.8,32.7c0.3,0,0.5,0,0.7,0.1l-0.2,0.4c0,0-0.1,0.2-0.4,0.2
			C53.6,33.3,53.8,32.7,53.8,32.7L53.8,32.7z M41.5,32.9c-0.1,0.2,0.1,0.4,0.1,0.5s0.4,0,0.4,0l-0.2-0.6H41.5L41.5,32.9z M50.2,32.7
			h0.3l0.2,0.6c0,0-0.4,0.2-0.4,0C50.3,33,50.1,32.9,50.2,32.7L50.2,32.7z M50.1,30.2c0,0-2.4,0.7-0.8-0.7c1.6-1.4,4.1-0.4,4.3-0.4
			c0.3,0.1,2.8,1.2,2.8,1.2s0.4,0.8-0.2,0.5c-0.7-0.3-2.9-1.4-4.4-1.1C50.4,30,50.1,30.2,50.1,30.2L50.1,30.2z M48.5,31.6
			c-0.1,0.1-0.2,0-0.3,0.3c-0.1,0.3,0.4,0.5,0.7,0.7c0.3,0.2,0.1,0.3,0,0.7c-0.1,0.3,0.3,0.2,0.8,0.5c0.5,0.3,0.9,0.8,1.5,1.5
			c0.6,0.7,1.2,0.3,1.2,0.3s0-0.1-0.5-0.4c-0.5-0.3-0.7-1-0.7-1s1.1,0,2.4-0.2c1.3-0.2,1.4-0.9,1.4-0.9s0.4,0,0.9,0.2
			c0.5,0.2,0.6-0.4,0.6-0.4s-0.4-0.4-1.4-1c-1-0.7-3-0.7-4.1-0.4c-1.1,0.3-1,0.4-1,0.2c0-0.3,0.4-0.5,2-0.8c1.6-0.3,4.1,1.2,4.5,1.5
			c0.4,0.3,0.3-0.3,0.3-0.3s-0.9-0.7-3.1-1.5c-2.2-0.8-3.3,0.2-4.1,0.9C48.8,32.1,48.5,31.6,48.5,31.6L48.5,31.6z M46.8,37.1
			c-0.9-0.1-0.9,0.5-0.7,0.8c0,0.2,1.2,0.5,2.2,0.8c1,0.3,1.7-0.3,1.9-0.8c0.2-0.5-0.4-1.3-0.9-1.5c-0.5-0.2-0.5,0.3-0.3,0.4
			c0.2,0.1,0.6,0.2,0.6,0.9c0,0.7-1,0.4-1.5,0C47.6,37.3,47.4,37.1,46.8,37.1L46.8,37.1z M44,41.2c0,0,0.3-0.9,0.8-1
			c0.5,0,0.5,0.3,1.2-0.2c0.6-0.5,0.9,0.2,1.1,0.2c0.2,0.1,0.4,0.1,0.5-0.1c0.2-0.2,0.7-0.3,1.2-0.1c0.5,0.2,0.8,0.2,1.2,0.2
			c0.5,0.1,0.7,0.5,0.7,0.8s-0.1,0.5-0.6,0.3C49.6,41,49.6,41,49.4,41c-0.2,0.1-1.4,0.6-2.1,0.5c-0.7-0.1-1.3-0.5-2-0.4
			C44.7,41.3,44,41.7,44,41.2L44,41.2z M45.3,41.9c0,0.5,1.1,1,2,1.1c0.9,0.1,1.5-0.8,1.6-0.9c0.1-0.1,0.1-0.6-0.8,0.1
			c-0.8,0.7-1.7,0.1-2.1-0.2C45.5,41.8,45.3,41.9,45.3,41.9z"/>
		<path class="st10" d="M58.9,120.5c0,0-1,1.2-3,0.9c-2-0.3-2.4-1.4-2.5-2c-0.2-0.6,0.1-2.6,0.6-4.1c0.5-1.5,0.8-2.3,0.1-2.7
			c-0.7-0.4-1-0.4-1-0.4s-0.2-0.6,0.2-0.4c0.4,0.2,2.1,0.7,1.9,1.3c-0.2,0.6-0.6,2.2-0.6,2.2s1.3-0.9,1.6-0.7c0.3,0.2-1.5,1.5-1.6,2
			c-0.1,0.4,2-0.9,2.9-0.2c0.9,0.6,1.3,0.5,1.3,0.5L58.9,120.5L58.9,120.5z M58.4,120c0.1-0.2,0-0.5,0-0.5s-0.2,0.2-1.3,0.4
			c-1.1,0.2-1.8,0-2.4-0.3c-0.5-0.3-0.5,0-0.5,0s0.2,0.3,0.8,0.7c0.7,0.4,1.5,0.4,2,0.4C57.5,120.5,58.4,120,58.4,120L58.4,120z
			 M58.2,118.9c0.2-0.1,0.1-0.4,0.1-0.4s-1,0.3-1.6,0.4c-0.6,0.1-1.6-0.4-2-0.5c-0.3-0.1,0.1,0.5,0.1,0.5s0,0.2,1.2,0.4
			C57.2,119.6,58.2,118.9,58.2,118.9L58.2,118.9z M57.5,117.8c0,0,0-0.3-0.2-0.8c-0.2-0.5-1-0.5-1.5-0.4c-0.5,0.1-0.5,1.1-0.5,1.1
			h0.3c0,0,0-0.1,0.1-0.5c0.1-0.4,0.7-0.4,1-0.2c0.3,0.1,0.5,0.8,0.5,0.8H57.5L57.5,117.8z M48.6,118.1h-0.3c0,0-0.4-0.7-0.7-0.7
			c-0.3,0-0.6-0.1-0.7,0.2c-0.2,0.4-0.1,0.4-0.1,0.4h-0.3c0,0,0.1-1.3,1.2-1.1C48.2,117.1,48.6,117.5,48.6,118.1L48.6,118.1z
			 M55,117.7c0,0,0.2-0.5-0.1-0.6c-0.3,0-0.3,0.2-0.3,0.2L55,117.7L55,117.7z M46,118c-0.3,0-0.5,0-0.7-0.1l0.2-0.4
			c0,0,0.1-0.2,0.4-0.2C46.2,117.4,46,118,46,118L46,118z M58.4,117.8c0.1-0.2-0.1-0.4-0.1-0.5c0-0.2-0.4,0-0.4,0l0.2,0.6H58.4
			L58.4,117.8z M49.6,118h-0.3l-0.2-0.6c0,0,0.4-0.2,0.4,0S49.7,117.7,49.6,118L49.6,118z M49.7,120.5c0,0,2.4-0.7,0.8,0.7
			c-1.6,1.4-4.1,0.4-4.4,0.4c-0.3-0.1-2.8-1.2-2.8-1.2s-0.4-0.8,0.2-0.5c0.7,0.3,2.9,1.4,4.4,1.1C49.5,120.6,49.7,120.5,49.7,120.5
			L49.7,120.5z M51.3,119c0.1-0.1,0.2,0,0.3-0.3c0.1-0.3-0.4-0.5-0.7-0.7c-0.3-0.2-0.1-0.3,0-0.7c0.1-0.3-0.3-0.2-0.8-0.5
			c-0.5-0.3-0.9-0.8-1.5-1.5c-0.6-0.7-1.2-0.3-1.2-0.3s0,0.1,0.5,0.4c0.5,0.3,0.7,1,0.7,1s-1.1,0-2.4,0.2c-1.3,0.2-1.4,0.9-1.4,0.9
			s-0.4,0-0.9-0.2c-0.5-0.2-0.6,0.4-0.6,0.4s0.4,0.4,1.4,1c1,0.7,3,0.7,4.1,0.4c1.1-0.3,1-0.4,1-0.1c0,0.3-0.4,0.5-2,0.8
			c-1.6,0.3-4.1-1.2-4.5-1.5c-0.4-0.3-0.3,0.3-0.3,0.3s0.9,0.7,3.1,1.5c2.2,0.8,3.3-0.2,4.2-0.9C51,118.5,51.3,119,51.3,119
			L51.3,119z M53,113.6c0.9,0.1,0.9-0.5,0.7-0.8c0-0.2-1.2-0.5-2.2-0.8c-1-0.3-1.7,0.3-1.9,0.8c-0.2,0.5,0.5,1.3,0.9,1.5
			c0.5,0.2,0.5-0.3,0.3-0.4c-0.2-0.1-0.6-0.2-0.6-0.9c0-0.7,1-0.4,1.5,0C52.2,113.4,52.5,113.6,53,113.6L53,113.6z M55.8,109.5
			c0,0-0.3,0.9-0.8,1c-0.5,0-0.5-0.3-1.2,0.2c-0.6,0.5-0.9-0.2-1.1-0.2c-0.2-0.1-0.4-0.1-0.5,0.1c-0.2,0.2-0.7,0.3-1.2,0.1
			c-0.5-0.2-0.8-0.2-1.2-0.2c-0.5-0.1-0.7-0.5-0.7-0.8c0-0.3,0.1-0.5,0.6-0.3c0.5,0.3,0.5,0.4,0.7,0.3c0.2-0.1,1.4-0.6,2.1-0.5
			c0.7,0.1,1.3,0.5,2,0.4C55.2,109.4,55.9,109,55.8,109.5L55.8,109.5z M54.5,108.8c0-0.5-1.1-1-2-1.1c-0.9-0.1-1.5,0.8-1.6,0.9
			c-0.1,0.1-0.1,0.6,0.8-0.1c0.8-0.7,1.7-0.1,2.2,0.2C54.3,108.9,54.5,108.8,54.5,108.8z"/>
		<path id="XMLID_262_" class="st15" d="M73.4,44.7c3.1-4.3,1.3-5.5,5.3,0l1.6,1.6L74,46.1l-7.2,0.1l1.1-2l0.3-1
			C68.2,43.1,71.4,41,73.4,44.7z"/>
		<path id="XMLID_261_" class="st1" d="M26.4,106c-3.1,4.3-1.3,5.5-5.3,0l-1.6-1.6l6.2,0.2l7.2-0.1l-1.1,2l-0.3,1
			C31.5,107.5,28.3,109.7,26.4,106z"/>
		<path id="XMLID_260_" class="st3" d="M70.7,40c0.7,1.6,1.8,2.9,2.7,4.4c0.8-1.6,2-3.1,2.2-4.4l3,4.7l-3.1-2.3l-2.3,3l-2.5-3
			l-2.7,1.7l0.3-1C68.2,43.4,69.9,41.4,70.7,40z"/>
		<path id="XMLID_259_" class="st3" d="M29,110.7c-0.7-1.6-1.8-2.9-2.7-4.4c-0.8,1.6-2,3.1-2.2,4.4l-3-4.7l3.1,2.3l2.4-3l2.5,3
			l2.7-1.7l-0.3,1C31.5,107.3,29.8,109.3,29,110.7z"/>
		<polyline id="XMLID_258_" class="st16" points="78.9,44.9 75.5,42.5 73.2,45.8 70.6,42.5 67.8,44.1 		"/>
		<polyline id="XMLID_257_" class="st16" points="20.6,105.6 24.2,108.2 26.6,104.9 29.1,108.2 32,106.5 		"/>
		<path id="XMLID_256_" class="st4" d="M66.6,34.8c0,0-0.9-1.2,0.4-1.5c1.3-0.3,1.3-0.6,1.1-1.6c-0.2-1-0.7-4.1-0.5-5.2
			c0.2-1-0.1-3.1,1.1-3.5c1.2-0.4,1.6,0.1,1.8,0.7c0.2,0.6,0.1,1.3-0.8,1.2c-0.8-0.2-0.8-0.3-1.1,0.1c-0.3,0.4,1,0.2,0.9,1.3
			c-0.2,1-0.4,4.8-0.3,5.4c0.2,0.7,0.1,2.1-0.2,2.4C68.7,34.4,67.5,35.2,66.6,34.8z"/>
		<path id="XMLID_255_" class="st4" d="M33.1,115.9c0,0,0.9,1.2-0.4,1.5c-1.3,0.3-1.3,0.6-1.1,1.6c0.2,1,0.7,4.1,0.5,5.2
			c-0.2,1,0.1,3.1-1.2,3.5c-1.2,0.4-1.6-0.1-1.8-0.7c-0.2-0.6-0.1-1.3,0.8-1.2c0.8,0.2,0.8,0.3,1.2-0.1c0.3-0.4-1-0.2-0.9-1.3
			c0.2-1,0.4-4.8,0.3-5.4c-0.2-0.7-0.1-2.1,0.2-2.4C31,116.2,32.2,115.4,33.1,115.9z"/>
		<path id="XMLID_254_" class="st3" d="M69.9,27.8c0,0-0.4,2-0.2,3.3c0.3,1.3,0.2,2,0.9,2.4c0.8,0.4,2.3,1,4.5,0.6
			c2.2-0.5,1.7-1,2-1.5c0.4-0.5,0.5-1.5-0.2-1.5c-0.6-0.1-2.6,0.6-2.6,0.6s-0.4-0.7,0.2-0.7c0.5,0,0.6-0.1,0.6-0.1l-0.5-0.3
			l-1.6,0.1c0,0,0.8,1,0.5,1.4c-0.3,0.3-0.5-0.2-0.6-0.5c-0.1-0.3-1-1.1-1.4-1.7c-0.4-0.6-0.3-2.5-0.3-2.5L69.9,27.8z"/>
		<path id="XMLID_253_" class="st3" d="M29.8,122.9c0,0,0.4-2,0.2-3.3c-0.3-1.3-0.2-2-0.9-2.4c-0.8-0.4-2.4-1-4.6-0.6
			c-2.2,0.5-1.7,1-2,1.5c-0.4,0.5-0.5,1.5,0.2,1.5c0.6,0.1,2.6-0.6,2.6-0.6s0.4,0.7-0.2,0.7c-0.5,0-0.6,0.1-0.6,0.1l0.5,0.3l1.6-0.1
			c0,0-0.8-1-0.5-1.4c0.3-0.3,0.5,0.2,0.6,0.5c0.1,0.3,1,1.1,1.4,1.7c0.4,0.6,0.3,2.5,0.3,2.5L29.8,122.9z"/>
		<path id="XMLID_252_" class="st4" d="M70.5,34.2c0,0-0.6,0.5-0.3,0.8c0.9,0.9,5.7,1.2,6.5,0.2c0.3-0.4,0.2-1-0.3-1
			C75.4,34.5,73.8,35,70.5,34.2z"/>
		<path id="XMLID_251_" class="st4" d="M29.2,116.4c0,0,0.6-0.5,0.3-0.8c-0.9-0.9-5.7-1.2-6.5-0.2c-0.3,0.4-0.2,1,0.3,1
			C24.4,116.2,25.9,115.6,29.2,116.4z"/>
		<path id="XMLID_250_" class="st3" d="M70,27.2c0,0-0.1-1.2,0.6-1.5c0.7-0.3,0.7-0.2,0.7,0c0,0.2,0.1,1,0.1,1S70.4,27.3,70,27.2z"
			/>
		<path id="XMLID_249_" class="st3" d="M29.7,123.5c0,0,0.1,1.2-0.6,1.5c-0.7,0.3-0.7,0.2-0.7,0c0-0.2-0.1-1-0.1-1
			S29.3,123.4,29.7,123.5z"/>
		<path id="XMLID_248_" class="st3" d="M72.5,25.5c0,0-0.8,0-0.7,0.8c0.1,0.8,0,1.8,0.7,2c0.7,0.2,0.8,0,0.8-0.4
			S73.2,25.2,72.5,25.5z"/>
		<path id="XMLID_247_" class="st3" d="M27.2,125.2c0,0,0.8,0,0.7-0.8s0-1.8-0.7-2c-0.7-0.2-0.8,0-0.8,0.4
			C26.4,123.4,26.5,125.4,27.2,125.2z"/>
		<path id="XMLID_246_" class="st3" d="M74.3,25.8c0,0-0.5-0.1-0.5,0.3c0,0.4-0.2,1.8,0.3,2.3c0.5,0.5,0.8,0.2,0.8-0.5
			C74.8,27.2,74.6,26,74.3,25.8z"/>
		<path id="XMLID_245_" class="st3" d="M25.5,124.8c0,0,0.5,0.1,0.5-0.3c0-0.4,0.2-1.8-0.3-2.3c-0.5-0.5-0.8-0.2-0.8,0.5
			C24.9,123.5,25.1,124.6,25.5,124.8z"/>
		<path id="XMLID_244_" class="st3" d="M75.7,26.1l-0.6,0c0,0,0.4,0.6,0.4,1.1c0,0.4-0.2,1.5,0.2,1.5c0.4,0,0.8,0,0.8-0.7
			C76.4,27.4,76.4,26.1,75.7,26.1z"/>
		<path id="XMLID_243_" class="st3" d="M24,124.5l0.6,0c0,0-0.4-0.6-0.4-1.1c0-0.4,0.2-1.5-0.2-1.5c-0.4,0-0.8,0-0.8,0.7
			C23.3,123.3,23.3,124.5,24,124.5z"/>
		<path id="XMLID_242_" class="st3" d="M77.5,26.8c0,0-0.7,0-0.6,0.4c0.1,0.4,0.3,1.2,0.3,1.2l0.9,0.2C78,28.6,78.1,27,77.5,26.8z"
			/>
		<path id="XMLID_241_" class="st3" d="M22.2,123.8c0,0,0.7,0,0.6-0.4c-0.1-0.4-0.3-1.2-0.3-1.2l-0.9-0.2
			C21.7,122,21.6,123.7,22.2,123.8z"/>
		<path id="XMLID_240_" class="st4" d="M78.6,28.8c0,0,0.2-0.4,0.1-0.7c-0.1-0.3,0.1-0.8,0.5-0.7c0.4,0.1,0.9,0.2,1.3,0.7
			c0.4,0.5,0.5,1,0.2,1.7c-0.3,0.7-0.6,1.2-1.7,1c-0.9-0.1-0.6-0.3-0.7-0.7c0.1-0.4-0.1,0,0.7,0c0.8,0,1.3-0.4,1.3-1.1
			c0-0.7-0.3-1-0.6-1c-0.4,0-0.5,0.3-0.3,0.6c0.3,0,0.3,0.7-0.2,0.7C78.7,29.3,78.6,29.3,78.6,28.8z"/>
		<path id="XMLID_239_" class="st4" d="M21.1,121.9c0,0-0.2,0.4-0.1,0.7c0.1,0.3-0.1,0.8-0.5,0.7c-0.4-0.1-0.9-0.2-1.3-0.7
			c-0.4-0.5-0.5-1-0.2-1.7c0.3-0.7,0.6-1.2,1.7-1c0.9,0.1,0.6,0.3,0.7,0.7c-0.1,0.4,0.1,0-0.7,0c-0.8,0-1.3,0.4-1.3,1.1
			c0,0.7,0.3,1,0.6,1c0.4,0,0.5-0.3,0.3-0.6c-0.3,0-0.3-0.7,0.2-0.7C21,121.4,21.1,121.4,21.1,121.9z"/>
		<path id="XMLID_238_" class="st3" d="M72.1,29l0.8-0.1c0,0,0.3,0.7,0,0.8C72.7,29.9,72.2,29.4,72.1,29z"/>
		<path id="XMLID_237_" class="st3" d="M27.6,121.6l-0.8,0.1c0,0-0.3-0.7,0-0.8C27.1,120.8,27.5,121.3,27.6,121.6z"/>
		<path id="XMLID_236_" class="st3" d="M73.9,29.9c0,0-0.3-0.5,0-0.6c0.3-0.1,1,0,1,0l-0.4,0.6C74.5,29.9,73.9,30,73.9,29.9z"/>
		<path id="XMLID_235_" class="st3" d="M25.9,120.7c0,0,0.3,0.5,0,0.6c-0.3,0.1-1,0-1,0l0.4-0.6C25.2,120.7,25.8,120.7,25.9,120.7z"
			/>
		<path id="XMLID_234_" class="st3" d="M75.6,30.1c0,0-0.4-0.8,0.3-0.8c0.6,0,0.6,0,0.6,0.3C76.4,30,76.3,30.4,75.6,30.1z"/>
		<path id="XMLID_233_" class="st3" d="M24.1,120.6c0,0,0.4,0.8-0.3,0.8c-0.6,0-0.6,0-0.6-0.3C23.3,120.7,23.4,120.3,24.1,120.6z"/>
		<path id="XMLID_232_" class="st3" d="M77.1,30.1c0,0-0.1-0.7,0.1-0.9c0.2-0.2,0.4,0.2,0.4,0.2s0,0.7-0.3,0.7
			C77.1,30.2,77.1,30.1,77.1,30.1z"/>
		<path id="XMLID_231_" class="st3" d="M22.6,120.6c0,0,0.1,0.7-0.1,0.9c-0.2,0.2-0.4-0.2-0.4-0.2s0-0.7,0.3-0.7
			C22.6,120.5,22.6,120.6,22.6,120.6z"/>
		<path id="XMLID_230_" class="st4" d="M70,36c0,0-0.6,0.3-0.6,0.9c0,0.6,0,1.4,0.6,1.5c0.5,0,0.5-0.9,0.5-1.3S70.4,36.1,70,36z"/>
		<path id="XMLID_229_" class="st4" d="M29.8,114.7c0,0,0.6-0.3,0.6-0.9c0-0.6,0-1.4-0.6-1.5c-0.5,0-0.5,0.9-0.5,1.3
			C29.2,114.1,29.3,114.6,29.8,114.7z"/>
		<path id="XMLID_228_" class="st4" d="M71.1,37.9c0,0-0.4-0.8,0-1.2c0.4-0.3,0.5-0.5,0.8-0.2c0.3,0.3,0.3,0.6,0.4,1
			c0,0.4-0.3,0.4-0.5,0.7C71.5,38.5,71.1,38.5,71.1,37.9z"/>
		<path id="XMLID_227_" class="st4" d="M28.6,112.8c0,0,0.4,0.8,0,1.2c-0.4,0.3-0.5,0.5-0.8,0.2c-0.3-0.3-0.3-0.6-0.4-1
			c0-0.4,0.3-0.4,0.5-0.7C28.2,112.1,28.6,112.2,28.6,112.8z"/>
		<path id="XMLID_226_" class="st4" d="M73,38.1c0,0-0.4-0.5,0-1.1c0.4-0.6,0.5-0.6,0.5-0.6s0.5,0.1,0.6,0.8c0,0.6,0,1-0.2,1.2
			C73.6,38.6,73.1,38.6,73,38.1z"/>
		<path id="XMLID_225_" class="st4" d="M26.7,112.6c0,0,0.4,0.5,0,1.1c-0.4,0.6-0.5,0.6-0.5,0.6s-0.5-0.1-0.6-0.8c0-0.6,0-1,0.2-1.3
			C26.2,112.1,26.6,112.1,26.7,112.6z"/>
		<path id="XMLID_224_" class="st4" d="M75,38.1c0,0-0.7-0.7-0.2-1.4c0.5-0.7,0.9,0.2,1.1,0.1c0.1,0,0.1,1.1-0.2,1.3
			C75.3,38.4,75.1,38.6,75,38.1z"/>
		<path id="XMLID_223_" class="st4" d="M24.7,112.5c0,0,0.7,0.7,0.2,1.4c-0.5,0.7-1-0.2-1.1-0.1s-0.1-1.1,0.2-1.3
			C24.4,112.2,24.6,112,24.7,112.5z"/>
		<path id="XMLID_222_" class="st4" d="M76.6,37.6c0,0-0.4-0.4-0.1-1.2c0.3-0.7,0.7-0.3,0.8,0c0.1,0.3,0.4,0.6,0.3,1.1
			C77.4,38,77.2,38,77.2,38L76.6,37.6z"/>
		<path id="XMLID_221_" class="st4" d="M23.1,113.1c0,0,0.4,0.4,0.1,1.2c-0.3,0.7-0.7,0.3-0.8,0c-0.1-0.3-0.4-0.6-0.3-1.1
			c0.2-0.5,0.4-0.4,0.4-0.4L23.1,113.1z"/>
		<path id="XMLID_220_" class="st4" d="M75.9,39.6c0,0-0.3-0.6,0.3-0.6c0.6,0,0.9-0.2,1,0.3c0.1,0.5,0.8,2.9,1.1,3.3
			c0.2,0.4,0.2,0.8-0.4,0.2C77.2,42.2,76,40.2,75.9,39.6z"/>
		<path id="XMLID_219_" class="st4" d="M23.8,111.1c0,0,0.3,0.6-0.3,0.6c-0.6,0-0.9,0.2-1-0.3c-0.1-0.5-0.8-2.9-1.1-3.3
			c-0.2-0.4-0.2-0.8,0.4-0.2C22.6,108.5,23.7,110.4,23.8,111.1z"/>
		<path id="XMLID_218_" class="st4" d="M68.3,41.3l1.1-2.3h1.1c0,0,0.2,0.5-0.5,1.5c-0.7,1.1-1.3,1.9-1.5,1.7
			C68.2,41.9,68.3,41.3,68.3,41.3z"/>
		<path id="XMLID_217_" class="st4" d="M31.5,109.4l-1.1,2.3h-1.1c0,0-0.2-0.5,0.5-1.5c0.7-1.1,1.3-1.9,1.5-1.7
			C31.5,108.7,31.5,109.4,31.5,109.4z"/>
		<path id="XMLID_216_" class="st4" d="M71.1,39.1h0.8l1.1,2.2c0,0,0.3,0.5,0.8-0.5c0.5-1.1,0.9-1.5,0.9-1.5s0.7-0.5,0.4,0.4
			c-0.2,0.8-1.6,3.8-1.6,3.8S71.2,40.7,71.1,39.1z"/>
		<path id="XMLID_215_" class="st4" d="M28.6,111.6h-0.8l-1.1-2.2c0,0-0.3-0.5-0.8,0.5c-0.5,1.1-0.9,1.5-0.9,1.5s-0.7,0.5-0.4-0.4
			c0.2-0.8,1.6-3.8,1.6-3.8S28.5,110,28.6,111.6z"/>
		<polygon id="XMLID_214_" class="st3" points="65,26.5 65.1,30.9 67.4,31 67.4,30.3 65.8,30.2 65.8,27 67.2,26.9 67.2,26.5 		"/>
		<polygon id="XMLID_213_" class="st3" points="34.7,124.2 34.7,119.8 32.3,119.7 32.3,120.4 34,120.4 33.9,123.7 32.5,123.8 
			32.5,124.2 		"/>
		<polygon id="XMLID_212_" class="st3" points="64.1,26.6 64.5,26.6 64.6,26.9 64.1,26.9 		"/>
		<polygon id="XMLID_211_" class="st3" points="35.6,124.1 35.2,124.1 35.2,123.8 35.6,123.8 		"/>
		<polygon id="XMLID_210_" class="st3" points="63.5,27.8 63.7,27.3 64.5,27.3 64.5,27.8 		"/>
		<polygon id="XMLID_209_" class="st3" points="36.3,122.9 36.1,123.4 35.3,123.4 35.3,122.9 		"/>
		<rect id="XMLID_208_" x="63" y="28.2" class="st3" width="1.4" height="0.7"/>
		<rect id="XMLID_207_" x="35.3" y="121.8" class="st3" width="1.4" height="0.7"/>
		<rect id="XMLID_206_" x="63.2" y="29.3" class="st3" width="1.2" height="0.7"/>
		<rect id="XMLID_205_" x="35.3" y="120.7" class="st3" width="1.2" height="0.7"/>
		<rect id="XMLID_204_" x="63.5" y="30.3" class="st3" width="1" height="0.7"/>
		<rect id="XMLID_203_" x="35.3" y="119.7" class="st3" width="1" height="0.7"/>
		<path id="XMLID_202_" class="st4" d="M44.7,59.7l11.8-11.4c0.6-0.6,0.7-1.7,0.7-2.7l1,1l1.3,0l1.8-0.5L57.1,54l-1.8,3.5L46,65.6
			L44.7,59.7z"/>
		<path id="XMLID_201_" class="st4" d="M55.2,91l-11.8,11.4c-0.6,0.6-0.7,1.7-0.7,2.7l-1-1l-1.3,0l-1.8,0.5l4.1-7.9l1.8-3.5l9.3-8.1
			L55.2,91z"/>
		<path id="XMLID_200_" class="st17" d="M46.2,65.6c0,0.1,0,0.2-0.1,0.2c-0.1,0-0.2,0-0.2-0.1l-1.4-5.9c0-0.1,0-0.1,0.1-0.2
			l11.8-11.4l0,0c0.3-0.3,0.4-0.6,0.5-1.1c0.1-0.5,0.1-1,0.1-1.5c0-0.1,0.1-0.2,0.2-0.2c0.1,0,0.2,0.1,0.2,0.2c0,0.5,0,1.1-0.1,1.6
			c-0.1,0.5-0.3,1-0.6,1.3L44.9,59.8L46.2,65.6z"/>
		<g>
			<path class="st17" d="M53.6,85.1c0-0.1,0-0.2,0.1-0.2c0.1,0,0.2,0,0.2,0.1l1.4,5.9c0,0.1,0,0.1-0.1,0.2l-11.8,11.4l0,0
				c-0.3,0.3-0.4,0.6-0.5,1.1c-0.1,0.5-0.1,1-0.1,1.5c0,0.1-0.1,0.2-0.2,0.2c-0.1,0-0.2-0.1-0.2-0.2c0-0.5,0-1.1,0.1-1.6
				c0.1-0.5,0.3-1,0.6-1.3l0,0L55,90.9L53.6,85.1L53.6,85.1z M55.3,91.1L55.3,91.1C55.2,91.1,55.3,91.1,55.3,91.1z"/>
		</g>
		<path id="XMLID_197_" class="st10" d="M45.2,61.8c0,0,0.8-1,1.2-0.9c0.4,0.2,0.5,1,0.6,1.6c0.1,0.6,0.7,1.1,0.7,1.1l2-2.4L48,59.7
			l1.4-1.4l0.8,0.6l-0.4,1l1.1,0.7l1.8-1.9L50.7,57l1.3-1.4l0.8,0.7L52.8,57l1,1.2l2.2-2.2l-1.9-2.1l1.4-1.5l1.2,1.4l1.3-1.9l-1-1.1
			l2.7-1.6l1.3-3.1l-1.5,0.6L44.8,60.6L45.2,61.8z"/>
		<path id="XMLID_196_" class="st10" d="M54.7,88.8c0,0-0.8,1-1.2,0.9c-0.4-0.2-0.5-1-0.6-1.6c-0.1-0.6-0.7-1.1-0.7-1.1l-2,2.4
			l1.7,1.6l-1.4,1.4l-0.8-0.6l0.4-1L49,90.1L47.2,92l1.9,1.7l-1.3,1.4l-0.9-0.7l0.2-0.7l-1-1.2l-2.3,2.2l1.9,2.1l-1.4,1.5l-1.2-1.4
			l-1.3,1.9l1,1.1l-2.7,1.6l-1.3,3.1l1.5-0.6L55,90.1L54.7,88.8z"/>
		<path id="XMLID_195_" class="st18" d="M31.5,15.9l9.5,11.3c7.9-1.7,14.9-1.2,21.8,0.5l10.2-12"/>
		<path id="XMLID_194_" class="st18" d="M68.7,135.7l-9.8-12.2c-8,1.7-15,1.2-21.9-0.5l-10.2,12.5"/>
		<line id="XMLID_193_" class="st19" x1="64.4" y1="46.1" x2="82.8" y2="46.1"/>
		<line id="XMLID_192_" class="st19" x1="35.4" y1="104.5" x2="16.9" y2="104.5"/>
		<path id="XMLID_191_" class="st1" d="M46.8,71l6-0.1c0.8-3.6,0.9-7.1,2-10.7l-8.4,6.9L46.8,71z"/>
		<path id="XMLID_190_" class="st1" d="M53,78.8l-5.8,0.1c-0.8,3.6-1.1,7.9-2.2,11.6l8.4-6.9L53,78.8z"/>
		<polygon id="XMLID_189_" class="st7" points="46.4,67.4 45.8,65.5 55.7,57.1 54.8,60.2 		"/>
		<polygon id="XMLID_188_" class="st7" points="53.5,83.3 54,85.2 44.1,93.6 45,90.4 		"/>
		<path id="XMLID_187_" class="st3" d="M60.2,85.1c-0.2,0-0.9-0.7,0-0.8c0.9-0.1,2.2,0,2.2,0s0.6-0.6,0-0.6c-0.6,0-1.3-0.1-1.2-0.6
			c0.1-0.5,0.2-0.6,1.3-0.8c1.2-0.2,2.7-0.3,3.4-0.2c0.7,0.2,1.6,1.2,1.7,2.5c0.1,1.9,0.6,4.8-2,5.2c-1.3,0.2-2.5,0.5-3,0.2
			c-0.5-0.3-1.1-0.6-1.1-1.1c-0.1-0.5,0.7,0.1,1.1,0.1c0.3,0,0.9,0.2,0.9,0c0-0.2,0-0.6-0.2-0.6c-0.2,0-2.8,0-3.1-0.1
			c-0.2-0.1-1-0.1-0.9-0.7c0.1-0.6,0.8-0.4,1.4-0.3c0.6,0.1,2.1,0,2.1,0s0.1-0.3-0.3-0.5c-0.4-0.2-3.5-0.2-3.5-0.2s-0.8-0.6-0.2-0.9
			c0.7-0.3,3-0.1,3.2-0.2c0.2-0.1,0.1-0.2,0-0.3C61.8,85,60.2,85.1,60.2,85.1z"/>
		<path id="XMLID_186_" class="st3" d="M39.5,65.6c0.2,0,0.9,0.7,0,0.8c-0.9,0.1-2.2,0-2.2,0s-0.6,0.6,0,0.6c0.6,0,1.4,0.1,1.2,0.6
			c-0.1,0.5-0.2,0.6-1.3,0.8c-1.2,0.2-2.7,0.3-3.4,0.2c-0.7-0.2-1.6-1.2-1.7-2.5c-0.1-1.9-0.6-4.8,2-5.2c1.3-0.2,2.5-0.5,3-0.2
			c0.5,0.3,1.1,0.6,1.2,1.1c0.1,0.5-0.8-0.1-1.1-0.1c-0.3,0-0.9-0.2-0.9,0c0,0.2,0,0.6,0.2,0.6c0.2,0,2.9,0,3.1,0.1
			c0.2,0.1,1,0.1,0.9,0.7c-0.1,0.6-0.8,0.4-1.4,0.3c-0.6-0.1-2.1,0-2.1,0s-0.1,0.3,0.3,0.5c0.4,0.2,3.5,0.2,3.5,0.2s0.8,0.6,0.2,0.9
			c-0.7,0.3-3,0.1-3.2,0.2c-0.2,0.1-0.1,0.2,0,0.3C37.9,65.6,39.5,65.6,39.5,65.6z"/>
		<path id="XMLID_185_" class="st13" d="M51.8,48.8c0,0,4.2,0.9,5-1c0.8-1.9-0.2-2.8-1.5-2.8c-1.3,0-2.3,1.3-1.6,2.3
			c0.7,0.9,2.2,0.9,2-0.8"/>
		<path id="XMLID_184_" class="st13" d="M48,101.9c0,0-4.2-0.9-5,1c-0.9,1.9,0.2,2.8,1.5,2.8c1.3,0,2.3-1.3,1.6-2.3
			c-0.7-0.9-2.2-0.9-2,0.8"/>
		<path id="XMLID_183_" class="st13" d="M58.6,44.5c-0.2,1,2.9,0.8,1.6-1.3c-1.3-1.3-2.4-0.5-2.8,0.1c-0.3,0.6-0.4,2.3,0.7,3.1
			c1.9,0.5,4.1-1,4.2-2.9c0.7-3.1-0.9-5.9-2.8-10.2c-1.5-4-1-6.3-1.3-6.6"/>
		<path id="XMLID_182_" class="st13" d="M41.2,106.1c0.2-1-2.9-0.8-1.6,1.3c1.3,1.3,2.4,0.5,2.8-0.1c0.3-0.6,0.4-2.3-0.7-3.1
			c-2-0.5-4.1,1-4.2,2.9c-0.7,3.1,0.9,5.9,2.8,10.2c1.6,4,1,6.3,1.3,6.6"/>
		<path id="XMLID_181_" class="st20" d="M63.3,46.6c0.1,2.6-0.9,5-4.3,4.3"/>
		<path id="XMLID_180_" class="st20" d="M36.5,104.1c-0.1-2.6,0.9-5,4.3-4.3"/>
		<path id="XMLID_179_" class="st20" d="M69,48.1c-0.6-0.2-1.4-0.4-1-1.6"/>
		<path id="XMLID_178_" class="st20" d="M30.7,102.6c0.6,0.2,1.4,0.4,1,1.6"/>
		<path id="XMLID_177_" class="st20" d="M58.5,52.1c2.2,1.8,1.1,4.3,0.3,5.1c-0.7,0.7-1.6,1.7-3.1,1.4"/>
		<path id="XMLID_176_" class="st20" d="M41.3,98.6c-2.3-1.8-1.1-4.3-0.3-5.1c0.7-0.7,1.6-1.7,3.1-1.4"/>
		<path id="XMLID_175_" class="st20" d="M68.2,48.8c-3-2.4-8.1,2.3-3.8,5.4"/>
		<path id="XMLID_174_" class="st20" d="M31.5,101.8c3.1,2.4,8.2-2.3,3.9-5.4"/>
		<path id="XMLID_173_" class="st20" d="M64.2,54.8c-2.8-2.1-7.2,2.4-3.1,5.3"/>
		<path id="XMLID_172_" class="st20" d="M35.5,95.9c2.8,2.1,7.3-2.4,3.1-5.3"/>
		<path id="XMLID_171_" class="st20" d="M61.1,61c-2.5-1.2-5.8,3.1-1.8,5.6"/>
		<path id="XMLID_170_" class="st20" d="M38.7,89.7c2.5,1.2,5.9-3.1,1.8-5.6"/>
		<path id="XMLID_169_" class="st20" d="M59.2,67.1c-2.4-0.2-4.8,3.7-0.7,5.9"/>
		<path id="XMLID_168_" class="st20" d="M40.6,83.6c2.5,0.2,4.8-3.7,0.7-5.9"/>
		<path id="XMLID_167_" class="st20" d="M58.5,73.1c-2.3-0.3-4.3,5.3,0.2,5.5"/>
		<path id="XMLID_166_" class="st20" d="M41.3,77.5c2.3,0.3,4.4-5.3-0.2-5.5"/>
		<path id="XMLID_165_" class="st20" d="M63.3,92.2c-2.8,0.5-1.6,7.4,3.4,5.5"/>
		<path id="XMLID_164_" class="st20" d="M36.5,58.5c2.8-0.5,1.7-7.4-3.4-5.5"/>
		<path id="XMLID_163_" class="st20" d="M67.3,98.1c-2,1-1.4,7.1,2.7,6.3"/>
		<path id="XMLID_162_" class="st20" d="M32.4,52.5c2-1,1.3-7.3-2.9-6.5"/>
		<path id="XMLID_161_" class="st20" d="M55.6,58.9c2.1,1.7,1.4,4.1,1,4.9c-0.4,0.9-1.2,1.8-2.8,1.8"/>
		<path id="XMLID_160_" class="st20" d="M44.2,91.7c-2.2-1.7-1.4-4.1-1-4.9c0.4-0.9,1.2-1.8,2.8-1.8"/>
		<path id="XMLID_159_" class="st20" d="M53.8,66.2c2.6,1,2.8,5.9-0.5,6.7"/>
		<path id="XMLID_158_" class="st20" d="M46,84.5c-2.6-1-2.8-5.9,0.5-6.7"/>
		<path id="XMLID_157_" class="st20" d="M53.2,73.5c2.9,0.9,3.3,4.6,0.3,6"/>
		<path id="XMLID_156_" class="st20" d="M46.5,77.2c-2.9-0.9-3.3-4.6-0.3-6"/>
		<path id="XMLID_155_" class="st20" d="M53.7,80c3.6,0.7,5,5.1,1.3,7.3"/>
		<path id="XMLID_154_" class="st20" d="M46.1,70.7c-3.6-0.7-5-5.1-1.3-7.3"/>
		<path id="XMLID_153_" class="st20" d="M55.5,87.9c3.5,0.6,5.7,4.1,2,6.7"/>
		<path id="XMLID_152_" class="st20" d="M44.3,62.7c-3.5-0.6-5.7-4.1-2.1-6.7"/>
		<path id="XMLID_151_" class="st20" d="M57.8,94.5c3.5,0.6,6.8,4.9,3.1,7.5"/>
		<path id="XMLID_150_" class="st20" d="M41.9,56.1c-3.6-0.6-6.8-4.9-3.1-7.5"/>
		<path id="XMLID_149_" class="st20" d="M61,102c2.6-1.3,5.9,0.9,4.7,3.8"/>
		<path id="XMLID_148_" class="st20" d="M38.8,48.7c-2.7,1.3-5.9-0.9-4.8-3.8"/>
		<path id="XMLID_147_" class="st3" d="M57.3,82.9c0,0,0.9-2.4,1.4-2.7c0.6-0.3,0.8,1.2,0.8,1.2l0.1,1.4c0,0-1.3,0.7-1.7,0.6
			C57.5,83.3,57.4,83.4,57.3,82.9z"/>
		<path id="XMLID_146_" class="st3" d="M42.5,67.7c0,0-0.9,2.4-1.4,2.7c-0.6,0.3-0.8-1.2-0.8-1.2l-0.1-1.4c0,0,1.3-0.7,1.7-0.6
			C42.3,67.4,42.4,67.3,42.5,67.7z"/>
		<path id="XMLID_145_" class="st3" d="M58.1,84.8c0,0-0.2-0.6,0.3-0.7c0.5-0.1,0.6-0.2,0.8,0.1c0.2,0.3,0.4,0.5,0,0.7
			C58.8,85.1,58.1,85.3,58.1,84.8z"/>
		<path id="XMLID_144_" class="st3" d="M41.7,65.9c0,0,0.2,0.6-0.3,0.7c-0.5,0.1-0.6,0.2-0.8-0.1c-0.2-0.3-0.4-0.5,0-0.7
			C41,65.6,41.7,65.4,41.7,65.9z"/>
		<path id="XMLID_143_" class="st3" d="M57.4,86.6c0,0-0.3-0.8,0.2-0.8c0.5,0.1,0.5,0.2,0.5,0.6C58.2,86.9,57.8,86.9,57.4,86.6z"/>
		<path id="XMLID_142_" class="st3" d="M42.4,64.1c0,0,0.3,0.8-0.2,0.8c-0.5-0.1-0.5-0.2-0.5-0.6C41.5,63.8,42,63.8,42.4,64.1z"/>
		<path id="XMLID_141_" class="st3" d="M57.8,87.9c0,0-0.3-0.4,0.5-0.6c0.7-0.1,0.7,0.3,0.6,0.8C58.9,88.3,57.8,88.4,57.8,87.9z"/>
		<path id="XMLID_140_" class="st3" d="M42,62.8c0,0,0.3,0.4-0.5,0.6c-0.8,0.1-0.7-0.3-0.6-0.8C40.9,62.3,42,62.2,42,62.8z"/>
		<path id="XMLID_139_" class="st3" d="M59.7,89.5c0,0,0-0.5,0.6-0.5c0.6,0,0.6,0.4,0.6,0.4s0.2,0.5-0.3,0.6
			C60,90.1,59.8,89.6,59.7,89.5z"/>
		<path id="XMLID_138_" class="st3" d="M40.1,61.2c0,0,0,0.5-0.6,0.5c-0.6,0-0.6-0.4-0.6-0.4s-0.2-0.5,0.3-0.6
			C39.8,60.6,40,61,40.1,61.2z"/>
		<path id="XMLID_137_" class="st3" d="M56.5,86.8l0.8,0.6c0,0,0.1,0.3-0.4,0.5c-0.5,0.1-1.1-0.1-1-0.3
			C55.9,87.2,56.5,86.8,56.5,86.8z"/>
		<path id="XMLID_136_" class="st3" d="M43.3,63.9l-0.8-0.6c0,0-0.1-0.3,0.4-0.5c0.5-0.1,1.1,0.1,1,0.3
			C43.9,63.5,43.3,63.9,43.3,63.9z"/>
		<path id="XMLID_135_" class="st21" d="M67.5,82.6l1.8-0.1c0,0,1,1,0.8,3.6c-0.2,2.5,0.1,2.2-0.5,2.5c-0.7,0.2-1.5,0.1-1.5,0.1
			S68.6,84.6,67.5,82.6z"/>
		<path id="XMLID_134_" class="st22" d="M32.3,68l-1.8,0.1c0,0-1-1-0.8-3.6c0.2-2.5-0.1-2.2,0.5-2.5c0.7-0.2,1.5-0.1,1.5-0.1
			S31.2,66,32.3,68z"/>
		<path id="XMLID_133_" class="st22" d="M69.5,82.6l4.2-3.2l9,0.1v6.1c-2.9,2.7-5.7,5.4-8.4,6.5c-1-1.2-2.3-2.4-4.2-3.6
			C70.2,86,70.5,84,69.5,82.6z"/>
		<path id="XMLID_132_" class="st22" d="M30.3,68L26,71.3l-9.4-0.1v-5.8c2.9-2.7,6.2-5.6,8.8-6.8c1,1.2,2.3,2.4,4.2,3.6
			C29.6,64.6,29.3,66.6,30.3,68z"/>
		<path id="XMLID_131_" class="st23" d="M70.1,84c0,0,1.6,0.6,2.6-1.5c0.9-2.1,1.1-3.1,1.1-3.1"/>
		<path id="XMLID_130_" class="st23" d="M29.6,66.6c0,0-1.7-0.6-2.6,1.5c-0.9,2.1-1.1,3.1-1.1,3.1"/>
		<path id="XMLID_129_" class="st23" d="M71.4,84c0,0,2.5,0.3,2.7,1.3c0.4,1.6-3,2.4-4,2.1"/>
		<path id="XMLID_128_" class="st23" d="M28.4,66.6c0,0-2.5-0.3-2.7-1.3c-0.4-1.6,3-2.4,4-2.1"/>
		<path id="XMLID_127_" class="st23" d="M70.2,85.1c0,0,2-0.2,2,0.4c0,0.6-1.3,0.7-1.7,0.9"/>
		<path id="XMLID_126_" class="st23" d="M29.5,65.6c0,0-2,0.2-2-0.4c0-0.6,1.3-0.7,1.7-0.9"/>
		<path id="XMLID_125_" class="st23" d="M74.5,79.5c0,0-0.7,4-0.3,4.4c0.4,0.3,2.3,0.7,2.5,1.2c0.2,0.5-2,2.6-2.2,2.8
			c-0.2,0.2-0.7,3.4-0.2,3.9"/>
		<path id="XMLID_124_" class="st23" d="M25.2,71.2c0,0,0.7-4,0.3-4.4c-0.4-0.3-2.3-0.7-2.5-1.2c-0.2-0.5,2-2.6,2.2-2.8
			c0.2-0.2,0.7-3.4,0.2-3.9"/>
		<line id="XMLID_123_" class="st23" x1="71.8" y1="87.2" x2="74.1" y2="91.3"/>
		<line id="XMLID_122_" class="st23" x1="27.9" y1="63.4" x2="25.6" y2="59.4"/>
		<path id="XMLID_121_" class="st23" d="M74.2,88.9c0,0,5.9-2.3,8.5-4.5"/>
		<path id="XMLID_120_" class="st23" d="M25.5,61.8c0,0-5.9,2.3-8.5,4.5"/>
		<path id="XMLID_119_" class="st23" d="M74.2,90.1c0,0,4.2-1,5.2-1.5"/>
		<path id="XMLID_118_" class="st23" d="M25.5,60.6c0,0-4.2,1-5.2,1.5"/>
		<path id="XMLID_117_" class="st23" d="M76.4,85.8c0,0,5.7-2.1,6.3-3.7"/>
		<path id="XMLID_116_" class="st23" d="M23.3,64.9c0,0-5.7,2.1-6.4,3.7"/>
		<path id="XMLID_115_" class="st23" d="M76.2,84.9c0,0,5.9-3.6,6.3-4.5"/>
		<path id="XMLID_114_" class="st23" d="M23.5,65.8c0,0-5.9,3.6-6.3,4.5"/>
		<path id="XMLID_113_" class="st23" d="M74.3,83.5c0,0,4.6-1.8,7.1-4"/>
		<path id="XMLID_112_" class="st23" d="M25.5,67.1c0,0-4.6,1.8-7.1,4"/>
		<path id="XMLID_111_" class="st23" d="M74.3,82.2c0,0,3.5-1.5,4.4-2.7"/>
		<path id="XMLID_110_" class="st23" d="M25.4,68.5c0,0-3.5,1.5-4.5,2.7"/>
		<path id="XMLID_109_" class="st23" d="M74.2,80.6c0,0,1.5-0.2,2.1-0.9"/>
		<path id="XMLID_108_" class="st23" d="M25.5,70.1c0,0-1.5,0.2-2.1,0.9"/>
		<g>
			<path class="st3" d="M61,78.8c-0.4,0.5-1.2,0.5-1.2,0.5l-0.2-2L61,78.8L61,78.8L61,78.8z M63.4,77.6c-0.4,0.6-1.5,0.8-1.5,0.8
				l-0.3-2.5L63.4,77.6L63.4,77.6z M65.3,76.2l-2.2-1.7l0.8,2.8C64.4,77.2,64.7,77,65.3,76.2L65.3,76.2z M67.2,74.4
				c-0.5,0.8-0.8,1.1-1.3,1.2l-1.1-2.5L67.2,74.4L67.2,74.4z M68.5,72.6l-2.4-1.1l1.6,2.1C68.3,73.4,68.1,73.4,68.5,72.6L68.5,72.6z
				 M69.7,70.4c-0.1,0.5-0.3,0.8-0.7,1.2l-1.9-1.8L69.7,70.4L69.7,70.4z M70.7,67.9c-0.1,0.5-0.3,1.3-0.7,1.7l-2.1-1.7L70.7,67.9
				L70.7,67.9z M71.1,65.2c0,0.5,0,1.3-0.3,1.8l-2.4-1.1L71.1,65.2L71.1,65.2z M71.3,62.6c0.1,0.5,0.2,1.3,0,1.8l-2.5-0.6L71.3,62.6
				L71.3,62.6z M70.9,60.1c0.1,0.5,0.3,1.3,0.1,1.8l-2.5-0.4L70.9,60.1L70.9,60.1z M70.3,57.7c0.1,0.4,0.4,1.1,0.2,1.6l-2.3-0.2
				L70.3,57.7L70.3,57.7z M69.2,55.5c0.2,0.4,0.7,1.2,0.7,1.7l-2.6,0.2L69.2,55.5L69.2,55.5z M68,53.3l-1.5,2.2l2.5-0.7
				C68.9,54.4,68.3,53.7,68,53.3L68,53.3z M66.6,51.6c0.3,0.3,0.8,0.7,0.8,1.2l-2.3,0.9L66.6,51.6z"/>
		</g>
		<g>
			<path class="st3" d="M38.7,71.8c0.4-0.5,1.2-0.5,1.2-0.5l0.2,2L38.7,71.8L38.7,71.8L38.7,71.8z M36.4,73.1
				c0.4-0.6,1.5-0.8,1.5-0.8l0.3,2.5L36.4,73.1L36.4,73.1z M34.5,74.5l2.2,1.7l-0.8-2.8C35.4,73.5,35.1,73.7,34.5,74.5L34.5,74.5z
				 M32.5,76.2c0.5-0.8,0.8-1.1,1.3-1.2l1.1,2.5L32.5,76.2L32.5,76.2z M31.3,78l2.4,1.1L32.1,77C31.5,77.2,31.6,77.3,31.3,78
				L31.3,78z M30,80.2c0.1-0.5,0.3-0.8,0.7-1.2l1.9,1.8L30,80.2L30,80.2z M29,82.8c0.1-0.5,0.3-1.3,0.7-1.7l2.1,1.7L29,82.8L29,82.8
				z M28.6,85.5c0-0.5,0-1.3,0.3-1.8l2.4,1.1L28.6,85.5L28.6,85.5z M28.5,88c-0.1-0.5-0.2-1.3,0-1.8l2.5,0.6L28.5,88L28.5,88z
				 M28.8,90.6c-0.1-0.5-0.3-1.3-0.1-1.8l2.6,0.4L28.8,90.6L28.8,90.6z M29.5,92.9c-0.1-0.4-0.4-1.1-0.2-1.6l2.3,0.2L29.5,92.9
				L29.5,92.9z M30.5,95.1c-0.2-0.4-0.7-1.2-0.7-1.7l2.6-0.2L30.5,95.1L30.5,95.1z M31.8,97.3l1.5-2.2l-2.5,0.7
				C30.9,96.3,31.5,97,31.8,97.3L31.8,97.3z M33.2,99.1c-0.3-0.3-0.8-0.7-0.8-1.2l2.3-0.9L33.2,99.1z"/>
		</g>
		<path id="XMLID_79_" class="st24" d="M63,90.8c2.5,4.9,6,9.2,9.9,12.9l-9.6,3.3c-9.9-17.3-16.4-37.6-2-60.8l10.1-0.1
			C59,59.2,56.9,72.2,60,83.4"/>
		<path id="XMLID_78_" class="st24" d="M36.9,60.2c-2.5-5-6.1-9.5-10.1-13.2l9.9-3.4c10,17.3,16.2,37.8,1.8,61l-10.1,0.1
			c12.3-13.1,14.5-26.1,11.3-37.3"/>
		<polygon id="XMLID_77_" class="st10" points="71.3,45.9 82.8,45.9 82.8,79.7 76.8,79.7 76.8,60.6 71.6,55.6 68.1,49.6 		"/>
		<polygon id="XMLID_76_" class="st10" points="28.4,104.8 16.8,104.8 16.8,71 22.9,71 22.9,90.1 28.1,95.1 31.6,101.1 		"/>
		<polygon id="XMLID_75_" class="st7" points="68.4,49.7 71.4,46.2 82.4,46.2 82.4,51.5 69.8,51.5 		"/>
		<polygon id="XMLID_74_" class="st7" points="31.3,101 28.3,104.4 17.2,104.4 17.2,99.2 30,99.2 		"/>
		<path id="XMLID_73_" class="st25" d="M71.9,54.5l0.7,1.3c0,0,2.5,0.4,4.6-0.3c2.1-0.8,1.9-0.5,1.9-0.5s0.8,0.9,2,1.1
			c1.2,0.2,1.2,0.2,1.2,0.2l0-1.2c0,0-2.4-0.5-2.6-1c-0.3-0.5-0.7-0.2-1.1,0C78.2,54.1,77,55.2,71.9,54.5z"/>
		<path id="XMLID_72_" class="st25" d="M27.9,96.1l-0.7-1.3c0,0-2.5-0.4-4.6,0.4c-2.1,0.8-1.9,0.5-1.9,0.5s-0.8-0.9-2-1.1
			c-1.2-0.2-1.2-0.2-1.2-0.2l0,1.2c0,0,2.4,0.5,2.6,1c0.3,0.5,0.7,0.2,1.1,0C21.5,96.5,22.7,95.4,27.9,96.1z"/>
		<polygon id="XMLID_71_" class="st25" points="74,56.8 75.7,56.4 82.4,63.3 82.4,64.7 		"/>
		<polygon id="XMLID_70_" class="st25" points="25.7,93.9 24,94.3 17.3,87.4 17.3,86 		"/>
		<polygon id="XMLID_69_" class="st3" points="77.4,60.8 77.4,78.9 78.4,78.9 78.4,61.7 		"/>
		<polygon id="XMLID_68_" class="st3" points="22.3,89.9 22.3,71.7 21.3,71.7 21.3,89 		"/>
		<polygon id="XMLID_67_" class="st3" points="79.1,62.6 79.1,63.7 80.3,63.7 		"/>
		<polygon id="XMLID_66_" class="st3" points="20.6,88.1 20.6,87 19.4,87 		"/>
		<polygon id="XMLID_65_" class="st3" points="79.1,64.6 79.1,65.4 82.3,65.4 81.5,64.6 		"/>
		<polygon id="XMLID_64_" class="st3" points="20.6,86 20.6,85.3 17.4,85.3 18.2,86 		"/>
		<rect id="XMLID_63_" x="79" y="66.5" class="st3" width="3.4" height="1.2"/>
		<rect id="XMLID_62_" x="17.3" y="83" class="st3" width="3.4" height="1.2"/>
		<rect id="XMLID_61_" x="79" y="68.6" class="st3" width="3.4" height="1.2"/>
		<rect id="XMLID_60_" x="17.3" y="80.9" class="st3" width="3.4" height="1.2"/>
		<rect id="XMLID_59_" x="79" y="70.8" class="st3" width="3.4" height="1"/>
		<rect id="XMLID_58_" x="17.3" y="78.9" class="st3" width="3.4" height="1"/>
		<rect id="XMLID_57_" x="79" y="72.7" class="st3" width="3.4" height="0.8"/>
		<rect id="XMLID_56_" x="17.3" y="77.1" class="st3" width="3.4" height="0.8"/>
		<rect id="XMLID_55_" x="79" y="74.6" class="st3" width="3.4" height="0.8"/>
		<rect id="XMLID_54_" x="17.3" y="75.3" class="st3" width="3.4" height="0.8"/>
		<rect id="XMLID_53_" x="79" y="76.4" class="st3" width="3.4" height="0.8"/>
		<rect id="XMLID_52_" x="17.3" y="73.5" class="st3" width="3.4" height="0.8"/>
		<rect id="XMLID_51_" x="79" y="78.1" class="st3" width="3.4" height="0.8"/>
		<rect id="XMLID_50_" x="17.3" y="71.8" class="st3" width="3.4" height="0.8"/>
		<path id="XMLID_49_" class="st24" d="M72.5,103.9c0,0,9-4.8,10-6.8"/>
		<path id="XMLID_48_" class="st24" d="M27.2,46.8c0,0-9.5,5.1-10.5,7.2"/>
		<polygon id="XMLID_47_" class="st3" points="69.4,97.5 69.8,97 70.4,98.1 70,98.3 		"/>
		<polygon id="XMLID_46_" class="st3" points="30.4,53.2 29.9,53.6 29.3,52.6 29.8,52.4 		"/>
		<polygon id="XMLID_45_" class="st3" points="72,96 72.5,95.7 73.1,96.6 72.7,96.9 		"/>
		<polygon id="XMLID_44_" class="st3" points="27.7,54.6 27.2,55 26.7,54 27,53.7 		"/>
		<polygon id="XMLID_43_" class="st3" points="74.6,94.3 75,94 75.7,95 75.2,95.4 		"/>
		<polygon id="XMLID_42_" class="st3" points="25.1,56.3 24.7,56.7 24,55.7 24.5,55.3 		"/>
		<polygon id="XMLID_41_" class="st3" points="76.9,92.7 77.6,92.4 78.2,93.3 77.7,93.6 		"/>
		<polygon id="XMLID_40_" class="st3" points="22.8,58 22.1,58.3 21.5,57.4 22,57.1 		"/>
		<polygon id="XMLID_39_" class="st3" points="79.7,90.3 80.2,89.9 80.9,90.9 80.5,91.2 		"/>
		<polygon id="XMLID_38_" class="st3" points="20,60.3 19.5,60.7 18.8,59.8 19.2,59.5 		"/>
		<polygon id="XMLID_37_" class="st3" points="80.6,94.3 81.1,93.7 81.7,94.5 81.1,95.1 		"/>
		<polygon id="XMLID_36_" class="st3" points="19,56.4 18.6,57 18,56.1 18.6,55.6 		"/>
		<polygon id="XMLID_35_" class="st3" points="78,96.4 78.6,96 79.2,97 78.4,97.2 		"/>
		<polygon id="XMLID_34_" class="st3" points="21.7,54.3 21.1,54.7 20.5,53.7 21.3,53.5 		"/>
		<path id="XMLID_33_" class="st3" d="M75.6,98.2l0.6-0.5l0.5,0.8L76.1,99C76.1,99,75.5,98.2,75.6,98.2z"/>
		<path id="XMLID_32_" class="st3" d="M24.2,52.5l-0.6,0.5l-0.5-0.8l0.6-0.4C23.7,51.7,24.2,52.4,24.2,52.5z"/>
		<polygon id="XMLID_31_" class="st3" points="73,99.8 73.6,99.4 74.2,100.3 73.7,100.5 		"/>
		<polygon id="XMLID_30_" class="st3" points="26.7,50.9 26.1,51.3 25.5,50.4 26,50.1 		"/>
		<polygon id="XMLID_29_" class="st3" points="70.6,101.1 71.3,100.8 71.6,101.5 71.2,101.8 		"/>
		<polygon id="XMLID_28_" class="st3" points="29.1,49.6 28.4,49.8 28.1,49.1 28.5,48.9 		"/>
		<path id="XMLID_27_" class="st13" d="M64.5,45.8c2.8,1.9,3-3.7,1.6-6.3c-2.2-4.3-4.2-7.3-4.6-12.2l1.3,0.2c0,0,0.7,5.5,2.6,8.2
			c1.9,2.7,2.9,6,2.7,7.1c-0.2,1.1-0.5,3.4-2.2,3.1"/>
		<path id="XMLID_26_" class="st13" d="M35.3,104.9c0,0-1.5-1-1.8,0.8c-0.4,1.8-0.8,3.4,0.2,5.5c2,4.4,4.2,7.3,4.6,12.2l-1.3-0.2
			c0,0-0.7-5.5-2.6-8.2c-1.9-2.7-2.9-6-2.7-7.1c0.2-1.1,0.5-3.4,2.2-3.1"/>
		<g>
			<circle id="XMLID_25_" class="st4" cx="49.7" cy="77.2" r="0.9"/>
			<path id="XMLID_24_" class="st4" d="M49.7,73.5c0.5,0,0.9-0.4,0.9-0.9c0-0.5-0.4-0.9-0.9-0.9c-0.5,0-0.9,0.4-0.9,0.9
				C48.9,73.1,49.3,73.5,49.7,73.5z"/>
			<polygon id="XMLID_23_" class="st4" points="48,72.5 51.8,76.4 51.8,77.3 48,73.4 			"/>
			<polygon id="XMLID_22_" class="st4" points="51.6,72.5 47.8,76.4 47.8,77.3 51.6,73.4 			"/>
		</g>
		<path class="st17" d="M17,136.9h66V14.8H16.5v122.1H17L17,136.9z M17.5,135.8L17.5,135.8c0-1,0-119.1,0-120.1c1,0,63.4,0,64.4,0
			c0,1,0,119.1,0,120.1C80.9,135.8,18.5,135.8,17.5,135.8z"/>
		<polygon id="XMLID_19_" class="st1" points="15.4,22.2 15.4,24.1 10.7,24.1 10.7,22.2 12.4,22.2 9.6,16.1 8,18.6 8,22.2 9.5,22.2 
			9.5,24.1 4.6,24.1 4.6,22.2 6,22.2 6,8.5 4.6,8.5 4.6,6.7 9.3,6.7 9.3,8.5 8,8.5 8,14.8 12,8.5 10.7,8.5 10.7,6.7 15.4,6.7 
			15.4,8.5 14.4,8.5 10.9,14 14.6,22.2 		"/>
		<polygon id="XMLID_18_" class="st1" points="84,129.4 84,127.5 88.7,127.5 88.7,129.4 87,129.4 89.8,135.5 91.4,133 91.4,129.4 
			89.9,129.4 89.9,127.5 94.8,127.5 94.8,129.4 93.4,129.4 93.4,143.1 94.8,143.1 94.8,144.9 90.1,144.9 90.1,143.1 91.4,143.1 
			91.4,136.8 87.4,143.1 88.7,143.1 88.7,144.9 84,144.9 84,143.1 85,143.1 88.5,137.6 84.8,129.4 		"/>
		<path id="XMLID_17_" class="st1" d="M9.5,29.4c0,0.3,0.1,0.6,0.1,0.9c0,0.5,0.4,0.8,0.6,0c0-0.2,0.1-0.4,0.2-0.7
			c0.4-2.2,3.7-1.8,4.1,0c0.4,1.8-0.2,3.2-1.8,5.3c-1.6,2-2.4,3.4-2.8,4.6c-0.3-1.6-3.3-5.2-4.1-6.9c-0.8-1.7-0.5-3.8,0.8-4.4
			C7.9,27.8,9.4,28.4,9.5,29.4z"/>
		<path id="XMLID_16_" class="st1" d="M89.9,122.1c0-0.3-0.1-0.6-0.2-0.9c0-0.5-0.4-0.8-0.6,0c0,0.2-0.1,0.4-0.2,0.7
			c-0.4,2.2-3.7,1.8-4.1,0c-0.4-1.8,0.2-3.2,1.8-5.3c1.6-2,2.4-3.4,2.8-4.6c0.3,1.6,3.3,5.2,4.1,6.9c0.8,1.7,0.5,3.8-0.8,4.4
			C91.5,123.7,90,123.1,89.9,122.1z"/>
	</g>
</g>
</svg>
