<?xml version="1.0" encoding="utf-8"?>
<!-- Generator: Adobe Illustrator 19.0.0, SVG Export Plug-In . SVG Version: 6.00 Build 0)  -->
<svg version="1.1" xmlns="http://www.w3.org/2000/svg" xmlns:xlink="http://www.w3.org/1999/xlink" x="0px" y="0px"
	 viewBox="0 0 99.4 151.6" style="enable-background:new 0 0 99.4 151.6;" xml:space="preserve">
<style type="text/css">
	.st0{fill:#FFFFFF;stroke:#000000;stroke-width:0.25;stroke-miterlimit:2.6131;}
	.st1{fill-rule:evenodd;clip-rule:evenodd;fill:#E52529;}
	.st2{fill:#E52529;}
	.st3{fill-rule:evenodd;clip-rule:evenodd;fill:#3B160E;stroke:#231F20;stroke-width:0.5669;stroke-miterlimit:2.6131;}
	.st4{fill-rule:evenodd;clip-rule:evenodd;fill:#6FC8E5;stroke:#0D4F9E;stroke-width:0.9921;stroke-miterlimit:2.6131;}
	.st5{fill-rule:evenodd;clip-rule:evenodd;fill:#3B160E;}
	.st6{fill-rule:evenodd;clip-rule:evenodd;fill:none;stroke:#0D4F9E;stroke-width:1.1339;stroke-miterlimit:2.6131;}
	.st7{fill-rule:evenodd;clip-rule:evenodd;fill:none;stroke:#0D4F9E;stroke-width:0.9921;stroke-miterlimit:2.6131;}
	.st8{fill-rule:evenodd;clip-rule:evenodd;fill:#BF1818;}
	.st9{fill-rule:evenodd;clip-rule:evenodd;fill:none;stroke:#0D4F9E;stroke-width:0.5669;stroke-miterlimit:2.6131;}
	.st10{fill-rule:evenodd;clip-rule:evenodd;fill:#6FC8E5;}
	.st11{fill-rule:evenodd;clip-rule:evenodd;fill:none;stroke:#0D4F9E;stroke-width:0.4819;stroke-miterlimit:2.6131;}
	.st12{fill-rule:evenodd;clip-rule:evenodd;fill:#E52529;stroke:#0D4F9E;stroke-width:0.5669;stroke-miterlimit:2.6131;}
	.st13{fill-rule:evenodd;clip-rule:evenodd;fill:none;stroke:#0D4F9E;stroke-width:0.8504;stroke-miterlimit:2.6131;}
	.st14{fill-rule:evenodd;clip-rule:evenodd;fill:none;stroke:#0D4F9E;stroke-width:0.7087;stroke-miterlimit:2.6131;}
	.st15{fill-rule:evenodd;clip-rule:evenodd;fill:#E52529;stroke:#0D4F9E;stroke-width:0.7087;stroke-miterlimit:2.6131;}
	.st16{fill-rule:evenodd;clip-rule:evenodd;fill:#3B160E;stroke:#0D4F9E;stroke-width:0.8504;stroke-miterlimit:2.6131;}
	.st17{fill-rule:evenodd;clip-rule:evenodd;fill:#E52529;stroke:#0D4F9E;stroke-width:0.8504;stroke-miterlimit:2.6131;}
	.st18{fill-rule:evenodd;clip-rule:evenodd;fill:#FFFFFF;}
	.st19{fill:#BF1818;}
</style>
<g id="Calque_2">
	<path id="XMLID_15_" class="st0" d="M99.3,5.3v140.9c0,2.9-2.3,5.2-5.2,5.2H5.3c-2.9,0-5.2-2.3-5.2-5.2V5.3c0-2.9,2.3-5.2,5.2-5.2
		h88.7C96.9,0.1,99.3,2.5,99.3,5.3z"/>
</g>
<g id="Calque_1">
	<g>
		<g>
			<g>
				<g>
					<path class="st1" d="M552.8,134.6c-3.2-4.4-4.1-8-4.1-8s-0.9,3.7-4.1,8c-3.2,4.4-6.2,5.6-6.2,5.6s3,1.2,6.2,5.6
						c3.2,4.4,4.1,8,4.1,8s0.9-3.7,4.1-8c3.2-4.4,6.2-5.6,6.2-5.6S556.1,138.9,552.8,134.6z"/>
					<path class="st1" d="M510.8,134.6c-3.2-4.4-4.1-8-4.1-8s-0.9,3.7-4.1,8c-3.2,4.4-6.2,5.6-6.2,5.6s3,1.2,6.2,5.6
						c3.2,4.4,4.1,8,4.1,8s0.9-3.7,4.1-8c3.2-4.4,6.2-5.6,6.2-5.6S514,138.9,510.8,134.6z"/>
				</g>
				<g>
					<path class="st1" d="M531.8,177.1c-3.2-4.4-4.1-8-4.1-8s-0.9,3.7-4.1,8c-3.2,4.4-6.2,5.6-6.2,5.6s3,1.2,6.2,5.6
						c3.2,4.4,4.1,8,4.1,8s0.9-3.7,4.1-8c3.2-4.4,6.2-5.6,6.2-5.6S535,181.5,531.8,177.1z"/>
				</g>
				<g>
					<path class="st1" d="M552.8,219.7c-3.2-4.4-4.1-8-4.1-8s-0.9,3.7-4.1,8c-3.2,4.4-6.2,5.6-6.2,5.6s3,1.2,6.2,5.6
						c3.2,4.4,4.1,8,4.1,8s0.9-3.7,4.1-8c3.2-4.4,6.2-5.6,6.2-5.6S556.1,224,552.8,219.7z"/>
					<path class="st1" d="M510.8,219.7c-3.2-4.4-4.1-8-4.1-8s-0.9,3.7-4.1,8c-3.2,4.4-6.2,5.6-6.2,5.6s3,1.2,6.2,5.6
						c3.2,4.4,4.1,8,4.1,8s0.9-3.7,4.1-8c3.2-4.4,6.2-5.6,6.2-5.6S514,224,510.8,219.7z"/>
				</g>
			</g>
		</g>
		<g>
			<g>
				<g>
					<g>
						<g>
							<g>
								<path class="st2" d="M486.7,117.5h7.8v1.8h-6l-0.2,3c0,0,2.8-1.6,5.5,0.7c0.5,0.4,2.9,2.9,1.4,7.8c-0.3,1-2,3.6-5.6,3.1
									c-0.2,0-2.9-0.7-3.9-3.7l1.7-0.4c0,0,1.3,2.7,3.1,2.5c0.9-0.1,3.3-0.7,3.2-4.6c0-0.3,0-3.7-2.9-4.2c-1-0.2-2.2,0-3.9,1.7
									l-0.8-0.5L486.7,117.5z"/>
							</g>
						</g>
						<g>
							<g>
								<path class="st2" d="M568.8,247.8h-7.9V246h6l0.2-3c0,0-2.8,1.6-5.5-0.7c-0.5-0.4-2.9-2.9-1.4-7.8c0.3-1,2-3.6,5.6-3.1
									c0.2,0,2.9,0.7,3.9,3.7l-1.7,0.4c0,0-1.3-2.7-3.1-2.5c-0.9,0.1-3.3,0.7-3.2,4.6c0,0.3,0,3.7,2.9,4.2c1,0.2,2.2,0,3.9-1.7
									l0.8,0.5L568.8,247.8z"/>
							</g>
						</g>
					</g>
				</g>
			</g>
		</g>
		<g>
			<g>
				<path class="st2" d="M490.8,137.7c0,0,1.4,4.5,4.7,6.3c0,0-3.2,1.7-4.7,6.2c-1.5-4.6-4.7-6.2-4.7-6.2
					C489.4,142.2,490.8,137.7,490.8,137.7z"/>
			</g>
			<g>
				<path class="st2" d="M564.7,227.6c0,0-1.4-4.5-4.7-6.3c0,0,3.2-1.7,4.7-6.2c1.5,4.6,4.7,6.2,4.7,6.2
					C566.1,223.1,564.7,227.6,564.7,227.6z"/>
			</g>
		</g>
	</g>
	<g>
		<g>
			<g>
				<g>
					<path class="st1" d="M552.8,134.6c-3.2-4.4-4.1-8-4.1-8s-0.9,3.7-4.1,8c-3.2,4.4-6.2,5.6-6.2,5.6s3,1.2,6.2,5.6
						c3.2,4.4,4.1,8,4.1,8s0.9-3.7,4.1-8c3.2-4.4,6.2-5.6,6.2-5.6S556.1,138.9,552.8,134.6z"/>
					<path class="st1" d="M510.8,134.6c-3.2-4.4-4.1-8-4.1-8s-0.9,3.7-4.1,8c-3.2,4.4-6.2,5.6-6.2,5.6s3,1.2,6.2,5.6
						c3.2,4.4,4.1,8,4.1,8s0.9-3.7,4.1-8c3.2-4.4,6.2-5.6,6.2-5.6S514,138.9,510.8,134.6z"/>
				</g>
				<g>
					<path class="st1" d="M531.8,177.1c-3.2-4.4-4.1-8-4.1-8s-0.9,3.7-4.1,8c-3.2,4.4-6.2,5.6-6.2,5.6s3,1.2,6.2,5.6
						c3.2,4.4,4.1,8,4.1,8s0.9-3.7,4.1-8c3.2-4.4,6.2-5.6,6.2-5.6S535,181.5,531.8,177.1z"/>
				</g>
				<g>
					<path class="st1" d="M552.8,219.7c-3.2-4.4-4.1-8-4.1-8s-0.9,3.7-4.1,8c-3.2,4.4-6.2,5.6-6.2,5.6s3,1.2,6.2,5.6
						c3.2,4.4,4.1,8,4.1,8s0.9-3.7,4.1-8c3.2-4.4,6.2-5.6,6.2-5.6S556.1,224,552.8,219.7z"/>
					<path class="st1" d="M510.8,219.7c-3.2-4.4-4.1-8-4.1-8s-0.9,3.7-4.1,8c-3.2,4.4-6.2,5.6-6.2,5.6s3,1.2,6.2,5.6
						c3.2,4.4,4.1,8,4.1,8s0.9-3.7,4.1-8c3.2-4.4,6.2-5.6,6.2-5.6S514,224,510.8,219.7z"/>
				</g>
			</g>
		</g>
		<g>
			<g>
				<g>
					<g>
						<g>
							<g>
								<path class="st2" d="M486.7,117.5h7.8v1.8h-6l-0.2,3c0,0,2.8-1.6,5.5,0.7c0.5,0.4,2.9,2.9,1.4,7.8c-0.3,1-2,3.6-5.6,3.1
									c-0.2,0-2.9-0.7-3.9-3.7l1.7-0.4c0,0,1.3,2.7,3.1,2.5c0.9-0.1,3.3-0.7,3.2-4.6c0-0.3,0-3.7-2.9-4.2c-1-0.2-2.2,0-3.9,1.7
									l-0.8-0.5L486.7,117.5z"/>
							</g>
						</g>
						<g>
							<g>
								<path class="st2" d="M568.8,247.8h-7.9V246h6l0.2-3c0,0-2.8,1.6-5.5-0.7c-0.5-0.4-2.9-2.9-1.4-7.8c0.3-1,2-3.6,5.6-3.1
									c0.2,0,2.9,0.7,3.9,3.7l-1.7,0.4c0,0-1.3-2.7-3.1-2.5c-0.9,0.1-3.3,0.7-3.2,4.6c0,0.3,0,3.7,2.9,4.2c1,0.2,2.2,0,3.9-1.7
									l0.8,0.5L568.8,247.8z"/>
							</g>
						</g>
					</g>
				</g>
			</g>
		</g>
		<g>
			<g>
				<path class="st2" d="M490.8,137.7c0,0,1.4,4.5,4.7,6.3c0,0-3.2,1.7-4.7,6.2c-1.5-4.6-4.7-6.2-4.7-6.2
					C489.4,142.2,490.8,137.7,490.8,137.7z"/>
			</g>
			<g>
				<path class="st2" d="M564.7,227.6c0,0-1.4-4.5-4.7-6.3c0,0,3.2-1.7,4.7-6.2c1.5,4.6,4.7,6.2,4.7,6.2
					C566.1,223.1,564.7,227.6,564.7,227.6z"/>
			</g>
		</g>
	</g>
	<g>
		<g>
			<g>
				<g>
					<path class="st1" d="M552.8,134.6c-3.2-4.4-4.1-8-4.1-8s-0.9,3.7-4.1,8c-3.2,4.4-6.2,5.6-6.2,5.6s3,1.2,6.2,5.6
						c3.2,4.4,4.1,8,4.1,8s0.9-3.7,4.1-8c3.2-4.4,6.2-5.6,6.2-5.6S556.1,138.9,552.8,134.6z"/>
					<path class="st1" d="M510.8,134.6c-3.2-4.4-4.1-8-4.1-8s-0.9,3.7-4.1,8c-3.2,4.4-6.2,5.6-6.2,5.6s3,1.2,6.2,5.6
						c3.2,4.4,4.1,8,4.1,8s0.9-3.7,4.1-8c3.2-4.4,6.2-5.6,6.2-5.6S514,138.9,510.8,134.6z"/>
				</g>
				<g>
					<path class="st1" d="M531.8,177.1c-3.2-4.4-4.1-8-4.1-8s-0.9,3.7-4.1,8c-3.2,4.4-6.2,5.6-6.2,5.6s3,1.2,6.2,5.6
						c3.2,4.4,4.1,8,4.1,8s0.9-3.7,4.1-8c3.2-4.4,6.2-5.6,6.2-5.6S535,181.5,531.8,177.1z"/>
				</g>
				<g>
					<path class="st1" d="M552.8,219.7c-3.2-4.4-4.1-8-4.1-8s-0.9,3.7-4.1,8c-3.2,4.4-6.2,5.6-6.2,5.6s3,1.2,6.2,5.6
						c3.2,4.4,4.1,8,4.1,8s0.9-3.7,4.1-8c3.2-4.4,6.2-5.6,6.2-5.6S556.1,224,552.8,219.7z"/>
					<path class="st1" d="M510.8,219.7c-3.2-4.4-4.1-8-4.1-8s-0.9,3.7-4.1,8c-3.2,4.4-6.2,5.6-6.2,5.6s3,1.2,6.2,5.6
						c3.2,4.4,4.1,8,4.1,8s0.9-3.7,4.1-8c3.2-4.4,6.2-5.6,6.2-5.6S514,224,510.8,219.7z"/>
				</g>
			</g>
		</g>
		<g>
			<g>
				<g>
					<g>
						<g>
							<g>
								<path class="st2" d="M486.7,117.5h7.8v1.8h-6l-0.2,3c0,0,2.8-1.6,5.5,0.7c0.5,0.4,2.9,2.9,1.4,7.8c-0.3,1-2,3.6-5.6,3.1
									c-0.2,0-2.9-0.7-3.9-3.7l1.7-0.4c0,0,1.3,2.7,3.1,2.5c0.9-0.1,3.3-0.7,3.2-4.6c0-0.3,0-3.7-2.9-4.2c-1-0.2-2.2,0-3.9,1.7
									l-0.8-0.5L486.7,117.5z"/>
							</g>
						</g>
						<g>
							<g>
								<path class="st2" d="M568.8,247.8h-7.9V246h6l0.2-3c0,0-2.8,1.6-5.5-0.7c-0.5-0.4-2.9-2.9-1.4-7.8c0.3-1,2-3.6,5.6-3.1
									c0.2,0,2.9,0.7,3.9,3.7l-1.7,0.4c0,0-1.3-2.7-3.1-2.5c-0.9,0.1-3.3,0.7-3.2,4.6c0,0.3,0,3.7,2.9,4.2c1,0.2,2.2,0,3.9-1.7
									l0.8,0.5L568.8,247.8z"/>
							</g>
						</g>
					</g>
				</g>
			</g>
		</g>
		<g>
			<g>
				<path class="st2" d="M490.8,137.7c0,0,1.4,4.5,4.7,6.3c0,0-3.2,1.7-4.7,6.2c-1.5-4.6-4.7-6.2-4.7-6.2
					C489.4,142.2,490.8,137.7,490.8,137.7z"/>
			</g>
			<g>
				<path class="st2" d="M564.7,227.6c0,0-1.4-4.5-4.7-6.3c0,0,3.2-1.7,4.7-6.2c1.5,4.6,4.7,6.2,4.7,6.2
					C566.1,223.1,564.7,227.6,564.7,227.6z"/>
			</g>
		</g>
	</g>
	<g>
		<path id="XMLID_358_" class="st1" d="M9.5,29.4c0,0.3,0.1,0.6,0.1,0.9c0,0.5,0.4,0.8,0.6,0c0-0.2,0.1-0.4,0.2-0.7
			c0.4-2.2,3.7-1.8,4.1,0c0.4,1.8-0.2,3.2-1.8,5.3c-1.6,2-2.4,3.4-2.8,4.6c-0.3-1.6-3.3-5.2-4.1-6.9c-0.8-1.7-0.5-3.8,0.8-4.4
			C7.8,27.8,9.3,28.4,9.5,29.4z"/>
		<path id="XMLID_357_" class="st1" d="M89.9,122.1c0-0.3-0.1-0.6-0.2-0.9c0-0.5-0.4-0.8-0.6,0c0,0.2-0.1,0.4-0.2,0.7
			c-0.4,2.2-3.7,1.8-4.1,0c-0.4-1.8,0.2-3.2,1.8-5.3c1.6-2,2.4-3.4,2.8-4.6c0.3,1.6,3.3,5.2,4.1,6.9c0.8,1.7,0.5,3.8-0.8,4.4
			C91.6,123.7,90.1,123.1,89.9,122.1z"/>
		<path id="XMLID_356_" class="st3" d="M64.6,67c1.4-5.5,2.8-9.9,6.4-13.8l-0.7-1.4l-7.5,2.8l-1,13.2C62.5,67.1,63.5,67.1,64.6,67z"
			/>
		<path id="XMLID_355_" class="st3" d="M34.8,84.1c-1.4,5.5-2.6,10.2-6.5,14.2l0.8,1.6l7.5-2.8l1-13.7
			C36.8,84.1,35.9,84.1,34.8,84.1z"/>
		<path id="XMLID_354_" class="st1" d="M27.7,23.6c0.1,0.5,0.2,1.1,0.3,1.6c0.1,0.9,0.8,1.4,1.1,0.1c0.1-0.3,0.2-0.8,0.3-1.4
			c0.8-4.2,6.9-3.4,7.6,0.1c0.7,3.4-0.3,6.2-3.3,10.1c-3,3.9-4.4,6.4-5.1,8.8c-0.6-3.1-6.2-9.9-7.7-13.1c-1.5-3.1-1-7.2,1.4-8.3
			C24.5,20.5,27.4,21.6,27.7,23.6z"/>
		<path id="XMLID_353_" class="st4" d="M78,15.3c-1.2,7.5-0.5,15.1,1.5,21.9c-2.4-0.6-4.7-0.7-6.7,0.1l0.1,0l-7.5-22H78z"/>
		<path id="XMLID_352_" class="st5" d="M42,40c0.1-5.3,3.4-8.9,4.6-10.2c-0.2-1.9-0.3-4.2-0.4-6.3c-3.8,2.2-9.9,10.5-9.9,19.8L42,40
			z"/>
		<path id="XMLID_351_" class="st6" d="M47.6,15.3c0,0.1-0.7,1.6-1.8,1.5"/>
		<path id="XMLID_350_" class="st6" d="M57.8,15.3c0,0.2,1.5,1.7,3.3,1.7"/>
		<path id="XMLID_349_" class="st6" d="M49.1,15.3c0,0-2,2.7-3.3,2.8"/>
		<path id="XMLID_348_" class="st6" d="M56.1,15.4c0,0,2.9,3.1,5.3,3.2"/>
		<path id="XMLID_347_" class="st6" d="M50.3,15.3c0,0.4-3.1,4.1-4.4,4"/>
		<path id="XMLID_346_" class="st6" d="M54.7,15.3c0.7,1.9,3.8,4.7,7,4.8"/>
		<path id="XMLID_345_" class="st6" d="M51.8,15.3c-0.1,0.6-3.3,4.8-5.8,5.3"/>
		<path id="XMLID_344_" class="st6" d="M53.4,15.3c0.4,2.1,5.1,6.3,8.6,6.1"/>
		<path id="XMLID_343_" class="st7" d="M62.9,25.1c-0.3,0-2.3,2.7-1.2,5.7c1.1,3,2.2,3.6,3.4,4.1"/>
		<path id="XMLID_342_" class="st7" d="M63.4,27.1c0,0-0.7,1.3-0.5,2.9c0.2,1.5,1,2,1.7,2.6"/>
		<path id="XMLID_341_" class="st7" d="M65.7,37.9c0,0-0.7,1.5-0.5,3c0.2,1.5,1.3,2.5,2.1,3.1"/>
		<path id="XMLID_340_" class="st7" d="M48.2,35.5c-0.6,0.5-1,1.4-1,2.2"/>
		<path id="XMLID_339_" class="st7" d="M47.7,34.5c-0.6,0.3-2,2.2-1.8,3.8"/>
		<path id="XMLID_338_" class="st7" d="M47.2,32.7c-1.4,1.1-3.2,3.7-3.2,6.5"/>
		<g>
			<path id="XMLID_337_" class="st5" d="M71.1,15.4c-0.2,0.7-0.8,1.3-1.6,1.4c-0.8,0.1-1.9-0.5-2.6-1.3c0.2-0.1,0.5,0,0.7-0.1
				c0.4,0.3,1,0.6,1.4,0.6c0.3,0,0.7-0.2,0.9-0.8C70.2,15.3,70.9,15.4,71.1,15.4z"/>
			<path id="XMLID_336_" class="st5" d="M68.1,18.4c0,0.1,1.6-0.9,2.9-0.6c-0.3,0.6-1.2,1.2-2.7,1.1c0,0.5,0.8,1.1,0.5,2.1
				c-1-0.6-0.7-1.6-0.9-2.3c-0.4-0.6-0.9-1.3-0.8-2.2C67.6,16.9,68,17.5,68.1,18.4z"/>
			<path id="XMLID_335_" class="st5" d="M70.8,26.7c0,0.1,1.6-0.9,2.9-0.6c-0.3,0.6-1.2,1.2-2.7,1.1c0,0.5,0.8,1.1,0.5,2.1
				c-0.9-0.6-0.7-1.6-0.9-2.3c-0.4-0.6-0.9-1.3-0.8-2.2C70.3,25.2,70.8,25.9,70.8,26.7z"/>
			<path id="XMLID_334_" class="st5" d="M73.6,34.9c0,0.1,1.6-0.9,2.9-0.6c-0.3,0.6-1.3,1.2-2.7,1.1c-0.6-0.2-1.2-1.6-1.1-2.3
				C73.1,33.4,73.6,34.1,73.6,34.9z"/>
			<ellipse id="XMLID_333_" class="st5" cx="73.5" cy="21.9" rx="0.7" ry="0.7"/>
			<ellipse id="XMLID_332_" class="st5" cx="76.3" cy="30.3" rx="0.7" ry="0.7"/>
			<path id="XMLID_331_" class="st5" d="M71.3,20.2c0.7,0.4,0.6,0.9,0.5,1.2c-0.1,0.2,0.8,0,0.7-1c-0.1-1-1.3-1.8-2-1
				c-0.8,0.8-1.3,1.6-1.5,3.7c0.8,0.9,1.7,2.2,3,2.4c1.3,0.2,1.8-1,1.6-1.7c-0.3-0.7-1-0.8-0.9-0.6c0.1,0.2,0.2,1.2-0.6,1.4
				c-0.8,0.2-2.2-0.9-2.4-1.2c-0.1-0.3,1-0.7,1.1-0.4c0.1,0.3,0.2,0.4,0.2,0.9c0.7-0.5,0.7-1,0.1-1.5c0,0,0.5-1-0.8-1.2
				c0.2,0.5,0.3,0.8-0.1,1c-0.4,0.3-1,0.6-0.7-0.3C69.8,21.1,70.6,19.8,71.3,20.2z"/>
			<path id="XMLID_330_" class="st5" d="M74.1,28.5c0.7,0.3,0.6,0.9,0.5,1.2c-0.1,0.2,0.8,0,0.7-1c-0.1-1-1.3-1.8-2-1
				c-0.8,0.8-1.3,1.6-1.5,3.7c0.8,0.9,1.7,2.2,3,2.4c1.3,0.2,1.8-1,1.6-1.7c-0.3-0.7-1-0.8-0.9-0.6c0.1,0.2,0.2,1.2-0.6,1.4
				c-0.8,0.2-2.2-0.9-2.4-1.2c-0.1-0.3,1-0.7,1.1-0.4c0.1,0.3,0.1,0.4,0.2,0.9c0.7-0.5,0.7-1,0.1-1.5c0,0,0.5-1-0.8-1.2
				c0.2,0.5,0.3,0.8-0.1,1c-0.4,0.3-1,0.6-0.7-0.3C72.6,29.4,73.4,28.1,74.1,28.5z"/>
		</g>
		<path id="XMLID_329_" class="st8" d="M24,104.3c-0.3-0.9-1-1.6-1.9-1.6s-1.7,0.7-1.9,1.6h-1.3v1.4c-0.8,0.3-1.3,1.1-1.3,1.9
			c0,0.8,0.5,1.6,1.3,1.9v1.7h1.8c0.4,0.6,1,1,1.8,1c0.7,0,1.4-0.4,1.8-1h1.3v-1.8c0.9-0.2,1.6-1,1.6-2c0-0.9-0.7-1.8-1.6-2v-1H24z"
			/>
		<path id="XMLID_328_" class="st9" d="M22.7,103c0,0,0.1-5.3,0.1-6.7c0-1.4-0.3-3-0.3-3"/>
		<line id="XMLID_327_" class="st9" x1="21.3" y1="103.2" x2="21.5" y2="93.4"/>
		<path id="XMLID_326_" class="st10" d="M21.4,93.3v4.6l-3.2,4.4c0,0-0.5-2.5-0.2-4.2C18.4,96.4,19.8,93.5,21.4,93.3z"/>
		<path id="XMLID_325_" class="st10" d="M22.7,93.4c1.1,0.2,1.6,0.8,2.3,1.5c0.9,0.8,1.7,1.4,1.9,2.4c0.2,1,0.4,1.4,0.4,1.4
			c-0.1,0-1.2,0.2-2.6-1c-1.4-1.2-1.6-1.5-2-1.8L22.7,93.4z"/>
		<path id="XMLID_324_" class="st9" d="M22.8,95.9c0.4,0.3,0.6,0.6,2,1.8c1.4,1.2,2.5,1,2.6,1c0.1,0-0.2-0.4-0.4-1.4
			c-0.2-1-1-1.6-1.9-2.4c-0.9-0.8-1.8-1.6-3.5-1.6c-1.7,0-3.2,3-3.5,4.7c-0.4,1.7,0.2,4.2,0.2,4.2l3.3-4.5"/>
		<path id="XMLID_323_" class="st8" d="M25.6,96.9c0,0-1.9-1.4-2.9-1.7v-0.8C22.6,94.2,25.4,95.7,25.6,96.9z"/>
		<path id="XMLID_322_" class="st8" d="M19.2,99.1c0,0,1-2.6,2.3-3.8v-0.8C21.6,94.3,19,97.1,19.2,99.1z"/>
		<path class="st8" d="M46.2,22.1c0,0,2.5-0.7,3.5-0.3c1.1,0.4,2.4,1.6,2.2,3c-0.2,1.4-1,4.8-1.2,5.6c-0.2,0.8,0.4,0.8,1,1.2
			c0.3,0.2,0.5,0,0.5-0.3c0-0.3,0.9-0.5,1.3-0.2c0.9,0.6,1.2,0.5,1.4,0.4c0.3-0.1,0.7-0.3,0.3-0.9c-0.4-0.7,0.7,0.4,0.3,1.1
			c-0.4,0.7-0.8,0.7-1.6,0.2c-0.8-0.4-1.5-0.4-1.5,0.4c0,0.8-2-1-2-0.9c0,0.1-0.4-0.8-0.2-1.6c0.3-0.8,0.5-2.4,0.5-2.4
			s-0.6,0.5-1.2,0.9c-0.5,0.4,0.7-1.3,0.7-1.3s0.5-0.8-0.6-0.4c-1.1,0.4-2.8,0.1-3.3-0.4L46.2,22.1L46.2,22.1z M47.1,23.4
			c1.3-0.8,3.9,0.5,3.9,0.5s-0.1-1.1-1.2-1.4c-1.1-0.3-1.5-0.2-2.4,0.1C46.5,23,47.1,23.4,47.1,23.4L47.1,23.4z M47,24.6
			c1.5-1.2,4,0.3,4,0.4c0.1,0.1,0.2,0.1,0.3-0.4c0-0.3-0.9-0.6-1.6-0.7c-0.7-0.1-1.4-0.2-2,0C47,24,47,24.6,47,24.6L47,24.6z
			 M54.4,23.1c0.8-1.3,5.3-0.2,6.3,0.8c-0.8-1.2-3.5-2.1-4.3-2.2c-0.8,0-1.8-0.1-2.5,0.7C53.2,23.3,54.4,23.3,54.4,23.1L54.4,23.1z
			 M54.7,24.7c1.2-2,5.1-0.8,5.9,0.4c-0.7-1.1-2.8-1.8-3.6-1.8c-0.8,0-2.1,0-2.7,0.7C53.7,24.5,54.7,24.8,54.7,24.7L54.7,24.7z
			 M54.6,24.7c0,0,0,1.5-0.6,1.8c-0.4,0.2,0.6,0,0.8,0.1l2.5,1.6l0.1-0.1l-1.8-1.4c0,0-0.2-0.3,0.5-0.3c0.7,0,1.2,0.2,1.8,0.1
			c0.7-0.1,1.6-0.7,1.6-0.7s0.4-0.4,1,0c0.2-0.3-0.1-0.4-0.4-0.6c-0.5-0.4-1.1-0.8-1.7-0.9C57.2,24.2,56.2,23.9,54.6,24.7L54.6,24.7
			z M47.3,25.2c0,0-0.4,0-0.3,0.3c0.1,0.4,0.1,0.6,0.2,0.6c0.1,0,0.2,0.2,0.5,0.1C47.6,26,47.4,25.5,47.3,25.2L47.3,25.2z
			 M50.2,25.3c0,0.3-0.1,0.6-0.3,0.8c0.5,0,0.8-0.4,0.9-0.6C51,25.2,50.2,25.3,50.2,25.3L50.2,25.3z M48.4,25.1l-0.5,0.2
			c0,0,0.2,0.9,0.8,1c0.6,0.1,1.2-0.3,1.2-1l-0.5,0c0,0-0.1,0.4-0.4,0.4C48.5,25.7,48.4,25.2,48.4,25.1L48.4,25.1z M56.7,25.1
			c0,0.1,0,0.7,0.6,0.7c0.5,0,0.5-0.3,0.5-0.5c0.1-0.2,0.5-0.3,0.5,0.1c-0.1,1-0.8,1.1-1.4,1c-0.6-0.1-0.7-1.2-0.7-1.2L56.7,25.1
			L56.7,25.1z M55.8,25.4c0-0.1-0.6-0.3-0.6,0.2c0,0.4-0.1,0.4,0,0.5c0.1,0.1,0.4,0.1,0.6,0.1C55.8,25.9,55.8,25.7,55.8,25.4
			L55.8,25.4z M58.8,25.2c0.2,0.2,0.5,0.5,0.5,0.5c-0.2,0.2-0.6,0.4-0.8,0.3C58.6,25.8,58.8,25.5,58.8,25.2L58.8,25.2z M50.4,33.8
			c0,0.4,0.1,1,0.4,1.3c0.1,0.1,0.6-0.1,0.9-0.2c0.3-0.2,1.3,0.8,2,0.3C54.3,34.8,55,35,55,35c0.2,0,0.4,0.1,0.5,0.2h0.2l-0.1-1.2
			c0,0-0.3-0.2-0.6,0c-0.3,0.2-0.7,0.3-1.4-0.1c-0.3-0.2-0.6,0.2-1,0.2c-0.2,0-0.6-0.2-0.8-0.3C51.2,34,50.4,34.5,50.4,33.8
			L50.4,33.8z M54.4,35.6c-0.3,0.3-0.5,0.6-1.3,0.7c-0.8,0-1.4-0.6-1.4-0.6s0.5,0.2,1.2,0.3C53.6,36,54.4,35.6,54.4,35.6L54.4,35.6z
			 M52.3,37.5c0.3-0.2,0.6-0.2,1-0.2c0.6,0.1,1.2,0.3,1.2,0.3S53.8,37,53,37.1c-0.4,0-0.8,0-1,0.2C51.7,37.6,52.1,37.6,52.3,37.5z"
			/>
		<path id="XMLID_306_" class="st5" d="M17.2,58.3l12-9.9c1.8,1.9,7.4,5.7,9.6,6.7c-2.8,2.5-6.7,4.7-8.9,12.2
			c-2.2,7.5-1.3,9.1-2.1,14.4c-0.6,4.1,0.2-0.9-4.9,0.1c-0.9,0.2-2.5,1.3-3.8,1.7c-1.3,0.4-1.8,0.7-1.8,0.9V58.3z"/>
		<path id="XMLID_305_" class="st11" d="M38.7,55.1c-2.8,2.5-6.7,4.7-8.9,12.2c-2.2,7.5-1.3,9.1-2.1,14.4l-0.3,1.5"/>
		<path class="st5" d="M61.9,42.3l-0.2-0.8c-0.6,0.2-1.3,0.3-2.1,0.4l0.2,0.8C60.5,42.5,61.2,42.4,61.9,42.3L61.9,42.3z M62.6,41.2
			l0.2,0.8c0.3-0.1,0.5-0.2,0.8-0.3l-0.2-0.8C63.2,41,62.9,41.1,62.6,41.2L62.6,41.2z M45.6,39.7c-0.7-0.3-1.2-0.5-1.2-0.5l-0.7,0.5
			c0,0.1,0.6,0.4,1.6,0.8L45.6,39.7L45.6,39.7z M48.2,40.7c-0.6-0.2-1.2-0.4-1.7-0.7l-0.3,0.8c0.5,0.2,1.1,0.5,1.7,0.7L48.2,40.7
			L48.2,40.7z M50.6,41.4c-0.5-0.1-1-0.3-1.6-0.4l-0.3,0.8c0.6,0.2,1.2,0.4,1.7,0.5L50.6,41.4L50.6,41.4z M51.4,41.6
			c0.1,0,0.2,0,0.3,0c0.4,0.1,1,0.1,1.5,0.2l0,0.8c-0.6,0-1.1-0.1-1.6-0.1c-0.1,0-0.2,0-0.3,0L51.4,41.6L51.4,41.6z M56.3,42
			c-0.8,0-1.6,0-2.3-0.1l0,0.8c0.7,0,1.5,0.1,2.3,0.1L56.3,42L56.3,42z M58.9,41.9c-0.6,0-1.2,0.1-1.8,0.1l0.1,0.8
			c0.6,0,1.3,0,1.9-0.1L58.9,41.9z"/>
		<path id="XMLID_296_" class="st10" d="M31.8,46.7c0,0,9.3,7.8,19.3,8.5c10,0.6,15.5-1.9,19-3.2c0.3-3.4-2.5-5.5-5.2-7.5
			c-0.8-0.6-1.5-2.9-1.7-4.3c-2.7,1.5-8.6,1.3-11.4,0.9c-2.8-0.4-7.1-2.4-7.1-2.4L31.8,46.7z"/>
		<path id="XMLID_295_" class="st1" d="M31.5,46.6c0,0,4.4,3.6,10.3,6.1l0.3,2c-4.3-1.7-8.5-4.1-11.6-6.8L31.5,46.6z"/>
		<path class="st5" d="M66.2,51.4c0.9-0.3,1.7-0.6,2.4-0.8l-1.5-1.1L66.2,51.4L66.2,51.4z M58.8,52.9c1.3-0.1,2.5-0.3,3.6-0.5
			l-2-1.8L58.8,52.9L58.8,52.9z M51.6,53c1.2,0.1,2.3,0.1,3.3,0.1l-1.6-2L51.6,53L51.6,53z M44,51.5c1.3,0.4,2.6,0.8,3.9,1.1
			l-1.4-2.8L44,51.5L44,51.5z M37.6,48.5c1,0.6,2.1,1.1,3.3,1.7l-0.7-2.7L37.6,48.5L37.6,48.5z M33,45.6c0.5,0.4,1.1,0.8,1.8,1.3
			l-0.1-2.2L33,45.6z"/>
		<path class="st5" d="M51.5,45.2c-0.1,0-0.1,0-0.2,0c-0.3,0-0.6-0.1-0.9-0.1c0,0.2-0.1,0.3-0.1,0.5l-3.1,2l-1.8-3.4
			c-0.1,0,0-0.3,0-0.5c-0.2-0.1-0.3-0.1-0.5-0.2c-0.2,0.3-0.3,0.4-0.3,0.4l-3.3,1.3l-1-3.1l-0.7,0.4l0.9,3.2l-3.9,1.6l-0.2-3.4
			l-0.9,0.4l0.1,3.2c0.3,0.2,0.7,0.4,1.1,0.7l4-1.6l1.1,4.2c0.3,0.1,0.6,0.3,1,0.4l4.1-2.5l2.5,4.3c0.4,0.1,0.8,0.1,1.2,0.1l3-3.2
			l2.5,3.3c0.4,0,0.8,0,1.2-0.1l2.8-3.7l3.8,2.7c0.4-0.1,0.8-0.2,1.2-0.3l1.6-3.6l2.4,1.6l-0.3-1.3l-1.8-1.2l0.7-1.4l-0.9-0.1
			l-0.4,1.1L63,44.6c-0.3,0.1-0.6,0.2-0.8,0.2l-2.2,3.4l-2.9-2.5c-0.3,0-0.6,0-0.9,0.1l-2.5,2.7l-2-2.8
			C51.6,45.7,51.5,45.5,51.5,45.2L51.5,45.2z M56.7,47.8c0.6,0,1.1,0.5,1.1,1.1c0,0.6-0.5,1.1-1.1,1.1c-0.6,0-1.1-0.5-1.1-1.1
			C55.6,48.3,56.1,47.8,56.7,47.8L56.7,47.8z M63.5,46.8c0.6,0,1.1,0.5,1.1,1.1c0,0.6-0.5,1.1-1.1,1.1c-0.6,0-1.1-0.5-1.1-1.1
			C62.4,47.3,62.9,46.8,63.5,46.8L63.5,46.8z M50.5,47.6c0.6,0,1.1,0.5,1.1,1.1c0,0.6-0.5,1.1-1.1,1.1c-0.6,0-1.1-0.5-1.1-1.1
			C49.4,48.1,49.9,47.6,50.5,47.6L50.5,47.6z M44.2,46.1c0.6,0,1.1,0.5,1.1,1.1c0,0.6-0.5,1.1-1.1,1.1c-0.6,0-1.1-0.5-1.1-1.1
			C43,46.6,43.5,46.1,44.2,46.1L44.2,46.1z M38.4,43.5c0.6,0,1.1,0.5,1.1,1.1c0,0.6-0.5,1.1-1.1,1.1c-0.6,0-1.1-0.5-1.1-1.1
			C37.3,44,37.8,43.5,38.4,43.5L38.4,43.5z M41.5,46.1l3.4-1.4l1.6,3l-3.8,2.3L41.5,46.1L41.5,46.1z M47.6,48.2l3.2-2l2.1,3
			l-3.1,3.1L47.6,48.2L47.6,48.2z M54.1,49.1l2.3-2.6l2.9,2.3l-2.8,3.7L54.1,49.1L54.1,49.1z M60.6,48.5l2.3-3.1l3.1,2.1l-1.7,3.7
			L60.6,48.5L60.6,48.5z M58,45.4c1.1-0.1,2.1-0.2,3-0.3c0,0,0.1,0.1,0.1,0.1l-1.3,2l-1.5-1.5C58.2,45.5,58.1,45.4,58,45.4L58,45.4z
			 M52.3,45.3c0.9,0.1,1.9,0.1,2.8,0.1c0,0.1-0.1,0.2-0.2,0.4l-1.2,1.4l-1.1-1.4C52.4,45.6,52.3,45.4,52.3,45.3L52.3,45.3z
			 M46.8,44.2c0.8,0.3,1.7,0.5,2.6,0.7l-0.3,0.4l-1.5,1.1l-0.7-1.7C46.8,44.5,46.8,44.3,46.8,44.2L46.8,44.2z M41.7,41.9
			c0.6,0.3,1.3,0.7,2.3,1.1c-0.1,0.2-0.2,0.3-0.3,0.4L42,44.3l-0.4-1.8C41.6,42.3,41.6,42.1,41.7,41.9z"/>
		<path id="XMLID_274_" class="st8" d="M46.9,56.9c0,0-1.4,1.5-0.7,3.5c0.7,2,1.3,3.1,1.3,3.1s-0.4,0.3-0.6,0.6
			c-0.4,0.4-0.3,0.8,0.2,0.6c0.8-0.3,0.4-0.9,1.6-0.1c1.2,0.7,2.9,1.2,3.5,3c0.6,1.8-1.6,4.3-3.5,2.1c-1.9-2.2-0.5-3.2-0.4-3.3
			c0.3-0.3,0.2,0.3,0.9,0.4c0.7,0.1,0.9-0.8,0.3-1c-0.6-0.2-1.9-0.1-2.1,1.3c-0.2,1.4,0.3,2.2,1.3,3.1c1.1,0.9,2.3,0.8,2.9,0.8
			c0.3,0,0.2,0.5,0.4,0.6c0.3,0.1,0.7-0.7,0.6-1.1c-0.3-1.1-0.1-0.9,0.2-1.2c0.3-0.3,0.2-2.2-0.6-2.9c-0.9-0.9,0.9-0.1,1.2-0.9
			c0.2-0.5-0.1-0.7-0.5-0.6c-0.4,0.1-0.8,0.2-1,0.2c-1.7,0.2-3.3-0.9-4.1-2.3c-0.8-1.3-1.4-3.1-0.6-4.7c0.8-1.6,1.6-2,3.4-2
			c1.8,0.1,3.4,1.9,3.6,3.7c0.1,1.8-1.5,3.6-2.4,2.8c-0.9-0.8-1.7,0-1.2,0.8c0.5,0.8,1.4,0.9,2.3,0.6c0.9-0.3,2-2.3,1.9-3.4
			c-0.1-1.2-0.3-2.3-0.3-2.3s1.3-0.1,1.3-0.9c0-0.8-0.4-1.4-1-0.8c-0.6,0.6-0.4,1.1-1.2,0.4c-0.8-0.7-2.4-1.3-4-1.2
			c-1.6,0.1-1.8,0.7-2,0.4c-0.2-0.2-0.2-1.1-1.2-1.3c-1-0.2-1.3,1.2-0.6,1.1C46.7,55.8,46.6,56.6,46.9,56.9z"/>
		<g>
			<path id="XMLID_273_" class="st1" d="M53.1,61.7c-0.3-0.2-0.6-0.2-1,0c0,0,0.5-0.6,0.8-0.5C53.2,61.2,53.4,61.6,53.1,61.7z"/>
			<path id="XMLID_272_" class="st1" d="M51.3,67.2c-0.2,0-0.5,0.1-0.9-0.1c0,0,0.4,0.5,0.7,0.5C51.5,67.6,51.5,67.1,51.3,67.2z"/>
			<path id="XMLID_271_" class="st1" d="M48.4,67.1c0.2,0,0.4,0.1,0.7-0.1c0,0-0.3,0.4-0.6,0.4C48.3,67.5,48.2,67.1,48.4,67.1z"/>
			<path id="XMLID_270_" class="st1" d="M51.4,68.6c-0.2,0-0.5,0-0.8-0.4c0,0,0.3,0.8,0.6,0.9C51.6,69.2,51.6,68.6,51.4,68.6z"/>
			<path id="XMLID_269_" class="st1" d="M48.8,68.2c0.2,0,0.4-0.2,0.7-0.5c0,0-0.1,0.9-0.5,1.1C48.5,68.9,48.6,68.2,48.8,68.2z"/>
			<path id="XMLID_268_" class="st1" d="M49.7,68.8c0.2-0.2,0.2-0.6,0.3-1.2c0,0,0.6,1.1,0.3,1.7C49.9,69.8,49.5,69,49.7,68.8z"/>
			<path id="XMLID_267_" class="st1" d="M53.1,60.5c-0.7,0.1-1,0.4-1.4,0.9c0,0,0.2-1.1,0.9-1.3C53.3,59.8,53.5,60.3,53.1,60.5z"/>
			<path id="XMLID_266_" class="st1" d="M52.4,59.2c-0.8,0.2-1.2,1.3-1.4,1.9c0,0,0.2-1.8,0.9-2.3C52.5,58.3,53.2,58.9,52.4,59.2z"
				/>
			<path id="XMLID_265_" class="st1" d="M51.2,58.3c-0.7,0.5-0.7,1.6-0.7,2.2c0,0-0.4-1.7,0-2.3C51,57.5,51.9,57.8,51.2,58.3z"/>
			<path id="XMLID_264_" class="st1" d="M49,57.9c0.7,0.1,1,0.9,1.2,1.4c0,0-0.2-1.4-0.8-1.7C48.9,57.3,48.3,57.8,49,57.9z"/>
			<path id="XMLID_263_" class="st1" d="M48.4,59.3c0.7-0.1,1.2,0.6,1.5,1c0,0-0.6-1.3-1.2-1.5C48.2,58.7,47.7,59.4,48.4,59.3z"/>
			<path id="XMLID_262_" class="st1" d="M48.6,61.2c0.6-0.4,1.5,0.3,1.9,0.6c0,0-0.8-1.5-1.9-1.5C47.5,60.4,48,61.6,48.6,61.2z"/>
			<path id="XMLID_261_" class="st1" d="M48.7,62.3c0.4-0.3,0.9,0.2,1.2,0.4c0,0-0.5-1-1.2-0.9C48,61.8,48.3,62.6,48.7,62.3z"/>
		</g>
		<path id="XMLID_260_" class="st7" d="M69.9,50.8c0,0,0.8,2.7,2.1,3.6"/>
		<path id="XMLID_259_" class="st8" d="M41.7,52.7l2.9,16.9c1,0.1,9.4,3.8,10.2,4.8c0.9,0.6,0.6-0.4,0.6-0.5l-0.8-0.5L61,54.7
			l-3.9,0.6l-4.5,17.1c-1.9-1-3.6-1.8-5.6-2.7L44.9,54L41.7,52.7z"/>
		<path id="XMLID_258_" class="st12" d="M55.4,74.1l-0.8-0.7L61,54.7l1.8-0.2l-0.8,13C58.9,68.1,56.7,75.3,55.4,74.1z"/>
		<line id="XMLID_257_" class="st9" x1="60.3" y1="56.4" x2="62.6" y2="56.1"/>
		<line id="XMLID_256_" class="st9" x1="59.8" y1="58.3" x2="62.4" y2="57.8"/>
		<path id="XMLID_255_" class="st5" d="M44.8,69.9c3.3,1.2,6.8,2.8,10.1,5l-0.3,1.8l-1.3-1.1L52.8,76l-1.9-2l-0.7,0.4l-1.7-1.7
			L48,73.2l-2.1-1.3l-0.4,0.2C45.6,72.1,45.2,70.1,44.8,69.9z"/>
		<path id="XMLID_254_" class="st7" d="M38.1,55.2c0,0,2.1,1.3,4.6,1.9"/>
		<path class="st10" d="M24.9,60l0.5-0.7c-0.3-0.3-0.7-0.3-0.9-0.8c0.5,0.1,0.9,0,1.4-0.2c0.5-0.2-0.6-0.7-0.8-1.4
			c-0.2-0.7-0.6-1-1-1c-0.7,0,0.3-2.1,1.5-2c1.2,0.1,0.9,0.6,0.8,1.2c-0.1,0.6,0,1.7,0.8,2c0.7,0.3-0.2-0.9,0.6-1.1
			c0.7-0.2,1,0.2,0.8,1.3c-0.2,1.1-0.3,1.2-1.1,1.8c-0.7,0.6-1.1,1.4-1.1,1.4l0.6,0.8c0,0,0.6,0.3,1.3-0.6c0.6-0.9,1.3-2.5,1.5-3.8
			c0.2-1.3,1.5-2.6,2.5-2.6c1,0.1,1.4,0.8,1.5,1.6c0.1,0.8-0.2,1.1-0.6,1c-0.4-0.1-0.6-0.4-0.6-0.4s0.3-1.3-0.1-1.5
			c-0.4-0.2-1.3-0.2-1.1,1.2c0.1,1.3,0.5,1.4,0.2,2c-0.3,0.6-1,0.4-1.1-0.2c0-0.5-0.8,0.9-0.1,1.4c0.6,0.5,1.4,0.3,1.9-1.3
			c0.3-0.9,0-0.5,0.9-0.2c1,0.3,1.8-0.9,1.7-2.5c-0.2-1.6-1-2-1.5-2.1c-0.5-0.2-1.9,0.1-2.7,1c-0.8,0.9-1,1-1,1s-0.7-1.8-1.9-2.2
			c-1.2-0.4-1.3-0.5-2.5-0.1c-1.1,0.4-1.7,1.4-1.9,2.3c-0.1,0.4-1.1,1-1,1.8c0.1,0.4,0.3,0.9,0.2,1.2c-0.1,0.4-0.4,0.5-0.1,0.7
			c0.8,0,1.5-0.6,1.5-0.6C24.1,59.2,24.5,59.7,24.9,60L24.9,60z M26.7,74.1l0.8-0.7c0,0,0.3,0.5,0,1.3c-0.2,0.7-1.1,1.3-1.1,1.3
			s0.3,1.3,0,2.3c-0.3,1-1.5,2.2-2.7,2.1c-1.2,0-2.5-0.6-2.4-0.5c0.1,0.1-0.4,1.7-1.4,2.1c-1,0.3-2-0.3-2.2-1.4
			c-0.1-1.1,0.2-1.5,0.9-1.5c0.8,0,1,0.7,0.9,1.2c-0.1,0.4,0,0.5-0.6,0.5c-0.6,0-0.5,0.5,0.3,0.6c0.8,0.1,1.2-0.8,0.9-1.7
			c-0.2-0.9-0.9-2.6-0.7-3.4c0.2-0.8,0.8-1.7,0.8-1.7s0.8,2.2,1.2,2.4c0.4,0.2,0.7,0.3,0.9-0.5c0.1-0.5,1.1,0.1,0.9,0.8
			c-0.2,0.6-1,1-0.6,1.7c0.5,0.8,1.9,0.5,2.5,0c0.5-0.5,0.8-1.9-0.1-2.6c-0.5-0.3-1.2-0.4-1.1-1.3c0-0.9,0.7-1,1.1-0.9
			C26.5,74.3,26.6,74.3,26.7,74.1L26.7,74.1z M23.1,64.4c0.5-0.1,1.2-0.2,1.7-0.3c0.2,0.1,0.5,0.1,0.7,0.3c0.4,0.6,0.9,1.6,1.3,2.2
			c-1.1,0.1-1.5,0.6-2.2,1l0.1,0.1l2.2-0.3c0.1,0.5,0.2,1.3,0.2,1.5c0,0.2,0.1,1-0.8,1.3c-0.9,0.3-1.6,1.5-1.6,0.9
			c-0.1-0.6-0.6-1.4-1-2.1l-0.2,0.1l0.3,2.4c-0.7,0-1.6,0.1-2.3,0.1c-0.5-0.8-0.9-1.5-1.4-2.3c0.8-0.3,1.5-0.5,2.4-1.2L22.7,68
			c-1.2,0-1.9,0.2-2.7,0.4c0-0.5,0-0.9,0-1.4c0,0-0.4-1.2,0.2-1.4c0.6-0.3,1.5-0.9,2-1.2c0.1,0.5,0.7,1.7,1.2,2.6l0.2-0.1L23.1,64.4
			L23.1,64.4z M24,65.3c0,1,0.2,1.5,0.2,1.5c0.3-0.1,0.7-0.3,1.3-0.9C25,65.8,24.5,65.6,24,65.3L24,65.3z M26.1,68.3
			c-1,0-1.5,0-1.5,0c0.1,0.3,0.3,0.7,0.8,1.4C25.5,69.2,25.7,68.8,26.1,68.3L26.1,68.3z M23.2,70.4c0-1-0.1-1.5-0.1-1.5
			c-0.3,0.1-0.7,0.3-1.3,0.9C22.2,69.9,22.7,70,23.2,70.4L23.2,70.4z M21.1,67.4c1,0,1.5-0.1,1.5-0.1c-0.1-0.3-0.3-0.7-0.8-1.4
			C21.6,66.4,21.4,66.9,21.1,67.4z"/>
		<path id="XMLID_246_" class="st1" d="M21.1,73.6c-0.3,0.4-1.6,0.2-1.3-0.6c0.3-0.8,0.9-1.3,1.8-1.2c0.9,0.1,1.2,1.1,1,1.7
			c-0.2,0.6-0.4,0.9-0.9,0.7C21.2,74,21.1,73.6,21.1,73.6z"/>
		<path id="XMLID_245_" class="st1" d="M26.5,61.9c0.4-0.3,1.6,0.3,1.1,1c-0.5,0.7-1.2,1-2,0.6c-0.9-0.4-0.8-1.5-0.5-2
			c0.3-0.5,0.6-0.7,1-0.4C26.5,61.5,26.5,61.9,26.5,61.9z"/>
		<path id="XMLID_244_" class="st13" d="M21.9,93c0.4-0.2,0.6-0.2,1.8-1.3c1.2-1.1,3.3-4.8,3.7-8.9"/>
		<path id="XMLID_243_" class="st13" d="M19.8,94.3c0,0-0.3-1.5,0.1-1.9c0.5-0.3,1.8-0.4,1.8,0.4c0,0.2,0.1,0.5,0.3,0.4"/>
		<path id="XMLID_242_" class="st13" d="M19.8,92.2l2.4-1.8c0,0-0.5,0-0.3-0.2c0.3-0.3,1-0.5,0.8-1c-0.3-0.9-1.2-0.9-1.9-0.2
			l-2.3,1.9C18.1,91.2,19.2,92.6,19.8,92.2z"/>
		<path id="XMLID_241_" class="st13" d="M17.8,88.9l1.8-1.4c2-1.6,2.7,0.3,1.4,1.2l-2.6,1.8C18.1,91,17.1,89.5,17.8,88.9z"/>
		<path id="XMLID_240_" class="st13" d="M18.4,88.4l1.7-1.2c1.8-1.3,0.5-2.1-0.3-1.6l-2.2,1.3C17,87.5,17.4,89.1,18.4,88.4z"/>
		<path id="XMLID_239_" class="st13" d="M17.4,84.8l1.5-0.6c1.5-0.6,1.7,0.9,0.9,1.4l-2.2,1.3C17,87.5,16.9,85,17.4,84.8z"/>
		<path id="XMLID_238_" class="st8" d="M22.6,88.7c0,0,0.2-0.3,0.1-1.1l0.6-1.2l-0.2,0l-1.3,2L22.6,88.7z"/>
		<path id="XMLID_237_" class="st13" d="M18.9,84.3c0,0,4.2-2.5,6-1.8c1.7,0.7,2.2,1.9,2.1,3"/>
		<path id="XMLID_236_" class="st11" d="M18.9,84.3c0,0.5,0,1,0.4,1.5"/>
		<path id="XMLID_235_" class="st11" d="M19.4,85.7c0,0.5,0.4,1.2,0.8,1.2"/>
		<path id="XMLID_234_" class="st11" d="M20.1,87.1c0,0.5,0.6,1.3,0.9,1.4"/>
		<path id="XMLID_233_" class="st11" d="M20.6,88.9c0,0.5,0.7,1.1,1,1.2"/>
		<path class="st8" d="M39.1,56.1c0,0-6.1,4.2-8.4,10.1s-1.9,13.5-2.3,16.1c-0.4,2.6-1.4,7.4-5.1,11.2l2.2,1.8l0.5,0.5l1.2,0
			l0.2-2.9l1.8-0.6l-0.6-1.8l2.6-1.3l-1.5-2.6l1.8-0.7l-0.9-1.8l1.7-1.5l-1.4-2.3l1.5-1.1l-1.3-1.5l1.8-1.8L32,74l1.3-0.9l-1-1.5
			l1.6-1.3l-0.5-2.2c0.6-0.2,1-0.2,1.3-0.6l-0.6-1.4l1.8-0.5l-0.5-2.2l2-0.1l-0.5-2l2.1-0.2l0.6-2.2l1.7,0.4l0.5-2.7L39.1,56.1
			L39.1,56.1z M24.9,92.4l0.9-1c0,0,1,0.9,1.1,1.5c0,0.7-0.1,1.9-0.1,2.1c0,0.2-0.7,0.4-1.2,0.3C25.1,95.2,25.2,93.3,24.9,92.4
			L24.9,92.4z M27.8,87.4l0.5-1.5c0.2,0.1,1,0.5,1.3,1.2l1,2.1l-2.6,1.3c-0.2,0.1-1,0-1.5-0.1L27,89c0.6-0.3,1.5-0.4,2.1-0.4
			C28.5,88.3,28.1,87.8,27.8,87.4L27.8,87.4z M28.9,81.5l0.2-1.8c0.2,0,0.6-0.2,1.1,0.5l1.6,2.3L30,84.1c-0.1,0.1-0.8,0.3-1.4,0.3
			l0.2-1.4c0.5-0.4,1-0.7,1.5-0.8C29.8,82,29.3,82,28.9,81.5L28.9,81.5z M29.4,74.7l0.2-1.7c0.2,0,1.5,0.4,1.8,1l1,1.7l-1.7,1.9
			c-0.1,0.1-1,0.1-1.5,0.2l0.2-1.5c0.5-0.4,1.4-0.5,2-0.6C30.6,75.6,29.8,75,29.4,74.7L29.4,74.7z M30.6,68.6l0.5-1.7
			c0.2,0.1,1.4,0.6,1.6,1.3l0.7,2l-2.1,1.7c-0.1,0.1-0.9,0.2-1.5,0.1l0.4-1.7c0.6-0.3,1.2-0.5,1.8-0.5
			C31.3,69.5,30.9,69.1,30.6,68.6L30.6,68.6z M37.6,58.1l1.3-1.2c0.1,0.2,0.5,0.8,0.3,1.5L38.7,61l-2.5,0.1c-0.6,0-0.7-0.2-1.2-0.6
			l1.3-1.3L38,60L37.6,58.1L37.6,58.1z M33.1,63.2l1-1.6c0.2,0.1,0.7,0.8,0.8,1.5l0.3,2.5l-2.5,0.9c-0.6,0.2-0.7,0.1-1.3-0.1
			l0.8-1.7c0.6-0.1,1.2-0.1,1.8,0.1C33.4,64.4,33.1,63.9,33.1,63.2L33.1,63.2z M39.4,56.5c0,0,0.8,0.3,1.6,0.7
			c0.5,0.3,0.2,0.6,0,0.6C40.2,57.5,39.7,57.2,39.4,56.5z"/>
		<path id="XMLID_223_" class="st14" d="M42.5,60.6c-0.5,0-6.1,4.1-7.1,8.5c-1,4.4-1.4,12-2.2,16.6c-0.8,4.6-3.9,10.2-6.1,11.6"/>
		<path id="XMLID_222_" class="st14" d="M42.9,61.9c-1.9,0.8-6.4,5-7.1,9.3c-0.7,4.3-0.6,9.2-1.1,13.3"/>
		<path id="XMLID_221_" class="st7" d="M36.4,69c1.3,0.8,2.3,3,2.2,5.2c-0.2,2.5-1.7,4.7-3.6,4.9"/>
		<path id="XMLID_220_" class="st15" d="M35.2,77.5c0.1-2.1,0.3-4.3,0.6-6.3c0-0.3,0.1-0.5,0.2-0.8c0.6,0.9,1,2.2,0.9,3.5
			C36.7,75.4,36.1,76.7,35.2,77.5z"/>
		<g>
			<path id="XMLID_219_" class="st8" d="M37.9,82l-0.5-0.9l1-0.6c-0.3-0.4-0.7-0.7-1.1-0.8c-0.9-0.2-1.5,0.5-1.5,1.5
				c0,0.3,0.1,0.6,0.1,0.8l0.9-0.6l0.4,0.8c-0.7,0.2-1.4,0.4-2.1,0.4c-0.1,0-0.2,0-0.3,0c0,0.6-0.1,1.2-0.2,1.8c0.3,0,0.5,0,0.8,0
				c5,0,9.2-4.8,9.2-10.8c0-4.1-2-7.7-4.9-9.5c-0.5,0.5-1.1,1.2-1.6,1.8c1,0.6,1.8,1.4,2.5,2.4L40,69l-0.7-0.7
				c-0.3,0.3-0.5,0.5-0.6,0.9c-0.1,0.8,0.5,1.3,1.4,1.3c0.3,0,0.5-0.1,0.7-0.2l-0.5-0.8l0.8-0.5c0.5,0.9,0.9,1.9,1.1,2.9L41.2,72
				l-0.2-1c-0.5,0.1-0.7,0.2-1,0.6c-0.5,0.7-0.3,1.5,0.6,2c0.2,0.1,0.6,0.2,0.8,0.2l-0.1-1l1-0.1c0.1,0.4,0.1,0.9,0.1,1.4
				c0,0.5,0,1.1-0.1,1.6l-1.1-0.1l0.2-1.2c-0.5-0.1-0.9,0-1.2,0.3c-0.7,0.6-0.7,1.4,0,2.1c0.2,0.2,0.5,0.3,0.7,0.4l0.2-1l1,0.1
				c-0.3,1.2-0.8,2.3-1.4,3.3l-0.8-0.7l0.6-0.9c0-0.1-0.6-0.4-0.8-0.3c-0.9,0.1-1.5,0.9-1.3,1.9c0.1,0.3,0.2,0.6,0.4,0.8l0.7-0.9
				l0.9,0.7C39.6,80.9,38.8,81.6,37.9,82z"/>
			<path id="XMLID_218_" class="st8" d="M36.8,68.3c0,0,1.3,0.2,1.8-0.5c0.3-0.4-0.9-0.9-0.9-1L36.8,68.3z"/>
		</g>
		<g>
			<path id="XMLID_217_" class="st10" d="M26.7,107.3c0,0.9-0.8,1.6-1.7,1.6c-1,0-1.7-0.7-1.7-1.6c0-0.9,0.8-1.6,1.7-1.6
				C25.9,105.7,26.7,106.4,26.7,107.3z"/>
			<path id="XMLID_216_" class="st10" d="M22.4,111.6c-0.9,0-1.7-0.8-1.7-1.8c0-1,0.8-1.8,1.7-1.8c0.9,0,1.7,0.8,1.7,1.8
				C24.1,110.8,23.3,111.6,22.4,111.6z"/>
			<ellipse id="XMLID_215_" class="st10" cx="19.7" cy="107.5" rx="1.7" ry="1.6"/>
			<path id="XMLID_214_" class="st10" d="M22.1,103.2c0.9,0,1.6,0.8,1.6,1.8c0,1-0.7,1.8-1.6,1.8c-0.9,0-1.6-0.8-1.6-1.8
				C20.5,104,21.2,103.2,22.1,103.2z"/>
		</g>
		<path id="XMLID_213_" class="st6" d="M45.9,15.3c0.2,7.3,0.7,15.6,1.9,19.1c1.2,3.5,3.2,7,7.8,5.8c4.6-1.2,7.5-5.3,7.9-6.3"/>
		<path id="XMLID_212_" class="st7" d="M44.8,38.7c0,0,4.3,2,7.1,2.4c2.8,0.4,8.7,0.6,11.4-0.9"/>
		<path id="XMLID_211_" class="st7" d="M42.1,40.4c0,0,5.9,3,10,3.4c4.1,0.5,8.2,0.4,11.7-0.9"/>
		<path id="XMLID_210_" class="st7" d="M40.6,41.3c0,0,5.7,3.4,10.7,3.9c5,0.5,9.7,0.2,13.1-1.1"/>
		<path id="XMLID_209_" class="st7" d="M48.8,36.7c-1,0.6-8,4.1-14.7,8.4C25.5,50.7,17,58.4,17,58.6"/>
		<path id="XMLID_208_" class="st7" d="M65.3,35.7c0,0-2.2,1.6-1.9,5.2c0.3,3.6,2.9,4.8,4.2,5"/>
		<path id="XMLID_207_" class="st7" d="M42.3,55c-4.5-1.8-8.8-4.5-11.9-7.1"/>
		<polygon id="XMLID_206_" class="st16" points="60.8,15.3 68.8,51 73.6,50.1 62.2,15.5 		"/>
		<polygon id="XMLID_205_" class="st17" points="65.4,15.3 72.9,37.2 69.7,38.2 62.2,15.5 		"/>
		<ellipse id="XMLID_204_" class="st18" cx="43.4" cy="55.1" rx="0.9" ry="0.9"/>
		<ellipse id="XMLID_203_" class="st18" cx="58.2" cy="56.9" rx="0.9" ry="0.9"/>
		<path id="XMLID_202_" class="st18" d="M43.9,57.1c0.5,0,0.9,0.4,0.9,0.9c0,0.5-0.4,0.9-0.9,0.9c-0.5,0-0.9-0.4-0.9-0.9
			C43,57.5,43.4,57.1,43.9,57.1z"/>
		<ellipse id="XMLID_201_" class="st18" cx="57.2" cy="59.9" rx="0.8" ry="1"/>
		<ellipse id="XMLID_200_" class="st18" cx="44.3" cy="60.9" rx="0.8" ry="0.8"/>
		<path id="XMLID_199_" class="st18" d="M56.7,61.6c-0.5,0-0.8,0.4-0.8,0.9c0,0.5,0.4,0.9,0.8,0.9c0.5,0,0.8-0.4,0.8-0.9
			C57.5,62,57.1,61.6,56.7,61.6z"/>
		<ellipse id="XMLID_198_" class="st18" cx="44.8" cy="63.7" rx="0.7" ry="0.7"/>
		<ellipse id="XMLID_197_" class="st18" cx="55.9" cy="65" rx="0.7" ry="0.8"/>
		<ellipse id="XMLID_196_" class="st18" cx="45.1" cy="66.1" rx="0.6" ry="0.6"/>
		<ellipse id="XMLID_195_" class="st18" cx="55.2" cy="67.4" rx="0.6" ry="0.8"/>
		<path id="XMLID_194_" class="st18" d="M54.7,70.3c0.3,0,0.5-0.3,0.5-0.6c0-0.3-0.2-0.6-0.5-0.6c-0.3,0-0.5,0.3-0.5,0.6
			C54.1,70,54.4,70.3,54.7,70.3z"/>
		<ellipse id="XMLID_193_" class="st18" cx="53.8" cy="72" rx="0.4" ry="0.5"/>
		<path id="XMLID_192_" class="st7" d="M31.8,46.7c0,0,9.3,7.8,19.3,8.5c10,0.6,15.4-2,19.2-3.3"/>
		<line id="XMLID_191_" class="st9" x1="22.4" y1="110.2" x2="22.4" y2="104.8"/>
		<line id="XMLID_190_" class="st9" x1="19.7" y1="107.5" x2="25" y2="107.5"/>
		<ellipse id="XMLID_189_" class="st12" cx="22.3" cy="107.5" rx="1" ry="1.1"/>
		<path id="XMLID_188_" class="st1" d="M71.7,128c-0.1-0.5-0.2-1.1-0.3-1.6c-0.1-0.9-0.8-1.4-1.1-0.1c-0.1,0.3-0.2,0.8-0.3,1.4
			c-0.8,4.2-6.9,3.4-7.6-0.1c-0.7-3.4,0.3-6.2,3.3-10.1c3-3.9,4.4-6.4,5.1-8.8c0.6,3.1,6.2,9.9,7.7,13.1c1.5,3.1,1,7.2-1.4,8.3
			C74.9,131.1,72,130,71.7,128z"/>
		<path id="XMLID_187_" class="st4" d="M21.4,135.6c1.2-7.5,0.5-15.1-1.5-21.9c2.4,0.6,4.7,0.7,6.7-0.1l-0.1,0l7.5,22H21.4z"/>
		<path id="XMLID_186_" class="st5" d="M57.4,111.5c-0.1,5.3-3.4,9.1-4.7,10.4c0.2,1.9,0.3,4.2,0.4,6.3c3.8-2.2,10-10.7,9.9-20
			L57.4,111.5z"/>
		<path id="XMLID_185_" class="st6" d="M51.9,135.9c0-0.1,0.7-1.6,1.8-1.5"/>
		<path id="XMLID_184_" class="st6" d="M41.7,135.9c0-0.2-1.5-1.7-3.3-1.7"/>
		<path id="XMLID_183_" class="st6" d="M50.3,135.9c0,0,2-2.7,3.3-2.8"/>
		<path id="XMLID_182_" class="st6" d="M43.4,135.8c0,0-2.9-3.1-5.3-3.2"/>
		<path id="XMLID_181_" class="st6" d="M49.1,135.9c0-0.4,3.1-4.1,4.4-4"/>
		<path id="XMLID_180_" class="st6" d="M44.8,135.9c-0.7-1.9-3.8-4.7-7-4.8"/>
		<path id="XMLID_179_" class="st6" d="M47.6,135.9c0.1-0.6,3.3-4.8,5.8-5.3"/>
		<path id="XMLID_178_" class="st6" d="M46,135.9c-0.4-2.1-5.1-6.3-8.6-6.1"/>
		<path id="XMLID_177_" class="st7" d="M36.6,126.5c0.3,0,2.3-2.7,1.2-5.7c-1.1-3-2.2-3.6-3.4-4.1"/>
		<path id="XMLID_176_" class="st7" d="M36,124.5c0,0,0.7-1.3,0.5-2.9c-0.2-1.5-1-2-1.7-2.6"/>
		<path id="XMLID_175_" class="st7" d="M33.7,113.7c0,0,0.7-1.5,0.5-3c-0.2-1.5-1.3-2.5-2.1-3.1"/>
		<path id="XMLID_174_" class="st7" d="M51.3,116.1c0.6-0.5,1-1.4,1-2.2"/>
		<path id="XMLID_173_" class="st7" d="M51.7,117.1c0.6-0.3,1.9-2.2,1.8-3.8"/>
		<path id="XMLID_172_" class="st7" d="M52.2,118.9c1.4-1.1,3.2-3.7,3.2-6.5"/>
		<g>
			<path id="XMLID_171_" class="st5" d="M28.3,135.5c0.2-0.7,0.8-1.3,1.6-1.4c0.8-0.1,1.9,0.5,2.6,1.3c-0.2,0.1-0.5,0-0.7,0.1
				c-0.4-0.3-1-0.6-1.4-0.6c-0.3,0-0.7,0.2-0.9,0.8C29.2,135.6,28.5,135.5,28.3,135.5z"/>
			<path id="XMLID_170_" class="st5" d="M31.4,132.5c0-0.1-1.6,0.9-2.9,0.6c0.3-0.6,1.2-1.2,2.7-1.1c0-0.5-0.8-1.1-0.5-2.1
				c1,0.6,0.7,1.6,0.9,2.3c0.4,0.6,0.9,1.3,0.8,2.2C31.8,134,31.4,133.3,31.4,132.5z"/>
			<path id="XMLID_169_" class="st5" d="M28.6,124.1c0-0.1-1.6,0.9-2.9,0.6c0.3-0.6,1.2-1.2,2.7-1.1c0-0.5-0.8-1.1-0.5-2.1
				c1,0.6,0.7,1.6,0.9,2.3c0.4,0.6,0.9,1.3,0.8,2.2C29.1,125.7,28.6,125,28.6,124.1z"/>
			<path id="XMLID_168_" class="st5" d="M25.8,115.9c0-0.1-1.6,0.9-2.9,0.6c0.3-0.6,1.3-1.2,2.7-1.1c0.6,0.2,1.2,1.6,1.1,2.3
				C26.3,117.5,25.8,116.8,25.8,115.9z"/>
			<ellipse id="XMLID_167_" class="st5" cx="25.9" cy="129" rx="0.7" ry="0.7"/>
			<ellipse id="XMLID_166_" class="st5" cx="23.1" cy="120.6" rx="0.7" ry="0.7"/>
			<path id="XMLID_165_" class="st5" d="M28.1,130.7c-0.7-0.4-0.6-0.9-0.5-1.2c0.1-0.2-0.8,0-0.7,1c0.1,1,1.3,1.8,2,1
				c0.8-0.8,1.3-1.6,1.5-3.7c-0.8-0.9-1.7-2.2-3-2.4c-1.3-0.2-1.8,1-1.6,1.7c0.3,0.7,1,0.8,0.9,0.6c-0.1-0.2-0.2-1.2,0.6-1.4
				c0.8-0.2,2.2,0.9,2.4,1.2c0.1,0.3-1,0.7-1.1,0.4c-0.1-0.3-0.1-0.4-0.2-0.9c-0.7,0.5-0.7,1-0.1,1.5c0,0-0.5,1,0.8,1.2
				c-0.2-0.5-0.3-0.8,0.1-1c0.4-0.3,1-0.6,0.7,0.3C29.6,129.8,28.8,131.1,28.1,130.7z"/>
			<path id="XMLID_164_" class="st5" d="M25.3,122.4c-0.7-0.4-0.6-0.9-0.5-1.2c0.1-0.2-0.8,0-0.7,1c0.1,1,1.3,1.8,2,1
				c0.8-0.8,1.3-1.6,1.5-3.7c-0.8-0.9-1.7-2.2-3-2.4c-1.3-0.2-1.8,1-1.6,1.7c0.3,0.7,1,0.8,0.9,0.6c-0.1-0.2-0.2-1.2,0.6-1.4
				c0.8-0.2,2.2,0.9,2.4,1.2c0.1,0.3-1,0.7-1.1,0.4c-0.1-0.3-0.2-0.4-0.2-0.9c-0.7,0.5-0.7,1-0.1,1.5c0,0-0.5,1,0.8,1.2
				c-0.2-0.5-0.3-0.8,0.1-1c0.4-0.3,1-0.6,0.7,0.3C26.8,121.5,26,122.8,25.3,122.4z"/>
		</g>
		<path id="XMLID_163_" class="st8" d="M75.4,47.3c0.3,0.9,1,1.6,1.9,1.6c0.9,0,1.7-0.7,1.9-1.6h1.3V46c0.8-0.3,1.3-1.1,1.3-1.9
			c0-0.8-0.5-1.6-1.3-1.9v-1.7h-1.8c-0.4-0.6-1-1-1.8-1c-0.7,0-1.4,0.4-1.8,1h-1.3v1.8c-0.9,0.2-1.6,1-1.6,2c0,0.9,0.7,1.8,1.6,2v1
			H75.4z"/>
		<path id="XMLID_162_" class="st9" d="M76.7,48.6c0,0-0.1,5.3-0.1,6.7c0,1.4,0.3,3,0.3,3"/>
		<line id="XMLID_161_" class="st9" x1="78.1" y1="48.4" x2="77.9" y2="58.2"/>
		<path id="XMLID_160_" class="st10" d="M78,58.3v-4.6l3.2-4.4c0,0,0.5,2.5,0.2,4.2C81,55.2,79.6,58.1,78,58.3z"/>
		<path id="XMLID_159_" class="st10" d="M76.7,58.2c-1.1-0.2-1.6-0.8-2.3-1.5c-0.9-0.8-1.7-1.4-1.9-2.4c-0.2-1-0.4-1.4-0.4-1.4
			c0.1,0,1.2-0.2,2.6,1c1.4,1.2,1.6,1.5,2,1.8L76.7,58.2z"/>
		<path id="XMLID_158_" class="st9" d="M76.6,55.7c-0.4-0.3-0.6-0.6-2-1.8c-1.4-1.2-2.5-1-2.6-1c-0.1,0,0.2,0.4,0.4,1.4
			c0.2,1,1,1.6,1.9,2.4c0.9,0.8,1.8,1.6,3.5,1.6c1.7,0,3.2-3,3.5-4.7c0.4-1.7-0.2-4.2-0.2-4.2l-3.3,4.5"/>
		<path id="XMLID_157_" class="st8" d="M73.8,54.7c0,0,1.9,1.4,2.9,1.7v0.8C76.8,57.4,74.1,55.9,73.8,54.7z"/>
		<path id="XMLID_156_" class="st8" d="M80.2,52.5c0,0-1,2.6-2.3,3.8v0.8C77.8,57.3,80.4,54.5,80.2,52.5z"/>
		<path class="st8" d="M53.3,129.5c0,0-2.5,0.7-3.5,0.3c-1.1-0.4-2.4-1.6-2.2-3c0.2-1.4,1-4.8,1.2-5.6c0.2-0.8-0.4-0.8-1-1.2
			c-0.3-0.2-0.5,0-0.5,0.3c0,0.3-0.9,0.5-1.3,0.2c-0.9-0.6-1.2-0.5-1.4-0.4c-0.3,0.1-0.7,0.3-0.3,0.9c0.4,0.7-0.7-0.4-0.3-1.1
			c0.4-0.7,0.8-0.7,1.6-0.2s1.5,0.4,1.5-0.4c0-0.8,2,1,2,0.9s0.4,0.8,0.2,1.6c-0.3,0.8-0.5,2.4-0.5,2.4s0.6-0.5,1.2-0.9
			c0.5-0.4-0.7,1.3-0.7,1.3s-0.5,0.8,0.6,0.4c1.1-0.4,2.8-0.1,3.3,0.4L53.3,129.5L53.3,129.5z M52.4,128.2c-1.3,0.8-3.9-0.5-3.9-0.5
			s0.1,1.1,1.2,1.4c1.1,0.3,1.5,0.2,2.4-0.1C52.9,128.6,52.4,128.2,52.4,128.2L52.4,128.2z M52.5,127c-1.5,1.2-4-0.3-4-0.4
			c-0.1-0.1-0.2-0.1-0.3,0.4c0,0.3,0.9,0.6,1.6,0.7c0.7,0.2,1.4,0.2,2,0C52.5,127.6,52.5,127,52.5,127L52.5,127z M45,128.5
			c-0.8,1.3-5.3,0.2-6.3-0.8c0.8,1.2,3.5,2.1,4.3,2.2c0.8,0,1.8,0.1,2.5-0.7C46.2,128.4,45,128.4,45,128.5L45,128.5z M44.8,127
			c-1.2,2-5.1,0.8-5.9-0.4c0.7,1.1,2.8,1.8,3.6,1.8c0.8,0,2.1,0,2.7-0.7C45.8,127.1,44.8,126.8,44.8,127L44.8,127z M44.8,126.9
			c0,0,0-1.5,0.6-1.8c0.4-0.2-0.6,0-0.8-0.1l-2.5-1.6l-0.1,0.1l1.8,1.4c0,0,0.2,0.3-0.5,0.3c-0.7,0-1.2-0.2-1.8-0.1
			c-0.7,0.1-1.6,0.7-1.6,0.7s-0.4,0.3-1,0c-0.2,0.3,0.1,0.4,0.5,0.6c0.5,0.4,1.1,0.8,1.7,0.9C42.2,127.4,43.2,127.7,44.8,126.9
			L44.8,126.9z M52.2,126.5c0,0,0.4,0,0.3-0.3c-0.1-0.4-0.2-0.6-0.2-0.6c-0.1,0-0.2-0.2-0.5-0.1C51.8,125.6,52,126.1,52.2,126.5
			L52.2,126.5z M49.2,126.3c0-0.3,0.1-0.6,0.3-0.8c-0.5,0-0.8,0.4-0.9,0.6C48.4,126.4,49.2,126.3,49.2,126.3L49.2,126.3z M51,126.5
			l0.5-0.2c0,0-0.2-0.9-0.8-1c-0.6-0.1-1.2,0.3-1.2,1l0.5,0c0,0,0.1-0.4,0.4-0.4C50.9,125.9,51,126.4,51,126.5L51,126.5z
			 M42.7,126.5c0-0.1,0-0.7-0.6-0.7c-0.5,0-0.5,0.3-0.5,0.5c-0.1,0.2-0.5,0.3-0.5-0.1c0.1-1,0.8-1.1,1.4-1c0.6,0.1,0.7,1.2,0.7,1.2
			L42.7,126.5L42.7,126.5z M43.6,126.2c0,0.1,0.6,0.3,0.6-0.2c0-0.4,0.1-0.4,0-0.5c-0.1-0.1-0.4-0.1-0.6-0.1
			C43.6,125.7,43.6,125.9,43.6,126.2L43.6,126.2z M40.6,126.4c-0.2-0.2-0.5-0.5-0.5-0.5c0.2-0.2,0.5-0.4,0.8-0.3
			C40.8,125.8,40.7,126.1,40.6,126.4L40.6,126.4z M49,117.8c0-0.4-0.1-1-0.4-1.3c-0.1-0.1-0.6,0.1-0.9,0.2c-0.3,0.2-1.3-0.8-2-0.3
			c-0.7,0.4-1.4,0.2-1.4,0.2c-0.2,0-0.4-0.1-0.5-0.2h-0.2l0.1,1.2c0,0,0.3,0.2,0.6,0c0.3-0.2,0.7-0.3,1.4,0.1c0.3,0.2,0.6-0.2,1-0.2
			c0.2,0,0.6,0.2,0.8,0.3C48.2,117.6,49,117.1,49,117.8L49,117.8z M45,116.1c0.3-0.3,0.5-0.6,1.3-0.7c0.8,0,1.4,0.6,1.4,0.6
			s-0.5-0.2-1.2-0.3C45.9,115.6,45,116.1,45,116.1L45,116.1z M47.1,114.1c-0.3,0.2-0.6,0.2-1,0.2c-0.6-0.1-1.2-0.3-1.2-0.3
			s0.7,0.6,1.4,0.6c0.4,0,0.8,0,1-0.2C47.7,114,47.3,114,47.1,114.1z"/>
		<path id="XMLID_140_" class="st5" d="M81.8,93.9l-11.5,9.3c-1.8-1.9-7.4-5.7-9.6-6.7c2.8-2.5,6.7-4.7,8.9-12.2
			c2.2-7.5,1.3-9.1,2.1-14.4c0.6-4.1-0.2,0.9,4.9-0.1c0.9-0.2,2.5-1.3,3.8-1.7c1.3-0.4,1.4-0.6,1.4-0.7V93.9z"/>
		<path id="XMLID_139_" class="st11" d="M60.7,96.5c2.8-2.5,6.7-4.7,8.9-12.2c2.2-7.5,1.3-9.1,2.1-14.4l0.3-1.5"/>
		<path class="st5" d="M37.5,109.3l0.2,0.8c0.6-0.2,1.3-0.3,2.1-0.3l-0.2-0.8C38.9,109.1,38.2,109.2,37.5,109.3L37.5,109.3z
			 M36.8,110.4l-0.2-0.8c-0.3,0.1-0.5,0.2-0.8,0.3l0.2,0.8C36.2,110.6,36.5,110.5,36.8,110.4L36.8,110.4z M53.8,111.9
			c0.7,0.3,1.2,0.5,1.2,0.5l0.7-0.5c0-0.1-0.6-0.4-1.6-0.8L53.8,111.9L53.8,111.9z M51.2,110.9c0.6,0.2,1.2,0.5,1.7,0.7l0.3-0.8
			c-0.5-0.2-1.1-0.5-1.7-0.7L51.2,110.9L51.2,110.9z M48.8,110.2c0.5,0.1,1,0.3,1.6,0.4l0.3-0.8c-0.6-0.2-1.2-0.4-1.7-0.5
			L48.8,110.2L48.8,110.2z M48,110c-0.1,0-0.2,0-0.3,0c-0.4-0.1-1-0.1-1.5-0.2l0-0.8c0.6,0,1.1,0.1,1.6,0.1c0.1,0,0.2,0,0.3,0
			L48,110L48,110z M43.1,109.6c0.8,0,1.6,0,2.3,0.1l0-0.8c-0.7,0-1.5-0.1-2.3-0.1L43.1,109.6L43.1,109.6z M40.5,109.7
			c0.6,0,1.2-0.1,1.8-0.1l-0.1-0.8c-0.6,0-1.3,0-1.9,0.1L40.5,109.7z"/>
		<path id="XMLID_130_" class="st10" d="M67.6,104.9c0,0-9.3-7.8-19.3-8.5c-10-0.6-15.5,1.9-19,3.2c-0.3,3.4,2.5,5.5,5.2,7.5
			c0.8,0.6,1.5,2.9,1.7,4.3c2.7-1.5,8.6-1.3,11.4-0.9c2.8,0.4,7.1,2.4,7.1,2.4L67.6,104.9z"/>
		<path id="XMLID_129_" class="st1" d="M67.9,105c0,0-4.4-3.6-10.3-6.1l-0.3-2c4.3,1.7,8.5,4.1,11.6,6.8L67.9,105z"/>
		<path class="st5" d="M33.2,100.2c-0.9,0.3-1.7,0.6-2.4,0.8l1.5,1.1L33.2,100.2L33.2,100.2z M40.6,98.7c-1.3,0.1-2.5,0.3-3.6,0.5
			l2,1.8L40.6,98.7L40.6,98.7z M47.8,98.6c-1.2-0.1-2.3-0.1-3.3-0.1l1.6,2L47.8,98.6L47.8,98.6z M55.5,100.1
			c-1.3-0.4-2.6-0.8-3.9-1.1l1.4,2.8L55.5,100.1L55.5,100.1z M61.8,103.1c-1-0.6-2.1-1.1-3.3-1.7l0.7,2.7L61.8,103.1L61.8,103.1z
			 M66.4,106c-0.5-0.4-1.1-0.8-1.8-1.3l0.1,2.2L66.4,106z"/>
		<path class="st5" d="M47.9,106.4c0.1,0,0.1,0,0.2,0c0.3,0,0.6,0.1,0.9,0.1c0-0.2,0.1-0.3,0.1-0.5l3.1-2l1.8,3.4c0.1,0,0,0.3,0,0.5
			c0.2,0.1,0.3,0.1,0.5,0.2c0.2-0.3,0.3-0.4,0.3-0.4l3.3-1.3l1,3.1l0.7-0.4l-0.9-3.2l3.9-1.6l0.2,3.4l0.9-0.4l-0.1-3.2
			c-0.3-0.2-0.7-0.4-1.1-0.7l-4,1.6l-1.1-4.2c-0.3-0.1-0.6-0.3-1-0.4l-4.1,2.5l-2.4-4.3c-0.4-0.1-0.8-0.1-1.2-0.1l-3,3.2l-2.5-3.3
			c-0.4,0-0.8,0-1.2,0.1l-2.8,3.7l-3.8-2.7c-0.4,0.1-0.8,0.2-1.2,0.3l-1.6,3.6l-2.4-1.6l0.3,1.3l1.8,1.2l-0.7,1.4l0.9,0.1l0.4-1.1
			l3.3,2.2c0.3-0.1,0.6-0.2,0.8-0.2l2.2-3.4l2.9,2.5c0.3,0,0.6,0,0.9-0.1l2.5-2.7l2,2.8C47.9,105.9,47.9,106.1,47.9,106.4
			L47.9,106.4z M42.7,103.9c-0.6,0-1.1-0.5-1.1-1.1c0-0.6,0.5-1.1,1.1-1.1c0.6,0,1.1,0.5,1.1,1.1C43.8,103.3,43.3,103.9,42.7,103.9
			L42.7,103.9z M35.9,104.8c-0.6,0-1.1-0.5-1.1-1.1c0-0.6,0.5-1.1,1.1-1.1c0.6,0,1.1,0.5,1.1,1.1C37,104.3,36.5,104.8,35.9,104.8
			L35.9,104.8z M48.9,104c-0.6,0-1.1-0.5-1.1-1.1c0-0.6,0.5-1.1,1.1-1.1c0.6,0,1.1,0.5,1.1,1.1C50,103.5,49.5,104,48.9,104L48.9,104
			z M55.3,105.6c-0.6,0-1.1-0.5-1.1-1.1c0-0.6,0.5-1.1,1.1-1.1s1.1,0.5,1.1,1.1C56.4,105,55.9,105.6,55.3,105.6L55.3,105.6z
			 M61,108.1c-0.6,0-1.1-0.5-1.1-1.1c0-0.6,0.5-1.1,1.1-1.1c0.6,0,1.1,0.5,1.1,1.1C62.2,107.6,61.7,108.1,61,108.1L61,108.1z
			 M57.9,105.5l-3.4,1.4l-1.6-3l3.8-2.3L57.9,105.5L57.9,105.5z M51.8,103.5l-3.2,2l-2.1-3l3.1-3.1L51.8,103.5L51.8,103.5z
			 M45.3,102.5l-2.3,2.6l-2.9-2.3l2.8-3.7L45.3,102.5L45.3,102.5z M38.9,103.1l-2.3,3.1l-3.1-2.1l1.7-3.7L38.9,103.1L38.9,103.1z
			 M41.4,106.2c-1,0.1-2.1,0.2-3,0.3c0,0-0.1-0.1-0.1-0.1l1.3-2l1.5,1.5C41.3,106.1,41.3,106.2,41.4,106.2L41.4,106.2z M47.1,106.3
			c-0.9-0.1-1.9-0.1-2.8-0.1c0-0.1,0.1-0.2,0.2-0.4l1.2-1.4l1.1,1.4C47,106,47.1,106.2,47.1,106.3L47.1,106.3z M52.6,107.4
			c-0.8-0.3-1.7-0.5-2.6-0.7l0.3-0.4l1.5-1.1l0.7,1.7C52.6,107.1,52.6,107.3,52.6,107.4L52.6,107.4z M57.7,109.7
			c-0.6-0.3-1.3-0.7-2.3-1.1c0.1-0.2,0.2-0.3,0.3-0.4l1.6-0.8l0.4,1.8C57.8,109.3,57.8,109.5,57.7,109.7z"/>
		<path id="XMLID_108_" class="st8" d="M52.5,94.7c0,0,1.4-1.5,0.7-3.5c-0.7-2-1.4-3.1-1.4-3.1s0.4-0.3,0.6-0.6
			c0.4-0.4,0.3-0.8-0.2-0.6c-0.8,0.3-0.4,0.9-1.6,0.1c-1.2-0.7-2.9-1.2-3.5-3c-0.6-1.8,1.6-4.3,3.5-2.1c1.9,2.2,0.5,3.2,0.4,3.3
			c-0.3,0.3-0.2-0.3-0.9-0.4c-0.7-0.1-0.9,0.8-0.3,1c0.6,0.2,1.9,0.1,2.1-1.3c0.2-1.4-0.3-2.2-1.3-3.1c-1.1-0.9-2.3-0.8-2.9-0.8
			c-0.3,0-0.2-0.5-0.4-0.6c-0.3-0.1-0.7,0.7-0.6,1.1c0.3,1.1,0.1,0.9-0.2,1.2c-0.3,0.3-0.2,2.2,0.6,2.9c0.9,0.9-0.9,0.1-1.2,0.9
			c-0.2,0.5,0.1,0.7,0.5,0.6c0.4-0.1,0.8-0.2,1-0.2c1.7-0.2,3.3,0.9,4.1,2.3c0.8,1.3,1.3,3.1,0.6,4.7c-0.8,1.6-1.6,2-3.4,2
			c-1.8-0.1-3.4-1.9-3.5-3.7c-0.1-1.8,1.5-3.6,2.4-2.8c0.9,0.8,1.7,0,1.2-0.8c-0.5-0.8-1.3-0.9-2.3-0.6c-0.9,0.3-2,2.3-1.9,3.4
			c0.1,1.2,0.3,2.3,0.3,2.3s-1.3,0.1-1.3,0.9c0,0.8,0.4,1.4,1,0.8c0.6-0.6,0.4-1.1,1.2-0.4c0.8,0.7,2.4,1.3,4,1.2s1.8-0.7,2-0.4
			c0.2,0.2,0.2,1.1,1.2,1.3c1,0.2,1.3-1.2,0.6-1.1C52.7,95.8,52.8,95,52.5,94.7z"/>
		<g>
			<path id="XMLID_107_" class="st1" d="M46.3,89.9c0.3,0.2,0.6,0.2,1,0c0,0-0.5,0.6-0.8,0.5C46.2,90.4,46,90,46.3,89.9z"/>
			<path id="XMLID_106_" class="st1" d="M48.1,84.4c0.2,0,0.5-0.1,0.9,0.1c0,0-0.4-0.5-0.7-0.5C47.9,84,47.9,84.5,48.1,84.4z"/>
			<path id="XMLID_105_" class="st1" d="M51,84.5c-0.2,0-0.4-0.1-0.7,0.1c0,0,0.3-0.4,0.6-0.4C51.1,84.1,51.2,84.5,51,84.5z"/>
			<path id="XMLID_104_" class="st1" d="M48,83c0.2,0,0.5,0,0.8,0.4c0,0-0.3-0.8-0.6-0.9C47.9,82.4,47.8,83,48,83z"/>
			<path id="XMLID_103_" class="st1" d="M50.6,83.4c-0.2,0-0.4,0.2-0.7,0.5c0,0,0.1-0.9,0.5-1.1C50.9,82.7,50.8,83.4,50.6,83.4z"/>
			<path id="XMLID_102_" class="st1" d="M49.7,82.8c-0.2,0.2-0.2,0.6-0.3,1.2c0,0-0.6-1.1-0.3-1.7C49.5,81.8,49.9,82.6,49.7,82.8z"
				/>
			<path id="XMLID_101_" class="st1" d="M46.3,91.1c0.7-0.1,1-0.4,1.4-0.9c0,0-0.2,1.1-0.9,1.3C46.1,91.8,45.9,91.3,46.3,91.1z"/>
			<path id="XMLID_100_" class="st1" d="M47,92.4c0.8-0.2,1.2-1.3,1.4-1.9c0,0-0.2,1.8-0.9,2.3C46.9,93.3,46.2,92.7,47,92.4z"/>
			<path id="XMLID_99_" class="st1" d="M48.2,93.3c0.7-0.5,0.7-1.6,0.7-2.2c0,0,0.4,1.7,0,2.3C48.4,94.1,47.5,93.8,48.2,93.3z"/>
			<path id="XMLID_98_" class="st1" d="M50.5,93.7c-0.7-0.1-1-0.9-1.2-1.4c0,0,0.2,1.4,0.8,1.7C50.5,94.4,51.1,93.8,50.5,93.7z"/>
			<path id="XMLID_97_" class="st1" d="M51,92.3c-0.7,0.1-1.2-0.6-1.5-1c0,0,0.6,1.3,1.2,1.5C51.2,93,51.7,92.2,51,92.3z"/>
			<path id="XMLID_96_" class="st1" d="M50.8,90.4c-0.6,0.4-1.5-0.3-1.9-0.6c0,0,0.8,1.5,1.9,1.5C51.9,91.2,51.5,90,50.8,90.4z"/>
			<path id="XMLID_95_" class="st1" d="M50.7,89.3c-0.4,0.3-0.9-0.2-1.2-0.4c0,0,0.5,1,1.2,0.9C51.4,89.8,51.1,89,50.7,89.3z"/>
		</g>
		<path id="XMLID_94_" class="st7" d="M29.5,100.8c0,0-0.8-2.7-2.1-3.6"/>
		<path id="XMLID_93_" class="st8" d="M57.7,99L54.8,82c-1-0.1-9.4-3.8-10.2-4.8c-0.9-0.6-0.6,0.4-0.6,0.5l0.8,0.5l-6.3,18.7
			l3.9-0.6l4.5-17.1c1.9,1,3.6,1.8,5.6,2.7l2.1,15.8L57.7,99z"/>
		<path id="XMLID_92_" class="st12" d="M44,77.7l0.8,0.5l-6.3,18.7l-1.8,0.2l0.8-12.9C40.5,83.7,44.2,77.8,44,77.7z"/>
		<line id="XMLID_91_" class="st9" x1="39.2" y1="95.2" x2="36.8" y2="95.5"/>
		<line id="XMLID_90_" class="st9" x1="39.6" y1="93.3" x2="37" y2="93.8"/>
		<path id="XMLID_89_" class="st5" d="M54.6,81.7c-3.3-1.2-6.8-2.8-10.1-5l0.3-1.8l1.3,1.1l0.5-0.4l1.9,2l0.7-0.4l1.7,1.7l0.6-0.4
			l2.1,1.3l0.4-0.2C53.8,79.5,54.2,81.5,54.6,81.7z"/>
		<path id="XMLID_88_" class="st7" d="M61.4,96.5c0,0-2.1-1.3-4.6-1.9"/>
		<path class="st10" d="M74.5,91.6L74,92.3c0.3,0.3,0.7,0.3,0.9,0.8c-0.5-0.1-0.9,0-1.4,0.2c-0.5,0.2,0.6,0.7,0.8,1.4
			c0.2,0.7,0.6,1,1,1c0.7,0-0.3,2.1-1.5,2c-1.2-0.1-0.9-0.6-0.8-1.2c0.1-0.6,0-1.7-0.8-2c-0.7-0.3,0.2,0.9-0.6,1.1
			c-0.7,0.2-1-0.2-0.8-1.3c0.2-1.1,0.3-1.2,1.1-1.8c0.7-0.6,1.1-1.4,1.1-1.4l-0.6-0.8c0,0-0.6-0.3-1.3,0.6c-0.6,0.9-1.3,2.5-1.5,3.8
			c-0.2,1.3-1.5,2.6-2.5,2.6c-1-0.1-1.4-0.8-1.5-1.6c-0.1-0.8,0.2-1.1,0.6-1c0.4,0.1,0.6,0.4,0.6,0.4s-0.3,1.3,0.1,1.5
			c0.4,0.2,1.3,0.2,1.1-1.2c-0.1-1.3-0.5-1.4-0.2-2c0.3-0.6,1-0.4,1.1,0.2c0,0.5,0.8-0.9,0.1-1.4c-0.6-0.5-1.4-0.3-1.9,1.3
			c-0.3,0.9,0,0.5-0.9,0.2c-1-0.3-1.8,0.9-1.7,2.5c0.1,1.6,1,2,1.5,2.1c0.5,0.2,1.9-0.1,2.7-1c0.8-0.9,1-1,1-1s0.7,1.8,1.9,2.2
			c1.2,0.4,1.3,0.5,2.5,0.1c1.1-0.4,1.7-1.4,1.9-2.3c0.1-0.4,1.1-1,1-1.8C77.2,94,77,93.5,77,93.1c0.1-0.4,0.4-0.5,0.1-0.7
			c-0.8,0-1.5,0.6-1.5,0.6C75.3,92.4,74.9,92,74.5,91.6L74.5,91.6z M72.7,77.5l-0.8,0.7c0,0-0.3-0.5,0-1.3c0.2-0.7,1.1-1.3,1.1-1.3
			s-0.3-1.3,0-2.3c0.3-1,1.5-2.2,2.7-2.1c1.2,0,2.5,0.6,2.4,0.5c-0.1-0.1,0.4-1.7,1.4-2.1c1-0.3,2,0.3,2.2,1.4
			c0.1,1.1-0.2,1.5-0.9,1.5c-0.8,0-1-0.7-0.9-1.2c0.1-0.4,0-0.5,0.6-0.5c0.6,0,0.5-0.5-0.3-0.6c-0.8-0.1-1.2,0.8-0.9,1.7
			c0.2,0.9,0.9,2.6,0.7,3.4c-0.2,0.8-0.8,1.7-0.8,1.7s-0.8-2.2-1.2-2.4c-0.4-0.2-0.7-0.3-0.9,0.5c-0.1,0.5-1.1-0.1-0.9-0.8
			c0.2-0.6,1-1,0.6-1.7c-0.5-0.8-1.9-0.5-2.5,0c-0.5,0.5-0.8,1.9,0.1,2.6c0.5,0.3,1.2,0.4,1.1,1.3c0,0.9-0.7,1-1.1,0.9
			C73,77.3,72.8,77.3,72.7,77.5L72.7,77.5z M76.3,87.2c-0.5,0.1-1.2,0.2-1.7,0.3c-0.3-0.1-0.5-0.1-0.7-0.3c-0.4-0.6-0.9-1.5-1.3-2.2
			c1.1-0.1,1.5-0.6,2.2-1L74.5,84l-2.2,0.3c-0.1-0.5-0.2-1.3-0.2-1.5c0-0.2-0.1-1,0.8-1.3c0.9-0.3,1.6-1.5,1.6-0.9
			c0.1,0.6,0.6,1.4,1,2.1l0.2-0.1l-0.3-2.4c0.7,0,1.6-0.1,2.3-0.1c0.5,0.8,0.9,1.5,1.4,2.3c-0.8,0.3-1.5,0.5-2.4,1.2l0.1,0.1
			c1.2,0,1.9-0.2,2.7-0.4c0,0.5,0,0.9,0,1.4c0,0,0.4,1.2-0.2,1.4c-0.6,0.3-1.5,0.9-2,1.2c-0.1-0.5-0.7-1.7-1.2-2.6l-0.2,0.1
			L76.3,87.2L76.3,87.2z M75.4,86.3c0-1-0.2-1.5-0.2-1.5c-0.3,0.1-0.7,0.3-1.3,0.9C74.4,85.8,74.9,86,75.4,86.3L75.4,86.3z
			 M73.3,83.3c1,0,1.5,0,1.5,0c-0.1-0.3-0.3-0.7-0.8-1.4C73.9,82.4,73.7,82.8,73.3,83.3L73.3,83.3z M76.2,81.2c0,1,0.1,1.5,0.1,1.5
			c0.3-0.1,0.7-0.3,1.3-0.9C77.2,81.7,76.8,81.6,76.2,81.2L76.2,81.2z M78.3,84.2c-1,0-1.5,0.1-1.5,0.1c0.1,0.3,0.3,0.7,0.8,1.4
			C77.8,85.2,78,84.7,78.3,84.2z"/>
		<path id="XMLID_80_" class="st1" d="M78.3,78c0.3-0.4,1.6-0.2,1.3,0.6c-0.3,0.8-0.9,1.3-1.8,1.2c-0.9-0.1-1.2-1.1-1-1.7
			c0.2-0.6,0.4-0.9,0.9-0.7C78.2,77.6,78.3,78,78.3,78z"/>
		<path id="XMLID_79_" class="st1" d="M72.9,89.7c-0.4,0.3-1.6-0.3-1.1-1c0.5-0.7,1.2-1,2-0.6c0.9,0.4,0.8,1.5,0.5,2
			c-0.3,0.5-0.6,0.7-1,0.4C72.9,90.1,72.9,89.7,72.9,89.7z"/>
		<path id="XMLID_78_" class="st13" d="M77.5,58.6c-0.4,0.2-0.6,0.2-1.8,1.3c-1.2,1.1-3.3,4.8-3.7,8.9"/>
		<path id="XMLID_77_" class="st13" d="M79.6,57.3c0,0,0.3,1.5-0.1,1.9c-0.5,0.3-1.8,0.4-1.8-0.4c0-0.2-0.1-0.5-0.3-0.4"/>
		<path id="XMLID_76_" class="st13" d="M79.6,59.5l-2.4,1.8c0,0,0.5,0,0.3,0.2c-0.3,0.3-1,0.5-0.8,1c0.3,0.9,1.2,0.9,1.9,0.2
			l2.3-1.9C81.3,60.4,80.2,59,79.6,59.5z"/>
		<path id="XMLID_75_" class="st13" d="M81.6,62.7l-1.8,1.4c-2,1.6-2.7-0.3-1.4-1.2l2.6-1.8C81.3,60.6,82.3,62.1,81.6,62.7z"/>
		<path id="XMLID_74_" class="st13" d="M81,63.2l-1.7,1.2c-1.8,1.3-0.5,2.1,0.3,1.6l2.2-1.3C82.4,64.1,82,62.5,81,63.2z"/>
		<path id="XMLID_73_" class="st13" d="M82,66.8l-1.5,0.6C79,68,78.8,66.4,79.6,66l2.2-1.3C82.4,64.1,82.5,66.6,82,66.8z"/>
		<path id="XMLID_72_" class="st8" d="M76.8,62.9c0,0-0.2,0.3-0.1,1.1l-0.6,1.2l0.2,0l1.3-2L76.8,62.9z"/>
		<path id="XMLID_71_" class="st13" d="M80.5,67.3c0,0-4.2,2.5-6,1.8c-1.7-0.7-2.2-1.9-2.1-3"/>
		<path id="XMLID_70_" class="st11" d="M80.5,67.3c0-0.5,0-1-0.4-1.5"/>
		<path id="XMLID_69_" class="st11" d="M80,65.9c0-0.5-0.4-1.2-0.8-1.2"/>
		<path id="XMLID_68_" class="st11" d="M79.3,64.5c0-0.5-0.6-1.3-0.9-1.4"/>
		<path id="XMLID_67_" class="st11" d="M78.8,62.7c0-0.5-0.7-1.1-1-1.2"/>
		<path class="st8" d="M60.3,95.5c0,0,6.1-4.2,8.4-10.1c2.3-5.9,1.9-13.5,2.3-16.1c0.4-2.6,1.3-7.4,5.1-11.2l-2.2-1.8l-0.5-0.5
			l-1.2,0L72,58.6l-1.8,0.6l0.6,1.8l-2.6,1.3l1.5,2.6l-1.8,0.7l0.9,1.8L67.1,69l1.4,2.3L67,72.4l1.3,1.5l-1.8,1.8l0.9,1.8l-1.3,0.9
			l1,1.5l-1.6,1.3l0.5,2.2c-0.6,0.2-1,0.2-1.3,0.6l0.6,1.4l-1.8,0.5l0.5,2.2L62,88l0.5,2l-2.1,0.2l-0.6,2.2L58.1,92l-0.5,2.7
			L60.3,95.5L60.3,95.5z M74.5,59.2l-0.9,1c0,0-1-0.9-1.1-1.5c0-0.7,0.1-1.9,0.1-2.1c0-0.2,0.7-0.4,1.2-0.3
			C74.3,56.4,74.3,58.3,74.5,59.2L74.5,59.2z M71.7,64.2l-0.5,1.5c-0.2-0.1-1-0.5-1.3-1.2l-1-2.1l2.6-1.3c0.2-0.1,1,0,1.5,0.1
			l-0.5,1.4c-0.6,0.3-1.5,0.4-2.1,0.4C70.9,63.3,71.3,63.8,71.7,64.2L71.7,64.2z M70.5,70.1l-0.2,1.8c-0.2,0-0.6,0.2-1.1-0.5
			l-1.6-2.3l1.7-1.6c0.1-0.1,0.8-0.3,1.4-0.3l-0.2,1.4c-0.5,0.4-1,0.7-1.5,0.8C69.6,69.6,70.1,69.6,70.5,70.1L70.5,70.1z M70.1,77
			l-0.2,1.7c-0.2,0-1.5-0.4-1.8-1l-1-1.7l1.7-1.9c0.1-0.1,1-0.1,1.5-0.2l-0.2,1.5c-0.5,0.4-1.4,0.5-2,0.6C68.8,76,69.6,76.6,70.1,77
			L70.1,77z M68.8,83l-0.5,1.7c-0.2-0.1-1.4-0.6-1.6-1.3l-0.7-2l2.1-1.7c0.1-0.1,0.9-0.2,1.5-0.1l-0.4,1.7c-0.6,0.3-1.2,0.5-1.8,0.5
			C68.1,82.1,68.5,82.5,68.8,83L68.8,83z M61.8,93.5l-1.3,1.2c-0.1-0.2-0.5-0.8-0.3-1.5l0.6-2.6l2.5-0.1c0.6,0,0.7,0.2,1.2,0.6
			l-1.3,1.3l-1.8-0.8L61.8,93.5L61.8,93.5z M66.4,88.4l-1,1.6c-0.2-0.1-0.7-0.8-0.8-1.5L64.2,86l2.5-0.9c0.6-0.2,0.7-0.1,1.3,0.1
			L67.3,87C66.7,87,66,87,65.5,86.9C66,87.2,66.3,87.7,66.4,88.4L66.4,88.4z M60,95.1c0,0-0.8-0.3-1.6-0.7c-0.5-0.3-0.2-0.6,0-0.6
			C59.2,94.1,59.8,94.5,60,95.1z"/>
		<path id="XMLID_57_" class="st14" d="M56.9,91c0.5,0,6.1-4.1,7.1-8.5c1-4.4,1.4-12,2.2-16.6c0.8-4.6,3.9-10.2,6.1-11.6"/>
		<path id="XMLID_56_" class="st14" d="M56.5,89.7c1.9-0.8,6.4-5,7.1-9.3c0.7-4.3,0.6-9.2,1.1-13.3"/>
		<path id="XMLID_55_" class="st7" d="M63,82.6c-1.3-0.8-2.3-3-2.2-5.2c0.2-2.5,1.7-4.7,3.6-4.9"/>
		<path id="XMLID_54_" class="st15" d="M64.2,74.1c-0.1,2.1-0.3,4.3-0.6,6.3c0,0.3-0.1,0.5-0.2,0.8c-0.6-0.9-1-2.2-0.9-3.5
			C62.7,76.3,63.3,75,64.2,74.1z"/>
		<g>
			<path id="XMLID_53_" class="st8" d="M61.6,69.6l0.5,0.9l-1,0.6c0.3,0.4,0.7,0.7,1.1,0.8c0.9,0.2,1.5-0.5,1.5-1.5
				c0-0.3-0.1-0.6-0.1-0.8l-0.9,0.6l-0.4-0.8c0.7-0.2,1.4-0.4,2.1-0.4c0.1,0,0.2,0,0.3,0c0-0.6,0.1-1.2,0.2-1.8c-0.3,0-0.5,0-0.8,0
				c-5,0-9.2,4.8-9.2,10.8c0,4.1,2,7.7,4.9,9.5c0.5-0.5,1.1-1.1,1.6-1.8c-1-0.6-1.8-1.4-2.5-2.4l0.8-0.5l0.7,0.7
				c0.3-0.3,0.5-0.5,0.6-0.9c0.1-0.8-0.5-1.3-1.4-1.3c-0.3,0-0.5,0.1-0.7,0.2l0.5,0.8l-0.8,0.5c-0.5-0.9-0.9-1.9-1.1-2.9l0.9-0.1
				l0.2,1c0.5-0.1,0.7-0.2,1-0.6c0.5-0.7,0.3-1.5-0.6-2C58.6,78,58.3,78,58,77.9l0.1,1l-1,0.1c-0.1-0.4-0.1-0.9-0.1-1.4
				c0-0.5,0-1.1,0.1-1.6l1.1,0.1L58,77.4c0.5,0.1,0.9,0,1.2-0.3c0.7-0.5,0.7-1.4,0-2.1c-0.2-0.2-0.5-0.3-0.7-0.4l-0.2,1l-1-0.1
				c0.3-1.2,0.8-2.3,1.4-3.3l0.8,0.7L59,73.8c0,0.1,0.6,0.4,0.8,0.3c0.9-0.1,1.5-0.9,1.3-1.9c-0.1-0.3-0.2-0.6-0.4-0.8L60,72.3
				l-0.9-0.7C59.8,70.7,60.6,70,61.6,69.6z"/>
			<path id="XMLID_52_" class="st8" d="M62.6,83.3c0,0-1.3-0.3-1.8,0.5c-0.3,0.4,0.9,0.9,0.9,1L62.6,83.3z"/>
		</g>
		<g>
			<path id="XMLID_51_" class="st10" d="M72.7,44.3c0-0.9,0.8-1.6,1.7-1.6c1,0,1.7,0.7,1.7,1.6c0,0.9-0.8,1.6-1.7,1.6
				C73.5,45.9,72.7,45.2,72.7,44.3z"/>
			<path id="XMLID_50_" class="st10" d="M77,40c0.9,0,1.7,0.8,1.7,1.8S78,43.5,77,43.5c-0.9,0-1.7-0.8-1.7-1.8S76.1,40,77,40z"/>
			<path id="XMLID_49_" class="st10" d="M81.4,44.1c0,0.9-0.8,1.6-1.7,1.6s-1.7-0.7-1.7-1.6c0-0.9,0.8-1.6,1.7-1.6
				S81.4,43.2,81.4,44.1z"/>
			<path id="XMLID_48_" class="st10" d="M77.3,48.4c-0.9,0-1.6-0.8-1.6-1.8c0-1,0.7-1.8,1.6-1.8c0.9,0,1.6,0.8,1.6,1.8
				C78.9,47.6,78.2,48.4,77.3,48.4z"/>
		</g>
		<path id="XMLID_47_" class="st6" d="M53.5,135.8c-0.2-7.3-0.7-15.1-1.9-18.6c-1.2-3.5-3.2-7-7.8-5.8c-4.6,1.2-7.5,5.3-7.9,6.3"/>
		<path id="XMLID_46_" class="st7" d="M54.6,112.9c0,0-4.3-2-7.1-2.4c-2.8-0.4-8.7-0.6-11.4,0.9"/>
		<path id="XMLID_45_" class="st7" d="M57.3,111.2c0,0-5.9-3-10-3.4c-4.1-0.5-8.2-0.4-11.7,0.9"/>
		<path id="XMLID_44_" class="st7" d="M58.8,110.3c0,0-5.7-3.4-10.7-3.9c-5-0.5-9.7-0.2-13.1,1.1"/>
		<path id="XMLID_43_" class="st7" d="M50.6,114.9c1-0.6,8-4.1,14.7-8.4c8.6-5.6,17.3-13.5,17.3-13.7"/>
		<path id="XMLID_42_" class="st7" d="M34.1,115.9c0,0,2.2-1.6,1.9-5.2c-0.3-3.6-2.9-4.8-4.2-5"/>
		<path id="XMLID_41_" class="st7" d="M57.1,96.6c4.5,1.8,8.8,4.5,11.9,7.1"/>
		<polygon id="XMLID_40_" class="st16" points="38.4,135.6 30.6,100.3 25.8,101.2 37,135.4 		"/>
		<polygon id="XMLID_39_" class="st17" points="34,135.7 26.5,113.6 29.7,112.7 37.2,135.5 		"/>
		<ellipse id="XMLID_38_" class="st18" cx="56" cy="96.5" rx="0.9" ry="0.9"/>
		<ellipse id="XMLID_37_" class="st18" cx="41.2" cy="94.7" rx="0.9" ry="0.9"/>
		<ellipse id="XMLID_36_" class="st18" cx="55.5" cy="93.6" rx="0.9" ry="0.9"/>
		<path id="XMLID_35_" class="st18" d="M42.2,92.7c0.5,0,0.8-0.4,0.8-1c0-0.6-0.4-1-0.8-1c-0.5,0-0.8,0.4-0.8,1
			C41.3,92.3,41.7,92.7,42.2,92.7z"/>
		<ellipse id="XMLID_34_" class="st18" cx="55.1" cy="90.7" rx="0.8" ry="0.8"/>
		<ellipse id="XMLID_33_" class="st18" cx="42.8" cy="89" rx="0.8" ry="0.9"/>
		<ellipse id="XMLID_32_" class="st18" cx="54.6" cy="87.9" rx="0.7" ry="0.7"/>
		<ellipse id="XMLID_31_" class="st18" cx="43.5" cy="86.6" rx="0.7" ry="0.8"/>
		<ellipse id="XMLID_30_" class="st18" cx="54.3" cy="85.5" rx="0.6" ry="0.6"/>
		<ellipse id="XMLID_29_" class="st18" cx="44.2" cy="84.2" rx="0.6" ry="0.8"/>
		<ellipse id="XMLID_28_" class="st18" cx="44.8" cy="81.9" rx="0.5" ry="0.6"/>
		<ellipse id="XMLID_27_" class="st18" cx="45.6" cy="79.6" rx="0.4" ry="0.5"/>
		<path id="XMLID_26_" class="st7" d="M67.6,104.9c0,0-9.3-7.8-19.3-8.5c-10-0.6-15.4,2-19.2,3.3"/>
		<line id="XMLID_25_" class="st9" x1="77" y1="41.5" x2="77" y2="46.9"/>
		<line id="XMLID_24_" class="st9" x1="79.7" y1="44.2" x2="74.4" y2="44.2"/>
		<ellipse id="XMLID_23_" class="st12" cx="77.1" cy="44.1" rx="1" ry="1.1"/>
		<path class="st1" d="M15.3,23.6c0,0-1.2,0.2-2.3-0.6c-0.8,0.7-1.8,1.1-2.9,1.1c-2.4,0-4.4-2-4.4-4.4v-2.6c-0.6,0-1.1,0-1.1,0v-1.9
			c0,0,0.4,0,1.1,0v-4.2c0-2.4,2-4.4,4.4-4.4c2.4,0,4.4,1.9,4.4,4.4v8.7c0,0.6-0.1,1.1-0.3,1.6c0.3,0.3,0.7,0.4,1.1,0.5V23.6
			L15.3,23.6z M10.1,22.3L10.1,22.3c0.7,0,1.3-0.2,1.7-0.6c-0.6-0.8-0.9-1.6-1.6-2.3c-0.9-0.9-1.8-1.4-2.6-1.7v2.3
			C7.6,21.2,8.7,22.3,10.1,22.3L10.1,22.3z M10.1,8.6L10.1,8.6c-1.4,0-2.5,1.1-2.5,2.4v4.5c0.3,0.1,0.5,0.1,0.8,0.2
			c2.2,0.8,3.4,2.4,4.3,3.6v-8.3C12.6,9.7,11.5,8.6,10.1,8.6z"/>
		<path class="st1" d="M84.1,128c0,0,1.2-0.2,2.3,0.6c0.8-0.7,1.8-1.1,2.9-1.1c2.4,0,4.4,1.9,4.4,4.4v2.6c0.6,0,1.1,0,1.1,0v1.9
			c0,0-0.4,0-1.1,0v4.2c0,2.4-2,4.4-4.4,4.4c-2.4,0-4.4-1.9-4.4-4.4v-8.7c0-0.6,0.1-1.1,0.3-1.6c-0.3-0.3-0.7-0.4-1.1-0.5V128
			L84.1,128z M89.3,129.3L89.3,129.3c-0.7,0-1.3,0.2-1.7,0.6c0.6,0.8,0.9,1.6,1.6,2.3c0.9,0.9,1.8,1.4,2.6,1.7v-2.3
			C91.8,130.4,90.7,129.3,89.3,129.3L89.3,129.3z M89.3,143L89.3,143c1.4,0,2.5-1.1,2.5-2.4v-4.5c-0.3-0.1-0.5-0.1-0.8-0.2
			c-2.2-0.8-3.4-2.4-4.3-3.6v8.3C86.8,141.9,87.9,143,89.3,143z"/>
		<path class="st19" d="M16.9,136.5h66V14.4H16.4v122.1H16.9L16.9,136.5z M17.4,135.5L17.4,135.5c0-1,0-119.1,0-120.1
			c1,0,63.4,0,64.4,0c0,1,0,119.1,0,120.1C80.8,135.5,18.4,135.5,17.4,135.5z"/>
	</g>
</g>
</svg>
