<?xml version="1.0" encoding="utf-8"?>
<!-- Generator: Adobe Illustrator 19.0.0, SVG Export Plug-In . SVG Version: 6.00 Build 0)  -->
<svg version="1.1" xmlns="http://www.w3.org/2000/svg" xmlns:xlink="http://www.w3.org/1999/xlink" x="0px" y="0px"
	 viewBox="0 0 99.4 151.6" style="enable-background:new 0 0 99.4 151.6;" xml:space="preserve">
<style type="text/css">
	.st0{fill:#FFFFFF;stroke:#000000;stroke-width:0.25;stroke-miterlimit:2.6131;}
	.st1{fill-rule:evenodd;clip-rule:evenodd;fill:#E52529;}
	.st2{fill:#E52529;}
</style>
<g id="Calque_2">
	<path id="XMLID_15_" class="st0" d="M99.3,5.3v140.9c0,2.9-2.3,5.2-5.2,5.2H5.3c-2.9,0-5.2-2.3-5.2-5.2V5.3c0-2.9,2.3-5.2,5.2-5.2
		h88.7C96.9,0.1,99.3,2.5,99.3,5.3z"/>
</g>
<g id="Calque_1">
	<g>
		<g>
			<g>
				<g>
					<path class="st1" d="M552.8,134.6c-3.2-4.4-4.1-8-4.1-8s-0.9,3.7-4.1,8c-3.2,4.4-6.2,5.6-6.2,5.6s3,1.2,6.2,5.6
						c3.2,4.4,4.1,8,4.1,8s0.9-3.7,4.1-8c3.2-4.4,6.2-5.6,6.2-5.6S556.1,138.9,552.8,134.6z"/>
					<path class="st1" d="M510.8,134.6c-3.2-4.4-4.1-8-4.1-8s-0.9,3.7-4.1,8c-3.2,4.4-6.2,5.6-6.2,5.6s3,1.2,6.2,5.6
						c3.2,4.4,4.1,8,4.1,8s0.9-3.7,4.1-8c3.2-4.4,6.2-5.6,6.2-5.6S514,138.9,510.8,134.6z"/>
				</g>
				<g>
					<path class="st1" d="M531.8,177.1c-3.2-4.4-4.1-8-4.1-8s-0.9,3.7-4.1,8c-3.2,4.4-6.2,5.6-6.2,5.6s3,1.2,6.2,5.6
						c3.2,4.4,4.1,8,4.1,8s0.9-3.7,4.1-8c3.2-4.4,6.2-5.6,6.2-5.6S535,181.5,531.8,177.1z"/>
				</g>
				<g>
					<path class="st1" d="M552.8,219.7c-3.2-4.4-4.1-8-4.1-8s-0.9,3.7-4.1,8c-3.2,4.4-6.2,5.6-6.2,5.6s3,1.2,6.2,5.6
						c3.2,4.4,4.1,8,4.1,8s0.9-3.7,4.1-8c3.2-4.4,6.2-5.6,6.2-5.6S556.1,224,552.8,219.7z"/>
					<path class="st1" d="M510.8,219.7c-3.2-4.4-4.1-8-4.1-8s-0.9,3.7-4.1,8c-3.2,4.4-6.2,5.6-6.2,5.6s3,1.2,6.2,5.6
						c3.2,4.4,4.1,8,4.1,8s0.9-3.7,4.1-8c3.2-4.4,6.2-5.6,6.2-5.6S514,224,510.8,219.7z"/>
				</g>
			</g>
		</g>
		<g>
			<g>
				<g>
					<g>
						<g>
							<g>
								<path class="st2" d="M486.7,117.5h7.8v1.8h-6l-0.2,3c0,0,2.8-1.6,5.5,0.7c0.5,0.4,2.9,2.9,1.4,7.8c-0.3,1-2,3.6-5.6,3.1
									c-0.2,0-2.9-0.7-3.9-3.7l1.7-0.4c0,0,1.3,2.7,3.1,2.5c0.9-0.1,3.3-0.7,3.2-4.6c0-0.3,0-3.7-2.9-4.2c-1-0.2-2.2,0-3.9,1.7
									l-0.8-0.5L486.7,117.5z"/>
							</g>
						</g>
						<g>
							<g>
								<path class="st2" d="M568.8,247.8h-7.9V246h6l0.2-3c0,0-2.8,1.6-5.5-0.7c-0.5-0.4-2.9-2.9-1.4-7.8c0.3-1,2-3.6,5.6-3.1
									c0.2,0,2.9,0.7,3.9,3.7l-1.7,0.4c0,0-1.3-2.7-3.1-2.5c-0.9,0.1-3.3,0.7-3.2,4.6c0,0.3,0,3.7,2.9,4.2c1,0.2,2.2,0,3.9-1.7
									l0.8,0.5L568.8,247.8z"/>
							</g>
						</g>
					</g>
				</g>
			</g>
		</g>
		<g>
			<g>
				<path class="st2" d="M490.8,137.7c0,0,1.4,4.5,4.7,6.3c0,0-3.2,1.7-4.7,6.2c-1.5-4.6-4.7-6.2-4.7-6.2
					C489.4,142.2,490.8,137.7,490.8,137.7z"/>
			</g>
			<g>
				<path class="st2" d="M564.7,227.6c0,0-1.4-4.5-4.7-6.3c0,0,3.2-1.7,4.7-6.2c1.5,4.6,4.7,6.2,4.7,6.2
					C566.1,223.1,564.7,227.6,564.7,227.6z"/>
			</g>
		</g>
	</g>
	<g>
		<g>
			<g>
				<g>
					<path class="st1" d="M552.8,134.6c-3.2-4.4-4.1-8-4.1-8s-0.9,3.7-4.1,8c-3.2,4.4-6.2,5.6-6.2,5.6s3,1.2,6.2,5.6
						c3.2,4.4,4.1,8,4.1,8s0.9-3.7,4.1-8c3.2-4.4,6.2-5.6,6.2-5.6S556.1,138.9,552.8,134.6z"/>
					<path class="st1" d="M510.8,134.6c-3.2-4.4-4.1-8-4.1-8s-0.9,3.7-4.1,8c-3.2,4.4-6.2,5.6-6.2,5.6s3,1.2,6.2,5.6
						c3.2,4.4,4.1,8,4.1,8s0.9-3.7,4.1-8c3.2-4.4,6.2-5.6,6.2-5.6S514,138.9,510.8,134.6z"/>
				</g>
				<g>
					<path class="st1" d="M531.8,177.1c-3.2-4.4-4.1-8-4.1-8s-0.9,3.7-4.1,8c-3.2,4.4-6.2,5.6-6.2,5.6s3,1.2,6.2,5.6
						c3.2,4.4,4.1,8,4.1,8s0.9-3.7,4.1-8c3.2-4.4,6.2-5.6,6.2-5.6S535,181.5,531.8,177.1z"/>
				</g>
				<g>
					<path class="st1" d="M552.8,219.7c-3.2-4.4-4.1-8-4.1-8s-0.9,3.7-4.1,8c-3.2,4.4-6.2,5.6-6.2,5.6s3,1.2,6.2,5.6
						c3.2,4.4,4.1,8,4.1,8s0.9-3.7,4.1-8c3.2-4.4,6.2-5.6,6.2-5.6S556.1,224,552.8,219.7z"/>
					<path class="st1" d="M510.8,219.7c-3.2-4.4-4.1-8-4.1-8s-0.9,3.7-4.1,8c-3.2,4.4-6.2,5.6-6.2,5.6s3,1.2,6.2,5.6
						c3.2,4.4,4.1,8,4.1,8s0.9-3.7,4.1-8c3.2-4.4,6.2-5.6,6.2-5.6S514,224,510.8,219.7z"/>
				</g>
			</g>
		</g>
		<g>
			<g>
				<g>
					<g>
						<g>
							<g>
								<path class="st2" d="M486.7,117.5h7.8v1.8h-6l-0.2,3c0,0,2.8-1.6,5.5,0.7c0.5,0.4,2.9,2.9,1.4,7.8c-0.3,1-2,3.6-5.6,3.1
									c-0.2,0-2.9-0.7-3.9-3.7l1.7-0.4c0,0,1.3,2.7,3.1,2.5c0.9-0.1,3.3-0.7,3.2-4.6c0-0.3,0-3.7-2.9-4.2c-1-0.2-2.2,0-3.9,1.7
									l-0.8-0.5L486.7,117.5z"/>
							</g>
						</g>
						<g>
							<g>
								<path class="st2" d="M568.8,247.8h-7.9V246h6l0.2-3c0,0-2.8,1.6-5.5-0.7c-0.5-0.4-2.9-2.9-1.4-7.8c0.3-1,2-3.6,5.6-3.1
									c0.2,0,2.9,0.7,3.9,3.7l-1.7,0.4c0,0-1.3-2.7-3.1-2.5c-0.9,0.1-3.3,0.7-3.2,4.6c0,0.3,0,3.7,2.9,4.2c1,0.2,2.2,0,3.9-1.7
									l0.8,0.5L568.8,247.8z"/>
							</g>
						</g>
					</g>
				</g>
			</g>
		</g>
		<g>
			<g>
				<path class="st2" d="M490.8,137.7c0,0,1.4,4.5,4.7,6.3c0,0-3.2,1.7-4.7,6.2c-1.5-4.6-4.7-6.2-4.7-6.2
					C489.4,142.2,490.8,137.7,490.8,137.7z"/>
			</g>
			<g>
				<path class="st2" d="M564.7,227.6c0,0-1.4-4.5-4.7-6.3c0,0,3.2-1.7,4.7-6.2c1.5,4.6,4.7,6.2,4.7,6.2
					C566.1,223.1,564.7,227.6,564.7,227.6z"/>
			</g>
		</g>
	</g>
	<g>
		<g>
			<g>
				<g>
					<path class="st1" d="M552.8,134.6c-3.2-4.4-4.1-8-4.1-8s-0.9,3.7-4.1,8c-3.2,4.4-6.2,5.6-6.2,5.6s3,1.2,6.2,5.6
						c3.2,4.4,4.1,8,4.1,8s0.9-3.7,4.1-8c3.2-4.4,6.2-5.6,6.2-5.6S556.1,138.9,552.8,134.6z"/>
					<path class="st1" d="M510.8,134.6c-3.2-4.4-4.1-8-4.1-8s-0.9,3.7-4.1,8c-3.2,4.4-6.2,5.6-6.2,5.6s3,1.2,6.2,5.6
						c3.2,4.4,4.1,8,4.1,8s0.9-3.7,4.1-8c3.2-4.4,6.2-5.6,6.2-5.6S514,138.9,510.8,134.6z"/>
				</g>
				<g>
					<path class="st1" d="M531.8,177.1c-3.2-4.4-4.1-8-4.1-8s-0.9,3.7-4.1,8c-3.2,4.4-6.2,5.6-6.2,5.6s3,1.2,6.2,5.6
						c3.2,4.4,4.1,8,4.1,8s0.9-3.7,4.1-8c3.2-4.4,6.2-5.6,6.2-5.6S535,181.5,531.8,177.1z"/>
				</g>
				<g>
					<path class="st1" d="M552.8,219.7c-3.2-4.4-4.1-8-4.1-8s-0.9,3.7-4.1,8c-3.2,4.4-6.2,5.6-6.2,5.6s3,1.2,6.2,5.6
						c3.2,4.4,4.1,8,4.1,8s0.9-3.7,4.1-8c3.2-4.4,6.2-5.6,6.2-5.6S556.1,224,552.8,219.7z"/>
					<path class="st1" d="M510.8,219.7c-3.2-4.4-4.1-8-4.1-8s-0.9,3.7-4.1,8c-3.2,4.4-6.2,5.6-6.2,5.6s3,1.2,6.2,5.6
						c3.2,4.4,4.1,8,4.1,8s0.9-3.7,4.1-8c3.2-4.4,6.2-5.6,6.2-5.6S514,224,510.8,219.7z"/>
				</g>
			</g>
		</g>
		<g>
			<g>
				<g>
					<g>
						<g>
							<g>
								<path class="st2" d="M486.7,117.5h7.8v1.8h-6l-0.2,3c0,0,2.8-1.6,5.5,0.7c0.5,0.4,2.9,2.9,1.4,7.8c-0.3,1-2,3.6-5.6,3.1
									c-0.2,0-2.9-0.7-3.9-3.7l1.7-0.4c0,0,1.3,2.7,3.1,2.5c0.9-0.1,3.3-0.7,3.2-4.6c0-0.3,0-3.7-2.9-4.2c-1-0.2-2.2,0-3.9,1.7
									l-0.8-0.5L486.7,117.5z"/>
							</g>
						</g>
						<g>
							<g>
								<path class="st2" d="M568.8,247.8h-7.9V246h6l0.2-3c0,0-2.8,1.6-5.5-0.7c-0.5-0.4-2.9-2.9-1.4-7.8c0.3-1,2-3.6,5.6-3.1
									c0.2,0,2.9,0.7,3.9,3.7l-1.7,0.4c0,0-1.3-2.7-3.1-2.5c-0.9,0.1-3.3,0.7-3.2,4.6c0,0.3,0,3.7,2.9,4.2c1,0.2,2.2,0,3.9-1.7
									l0.8,0.5L568.8,247.8z"/>
							</g>
						</g>
					</g>
				</g>
			</g>
		</g>
		<g>
			<g>
				<path class="st2" d="M490.8,137.7c0,0,1.4,4.5,4.7,6.3c0,0-3.2,1.7-4.7,6.2c-1.5-4.6-4.7-6.2-4.7-6.2
					C489.4,142.2,490.8,137.7,490.8,137.7z"/>
			</g>
			<g>
				<path class="st2" d="M564.7,227.6c0,0-1.4-4.5-4.7-6.3c0,0,3.2-1.7,4.7-6.2c1.5,4.6,4.7,6.2,4.7,6.2
					C566.1,223.1,564.7,227.6,564.7,227.6z"/>
			</g>
		</g>
	</g>
	<g id="XMLID_14_">
		<g>
			<g>
				<g>
					<g>
						<g>
							<g>
								<path class="st1" d="M10.9,10.2l1.6,7.7H9.4L10.9,10.2L10.9,10.2z M5.1,24.2l4.9,0v-1.9H8.4L9,19.7h3.8l0.5,2.6H12v1.9h4.8
									v-1.9h-1.2L12.1,6.7H9.7L6.3,22.2H5.1V24.2L5.1,24.2z"/>
							</g>
						</g>
						<g>
							<g>
								<path class="st1" d="M88.5,141.4l-1.6-7.7H90L88.5,141.4L88.5,141.4z M94.3,127.4l-4.9,0v1.9H91l-0.5,2.6h-3.8l-0.5-2.6h1.3
									v-1.9h-4.8v1.9h1.2l3.4,15.6h2.4l3.4-15.5h1.2V127.4L94.3,127.4z"/>
							</g>
						</g>
					</g>
				</g>
			</g>
		</g>
		<g>
			<g>
				<path id="XMLID_18_" class="st2" d="M10.3,30.3c0.2,0,0.2-0.1,0.2-0.6c0.1-0.5,0.6-1.8,2.3-1.6c0.7,0.1,2.5,1,2.2,3.2
					c-0.1,0.8-0.3,1.4-1.3,3.1c-0.2,0.2-2,3-3.4,5.3c-1.4-2.3-3.2-5-3.4-5.3c-1.1-1.6-1.2-2.3-1.3-3.1c-0.2-2.2,1.5-3.1,2.2-3.2
					c1.7-0.1,2.2,1.1,2.3,1.6C10.2,30.2,10.2,30.3,10.3,30.3z"/>
			</g>
			<g>
				<path id="XMLID_17_" class="st2" d="M89.1,121.3c-0.2,0-0.2,0.1-0.2,0.6c-0.1,0.5-0.6,1.8-2.3,1.6c-0.7-0.1-2.5-1-2.2-3.2
					c0.1-0.8,0.3-1.4,1.3-3.1c0.2-0.3,2-3,3.4-5.3c1.4,2.3,3.2,5,3.4,5.3c1.1,1.6,1.2,2.3,1.3,3.1c0.2,2.2-1.5,3.1-2.2,3.2
					c-1.7,0.1-2.2-1.1-2.3-1.6C89.2,121.4,89.2,121.3,89.1,121.3z"/>
			</g>
		</g>
		<g>
			<path id="XMLID_16_" class="st2" d="M49.7,58.5c0.9,0,0.8-0.6,1-2.9c0.3-2.3,3-8.5,11.1-7.8c3.5,0.3,12.1,4.9,10.9,15.4
				c-0.5,4-1.3,7-6.5,15c-0.8,1.2-9.5,14.5-16.5,25.7c-7-11.2-15.7-24.5-16.5-25.7c-5.2-8-6.1-11-6.5-15
				c-1.2-10.5,7.4-15.1,10.9-15.4c8-0.7,10.8,5.5,11.1,7.8C48.9,57.9,48.9,58.5,49.7,58.5z"/>
		</g>
	</g>
</g>
</svg>
