<?xml version="1.0" encoding="utf-8"?>
<!-- Generator: Adobe Illustrator 19.0.0, SVG Export Plug-In . SVG Version: 6.00 Build 0)  -->
<svg version="1.1" xmlns="http://www.w3.org/2000/svg" xmlns:xlink="http://www.w3.org/1999/xlink" x="0px" y="0px"
	 viewBox="0 0 99.4 151.6" style="enable-background:new 0 0 99.4 151.6;" xml:space="preserve">
<style type="text/css">
	.st0{fill:#FFFFFF;stroke:#000000;stroke-width:0.25;stroke-miterlimit:2.6131;}
	.st1{fill-rule:evenodd;clip-rule:evenodd;fill:#CF492C;}
	.st2{fill-rule:evenodd;clip-rule:evenodd;fill:#231F20;}
	.st3{fill-rule:evenodd;clip-rule:evenodd;fill:#0D4F9E;}
	.st4{fill-rule:evenodd;clip-rule:evenodd;fill:#E52529;}
	.st5{fill-rule:evenodd;clip-rule:evenodd;fill:none;stroke:#0D4F9E;stroke-width:0.8504;stroke-miterlimit:2.6131;}
	.st6{fill-rule:evenodd;clip-rule:evenodd;fill:none;stroke:#231F20;stroke-width:0.8504;stroke-miterlimit:2.6131;}
	.st7{fill-rule:evenodd;clip-rule:evenodd;fill:none;stroke:#0D4F9E;stroke-width:1.1339;stroke-miterlimit:2.6131;}
	.st8{fill-rule:evenodd;clip-rule:evenodd;fill:none;stroke:#0D4F9E;stroke-width:0.7087;stroke-miterlimit:2.6131;}
	.st9{fill-rule:evenodd;clip-rule:evenodd;fill:none;stroke:#0CA551;stroke-width:0.7087;stroke-miterlimit:2.6131;}
	.st10{fill-rule:evenodd;clip-rule:evenodd;fill:#0CA551;}
	.st11{fill-rule:evenodd;clip-rule:evenodd;fill:#D54E2E;}
	.st12{fill-rule:evenodd;clip-rule:evenodd;fill:#E32285;stroke:#0CA551;stroke-width:0.7087;stroke-miterlimit:2.6131;}
	.st13{fill-rule:evenodd;clip-rule:evenodd;fill:none;stroke:#0CA551;stroke-width:0.7084;stroke-miterlimit:2.6131;}
	.st14{fill-rule:evenodd;clip-rule:evenodd;fill:#0CA551;stroke:#0CA551;stroke-width:3.700000e-003;stroke-miterlimit:2.6131;}
	.st15{fill-rule:evenodd;clip-rule:evenodd;fill:none;stroke:#2AABE3;stroke-width:0.7087;stroke-miterlimit:2.6131;}
	.st16{fill-rule:evenodd;clip-rule:evenodd;fill:#E52529;stroke:#0D4F9E;stroke-width:0.5669;stroke-miterlimit:2.6131;}
	.st17{fill-rule:evenodd;clip-rule:evenodd;fill:#0CA551;stroke:#0CA551;stroke-width:0.216;stroke-miterlimit:2.6131;}
	.st18{fill:#0D4F9E;}
	.st19{fill:#231F20;}
</style>
<g id="Calque_2">
	<path id="XMLID_15_" class="st0" d="M99.3,5.3v140.9c0,2.9-2.3,5.2-5.2,5.2H5.3c-2.9,0-5.2-2.3-5.2-5.2V5.3c0-2.9,2.3-5.2,5.2-5.2
		h88.7C96.9,0.1,99.3,2.5,99.3,5.3z"/>
</g>
<g id="Calque_1">
	<g id="XMLID_14_">
		<path id="XMLID_385_" class="st1" d="M30.5,85.1c-0.1-0.2-0.2-0.3-0.2-0.5c2.4-4.2,6-8.3,9.4-12.4c-0.2,0.1,0.5,0.4,0.3,0.5
			C36.4,76.5,32.8,80.9,30.5,85.1z"/>
		<path id="XMLID_384_" class="st2" d="M27.3,38.2c-0.1,1.4-0.4,4.3-1.4,5.6h4c0,0-2-4.3-1.1-6.3c0.5-1,0.7-0.3,0.8,0.7
			c0.5,3.4,5.6,3.3,6.5,0.3c0.9-3-0.7-5.8-3.6-9.4c-2.8-3.6-4.1-6.5-4.7-8.2c-0.6,3.2-5.1,9-7.1,12.1c-2,3.1-1.2,6.6,1,7.6
			c2.2,1,4.5-0.9,4.8-2.7C26.7,36.3,27.4,37.5,27.3,38.2z"/>
		<path id="XMLID_383_" class="st3" d="M36.5,48.9L24.5,60.2c0,0,1,2.8,2.9,2.9c1.9,0.1,1.3,1.2,4,1.2c2.7,0,3.9-1.4,3.9-1.4
			l8.1-7.1L36.5,48.9z"/>
		<path id="XMLID_382_" class="st4" d="M39.2,45.7l-1.8,2.3c3.3,2.7,6.3,5.7,8.5,9.1c1,1.5,1.8,3.6,1.4,5.3l12,9.9h6.3l0.9-1.7
			L39.2,45.7z"/>
		<polygon id="XMLID_381_" class="st3" points="39.5,72.4 50.4,72.4 45,67.4 		"/>
		<path id="XMLID_380_" class="st5" d="M71,15.7c0.1,1.4,0.6,2.5,1.8,2.7"/>
		<path id="XMLID_379_" class="st5" d="M70,15.7c0.1,1.4,0.7,3.4,2.5,3.8"/>
		<path id="XMLID_378_" class="st5" d="M64.1,15.7c-0.4,1.7-1.4,4.2-3.8,3.6"/>
		<path id="XMLID_377_" class="st5" d="M69,15.7c0.1,1.5,1.2,4.4,3.4,4.9"/>
		<path id="XMLID_376_" class="st5" d="M65,15.7c-0.1,1.5-1.4,5.4-5.4,4.8"/>
		<path id="XMLID_375_" class="st5" d="M67.8,15.7c0.1,1.5,1.3,5.9,4.6,6.5"/>
		<path id="XMLID_374_" class="st5" d="M66,15.7c-0.1,2-1.6,6.7-7.1,6"/>
		<path id="XMLID_373_" class="st1" d="M37.9,15.7c0.9,1.9,3.3,11.6,0.4,18.7l7.4,2.7L57,15.7H37.9z"/>
		<path id="XMLID_372_" class="st5" d="M66.9,15.7c0.1,1.5,0.6,6.2,5.6,7.6"/>
		<path id="XMLID_371_" class="st5" d="M66.9,15.7c-0.1,3.8-2.4,8.2-9,7"/>
		<path id="XMLID_370_" class="st6" d="M52.9,15.7c0,0,0,4.6-4.6,5c0.6,2.6,0.4,6.3-4,7.2c1,4.1-0.3,5.6-3.5,7.3"/>
		<ellipse id="XMLID_369_" class="st2" cx="49.8" cy="21.8" rx="0.5" ry="0.5"/>
		<ellipse id="XMLID_368_" class="st2" cx="51.1" cy="16.7" rx="0.7" ry="0.7"/>
		<ellipse id="XMLID_367_" class="st2" cx="48.7" cy="17.4" rx="0.6" ry="0.6"/>
		<ellipse id="XMLID_366_" class="st2" cx="44.8" cy="24.5" rx="0.6" ry="0.6"/>
		<ellipse id="XMLID_365_" class="st2" cx="40.8" cy="31.8" rx="0.6" ry="0.6"/>
		<ellipse id="XMLID_364_" class="st2" cx="45.6" cy="22.9" rx="0.6" ry="0.6"/>
		<ellipse id="XMLID_363_" class="st2" cx="41.7" cy="30" rx="0.6" ry="0.6"/>
		<ellipse id="XMLID_362_" class="st2" cx="45.8" cy="29" rx="0.5" ry="0.5"/>
		<path id="XMLID_361_" class="st2" d="M46.6,17.6c0-0.7,1.1-0.9,1,0c0,0.9-0.7,1.6-0.7,1.6C46.8,18.7,46.6,18.3,46.6,17.6z"/>
		<path id="XMLID_360_" class="st2" d="M42.7,24.7c0-0.7,1.1-0.9,1,0c0,0.9-0.7,1.6-0.7,1.6C42.9,25.8,42.7,25.4,42.7,24.7z"/>
		<path id="XMLID_359_" class="st2" d="M38.8,32c0-0.7,1.1-0.9,1,0c0,0.9-0.7,1.6-0.7,1.6C39,33,38.7,32.6,38.8,32z"/>
		<path id="XMLID_358_" class="st2" d="M44.7,19.5c-0.6-0.3-0.3-1.4,0.4-1c0.7,0.4,1.3,1.3,1.3,1.3C45.9,19.7,45.3,19.8,44.7,19.5z"
			/>
		<path id="XMLID_357_" class="st2" d="M40.8,26.6c-0.6-0.3-0.3-1.4,0.4-1c0.7,0.4,1.3,1.3,1.3,1.3C42,26.8,41.4,26.9,40.8,26.6z"/>
		<path id="XMLID_356_" class="st2" d="M45.1,21.9c-0.5,0.4-1.2-0.3-0.6-0.7c0.6-0.4,1.6-0.6,1.6-0.6C45.8,21,45.6,21.6,45.1,21.9z"
			/>
		<path id="XMLID_355_" class="st2" d="M41.2,29c-0.5,0.4-1.2-0.3-0.6-0.7c0.6-0.4,1.6-0.6,1.6-0.6C41.9,28.1,41.7,28.7,41.2,29z"/>
		<path id="XMLID_354_" class="st2" d="M46.2,21.4l0.7-1.1c0,0,1.2,1.3,1,2.6c-0.2,1.3-0.6,1.4-1,1.1c-0.4-0.3-0.1-0.8,0.2-0.9
			c0.3-0.1,0.1-0.7-0.2-1.1C46.6,21.6,46.2,21.4,46.2,21.4z"/>
		<path id="XMLID_353_" class="st2" d="M42.3,28.4l0.7-1.1c0,0,1.2,1.3,1,2.6c-0.2,1.3-0.6,1.4-1,1.1c-0.4-0.3-0.1-0.8,0.2-0.9
			c0.3-0.1,0.1-0.7-0.2-1.1C42.7,28.7,42.3,28.4,42.3,28.4z"/>
		<path id="XMLID_352_" class="st2" d="M47.8,19L47,20.1c0,0,1.7,0.3,2.7-0.4c1-0.6,1-1.4,0.5-1.7c-0.4-0.2-0.9,0.2-0.7,0.5
			c0.1,0.3-0.4,0.6-0.8,0.6C48.2,19.1,47.8,19,47.8,19z"/>
		<path id="XMLID_351_" class="st2" d="M43.9,26.1l-0.8,1.1c0,0,1.7,0.3,2.7-0.4c1-0.6,1-1.4,0.5-1.7c-0.4-0.2-0.9,0.2-0.7,0.5
			c0.1,0.3-0.4,0.6-0.8,0.6C44.3,26.2,43.9,26.1,43.9,26.1z"/>
		<path id="XMLID_350_" class="st2" d="M40,33.3l-0.8,1.1c0,0,1.7,0.3,2.7-0.4c1-0.6,1-1.4,0.5-1.7c-0.4-0.2-0.9,0.2-0.7,0.5
			c0.1,0.3-0.4,0.6-0.8,0.6C40.4,33.5,40,33.3,40,33.3z"/>
		<path class="st3" d="M65.6,25.6c0.5,0-1-1.8-3.2-1.5c-1.8,0.2-2.1,0.7-3.4,1.4c1.2-0.3,3.2-0.5,4.9-0.3
			C64.8,25.2,65.5,25.6,65.6,25.6L65.6,25.6z M63.1,26.2c-2.8-0.1-3.7,1.2-3.7,1.2s0.4,0.1,1.2-0.2C61,27.1,61.5,27,62,27
			c0.5,0,0.9,0.2,1.3,0.2c0.7,0,1.2-0.6,1.2-0.6l-0.1,0.6c0,0-0.5,0.3-0.2,0.9c0.4,0.6,0.5,0.1,0.2,1c-0.4,0.9-0.9,1.4-1.4,1.5
			c0.5-0.9,1.1-1.5-0.3-1.2c-1.9,0.3-3-0.8-3-0.8h-2V28c0,0,0.5-0.2,1.7-1.3C60.8,25.6,62.8,25.9,63.1,26.2L63.1,26.2z M61.1,27.9
			c-0.5,0-0.7,0.1-1,0.4c-0.3,0.3,1.6,0.6,1.2,0.3C61,28.3,61.1,27.9,61.1,27.9L61.1,27.9z M61.5,27.7c0,0-0.3,0.7,0.3,1.1
			c0.5,0.4,1,0.1,1.2,0c0.2-0.2,0.6-0.6,0.3-0.9c-0.2-0.2-0.2,0.6-0.8,0.7S61.5,27.7,61.5,27.7L61.5,27.7z M63.4,34.1
			c0,0,0.1,1.4,0.7,1.3c0.6-0.1,1.4-0.9,1.8-0.9c0.4,0,0.8,0.1,0.7,0.5c-0.1,0.4-0.7,0.5-1.2,0.6c-0.5,0.1-1.3,0.4-1.7,0.1
			C63.3,35.5,63,35.1,63.4,34.1L63.4,34.1z M72.3,24.5c0,0-2.7-0.2-3.5,0.6c-0.8,0.8-1.3,2.1-1.2,3.6c0.1,1.5,0.8,5.5,0.8,5.5
			s-1,0.8-1.1,1.1c-0.1,0.3-0.1,0.8,0.4,0.4c0.5-0.4,1.2-1.1,1.2-1.3L67.9,30l0.3-0.1l0.5,0.4l0.2-0.2l-0.6-0.6v-0.5
			c0,0,1,0.7,2.3,0.5c1.4-0.2,1.7-0.8,1.7-0.8L72.3,24.5L72.3,24.5z M68.6,26.2c0.2-0.5,1.4-1.1,2.7-0.7c1.3,0.4,1.1,0.5,1.1,0.5
			s0.3,0.8-0.3,0.4C71.7,26,69.6,25.7,68.6,26.2L68.6,26.2z M68.2,27c0.3,0,0.8-0.7,2.2-0.5c1.5,0.2,1.6,0.8,1.6,0.8
			s-0.7-0.1-1.7-0.2c-1,0-2.1,0.3-2.1,0.3V27L68.2,27z M69,28c0,0.5,0.3,1,0.3,1s-0.2,0-0.5-0.1c-0.4-0.2-0.7-0.7-0.7-0.7L69,28
			L69,28z M69.5,28h0.3c0,0.4,0.2,0.7,0.4,0.7c0.6,0,0.6-0.7,0.6-0.7s0.5-0.2,0.3,0.3c-0.2,0.5-0.2,0.9-0.9,0.9
			C69.5,29.2,69.5,28,69.5,28L69.5,28z M71.5,28c0.3,0,0.7,0,0.9,0.2c0,0-1.1,1.1-1.1,0.7C71.4,28.5,71.5,28,71.5,28L71.5,28z
			 M63.3,38.1c0,0,0.7,0.2,1.2,0c0.3-0.1,1-0.8,1.4-0.3c0.3,0.4,0.5,0.3,0.5,0.3s0.1-0.3,0.5-0.4c0.4-0.1,0.6,0.1,0.8,0.2
			c0.2,0,0.5,0.2,0.8-0.1c0.2-0.2,0.2,0.1,0.3,0.4c0.1,0.3,0.1,0.6,0.1,0.6s-0.1-0.1-0.5-0.2c-0.5-0.1-0.6,0.1-1,0.3
			c-0.4,0.2-0.9,0.6-1.6,0.2c-0.7-0.3-1.9-0.1-2.5,0.4C63.2,39.1,63.2,38.8,63.3,38.1L63.3,38.1z M65.6,40.6c0,0,0.3-0.2,0.8-0.2
			c0.5,0,1,0.3,1,0.2c0-0.1-0.1-0.3-0.6-0.5c0,0-0.1,0-0.1,0c0,0,0,0,0,0c0.5-0.2,0.6-0.4,0.7-0.5c0.1-0.1-0.5,0.2-1.2,0.2
			c-0.6,0-0.9-0.2-0.9-0.2c0.2,0.4,0.4,0.5,0.8,0.5c0.1,0,0.1,0,0.2,0.1C65.9,40.1,65.7,40.2,65.6,40.6z"/>
		<polygon id="XMLID_336_" class="st4" points="55.6,15.8 44.5,36.4 45.6,37.1 57.3,15.8 		"/>
		<line id="XMLID_335_" class="st7" x1="55.6" y1="15.8" x2="44.5" y2="36.4"/>
		<path id="XMLID_334_" class="st1" d="M46.5,44.6L66,62.3l3.8-15.3l3.9-1.5L71.4,43l-2.6-1c-5.4,2.9-12.2-2.4-15.6-9.5L46.5,44.6z"
			/>
		<path id="XMLID_333_" class="st3" d="M72.4,23.8c0.8,4.6,3.2,18.9,2.2,22.7c-1.5-0.8-4.9-3.9-5.8-4.4C71.5,39.9,72,33.9,72.4,23.8
			z"/>
		<path id="XMLID_332_" class="st3" d="M49.2,38.9c-0.1,0.3-0.2,0.6-0.3,0.9c3.7,1.3,8.6,2.5,12.5,2.3c-0.8-0.6-1.6-1.1-2.4-1.7
			C56.1,40.9,52.1,39.6,49.2,38.9z"/>
		<path id="XMLID_331_" class="st8" d="M56.8,38.4c0,0,0,1.7,0.3,2.6"/>
		<path id="XMLID_330_" class="st8" d="M55.3,36.4c0,0,0.2,3.2,0.6,4.4"/>
		<line id="XMLID_329_" class="st8" x1="53.4" y1="33.2" x2="54.4" y2="41"/>
		<line id="XMLID_328_" class="st8" x1="52.2" y1="34.2" x2="53.2" y2="40.3"/>
		<line id="XMLID_327_" class="st8" x1="51.2" y1="35.6" x2="52.1" y2="40.2"/>
		<path id="XMLID_326_" class="st9" d="M48,41c3.9,2.9,17.7,5,22,1.9"/>
		<path id="XMLID_325_" class="st9" d="M53.4,47.7l12.7,12l2.8-11.3c0,0-2.6,0.4-6.1,0.4C59.9,48.7,56.5,48.3,53.4,47.7z"/>
		<path class="st2" d="M69.8,46.8c0.6-0.1,1.2-0.3,1.7-0.4l-0.7-1.8l-0.6-0.5L69,44.5L69.8,46.8L69.8,46.8z M66.9,47.3
			c0.6-0.1,1.2-0.1,1.7-0.2l-0.5-2.5l-1.5,0.2L66.9,47.3L66.9,47.3z M63.8,47.5c0.6,0,1.2,0,1.7-0.1L65.4,45l-1.5,0L63.8,47.5
			L63.8,47.5z M61,47.4c0.6,0,1.1,0.1,1.6,0.1l-0.1-2.3l-1.5-0.1L61,47.4L61,47.4z M58,47.1c0.6,0.1,1.2,0.1,1.8,0.2l0.1-2.2
			L58.2,45L58,47.1L58,47.1z M55.1,46.7c0.5,0.1,1,0.2,1.6,0.3l0.3-2.1l-1.6-0.2L55.1,46.7L55.1,46.7z M52.1,46
			c0.5,0.1,1,0.3,1.6,0.4l0.5-1.9l-1.7-0.3L52.1,46L52.1,46z M49.2,45.2c0.5,0.2,1,0.3,1.6,0.5l0.7-1.9l-1.6-0.5L49.2,45.2
			L49.2,45.2z M48,44.8c-1-0.3-1.5-0.6-1.5-0.6l-1-0.7l0.6-1.6l2.6,1L48,44.8z"/>
		<polygon id="XMLID_315_" class="st9" points="57.9,50.1 67.4,50.1 65.6,57.3 		"/>
		<polygon id="XMLID_314_" class="st9" points="60.8,50.1 65.5,50.1 63.9,51.5 		"/>
		<polyline id="XMLID_313_" class="st9" points="67.4,50.1 64.1,52.6 58.4,50.6 		"/>
		<polyline id="XMLID_312_" class="st9" points="66.9,52 64.6,53.7 60.3,52.4 		"/>
		<polyline id="XMLID_311_" class="st9" points="66.6,53.6 64.8,54.9 62.2,54.1 		"/>
		<path id="XMLID_310_" class="st9" d="M66.1,55c-0.9,1-1.2,1.1-2.4,0.5"/>
		<path id="XMLID_309_" class="st1" d="M26.2,54.9c0,0,0.7,2.5,3.1,3.2c2.4,0.7,3.8,2.7,3.4,4.1c-0.7,0.1-0.9,0-1.3,0.1
			c0,0-1.3-2.2-2.7-2.5c-1.5-0.3-2.7-1.9-3.2-2.8c-0.6-0.9-0.7-1.8-0.7-1.8L26.2,54.9z"/>
		<path id="XMLID_308_" class="st1" d="M27.3,59.9c0,0,1.5-0.2,2.6,0.9c1.2,1.1,0.9,1.4,0.7,1.4c-0.3,0-0.6,0.1-0.6,0
			c-0.1-0.2-0.8,0-0.9-0.3c-0.1-0.3-0.3-0.2-0.9-0.3C27.6,61.5,27.2,60.4,27.3,59.9z"/>
		<path id="XMLID_307_" class="st1" d="M33.9,55.5c0,0,0.4,0.1,0.7,0.6c0.5,0.7,0.8,2.5,0.6,3.7c-0.4,2-0.5,1.6-0.7,2
			c-0.3,0.3-1.2,0.8-1.4-1.1C33.2,58.3,33.9,55.5,33.9,55.5z"/>
		<polygon id="XMLID_306_" class="st3" points="43.5,59.7 41,61.8 38.7,60.8 39.8,62.9 38.3,65.6 41,63.5 43.5,65.3 42,62.7 		"/>
		<polygon id="XMLID_305_" class="st3" points="32,72.4 29.5,74.2 27.1,72.8 28.7,75.2 27.2,78 29.7,76.2 32.1,77.3 30.6,75.2 		"/>
		<path id="XMLID_304_" class="st3" d="M34.9,68.9c-0.9,0.3-1.6,0.3-1.1,0.7c0.3,0.2-0.1,0.7-0.8,1l-0.7,0.8l2.5-1.4l2.6,1.6
			l-1.7-2.5l1.9-2.7l-2.8,1.1C35.4,67.9,35.5,69.7,34.9,68.9z"/>
		<ellipse id="XMLID_303_" class="st3" cx="41" cy="66.2" rx="0.7" ry="0.7"/>
		<ellipse id="XMLID_302_" class="st3" cx="29.7" cy="78.6" rx="0.7" ry="0.7"/>
		<ellipse id="XMLID_301_" class="st3" cx="37.3" cy="63.1" rx="0.7" ry="0.7"/>
		<ellipse id="XMLID_300_" class="st3" cx="25.9" cy="75.7" rx="0.7" ry="0.7"/>
		<ellipse id="XMLID_299_" class="st3" cx="34.5" cy="72.5" rx="0.7" ry="0.7"/>
		<path id="XMLID_298_" class="st8" d="M35.9,65.3c0.2,0,0.6,1.1,0.2,1.9c-0.5,0.8-0.5,1.6-1.7,2.9c-0.9,1-6.1,1.2-6.4,0.4
			c-0.4-1.5-0.3-5.8,1-6.9c0.3-0.3,0.2-0.8,0.4-0.8C32.6,61.9,37.7,63.4,35.9,65.3z"/>
		<path id="XMLID_297_" class="st8" d="M35.9,65.3c-0.7,0.2-2.9,0.2-4.1-0.7"/>
		<path id="XMLID_296_" class="st8" d="M36.2,67c-0.6,0.3-3,0.7-4.6,0"/>
		<path id="XMLID_295_" class="st8" d="M35.2,69c-0.6,0.3-2.8,0.3-4.7-0.2"/>
		<polygon id="XMLID_294_" class="st1" points="51.3,72.4 50.4,72.4 45,67.4 45.3,67.1 		"/>
		<polygon id="XMLID_293_" class="st2" points="51.3,72.4 52.7,72.4 46.1,66.2 45.3,67.1 		"/>
		<polygon id="XMLID_292_" class="st1" points="55.1,72.4 52.7,72.4 46.1,66.2 46.8,64.7 		"/>
		<polygon id="XMLID_291_" class="st10" points="55.1,72.4 56,72.4 47,63.9 46.8,64.7 		"/>
		<polygon id="XMLID_290_" class="st2" points="57.2,72.4 56,72.4 47,63.9 47.2,62.8 		"/>
		<path id="XMLID_289_" class="st1" d="M57.2,72.4H60L49.3,62c-1-0.6-2-1-2.1,0.8L57.2,72.4z"/>
		<path id="XMLID_288_" class="st9" d="M60,72.4L49.3,62c-1-0.6-2-1-2.1,0.8"/>
		<line id="XMLID_287_" class="st8" x1="39.2" y1="45.7" x2="37.4" y2="47.9"/>
		<polygon id="XMLID_286_" class="st11" points="39.3,47 39,46.8 38.5,47.5 38.8,47.7 		"/>
		<polygon id="XMLID_285_" class="st11" points="43.4,51 43.1,50.7 42.6,51.4 42.9,51.7 		"/>
		<polygon id="XMLID_284_" class="st11" points="45.6,53 45.3,52.8 44.6,53.5 44.9,53.8 		"/>
		<polygon id="XMLID_283_" class="st11" points="49.6,56.7 49.3,56.5 48.3,57.7 48.5,58 		"/>
		<polygon id="XMLID_282_" class="st11" points="53.8,60.6 53.5,60.4 52.5,61.7 52.8,61.9 		"/>
		<polygon id="XMLID_281_" class="st11" points="58.2,64.6 57.9,64.4 56.9,65.6 57.2,65.9 		"/>
		<polygon id="XMLID_280_" class="st11" points="62.5,68.7 62.2,68.5 61.2,69.7 61.5,70 		"/>
		<path id="XMLID_279_" class="st11" d="M50.1,60.1c-0.1-0.1-0.2-0.1-0.3-0.1c-0.3,0-0.6,0.3-0.6,0.6c0,0.3,0.3,0.6,0.6,0.6
			c0.3,0,0.6-0.3,0.6-0.6c0-0.1,0-0.1,0-0.2l1.4-1.6l-0.3-0.2L50.1,60.1z"/>
		<path id="XMLID_278_" class="st11" d="M54.5,64.1c-0.1-0.1-0.2-0.1-0.3-0.1c-0.3,0-0.6,0.3-0.6,0.6c0,0.3,0.3,0.6,0.6,0.6
			c0.3,0,0.6-0.3,0.6-0.6c0-0.1,0-0.1,0-0.2l1.4-1.6l-0.3-0.2L54.5,64.1z"/>
		<path id="XMLID_277_" class="st11" d="M58.8,68.1c-0.1-0.1-0.2-0.1-0.3-0.1c-0.3,0-0.6,0.3-0.6,0.6c0,0.3,0.3,0.6,0.6,0.6
			c0.3,0,0.6-0.3,0.6-0.6c0-0.1,0-0.1,0-0.2l1.4-1.6l-0.3-0.2L58.8,68.1z"/>
		<polygon id="XMLID_276_" class="st11" points="47.5,54.8 47.2,54.6 46.5,55.5 46.8,55.7 		"/>
		<polygon id="XMLID_275_" class="st11" points="46.7,53.9 46.2,53.5 45.3,54.4 45.8,54.8 		"/>
		<polygon id="XMLID_274_" class="st11" points="40.7,48 40.2,47.6 39.6,48.5 40.1,48.8 		"/>
		<polygon id="XMLID_273_" class="st11" points="42.6,50 42.1,49.6 41.4,50.3 41.9,50.7 		"/>
		<polygon id="XMLID_272_" class="st11" points="41.6,49 41.2,48.7 40.5,49.5 40.9,49.8 		"/>
		<polygon id="XMLID_271_" class="st11" points="44.8,52.1 44.2,51.7 43.5,52.5 44.1,52.9 		"/>
		<path id="XMLID_270_" class="st11" d="M48.8,56l-0.5-0.6l-1.2,1.4c-0.4,0.5-0.4,0.9-0.4,1.2c0,0,0.5,1.2,1.2,1.4
			c0.7,0.2,1.4-0.2,1.5-0.3l0,0l0,0c0,0,0,0,0,0l0,0l1.2-1.4l-0.5-0.5L49,58.6c-0.2,0.1-0.7,0.4-1.2,0.1c-0.5-0.3-0.3-1-0.1-1.3
			L48.8,56z"/>
		<path id="XMLID_269_" class="st11" d="M53.1,59.9l-0.5-0.6l-1.2,1.4c-0.4,0.5-0.4,0.9-0.4,1.3c0,0,0.5,1.2,1.2,1.4
			c0.8,0.2,1.4-0.2,1.5-0.3l0,0l0,0c0,0,0,0,0,0v0l1.2-1.4l-0.5-0.5l-1.2,1.4C53,62.7,52.5,63,52,62.6c-0.5-0.3-0.3-1.1-0.1-1.3
			L53.1,59.9z"/>
		<path id="XMLID_268_" class="st11" d="M57.5,63.9l-0.5-0.6l-1.2,1.4c-0.4,0.5-0.4,0.9-0.4,1.3c0,0,0.5,1.2,1.2,1.4
			c0.8,0.2,1.4-0.2,1.5-0.3l0,0l0,0c0,0,0,0,0,0l0,0l1.2-1.4l-0.5-0.5l-1.2,1.4c-0.2,0.1-0.7,0.4-1.2,0.1c-0.5-0.3-0.3-1.1-0.1-1.3
			L57.5,63.9z"/>
		<path id="XMLID_267_" class="st11" d="M61.8,68l-0.5-0.6L60,68.8c-0.4,0.5-0.4,0.9-0.4,1.3c0,0,0.5,1.2,1.2,1.4
			c0.8,0.2,1.4-0.2,1.5-0.3l0,0l0,0c0,0,0,0,0,0l0,0l1.2-1.4l-0.5-0.5l-1.2,1.4c-0.2,0.1-0.7,0.4-1.2,0.1c-0.5-0.3-0.3-1.1-0.1-1.3
			L61.8,68z"/>
		<path id="XMLID_266_" class="st4" d="M19.7,57.7L17,56.6v41.2l7.9,7.3l5.3-20.7l-12.1-8.6c2.2-0.6,3.4-5.2,5.4-7l-2.9-2.6l1.4-2.6
			C22.6,62.9,22.9,62.8,19.7,57.7z"/>
		<line id="XMLID_265_" class="st8" x1="17" y1="97.8" x2="25.4" y2="105.6"/>
		<path id="XMLID_264_" class="st1" d="M22.3,78.7c0.3,1.1,3.4,13.2,0.6,13.7c1.9,0.5,2,3,0.3,4.4c1.1,0.8,0.8,3.8,0.8,3.8
			l-1.9,15.5l2,4.1l-2.5,4.4l-1.6-4.4c0,0,1.1-2.2,1.7-3.6c0.7-1.4,0.1-2.1,0.1-2.1s-1.2-12.3-1.7-14.8c-0.6-2.5,1-2.1,0.7-3.2
			c-1.9-1.9-0.4-3.4,0.3-4.1c-1.5-0.9-0.9-3.7-0.9-3.7l1.3-10.7L22.3,78.7z"/>
		<ellipse id="XMLID_263_" class="st1" cx="23.7" cy="115.7" rx="1.6" ry="1.6"/>
		<ellipse id="XMLID_262_" class="st1" cx="20.5" cy="115.7" rx="1.6" ry="1.6"/>
		<path id="XMLID_261_" class="st9" d="M21.8,98c0,0-0.7,0.7-0.5,2.6c0.1,1.9,0.8,10.1,0.8,8.7"/>
		<path id="XMLID_260_" class="st9" d="M22.1,91.7c0,0-0.9-0.5-0.8-2.5c0.1-1.9,0.8-9.6,0.8-8.7"/>
		<path id="XMLID_259_" class="st9" d="M22.1,97c1.2,0,2.2-1,2.2-2.3s-1-2.3-2.2-2.3c-1.2,0-2.2,1-2.2,2.3S20.9,97,22.1,97z"/>
		<path id="XMLID_258_" class="st10" d="M21.6,93.6h0.5c0,0-0.7,0.5-0.7,1.3c0,0.8,0.6,1.3,0.6,1.3h-0.6c0,0-0.6-0.5-0.5-1.4
			C21.1,93.8,21.6,93.6,21.6,93.6z"/>
		<polygon id="XMLID_257_" class="st12" points="22,118.2 23,120.3 21.9,122.5 21.1,120.2 		"/>
		<path id="XMLID_256_" class="st11" d="M28.4,86.8l0.2-0.8c0,0-0.1,0-0.1,0c-1,0-1.8,0.8-1.8,1.9c0,0.8,0.5,1.4,1.1,1.7l0.2-0.9
			c-0.3-0.2-0.6-0.5-0.6-0.9C27.4,87.3,27.8,86.9,28.4,86.8z"/>
		<path id="XMLID_255_" class="st11" d="M27.1,92.5l0.2-0.8c0,0-0.1,0-0.1,0c-1,0-1.7,0.8-1.7,1.8c0,0.7,0.4,1.4,1.1,1.6l0.2-0.8
			c-0.3-0.2-0.5-0.5-0.5-0.8C26.1,93.1,26.5,92.7,27.1,92.5z"/>
		<path id="XMLID_254_" class="st11" d="M28.9,85.1c0-0.3-0.5-1-0.8-1c-0.3,0-0.6,0.3-0.6,0.6c0,0.3,0.3,0.6,0.6,0.6
			C28.6,85,29,85.3,28.9,85.1z"/>
		<path id="XMLID_253_" class="st11" d="M27.5,90.8c0-0.3-0.5-1-0.8-1c-0.3,0-0.6,0.3-0.6,0.6c0,0.3,0.3,0.6,0.6,0.6
			C27.2,90.7,27.6,91,27.5,90.8z"/>
		<path id="XMLID_252_" class="st11" d="M25.6,95.8c-0.3,0-0.6,0.3-0.6,0.6c0,0.3,0.3,0.6,0.6,0.6C26,96.7,26.4,96.1,25.6,95.8z"/>
		<path id="XMLID_251_" class="st11" d="M25.4,97.8c-0.2,0-0.4,0.2-0.4,0.4c0,0.2,0.2,0.4,0.4,0.4C25.7,98.4,25.9,98,25.4,97.8z"/>
		<path id="XMLID_250_" class="st7" d="M37.9,15.7c0.9,1.9,3.3,11.6,0.4,18.7l7.4,2.7"/>
		<path id="XMLID_249_" class="st1" d="M19.4,57.8l8.2,4.1c0,0-1.9,3.7-1.8,5.2c0.1,1.5,0.6,4.3,0.6,4.3l-7,3.6c0,0,0.9-3.9,3.1-6
			c0.3-0.5-1.4-1-2.5-2.9c0.7-1.2,1.6-2,2.2-2.6C21.7,62.7,19.6,59.7,19.4,57.8z"/>
		<path id="XMLID_248_" class="st13" d="M19.3,75c0,0,0.9-3.9,3.1-6c0.3-0.5-1.4-1-2.5-2.9c0.7-1.2,1.6-2,2.2-2.6
			c-0.4-0.9-2.6-3.9-2.8-5.8"/>
		<path id="XMLID_247_" class="st2" d="M21.5,59l1.9,0.9c0,1.4,0.9,3.4,1.8,4.2c0.4,0.4,0.6,0.4,0.4,0.7c-0.1,0.3-0.3,0.8-0.6,0.9
			c-0.5,0.4-1.5,0.8-1.5,0.8c0.3,0.7,0.5,1,1.2,1.5c-0.2,0.6-0.1,1.1,0.1,1.8c-0.8,1-1.1,2-1.3,2.9l-1.8,1c0.4-1.6,0.9-3.1,1.9-4.7
			c-0.7-0.8-1.3-1.7-1.8-2.7c0.7-0.7,1.2-1.2,2.1-1.6C22.6,62.9,22,60.9,21.5,59z"/>
		<path class="st8" d="M26.3,71.4l-7,3.6 M17.2,56.6l10.3,5.3"/>
		<path id="XMLID_244_" class="st5" d="M72.7,15.7l-0.3,12.1c0,0,0.7,15.4-6.6,15.2c-7.2-0.2-12.2-8.8-12.7-10.9"/>
		<path id="XMLID_243_" class="st1" d="M36.5,48.9l0.9-1c0,0,10,8.5,10,12.5c0,4-1,5.7-2.8,7.4c-1.2,1.1-3.4,2.6-5.5,4.9
			c-3.4,3.7-7.5,8.9-8.9,11.6l-12.1-8.6l1.8-1.2l10,7.1c0,0,6.2-8.7,7.8-10.2c1.6-1.4,7.6-5,7.9-8.7c0.4-3.6-2.2-7.1-2.4-7
			C41,53.6,38.9,51.1,36.5,48.9z"/>
		<path id="XMLID_242_" class="st2" d="M62.5,15.8l-16,28.8L66,62.3l3.8-15.3l4-1.3l0.9,0.7c0.3,0.4,0.7,0.9,0.9,1.4L70.6,68
			l-1.2-1.4L67,71l-0.6,0.1l0,0l-1.1,0.1l-1.2-2.3l-25-23.2l6.4-8.6l11.8-21.2H62.5z"/>
		<path id="XMLID_241_" class="st1" d="M44,48.1c0,0,1.7-1,0.7-1.7c-1.1-0.8-2,0.9-1.6,1.9c0.4,1,2,1.9,2,1.9l1,0.1
			c-0.1,0-0.3,1.3,1.1,1.9c1.3,0.7,2.1-0.6,1.6-1.1c-0.5-0.5-1-0.1-1.3,0.3c-0.2,0.4-0.8-0.9-0.1-1.4c0.7-0.3,2.1-0.5,2.8,0.9
			c0.7,1.3,0.1,2.6-0.5,2c-0.5-0.6-1.7,0.1-1,0.9c0.7,0.7,1.2,0.4,1.2,0.4s-0.2,1.2,0.7,1.3c0.9,0.1,1.3-1,0.6-1.3
			c-0.7-0.4,0.4-1.4,1.7-0.7c1.2,0.7,0.9,2.1,0.9,2.3c0,0.2-0.4,0.8-1-0.4c-0.6-1.1-2.1,0.3-1.1,1.3c1,1,1.9,0.3,1.9,0.3
			s0.3,2,1.6,3.2c1.3,1.2,2.9,0.3,2.9-0.9c0-0.8-0.4-1-1.1-1c-0.6,0-0.6,0.6-0.3,1.2c-0.2,0.7-1.4-0.6-1.6-1.3
			c-0.2-0.7-0.2-1.8,0.1-1.9c0.2-0.1,1.8,0.8,1.3-1.1c-0.2-0.7-1.2-0.5-1.5-0.4c-0.1,0-0.3-2.8-3.3-2.7c-0.1-1.1-0.2-2.8-3.4-3.3
			c0-2.2-2.4-1.6-1.9,0C46,50,44.2,49,44,48.1z"/>
		<path id="XMLID_240_" class="st1" d="M59.3,61.1c0,0,1,0.3,1.1-0.4c0.1-0.7-0.6-1.2-1.2-1c-0.6,0.3-1.3,0.9-1.1,2.1
			c0.1,1.3,0.9,1.9,2,2.6c1.1,0.7,1.6,0.5,1.8,0.4c0.2-0.1-0.2,1.1,0.6,1.7c0.9,0.6,1.4,0.6,1.2-0.3c-0.3-0.9-1-1.6-0.4-2.1
			c0.6-0.6,1.3,0,1.4-0.1l0.8-0.7c-0.4-0.5-1-0.8-1.6-0.8c-0.2-0.2,0-1.1-0.9-1.3c-0.9-0.2-1.5,0.5-1.2,1.2c0.3,0.6,1.1,1.2,0.2,1.3
			C61.2,63.8,59.1,63.4,59.3,61.1z"/>
		<ellipse id="XMLID_239_" class="st1" cx="66.7" cy="66.9" rx="1" ry="1"/>
		<ellipse id="XMLID_238_" class="st1" cx="66.7" cy="69" rx="1" ry="1.1"/>
		<path id="XMLID_237_" class="st1" d="M71.9,48.6c0,0,0.9,1.1,1.5,0.6c0.6-0.6,0.4-1.5-0.2-1.8c-0.6-0.3-1.8-0.2-2.5,0.4
			c-0.7,0.6-1.1,3.1,0.2,3.8c0.8,0.5-1.5-0.1-2,1.4c-0.5,1.5,0.9,1.7,1.2,1.7c0.3,0,1.3-0.3,0.5-1.3c-0.8-0.9,1.2-0.7,1.1,0.8
			c-0.2,1.5-1.4,2.5-1.8,2.1c-0.4-0.4-0.4-1.4-1.2-0.9c-0.8,0.6,0.3,1.5-0.2,1.7c-0.5,0.3-0.5,0.5-0.5,1.2c0.3,0.6,0.8,0.4,1.2,0.2
			c0.4-0.3,0.8-0.2,1,0.5c0.2,0.7,0.3,2.3-0.8,2.5c-1.1,0.2-0.7-0.5-0.7-0.5s1.2-1,0.2-1.6c-0.6-0.4-1.8,0.1-1.7,1.3
			c0.1,1.2,0.5,1.3,0.5,1.3s-1.2,0.9-0.4,1.5c0.8,0.6,1.5-0.4,1.4-0.1c-0.2,0.4,2.1,1,1.5-0.9c-0.3-0.8,0.9-0.6,1-2.3
			c0.1-1.7-0.3-2.1-0.5-2.6c0.5-0.2,1.8-1.4,2.1-3.8c-0.6-2.1-0.2-1.5-0.2-1.5c0.1,0,1.2-1.8-0.8-1.8C71.2,50.7,71.1,48.5,71.9,48.6
			z"/>
		<path id="XMLID_236_" class="st1" d="M66.4,70.9l-0.8,1.1c-1.1-0.6-1.9-2.1-1.9-4c0-2.3,1.3-4.2,2.9-4.2c1.2,0,2.3,1.2,2.7,2.7
			l-1,1.4c0,0,0,0,0-0.1c0-1.7-0.8-3.1-1.8-3.1c-1,0-1.8,1.3-1.8,3C64.8,69.5,65.5,70.8,66.4,70.9z"/>
		<path id="XMLID_235_" class="st2" d="M72.5,113.5c0.1-1.4,0.4-4.3,1.4-5.6h-4c0,0,2,4.3,1.1,6.3c-0.5,1-0.7,0.3-0.9-0.7
			c-0.6-3.4-5.6-3.3-6.5-0.2c-0.9,3,0.7,5.8,3.6,9.4c2.8,3.6,4.1,6.5,4.7,8.2c0.6-3.2,5.1-8.9,7.1-12.1c2-3.1,1.2-6.6-1-7.6
			c-2.2-1-4.5,0.9-4.8,2.7C73.2,115.5,72.5,114.2,72.5,113.5z"/>
		<path id="XMLID_234_" class="st3" d="M63.4,102.8l12.1-11.3c0,0-1-2.8-2.9-2.9c-1.9-0.1-1.3-1.2-4-1.2c-2.7,0-3.9,1.4-3.9,1.4
			l-8.1,7.1L63.4,102.8z"/>
		<path id="XMLID_233_" class="st4" d="M60.7,106l1.8-2.3c-3.3-2.7-6.3-5.7-8.5-9.1c-1-1.5-1.8-3.6-1.4-5.3l-12-9.9h-6l-1.2,1.5
			L60.7,106z"/>
		<polygon id="XMLID_232_" class="st3" points="60.4,79.3 49.5,79.3 54.9,84.4 		"/>
		<path id="XMLID_231_" class="st5" d="M28.9,136c-0.1-1.4-0.6-2.5-1.8-2.7"/>
		<path id="XMLID_230_" class="st5" d="M29.9,136c-0.1-1.4-0.7-3.4-2.5-3.8"/>
		<path id="XMLID_229_" class="st5" d="M35.8,136c0.4-1.7,1.4-4.2,3.8-3.6"/>
		<path id="XMLID_228_" class="st5" d="M30.9,136c-0.1-1.5-1.2-4.4-3.4-4.9"/>
		<path id="XMLID_227_" class="st5" d="M34.9,136c0.1-1.5,1.4-5.4,5.4-4.8"/>
		<path id="XMLID_226_" class="st5" d="M32.1,136c-0.1-1.5-1.3-5.9-4.6-6.5"/>
		<path id="XMLID_225_" class="st5" d="M33.9,136c0.1-2,1.6-6.7,7.1-6"/>
		<path id="XMLID_224_" class="st1" d="M62,136c-0.9-1.9-3.3-11.6-0.4-18.7l-7.4-2.7L42.9,136H62z"/>
		<path id="XMLID_223_" class="st5" d="M33,136c-0.1-1.5-0.6-6.2-5.6-7.6"/>
		<path id="XMLID_222_" class="st5" d="M33,136c0.1-3.8,2.4-8.2,9-7"/>
		<path id="XMLID_221_" class="st6" d="M47,136c0,0,0-4.6,4.6-5c-0.6-2.6-0.4-6.3,4-7.2c-1-4.1,0.3-5.6,3.5-7.3"/>
		<ellipse id="XMLID_220_" class="st2" cx="50.1" cy="129.9" rx="0.5" ry="0.5"/>
		<ellipse id="XMLID_219_" class="st2" cx="48.8" cy="135" rx="0.7" ry="0.7"/>
		<ellipse id="XMLID_218_" class="st2" cx="51.2" cy="134.3" rx="0.6" ry="0.6"/>
		<ellipse id="XMLID_217_" class="st2" cx="55.1" cy="127.2" rx="0.6" ry="0.6"/>
		<ellipse id="XMLID_216_" class="st2" cx="59" cy="119.9" rx="0.6" ry="0.6"/>
		<ellipse id="XMLID_215_" class="st2" cx="54.3" cy="128.8" rx="0.6" ry="0.6"/>
		<ellipse id="XMLID_214_" class="st2" cx="58.2" cy="121.7" rx="0.6" ry="0.6"/>
		<ellipse id="XMLID_213_" class="st2" cx="54.1" cy="122.7" rx="0.5" ry="0.5"/>
		<path id="XMLID_212_" class="st2" d="M53.3,134.1c0,0.7-1.1,0.9-1,0c0-0.9,0.7-1.6,0.7-1.6C53.1,133,53.3,133.4,53.3,134.1z"/>
		<path id="XMLID_211_" class="st2" d="M57.2,127c0,0.7-1.1,0.9-1,0c0-0.9,0.7-1.6,0.7-1.6C57,125.9,57.2,126.3,57.2,127z"/>
		<path id="XMLID_210_" class="st2" d="M61.1,119.7c0,0.7-1.1,0.9-1,0c0-0.9,0.7-1.6,0.7-1.6C60.9,118.7,61.2,119.1,61.1,119.7z"/>
		<path id="XMLID_209_" class="st2" d="M55.2,132.3c0.6,0.3,0.3,1.4-0.4,1c-0.7-0.4-1.3-1.3-1.3-1.3C53.9,132,54.6,131.9,55.2,132.3
			z"/>
		<path id="XMLID_208_" class="st2" d="M59.1,125.2c0.6,0.3,0.3,1.4-0.4,1c-0.7-0.4-1.3-1.3-1.3-1.3
			C57.8,124.9,58.5,124.9,59.1,125.2z"/>
		<path id="XMLID_207_" class="st2" d="M54.8,129.8c0.5-0.4,1.2,0.3,0.6,0.8c-0.6,0.4-1.6,0.6-1.6,0.6
			C54.1,130.7,54.3,130.1,54.8,129.8z"/>
		<path id="XMLID_206_" class="st2" d="M58.7,122.7c0.5-0.4,1.2,0.3,0.6,0.7c-0.6,0.4-1.6,0.6-1.6,0.6
			C58,123.6,58.2,123.1,58.7,122.7z"/>
		<path id="XMLID_205_" class="st2" d="M53.7,130.4l-0.7,1.1c0,0-1.2-1.3-1-2.6c0.2-1.3,0.6-1.4,1-1.1c0.4,0.3,0.1,0.8-0.2,0.9
			c-0.3,0.1-0.1,0.7,0.2,1.1C53.3,130.1,53.7,130.4,53.7,130.4z"/>
		<path id="XMLID_204_" class="st2" d="M57.6,123.3l-0.7,1.1c0,0-1.2-1.3-1-2.6c0.2-1.3,0.6-1.4,1-1.1c0.4,0.3,0.1,0.8-0.2,0.9
			c-0.3,0.1-0.1,0.7,0.2,1.1C57.2,123,57.6,123.3,57.6,123.3z"/>
		<path id="XMLID_203_" class="st2" d="M52.1,132.7l0.8-1.1c0,0-1.7-0.3-2.7,0.4c-1,0.6-1,1.4-0.5,1.7c0.4,0.2,0.9-0.2,0.7-0.5
			c-0.1-0.3,0.4-0.6,0.8-0.6C51.7,132.6,52.1,132.7,52.1,132.7z"/>
		<path id="XMLID_202_" class="st2" d="M56,125.7l0.8-1.1c0,0-1.7-0.3-2.7,0.4c-1,0.6-1,1.4-0.5,1.7c0.4,0.2,0.9-0.2,0.7-0.5
			c-0.1-0.3,0.4-0.6,0.8-0.6C55.6,125.5,56,125.7,56,125.7z"/>
		<path id="XMLID_201_" class="st2" d="M59.9,118.4l0.8-1.1c0,0-1.7-0.3-2.7,0.4c-1,0.6-1,1.4-0.5,1.7c0.4,0.2,0.9-0.2,0.7-0.5
			c-0.1-0.3,0.4-0.6,0.8-0.6C59.5,118.2,59.9,118.4,59.9,118.4z"/>
		<path class="st3" d="M34.3,126.1c-0.5,0,1,1.8,3.2,1.5c1.8-0.2,2.1-0.7,3.4-1.4c-1.2,0.3-3.2,0.5-4.9,0.3
			C35,126.5,34.4,126.1,34.3,126.1L34.3,126.1z M36.8,125.5c2.8,0.1,3.7-1.2,3.7-1.2s-0.4-0.1-1.2,0.2c-0.4,0.2-0.9,0.3-1.4,0.3
			c-0.5,0-0.9-0.2-1.3-0.2c-0.8,0-1.2,0.6-1.2,0.6l0.1-0.6c0,0,0.5-0.3,0.2-0.9c-0.4-0.6-0.5-0.1-0.2-1c0.4-0.9,0.9-1.4,1.4-1.5
			c-0.5,0.9-1.1,1.5,0.3,1.2c1.9-0.3,3,0.8,3,0.8h2v0.5c0,0-0.5,0.2-1.8,1.3C39.1,126.2,37.1,125.8,36.8,125.5L36.8,125.5z
			 M38.8,123.9c0.5,0,0.7-0.1,1-0.4c0.3-0.3-1.6-0.6-1.2-0.3C38.9,123.4,38.8,123.9,38.8,123.9L38.8,123.9z M38.4,124
			c0,0,0.3-0.8-0.3-1.1c-0.5-0.4-1-0.1-1.2,0c-0.2,0.2-0.6,0.6-0.3,0.9c0.2,0.2,0.2-0.6,0.8-0.7C38,123.1,38.4,124,38.4,124
			L38.4,124z M36.5,117.6c0,0-0.1-1.4-0.7-1.3c-0.6,0.1-1.4,0.9-1.8,0.9c-0.4,0-0.8-0.1-0.7-0.5c0.1-0.4,0.7-0.5,1.2-0.6
			c0.5-0.1,1.3-0.4,1.7-0.1C36.6,116.2,36.9,116.7,36.5,117.6L36.5,117.6z M27.6,127.2c0,0,2.7,0.2,3.5-0.6c0.8-0.8,1.3-2.1,1.2-3.6
			c-0.1-1.5-0.8-5.5-0.8-5.5s1-0.8,1.1-1.1c0.1-0.3,0.1-0.8-0.4-0.4c-0.5,0.4-1.2,1.1-1.2,1.3l0.9,4.3l-0.3,0.1l-0.5-0.4l-0.2,0.2
			l0.6,0.6v0.5c0,0-1-0.7-2.3-0.5c-1.4,0.2-1.7,0.8-1.7,0.8L27.6,127.2L27.6,127.2z M31.3,125.5c-0.2,0.5-1.4,1.1-2.7,0.7
			c-1.3-0.4-1.1-0.5-1.1-0.5s-0.3-0.8,0.3-0.4C28.2,125.7,30.3,126,31.3,125.5L31.3,125.5z M31.7,124.7c-0.3,0-0.8,0.7-2.2,0.5
			c-1.5-0.2-1.6-0.8-1.6-0.8c0,0,0.7,0.1,1.7,0.2c1,0,2.1-0.3,2.1-0.3V124.7L31.7,124.7z M30.9,123.7c0-0.5-0.3-1-0.3-1
			s0.2,0,0.5,0.1c0.4,0.2,0.7,0.7,0.7,0.7L30.9,123.7L30.9,123.7z M30.4,123.7h-0.3c0-0.4-0.2-0.7-0.4-0.7c-0.6,0-0.6,0.7-0.6,0.7
			s-0.5,0.2-0.3-0.3c0.2-0.5,0.2-0.9,0.9-0.9S30.4,123.7,30.4,123.7L30.4,123.7z M28.3,123.8c-0.3,0-0.7,0-0.9-0.2
			c0,0,1.1-1.1,1.1-0.7C28.5,123.3,28.3,123.8,28.3,123.8L28.3,123.8z M36.6,113.6c0,0-0.7-0.2-1.2,0c-0.3,0.1-1,0.8-1.4,0.3
			c-0.3-0.4-0.5-0.3-0.5-0.3s-0.1,0.3-0.5,0.4c-0.4,0.1-0.6-0.1-0.8-0.2c-0.2,0-0.5-0.2-0.8,0.1c-0.2,0.2-0.2-0.1-0.3-0.4
			c-0.1-0.3-0.1-0.6-0.1-0.6s0.1,0.1,0.5,0.2c0.5,0.1,0.6-0.1,1-0.3c0.4-0.2,0.9-0.6,1.6-0.2c0.7,0.3,1.9,0.1,2.5-0.4
			C36.7,112.6,36.7,113,36.6,113.6L36.6,113.6z M34.3,111.1c0,0-0.3,0.2-0.8,0.2c-0.5,0-1-0.3-1-0.2c0,0.1,0.1,0.3,0.6,0.5
			c0,0,0.1,0,0.1,0c0,0,0,0,0,0c-0.5,0.2-0.6,0.4-0.7,0.5c-0.1,0.1,0.5-0.2,1.2-0.2c0.6,0,0.9,0.2,0.9,0.2c-0.2-0.4-0.4-0.5-0.8-0.5
			c-0.1,0-0.1,0-0.2-0.1C34,111.6,34.1,111.5,34.3,111.1z"/>
		<polygon id="XMLID_187_" class="st4" points="44.3,135.9 55.4,115.4 54.3,114.6 42.6,135.9 		"/>
		<line id="XMLID_186_" class="st7" x1="44.3" y1="135.9" x2="55.4" y2="115.4"/>
		<path id="XMLID_185_" class="st1" d="M53.4,107.1L33.9,89.4l-3.8,15.3l-3.9,1.4l4.8,3.6c5.4-2.9,12.2,2.4,15.6,9.5L53.4,107.1z"/>
		<path id="XMLID_184_" class="st3" d="M27.4,127.9c-0.8-4.6-3.1-18.9-2.2-22.7c1.5,0.8,4.9,3.9,5.8,4.4
			C28.3,111.9,27.9,117.8,27.4,127.9z"/>
		<path id="XMLID_183_" class="st3" d="M50.6,112.8c0.1-0.3,0.2-0.6,0.3-0.9c-3.7-1.3-8.6-2.5-12.5-2.3c0.8,0.6,1.6,1.1,2.4,1.7
			C43.8,110.9,47.8,112.1,50.6,112.8z"/>
		<path id="XMLID_182_" class="st8" d="M43.1,113.3c0,0,0-1.7-0.3-2.6"/>
		<path id="XMLID_181_" class="st8" d="M44.6,115.3c0,0-0.2-3.2-0.6-4.4"/>
		<line id="XMLID_180_" class="st8" x1="46.5" y1="118.5" x2="45.5" y2="110.7"/>
		<line id="XMLID_179_" class="st8" x1="47.7" y1="117.5" x2="46.7" y2="111.4"/>
		<line id="XMLID_178_" class="st8" x1="48.7" y1="116.2" x2="47.8" y2="111.5"/>
		<path id="XMLID_177_" class="st9" d="M51.9,110.8c0,0-6.4-2.8-11.3-3c-4-0.2-8.9,0.4-11.1,0.8"/>
		<path id="XMLID_176_" class="st9" d="M46.5,104L33.8,92L31,103.3c0,0,2.6-0.4,6.1-0.4C40,103,43.4,103.4,46.5,104z"/>
		<path class="st2" d="M30.1,104.9c-0.6,0.1-1.2,0.3-1.7,0.4l0.7,1.8l0.6,0.5l1.1-0.4L30.1,104.9L30.1,104.9z M33,104.4
			c-0.6,0.1-1.2,0.1-1.7,0.2l0.5,2.5l1.5-0.2L33,104.4L33,104.4z M36.1,104.2c-0.6,0-1.2,0-1.7,0.1l0.1,2.4l1.5,0L36.1,104.2
			L36.1,104.2z M38.9,104.3c-0.6,0-1.1-0.1-1.6-0.1l0.1,2.2l1.5,0.1L38.9,104.3L38.9,104.3z M41.9,104.6c-0.6-0.1-1.2-0.1-1.8-0.2
			l-0.1,2.2l1.7,0.2L41.9,104.6L41.9,104.6z M44.8,105c-0.5-0.1-1-0.2-1.6-0.3l-0.3,2.1l1.6,0.2L44.8,105L44.8,105z M47.8,105.7
			c-0.5-0.1-1-0.3-1.6-0.4l-0.5,1.9l1.7,0.3L47.8,105.7L47.8,105.7z M50.7,106.5c-0.5-0.1-1-0.3-1.6-0.5l-0.7,1.9l1.6,0.5
			L50.7,106.5L50.7,106.5z M51.9,106.9c1,0.3,1.5,0.6,1.5,0.6l1,0.7l-0.6,1.6l-2.6-1L51.9,106.9z"/>
		<polygon id="XMLID_166_" class="st9" points="42,101.6 32.5,101.6 34.3,94.4 		"/>
		<polygon id="XMLID_165_" class="st9" points="39.1,101.6 34.4,101.6 36,100.2 		"/>
		<polyline id="XMLID_164_" class="st9" points="32.5,101.6 35.8,99.1 41.5,101.1 		"/>
		<polyline id="XMLID_163_" class="st9" points="33,99.7 35.3,98.1 39.6,99.3 		"/>
		<polyline id="XMLID_162_" class="st9" points="33.3,98.1 35,96.8 37.7,97.7 		"/>
		<path id="XMLID_161_" class="st9" d="M33.8,96.7c0.9-1,1.2-1.1,2.4-0.5"/>
		<path id="XMLID_160_" class="st1" d="M73.7,96.8c0,0-0.7-2.5-3.1-3.2c-2.4-0.7-3.8-2.7-3.4-4.1c0.7-0.1,0.9,0,1.3-0.1
			c0,0,1.3,2.2,2.7,2.5c1.5,0.3,2.7,1.9,3.2,2.8c0.6,0.9,0.7,1.8,0.7,1.8L73.7,96.8z"/>
		<path id="XMLID_159_" class="st1" d="M66,96.2c0,0-0.4-0.1-0.7-0.6c-0.5-0.7-0.8-2.5-0.6-3.7c0.4-2,0.5-1.6,0.7-2
			c0.3-0.3,1.2-0.8,1.4,1.1C66.7,93.5,66,96.2,66,96.2z"/>
		<polygon id="XMLID_158_" class="st3" points="56.3,92 58.9,89.9 61.2,91 60,88.8 61.6,86.1 58.9,88.2 56.4,86.4 57.9,89.1 		"/>
		<polygon id="XMLID_157_" class="st3" points="67.8,79.3 70.4,77.5 72.8,78.9 71.2,76.5 72.7,73.7 70.2,75.5 67.8,74.4 69.3,76.6 
					"/>
		<path id="XMLID_156_" class="st3" d="M65,82.8c0.9-0.3,1.6-0.3,1.1-0.7c-0.3-0.2,0.1-0.7,0.8-1l0.7-0.8l-2.5,1.4l-2.6-1.6l1.7,2.5
			l-1.9,2.7l2.8-1.1C64.5,83.8,64.4,82.1,65,82.8z"/>
		<ellipse id="XMLID_155_" class="st3" cx="58.9" cy="85.6" rx="0.7" ry="0.7"/>
		<ellipse id="XMLID_154_" class="st3" cx="70.2" cy="73.1" rx="0.7" ry="0.7"/>
		<ellipse id="XMLID_153_" class="st3" cx="62.6" cy="88.6" rx="0.7" ry="0.7"/>
		<ellipse id="XMLID_152_" class="st3" cx="74" cy="76.1" rx="0.7" ry="0.7"/>
		<ellipse id="XMLID_151_" class="st3" cx="65.4" cy="79.2" rx="0.7" ry="0.7"/>
		<path id="XMLID_150_" class="st8" d="M64,86.4c-0.2,0-0.6-1.1-0.2-1.9c0.5-0.8,0.5-1.6,1.7-2.9c0.9-1,6.1-1.2,6.4-0.4
			c0.4,1.5,0.3,5.8-1,6.9c-0.3,0.3-0.2,0.8-0.4,0.8C67.3,89.8,62.1,88.3,64,86.4z"/>
		<path id="XMLID_149_" class="st8" d="M64,86.4c0.7-0.2,2.9-0.2,4.1,0.7"/>
		<path id="XMLID_148_" class="st8" d="M63.7,84.7c0.6-0.3,3-0.7,4.6,0"/>
		<path id="XMLID_147_" class="st8" d="M64.7,82.7c0.6-0.3,2.8-0.3,4.7,0.2"/>
		<polygon id="XMLID_146_" class="st1" points="48.6,79.3 49.5,79.3 54.9,84.4 54.6,84.7 		"/>
		<polygon id="XMLID_145_" class="st2" points="48.6,79.3 47.2,79.3 53.8,85.5 54.6,84.7 		"/>
		<polygon id="XMLID_144_" class="st1" points="44.8,79.3 47.2,79.3 53.8,85.5 53.1,87 		"/>
		<polygon id="XMLID_143_" class="st10" points="44.8,79.3 43.9,79.3 52.9,87.8 53.1,87 		"/>
		<polygon id="XMLID_142_" class="st2" points="42.7,79.3 43.9,79.3 52.9,87.8 52.7,88.9 		"/>
		<path id="XMLID_141_" class="st1" d="M42.7,79.3h-2.8l10.7,10.4c1,0.6,2,1,2.1-0.8L42.7,79.3z"/>
		<path id="XMLID_140_" class="st9" d="M39.9,79.3l10.7,10.4c1,0.6,2,1,2.1-0.8"/>
		<polygon id="XMLID_139_" class="st11" points="60.6,104.7 60.9,104.9 61.4,104.2 61,104 		"/>
		<polygon id="XMLID_138_" class="st11" points="56.5,100.8 56.8,101 57.3,100.3 57,100 		"/>
		<polygon id="XMLID_137_" class="st11" points="54.3,98.7 54.6,98.9 55.3,98.2 55,97.9 		"/>
		<polygon id="XMLID_136_" class="st11" points="50.3,95 50.6,95.2 51.6,94 51.3,93.8 		"/>
		<polygon id="XMLID_135_" class="st11" points="46.1,91.1 46.4,91.3 47.4,90.1 47.1,89.8 		"/>
		<polygon id="XMLID_134_" class="st11" points="41.7,87.1 42,87.3 43,86.1 42.7,85.8 		"/>
		<polygon id="XMLID_133_" class="st11" points="37.4,83 37.7,83.3 38.7,82 38.4,81.7 		"/>
		<path id="XMLID_132_" class="st11" d="M49.8,91.6c0.1,0.1,0.2,0.1,0.3,0.1c0.3,0,0.6-0.3,0.6-0.6s-0.3-0.6-0.6-0.6
			c-0.3,0-0.6,0.3-0.6,0.6c0,0.1,0,0.1,0,0.2l-1.4,1.6l0.3,0.2L49.8,91.6z"/>
		<path id="XMLID_131_" class="st11" d="M45.4,87.6c0.1,0.1,0.2,0.1,0.3,0.1c0.3,0,0.6-0.3,0.6-0.6c0-0.3-0.3-0.6-0.6-0.6
			c-0.3,0-0.6,0.3-0.6,0.6c0,0.1,0,0.1,0,0.2l-1.4,1.6l0.3,0.2L45.4,87.6z"/>
		<path id="XMLID_130_" class="st11" d="M41.1,83.6c0.1,0.1,0.2,0.1,0.3,0.1c0.3,0,0.6-0.3,0.6-0.6c0-0.3-0.3-0.6-0.6-0.6
			c-0.3,0-0.6,0.3-0.6,0.6c0,0.1,0,0.1,0,0.2l-1.4,1.6l0.3,0.2L41.1,83.6z"/>
		<polygon id="XMLID_129_" class="st11" points="52.4,96.9 52.7,97.1 53.4,96.3 53.1,96 		"/>
		<polygon id="XMLID_128_" class="st11" points="53.2,97.8 53.7,98.2 54.6,97.3 54.1,96.9 		"/>
		<polygon id="XMLID_127_" class="st11" points="59.2,103.7 59.7,104.1 60.3,103.2 59.8,102.9 		"/>
		<polygon id="XMLID_126_" class="st11" points="57.3,101.7 57.8,102.2 58.5,101.4 58,101 		"/>
		<polygon id="XMLID_125_" class="st11" points="58.3,102.7 58.7,103 59.4,102.2 59,101.9 		"/>
		<polygon id="XMLID_124_" class="st11" points="55.1,99.6 55.7,100 56.4,99.2 55.8,98.8 		"/>
		<path id="XMLID_123_" class="st11" d="M51.1,95.7l0.5,0.6l1.2-1.4c0.4-0.5,0.4-0.9,0.4-1.2c0,0-0.5-1.2-1.2-1.4
			c-0.7-0.2-1.4,0.2-1.5,0.3l0,0l0,0c0,0,0,0,0,0l0,0L49.2,94l0.5,0.5l1.2-1.4c0.2-0.1,0.7-0.4,1.2-0.1c0.5,0.3,0.3,1,0.1,1.3
			L51.1,95.7z"/>
		<path id="XMLID_122_" class="st11" d="M46.8,91.8l0.5,0.6l1.2-1.4c0.4-0.5,0.4-0.9,0.4-1.3c0,0-0.5-1.2-1.2-1.4
			c-0.8-0.2-1.4,0.2-1.5,0.3l0,0l0,0c0,0,0,0,0,0v0l-1.2,1.4l0.5,0.5l1.2-1.4c0.2-0.1,0.7-0.4,1.2-0.1c0.5,0.3,0.3,1.1,0.1,1.3
			L46.8,91.8z"/>
		<path id="XMLID_121_" class="st11" d="M42.4,87.8l0.5,0.6l1.2-1.4c0.4-0.5,0.4-0.9,0.4-1.3c0,0-0.5-1.2-1.2-1.4
			c-0.8-0.2-1.4,0.2-1.5,0.3l0,0l0,0c0,0,0,0,0,0l0,0l-1.2,1.4l0.5,0.5l1.2-1.4c0.2-0.1,0.7-0.4,1.2-0.1c0.5,0.3,0.3,1.1,0.1,1.3
			L42.4,87.8z"/>
		<path id="XMLID_120_" class="st11" d="M38.1,83.8l0.5,0.6l1.2-1.4c0.4-0.5,0.4-0.9,0.4-1.3c0,0-0.5-1.2-1.2-1.4
			c-0.8-0.2-1.4,0.2-1.5,0.3l0,0l0,0c0,0,0,0,0,0l0,0L36.2,82l0.5,0.5l1.2-1.4c0.2-0.1,0.7-0.4,1.2-0.1c0.5,0.3,0.3,1.1,0.1,1.3
			L38.1,83.8z"/>
		<path id="XMLID_119_" class="st4" d="M80.2,94l2.1,1.1V53.9l-6.8-6L70.6,68L81.7,76c-2.2,0.6-3.4,5.2-5.4,7l2.9,2.6l-1.4,2.6
			C77.2,88.8,77,88.9,80.2,94z"/>
		<line id="XMLID_118_" class="st8" x1="82.4" y1="53.9" x2="75.6" y2="47.8"/>
		<path id="XMLID_117_" class="st1" d="M77.6,73c-0.3-1.1-3.4-13.2-0.6-13.7c-1.9-0.6-2-3-0.3-4.4C75.7,54,75.9,51,75.9,51l1.9-15.5
			l-2-4.1l2.5-4.4l1.6,4.4c0,0-1.1,2.2-1.7,3.6c-0.7,1.4-0.1,2.1-0.1,2.1s1.2,12.3,1.7,14.9c0.6,2.5-1,2.1-0.7,3.2
			c1.9,1.9,0.4,3.4-0.3,4.1c1.5,0.9,0.9,3.7,0.9,3.7l-1.3,10.7L77.6,73z"/>
		<ellipse id="XMLID_116_" class="st1" cx="76.2" cy="36" rx="1.6" ry="1.6"/>
		<ellipse id="XMLID_115_" class="st1" cx="79.4" cy="36" rx="1.6" ry="1.6"/>
		<path id="XMLID_114_" class="st9" d="M78.1,53.7c0,0,0.7-0.7,0.5-2.6c-0.1-1.9-0.8-10.2-0.8-8.7"/>
		<path id="XMLID_113_" class="st9" d="M77.8,60.1c0,0,0.9,0.6,0.8,2.5c-0.1,1.9-0.8,9.6-0.8,8.7"/>
		<ellipse id="XMLID_112_" class="st9" cx="77.8" cy="57" rx="2.2" ry="2.3"/>
		<path id="XMLID_111_" class="st10" d="M78.3,58.1h-0.5c0,0,0.7-0.5,0.7-1.3c0-0.8-0.6-1.3-0.6-1.3h0.6c0,0,0.6,0.5,0.5,1.4
			C78.8,57.9,78.3,58.1,78.3,58.1z"/>
		<polygon id="XMLID_110_" class="st12" points="77.9,33.5 76.9,31.4 78,29.2 78.8,31.5 		"/>
		<path id="XMLID_109_" class="st11" d="M72.3,64.8l-0.2,0.9c0,0,0.1,0,0.1,0c1,0,1.8-0.8,1.8-1.9c0-0.8-0.5-1.4-1.1-1.7l-0.2,0.9
			c0.3,0.2,0.6,0.5,0.6,0.9C73.3,64.2,72.9,64.7,72.3,64.8z"/>
		<path id="XMLID_108_" class="st11" d="M73.7,59l-0.2,0.8c0,0,0.1,0,0.1,0c1,0,1.7-0.8,1.7-1.8c0-0.7-0.4-1.4-1.1-1.6l-0.2,0.8
			c0.3,0.2,0.5,0.5,0.5,0.8C74.6,58.5,74.2,58.9,73.7,59z"/>
		<path id="XMLID_107_" class="st11" d="M71.8,66.5c0,0.3,0.5,1,0.8,1c0.3,0,0.6-0.3,0.6-0.6c0-0.3-0.3-0.6-0.6-0.6
			C72.1,66.6,71.7,66.3,71.8,66.5z"/>
		<path id="XMLID_106_" class="st11" d="M73.2,60.8c0,0.3,0.5,1,0.8,1c0.3,0,0.6-0.3,0.6-0.6c0-0.3-0.3-0.6-0.6-0.6
			C73.5,60.9,73.1,60.6,73.2,60.8z"/>
		<path id="XMLID_105_" class="st11" d="M75.1,55.8c0.3,0,0.6-0.3,0.6-0.6c0-0.3-0.3-0.6-0.6-0.6C74.7,54.9,74.3,55.5,75.1,55.8z"/>
		<path id="XMLID_104_" class="st11" d="M75.3,53.8c0.2,0,0.4-0.2,0.4-0.4c0-0.2-0.2-0.4-0.4-0.4C75,53.2,74.8,53.6,75.3,53.8z"/>
		<polygon id="XMLID_103_" class="st2" points="61.7,78.1 35.2,78.1 40,72.4 65.9,72.4 		"/>
		<path id="XMLID_102_" class="st11" d="M43.2,76.1c-0.2,0.3-0.6,0.6-1.1,0.6c-0.7,0-1.3-0.6-1.3-1.4c0-0.7,0.6-1.4,1.3-1.4
			c0.4,0,0.8,0.2,1.1,0.6c0.3-0.5,0.8-0.8,1.4-0.8c0.6,0,1.1,0.3,1.3,0.8c0.3-0.7,0.9-1.2,1.7-1.2c0.6,0,1.1,0.3,1.5,0.7
			c0.4-0.4,0.9-0.7,1.5-0.7c0.6,0,1.2,0.3,1.6,0.8c0.3-0.4,0.8-0.6,1.4-0.6c0.8,0,1.4,0.5,1.7,1.2c0.3-0.5,0.8-0.8,1.3-0.8
			c0.6,0,1.1,0.3,1.4,0.8c0.2-0.3,0.6-0.6,1.1-0.6c0.7,0,1.3,0.6,1.3,1.4s-0.6,1.4-1.3,1.4c-0.4,0-0.8-0.2-1.1-0.6
			c-0.3,0.5-0.8,0.8-1.4,0.8c-0.6,0-1.1-0.4-1.4-0.9c-0.3,0.6-0.9,1-1.7,1c-0.6,0-1.1-0.3-1.4-0.7c-0.4,0.4-0.9,0.7-1.5,0.7
			c-0.7,0-1.2-0.3-1.6-0.8c-0.3,0.4-0.8,0.6-1.4,0.6c-0.7,0-1.3-0.4-1.7-1c-0.3,0.5-0.8,0.9-1.4,0.9C44,76.9,43.5,76.6,43.2,76.1z"
			/>
		<path id="XMLID_101_" class="st7" d="M62,136c-0.9-1.9-3.3-11.6-0.4-18.7l-7.4-2.7"/>
		<path id="XMLID_100_" class="st1" d="M80.5,93.9l-8.2-4.1c0,0,1.9-3.7,1.8-5.2c-0.1-1.5-0.6-4.3-0.6-4.3l7-3.6c0,0-0.9,3.9-3.1,6
			c-0.3,0.5,1.4,1,2.5,2.9c-0.7,1.2-1.6,2-2.2,2.6C78.1,89,80.3,92,80.5,93.9z"/>
		<path id="XMLID_99_" class="st1" d="M80.5,93.9l-8.2-4.1c0,0,1.9-3.7,1.8-5.2c-0.1-1.5-0.6-4.3-0.6-4.3l7-3.6c0,0-0.9,3.9-3.1,6
			c-0.3,0.5,1.4,1,2.5,2.9c-0.7,1.2-1.6,2-2.2,2.6C78.1,89,80.3,92,80.5,93.9z"/>
		<path id="XMLID_98_" class="st13" d="M80.6,76.7c0,0-0.9,3.9-3.1,6c-0.3,0.5,1.4,1,2.5,2.9c-0.7,1.2-1.6,2-2.2,2.6
			c0.4,0.9,2.6,3.9,2.8,5.8"/>
		<path id="XMLID_97_" class="st2" d="M78.4,92.8l-1.9-0.9c0-1.4-0.9-3.4-1.8-4.2c-0.4-0.4-0.6-0.4-0.4-0.7s0.3-0.8,0.6-0.9
			c0.5-0.4,1.5-0.8,1.5-0.8c-0.3-0.7-0.5-1-1.2-1.5c0.2-0.6,0.1-1.1-0.1-1.8c0.8-1,1.1-2,1.3-2.9l1.8-1c-0.4,1.6-0.9,3.1-1.9,4.7
			c0.7,0.8,1.3,1.7,1.8,2.7c-0.7,0.7-1.2,1.2-2.1,1.6C77.3,88.8,77.9,90.8,78.4,92.8z"/>
		<path class="st8" d="M73.6,80.3l7-3.6 M82.1,94.9l-9.8-5.1"/>
		<path id="XMLID_94_" class="st5" d="M27.2,136l0.3-12.1c0,0-0.7-15.4,6.6-15.2c7.2,0.2,12.2,8.8,12.7,10.9"/>
		<path id="XMLID_93_" class="st1" d="M63.4,102.8l-0.9,1c0,0-10-8.5-10-12.5c0-4,1-5.7,2.8-7.4c1.2-1.2,3.4-2.6,5.5-4.9
			c1.6-1.7,3.3-3.9,4.9-5.9c0.1-0.1,0.2-0.3,0.3-0.4c1.6-2.2,3-4.3,3.6-5.7l1,0.9L81.7,76L80,77.2l-10.2-7.3c0,0-6.1,9-7.7,10.4
			c-1.6,1.4-7.6,5-7.9,8.7c-0.3,3.6,2.2,7.1,2.4,7C58.9,98.1,61,100.6,63.4,102.8z"/>
		<polygon id="XMLID_92_" class="st2" points="37.4,135.9 53.4,107.1 33.9,89.4 30.1,104.7 26.5,106.1 25,105.1 30,85.8 30.2,84.7 
			30.5,85.1 33.7,80.9 34.5,81.3 34.6,81.8 60.7,106 54.3,114.6 42.6,135.9 		"/>
		<path id="XMLID_91_" class="st1" d="M55.9,103.6c0,0-1.7,1-0.7,1.7c1.1,0.8,2.1-0.9,1.6-1.9c-0.4-1-2-1.9-2-1.9l-1-0.1
			c0.1,0,0.3-1.3-1.1-1.9c-1.3-0.7-2.1,0.6-1.6,1.1c0.5,0.5,1,0.1,1.3-0.3c0.2-0.4,0.8,0.9,0.1,1.4c-0.7,0.3-2.1,0.5-2.8-0.9
			c-0.7-1.3-0.1-2.6,0.4-2c0.5,0.6,1.7-0.1,1-0.9c-0.7-0.7-1.2-0.4-1.2-0.4s0.2-1.2-0.7-1.3c-0.9-0.1-1.3,1-0.6,1.3
			c0.7,0.4-0.4,1.4-1.7,0.7c-1.2-0.7-0.9-2.1-0.9-2.3c0-0.2,0.4-0.8,1,0.4c0.6,1.1,2.1-0.3,1.1-1.3c-1-1-1.9-0.3-1.9-0.3
			s-0.3-2-1.6-3.2c-1.3-1.2-2.9-0.3-2.9,0.9c0,0.8,0.4,1,1.1,1c0.6,0,0.6-0.6,0.3-1.2c0.2-0.7,1.4,0.6,1.6,1.3
			c0.2,0.7,0.2,1.8-0.1,1.9c-0.2,0.1-1.8-0.8-1.3,1.1c0.2,0.7,1.2,0.5,1.5,0.4c0.1,0,0.3,2.8,3.3,2.7c0.1,1.1,0.2,2.8,3.4,3.3
			c0,2.2,2.4,1.6,1.9,0C53.9,101.7,55.7,102.7,55.9,103.6z"/>
		<path id="XMLID_90_" class="st1" d="M40.6,90.6c0,0-1-0.3-1.1,0.4c-0.1,0.7,0.6,1.2,1.2,1c0.6-0.3,1.3-0.9,1.1-2.1
			c-0.1-1.3-0.9-1.9-2-2.6c-1.1-0.7-1.6-0.5-1.8-0.4c-0.2,0.1,0.2-1.1-0.6-1.7c-0.9-0.6-1.4-0.6-1.2,0.3c0.3,0.9,1,1.6,0.4,2.1
			c-0.6,0.6-1.3,0-1.4,0.1l-0.8,0.7c0.4,0.5,1,0.8,1.6,0.8c0.2,0.2,0,1.1,0.9,1.3c0.9,0.2,1.5-0.5,1.2-1.2c-0.3-0.6-1.1-1.2-0.2-1.3
			C38.6,87.9,40.8,88.3,40.6,90.6z"/>
		<ellipse id="XMLID_89_" class="st1" cx="33.2" cy="84.9" rx="1" ry="1"/>
		<ellipse id="XMLID_88_" class="st1" cx="33.2" cy="82.9" rx="1" ry="1.1"/>
		<path id="XMLID_87_" class="st1" d="M28,103.1c0,0-0.9-1.1-1.5-0.6c-0.6,0.6-0.4,1.5,0.2,1.8c0.6,0.3,1.8,0.2,2.5-0.4
			c0.7-0.6,1.1-3.1-0.2-3.8c-0.8-0.5,1.5,0.1,2-1.4c0.5-1.5-0.9-1.7-1.2-1.7c-0.3,0-1.3,0.3-0.5,1.3c0.8,0.9-1.2,0.7-1.1-0.8
			c0.2-1.5,1.4-2.5,1.8-2.1c0.4,0.4,0.4,1.4,1.2,0.9c0.8-0.6-0.3-1.5,0.2-1.7c0.5-0.3,0.5-0.5,0.5-1.2c-0.3-0.6-0.8-0.4-1.2-0.2
			c-0.4,0.3-0.8,0.2-1-0.5c-0.2-0.7-0.3-2.3,0.8-2.5c1.1-0.2,0.7,0.5,0.7,0.5s-1.2,1-0.2,1.6c0.6,0.4,1.8-0.1,1.7-1.3
			c-0.1-1.2-0.5-1.3-0.5-1.3s1.2-0.9,0.4-1.5c-0.8-0.6-1.5,0.4-1.4,0.1c0.2-0.4-2.1-1-1.5,0.9c0.3,0.8-0.9,0.6-1,2.3
			c-0.1,1.7,0.3,2.1,0.5,2.6c-0.5,0.2-1.8,1.4-2.1,3.8c0.6,2.1,0.2,1.5,0.2,1.5c-0.1,0-1.2,1.8,0.8,1.8
			C28.7,101,28.8,103.2,28,103.1z"/>
		<polyline id="XMLID_86_" class="st8" points="34.5,79.3 30.6,85.2 34.6,79.3 60.1,79.3 		"/>
		<path id="XMLID_85_" class="st1" d="M33.4,80.9l0.8-1.1c1.1,0.6,1.9,2.1,1.9,4c0,2.3-1.3,4.2-2.9,4.2c-1.2,0-2.3-1.1-2.7-2.7
			l1-1.4c0,0,0,0,0,0.1c0,1.7,0.8,3,1.8,3c1,0,1.8-1.3,1.8-3C35.1,82.3,34.4,81,33.4,80.9z"/>
		<path id="XMLID_84_" class="st9" d="M53.4,107.5c0,0-6.2-2.6-14-3.2c-7.8-0.6-12.2,1.5-13.2,1.7"/>
		<path id="XMLID_83_" class="st9" d="M46.5,44.2c0,0,6.2,2.6,14,3.2c7.8,0.6,12.2-1.5,13.2-1.7"/>
		<polyline id="XMLID_82_" class="st8" points="69.5,66.7 65.6,72.4 39.8,72.4 		"/>
		<line id="XMLID_81_" class="st8" x1="60.7" y1="106" x2="62.5" y2="103.8"/>
		<path id="XMLID_80_" class="st1" d="M72.6,91.8c0,0-1.5,0.2-2.6-0.9c-1.2-1.1-0.9-1.4-0.7-1.4c0.3,0,0.6-0.1,0.6,0
			c0.1,0.3,0.8,0,0.9,0.3c0.1,0.3,0.3,0.2,0.9,0.3C72.3,90.2,72.7,91.3,72.6,91.8z"/>
		<path id="XMLID_79_" class="st1" d="M72.3,89.8c0,0,1.9-3.7,1.8-5.2c-0.1-1.5-0.6-4.3-0.6-4.3c-0.8-0.8-2-0.6-1.6,0.9
			c0.4,1.5,0.3,5.8-1,6.9C69.8,89.3,71.4,90.5,72.3,89.8z"/>
		<path id="XMLID_78_" class="st1" d="M27.6,61.9c0,0-1.9,3.7-1.8,5.2c0.1,1.5,0.6,4.3,0.6,4.3c0.8,0.8,2,0.6,1.6-0.9
			c-0.4-1.5-0.3-5.8,1-6.9C30.1,62.4,28.5,61.3,27.6,61.9z"/>
		<polygon id="XMLID_77_" class="st4" points="21.7,46.9 24.2,48.3 28.3,47 28.2,52.8 28.7,54.6 25.6,53.8 23.7,54.1 21.6,55 
			22,50.3 		"/>
		<polyline id="XMLID_76_" class="st8" points="22.1,49.8 21.6,46.8 23.9,48.2 		"/>
		<polyline id="XMLID_75_" class="st8" points="22.1,52.5 21.6,55.1 23.9,53.9 		"/>
		<polyline id="XMLID_74_" class="st8" points="26.4,47.8 28.5,47 28.2,49.8 		"/>
		<polyline id="XMLID_73_" class="st8" points="28.1,52.3 28.7,54.6 26.7,54.1 		"/>
		<path class="st14" d="M20.9,51.1c0,1,0.8,1.8,1.9,1.8c0.4,0,0.8-0.1,1.2-0.4c-0.2,0.3-0.4,0.7-0.4,1.1c0,1,0.8,1.8,1.7,1.8
			c0.9,0,1.7-0.8,1.7-1.8c0-0.6-0.7-1.4-0.6-1.4c0.5,0.4,0.9,0.5,1.3,0.5c1,0,1.7-0.7,1.7-1.6c0-0.9-0.8-1.6-1.7-1.6
			c-0.5,0-1,0.2-1.3,0.5c-0.1-0.2,0.5-0.9,0.5-1.5c0-1-0.7-1.8-1.5-1.8c-0.9,0-1.5,0.8-1.5,1.8c0,0.4,0.1,0.8,0.4,1.2
			c-0.3-0.3-0.7-0.4-1.2-0.4C21.8,49.4,20.9,50.2,20.9,51.1L20.9,51.1z M25.6,52.4c0.5,0.1,1,0.7,1,1.3c0,0.7-0.6,1.3-1.3,1.3
			c-0.7,0-1.3-0.6-1.3-1.3c0-0.6,0.4-1.2,1-1.3c0.1,0,0.2,0,0.3,0C25.4,52.4,25.5,52.4,25.6,52.4L25.6,52.4z M24.1,51.6
			c-0.2,0.5-0.7,0.8-1.3,0.8c-0.8,0-1.4-0.6-1.4-1.3c0-0.7,0.6-1.3,1.4-1.3c0.5,0,1,0.3,1.2,0.7C24,50.7,24,50.9,24,51
			C24,51.2,24,51.5,24.1,51.6L24.1,51.6z M24.7,49.8c-0.4-0.2-0.7-0.7-0.7-1.2c0-0.7,0.5-1.3,1.2-1.3c0.6,0,1.2,0.6,1.2,1.3
			c0,0.5-0.2,0.9-0.5,1.1c-0.1-0.1-0.3-0.1-0.5-0.1C25.1,49.7,24.9,49.7,24.7,49.8L24.7,49.8z M26.5,50.4c0.2-0.3,0.6-0.5,1-0.5
			c0.7,0,1.3,0.5,1.3,1.2c0,0.7-0.6,1.2-1.3,1.2c-0.5,0-0.9-0.2-1.1-0.6c0.1-0.2,0.2-0.5,0.2-0.7C26.7,50.8,26.6,50.6,26.5,50.4
			L26.5,50.4z M25.3,50c0.5,0,0.9,0.4,0.9,1c0,0.5-0.4,1-0.9,1c-0.5,0-0.9-0.4-0.9-1C24.5,50.5,24.8,50,25.3,50z"/>
		<g>
			<g id="XMLID_606_">
				<path id="XMLID_610_" class="st1" d="M25.2,50c0.6,0,1.2-0.6,1.2-1.3c0-0.7-0.5-1.3-1.2-1.3c-0.6,0-1.2,0.6-1.2,1.3
					C24,49.4,24.5,50,25.2,50z"/>
				<ellipse id="XMLID_609_" class="st1" cx="27.6" cy="51.1" rx="1.3" ry="1.2"/>
				<ellipse id="XMLID_608_" class="st1" cx="22.8" cy="51.1" rx="1.4" ry="1.3"/>
				<ellipse id="XMLID_607_" class="st1" cx="25.3" cy="53.7" rx="1.3" ry="1.3"/>
			</g>
		</g>
		<path id="XMLID_57_" class="st1" d="M25.3,50c0.5,0,0.9,0.4,0.9,1c0,0.5-0.4,1-0.9,1c-0.5,0-0.9-0.4-0.9-1
			C24.5,50.5,24.8,50,25.3,50z"/>
		<line id="XMLID_51_" class="st9" x1="25.2" y1="48" x2="25.2" y2="49.9"/>
		<line id="XMLID_50_" class="st9" x1="28.2" y1="51.1" x2="26.4" y2="51.1"/>
		<line id="XMLID_49_" class="st9" x1="25.2" y1="52.3" x2="25.2" y2="54.1"/>
		<line id="XMLID_48_" class="st9" x1="24.1" y1="51.1" x2="22.3" y2="51.1"/>
		<polyline id="XMLID_45_" class="st15" points="77.8,101.9 78.3,104.9 76,103.6 		"/>
		<polyline id="XMLID_44_" class="st15" points="77.8,99.2 78.3,96.7 76,97.8 		"/>
		<polyline id="XMLID_43_" class="st15" points="73.5,104 71.4,104.7 71.7,101.9 		"/>
		<polyline id="XMLID_42_" class="st15" points="71.8,99.4 71.1,97.1 73.2,97.7 		"/>
		<polygon id="XMLID_41_" class="st16" points="78.2,104.8 75.7,103.4 71.5,104.7 71.7,99 71.2,97.1 74.3,97.9 76.2,97.6 78.3,96.7 
			77.9,101.5 		"/>
		<path class="st17" d="M79,100.6c0-1-0.8-1.8-1.9-1.8c-0.4,0-0.8,0.1-1.2,0.4c0.2-0.3,0.4-0.7,0.4-1.1c0-1-0.8-1.8-1.7-1.8
			c-0.9,0-1.7,0.8-1.7,1.8c0,0.6,0.7,1.4,0.6,1.4c-0.5-0.4-0.9-0.5-1.3-0.5c-1,0-1.7,0.7-1.7,1.6c0,0.9,0.8,1.6,1.7,1.6
			c0.5,0,1-0.2,1.3-0.5c0.1,0.2-0.5,0.9-0.5,1.4c0,1,0.7,1.8,1.5,1.8c0.9,0,1.5-0.8,1.5-1.8c0-0.4-0.1-0.8-0.4-1.2
			c0.3,0.3,0.7,0.4,1.2,0.4C78.1,102.3,79,101.5,79,100.6L79,100.6z M74.3,99.3c-0.5-0.1-1-0.7-1-1.3c0-0.7,0.6-1.3,1.3-1.3
			c0.7,0,1.3,0.6,1.3,1.3c0,0.6-0.4,1.2-1,1.3c-0.1,0-0.2,0-0.3,0C74.5,99.3,74.4,99.3,74.3,99.3L74.3,99.3z M75.8,100.1
			c0.2-0.5,0.7-0.8,1.3-0.8c0.8,0,1.4,0.6,1.4,1.3s-0.6,1.3-1.4,1.3c-0.5,0-1-0.3-1.2-0.7c0.1-0.2,0.1-0.3,0.1-0.5
			C75.9,100.5,75.9,100.3,75.8,100.1L75.8,100.1z M75.2,101.9c0.4,0.2,0.7,0.7,0.7,1.2c0,0.7-0.5,1.3-1.2,1.3
			c-0.6,0-1.2-0.6-1.2-1.3c0-0.5,0.2-0.9,0.5-1.1c0.1,0.1,0.3,0.1,0.5,0.1C74.8,102,75,102,75.2,101.9L75.2,101.9z M73.4,101.3
			c-0.2,0.3-0.6,0.5-1,0.5c-0.7,0-1.3-0.5-1.3-1.2c0-0.7,0.6-1.2,1.3-1.2c0.5,0,0.9,0.2,1.1,0.6c-0.1,0.2-0.2,0.5-0.2,0.7
			C73.2,100.9,73.3,101.1,73.4,101.3L73.4,101.3z M74.6,101.7c-0.5,0-0.9-0.4-0.9-1c0-0.5,0.4-1,0.9-1c0.5,0,0.9,0.4,0.9,1
			C75.4,101.2,75.1,101.7,74.6,101.7z"/>
		<g>
			<g id="XMLID_611_">
				<ellipse id="XMLID_615_" class="st1" cx="74.7" cy="103.1" rx="1.2" ry="1.3"/>
				<ellipse id="XMLID_614_" class="st1" cx="72.3" cy="100.6" rx="1.3" ry="1.2"/>
				<ellipse id="XMLID_613_" class="st1" cx="77.1" cy="100.6" rx="1.4" ry="1.3"/>
				<ellipse id="XMLID_612_" class="st1" cx="74.6" cy="98.1" rx="1.3" ry="1.3"/>
			</g>
		</g>
		<ellipse id="XMLID_30_" class="st1" cx="74.6" cy="100.7" rx="0.9" ry="1"/>
		<line id="XMLID_29_" class="st9" x1="74.7" y1="103.7" x2="74.7" y2="101.9"/>
		<line id="XMLID_28_" class="st9" x1="71.7" y1="100.6" x2="73.5" y2="100.6"/>
		<line id="XMLID_27_" class="st9" x1="74.7" y1="99.4" x2="74.7" y2="97.6"/>
		<line id="XMLID_26_" class="st9" x1="75.8" y1="100.6" x2="77.6" y2="100.6"/>
		<path class="st2" d="M15.5,23.9c0,0-1.2,0.2-2.2-0.6c-0.8,0.7-1.8,1.1-2.9,1.1c-2.4,0-4.4-1.9-4.4-4.3v-2.6c-0.6,0-1.1,0-1.1,0
			v-1.9c0,0,0.4,0,1.1,0v-4.1c0-2.4,2-4.3,4.4-4.3c2.4,0,4.4,1.9,4.4,4.3v8.7c0,0.6-0.1,1.1-0.3,1.6c0.3,0.3,0.7,0.4,1.1,0.5V23.9
			L15.5,23.9z M10.3,22.6L10.3,22.6c0.7,0,1.2-0.2,1.7-0.6c-0.6-0.8-0.9-1.6-1.6-2.3c-0.9-0.9-1.7-1.4-2.6-1.7v2.3
			C7.8,21.5,9,22.6,10.3,22.6L10.3,22.6z M10.3,9L10.3,9C9,9,7.8,10.1,7.8,11.4v4.5c0.3,0.1,0.5,0.1,0.8,0.2
			c2.2,0.8,3.4,2.4,4.2,3.5v-8.2C12.8,10.1,11.7,9,10.3,9z"/>
		<path class="st2" d="M83.9,127.7c0,0,1.2-0.2,2.2,0.6c0.8-0.7,1.8-1.1,2.9-1.1c2.4,0,4.4,1.9,4.4,4.3v2.6c0.6,0,1.1,0,1.1,0v1.9
			c0,0-0.4,0-1.1,0v4.1c0,2.4-2,4.3-4.4,4.3c-2.4,0-4.4-1.9-4.4-4.3v-8.7c0-0.6,0.1-1.1,0.3-1.6c-0.3-0.3-0.7-0.4-1.1-0.5V127.7
			L83.9,127.7z M89.1,129L89.1,129c-0.7,0-1.2,0.2-1.7,0.6c0.6,0.8,0.9,1.6,1.6,2.3c0.9,0.9,1.7,1.4,2.6,1.7v-2.3
			C91.6,130.1,90.5,129,89.1,129L89.1,129z M89.1,142.6L89.1,142.6c1.4,0,2.5-1.1,2.5-2.4v-4.5c-0.3-0.1-0.5-0.1-0.8-0.2
			c-2.2-0.8-3.4-2.4-4.2-3.5v8.2C86.6,141.5,87.7,142.6,89.1,142.6z"/>
		<path class="st18" d="M17.2,136.5h65.6V15.1H16.7v121.4H17.2L17.2,136.5z M17.7,135.5L17.7,135.5c0-1,0-118.4,0-119.4
			c1,0,63.1,0,64.1,0c0,1,0,118.4,0,119.4C80.7,135.5,18.7,135.5,17.7,135.5z"/>
		<g>
			<path id="XMLID_17_" class="st19" d="M8.7,40.1c0.9-0.9,1.1-2.7,1.1-3.1c0-0.4-0.1-0.5-0.1-0.5c-0.1,0-0.2,0.1-0.2,0.3
				c-0.2,1-0.9,1.4-1.3,1.5c-1.6,0.3-2.2-0.8-2.3-1.1c-0.8-1.6,1-4,1.4-4.3c1.8-2.1,3-4.4,3-4.4s1.2,2.3,3,4.4
				c0.3,0.4,2.2,2.8,1.3,4.3c-0.2,0.3-0.7,1.3-2.3,1.1c-0.3-0.1-1.1-0.5-1.3-1.5c0-0.2-0.1-0.3-0.2-0.3c-0.1,0-0.2,0.1-0.1,0.5
				c0,0.4,0.2,2.2,1.1,3.1H8.7z"/>
		</g>
		<g>
			<path id="XMLID_16_" class="st19" d="M90.8,111.6c-0.9,0.9-1.1,2.7-1.1,3.1c-0.1,0.4,0.1,0.5,0.1,0.5c0.1,0,0.2-0.1,0.2-0.3
				c0.2-1,0.9-1.4,1.3-1.5c1.6-0.3,2.2,0.8,2.3,1.1c0.8,1.6-1,4-1.3,4.3c-1.8,2.1-3,4.4-3,4.4s-1.2-2.3-3-4.4
				c-0.3-0.4-2.2-2.8-1.4-4.3c0.2-0.3,0.7-1.3,2.3-1.1c0.4,0.1,1.1,0.5,1.3,1.5c0,0.2,0.1,0.3,0.2,0.3c0.1,0,0.2-0.1,0.1-0.5
				c0-0.4-0.2-2.2-1.1-3.1H90.8z"/>
		</g>
	</g>
</g>
</svg>
