<?xml version="1.0" encoding="utf-8"?>
<!-- Generator: Adobe Illustrator 19.0.0, SVG Export Plug-In . SVG Version: 6.00 Build 0)  -->
<svg version="1.1" xmlns="http://www.w3.org/2000/svg" xmlns:xlink="http://www.w3.org/1999/xlink" x="0px" y="0px"
	 viewBox="0 0 99.4 151.6" style="enable-background:new 0 0 99.4 151.6;" xml:space="preserve">
<style type="text/css">
	.st0{fill:#FFFFFF;stroke:#000000;stroke-width:0.25;stroke-miterlimit:2.6131;}
	.st1{fill-rule:evenodd;clip-rule:evenodd;fill:#231F20;}
	.st2{fill:#231F20;}
</style>
<g id="Calque_2">
	<path id="XMLID_15_" class="st0" d="M99.3,5.3v140.9c0,2.9-2.3,5.2-5.2,5.2H5.3c-2.9,0-5.2-2.3-5.2-5.2V5.3c0-2.9,2.3-5.2,5.2-5.2
		h88.7C96.9,0.1,99.3,2.5,99.3,5.3z"/>
</g>
<g id="Calque_1">
	<g>
		<g>
			<g>
				<g>
					<path id="XMLID_30_" class="st1" d="M27.6,16c0,0-1.9,3.9-5,8.1c-3.4,4.5-5.2,7-5.2,10.3c0,2.8,2.2,4.7,4.3,4.7
						c2.1,0,3.5-0.8,4.2-3.5c0.3-1.1,0.9-0.9,0.8,0.3c-0.2,1.4-0.2,4.6-2.5,7.4H31c-2.3-2.8-2.3-6-2.5-7.4c-0.2-1.2,0.5-1.4,0.8-0.3
						c0.7,2.8,2.1,3.5,4.2,3.5c2.1,0,4.3-1.8,4.3-4.7c0-3.3-1.8-5.9-5.2-10.3C29.5,19.9,27.6,16,27.6,16z"/>
					<path id="XMLID_29_" class="st1" d="M71.8,16c0,0-1.9,3.9-5,8.1c-3.4,4.5-5.2,7-5.2,10.3c0,2.8,2.2,4.7,4.3,4.7
						c2.1,0,3.5-0.8,4.2-3.5c0.3-1.1,0.9-0.9,0.8,0.3c-0.2,1.4-0.2,4.6-2.5,7.4h6.9c-2.3-2.8-2.3-6-2.5-7.4
						c-0.2-1.2,0.5-1.4,0.8-0.3c0.7,2.8,2.1,3.5,4.2,3.5c2.1,0,4.3-1.8,4.3-4.7c0-3.3-1.8-5.9-5.2-10.3C73.7,19.9,71.8,16,71.8,16z"
						/>
				</g>
				<g>
					<path id="XMLID_28_" class="st1" d="M27.6,62.1c0,0-1.9,3.9-5,8.1c-3.4,4.5-5.2,7-5.2,10.3c0,2.8,2.2,4.7,4.3,4.7
						c2.1,0,3.5-0.8,4.2-3.5c0.3-1.1,0.9-0.9,0.8,0.3c-0.2,1.4-0.2,4.6-2.5,7.4H31c-2.3-2.8-2.3-6-2.5-7.4c-0.2-1.2,0.5-1.4,0.8-0.3
						c0.7,2.8,2.1,3.5,4.2,3.5c2.1,0,4.3-1.8,4.3-4.7c0-3.3-1.8-5.9-5.2-10.3C29.5,66.1,27.6,62.1,27.6,62.1z"/>
					<path id="XMLID_27_" class="st1" d="M71.8,62.1c0,0-1.9,3.9-5,8.1c-3.4,4.5-5.2,7-5.2,10.3c0,2.8,2.2,4.7,4.3,4.7
						c2.1,0,3.5-0.8,4.2-3.5c0.3-1.1,0.9-0.9,0.8,0.3c-0.2,1.4-0.2,4.6-2.5,7.4h6.9c-2.3-2.8-2.3-6-2.5-7.4
						c-0.2-1.2,0.5-1.4,0.8-0.3c0.7,2.8,2.1,3.5,4.2,3.5c2.1,0,4.3-1.8,4.3-4.7c0-3.3-1.8-5.9-5.2-10.3
						C73.7,66.1,71.8,62.1,71.8,62.1z"/>
				</g>
				<g>
					<path id="XMLID_26_" class="st1" d="M71.8,135.6c0,0,1.9-3.9,5-8.1c3.4-4.5,5.2-7,5.2-10.3c0-2.8-2.2-4.7-4.3-4.7
						c-2.1,0-3.5,0.8-4.2,3.5c-0.3,1.1-0.9,0.9-0.8-0.3c0.2-1.4,0.2-4.6,2.5-7.4h-6.9c2.3,2.8,2.3,6,2.5,7.4
						c0.2,1.2-0.5,1.4-0.8,0.3c-0.7-2.8-2.1-3.5-4.2-3.5c-2.1,0-4.3,1.8-4.3,4.7c0,3.3,1.8,5.9,5.2,10.3
						C69.9,131.7,71.8,135.6,71.8,135.6z"/>
					<path id="XMLID_25_" class="st1" d="M27.6,135.6c0,0,1.9-3.9,5-8.1c3.4-4.5,5.2-7,5.2-10.3c0-2.8-2.2-4.7-4.3-4.7
						c-2.1,0-3.5,0.8-4.2,3.5c-0.3,1.1-0.9,0.9-0.8-0.3c0.2-1.4,0.2-4.6,2.5-7.4h-6.9c2.3,2.8,2.3,6,2.5,7.4
						c0.2,1.2-0.5,1.4-0.8,0.3c-0.7-2.8-2.1-3.5-4.2-3.5c-2.1,0-4.3,1.8-4.3,4.7c0,3.3,1.8,5.9,5.2,10.3
						C25.8,131.7,27.6,135.6,27.6,135.6z"/>
				</g>
			</g>
			<g>
				<path id="XMLID_24_" class="st1" d="M49.7,39c0,0-1.9,3.9-5,8.1c-3.4,4.5-5.2,7-5.2,10.3c0,2.8,2.2,4.7,4.3,4.7
					c2.1,0,3.5-0.8,4.2-3.5c0.3-1.1,0.9-0.9,0.8,0.3c-0.2,1.4-0.2,4.6-2.5,7.4h6.9c-2.3-2.8-2.3-6-2.5-7.4c-0.2-1.2,0.5-1.4,0.8-0.3
					c0.7,2.8,2.1,3.5,4.2,3.5c2.1,0,4.3-1.8,4.3-4.7c0-3.3-1.8-5.9-5.2-10.3C51.6,43,49.7,39,49.7,39z"/>
				<path id="XMLID_23_" class="st1" d="M49.7,112.6c0,0,1.9-3.9,5-8.1c3.4-4.5,5.2-7,5.2-10.3c0-2.8-2.2-4.7-4.3-4.7
					c-2.1,0-3.5,0.8-4.2,3.5c-0.3,1.1-0.9,0.9-0.8-0.3c0.2-1.4,0.2-4.6,2.5-7.4h-6.9c2.3,2.8,2.3,6,2.5,7.4c0.2,1.2-0.5,1.4-0.8,0.3
					c-0.7-2.8-2.1-3.5-4.2-3.5c-2.1,0-4.3,1.8-4.3,4.7c0,3.3,1.8,5.9,5.2,10.3C47.8,108.6,49.7,112.6,49.7,112.6z"/>
			</g>
		</g>
	</g>
	<g>
		<g>
			<g>
				<g>
					<g>
						<path class="st1" d="M10.9,16.6c2.2,0,3.7,1.1,3.7,3.3c0,2-2.4,2.8-3.5,2.8c-1.1,0-3.8-0.7-3.8-2.9C7.3,17.7,9,16.6,10.9,16.6
							L10.9,16.6z M10.9,8.8L10.9,8.8c1.4,0,3.2,1.1,3.2,2.7c0,1.6-1.7,2.5-3.3,2.5c-1.6,0-3.2-1.1-3.2-2.5C7.6,10,8.9,8.8,10.9,8.8
							L10.9,8.8z M8.3,15.3c0,0-3.4,1.6-3,5.1c0.1,1.3,1.7,4.1,5.6,4.1c3.9,0,5.1-2.8,5.3-3.6c1.1-3.6-3-5.6-3-5.6
							c1.6-0.8,2.7-2.5,2.6-3.7c-0.3-3.4-3.1-4.5-5.2-4.5c-2.1,0-5.1,1.7-4.9,4.3C6,14,8.3,15.3,8.3,15.3L8.3,15.3z"/>
					</g>
					<g>
						<path class="st1" d="M88.5,135c-2.2,0-3.7-1.1-3.7-3.3c0-2,2.4-2.8,3.5-2.8c1.1,0,3.8,0.7,3.8,2.9
							C92.1,133.9,90.5,135,88.5,135L88.5,135z M88.5,142.8L88.5,142.8c-1.4,0-3.2-1.1-3.2-2.7s1.7-2.5,3.3-2.5
							c1.6,0,3.2,1.1,3.2,2.5C91.9,141.6,90.5,142.8,88.5,142.8L88.5,142.8z M91.1,136.3c0,0,3.4-1.6,3-5.1
							c-0.1-1.3-1.7-4.1-5.6-4.1c-3.9,0-5.1,2.8-5.3,3.6c-1.1,3.6,3,5.6,3,5.6c-1.6,0.8-2.7,2.5-2.6,3.7c0.3,3.4,3.1,4.5,5.2,4.5
							c2.1,0,5.1-1.7,4.9-4.3C93.4,137.6,91.1,136.3,91.1,136.3L91.1,136.3z"/>
					</g>
				</g>
			</g>
		</g>
	</g>
	<g>
		<g>
			<path id="XMLID_16_" class="st2" d="M8.9,40.1c0.9-0.9,1.1-2.7,1.1-3.1c0-0.4-0.1-0.5-0.1-0.5c-0.1,0-0.2,0.1-0.2,0.3
				c-0.2,1-0.9,1.4-1.3,1.5c-1.6,0.3-2.2-0.8-2.3-1.1c-0.8-1.6,1-4,1.4-4.3c1.8-2.1,3-4.4,3-4.4s1.2,2.3,3,4.4
				c0.3,0.4,2.2,2.8,1.4,4.3c-0.2,0.3-0.7,1.3-2.3,1.1c-0.3-0.1-1.1-0.5-1.3-1.5c0-0.2-0.1-0.3-0.2-0.3c-0.1,0-0.2,0.1-0.1,0.5
				c0,0.4,0.2,2.2,1.1,3.1H8.9z"/>
		</g>
		<g>
			<path id="XMLID_14_" class="st2" d="M90.5,111.6c-0.9,0.9-1.1,2.7-1.1,3.1c0,0.4,0.1,0.5,0.1,0.5c0.1,0,0.2-0.1,0.2-0.3
				c0.2-1,0.9-1.4,1.3-1.5c1.6-0.3,2.2,0.8,2.3,1.1c0.8,1.6-1,4-1.4,4.3c-1.8,2.1-3,4.4-3,4.4s-1.2-2.3-3-4.4
				c-0.3-0.4-2.2-2.8-1.4-4.3c0.2-0.3,0.7-1.3,2.3-1.1c0.4,0.1,1.1,0.5,1.3,1.5c0,0.2,0.1,0.3,0.2,0.3c0.1,0,0.2-0.1,0.1-0.5
				c-0.1-0.4-0.2-2.2-1.1-3.1H90.5z"/>
		</g>
	</g>
</g>
</svg>
