<?xml version="1.0" encoding="utf-8"?>
<!-- Generator: Adobe Illustrator 19.0.0, SVG Export Plug-In . SVG Version: 6.00 Build 0)  -->
<svg version="1.1" xmlns="http://www.w3.org/2000/svg" xmlns:xlink="http://www.w3.org/1999/xlink" x="0px" y="0px"
	 viewBox="0 0 99.4 151.6" style="enable-background:new 0 0 99.4 151.6;" xml:space="preserve">
<style type="text/css">
	.st0{fill:#FFFFFF;stroke:#000000;stroke-width:0.25;stroke-miterlimit:2.6131;}
	.st1{fill:#231F20;}
	.st2{fill-rule:evenodd;clip-rule:evenodd;fill:#0D4F9E;}
	.st3{fill-rule:evenodd;clip-rule:evenodd;fill:#0CA551;}
	.st4{fill-rule:evenodd;clip-rule:evenodd;fill:#231F20;}
	.st5{fill-rule:evenodd;clip-rule:evenodd;fill:#CF492C;}
	.st6{fill-rule:evenodd;clip-rule:evenodd;fill:none;stroke:#0CA551;stroke-width:0.7087;stroke-miterlimit:2.6131;}
	.st7{fill-rule:evenodd;clip-rule:evenodd;fill:#D54E2E;}
	.st8{fill-rule:evenodd;clip-rule:evenodd;fill:#E52529;}
	.st9{fill:#0D4F9E;}
</style>
<g id="Calque_2">
	<path id="XMLID_15_" class="st0" d="M99.3,5.3v140.9c0,2.9-2.3,5.2-5.2,5.2H5.3c-2.9,0-5.2-2.3-5.2-5.2V5.3c0-2.9,2.3-5.2,5.2-5.2
		h88.7C96.9,0.1,99.3,2.5,99.3,5.3z"/>
</g>
<g id="Calque_1">
	<g id="XMLID_14_">
		<g>
			<path id="XMLID_600_" class="st1" d="M9.3,40.1c0.9-0.9,1.1-2.7,1.1-3.1c0.1-0.4-0.1-0.5-0.1-0.5c-0.1,0-0.2,0.1-0.2,0.3
				c-0.2,1-0.9,1.4-1.3,1.5c-1.6,0.3-2.2-0.8-2.3-1.1c-0.8-1.6,1-4,1.3-4.3c1.8-2.1,3-4.4,3-4.4s1.2,2.3,3,4.4
				c0.3,0.4,2.2,2.8,1.4,4.3c-0.2,0.3-0.7,1.3-2.3,1.1c-0.4-0.1-1.1-0.5-1.3-1.5c0-0.2-0.1-0.3-0.2-0.3c-0.1,0-0.2,0.1-0.1,0.5
				c0,0.4,0.2,2.2,1.1,3.1H9.3z"/>
		</g>
		<g>
			<path id="XMLID_599_" class="st1" d="M90.1,111.6c-0.9,0.9-1.1,2.7-1.1,3.1c0,0.4,0.1,0.5,0.2,0.5c0.1,0,0.2-0.1,0.2-0.3
				c0.2-1,0.9-1.4,1.3-1.5c1.6-0.3,2.2,0.8,2.3,1.1c0.8,1.6-1,4-1.4,4.3c-1.8,2.1-3,4.4-3,4.4s-1.2-2.3-3-4.4
				c-0.3-0.4-2.2-2.8-1.4-4.3c0.2-0.3,0.7-1.3,2.3-1.1c0.4,0.1,1.1,0.5,1.3,1.5c0,0.2,0.1,0.3,0.2,0.3c0.1,0,0.2-0.1,0.1-0.5
				c-0.1-0.4-0.2-2.2-1.1-3.1H90.1z"/>
		</g>
		<path id="XMLID_598_" class="st2" d="M33.8,107L16.4,95.6l0.2-6.4v-43c0,0,13.8,3.7,18.2,11.9c0,0,10.3,22.7,11.9,27.8
			c1.6,5.1,17.4,7.7,17.4,7.7s7,7.7,11.6,9c0,0-5.5,4-11.6,5.9l-11.2-0.9h-9.1l-5.6-1.6L33.8,107z"/>
		<path id="XMLID_597_" class="st2" d="M64.6,44.6L82,56l-0.2,6.4v43c0,0-13.8-3.7-18.2-11.9c0,0-10.3-22.7-11.9-27.8
			c-1.6-5.1-17.4-7.7-17.4-7.7s-7-7.7-11.6-9c0,0,5.5-4,11.6-5.9l11.2,0.9h9.1l5.6,1.6L64.6,44.6z"/>
		<path id="XMLID_596_" class="st3" d="M64.5,94.2l6.4,6.2c0,0,2.7-9-1.4-16.7c-4.1-7.7-14.5-12.4-14.5-12.4l0.7,9.1
			C55.8,80.4,64.8,94.4,64.5,94.2z"/>
		<polygon id="XMLID_595_" class="st3" points="59.6,105.6 34.4,105.6 36.4,102 59.6,102 		"/>
		<path id="XMLID_594_" class="st3" d="M33.9,57.7l-6.4-6.2c0,0-2.7,9,1.4,16.7C33,76,43.3,80.6,43.3,80.6l-0.7-9.1
			C42.6,71.5,33.6,57.6,33.9,57.7z"/>
		<path id="XMLID_593_" class="st2" d="M56,63c-0.2-0.4-0.5-0.7-0.7-1l11-15.8l0.9,0.6L56,63z"/>
		<polygon id="XMLID_592_" class="st3" points="38.8,45.9 64,45.9 62,49.5 38.8,49.5 		"/>
		<path id="XMLID_591_" class="st4" d="M60.1,95c-0.1,0-0.2,0-0.3,0c0,0-0.8-0.2-1.6-0.1v13.4h1.9V95z"/>
		<path id="XMLID_590_" class="st4" d="M70.9,131.2c0,0-4.4-7.2-6.3-9.3c-1.8-2.1-2.5-5.5,0.2-7.4c0,0,2.7-1.8,4.6,1.4
			c0,0,0.3,0.8,0.3,1.6l0.7,0c0,0,0-3.9-1.6-6.5h4.3c0,0-1.9,3.3-1.5,6.4h0.6c0,0,0.6-4.4,4.6-2.9c0,0,3.9,2,0.6,7.1
			C74.9,124.7,70.9,131.2,70.9,131.2z"/>
		<path id="XMLID_589_" class="st2" d="M32.9,127l-0.7,0c0,0-0.7-2,0.5-4.6c0,0,0.1-0.2-0.3-1c-0.4-0.8-2-4.2-2-4.2
			s-0.6-1.1,0.2-1.7l1.2-1.1c0,0-0.1-2,0.5-2.4c0,0-0.1-1.4,0.4-1.9c0,0-0.2-2.3,0.5-2.7c0,0,6.3-3.2,11.2,0.7l3.1,2.8
			c0,0,0.3,1.3-0.3,1.3c0,0,0.2-0.7-0.2-0.9c-0.3-0.2-4.6-5.5-10.2-4.6c0,0-3.3,0.3-3.4,1.7c0,0,0,1.8-0.2,2c-0.2,0.2-0.4,1,0.5,1
			c0.9,0,2.5,0,2.5,0s0.4,0.3-0.4,0.4c0,0-3.2,0.6-3.2,1.6c0,0,0.2,1.1-0.5,1.3l-1,1.1c0,0-0.5,0.8,0.8,3.3l1.1,2.3
			c0,0,0.3,0.5,0,1.5C32.5,123.8,32.4,126.5,32.9,127z"/>
		<path class="st2" d="M41.3,123.6c0,0-3.4,2.1-7.1,1.5c0,0-0.3,0.7,0.5,0.9C39.4,126.5,41.2,123.5,41.3,123.6L41.3,123.6z
			 M39.5,121.8c-1,0.9-3.1,1.4-4.1,1.4c-1,0.1-0.6-0.3-0.6-0.3s0.6-0.2,0.4-0.7c-0.2-0.4,0.4-1,0.1-1.2c-0.3-0.2-0.4-0.5,0.5-1.3
			c0.9-0.8,1.8-0.6,1.6-0.6s-0.9,0.6-1.3,1c-0.4,0.4,0.8,0.4,0.9,0.4c0.1,0,1.6-0.3,1.8,0c0.2,0.3,0.5,0.2,1.3,0.3
			c0.8,0,1.1,0.4,1,0.7c-0.1,0.3-2.1,2.4-2.7,2.7c-0.6,0.2-2.1,0.3-2.4,0c-0.3-0.3,0.4-0.3,0.4-0.3c2,0.3,3.1-1.1,3.6-1.5
			c0.5-0.3,0.5-0.5,0.5-0.5C39.7,121.5,39.5,121.8,39.5,121.8L39.5,121.8z M38.4,121.7c0,0,0.3-0.1,0.4-0.4c0.1-0.3,0-0.6-0.8-0.7
			c-0.8-0.1-0.7,0.7-0.5,1.1C37.7,122.2,38.4,121.7,38.4,121.7L38.4,121.7z M37,121.7c0,0-0.4-0.8-0.5-0.2
			C36.4,122.2,37,122.3,37,121.7L37,121.7z M34.9,117.2c0,0,0.9-1.6-0.4-1.7c-1.3-0.1-2,0.9-2,0.9s-0.5,0.2-0.6-0.2
			c-0.1-0.4,0.2-0.8,0.6-1c0.4-0.2,1.9-0.6,2.5,0C35.6,115.7,35.6,117.3,34.9,117.2L34.9,117.2z M38.6,113.9c0.1,0.2,0.9,1,1.7,0.3
			c0.8-0.7-0.2-1.9-0.2-1.9c-0.9-0.8-2.9-0.3-3.3,0c-0.3,0.3-1.8,1-2.6,1c-0.8,0.1-0.6,0.4-0.4,0.8c0.2,0.5,1,0.1,1,0.1
			s2.5-1.4,3.1-1.8c0.6-0.4,1.8,0.1,2,1.2C40.3,114.7,38.6,113.9,38.6,113.9z"/>
		<path id="XMLID_582_" class="st5" d="M56.5,126.1c0,0,0.5-3.8,2-5.6c1.5-1.8,2.3-4.6,1.7-5.6l-0.5-1.1l1-1.3c0,0,3.2-0.1,3.3-2.2
			c0.2-2.2-1.3-3.1-1.7-3.3c-0.4-0.2-3.6-0.5-5,2.5c0,0-0.3-4.6-4.9-1.7l-3.4,0l-1.7,4.4c0,0-3.8,0.1-2.6,3.7c0,0,1,1.8,2.2,1.7
			c0,0-0.5,1.3-1,2.4c-0.4,1.1-2.9,8.2-2.9,8.2L56.5,126.1z"/>
		<path id="XMLID_581_" class="st6" d="M54.7,126.2c0,0,0.5-2,2.1-5.6c1.6-3.6,2.1-3.4,2-4.9c-0.1-1.5-1.3-2.5-2.3-0.8
			c0,0-0.2,1,0.8,1.1"/>
		<path id="XMLID_580_" class="st6" d="M53.1,126.4c0,0,1.4-3.9,1.9-4.6c0.5-0.7,1.5-4.1,1.5-4.4"/>
		<path id="XMLID_579_" class="st6" d="M58.6,117.1c0,0-2.3,1.2-3.1-0.4c-0.9-1.5,0.4-3.3,0.8-3.7c0.4-0.4,3.1-0.3,3.5,0.5"/>
		<path id="XMLID_578_" class="st6" d="M51.4,126.8c0,0,3.4-8.7,4-9.8"/>
		<path id="XMLID_577_" class="st6" d="M49.8,127c0,0,3.4-8.4,3.5-8.7c0.2-0.4,0.9-2.4,0.4-3.1c-0.5-0.7-1.2-1.1-2.5-0.5
			c0,0-0.9,1.2,0.3,1.7c1.1,0.5,1.1-0.6,0.9-0.7"/>
		<path id="XMLID_576_" class="st6" d="M53.6,117.6c0,0-1.7,0.9-2.9-0.1c-1.1-1.1-1-1.5-0.7-3.5c0,0,0.8-1.4,2.5-1.1
			c1.7,0.4,2.6,2,2.6,2"/>
		<path id="XMLID_575_" class="st6" d="M48.4,127.3c0,0,0.5-2.9,1.2-4.2c0.8-1.3,2.2-5,2.2-5"/>
		<path id="XMLID_574_" class="st6" d="M46.5,127.5c0,0,2.5-7.9,4.1-10"/>
		<path id="XMLID_573_" class="st6" d="M44.9,127.6c0,0,2.7-8.1,3.3-9c0.6-0.9,0.7-3.3,0.5-3.8c-0.2-0.5-0.5-1.9-2.3-1
			c0,0-1.4,1.1,0,2.1c0,0,0.6,0.2,0.7-0.1"/>
		<path id="XMLID_572_" class="st6" d="M47,117.5c0,0,1.6-0.5,1.8-1.6"/>
		<path id="XMLID_571_" class="st6" d="M50,114.7c0,0-0.4-2.4-2.5-2.7"/>
		<path id="XMLID_570_" class="st6" d="M48.8,112.5c0,0,1.8-4.6,1.8-4.8"/>
		<path id="XMLID_569_" class="st6" d="M50.3,113.7c0,0,0.5-4.7,2.2-6"/>
		<path id="XMLID_568_" class="st6" d="M51.6,112.9c0,0,1.1-2.1,1.1-2.6c0-0.5,0.3-2,2-2c1.7,0,1.1,1.4,0.9,1.7
			c-0.2,0.3-0.8,0.5-1.1-0.1"/>
		<path class="st6" d="M53,113c0,0,0.7-0.9,0.6-1.4c-0.1-0.5-0.9-1.5-0.8-1.9 M55.1,112.1c0,0-0.9-0.5-1.4-0.3"/>
		<path id="XMLID_565_" class="st6" d="M53.9,113.6c0,0,0.9-0.5,1-1.2c0.2-0.7,1.2-0.7,1.4-0.7c0.3,0,1-2.3,1-2.3"/>
		<line id="XMLID_564_" class="st6" x1="56.4" y1="112.9" x2="56.4" y2="111.6"/>
		<path id="XMLID_563_" class="st6" d="M57.1,112.9c0,0,2.2-4.7,4-4.8c1.8-0.1,1.8,1.7,1.5,2.1c-0.2,0.4-1.1,0.9-1.5,0.5
			c-0.4-0.4-0.3-1.1-0.3-1.1"/>
		<line id="XMLID_562_" class="st6" x1="58.7" y1="113" x2="59.8" y2="111.5"/>
		<path id="XMLID_561_" class="st6" d="M60.8,112.4c0,0-1.8-1.3-1.6-3"/>
		<path id="XMLID_560_" class="st5" d="M23.4,125.3l2.3,4.1c0,0,0.9,3.2-1.9,3.9c0,0-3.7,0.6-4.2-1.6c0,0-0.7-1.3,0.5-3.8l1.6-2.3
			l-2.2-3.2l2.1-3.2c0,0-2.3-3.9-2.3-5.6c0-1.7,1.5-3.4,3.6-3c2,0.4,2.7,2.7,2.7,3.6c0,1-2,4.4-2,4.4l2.1,3.4L23.4,125.3z"/>
		<path id="XMLID_559_" class="st6" d="M22.5,127c0,0,2.4,1.7,1.7,4c0,0-0.6,1.1-1.9,0.9c-1.2-0.2-1.8-1.3-1.6-2.1
			C21.1,128.1,22.5,127,22.5,127z"/>
		<path id="XMLID_558_" class="st6" d="M22.3,117.4c0,0,2.5-1.9,1.8-4.4c0,0-0.7-1.3-2-1c-1.3,0.2-1.9,1.4-1.7,2.4
			C20.9,116.2,22.3,117.4,22.3,117.4z"/>
		<path id="XMLID_557_" class="st6" d="M23.9,122.4l-1.5,2.2l-1.4-2.2l1.5-2.2C22.4,120.1,23.9,122.4,23.9,122.4z"/>
		<polygon id="XMLID_556_" class="st5" points="35.2,106 35.8,105.1 58.2,105.1 58.2,106 		"/>
		<polygon id="XMLID_555_" class="st5" points="37.5,102.5 38.2,101.6 58.2,101.6 58.2,102.5 		"/>
		<path class="st5" d="M38.2,104.5h-1.4c0-0.4,0.3-0.7,0.7-0.7C37.8,103.8,38.2,104.1,38.2,104.5L38.2,104.5z M36.9,103.5l0.3-0.4h1
			c0,0.4-0.3,0.7-0.7,0.7C37.2,103.8,37,103.6,36.9,103.5L36.9,103.5z M40.2,104.5h-1.4c0-0.4,0.3-0.7,0.7-0.7
			C39.9,103.8,40.2,104.1,40.2,104.5L40.2,104.5z M40.2,103.1h-1.4c0,0.4,0.3,0.7,0.7,0.7C39.9,103.8,40.2,103.4,40.2,103.1
			L40.2,103.1z M42.2,104.5h-1.4c0-0.4,0.3-0.7,0.7-0.7C41.9,103.8,42.2,104.1,42.2,104.5L42.2,104.5z M42.2,103.1h-1.4
			c0,0.4,0.3,0.7,0.7,0.7C41.9,103.8,42.2,103.4,42.2,103.1L42.2,103.1z M44.2,104.5h-1.4c0-0.4,0.3-0.7,0.7-0.7
			C43.9,103.8,44.2,104.1,44.2,104.5L44.2,104.5z M44.2,103.1h-1.4c0,0.4,0.3,0.7,0.7,0.7C43.9,103.8,44.2,103.4,44.2,103.1
			L44.2,103.1z M46.2,104.5h-1.4c0-0.4,0.3-0.7,0.7-0.7C45.9,103.8,46.2,104.1,46.2,104.5L46.2,104.5z M46.2,103.1h-1.4
			c0,0.4,0.3,0.7,0.7,0.7C45.9,103.8,46.2,103.4,46.2,103.1L46.2,103.1z M48.2,104.5h-1.4c0-0.4,0.3-0.7,0.7-0.7
			C47.9,103.8,48.2,104.1,48.2,104.5L48.2,104.5z M48.2,103.1h-1.4c0,0.4,0.3,0.7,0.7,0.7C47.9,103.8,48.2,103.4,48.2,103.1
			L48.2,103.1z M50.2,104.5h-1.4c0-0.4,0.3-0.7,0.7-0.7C49.9,103.8,50.2,104.1,50.2,104.5L50.2,104.5z M50.2,103.1h-1.4
			c0,0.4,0.3,0.7,0.7,0.7C49.9,103.8,50.2,103.4,50.2,103.1L50.2,103.1z M57,104.5h-1.4c0-0.4,0.3-0.7,0.7-0.7
			C56.7,103.8,57,104.1,57,104.5L57,104.5z M57,103.1h-1.4c0,0.4,0.3,0.7,0.7,0.7C56.7,103.8,57,103.4,57,103.1L57,103.1z
			 M54.8,104.5h-1.4c0-0.4,0.3-0.7,0.7-0.7C54.5,103.8,54.8,104.1,54.8,104.5L54.8,104.5z M54.8,103.1h-1.4c0,0.4,0.3,0.7,0.7,0.7
			C54.5,103.8,54.8,103.4,54.8,103.1L54.8,103.1z M52.5,104.5h-1.4c0-0.4,0.3-0.7,0.7-0.7C52.2,103.8,52.5,104.1,52.5,104.5
			L52.5,104.5z M52.5,103.1h-1.4c0,0.4,0.3,0.7,0.7,0.7C52.2,103.8,52.5,103.4,52.5,103.1z"/>
		<path id="XMLID_534_" class="st4" d="M43.1,89.6c0.7,0.8,1.4,1.2,2,1.5l-10.6,16l-2.5-1.7L43.1,89.6z"/>
		<path id="XMLID_533_" class="st5" d="M42.4,88.6c0.2,0.4,0.5,0.7,0.7,1l-11,15.8l-0.9-0.6L42.4,88.6z"/>
		<polygon id="XMLID_532_" class="st7" points="33.9,100.2 41.8,88.3 41,87.9 32.9,99.5 		"/>
		<path class="st7" d="M31.7,97.1c-0.4,0-0.8-0.4-0.8-0.8c0-0.4,0.4-0.8,0.8-0.8c0.4,0,0.8,0.4,0.8,0.8
			C32.5,96.7,32.1,97.1,31.7,97.1L31.7,97.1z M30.8,98c0.4,0.3,0.8,0.5,1.3,0.5c0.7,0,1.2-0.3,1.6-0.8c0,0,0,0,0,0
			c0.3-0.4,0.4-0.8,0.4-1.3c0-0.7-0.4-1.4-0.9-1.8c-0.3,0.4-0.4,0.8-0.4,1.3c0,0.6,0.3,1.2,0.7,1.6c-0.3-0.2-0.7-0.3-1-0.3
			C31.7,97.2,31.1,97.5,30.8,98z"/>
		<path class="st7" d="M34.1,93.2c-0.4,0-0.8-0.4-0.8-0.8c0-0.4,0.4-0.8,0.8-0.8c0.4,0,0.8,0.4,0.8,0.8
			C34.9,92.8,34.6,93.2,34.1,93.2L34.1,93.2z M33.2,94.1c0.4,0.3,0.8,0.5,1.3,0.5c0.7,0,1.2-0.3,1.6-0.8l0,0
			c0.3-0.4,0.4-0.8,0.4-1.3c0-0.7-0.4-1.4-0.9-1.8c-0.3,0.4-0.4,0.8-0.4,1.3c0,0.6,0.3,1.2,0.7,1.6c-0.3-0.2-0.7-0.3-1-0.3
			C34.2,93.3,33.6,93.6,33.2,94.1z"/>
		<path class="st7" d="M36.7,89.1c-0.4,0-0.8-0.4-0.8-0.8c0-0.4,0.4-0.8,0.8-0.8c0.4,0,0.8,0.4,0.8,0.8
			C37.5,88.8,37.2,89.1,36.7,89.1L36.7,89.1z M35.8,90.1c0.4,0.3,0.8,0.5,1.3,0.5c0.7,0,1.2-0.3,1.6-0.8l0,0
			c0.3-0.4,0.4-0.8,0.4-1.3c0-0.7-0.4-1.4-0.9-1.8c-0.3,0.4-0.4,0.8-0.4,1.3c0,0.6,0.3,1.2,0.7,1.6c-0.3-0.2-0.7-0.3-1-0.3
			C36.8,89.3,36.2,89.6,35.8,90.1z"/>
		<path id="XMLID_525_" class="st5" d="M36.2,86.4L29,96.8c0,0,1.2-15.9-12.1-25.5v-1.5c0,0,11.6,5.9,13.4,22.9l4.6-6.9L36.2,86.4z"
			/>
		<path id="XMLID_524_" class="st5" d="M24.4,93.3h-1.2c0,0-0.3-8.4-6.3-14.3v-1.5C16.8,77.6,23.2,81.3,24.4,93.3z"/>
		<path id="XMLID_523_" class="st5" d="M19.9,90.8l1.2,0.6c0,0-0.6-5.5-3.9-9.3v1.7C17.2,83.7,20,88.8,19.9,90.8z"/>
		<ellipse id="XMLID_522_" class="st5" cx="26.5" cy="93.4" rx="1.1" ry="1.2"/>
		<path id="XMLID_521_" class="st5" d="M26.2,90.7c-0.6,0-1.1-0.5-1.1-1.2c0-0.6,0.5-1.2,1.1-1.2c0.6,0,1.1,0.5,1.1,1.2
			C27.3,90.1,26.8,90.7,26.2,90.7z"/>
		<path id="XMLID_520_" class="st5" d="M25,86.9c-0.6,0-1.1-0.5-1.1-1.2c0-0.6,0.5-1.2,1.1-1.2c0.6,0,1.1,0.5,1.1,1.2
			C26.2,86.4,25.7,86.9,25,86.9z"/>
		<path id="XMLID_519_" class="st5" d="M23.6,83.1c-0.6,0-1.1-0.5-1.1-1.2c0-0.6,0.5-1.2,1.1-1.2c0.6,0,1.1,0.5,1.1,1.2
			C24.7,82.6,24.2,83.1,23.6,83.1z"/>
		<path id="XMLID_518_" class="st5" d="M21.6,79.9c-0.6,0-1.1-0.5-1.1-1.2c0-0.6,0.5-1.2,1.1-1.2c0.6,0,1.1,0.5,1.1,1.2
			C22.7,79.4,22.2,79.9,21.6,79.9z"/>
		<ellipse id="XMLID_517_" class="st5" cx="18.7" cy="75.8" rx="1.1" ry="1.2"/>
		<path id="XMLID_516_" class="st7" d="M20.8,48.7c0.6,0.1,1.1,0.3,1.7,0.5c-0.8,2.7-1.3,5.5-1.3,8.5c0,12.8,8.6,23.7,20.2,27.1
			l0,1.5c0,0.1,0,0.3,0,0.4c-12.6-3.5-22-15.1-22-29C19.5,54.6,19.9,51.6,20.8,48.7z"/>
		<path id="XMLID_515_" class="st5" d="M27.2,51.8c0.3,0.2,0.5,0.4,0.8,0.6c-0.4,1.7-0.7,3.5-0.7,5.4c0,9.4,5.9,17.5,14.1,20.6
			c0,0.1,0,0.2,0,0.2l0,0.8c-8.8-3.2-15.1-11.7-15.1-21.6C26.4,55.7,26.7,53.7,27.2,51.8z"/>
		<path id="XMLID_514_" class="st5" d="M31.3,55.3c0.3,0.3,0.5,0.5,0.7,0.8C32,56.6,32,57.2,32,57.7c0,6.3,3.3,11.8,8.3,14.9
			c0.1,0.4,0.2,0.7,0.3,1.1c-5.6-3.1-9.4-9.1-9.4-16C31.2,56.9,31.2,56.1,31.3,55.3z"/>
		<path id="XMLID_513_" class="st5" d="M32.5,56.6c0.3,0.4,0.6,0.6,0.7,0.8c0,0.1,0,0.2,0,0.3c0,5.4,2.6,10.1,6.6,13
			c0.1,0.4,0.2,0.8,0.3,1.1c-4.6-3-7.7-8.2-7.7-14.2C32.5,57.3,32.5,56.9,32.5,56.6z"/>
		<path id="XMLID_512_" class="st5" d="M38.4,66.8c0.2,0.5,0.4,1,0.6,1.5c-1.9-1.9-3.3-4.2-4-6.8c0,0,0.1,0.1,0.1,0.1
			c0.3,0.3,0.6,0.6,0.9,1C36.5,64.1,37.3,65.5,38.4,66.8z"/>
		<path class="st5" d="M38.6,73c0.5,0.4,1,0.7,1.6,1c-0.2,0.3-0.5,0.5-0.8,0.5c-0.5,0-0.9-0.4-0.9-0.9C38.4,73.4,38.5,73.2,38.6,73
			L38.6,73z M36.6,71.4c0.5,0.4,0.9,0.8,1.4,1.2c-0.2,0.2-0.4,0.4-0.7,0.4c-0.5,0-0.9-0.4-0.9-0.9C36.4,71.8,36.4,71.6,36.6,71.4
			L36.6,71.4z M34.8,69.6c0.4,0.5,0.8,0.9,1.2,1.4c-0.2,0.2-0.4,0.3-0.6,0.3c-0.5,0-0.9-0.4-0.9-0.9C34.5,70,34.6,69.7,34.8,69.6
			L34.8,69.6z M33.4,67.5c0.3,0.5,0.7,1,1,1.5c-0.2,0.1-0.3,0.2-0.5,0.2c-0.5,0-0.9-0.4-0.9-0.9C33,67.9,33.1,67.6,33.4,67.5
			L33.4,67.5z M32.2,65.2c0.2,0.6,0.5,1.1,0.8,1.7c-0.1,0.1-0.3,0.1-0.4,0.1c-0.5,0-0.9-0.4-0.9-0.9C31.7,65.7,31.9,65.4,32.2,65.2
			L32.2,65.2z M31.3,62.8c0.2,0.6,0.4,1.2,0.6,1.8c-0.1,0-0.2,0.1-0.3,0.1c-0.5,0-0.9-0.4-0.9-0.9C30.7,63.3,31,62.9,31.3,62.8
			L31.3,62.8z M30.8,60.3c0.1,0.6,0.2,1.2,0.3,1.8c-0.1,0-0.1,0-0.2,0c-0.5,0-0.9-0.4-0.9-0.9C30.1,60.7,30.4,60.4,30.8,60.3
			L30.8,60.3z M30.6,57.7c0,0.6,0,1.3,0.1,1.9c0,0,0,0-0.1,0c-0.5,0-0.9-0.4-0.9-0.9C29.7,58.2,30.2,57.7,30.6,57.7L30.6,57.7z
			 M30.8,55.2c-0.1,0.6-0.1,1.2-0.2,1.9c-0.5,0-0.9-0.4-0.9-0.9C29.8,55.6,30.2,55.2,30.8,55.2C30.8,55.2,30.8,55.2,30.8,55.2z"/>
		<path class="st5" d="M39.3,77c0.6,0.3,1.3,0.6,1.9,0.9c0.1-0.1,0.1-0.3,0.1-0.4c0-0.6-0.5-1.1-1.1-1.1
			C39.9,76.4,39.5,76.6,39.3,77L39.3,77z M36.8,75.4c0.6,0.4,1.2,0.8,1.8,1.1c0.1-0.2,0.2-0.4,0.2-0.6c0-0.6-0.5-1.1-1.1-1.1
			C37.3,75,37,75.1,36.8,75.4L36.8,75.4z M34.5,73.5c0.5,0.5,1,0.9,1.6,1.4c0.1-0.2,0.2-0.4,0.2-0.7c0-0.6-0.5-1.1-1.1-1.1
			C34.9,73.2,34.7,73.3,34.5,73.5L34.5,73.5z M32.4,71.3c0.4,0.6,0.9,1.1,1.4,1.6c0.2-0.2,0.3-0.5,0.3-0.8c0-0.6-0.5-1.1-1.1-1.1
			C32.9,71,32.6,71.1,32.4,71.3L32.4,71.3z M30.7,68.8c0.4,0.6,0.8,1.2,1.2,1.8c0.3-0.2,0.4-0.5,0.4-0.9c0-0.6-0.5-1.1-1.1-1.1
			C31.1,68.7,30.9,68.7,30.7,68.8L30.7,68.8z M29.4,66.1c0.3,0.7,0.6,1.3,0.9,1.9c0.3-0.2,0.6-0.5,0.6-0.9c0-0.6-0.5-1.1-1.1-1.1
			C29.6,66,29.5,66.1,29.4,66.1L29.4,66.1z M28.4,63.3c0.2,0.7,0.4,1.4,0.6,2c0.4-0.1,0.7-0.5,0.7-1c0-0.6-0.5-1.1-1.1-1.1
			C28.6,63.2,28.5,63.2,28.4,63.3L28.4,63.3z M27.8,60.3c0.1,0.7,0.2,1.4,0.4,2.1c0.5-0.1,0.9-0.5,0.9-1c0-0.6-0.5-1.1-1.1-1.1
			C27.9,60.3,27.9,60.3,27.8,60.3L27.8,60.3z M27.7,59.4c0-0.6-0.1-1.1-0.1-1.7c0-0.1,0-0.3,0-0.4c0,0,0,0,0,0
			c0.6,0,1.1,0.5,1.1,1.1C28.8,58.9,28.3,59.4,27.7,59.4L27.7,59.4z M28,54.3c-0.1,0.7-0.2,1.4-0.2,2.1c0,0,0.1,0,0.1,0
			c0.6,0,1.1-0.5,1.1-1.1C28.9,54.8,28.5,54.3,28,54.3z"/>
		<path id="XMLID_492_" class="st8" d="M40.9,82.9l-0.7-2.7c0,0-0.1-1-1.3-0.5c-1.2,0.5-2.9,1.4-2.9,1.4s-0.9,0.5,0.1,1.1l4,1.6
			C40.1,83.8,41.2,84.3,40.9,82.9z"/>
		<path id="XMLID_491_" class="st8" d="M32.3,78.4l0.4-2.8c0,0,0.3-0.9-1-1c-1.3-0.1-3.2,0.1-3.2,0.1s-1,0.1-0.4,1.1l3,3.1
			C31.1,78.9,32.1,79.8,32.3,78.4z"/>
		<path id="XMLID_490_" class="st8" d="M26.4,71.1l1.2-2.6c0,0,0.5-0.8-0.7-1.2c-1.2-0.4-3.1-0.8-3.1-0.8s-1-0.2-0.7,0.9l2,3.9
			C25.1,71.3,25.8,72.4,26.4,71.1z"/>
		<path id="XMLID_489_" class="st8" d="M23.3,61.8l2.1-1.9c0,0,0.8-0.5-0.1-1.4c-0.9-0.9-2.5-2-2.5-2s-0.9-0.6-1,0.6l0.3,4.3
			C22.1,61.5,22.2,62.8,23.3,61.8z"/>
		<path id="XMLID_488_" class="st8" d="M37.3,79.1l-2.7,1.1c0,0-0.7,0.3-0.9-0.7c-0.2-1.1-0.1-3-0.1-3s0-0.9,0.9-0.4l3.2,2.1
			C37.6,78.1,38.4,78.8,37.3,79.1z"/>
		<path id="XMLID_487_" class="st8" d="M30.3,73.8l-2.9-0.1c0,0-0.8,0-0.6-1c0.2-1.1,1-2.8,1-2.8s0.3-0.8,1-0.1L31,73
			C31,73,31.5,74,30.3,73.8z"/>
		<path id="XMLID_486_" class="st8" d="M24.7,56.6l-2.2-2.3c0,0-0.7-0.6,0.4-1.3c1-0.6,3-1.4,3-1.4s0.9-0.4,0.8,0.7l-0.8,4.2
			C25.9,56.5,25.5,57.6,24.7,56.6z"/>
		<path id="XMLID_485_" class="st8" d="M25.9,66.3L23,65.1c0,0-0.8-0.3-0.2-1.3c0.7-1,2.1-2.5,2.1-2.5s0.7-0.7,1,0.3l1,4.1
			C26.9,65.7,27.1,66.9,25.9,66.3z"/>
		<polygon id="XMLID_484_" class="st8" points="22.6,51.5 25,50.5 23.3,49.7 		"/>
		<path id="XMLID_483_" class="st7" d="M60.5,95.1c0.6,0.1,1,0.1,1.5,0.1v11.4h-1.5V95.1z"/>
		<polygon id="XMLID_482_" class="st7" points="31,104.7 33.2,101.2 17.3,89.6 17.3,95 		"/>
		<path class="st7" d="M62.7,106.6v-6.3c1.4,0.3,2.5,1.6,2.5,3.1C65.2,105,64.1,106.3,62.7,106.6L62.7,106.6z M63.7,104.3l0.3-0.4
			l0.3-0.4l-0.3-0.4l-0.3-0.4l-0.3,0.4l-0.3,0.4l0.3,0.4L63.7,104.3z"/>
		<path id="XMLID_479_" class="st7" d="M66.7,106.7C66.7,106.7,66.7,106.7,66.7,106.7l-1.1,0.4l1.1-1.4L66.7,106.7z"/>
		<g>
			<path class="st2" d="M29.8,104.5c0,0-1.9,5.2-5.8,5.1c0,0-0.6-1.4-1.4-1.7c-0.8-0.3,2.8-0.4,2.7-1.4c-0.2-1,0.3-2.8-0.1-2.7
				c-0.4,0-0.1,1.9-0.6,1.7c-0.5-0.3-0.1-2-0.4-2.5c-0.4-0.6-0.5-2.2-0.4-2.5c0.1-0.4-0.9-1-1.6-0.8c-0.7,0.3-2.2,0.9-2.2,1.8
				c0,0.9,0.1,0.8,0.1,0.8s-1,0.7-0.4,2.2c0,0-0.7,1.1,0.2,2.2c0,0-0.2,1.6,1,2c0,0-0.5,1.3,0.9,1.7c0,0,1.2,1,5.2-1.1
				c0,0,2.6-1.7,3.2-4.2L29.8,104.5L29.8,104.5z M23.4,109.3c0.3,0.4-1.1,0.7-1.7,0.3c-0.6-0.4,0.2-0.8,0.2-0.8
				C23.3,108.5,23.4,109.3,23.4,109.3L23.4,109.3z M22.8,106.4c0,0,0.5,0.7,0.2,0.8c-0.3,0.1-1.6,0.8-1.7,0.9c0,0.1-0.8,0-0.9-0.5
				c-0.1-0.6,0.1-0.8,0.2-0.9c0.1-0.1,1.7-1.1,1.9-0.8C22.6,106.1,22.8,106.4,22.8,106.4L22.8,106.4z M22.7,105.1c0,0-1.9,0.8-2,1.1
				c-0.1,0.3-1.1-0.5-0.9-0.9c0.1-0.4,1.4-1.6,2.6-1.6C22.8,104.3,22.7,105,22.7,105.1L22.7,105.1z M22.4,102.6c0,0,0.2,0.7-0.4,0.9
				c-0.6,0.2-1.8,0.7-1.9,0.1c0-0.6,0.6-1.4,1.1-1.5C21.6,102,22.4,101.8,22.4,102.6L22.4,102.6z M22.3,100.5c0,0,0.4,1.1-0.6,1.3
				c-1,0.2-1.4-0.1-1.3-0.4C20.5,101.1,22,99.8,22.3,100.5L22.3,100.5z M23.8,106.9c-0.4,0-0.7-0.3-0.7-0.7s0.3-0.7,0.7-0.7
				c0.4,0,0.7,0.3,0.7,0.7S24.2,106.9,23.8,106.9L23.8,106.9z M23.6,104.8c-0.3,0-0.6-0.3-0.6-0.6c0-0.3,0.3-0.6,0.6-0.6
				c0.3,0,0.6,0.3,0.6,0.6C24.2,104.6,23.9,104.8,23.6,104.8L23.6,104.8z M23.2,102.9c-0.3,0-0.5-0.3-0.5-0.6s0.2-0.6,0.5-0.6
				c0.3,0,0.5,0.3,0.5,0.6S23.5,102.9,23.2,102.9L23.2,102.9z M23,101.4c-0.2,0-0.4-0.2-0.4-0.5c0-0.3,0.2-0.5,0.4-0.5
				c0.2,0,0.4,0.2,0.4,0.5C23.4,101.2,23.3,101.4,23,101.4z"/>
		</g>
		<path id="XMLID_468_" class="st8" d="M58.2,94.8c-0.3,0-0.5,0-0.8,0.1c-0.9,0.2-3.3-0.4-3.9-1.1c-0.7-0.8-4,1-6-2.3
			c0,0-1.1,0.2-2.5-0.4l0,0c0,0,0,0,0.1,0l-6.9,10.5h20.1V94.8z"/>
		<path id="XMLID_467_" class="st8" d="M74.5,102.3c-1.1-0.5-2.3-1.3-3.5-2.2v4.4C72.3,103.8,73.6,103,74.5,102.3z"/>
		<path id="XMLID_466_" class="st4" d="M71,100.1c-0.9-0.7-1.8-1.4-2.6-2.1v8c0.8-0.4,1.7-0.9,2.6-1.4V100.1z"/>
		<path id="XMLID_465_" class="st7" d="M68.4,98c-0.4-0.3-0.7-0.7-1.1-1h-0.2v9.5l1.3-0.6V98z"/>
		<path class="st7" d="M66.6,96.4c-0.5-0.5-1-0.9-1.3-1.3c-1,0.7-1.6,1.8-1.6,3.1c0,1.8,1.3,3.3,3,3.7V96.4L66.6,96.4z M65.3,97.5
			l0.3,0.3l0.3,0.3l-0.3,0.3l-0.3,0.3L65,98.6l-0.3-0.3l0.3-0.3L65.3,97.5z"/>
		<polygon id="XMLID_462_" class="st7" points="50,98.2 50.4,99.5 49.2,100.6 48.3,99.6 48.8,98.2 47.2,98.5 46.3,97.6 47.1,96.6 
			48.5,97 48.3,95.7 49.3,94.7 50.4,95.6 50.1,97.3 51.4,96.8 52.5,97.8 51.6,98.8 		"/>
		<ellipse id="XMLID_461_" class="st4" cx="38.9" cy="81.7" rx="0.6" ry="0.6"/>
		<path id="XMLID_460_" class="st4" d="M30.7,77c-0.3-0.1-0.4-0.5-0.3-0.8c0.1-0.3,0.5-0.4,0.8-0.3c0.3,0.1,0.4,0.5,0.3,0.8
			C31.3,77,31,77.2,30.7,77z"/>
		<path id="XMLID_459_" class="st4" d="M25.3,69.3c-0.3-0.2-0.3-0.6-0.1-0.9c0.2-0.3,0.6-0.3,0.8-0.1c0.3,0.2,0.3,0.6,0.1,0.9
			C25.9,69.5,25.5,69.5,25.3,69.3z"/>
		<path id="XMLID_458_" class="st4" d="M23,59.7c-0.1-0.3,0-0.7,0.3-0.8c0.3-0.1,0.7,0,0.8,0.3c0.1,0.3,0,0.7-0.3,0.8
			C23.5,60.1,23.1,60,23,59.7z"/>
		<path id="XMLID_457_" class="st4" d="M35.6,78.2c-0.1-0.2-0.5-0.3-0.7-0.2c-0.2,0.1-0.3,0.5-0.2,0.7c0.1,0.2,0.5,0.3,0.7,0.2
			C35.7,78.8,35.8,78.5,35.6,78.2z"/>
		
			<ellipse id="XMLID_456_" transform="matrix(0.9897 -0.143 0.143 0.9897 -10.0667 4.8421)" class="st4" cx="28.6" cy="72.4" rx="0.5" ry="0.5"/>
		<path id="XMLID_455_" class="st4" d="M24.9,54.5c0.2-0.3,0.1-0.6-0.1-0.8c-0.3-0.2-0.6-0.1-0.8,0.1c-0.2,0.3-0.1,0.6,0.1,0.8
			C24.4,54.8,24.7,54.7,24.9,54.5z"/>
		
			<ellipse id="XMLID_454_" transform="matrix(0.9764 0.2162 -0.2162 0.9764 14.4711 -3.8356)" class="st4" cx="24.8" cy="64.2" rx="0.6" ry="0.6"/>
		<path id="XMLID_453_" class="st4" d="M38.3,56.6c0.1,0,0.2,0,0.3,0c0,0,0.8,0.2,1.6,0.1V43.4h-1.9V56.6z"/>
		<path id="XMLID_452_" class="st4" d="M27.5,20.4c0,0,4.4,7.2,6.3,9.3c1.8,2.1,2.5,5.5-0.2,7.4c0,0-2.7,1.8-4.6-1.4
			c0,0-0.3-0.8-0.3-1.6l-0.7,0c0,0,0,3.9,1.6,6.5h-4.3c0,0,1.9-3.3,1.5-6.4h-0.6c0,0-0.6,4.4-4.7,2.9c0,0-3.9-2-0.6-7.1
			C23.5,26.9,27.4,20.4,27.5,20.4z"/>
		<path id="XMLID_451_" class="st2" d="M65.5,24.6l0.7,0c0,0,0.7,2-0.5,4.6c0,0-0.1,0.2,0.3,1c0.4,0.8,2,4.2,2,4.2s0.6,1.1-0.2,1.7
			l-1.2,1.1c0,0,0.1,2-0.5,2.4c0,0,0.1,1.4-0.4,1.9c0,0,0.2,2.3-0.5,2.7c0,0-6.3,3.2-11.2-0.7l-3.1-2.8c0,0-0.3-1.3,0.3-1.3
			c0,0-0.2,0.7,0.2,0.9c0.3,0.2,4.6,5.5,10.2,4.6c0,0,3.3-0.3,3.4-1.7c0,0,0-1.8,0.2-2c0.2-0.2,0.4-1-0.5-1c-0.9,0-2.5,0-2.5,0
			s-0.4-0.3,0.4-0.4c0,0,3.2-0.6,3.2-1.6c0,0-0.2-1.1,0.5-1.3l1-1.1c0,0,0.5-0.8-0.8-3.3l-1.1-2.3c0,0-0.3-0.5,0-1.5
			C65.9,27.8,66,25.1,65.5,24.6z"/>
		<path id="XMLID_450_" class="st6" d="M49.3,44l1.7-4.4c0,0,3.8-0.1,2.6-3.7c0,0-1-1.8-2.2-1.7c0,0,0.5-1.3,1-2.4
			c0.4-1.1,2.9-8.2,2.9-8.2"/>
		<path class="st2" d="M57.1,28c0,0,3.4-2.1,7.1-1.5c0,0,0.3-0.7-0.5-0.9C59,25.1,57.2,28.1,57.1,28L57.1,28z M58.9,29.8
			c1-0.9,3.1-1.4,4.1-1.4c1.1-0.1,0.6,0.3,0.6,0.3s-0.6,0.2-0.4,0.7c0.2,0.4-0.4,1-0.1,1.2c0.3,0.2,0.4,0.5-0.5,1.3
			c-0.9,0.8-1.8,0.6-1.6,0.6c0.2,0,0.9-0.6,1.3-1c0.4-0.4-0.8-0.4-0.9-0.4c-0.1,0-1.6,0.3-1.8,0C59.5,31,59.3,31,58.5,31
			c-0.8,0-1.1-0.4-1-0.7c0.1-0.3,2.1-2.4,2.7-2.7c0.6-0.2,2.1-0.3,2.4,0c0.3,0.3-0.4,0.3-0.4,0.3c-2-0.3-3.1,1.1-3.6,1.5
			c-0.5,0.3-0.5,0.5-0.5,0.5C58.6,30.2,58.9,29.8,58.9,29.8L58.9,29.8z M60,29.9c0,0-0.3,0.1-0.4,0.4c-0.1,0.3,0,0.6,0.8,0.7
			c0.8,0.1,0.7-0.7,0.5-1.1C60.7,29.4,60,29.9,60,29.9L60,29.9z M61.4,29.9c0,0,0.4,0.8,0.5,0.2C62,29.4,61.4,29.3,61.4,29.9
			L61.4,29.9z M63.5,34.4c0,0-0.9,1.6,0.4,1.7c1.3,0.1,2-0.9,2-0.9s0.5-0.2,0.6,0.2c0.1,0.4-0.2,0.8-0.6,1c-0.4,0.2-1.9,0.6-2.5,0
			C62.8,35.9,62.8,34.3,63.5,34.4L63.5,34.4z M59.8,37.7c-0.1-0.2-0.9-1-1.7-0.3c-0.8,0.7,0.2,1.9,0.2,1.9c0.9,0.8,2.9,0.3,3.3,0
			c0.3-0.3,1.8-1,2.6-1c0.8-0.1,0.6-0.4,0.4-0.8c-0.2-0.5-1-0.1-1-0.1s-2.5,1.4-3.1,1.8c-0.6,0.4-1.8-0.1-2-1.2
			C58.1,36.9,59.8,37.7,59.8,37.7z"/>
		<path id="XMLID_443_" class="st5" d="M41.9,25.5c0,0-0.5,3.8-2,5.6c-1.5,1.8-2.3,4.6-1.7,5.6l0.5,1.1l-1,1.3c0,0-3.2,0.1-3.3,2.2
			c-0.2,2.2,1.2,3.1,1.7,3.3c0.4,0.2,3.6,0.5,5-2.5c0,0,0.3,4.6,4.9,1.7l3.4,0l1.7-4.4c0,0,3.8-0.1,2.6-3.7c0,0-1-1.8-2.2-1.7
			c0,0,0.5-1.3,1-2.4c0.4-1.1,2.9-8.2,2.9-8.2L41.9,25.5z"/>
		<path id="XMLID_442_" class="st6" d="M43.7,25.4c0,0-0.5,1.9-2.1,5.6c-1.6,3.6-2.1,3.4-2,4.9c0.1,1.5,1.3,2.5,2.3,0.8
			c0,0,0.2-1-0.8-1.1"/>
		<path id="XMLID_441_" class="st6" d="M45.3,25.2c0,0-1.4,3.9-1.9,4.6c-0.5,0.7-1.5,4.1-1.5,4.4"/>
		<path id="XMLID_440_" class="st6" d="M39.8,34.5c0,0,2.3-1.2,3.1,0.4c0.9,1.5-0.4,3.3-0.8,3.7c-0.4,0.4-3.1,0.3-3.5-0.5"/>
		<path id="XMLID_439_" class="st6" d="M47,24.8c0,0-3.4,8.7-4,9.8"/>
		<path id="XMLID_438_" class="st6" d="M48.5,24.6c0,0-3.4,8.4-3.5,8.7c-0.2,0.4-0.9,2.4-0.4,3.1c0.5,0.7,1.2,1.1,2.5,0.5
			c0,0,0.9-1.2-0.3-1.7c-1.1-0.5-1.1,0.6-0.9,0.7"/>
		<path id="XMLID_437_" class="st6" d="M44.8,34c0,0,1.7-0.9,2.9,0.1c1.1,1.1,1,1.5,0.7,3.5c0,0-0.8,1.4-2.5,1.1
			c-1.7-0.4-2.6-2-2.6-2"/>
		<path id="XMLID_436_" class="st6" d="M50,24.3c0,0-0.5,2.9-1.2,4.2c-0.8,1.3-2.2,5-2.2,5"/>
		<path id="XMLID_435_" class="st6" d="M51.9,24.1c0,0-2.5,7.9-4.1,10"/>
		<path id="XMLID_434_" class="st6" d="M53.5,24c0,0-2.7,8.1-3.3,9c-0.6,0.9-0.7,3.3-0.5,3.8c0.2,0.5,0.5,1.9,2.3,1
			c0,0,1.4-1.1,0-2.1c0,0-0.6-0.2-0.7,0.1"/>
		<path id="XMLID_433_" class="st6" d="M51.3,34.1c0,0-1.6,0.5-1.8,1.6"/>
		<path id="XMLID_432_" class="st6" d="M48.4,36.9c0,0,0.3,2.4,2.5,2.7"/>
		<path id="XMLID_431_" class="st6" d="M49.6,39.1c0,0-1.8,4.6-1.8,4.8"/>
		<path id="XMLID_430_" class="st6" d="M48.1,37.9c0,0-0.5,4.7-2.2,6"/>
		<path id="XMLID_429_" class="st6" d="M46.8,38.7c0,0-1.1,2.1-1.1,2.6c0,0.5-0.3,2-2,2c-1.7,0-1.1-1.4-0.9-1.7
			c0.2-0.3,0.8-0.5,1.1,0.1"/>
		<path class="st6" d="M45.4,38.6c0,0-0.7,0.9-0.6,1.4c0.1,0.5,0.9,1.5,0.8,1.9 M43.3,39.5c0,0,0.9,0.5,1.4,0.3"/>
		<path id="XMLID_426_" class="st6" d="M44.4,38c0,0-0.9,0.5-1,1.2C43.3,39.9,42.2,40,42,40c-0.3,0-1,2.3-1,2.3"/>
		<line id="XMLID_425_" class="st6" x1="42" y1="38.7" x2="42" y2="40"/>
		<path id="XMLID_424_" class="st6" d="M41.3,38.7c0,0-2.2,4.7-4,4.8c-1.8,0.1-1.8-1.7-1.5-2.1c0.2-0.4,1.1-0.9,1.5-0.5
			c0.4,0.4,0.3,1.1,0.3,1.1"/>
		<line id="XMLID_423_" class="st6" x1="39.7" y1="38.6" x2="38.6" y2="40.1"/>
		<path id="XMLID_422_" class="st6" d="M37.6,39.2c0,0,1.8,1.3,1.6,3"/>
		<path id="XMLID_421_" class="st5" d="M75,26.3c-1.1-2-4.8-6.8-0.4-8c6.3-1.1,4.4,4.6,2.1,7.7l2.2,3.2l-2.1,3.2
			c0,0,2.3,3.9,2.3,5.6c0,1.7-1.5,3.4-3.6,3c-2-0.4-2.7-2.7-2.7-3.6c0-1,2-4.4,2-4.4l-2.1-3.4L75,26.3z"/>
		<path id="XMLID_420_" class="st6" d="M75.9,24.6c-1.6-1.1-3.2-4.9-0.1-4.9C78.9,19.7,77.4,23.5,75.9,24.6z"/>
		<path id="XMLID_419_" class="st6" d="M76.1,34.2c0,0-2.5,1.9-1.8,4.4c0,0,0.7,1.3,2,1c1.3-0.2,1.9-1.4,1.7-2.4
			C77.5,35.4,76.1,34.2,76.1,34.2z"/>
		<polygon id="XMLID_418_" class="st6" points="74.5,29.2 76,27 77.4,29.2 76,31.5 		"/>
		<polygon id="XMLID_417_" class="st5" points="63.2,45.6 62.6,46.5 40.2,46.5 40.2,45.6 		"/>
		<polygon id="XMLID_416_" class="st5" points="60.8,49.1 60.2,50 40.2,50 40.2,49.1 		"/>
		<path class="st5" d="M60.2,47.1h1.4c0,0.4-0.3,0.7-0.7,0.7C60.6,47.8,60.2,47.5,60.2,47.1L60.2,47.1z M61.5,48.1l-0.3,0.4h-1
			c0-0.4,0.3-0.7,0.7-0.7C61.2,47.8,61.4,48,61.5,48.1L61.5,48.1z M58.2,47.1h1.4c0,0.4-0.3,0.7-0.7,0.7
			C58.5,47.8,58.2,47.5,58.2,47.1L58.2,47.1z M58.2,48.5h1.4c0-0.4-0.3-0.7-0.7-0.7C58.5,47.8,58.2,48.2,58.2,48.5L58.2,48.5z
			 M56.2,47.1h1.4c0,0.4-0.3,0.7-0.7,0.7C56.5,47.8,56.2,47.5,56.2,47.1L56.2,47.1z M56.2,48.5h1.4c0-0.4-0.3-0.7-0.7-0.7
			C56.5,47.8,56.2,48.2,56.2,48.5L56.2,48.5z M54.2,47.1h1.4c0,0.4-0.3,0.7-0.7,0.7C54.5,47.8,54.2,47.5,54.2,47.1L54.2,47.1z
			 M54.2,48.5h1.4c0-0.4-0.3-0.7-0.7-0.7C54.5,47.8,54.2,48.2,54.2,48.5L54.2,48.5z M52.2,47.1h1.4c0,0.4-0.3,0.7-0.7,0.7
			C52.5,47.8,52.2,47.5,52.2,47.1L52.2,47.1z M52.2,48.5h1.4c0-0.4-0.3-0.7-0.7-0.7C52.5,47.8,52.2,48.2,52.2,48.5L52.2,48.5z
			 M50.2,47.1h1.4c0,0.4-0.3,0.7-0.7,0.7C50.5,47.8,50.2,47.5,50.2,47.1L50.2,47.1z M50.2,48.5h1.4c0-0.4-0.3-0.7-0.7-0.7
			C50.5,47.8,50.2,48.2,50.2,48.5L50.2,48.5z M48.1,47.1h1.4c0,0.4-0.3,0.7-0.7,0.7C48.5,47.8,48.2,47.5,48.1,47.1L48.1,47.1z
			 M48.1,48.5h1.4c0-0.4-0.3-0.7-0.7-0.7C48.5,47.8,48.2,48.2,48.1,48.5L48.1,48.5z M41.3,47.1h1.4c0,0.4-0.3,0.7-0.7,0.7
			C41.7,47.8,41.4,47.5,41.3,47.1L41.3,47.1z M41.3,48.5h1.4c0-0.4-0.3-0.7-0.7-0.7C41.7,47.8,41.4,48.2,41.3,48.5L41.3,48.5z
			 M43.6,47.1H45c0,0.4-0.3,0.7-0.7,0.7C43.9,47.8,43.6,47.5,43.6,47.1L43.6,47.1z M43.6,48.5H45c0-0.4-0.3-0.7-0.7-0.7
			C43.9,47.8,43.6,48.2,43.6,48.5L43.6,48.5z M45.9,47.1h1.4c0,0.4-0.3,0.7-0.7,0.7C46.2,47.8,45.9,47.5,45.9,47.1L45.9,47.1z
			 M45.9,48.5h1.4c0-0.4-0.3-0.7-0.7-0.7C46.2,47.8,45.9,48.2,45.9,48.5z"/>
		<path id="XMLID_373_" class="st4" d="M55.3,62.8C54.6,62,53.7,61,53,60.7l10.8-16.1l2.5,1.7L55.3,62.8z"/>
		<polygon id="XMLID_372_" class="st7" points="64.5,51.4 56.6,63.3 57.3,63.7 65.5,52.1 		"/>
		<path class="st7" d="M66.7,54.5c0.4,0,0.8,0.4,0.8,0.8c0,0.4-0.4,0.8-0.8,0.8c-0.4,0-0.8-0.4-0.8-0.8
			C65.9,54.9,66.3,54.5,66.7,54.5L66.7,54.5z M67.6,53.6c-0.4-0.3-0.8-0.5-1.3-0.5c-0.7,0-1.2,0.3-1.6,0.8l0,0
			c-0.3,0.4-0.4,0.8-0.4,1.3c0,0.7,0.4,1.4,0.9,1.8c0.3-0.4,0.4-0.8,0.4-1.3c0-0.6-0.3-1.2-0.7-1.6c0.3,0.2,0.7,0.3,1,0.3
			C66.7,54.4,67.2,54.1,67.6,53.6z"/>
		<path class="st7" d="M64.2,58.5c0.4,0,0.8,0.4,0.8,0.8c0,0.4-0.4,0.8-0.8,0.8c-0.4,0-0.8-0.4-0.8-0.8
			C63.4,58.8,63.8,58.5,64.2,58.5L64.2,58.5z M65.1,57.5c-0.4-0.3-0.8-0.5-1.3-0.5c-0.7,0-1.2,0.3-1.6,0.8c0,0,0,0,0,0
			c-0.3,0.4-0.4,0.8-0.4,1.3c0,0.7,0.4,1.4,0.9,1.8c0.3-0.4,0.4-0.8,0.4-1.3c0-0.6-0.3-1.2-0.7-1.6c0.3,0.2,0.7,0.3,1,0.3
			C64.2,58.3,64.8,58,65.1,57.5z"/>
		<path class="st7" d="M61.7,62.5c0.4,0,0.8,0.4,0.8,0.8c0,0.4-0.4,0.8-0.8,0.8c-0.4,0-0.8-0.4-0.8-0.8
			C60.9,62.8,61.2,62.5,61.7,62.5L61.7,62.5z M62.6,61.5c-0.4-0.3-0.8-0.5-1.3-0.5c-0.7,0-1.2,0.3-1.6,0.8h0
			c-0.3,0.4-0.4,0.8-0.4,1.3c0,0.7,0.4,1.4,0.9,1.8c0.3-0.4,0.4-0.8,0.4-1.3c0-0.6-0.3-1.2-0.7-1.6c0.3,0.2,0.7,0.3,1,0.3
			C61.6,62.3,62.2,62,62.6,61.5z"/>
		<path id="XMLID_364_" class="st5" d="M62.2,65.2l7.2-10.4c0,0-1.2,15.9,12.1,25.5v1.5c0,0-11.6-5.9-13.4-22.9l-4.6,6.9L62.2,65.2z
			"/>
		<path id="XMLID_363_" class="st5" d="M74,58.3h1.2c0,0,0.3,8.4,6.3,14.3V74C81.6,74,75.2,70.3,74,58.3z"/>
		<path id="XMLID_362_" class="st5" d="M78.5,60.8l-1.2-0.6c0,0,0.6,5.5,3.9,9.3v-1.7C81.2,67.9,78.4,62.8,78.5,60.8z"/>
		<ellipse id="XMLID_361_" class="st5" cx="71.8" cy="58.2" rx="1.1" ry="1.2"/>
		<ellipse id="XMLID_360_" class="st5" cx="72.2" cy="62.1" rx="1.1" ry="1.2"/>
		<path id="XMLID_359_" class="st5" d="M73.4,64.7c0.6,0,1.1,0.5,1.1,1.2c0,0.6-0.5,1.2-1.1,1.2c-0.6,0-1.1-0.5-1.1-1.2
			C72.2,65.2,72.7,64.7,73.4,64.7z"/>
		<ellipse id="XMLID_358_" class="st5" cx="74.8" cy="69.6" rx="1.1" ry="1.2"/>
		<path id="XMLID_357_" class="st5" d="M76.8,71.7c0.6,0,1.1,0.5,1.1,1.2c0,0.6-0.5,1.2-1.1,1.2c-0.6,0-1.1-0.5-1.1-1.2
			C75.7,72.3,76.2,71.7,76.8,71.7z"/>
		<path id="XMLID_356_" class="st5" d="M79.7,74.7c0.6,0,1.1,0.5,1.1,1.2c0,0.6-0.5,1.2-1.1,1.2c-0.6,0-1.1-0.5-1.1-1.2
			C78.6,75.2,79.1,74.7,79.7,74.7z"/>
		<path id="XMLID_355_" class="st4" d="M40.3,72c0,0-4-11.8-6.7-14.4c0,0,0.6-1.8,5-1c0,0,1.5,0.3,2.4,0c0.9-0.2,3.3,0.4,3.9,1.1
			c0.7,0.8,4-1,6,2.3c0,0,3.1-0.6,5.3,3.1c0,0,0.9,0.6,0.8,2.1l0,7.8c0,0,1.5,12.6,6.5,17.7c0,0,2,2.1,1.9,3.5
			c-0.1,1.4-6.4,0.9-7,0.8c-0.5-0.1-3.3,0.6-4.6-1.1c0,0-4.4,1.4-6.1-2.2c0,0-5-0.2-5.9-4.4C41.9,76,40.5,73.2,40.3,72z"/>
		<path id="XMLID_354_" class="st7" d="M77.6,102.9c-0.6-0.1-1.1-0.3-1.7-0.5c0.8-2.7,1.3-5.5,1.3-8.5c0-12.8-8.6-23.7-20.2-27.1
			l0-1.5c0-0.1,0-0.3,0-0.4c12.6,3.5,22,15.1,22,29C78.9,97,78.4,100,77.6,102.9z"/>
		<path id="XMLID_353_" class="st5" d="M71.2,99.8c-0.3-0.2-0.5-0.4-0.8-0.6c0.4-1.7,0.7-3.5,0.7-5.4c0-9.4-5.9-17.5-14.1-20.6
			c0-0.1,0-0.2,0-0.2l0-0.8C65.7,75.4,72,83.9,72,93.9C72,95.9,71.7,97.9,71.2,99.8z"/>
		<path id="XMLID_330_" class="st5" d="M67.1,96.3c-0.3-0.3-0.5-0.5-0.7-0.8c0.1-0.5,0.1-1.1,0.1-1.6c0-6.3-3.3-11.8-8.3-14.9
			c-0.1-0.4-0.2-0.7-0.3-1.1c5.6,3.1,9.4,9.1,9.4,16C67.2,94.7,67.2,95.5,67.1,96.3z"/>
		<path id="XMLID_329_" class="st5" d="M65.9,95c-0.3-0.4-0.6-0.6-0.7-0.8c0-0.1,0-0.2,0-0.3c0-5.4-2.6-10.1-6.6-13
			c-0.1-0.4-0.2-0.8-0.3-1.1c4.6,3,7.7,8.3,7.7,14.2C65.9,94.3,65.9,94.7,65.9,95z"/>
		<path id="XMLID_328_" class="st5" d="M60,84.8c-0.2-0.5-0.4-1-0.6-1.5c1.9,1.8,3.3,4.2,4,6.8c0,0-0.1-0.1-0.1-0.1
			c-0.3-0.3-0.6-0.6-0.9-1C61.9,87.5,61,86.1,60,84.8z"/>
		<path class="st5" d="M59.8,78.6c-0.5-0.4-1-0.7-1.6-1c0.2-0.3,0.5-0.5,0.8-0.5c0.5,0,0.9,0.4,0.9,0.9C60,78.2,59.9,78.4,59.8,78.6
			L59.8,78.6z M61.8,80.2c-0.5-0.4-0.9-0.8-1.4-1.2c0.2-0.2,0.4-0.4,0.7-0.4c0.5,0,0.9,0.4,0.9,0.9C62,79.8,62,80,61.8,80.2
			L61.8,80.2z M63.5,82c-0.4-0.5-0.8-0.9-1.2-1.4c0.2-0.2,0.4-0.3,0.6-0.3c0.5,0,0.9,0.4,0.9,0.9C63.9,81.6,63.7,81.9,63.5,82
			L63.5,82z M65,84.1c-0.3-0.5-0.7-1-1-1.5c0.2-0.1,0.3-0.2,0.5-0.2c0.5,0,0.9,0.4,0.9,0.9C65.4,83.7,65.3,84,65,84.1L65,84.1z
			 M66.2,86.4c-0.2-0.6-0.5-1.1-0.8-1.7c0.1-0.1,0.3-0.1,0.4-0.1c0.5,0,0.9,0.4,0.9,0.9C66.7,85.9,66.5,86.3,66.2,86.4L66.2,86.4z
			 M67,88.8c-0.2-0.6-0.4-1.2-0.6-1.8c0.1,0,0.2-0.1,0.3-0.1c0.5,0,0.9,0.4,0.9,0.9C67.7,88.3,67.4,88.7,67,88.8L67,88.8z
			 M67.6,91.3c-0.1-0.6-0.2-1.2-0.3-1.8c0.1,0,0.1,0,0.2,0c0.5,0,0.9,0.4,0.9,0.9C68.3,90.9,68,91.2,67.6,91.3L67.6,91.3z
			 M67.7,93.9c0-0.6,0-1.3-0.1-1.9c0,0,0,0,0.1,0c0.5,0,0.9,0.4,0.9,0.9C68.6,93.5,68.2,93.9,67.7,93.9L67.7,93.9z M67.6,96.4
			c0.1-0.6,0.1-1.2,0.2-1.9c0.5,0,0.9,0.4,0.9,0.9C68.6,96,68.2,96.4,67.6,96.4C67.6,96.4,67.6,96.4,67.6,96.4z"/>
		<path class="st5" d="M59.1,74.6c-0.6-0.3-1.3-0.6-1.9-0.9c-0.1,0.1-0.1,0.3-0.1,0.4c0,0.6,0.5,1.1,1.1,1.1
			C58.5,75.2,58.9,75,59.1,74.6L59.1,74.6z M61.6,76.2c-0.6-0.4-1.2-0.8-1.8-1.1c-0.1,0.2-0.2,0.4-0.2,0.6c0,0.6,0.5,1.1,1.1,1.1
			C61.1,76.6,61.4,76.5,61.6,76.2L61.6,76.2z M63.9,78.1c-0.5-0.5-1-0.9-1.6-1.4c-0.2,0.2-0.2,0.4-0.2,0.7c0,0.6,0.5,1.1,1.1,1.1
			C63.5,78.4,63.7,78.3,63.9,78.1L63.9,78.1z M66,80.3c-0.4-0.6-0.9-1.1-1.4-1.6c-0.2,0.2-0.3,0.5-0.3,0.8c0,0.6,0.5,1.1,1.1,1.1
			C65.5,80.6,65.8,80.5,66,80.3L66,80.3z M67.7,82.8c-0.4-0.6-0.8-1.2-1.2-1.8c-0.3,0.2-0.5,0.5-0.5,0.9c0,0.6,0.5,1.1,1.1,1.1
			C67.3,82.9,67.5,82.9,67.7,82.8L67.7,82.8z M69,85.5c-0.3-0.7-0.6-1.3-0.9-1.9c-0.3,0.2-0.6,0.5-0.6,0.9c0,0.6,0.5,1.1,1.1,1.1
			C68.7,85.6,68.9,85.5,69,85.5L69,85.5z M70,88.3c-0.2-0.7-0.4-1.4-0.6-2c-0.4,0.1-0.7,0.5-0.7,1c0,0.6,0.5,1.1,1.1,1.1
			C69.8,88.4,69.9,88.4,70,88.3L70,88.3z M70.6,91.3c-0.1-0.7-0.2-1.4-0.4-2.1c-0.5,0.1-0.9,0.5-0.9,1c0,0.6,0.5,1.1,1.1,1.1
			C70.5,91.3,70.5,91.3,70.6,91.3L70.6,91.3z M70.6,92.2c0,0.6,0.1,1.1,0.1,1.7c0,0.1,0,0.3,0,0.4c0,0,0,0,0,0
			c-0.6,0-1.1-0.5-1.1-1.1C69.6,92.7,70.1,92.2,70.6,92.2L70.6,92.2z M70.4,97.3c0.1-0.7,0.2-1.4,0.2-2.1c0,0-0.1,0-0.1,0
			c-0.6,0-1.1,0.5-1.1,1.1C69.5,96.8,69.9,97.3,70.4,97.3z"/>
		<path id="XMLID_308_" class="st8" d="M57.5,68.7l0.7,2.7c0,0,0.1,1,1.3,0.5s2.9-1.4,2.9-1.4s0.9-0.5-0.1-1.1l-4-1.6
			C58.3,67.8,57.1,67.3,57.5,68.7z"/>
		<path id="XMLID_307_" class="st8" d="M66.1,73.2L65.7,76c0,0-0.3,0.9,1,1c1.3,0.1,3.2-0.1,3.2-0.1s1-0.1,0.4-1.1l-3-3.1
			C67.3,72.7,66.3,71.8,66.1,73.2z"/>
		<path id="XMLID_306_" class="st8" d="M72,80.5l-1.2,2.6c0,0-0.5,0.8,0.7,1.2c1.2,0.4,3.1,0.8,3.1,0.8s1,0.2,0.7-0.9l-2-3.9
			C73.2,80.3,72.6,79.2,72,80.5z"/>
		<path id="XMLID_305_" class="st8" d="M75.1,89.8L73,91.7c0,0-0.8,0.5,0.1,1.4c0.9,0.9,2.5,2,2.5,2s0.9,0.6,1-0.6l-0.3-4.3
			C76.3,90.1,76.2,88.8,75.1,89.8z"/>
		<path id="XMLID_304_" class="st8" d="M61.1,72.5l2.7-1.1c0,0,0.7-0.3,0.9,0.7c0.2,1.1,0.1,3,0.1,3s0,0.9-0.9,0.4l-3.2-2.1
			C60.8,73.5,60,72.8,61.1,72.5z"/>
		<path id="XMLID_303_" class="st8" d="M68.1,77.8l2.9,0.1c0,0,0.8,0,0.6,1c-0.2,1.1-1,2.8-1,2.8s-0.3,0.8-1,0.1l-2.1-3.2
			C67.4,78.6,66.9,77.6,68.1,77.8z"/>
		<path id="XMLID_302_" class="st8" d="M73.7,95l2.2,2.3c0,0,0.7,0.6-0.4,1.3c-1,0.6-3,1.4-3,1.4s-0.9,0.4-0.8-0.7l0.8-4.2
			C72.5,95.1,72.9,94,73.7,95z"/>
		<path id="XMLID_300_" class="st8" d="M72.4,85.3l2.9,1.2c0,0,0.8,0.3,0.2,1.3c-0.7,1-2.1,2.5-2.1,2.5s-0.7,0.7-1-0.3l-1-4.1
			C71.4,85.9,71.3,84.7,72.4,85.3z"/>
		<polygon id="XMLID_299_" class="st8" points="75.8,100.1 73.4,101.1 75.1,102 		"/>
		<path id="XMLID_298_" class="st7" d="M37.9,56.5c-0.6-0.1-1-0.1-1.5-0.1V45h1.5V56.5z"/>
		<polygon id="XMLID_297_" class="st7" points="67.4,46.9 65.2,50.4 81.1,62 81.1,56.6 		"/>
		<path class="st7" d="M35.7,45v6.3c-1.4-0.3-2.5-1.6-2.5-3.1C33.2,46.6,34.3,45.3,35.7,45L35.7,45z M34.7,47.3l-0.3,0.4L34,48.1
			l0.3,0.4l0.3,0.4l0.3-0.4l0.3-0.4L35,47.7L34.7,47.3z"/>
		<path id="XMLID_294_" class="st7" d="M31.7,44.9C31.7,44.9,31.7,44.9,31.7,44.9l1.1-0.4l-1.1,1.4L31.7,44.9z"/>
		<g>
			<path class="st2" d="M68.6,47.1c0,0,1.9-5.2,5.8-5.1c0,0,0.6,1.4,1.4,1.7c0.8,0.3-2.8,0.4-2.7,1.4c0.2,1-0.3,2.8,0.1,2.7
				c0.4,0,0.1-1.9,0.6-1.7c0.5,0.3,0.1,2,0.5,2.5c0.4,0.6,0.5,2.2,0.4,2.5c-0.1,0.4,0.9,1,1.6,0.8c0.6-0.3,2.2-0.9,2.2-1.8
				c0-0.9-0.1-0.8-0.1-0.8s0.9-0.7,0.4-2.2c0,0,0.7-1.1-0.2-2.2c0,0,0.2-1.6-1-2c0,0,0.5-1.3-0.9-1.7c0,0-1.2-1-5.2,1.1
				c0,0-2.6,1.7-3.2,4.2L68.6,47.1L68.6,47.1z M75,42.3c-0.3-0.4,1.1-0.7,1.7-0.3c0.6,0.4-0.2,0.8-0.2,0.8
				C75.1,43.1,75,42.3,75,42.3L75,42.3z M75.6,45.2c0,0-0.5-0.7-0.2-0.8c0.3-0.1,1.6-0.8,1.7-0.9c0-0.1,0.8,0,0.9,0.5
				c0.1,0.6-0.1,0.8-0.2,0.9C77.7,45,76.2,46,76,45.7C75.8,45.5,75.6,45.2,75.6,45.2L75.6,45.2z M75.7,46.5c0,0,1.9-0.8,2-1.1
				c0.1-0.3,1.1,0.5,0.9,0.9C78.5,46.7,77.2,48,76,48C75.6,47.3,75.7,46.6,75.7,46.5L75.7,46.5z M76,49c0,0-0.2-0.7,0.4-0.9
				c0.6-0.2,1.8-0.7,1.9-0.1c0,0.6-0.6,1.4-1.1,1.5C76.8,49.6,76,49.8,76,49L76,49z M76.1,51.1c0,0-0.4-1.1,0.6-1.3
				c1-0.2,1.4,0.1,1.3,0.4C77.9,50.5,76.4,51.8,76.1,51.1L76.1,51.1z M74.6,44.8c0.4,0,0.7,0.3,0.7,0.7c0,0.4-0.3,0.7-0.7,0.7
				c-0.4,0-0.7-0.3-0.7-0.7C73.9,45.1,74.2,44.8,74.6,44.8L74.6,44.8z M74.8,46.8c0.3,0,0.6,0.3,0.6,0.6c0,0.3-0.3,0.6-0.6,0.6
				c-0.3,0-0.6-0.3-0.6-0.6C74.2,47,74.5,46.8,74.8,46.8L74.8,46.8z M75.2,48.7c0.3,0,0.5,0.3,0.5,0.6c0,0.3-0.2,0.6-0.5,0.6
				c-0.3,0-0.5-0.3-0.5-0.6C74.7,49,74.9,48.7,75.2,48.7L75.2,48.7z M75.4,50.2c0.2,0,0.4,0.2,0.4,0.5c0,0.3-0.2,0.5-0.4,0.5
				c-0.2,0-0.4-0.2-0.4-0.5C74.9,50.4,75.1,50.2,75.4,50.2z"/>
		</g>
		<path id="XMLID_283_" class="st8" d="M40.2,56.8c0.3,0,0.6,0,0.8-0.1c0.9-0.2,3.3,0.4,3.9,1.1c0.7,0.8,4-1,6,2.3
			c0,0,1.1-0.2,2.5,0.4v0c0,0,0,0-0.1,0L60.2,50H40.2V56.8z"/>
		<path id="XMLID_282_" class="st8" d="M23.9,49.3c1.1,0.5,2.3,1.3,3.5,2.2V47C26.1,47.8,24.8,48.6,23.9,49.3z"/>
		<path id="XMLID_281_" class="st4" d="M27.4,51.5c0.9,0.7,1.8,1.4,2.6,2.1v-8c-0.8,0.4-1.7,0.9-2.6,1.4V51.5z"/>
		<path id="XMLID_280_" class="st7" d="M30,53.6c0.4,0.3,0.7,0.7,1.1,1h0.2V45L30,45.6V53.6z"/>
		<path class="st7" d="M31.8,55.2c0.5,0.5,1,0.9,1.3,1.3c1-0.7,1.6-1.8,1.6-3.1c0-1.8-1.3-3.3-3-3.7V55.2L31.8,55.2z M33.1,54.1
			l-0.3-0.3l-0.3-0.3l0.3-0.3l0.3-0.3l0.3,0.3l0.3,0.3l-0.3,0.3L33.1,54.1z"/>
		<polygon id="XMLID_254_" class="st7" points="48.4,53.4 47.9,52.1 49.2,51 50.1,52 49.6,53.4 51.2,53.1 52.1,54 51.3,55 
			49.9,54.6 50.1,55.9 49.1,56.9 48,56 48.3,54.4 46.9,54.8 45.9,53.8 46.8,52.8 		"/>
		<ellipse id="XMLID_253_" class="st4" cx="59.5" cy="69.9" rx="0.6" ry="0.6"/>
		<path id="XMLID_252_" class="st4" d="M67.7,74.6c0.3,0.1,0.4,0.5,0.3,0.8c-0.1,0.3-0.5,0.4-0.8,0.3c-0.3-0.1-0.4-0.5-0.3-0.8
			C67.1,74.6,67.4,74.4,67.7,74.6z"/>
		<path id="XMLID_251_" class="st4" d="M73.1,82.3c0.2,0.2,0.3,0.6,0.1,0.9c-0.2,0.3-0.6,0.3-0.8,0.1c-0.3-0.2-0.3-0.6-0.1-0.9
			C72.5,82.1,72.9,82.1,73.1,82.3z"/>
		<path id="XMLID_250_" class="st4" d="M75.4,91.9c0.1,0.3,0,0.7-0.3,0.8c-0.3,0.1-0.7,0-0.8-0.3c-0.1-0.3,0-0.7,0.3-0.8
			C74.9,91.5,75.3,91.6,75.4,91.9z"/>
		<path id="XMLID_249_" class="st4" d="M62.7,73.4c0.1,0.2,0.5,0.3,0.7,0.2c0.2-0.1,0.3-0.5,0.2-0.7c-0.1-0.2-0.5-0.3-0.7-0.2
			C62.7,72.8,62.6,73.1,62.7,73.4z"/>
		
			<ellipse id="XMLID_247_" transform="matrix(-0.9899 0.142 -0.142 -0.9899 150.0224 147.6248)" class="st4" cx="69.7" cy="79.2" rx="0.5" ry="0.5"/>
		<path id="XMLID_246_" class="st4" d="M73.5,97.1c-0.2,0.3-0.1,0.6,0.1,0.8c0.3,0.2,0.6,0.1,0.8-0.1c0.2-0.3,0.1-0.6-0.1-0.8
			C74,96.8,73.7,96.9,73.5,97.1z"/>
		
			<ellipse id="XMLID_245_" transform="matrix(-0.9764 -0.2161 0.2161 -0.9764 126.6232 188.5975)" class="st4" cx="73.6" cy="87.4" rx="0.6" ry="0.6"/>
		<polygon id="XMLID_244_" class="st5" points="44.8,74 45.6,75.1 46.4,75.9 45.6,76.8 44.8,77.8 44.2,76.8 43.3,75.9 44.1,75 		"/>
		<polygon id="XMLID_243_" class="st5" points="53.7,74 54.4,75.1 55.3,75.9 54.4,76.8 53.7,77.8 53,76.8 52.1,75.9 53,75 		"/>
		<rect id="XMLID_241_" x="47.4" y="73.9" class="st5" width="3.8" height="3.8"/>
		<path class="st8" d="M39,68.6c0.1,0.3,0.2,0.5,0.3,0.7c0.8,0.8,1.3,1.5,1.3,1.5l0-0.1l-1.8-8.3c0,0-0.6-2.7-3.1-1.8
			c-0.1,0-0.1,0-0.2,0.1c0.2,0.3,0.3,0.7,0.5,1c0.6-0.2,1.3,0,1.7,0.6c0.4,0.6,0.1,1.5-0.5,1.8c0,0,0,0,0,0c0.2,0.4,0.3,0.8,0.5,1.2
			c0,0,0,0,0.1,0c0.4-0.2,0.9-0.1,1.1,0.3c0.2,0.4,0.1,0.9-0.3,1.1c-0.1,0-0.2,0.1-0.2,0.1c0.2,0.5,0.4,1.1,0.6,1.6
			c0-0.2,0.1-0.3,0.2-0.4c0.2-0.1,0.5,0,0.6,0.2c0.1,0.2,0,0.5-0.2,0.6C39.4,68.7,39.1,68.7,39,68.6L39,68.6z M41.3,71.8
			c0,0-1.5-7-1.8-8.3c-0.3-1.3-0.1-3.5,2.6-3c2.6,0.4,1.8,3.1,1.8,3.1L41.3,71.8L41.3,71.8L41.3,71.8z M41.7,61.5
			c0.7,0,1.3,0.6,1.3,1.4c0,0.7-0.6,1.4-1.3,1.4c-0.7,0-1.3-0.6-1.3-1.4C40.4,62.1,41,61.5,41.7,61.5L41.7,61.5z M41.6,65.5
			c-0.4,0-0.8,0.4-0.8,0.8c0,0.4,0.4,0.8,0.8,0.8c0.4,0,0.8-0.4,0.8-0.8C42.4,65.9,42,65.5,41.6,65.5L41.6,65.5z M41.5,68.5
			c-0.3,0-0.5,0.2-0.5,0.5c0,0.3,0.2,0.5,0.5,0.5c0.3,0,0.5-0.2,0.5-0.5C41.9,68.7,41.7,68.5,41.5,68.5L41.5,68.5z M42.9,71.8l0.1,0
			l8.9-3.2c0,0,2.9-1.2,1.9-3.4c-1-2.2-3.5-1.4-4.5-0.3C48.3,66.1,42.9,71.8,42.9,71.8L42.9,71.8z M52.9,65.3
			c0.5,0.7,0.3,1.6-0.4,2.1c-0.7,0.5-1.6,0.3-2.1-0.4c-0.5-0.7-0.3-1.6,0.4-2.1C51.5,64.5,52.4,64.7,52.9,65.3L52.9,65.3z M49,67.9
			c0.3,0.4,0.2,1-0.2,1.2c-0.4,0.3-0.9,0.2-1.2-0.2c-0.3-0.4-0.2-1,0.2-1.2C48.2,67.4,48.7,67.5,49,67.9L49,67.9z M46,69.8
			c0.2,0.2,0.1,0.6-0.1,0.7c-0.2,0.2-0.5,0.1-0.7-0.1c-0.2-0.2-0.1-0.6,0.1-0.7C45.5,69.5,45.8,69.6,46,69.8L46,69.8z M41.8,71.7
			l0.1,0l6.7-6.3c0,0,2.2-2.1-0.1-3.9c-2.2-1.9-3.6,0-4,1.5C44.1,64.3,41.8,71.7,41.8,71.7L41.8,71.7z M47.7,62.2
			c0.7,0.4,0.9,1.3,0.5,2c-0.4,0.7-1.3,0.9-2,0.5c-0.7-0.4-0.9-1.3-0.5-2C46.1,62.1,47,61.8,47.7,62.2L47.7,62.2z M45.4,65.9
			c-0.4-0.2-0.9-0.1-1.2,0.3c-0.2,0.4-0.1,0.9,0.3,1.2c0.4,0.2,0.9,0.1,1.2-0.3C46,66.7,45.8,66.1,45.4,65.9L45.4,65.9z M43.7,68.7
			c-0.2-0.1-0.5-0.1-0.7,0.2c-0.1,0.2-0.1,0.5,0.2,0.7c0.2,0.1,0.5,0.1,0.7-0.2C44,69.1,43.9,68.8,43.7,68.7z"/>
		<path class="st8" d="M58.9,82.7c-0.1-0.4-0.3-0.7-0.4-1.1c-0.5-0.6-0.8-1-0.8-1l0,0.1l1.8,8.3c0,0,0.6,2.7,3.1,1.8
			c0.3-0.1,0.6-0.3,0.8-0.4c-0.2-0.2-0.3-0.4-0.3-0.4c-0.2-0.2-0.3-0.3-0.4-0.5c-0.1,0-0.1,0.1-0.2,0.1c-0.6,0.4-1.5,0.1-1.8-0.5
			c-0.4-0.6-0.2-1.4,0.4-1.8c-0.2-0.4-0.4-0.7-0.6-1.1c-0.4,0.1-0.7,0-0.9-0.4c-0.2-0.4-0.1-0.8,0.3-1.1c-0.2-0.4-0.4-0.9-0.5-1.3
			c0,0,0,0,0,0c-0.2,0.1-0.5,0-0.6-0.2c-0.1-0.2,0-0.5,0.2-0.6C58.8,82.7,58.8,82.7,58.9,82.7L58.9,82.7z M56.9,79.6
			c0,0,1.5,7,1.8,8.3c0.3,1.3,0.1,3.5-2.6,3c-2.6-0.4-1.8-3.1-1.8-3.1L56.9,79.6L56.9,79.6L56.9,79.6z M56.5,89.9
			c-0.7,0-1.3-0.6-1.3-1.4s0.6-1.4,1.3-1.4c0.7,0,1.3,0.6,1.3,1.4S57.3,89.9,56.5,89.9L56.5,89.9z M56.7,85.9c0.4,0,0.8-0.4,0.8-0.8
			c0-0.4-0.4-0.8-0.8-0.8c-0.4,0-0.8,0.4-0.8,0.8C55.9,85.5,56.2,85.9,56.7,85.9L56.7,85.9z M56.8,82.9c0.3,0,0.5-0.2,0.5-0.5
			c0-0.3-0.2-0.5-0.5-0.5c-0.3,0-0.5,0.2-0.5,0.5C56.3,82.7,56.5,82.9,56.8,82.9L56.8,82.9z M55.3,79.6l-0.1,0l-8.9,3.2
			c0,0-2.9,1.2-1.9,3.4c1,2.2,3.5,1.4,4.5,0.3C50,85.3,55.3,79.6,55.3,79.6L55.3,79.6z M45.4,86.1c-0.5-0.7-0.3-1.6,0.4-2.1
			c0.7-0.5,1.6-0.3,2.1,0.4c0.5,0.7,0.3,1.6-0.4,2.1C46.8,86.9,45.8,86.8,45.4,86.1L45.4,86.1z M49.2,83.5c-0.3-0.4-0.2-1,0.2-1.2
			c0.4-0.3,0.9-0.2,1.2,0.2c0.3,0.4,0.2,1-0.2,1.2C50.1,84,49.5,83.9,49.2,83.5L49.2,83.5z M52.3,81.6c-0.2-0.2-0.1-0.6,0.1-0.7
			c0.2-0.2,0.5-0.1,0.7,0.1c0.2,0.2,0.1,0.6-0.1,0.7C52.7,81.9,52.4,81.8,52.3,81.6L52.3,81.6z M56.4,79.7l-0.1,0L49.6,86
			c0,0-2.2,2.1,0.1,3.9c2.2,1.9,3.6,0,4-1.5C54.1,87.1,56.4,79.7,56.4,79.7L56.4,79.7z M50.6,89.2c-0.7-0.4-0.9-1.3-0.5-2
			c0.4-0.7,1.3-0.9,2-0.5c0.7,0.4,0.9,1.3,0.5,2C52.2,89.3,51.3,89.6,50.6,89.2L50.6,89.2z M52.8,85.5c0.4,0.2,0.9,0.1,1.2-0.3
			c0.2-0.4,0.1-0.9-0.3-1.2c-0.4-0.2-0.9-0.1-1.2,0.3C52.3,84.7,52.4,85.3,52.8,85.5L52.8,85.5z M54.5,82.7c0.2,0.1,0.5,0.1,0.7-0.2
			c0.1-0.2,0.1-0.5-0.2-0.7c-0.2-0.1-0.5-0.1-0.7,0.2C54.2,82.3,54.3,82.6,54.5,82.7z"/>
		<path id="XMLID_168_" class="st2" d="M25.4,135.6h37l-5.8-10c0,0-15.7,3.9-24.4,1L25.4,135.6z"/>
		<path id="XMLID_167_" class="st8" d="M27.4,135.6h33.8l-5.2-8.4c0,0-13.3,3.2-23.6,0.9L27.4,135.6z"/>
		<path id="XMLID_166_" class="st2" d="M57.3,135.6h1.1l-3.4-6c0,0-0.5,3.2-4.4,0.7h-0.3l0.8,5.2h0.9l-0.6-3.4
			c2,0.6,3.7-0.7,3.7-0.7L57.3,135.6z"/>
		<path id="XMLID_165_" class="st2" d="M48.4,135.6h0.8l-1.1-5.1l-0.6,0.2c0,0-1.8,3-5.5,0.4l-0.9,0l-0.9,4.5h0.9l0.7-3.3
			c3.5,2,5.9-0.6,5.9-0.6L48.4,135.6z"/>
		<path id="XMLID_164_" class="st2" d="M37.2,135.6h1l0.5-4.7l-0.5-0.2c0,0-1.5,2.2-3.5,0.5c0,0-0.5-0.5-0.8-1l-0.6,0l-3.1,5.4h1.3
			l1.8-3.9c0,0,2.2,1.9,4.3,0.6L37.2,135.6z"/>
		<path class="st2" d="M36.1,131c-0.4,0-0.6-0.3-0.6-0.7c0-0.4,0.3-0.7,0.6-0.7c0.4,0,0.6,0.3,0.6,0.7C36.8,130.7,36.5,131,36.1,131
			L36.1,131z M44.6,131.2c-0.4,0-0.6-0.3-0.6-0.7c0-0.4,0.3-0.7,0.6-0.7c0.4,0,0.6,0.3,0.6,0.7C45.2,130.9,44.9,131.2,44.6,131.2
			L44.6,131.2z M53,130.4c-0.4,0-0.6-0.3-0.6-0.7c0-0.4,0.3-0.7,0.6-0.7c0.4,0,0.6,0.3,0.6,0.7C53.6,130.1,53.3,130.4,53,130.4z"/>
		<path id="XMLID_160_" class="st2" d="M73,16h-37l5.8,10c0,0,15.7-3.9,24.4-1L73,16z"/>
		<path id="XMLID_159_" class="st8" d="M71,16H37.2l5.2,8.4c0,0,13.3-3.2,23.6-0.9L71,16z"/>
		<path id="XMLID_158_" class="st2" d="M41.1,16H40l3.4,6c0,0,0.5-3.2,4.4-0.7h0.2L47.2,16h-0.9l0.6,3.4c-2-0.6-3.7,0.7-3.7,0.7
			L41.1,16z"/>
		<path id="XMLID_157_" class="st2" d="M50,16h-0.8l1.1,5.1L51,21c0,0,1.8-3,5.5-0.4l0.9,0l0.9-4.5h-0.9l-0.7,3.3
			c-3.5-2-5.9,0.6-5.9,0.6L50,16z"/>
		<path id="XMLID_156_" class="st2" d="M61.2,16h-1l-0.5,4.7l0.5,0.2c0,0,1.5-2.2,3.5-0.5c0,0,0.5,0.5,0.8,1l0.6,0L68,16h-1.3L65,20
			c0,0-2.2-1.9-4.3-0.6L61.2,16z"/>
		<path class="st2" d="M62.3,20.6c0.4,0,0.6,0.3,0.6,0.7c0,0.4-0.3,0.7-0.6,0.7s-0.6-0.3-0.6-0.7C61.6,20.9,61.9,20.6,62.3,20.6
			L62.3,20.6z M53.8,20.4c0.4,0,0.6,0.3,0.6,0.7c0,0.4-0.3,0.7-0.6,0.7s-0.6-0.3-0.6-0.7C53.2,20.7,53.5,20.4,53.8,20.4L53.8,20.4z
			 M45.4,21.2c0.4,0,0.6,0.3,0.6,0.7c0,0.4-0.3,0.7-0.6,0.7c-0.4,0-0.6-0.3-0.6-0.7C44.8,21.5,45.1,21.2,45.4,21.2z"/>
		<path id="XMLID_19_" class="st1" d="M9.2,7.1v2h2.5c0,0,0,10.8,0,11.1c0,0.3-0.1,0.9-0.4,1.3c-0.2,0.3-0.6,0.6-1.1,0.7
			c-0.6,0.1-2,0.2-2.4-1.3c-0.1-0.5-0.1-1.6-0.1-1.6l-2.1,0c0,0,0,1.6,0.1,2.2c0.2,1,1.4,2.7,4.1,2.7c0.9,0,3.4-0.4,3.8-3.3
			C13.8,19.7,13.7,9,13.7,9h2.1v-2H9.2z"/>
		<path id="XMLID_18_" class="st1" d="M90.2,144.5v-2h-2.5c0,0,0-10.8,0-11.1c0-0.3,0.1-0.9,0.4-1.3c0.2-0.3,0.6-0.6,1.1-0.7
			c0.6-0.1,2-0.2,2.4,1.3c0.1,0.5,0.1,1.6,0.1,1.6h2.1c0,0,0-1.6-0.1-2.2c-0.2-1-1.4-2.7-4.1-2.7c-0.9,0-3.4,0.4-3.8,3.3
			c-0.1,1.2-0.1,11.8-0.1,11.8h-2.1v2H90.2z"/>
		<path class="st9" d="M16.7,136.5h65.6V15.1H16.1v121.4H16.7L16.7,136.5z M17.2,135.5L17.2,135.5c0-1,0-118.4,0-119.4
			c1,0,63.1,0,64.1,0c0,1,0,118.4,0,119.4C80.2,135.5,18.2,135.5,17.2,135.5z"/>
	</g>
</g>
</svg>
