<?xml version="1.0" encoding="utf-8"?>
<!-- Generator: Adobe Illustrator 19.0.0, SVG Export Plug-In . SVG Version: 6.00 Build 0)  -->
<svg version="1.1" xmlns="http://www.w3.org/2000/svg" xmlns:xlink="http://www.w3.org/1999/xlink" x="0px" y="0px"
	 viewBox="0 0 99.4 151.6" style="enable-background:new 0 0 99.4 151.6;" xml:space="preserve">
<style type="text/css">
	.st0{fill:#FFFFFF;stroke:#000000;stroke-width:0.25;stroke-miterlimit:2.6131;}
	.st1{fill-rule:evenodd;clip-rule:evenodd;fill:#231F20;}
	.st2{fill:#231F20;}
</style>
<g id="Calque_2">
	<path id="XMLID_15_" class="st0" d="M99.3,5.3v140.9c0,2.9-2.3,5.2-5.2,5.2H5.3c-2.9,0-5.2-2.3-5.2-5.2V5.3c0-2.9,2.3-5.2,5.2-5.2
		h88.7C96.9,0.1,99.3,2.5,99.3,5.3z"/>
</g>
<g id="Calque_1">
	<g id="XMLID_25_">
		<g id="XMLID_60_">
			<g id="XMLID_65_">
				<g id="XMLID_69_">
					<path id="XMLID_71_" class="st1" d="M27.6,16c0,0-1.9,3.9-5,8.1c-3.4,4.5-5.2,7-5.2,10.3c0,2.8,2.2,4.7,4.3,4.7
						c2.1,0,3.5-0.8,4.2-3.5c0.3-1.1,0.9-0.9,0.8,0.3c-0.2,1.4-0.2,4.6-2.5,7.4H31c-2.3-2.8-2.3-6-2.5-7.4c-0.2-1.2,0.5-1.4,0.8-0.3
						c0.7,2.8,2.1,3.5,4.2,3.5c2.1,0,4.3-1.8,4.3-4.7c0-3.3-1.8-5.9-5.2-10.3C29.5,19.9,27.6,16,27.6,16z"/>
					<path id="XMLID_70_" class="st1" d="M71.8,16c0,0-1.9,3.9-5,8.1c-3.4,4.5-5.2,7-5.2,10.3c0,2.8,2.2,4.7,4.3,4.7
						c2.1,0,3.5-0.8,4.2-3.5c0.3-1.1,0.9-0.9,0.8,0.3c-0.2,1.4-0.2,4.6-2.5,7.4h6.9c-2.3-2.8-2.3-6-2.5-7.4
						c-0.2-1.2,0.5-1.4,0.8-0.3c0.7,2.8,2.1,3.5,4.2,3.5c2.1,0,4.3-1.8,4.3-4.7c0-3.3-1.8-5.9-5.2-10.3C73.7,19.9,71.8,16,71.8,16z"
						/>
				</g>
				<g id="XMLID_66_">
					<path id="XMLID_68_" class="st1" d="M71.8,135.6c0,0,1.9-3.9,5-8.1c3.4-4.5,5.2-7,5.2-10.3c0-2.8-2.2-4.7-4.3-4.7
						c-2.1,0-3.5,0.8-4.2,3.5c-0.3,1.1-0.9,0.9-0.8-0.3c0.2-1.4,0.2-4.6,2.5-7.4h-6.9c2.3,2.8,2.3,6,2.5,7.4
						c0.2,1.2-0.5,1.4-0.8,0.3c-0.7-2.8-2.1-3.5-4.2-3.5c-2.1,0-4.3,1.8-4.3,4.7c0,3.3,1.8,5.9,5.2,10.3
						C69.9,131.7,71.8,135.6,71.8,135.6z"/>
					<path id="XMLID_67_" class="st1" d="M27.6,135.6c0,0,1.9-3.9,5-8.1c3.4-4.5,5.2-7,5.2-10.3c0-2.8-2.2-4.7-4.3-4.7
						c-2.1,0-3.5,0.8-4.2,3.5c-0.3,1.1-0.9,0.9-0.8-0.3c0.2-1.4,0.2-4.6,2.5-7.4h-6.9c2.3,2.8,2.3,6,2.5,7.4
						c0.2,1.2-0.5,1.4-0.8,0.3c-0.7-2.8-2.1-3.5-4.2-3.5c-2.1,0-4.3,1.8-4.3,4.7c0,3.3,1.8,5.9,5.2,10.3
						C25.8,131.7,27.6,135.6,27.6,135.6z"/>
				</g>
			</g>
		</g>
		<g id="XMLID_40_">
			<g id="XMLID_42_">
				<g id="XMLID_48_">
					<g id="XMLID_51_">
						<g id="XMLID_56_">
							<path id="XMLID_57_" class="st1" d="M7.8,18.2h4v-6.3L7.8,18.2L7.8,18.2z M12.3,7.1L12.3,7.1h1.4v11.1h1.8v1.9h-1.8v2.6h1.1
								v1.8h-4.4v-1.8h1.3v-2.6H5.3v-1.6L12.3,7.1z"/>
						</g>
						<g id="XMLID_52_">
							<path id="XMLID_53_" class="st1" d="M91.6,133.4h-4v6.3L91.6,133.4L91.6,133.4z M87.1,144.5L87.1,144.5h-1.5v-11.1h-1.8v-1.9
								h1.8v-2.6h-1.1v-1.8h4.4v1.8h-1.3v2.6h6.4v1.6L87.1,144.5z"/>
						</g>
					</g>
				</g>
			</g>
		</g>
		<g id="XMLID_26_">
			<g id="XMLID_37_">
				<path id="XMLID_38_" class="st2" d="M8.9,40.1c0.9-0.9,1.1-2.7,1.1-3.1c0-0.4-0.1-0.5-0.2-0.5c-0.1,0-0.2,0.1-0.2,0.3
					c-0.2,1-0.9,1.4-1.3,1.5c-1.6,0.3-2.2-0.8-2.3-1.1c-0.8-1.6,1-4,1.4-4.3c1.8-2.1,3-4.4,3-4.4s1.2,2.3,3,4.4
					c0.3,0.4,2.2,2.8,1.4,4.3c-0.2,0.3-0.7,1.3-2.3,1.1c-0.3-0.1-1.1-0.5-1.3-1.5c0-0.2-0.1-0.3-0.2-0.3c-0.1,0-0.2,0.1-0.1,0.5
					c0,0.4,0.2,2.2,1.1,3.1H8.9z"/>
			</g>
			<g id="XMLID_27_">
				<path id="XMLID_36_" class="st2" d="M90.5,111.6c-0.9,0.9-1.1,2.7-1.1,3.1c-0.1,0.4,0.1,0.5,0.1,0.5c0.1,0,0.2-0.1,0.2-0.3
					c0.2-1,0.9-1.4,1.3-1.5c1.6-0.3,2.2,0.8,2.3,1.1c0.8,1.6-1,4-1.4,4.3c-1.8,2.1-3,4.4-3,4.4s-1.2-2.3-3-4.4
					c-0.3-0.4-2.2-2.8-1.4-4.3c0.2-0.3,0.7-1.3,2.3-1.1c0.3,0.1,1.1,0.5,1.3,1.5c0,0.2,0.1,0.3,0.2,0.3c0.1,0,0.2-0.1,0.1-0.5
					c0-0.4-0.2-2.2-1.1-3.1H90.5z"/>
			</g>
		</g>
	</g>
</g>
</svg>
