<?xml version="1.0" encoding="utf-8"?>
<!-- Generator: Adobe Illustrator 19.0.0, SVG Export Plug-In . SVG Version: 6.00 Build 0)  -->
<svg version="1.1" xmlns="http://www.w3.org/2000/svg" xmlns:xlink="http://www.w3.org/1999/xlink" x="0px" y="0px"
	 viewBox="0 0 99.4 151.6" style="enable-background:new 0 0 99.4 151.6;" xml:space="preserve">
<style type="text/css">
	.st0{fill:#FFFFFF;stroke:#000000;stroke-width:0.25;stroke-miterlimit:2.6131;}
	.st1{fill-rule:evenodd;clip-rule:evenodd;fill:#E52529;}
	.st2{fill-rule:evenodd;clip-rule:evenodd;fill:#CF492C;}
	
		.st3{fill-rule:evenodd;clip-rule:evenodd;fill:none;stroke:#0CA551;stroke-width:0.6523;stroke-linecap:round;stroke-linejoin:round;stroke-miterlimit:2.6131;}
	.st4{fill-rule:evenodd;clip-rule:evenodd;fill:#E32285;}
	
		.st5{fill-rule:evenodd;clip-rule:evenodd;fill:none;stroke:#0CA551;stroke-width:0.652;stroke-linecap:round;stroke-linejoin:round;stroke-miterlimit:2.6131;}
	.st6{fill-rule:evenodd;clip-rule:evenodd;fill:#231F20;}
	.st7{fill-rule:evenodd;clip-rule:evenodd;fill:#0D4F9E;}
	.st8{fill-rule:evenodd;clip-rule:evenodd;fill:#D54E2E;}
	.st9{fill-rule:evenodd;clip-rule:evenodd;fill:none;stroke:#0D4F9E;stroke-width:1.1339;stroke-miterlimit:2.6131;}
	
		.st10{fill-rule:evenodd;clip-rule:evenodd;fill:none;stroke:#0D4F9E;stroke-width:0.652;stroke-linecap:round;stroke-linejoin:round;stroke-miterlimit:2.6131;}
	
		.st11{fill-rule:evenodd;clip-rule:evenodd;fill:none;stroke:#0D4F9E;stroke-width:0.6523;stroke-linecap:round;stroke-linejoin:round;stroke-miterlimit:2.6131;}
	.st12{fill-rule:evenodd;clip-rule:evenodd;fill:#0CA551;}
	
		.st13{fill-rule:evenodd;clip-rule:evenodd;fill:none;stroke:#0D4F9E;stroke-width:0.8504;stroke-linecap:round;stroke-linejoin:round;stroke-miterlimit:2.6131;}
	
		.st14{fill-rule:evenodd;clip-rule:evenodd;fill:#E52529;stroke:#0D4F9E;stroke-width:0.6523;stroke-linecap:round;stroke-linejoin:round;stroke-miterlimit:2.6131;}
	
		.st15{fill-rule:evenodd;clip-rule:evenodd;fill:none;stroke:#0CA551;stroke-width:0.5669;stroke-linecap:round;stroke-linejoin:round;stroke-miterlimit:2.6131;}
	
		.st16{fill-rule:evenodd;clip-rule:evenodd;fill:none;stroke:#0D4F9E;stroke-width:0.5669;stroke-linecap:round;stroke-linejoin:round;stroke-miterlimit:2.6131;}
	
		.st17{fill-rule:evenodd;clip-rule:evenodd;fill:#E52529;stroke:#0CA551;stroke-width:0.6523;stroke-linecap:round;stroke-linejoin:round;stroke-miterlimit:2.6131;}
	.st18{fill:#0D4F9E;}
	.st19{fill:#231F20;}
</style>
<g id="Calque_2">
	<path id="XMLID_15_" class="st0" d="M99.3,5.3v140.9c0,2.9-2.3,5.2-5.2,5.2H5.3c-2.9,0-5.2-2.3-5.2-5.2V5.3c0-2.9,2.3-5.2,5.2-5.2
		h88.7C96.9,0.1,99.3,2.5,99.3,5.3z"/>
</g>
<g id="Calque_1">
	<g id="XMLID_14_">
		<polygon id="XMLID_289_" class="st1" points="71.1,66.1 73.2,59.5 74.7,59.3 74.3,65.8 70.8,66.1 		"/>
		<path id="XMLID_288_" class="st2" d="M73.1,50.7l1.2-1l0,10.9c-1.3,1.2-2.2,2.3-2.7,5.3L69.2,67l-4.8-2
			C65.9,59.1,69.2,54.6,73.1,50.7z"/>
		<path id="XMLID_287_" class="st3" d="M74.2,60.6c0,0-2.1,1.7-2.7,5"/>
		<polygon id="XMLID_286_" class="st4" points="28.6,85.9 26.5,92.5 25,92.7 25.6,86.2 28.9,85.8 		"/>
		<path id="XMLID_285_" class="st2" d="M26.6,101.3l-1.2,1l0-10.9c1.3-1.2,2.2-2.3,2.7-5.3l2.2-1.1l4.8,2
			C33.8,92.9,30.5,97.4,26.6,101.3z"/>
		<path id="XMLID_284_" class="st3" d="M25.4,91.4c0,0,2.1-1.7,2.7-5"/>
		<path id="XMLID_283_" class="st2" d="M66.5,135.7l-8.7-14.4c-7.9,1.4-16.6,3-25.9,0.9l-8.3,13.5L66.5,135.7z"/>
		<path id="XMLID_282_" class="st5" d="M66.5,64.6c0,0,3.1-8.4,7.7-12.2"/>
		<path id="XMLID_281_" class="st5" d="M69.8,66.5c0,0,2.5-6.4,4.5-8.1"/>
		<path id="XMLID_280_" class="st5" d="M70.1,65.7c0,0-0.9-2,1-2.4"/>
		<path id="XMLID_279_" class="st5" d="M68.2,65.5c0,0,0.9-3.6,3.6-3.4"/>
		<polygon id="XMLID_278_" class="st2" points="53,51.8 54.5,50.1 55,52.6 57.5,53.7 59.6,53.3 63.4,52 64.6,52.7 58.2,66.9 
			57.1,70.5 51.7,70.2 53,62 55,56.9 56,54.6 		"/>
		<path id="XMLID_277_" class="st6" d="M40.5,48.2c0,0,1.9-0.1,2.8-1.1c0.3-0.5,0.8-0.2,1-0.4c0,0,0,1.2,0.8,1.6
			c0.8,0.4,2.9,0.6,3.5,0.2c-0.1,2.9,3.2,3.4,5.1,2.6c0.1,1.5,1,2.5,2.9,3.1c-2.6,4.7-3.5,10-4,15.5l4.4-0.2c1-5.9,3.3-12.1,7-17.1
			c1.4,0,2.9-0.2,3.1-2.7c0-0.3-0.7-0.4-0.2-0.5c3.7-0.4,2.5-2.4,2.5-3.4l4.3,2.5l0.1,2c-3.2,3.2-6.2,7.6-8.6,13.4l5.1,2.7
			c-0.9,2.3,0.5,3.8,2.3,2.7c0,3-0.1,5.1,1.2,7c1,1.5,2.9,1.7,5.4,0.6c1.4,0.3,2,0.1,1.6-1.4c0.7-0.7,0.4-1.8,0.3-2.3
			c0.7-2-0.2-0.8,0.1-3c-0.1-0.7-1.1-0.9-1.1-1.2c0-0.3-0.1-0.9-0.3-1l-6.1-0.1l0-0.6l8.9,0.5v19.7c-0.6,1.5-4.6-2.2-7.7-7.1
			c-1.3-2-2.1-4.9-2.5-6.8l-8.2-4.2c-2.3,4.8-2.8,19.6,8,32.8l-5.7,2.8c-5.1-7.1-8-13.9-8.9-21.8L57,79.3l-15.3,0l-0.1-9.6l4.9,0
			C46.1,61.6,43.8,54.4,40.5,48.2z"/>
		<path class="st7" d="M72.5,69.2c0,3-0.1,5.1,1.2,7c1,1.5,2.9,1.7,5.4,0.6c1.4,0.3,2,0.1,1.6-1.4c0.7-0.7,0.4-1.8,0.3-2.3
			c0.7-2-0.2-0.8,0.1-3c-0.1-0.7-1.1-0.9-1.1-1.2c0-0.3-0.1-0.9-0.3-1l-6.1-0.1L72.5,69.2L72.5,69.2z M72.8,71.2c0,0-0.2-1.5,0.3-2
			c0.5-0.5,0.8-1,2.5-1c1.7,0,1.9,0,1.9,0s0.7,0.7,1.1,0.8c0.4,0.1,0.5,0.2,0.5,0.2s-1.4,0.5-1.7,0.4c-0.2-0.2-0.3,0.7-0.9,0.7
			c-0.6,0-1.1,0.2-1.1,0.2s0.2,0.1,0.5,0.5c0.3,0.4,0.2,0.9,0.1,1.6c-0.1,0.7,0.2,1.1,0.4,1.2c0.2,0.1,0.4,0.2,0.2,0.9
			c-0.2,0.7-0.3,0.9-0.3,0.9s0.4,0.2,0.5-0.1c0.2-0.3,0-0.5,0.4-0.4c0.4,0.1,0.9,0.7,1,1c0.1,0.3,0.5,0.3-0.1,0.6
			c-0.6,0.3-3,1.3-4.1-0.5C73,74.5,72.8,71.4,72.8,71.2L72.8,71.2z M77.3,70.7c0,0,0.2,0,0.7,0.2c0.5,0.1,0.7,0.7,0.6,0.9
			c-0.1,0.3-1,0.2-1.2,0c-0.3-0.2-0.1-0.2-0.2-0.5C76.9,71.1,77.3,70.7,77.3,70.7L77.3,70.7z M77.4,70.2c0,0,1.5-0.4,1.9-0.5
			c0.4-0.1,0.4-0.3,0.4-0.3s-0.1-0.2,0.4,0.2c0.5,0.4,0.6,0.1,0.7,0.6c0.1,0.5,0.1,0.7-0.3,0.8c-0.4,0.1-1.7,0.5-1.7,0.5
			s0.1-0.5-0.5-0.8C77.6,70.4,77.5,70.2,77.4,70.2L77.4,70.2z M78.5,72.7c0,0-0.1-0.4,0.3-0.8c0.4-0.4,1.7-0.6,1.7-0.6
			s0,0.5,0.2,0.6c0.2,0.1,0.3-0.2,0.2,0.3c-0.1,0.5,0.1,0.6-0.2,0.8c-0.3,0.1-1.8,1-1.9,0.6C78.6,73.2,78.5,73,78.5,72.7L78.5,72.7z
			 M78.6,75c0.3-0.1-0.3-0.9,0.2-1c0.5-0.2,1.2-0.2,1.3-0.4c0.2-0.1,0.3-0.2,0.4-0.3c0.1-0.1-0.1,0.2-0.1,0.5
			c0.1,0.2,0.1,0.4,0.3,0.6c0.1,0.2,0.1,0.6-0.2,0.9c-0.2,0.2-0.3,0-0.9,0C79,75.2,78.2,75.1,78.6,75L78.6,75z M78.5,75.8
			c0,0-0.1,0-0.2-0.2c-0.1-0.1,0.1-0.3,0.6-0.1c0.6,0.2,0.4,0.3,0.2,0.5c-0.2,0.3-0.6,0.5-0.6,0.2C78.6,75.8,78.5,75.8,78.5,75.8
			L78.5,75.8z M79.6,76.4c0.1,0-0.3-0.8,0.3-0.8c0.6,0,0.8,0.1,0.7,0.2c-0.1,0-0.2,0.2-0.1,0.4c0,0.2,0.1,0.4,0,0.4
			C80.3,76.5,79.4,76.5,79.6,76.4L79.6,76.4z M77.3,74.5c0,0-0.5-0.5,0.1-0.5c0.6-0.1,0.9,0.1,0.9,0.1l-0.1,0.7c0,0-0.6,0.3-0.7,0.1
			C77.4,74.7,77.4,74.6,77.3,74.5L77.3,74.5z M76.7,73.3c0,0-0.1-0.4,0.2-0.7c0.3-0.3,0.4-0.3,0.7-0.3c0.3,0.1,0.8,0.6,0.6,1
			c-0.2,0.3-0.9,0.4-1.2,0.3C76.7,73.5,76.8,73.4,76.7,73.3L76.7,73.3z M78,68.3l1.1,0.1c0,0,0.4,0.1,0.4,0.3
			c-0.1,0.2-0.3,0.4-0.4,0.3C79,68.9,78.2,68.6,78,68.3z"/>
		<path id="XMLID_265_" class="st8" d="M69,49.5c-0.1-0.6,0.9-1.9,1.5-0.5c0.1,1.5-0.5,1.3-1.6,2.2c-0.2-0.2-4.4,1.9-5.6,3.6
			c-0.4,0.5-0.5,1-0.1,1.4c1.2,0,0.6-0.6,0.9-1.2c0.3-0.7,1.7-1,2-0.8c0.6,0.4,0.1,1.2-0.8,2.2c-0.9,0.7-4.8,4.7-5,5.3
			c-0.1,0.6-0.1,1.5,0.3,1.4c0.5-0.1,0.5-0.2,0.4-0.7c-0.1-0.5-0.1-0.7,0.4-1.1c0.5-0.3,1.7-0.6,1.6,0.3c0.2,0.8-3.3,4.7-4.9,7.1
			c-0.3,0.2-0.2,1.9,0.6,1.6c0.7-0.4-0.2-0.6-0.2-0.9c0,0,0.3-0.7,1-1c0.4,0,1.5-0.3,1.2,1.1c-0.1,0.5-0.4,1-0.8,1.9
			c-1,2.2-2,3.8-2.4,4.7c-0.3,0.7-0.5,1.3,0,2.2c0.3,0.5,0.8,0.2,0.8-0.2c0.1-0.4-0.6-1-0.1-1.6c0.7-0.6,1.4-1,2-0.1
			c0.6,0.9-0.2,1.8-0.9,3.2c-0.7,1.5-1.7,4.8-1.2,5.2c0.3,1.2,1.4,1.2,1.1,0.2c-0.6-0.5-0.7-1,0-1.4c0.7-0.2,1.3,0.3,1.1,1.4
			c-0.2,1.1-0.5,4.4-0.3,5.7c0.2,1.3,0.8,2.1,0.8,2.1c0.4,0.4,1,0.1,0.6-0.8c-0.6,0-1.3-1.3-0.4-1.8c0.6-0.2,1.3-0.3,1.7,0.7
			c0.7,1.1,0.3,4.7,0.3,6c0.4,1.4,0.7,2.6,1.7,2c0.8-0.6-0.5-0.8-0.7-1.4c0.1-0.5,0.2-0.9,0.5-1.1c0.8-0.1,2,0.5,1.7,3
			c0.3,3.6,0.9,4,1.2,5.1l1.1-0.4c0,0-0.8-0.8-0.7-1.4c0.1-0.4,0-1,1-0.8c0.5,0.2,1,1.4,1,1.4l0.9-0.6c0,0-0.5-1.5-1.5-1.9
			c-1.4-0.5-1.6,0.2-2,0.3c0,0-0.2-1.6-0.2-3.9c-0.9-3.5-3-2.4-3-2.4s0.6-3.9-0.1-5.3c-0.6-1.3-2.5-1.3-2.8-0.6
			c0.1-1.8,0.8-3.7,0.9-5.5c0-1.1-0.9-1.6-2.6-1.6c0.6-1.9,1.6-3,2.2-4.2c0.8-1.5,0-3.5-1.8-3.6c0.9-1.2,1.6-2.2,2.1-3
			c1-1.8,1.8-4-1.2-4.4c1.5-1.4,3.1-3.1,4.3-4.7c0.9-1.9,0.1-2.5-1.4-2.4c-0.1-0.4,1.9-2,2.8-2.5C69,55.2,68.7,54,68,53
			c2.1-0.9,3.4-1.9,4-2.5c1-1.1,0.6-2.4-0.5-3c-0.9-0.4-1.4-0.4-2.1,0.2c-1.2,1-1.7,2-1.1,2.3C68.6,50.3,69.1,50,69,49.5z"/>
		<path id="XMLID_264_" class="st2" d="M33.2,16.2l8.7,14.4c7.9-1.4,16.6-3,25.9-0.9l8.3-13.5H33.2z"/>
		<path id="XMLID_263_" class="st6" d="M41.1,29.6l-1.2-2.5l5.2-1.2l0.7,0.8l0.8-1l6.9-0.7l0.7,0.9l1-0.9l6.7,0.4l0.5,0.7l1.3-0.6
			l5.7,1.2l-1.2,2.1C68.5,27.7,46.1,26.3,41.1,29.6z"/>
		<path id="XMLID_262_" class="st1" d="M40.6,28.2l1.1,2c5.7-1.2,16-2.7,26.1-0.8l0.6-2c-3.1-0.7-8-1.5-12.8-1.3
			C50.9,26.4,44.4,27.1,40.6,28.2z"/>
		<path class="st6" d="M58.8,21.1l2,3.5l-4.3,0L58.8,21.1L58.8,21.1z M58.7,22.6l-0.8,1.2l1.5,0L58.7,22.6z"/>
		<path class="st6" d="M68.4,22.1l1.1,3.8l-4.2-1.1L68.4,22.1L68.4,22.1z M67.9,23.6l-1,0.9l1.4,0.4L67.9,23.6z"/>
		<path class="st6" d="M49.5,21.1l2.3,3.3l-4.3,0.3L49.5,21.1L49.5,21.1z M49.6,22.7l-0.7,1.2l1.5-0.1L49.6,22.7z"/>
		<path class="st6" d="M39.9,22.9l2.8,2.8l-3.4,1l-0.5-0.9L39.9,22.9L39.9,22.9z M40.3,24.4l-0.5,1.3l1.4-0.4L40.3,24.4z"/>
		<path id="XMLID_253_" class="st6" d="M58.9,18.6c-0.5,0-0.9,0.4-0.9,0.8c0,0.5,0.4,0.8,0.9,0.8c0.5,0,0.9-0.4,0.9-0.8
			C59.8,19,59.4,18.6,58.9,18.6z"/>
		
			<ellipse id="XMLID_252_" transform="matrix(0.2473 -0.9689 0.9689 0.2473 32.0025 82.2539)" class="st6" cx="68.9" cy="20.5" rx="0.8" ry="0.9"/>
		
			<ellipse id="XMLID_251_" transform="matrix(-8.543254e-002 -0.9963 0.9963 -8.543254e-002 34.3677 70.4332)" class="st6" cx="49.5" cy="19.4" rx="0.8" ry="0.9"/>
		
			<ellipse id="XMLID_250_" transform="matrix(-0.2539 -0.9672 0.9672 -0.2539 29.1752 65.0049)" class="st6" cx="39.7" cy="21.3" rx="0.8" ry="0.9"/>
		<ellipse id="XMLID_249_" class="st6" cx="63.4" cy="21.7" rx="0.7" ry="0.7"/>
		
			<ellipse id="XMLID_248_" transform="matrix(-0.13 -0.9915 0.9915 -0.13 40.3763 77.69)" class="st6" cx="54.3" cy="21.1" rx="0.7" ry="0.7"/>
		
			<ellipse id="XMLID_247_" transform="matrix(-0.2968 -0.9549 0.9549 -0.2968 36.7731 71.2952)" class="st6" cx="44.6" cy="22.1" rx="0.7" ry="0.7"/>
		<path id="XMLID_246_" class="st6" d="M60.9,22.1c1.9,1.7,4.8,1.2,4.9,1c-1,1.1-1.9,1.6-2.9,1.5C61.7,24.4,61.1,23.2,60.9,22.1z"/>
		<path id="XMLID_245_" class="st6" d="M51.8,21.9c2.1,1.5,4.9,0.6,4.9,0.3C55.9,23.4,55.1,24,54,24C52.9,24,52.1,22.9,51.8,21.9z"
			/>
		<path id="XMLID_244_" class="st6" d="M42.3,23.2c2.3,1.1,4.9-0.2,4.9-0.5c-0.6,1.3-1.3,2.1-2.3,2.3C43.8,25.2,42.8,24.2,42.3,23.2
			z"/>
		<path id="XMLID_243_" class="st9" d="M76.1,15.9l-8.5,13.9c-9.2-2.1-17.9-0.7-25.8,0.8l-8.6-14.7"/>
		<path id="XMLID_242_" class="st6" d="M26.6,37.9c-0.1,1.4-0.4,4.3-1.5,5.5h4.1c0,0-2-4.3-1.1-6.3c0.5-1,0.7-0.3,0.9,0.7
			c0.6,3.4,5.7,3.3,6.6,0.2c0.9-3-0.7-5.8-3.6-9.3c-2.9-3.5-4.2-6.4-4.8-8.2c-0.6,3.2-5.2,8.9-7.2,12c-2,3.1-1.2,6.6,1,7.5
			c2.3,1,4.6-0.9,4.8-2.7C26,36,26.7,37.3,26.6,37.9z"/>
		<path id="XMLID_241_" class="st6" d="M72.1,114.7c0.1-1.4,0.4-4.3,1.5-5.5h-4.1c0,0,2,4.3,1.1,6.3c-0.5,1-0.7,0.3-0.9-0.7
			c-0.6-3.4-5.7-3.3-6.6-0.2c-0.9,3,0.7,5.8,3.6,9.3c2.9,3.5,4.2,6.4,4.8,8.2c0.6-3.2,5.2-8.9,7.2-12c2-3.1,1.2-6.6-1-7.5
			c-2.3-1-4.6,0.9-4.8,2.7C72.8,116.6,72.1,115.3,72.1,114.7z"/>
		<path id="XMLID_240_" class="st10" d="M36.6,44.4c0,0,2.6-4.1,3.5-6.6c0.9-2.5,2.1-7.4,1.9-7.3"/>
		<path id="XMLID_239_" class="st11" d="M41.7,46.8c0,0,1.1,1.1,2.5-0.8c1.4-1.9,5-15.5,4.7-16.5"/>
		<path id="XMLID_238_" class="st10" d="M44.2,46c0.1,0.2,1.7,0.4,3-3.7c1.2-4.1,3.2-13,3-13.1"/>
		<path id="XMLID_237_" class="st10" d="M45.6,45.3c-0.1,0.4,1.7,0.3,3.2-4.7c1.6-4.9,2.5-11.5,2.5-11.5"/>
		<line id="XMLID_236_" class="st10" x1="49.5" y1="41.1" x2="47.9" y2="44.9"/>
		<path id="XMLID_235_" class="st10" d="M46.6,45.2c0,0,0.5,2.1,1.9,0.2c1.4-1.9,1.6-3.1,1.6-3.1"/>
		<path id="XMLID_234_" class="st10" d="M45.6,45.4c0,0,1.2,2.6,2.9,1.2c1.6-1.4,2.2-3.6,2.2-3.6"/>
		<path id="XMLID_233_" class="st10" d="M44.9,45.7c0.9,3.5,4.5,2.3,5.2,0.8c0.7-1.5,1.3-2.7,1.1-2.7"/>
		<path id="XMLID_232_" class="st10" d="M49.4,47.6c0,0-0.3,2.2,1.1,2.8c1.4,0.6,2.6,0.7,3.4,0.1c0.8-0.6,2-2.9,2-2.9"/>
		<path id="XMLID_231_" class="st10" d="M52.6,45.2c0,0-0.7,1.3-0.8,1.9c-0.1,0.6,0.2,2.5,1.3,1.4c1.1-1.1,1.1-2,1.1-2"/>
		<path id="XMLID_230_" class="st10" d="M51.9,44.6c0,0-1.1,2.6-1.2,3.4c-0.1,0.8,0.5,2,1.4,2c0.9,0,1.5,0,2.1-0.9
			c0.5-0.9,0.9-1.9,0.9-1.9"/>
		<path id="XMLID_229_" class="st10" d="M56.5,48c-0.6,1.3-1.2,4.6,1.1,4.4c1.3-0.1,2.5-1.7,2.7-2.9"/>
		<path id="XMLID_228_" class="st11" d="M57.5,48.5c0,0-1.2,1.3-0.5,2.2c0.6,0.9,1.9-0.1,2.2-1.6"/>
		<path id="XMLID_227_" class="st10" d="M67.6,30c-0.1,3.9-0.1,8.4-0.5,13.2c-1.5,4.3-3.4,5.8-5.4,5.9"/>
		<path id="XMLID_226_" class="st10" d="M63.6,48.6c0,0,0.8,1.9,1.4,1.6c0.6-0.2-0.2-2.2-0.4-2.6"/>
		<path id="XMLID_225_" class="st10" d="M62.6,48.9c0,0,0.9,3.4,2.6,2.5c1.6-0.8,0.7-2.9-0.1-4.2"/>
		<path id="XMLID_224_" class="st10" d="M66.6,47.3c0,0,0.7,0.4,0.6-0.9c-0.1-1.3-0.5-2.1-0.5-2.1l0.3-0.9c0,0,1.1,1.4,1.2,2.3
			c0.1,0.9,1.1,2.3-1.5,2.7"/>
		<path id="XMLID_223_" class="st10" d="M66.8,49.1c3.5,0.6,3-4.3,1.5-5.6c-1.5-1.3-1.1-1.8-1.1-1.8"/>
		<path id="XMLID_222_" class="st10" d="M67.3,38.7c0,0,1.2,1.7,1,4.6"/>
		<path id="XMLID_221_" class="st10" d="M67.5,36.1c0,0,1.5,1.9,1.6,3.2c0.2,1.2,0.5,3-0.1,4.8"/>
		<path class="st7" d="M56.7,37.4c1.9-0.9,2.4-1.9,2.4-2.1c0-0.3-0.2-0.8-0.1-1c0.1-0.2,0.2-0.4,0.4-0.6c0.2-0.2-0.3-0.5-0.4-0.4
			c0,0.1-0.1,0.1-0.4,0c-0.3-0.1-0.5-0.5-1.6-0.5c-1.1-0.1-1.5,0-2.5,0.5c-1,0.4-2.4,1.7-2.4,1.7s0.2,0.5,1,0.5
			c0.9,0,0.6,0.1,1.1,0.4c0.2,0.3,1.8,0.5,2.6,0.6c0.3,0,0.2,0,0.6,0.1C57.4,36.6,56.7,37.4,56.7,37.4L56.7,37.4z M52.9,34.6
			c0,0,1-0.8,2.4-1.3c1.4-0.5,2.7,0,2.7,0s0.6,0.4,0.1,0.5c-0.5,0.1-1.6-0.1-3,0.4c-1.4,0.5-1.8,0.8-1.8,0.8S52.6,35,52.9,34.6
			L52.9,34.6z M55.3,34.9l0.7,0c0,0,0,0.7,0.6,0.7c0.6,0,0.4-0.7,0.6-0.7l0.5,0c-0.3,0.8-0.4,1.2-1.3,1.1
			C55.7,35.9,55.2,35.1,55.3,34.9L55.3,34.9z M54,35.2c0,0,0.9-0.2,1-0.2c0.2,0,0,0.3,0.1,0.5c0.1,0.1-0.5,0.1-0.7-0.1
			C54.2,35.2,54,35.2,54,35.2L54,35.2z M58,34.9c0.1,0,0.4,0,0.5,0.2c0,0.4-0.2,0.4-0.3,0.6c-0.1,0.2-0.5,0.2-0.5,0.2s0-0.4,0.1-0.4
			C58,35.4,58,34.9,58,34.9L58,34.9z M62.5,32.4c0,0,0-1,0.4-0.9c0.4,0.1,1,0.2,1.7-0.1c0.7-0.3,0.6-0.1,1.3-0.1
			c0.7,0,0.3,0,0.8,0.1c0.5,0.1,0.9,0.3,0.9,0.3l0.1,1.2l0.7,0.4c0,0-0.2,0.8-0.6,0.9c-0.3,0.1-0.3,0.7-0.3,0.7s0.5,1-0.1,1.1
			c-0.6,0.1-1.2,0.5-2.7,0.3c-1.5-0.1-1.2,0.1-1.2,0.3c0.1,0.2,0.1,1.4,0.2,1.7c0.1,0.3,0.3,0.8,0.3,1.1c0,0.3-0.3,0.9-0.7,0.9
			c-0.4,0-0.7-0.1-0.3-0.4c0.4-0.3,0.4-0.2,0.4-0.6c0-0.4-0.5-2.7-0.7-3.4c-0.2-0.7-0.4-2-0.3-2.5C62.6,33.2,62.7,33.1,62.5,32.4
			L62.5,32.4z M63.3,33.7c0.5-1.3,3.7-0.7,3.9-0.6l-0.1-0.4c0.1,0-0.4-0.4-1.6-0.4c-1-0.1-1.4,0.1-2.1,0.2c-0.7,0.1-0.2,0.5-0.4,0.7
			C62.9,33.5,63.3,33.7,63.3,33.7L63.3,33.7z M63.8,34.3c0,0,0.4-0.2,1.1-0.4c0.8-0.2,2.2,0.1,2.2,0.1s0.1-0.3-0.3-0.5
			c-0.4-0.2-0.9-0.2-1.5-0.2c-0.6,0-0.7-0.1-1.5,0.5C63,34.4,63.8,34.3,63.8,34.3L63.8,34.3z M64.4,35c0,0.3,0.2,0.6,0.3,0.8
			c0.1,0.2,1,0.3,1.3,0.2c0.3-0.2,0.5-1.2,0.5-1.2L66,34.7c0,0,0.1,0.2,0,0.7c-0.1,0.4-0.9,0.4-1.1,0.2c-0.3-0.2-0.2-0.7-0.2-0.7
			L64.4,35L64.4,35z M64,35l-0.7,0.2c0,0-0.2,0.1,0,0.3c0.2,0.2,0,0.4,0.5,0.4C64.2,36,64.1,35.5,64,35L64,35z M66.6,35.4
			c0.2,0,0.2,0.1,0.5,0.1l0.2-0.4c0,0-0.2-0.3-0.5-0.2C66.5,35,66.6,35.4,66.6,35.4L66.6,35.4z M59.1,39c-0.1-0.1-0.7,1.2,0,1.4
			c0.6,0.1,0.5,0.1,1.2-0.3c0.8-0.4,0.8-0.4,1.1-0.3c0.3,0.1,0.5,0.5,0.2,0.6c-0.3,0.1-0.8,0-1,0.3c-0.3,0.3-1.6,0.4-2-0.1
			C58.5,40.2,57.8,39.6,59.1,39L59.1,39z M58.3,43c0.6-0.3,2.2-0.4,2.2-0.7c-0.2-1.7-2.5,0.2-3.6,0.7c-1.2,0.5-1.8-0.4-1.5-1.1
			c0.3-0.7,1.2-1.1,1.1-1.1c-0.1,0-1.5,0.6-1.6,1.1C54.3,44.6,57.2,43.5,58.3,43L58.3,43z M63.6,42.8c-0.5-0.2-1.5-0.4-1.5-0.7
			c0.2-1.5,1.5-0.1,2.4,0.3c0.6,0.3,1.7-0.1,1.6-0.8c-0.1-0.7-0.5-0.7-0.5-0.7c0.1,0,0.8,0.5,0.9,0.9C66.6,43.8,64.3,43.2,63.6,42.8
			L63.6,42.8z M58.3,43.6c0,0,0.8-0.1,1.4-0.1c0.4-0.3,1.1-0.4,1.2-0.2c0.2,0.3,0.3,0.2,0.9-0.1c0.7-0.2,0.8,0.1,0.8,0.1l1.3,0.2
			l0.1,0.7c0,0-0.9-0.4-1.7-0.1c-0.8,0.4-1.3,0.2-1.9,0.1c-0.6-0.2-2.3,0.2-2.3,0.2L58.3,43.6L58.3,43.6z M62.5,45.1
			c-0.9,0.4-2.6,0.2-2.6,0c0,0,0.9,0.7,1.5,0.5C62,45.4,62.5,45.1,62.5,45.1z"/>
		<path id="XMLID_204_" class="st1" d="M54.2,68.4c0-0.5,1.8-8.9,2.4-10.5c0.6-1.6,2.1-4.7,2.6-4.9c0.5-0.2,2.3-3.9,2.3-3.9l1.6,3.1
			c0,0-3.1,5.2-3.9,7.3c-0.8,2.2-2.5,8.4-2.3,8.8C56.9,68.7,54.2,68.5,54.2,68.4z"/>
		<path id="XMLID_203_" class="st3" d="M63.1,52.2c0,0-3.1,5.2-3.9,7.3c-0.8,2.2-2.5,8.4-2.3,8.8c0,0.4-2.7,0.2-2.7,0.1
			c0-0.5,1.8-8.9,2.4-10.5c0.6-1.6,2.1-4.7,2.6-4.9"/>
		<path class="st2" d="M47.5,61.4c0,0-1.4,0.9-1,2c0.4,1.1,0.8,0.8,1.1,0.8c0.3,0,0.7-0.6,0.3-1.2C47.4,62.6,47.2,61.9,47.5,61.4
			L47.5,61.4z M52.6,53.4c0,0,1.4-0.7,2,0.3c0.6,1,0.5,1.8-0.6,1.8c-1.1,0-0.9-0.6-1.1-0.8c-0.1-0.2-0.4-0.1-0.8,0.4
			c-0.4,0.4-0.9,0.5-0.4-0.7C52.4,53.4,52.6,53.4,52.6,53.4L52.6,53.4z M53.6,58.2c0,0.3-0.2,0.5-0.5,0.5c-0.3,0-0.5-0.2-0.5-0.5
			c0-0.3,0.2-0.5,0.5-0.5C53.4,57.6,53.6,57.9,53.6,58.2L53.6,58.2z M49.8,62.3c0.3,0,0.5-0.2,0.5-0.5c0-0.3-0.2-0.5-0.5-0.5
			c-0.3,0-0.5,0.2-0.5,0.5C49.3,62,49.5,62.3,49.8,62.3L49.8,62.3z M49.8,59.4c0.7,0,1.2-0.5,1.2-1.2c0-0.7-0.5-1.2-1.2-1.2
			c-0.7,0-1.2,0.5-1.2,1.2C48.6,58.9,49.2,59.4,49.8,59.4L49.8,59.4z M46.3,58.2c0,0.3,0.2,0.5,0.5,0.5c0.3,0,0.5-0.2,0.5-0.5
			c0-0.3-0.2-0.5-0.5-0.5C46.5,57.6,46.3,57.9,46.3,58.2L46.3,58.2z M53.1,56.6l1.4,1.6l-1.2,1.5c-1.8-1.5-3.1,0.5-1.7,2L50,63.7
			l-1.8-2.1c1.1-0.9,1.1-3.4-1.6-2.1l-1.2-1.4l1.4-1.6c0.5,0.6,0.9,0.6,1.6,0.5c1.4-1.1,0.2-2.4-0.1-3.2l1.6-1.4l1.7,1.5
			C49.6,56.7,52,57.8,53.1,56.6L53.1,56.6z M49.9,53.4c-0.3,0-0.5,0.2-0.5,0.5c0,0.3,0.2,0.5,0.5,0.5c0.3,0,0.5-0.2,0.5-0.5
			C50.4,53.6,50.2,53.4,49.9,53.4L49.9,53.4z M44.2,51.4c0,0-0.4-1.1,0.7-1.3c0.9-0.6,0.4-1.1,0.2-1.3c-0.1-0.2-1.8-0.4-2.1,0.8
			c-0.3,1.2,0.2,2,0.6,2.5c0.4,0.6,1.1,1.6,2.6,1.5c1.5,0,1.4-0.2,1.6-0.5c0.2-0.3-0.1-0.3-0.7-0.2c-0.6,0-1.7,0.1-1.5-0.8
			c0.3-0.9,0.5-0.6,1.1-0.7c0.6-0.1,1.2-0.5,0.8-1.2c-0.4-0.8-1.5-0.5-1.8,0.2c-0.3,0.7-0.7,1.4-0.7,1.6
			C45.2,52.2,44.2,51.7,44.2,51.4z"/>
		<path id="XMLID_193_" class="st2" d="M49.5,65.1l-2,1.7c-0.3,1.4,0.1,4.3-0.9,4.3c-0.5-0.2-2.1-0.6-1.4,1.1c0.8,0.6,2.7,1,3.5-1.6
			l0.2-2.8c0.2-0.5,1.1-0.4,1.2,0.1c-0.2,2-0.1,2.9,0.3,3.8c0.3,1.2,1,1.4,2.1,1.1c1.1-0.6,0.9-2-0.3-1.7c-0.8,0-0.7-2.2-0.8-3.8
			L49.5,65.1z"/>
		<circle id="XMLID_192_" class="st2" cx="76.9" cy="79.9" r="1.8"/>
		<path id="XMLID_191_" class="st12" d="M78.6,79.7c-0.4,0.9-0.7,0.9-1.2,0.9c-0.2,0-0.8-0.3-1.1-1c0.8,0.6,0.8,0.7,1.2,0.7
			C77.9,80.3,78.1,80.1,78.6,79.7z"/>
		<polyline id="XMLID_190_" class="st13" points="74.4,65.2 74.4,28 77.6,24.9 80.8,28.1 80.8,65.8 		"/>
		<polygon id="XMLID_189_" class="st7" points="77,65.6 77.6,31.8 77.9,65.4 		"/>
		<path id="XMLID_188_" class="st2" d="M82.5,65.9l-8-0.6c0,0-3.9,0.4-4.3,1.2c-0.4,0.9-0.8,2.3,0.2,2.7c1,0.4,2,0.5,2.4-0.2
			c0.3-0.7,0.7-1.8,0.7-1.8l8.9,0.4L82.5,65.9z"/>
		<path id="XMLID_187_" class="st14" d="M65.3,70.2c0,0-1.1,7.7-0.5,8.2s3.8,3.6,4.7,5.5c0.9,1.9,2.5,5.1,2,9.2
			c-0.6,4.1-1,3.8-1,3.8l3,4.4c3.7-1.7,6.7-3.9,9-6.7c-11.1-6.5-14.7-14.9-16-23.8L65.3,70.2z"/>
		<path id="XMLID_186_" class="st11" d="M65.6,105.5l7.8-4.2c3.7-1.7,6.7-3.9,9-6.7"/>
		<path id="XMLID_185_" class="st7" d="M70.6,96.9c-0.1-0.2-0.1,0.2-0.2,0c-3.5-5.2-5.2-12-5.7-18.6l0.4,0.5l0.2,1.2l2.1,2.2l-1.3,1
			l-0.5-0.7c0.2,1.3,0.3,2.1,0.8,2.5l0.7-0.2l-0.5-0.9l1.6-0.7l1.5,2.7l-1.7,0.5l-0.3-0.6l-0.7,0.4l0.7,2.4l1.1-0.1l-0.3-1.3
			l1.6-0.2c0.3,1,0.5,2.3,0.7,3.7l-1.7,0l-0.1-1.1h-1l0.1,1.9l0.8,1.7l0.1-1.5l1.6,0L70,95.6L70.6,96.9z"/>
		<path id="XMLID_184_" class="st2" d="M82.6,88.4l-0.3,0.1c-2.4,0.6-5.7-4.7-7.5-6.7c-1.8-2.1-3.3-8.5-3.3-8.5l-5.1-2.6
			c0,0,1.6,9.8,5.1,14.2c3.5,4.4,7.2,8.5,10.7,9.4L82.6,88.4z"/>
		<path id="XMLID_183_" class="st15" d="M82.6,88.4l-0.3,0.1c-2.4,0.6-5.7-4.7-7.5-6.7c-1.8-2.1-3.3-8.5-3.3-8.5"/>
		<path id="XMLID_182_" class="st16" d="M66.4,70.6c0,0,1.6,9.8,5.1,14.2c3.5,4.4,7.2,8.5,10.7,9.4"/>
		<path id="XMLID_181_" class="st5" d="M67.7,71.3c1.4,10.8,6.8,17.4,14.7,21.6"/>
		<path id="XMLID_180_" class="st12" d="M72.6,79.9c-1,0.8-2.3,0.2-2.6,0.1c-0.3-0.1-0.6-1.1-0.6-1.8c-0.1-0.6,2-1.7,2-1.7
			c-0.4,0.5-0.8,1.1-1,1.8l1.7-0.2c0.2,0,0.2,0.4,0.1,0.5l-1.5,0.8C70.9,79.9,71.7,80,72.6,79.9z"/>
		<path id="XMLID_179_" class="st12" d="M71.2,75.6c-1.1,0.8-2.3,0.1-2.6-0.1c-0.3-0.1-0.5-1.2-0.5-1.8c0-0.6,1.9-1.5,1.9-1.5
			c-0.4,0.5-0.7,0.9-0.9,1.6l1.7-0.1c0.2,0.1,0.2,0.4,0,0.5l-1.6,0.7C69.4,75.5,70.2,75.6,71.2,75.6z"/>
		<path id="XMLID_178_" class="st12" d="M75.1,83.7c-0.9,1-2.3,0.6-2.6,0.5c-0.3-0.1-0.8-1-0.9-1.6c-0.2-0.6,1.7-2.1,1.7-2.1
			c-0.3,0.6-0.6,1.2-0.6,1.9l1.6-0.5c0.2,0,0.3,0.4,0.1,0.5l-1.4,1C73.3,84,74.1,83.9,75.1,83.7z"/>
		<path id="XMLID_177_" class="st12" d="M78.1,87.3c-0.7,1.1-2.1,1-2.4,1c-0.3,0-1-0.9-1.2-1.4c-0.3-0.6,1.3-2.3,1.3-2.3
			c-0.2,0.6-0.4,1.3-0.3,2l1.5-0.8c0.2,0,0.4,0.3,0.2,0.5l-1.1,1.3C76.5,87.9,77.3,87.6,78.1,87.3z"/>
		<path id="XMLID_176_" class="st12" d="M81.8,89.8c-0.4,1.3-1.8,1.5-2.1,1.6c-0.3,0-1.1-0.6-1.6-1.1c-0.4-0.5,0.6-2.6,0.6-2.6
			c0,0.7,0,1.4,0.3,2l1.3-1.1c0.2-0.1,0.4,0.2,0.3,0.4l-0.8,1.5C80.4,90.8,81.1,90.3,81.8,89.8z"/>
		<path id="XMLID_175_" class="st5" d="M68.5,60.3c0,0,3.5,0.3,2.1-3.4"/>
		<path id="XMLID_174_" class="st5" d="M68.1,61.4c0,0,5.8,1,3.2-5.4"/>
		<path id="XMLID_173_" class="st12" d="M74.2,54.4c-2.4,2.2-0.1,4.2,0,4.2V54.4z"/>
		<path id="XMLID_172_" class="st2" d="M32.5,47.8l1.8-0.7l0.9,0.3l0.7,0.8l1.5-0.3l0.8,0.5l1.2-0.3h1.1c3.7,5.9,5.6,13.2,6.2,21.7
			h-5C40.1,62,37.4,54.6,32.5,47.8z"/>
		<path id="XMLID_171_" class="st17" d="M35.3,47.8c3.4,5.5,6.4,11.6,7.4,20.4h3c-1-7.4-2.8-14.3-5.8-20.2l-1.8,0.2L37.3,48
			L35.3,47.8z"/>
		<path id="XMLID_170_" class="st5" d="M33.2,87.4c0,0-3.1,8.4-7.7,12.2"/>
		<path id="XMLID_169_" class="st5" d="M29.9,85.4c0,0-2.5,6.4-4.5,8.1"/>
		<path id="XMLID_168_" class="st3" d="M29.6,86.2c0,0,0.9,2-1,2.4"/>
		<path id="XMLID_167_" class="st5" d="M31.5,86.4c0,0-0.9,3.6-3.6,3.4"/>
		<polygon id="XMLID_166_" class="st2" points="46.4,100.2 45,101.9 44.4,99.4 42,98.4 39.9,98.7 36.3,100 35,99.3 41.3,85.4 
			42.4,81.9 47.7,82.2 46.4,90.3 44.4,95.2 43.5,97.5 		"/>
		<path id="XMLID_165_" class="st6" d="M59.2,103.7c0,0-1.9,0.1-2.8,1.1c-0.3,0.5-0.8,0.2-1,0.4c0,0,0-1.2-0.8-1.6
			c-0.8-0.4-2.9-0.6-3.5-0.2c0.1-2.9-3.2-3.4-5.1-2.6c-0.1-1.5-1-2.5-2.9-3.1c2.6-4.7,3.5-10,4-15.5l-4.4,0.2
			c-1,5.9-3.3,12.1-7,17.1c-1.4,0-2.9,0.2-3.1,2.7c0,0.3,0.6,0.4,0.2,0.5c-3.7,0.4-2.5,2.4-2.5,3.4l-4.3-2.5l-0.1-2
			c3.2-3.2,6.2-7.6,8.6-13.4l-5.1-2.7c0.9-2.3-0.5-3.8-2.3-2.7c0-3,0.1-5.1-1.2-7c-1-1.5-2.9-1.7-5.4-0.6c-1.4-0.3-2-0.1-1.6,1.4
			c-0.7,0.7-0.4,1.8-0.3,2.3c-0.7,2,0.2,0.8-0.1,3c0.1,0.7,1.1,0.9,1.1,1.2c0,0.3,0.1,0.9,0.3,1l6.1,0.1l0,0.6l-9.3-0.5V64.5
			c0.6-1.5,5.3,1.8,8.6,7.9c1.2,2.1,1.5,4,2.1,6.2l8.2,4c2.3-4.8,2.8-19.6-8-32.8l5.7-2.8c5.1,7.1,8,14,8.9,21.8l0.3,3.9l15.3,0
			l0.1,10l-3.9,0.4C54.6,91.2,55.9,97.6,59.2,103.7z"/>
		<path class="st7" d="M27.2,82.8c0-3,0.1-5.1-1.2-7c-1-1.5-2.9-1.7-5.4-0.6c-1.4-0.3-2-0.1-1.6,1.4c-0.7,0.7-0.4,1.8-0.3,2.3
			c-0.7,2,0.2,0.8-0.1,3c0.1,0.7,1.1,0.9,1.1,1.2c0,0.3,0.1,0.9,0.3,1l6.1,0.1L27.2,82.8L27.2,82.8z M26.9,80.8c0,0,0.2,1.5-0.3,2
			c-0.5,0.5-0.8,1-2.5,1c-1.7,0-1.9-0.1-1.9-0.1s-0.7-0.7-1.1-0.8c-0.4-0.1-0.5-0.2-0.5-0.2s1.4-0.5,1.7-0.4
			c0.3,0.2,0.4-0.7,0.9-0.7c0.6,0,1.1-0.2,1.1-0.2S24,81.4,23.7,81c-0.3-0.4-0.2-0.9-0.1-1.6c0.1-0.7-0.2-1.1-0.4-1.2
			c-0.2-0.1-0.4-0.2-0.2-0.9c0.2-0.7,0.3-0.9,0.3-0.9s-0.4-0.2-0.5,0.1c-0.2,0.3,0,0.5-0.4,0.4c-0.4-0.1-0.9-0.7-1-1
			c-0.1-0.3-0.5-0.3,0.1-0.6c0.6-0.3,3-1.3,4.1,0.5C26.7,77.5,26.9,80.6,26.9,80.8L26.9,80.8z M22.4,81.3c0,0-0.2,0-0.7-0.2
			c-0.5-0.1-0.7-0.7-0.6-0.9c0.1-0.3,1-0.2,1.2,0c0.3,0.2,0.1,0.2,0.2,0.5C22.7,80.9,22.4,81.3,22.4,81.3L22.4,81.3z M22.2,81.8
			c0,0-1.5,0.4-1.9,0.5C20,82.4,20,82.6,20,82.6s0.1,0.2-0.4-0.2c-0.5-0.4-0.6-0.1-0.7-0.6c-0.1-0.5-0.1-0.7,0.3-0.8
			c0.4-0.1,1.7-0.5,1.7-0.5s-0.1,0.5,0.5,0.8C22.1,81.6,22.2,81.7,22.2,81.8L22.2,81.8z M21.2,79.2c0,0,0.1,0.4-0.3,0.8
			c-0.4,0.4-1.7,0.6-1.7,0.6s0-0.5-0.2-0.6c-0.2-0.1-0.3,0.2-0.2-0.3c0.1-0.5-0.1-0.6,0.2-0.8c0.3-0.1,1.8-1,1.9-0.6
			C21,78.8,21.2,78.9,21.2,79.2L21.2,79.2z M21.1,77c-0.3,0.1,0.3,0.9-0.2,1c-0.5,0.2-1.2,0.2-1.3,0.4c-0.2,0.1-0.3,0.2-0.4,0.3
			c-0.1,0.1,0.1-0.2,0-0.5c-0.1-0.3-0.1-0.4-0.3-0.6c-0.1-0.2-0.1-0.6,0.2-0.9c0.2-0.2,0.3,0,0.9,0C20.7,76.7,21.5,76.9,21.1,77
			L21.1,77z M21.2,76.2c0,0,0.1,0,0.2,0.2c0.1,0.1-0.1,0.3-0.6,0.1c-0.6-0.1-0.4-0.3-0.2-0.5c0.2-0.3,0.6-0.5,0.6-0.2
			C21.1,76.1,21.2,76.2,21.2,76.2L21.2,76.2z M20.1,75.5c-0.1,0,0.3,0.8-0.3,0.8c-0.6,0-0.8-0.1-0.7-0.2c0.1,0,0.2-0.2,0.1-0.4
			c0-0.2-0.1-0.4,0-0.4C19.4,75.4,20.2,75.5,20.1,75.5L20.1,75.5z M22.3,77.5c0,0,0.5,0.4-0.1,0.5c-0.6,0.1-0.9-0.1-0.9-0.1l0.1-0.7
			c0,0,0.6-0.3,0.7-0.1C22.3,77.3,22.3,77.4,22.3,77.5L22.3,77.5z M23,78.6c0,0,0.1,0.4-0.2,0.7c-0.3,0.3-0.4,0.3-0.7,0.3
			c-0.3,0-0.8-0.6-0.6-1c0.2-0.3,0.9-0.4,1.2-0.3C23,78.5,22.9,78.5,23,78.6L23,78.6z M21.6,83.7l-1.1-0.1c0,0-0.4-0.1-0.4-0.3
			c0-0.2,0.3-0.4,0.4-0.2C20.7,83.1,21.5,83.4,21.6,83.7z"/>
		<path id="XMLID_153_" class="st8" d="M30.4,102.5c0.1,0.6-0.9,1.9-1.4,0.5c-0.1-1.5,0.4-1.3,1.5-2.2c0.2,0.2,4.1-1.9,5.3-3.6
			c0.3-0.5,0.4-1,0-1.4c-1.1,0-0.5,0.6-0.8,1.2c-0.3,0.7-1.6,1-1.9,0.8c-0.5-0.4-0.1-1.2,0.8-2.2c0.9-0.7,4.6-4.7,4.7-5.3
			c0.1-0.6,0.1-1.5-0.3-1.4c-0.4,0.1-0.4,0.2-0.4,0.7c0.1,0.5,0.1,0.7-0.4,1.1c-0.4,0.3-1.6,0.6-1.5-0.3c-0.1-0.8,3.2-4.7,4.6-7.1
			c0.3-0.2,0.2-1.9-0.6-1.6c-0.6,0.4,0.2,0.6,0.2,0.9c0,0-0.3,0.7-1,1c-0.4,0-1.4,0.3-1.2-1.1c0.1-0.5,0.4-1,0.8-1.9
			c1-2.2,1.9-3.8,2.3-4.7c0.3-0.7,0.4-1.3,0-2.2c-0.3-0.5-0.7-0.2-0.8,0.2c-0.1,0.4,0.5,1,0.1,1.6c-0.6,0.6-1.3,1-1.8,0.1
			c-0.5-0.9,0.2-1.8,0.9-3.2c0.7-1.5,1.6-4.8,1.1-5.2c-0.3-1.2-1.3-1.2-1.1-0.2c0.5,0.5,0.7,1,0,1.4c-0.6,0.2-1.3-0.3-1-1.4
			c0.2-1.1,0.4-4.4,0.3-5.7c-0.2-1.3-0.8-2.1-0.8-2.1c-0.4-0.4-0.9-0.1-0.5,0.8c0.5,0,1.2,1.3,0.4,1.8c-0.6,0.2-1.3,0.3-1.6-0.7
			c-0.7-1.1-0.3-4.7-0.2-6c-0.4-1.4-0.7-2.6-1.6-2c-0.7,0.6,0.5,0.8,0.6,1.4c-0.1,0.5-0.2,0.9-0.4,1.1c-0.7,0.1-1.9-0.5-1.6-3
			c-0.2-3.6-0.8-4-1.2-5.1l-1.1,0.4c0,0,0.8,0.8,0.7,1.4c-0.1,0.4,0,1-1,0.8c-0.4-0.2-0.9-1.4-0.9-1.4l-0.9,0.6c0,0,0.5,1.5,1.4,1.9
			c1.3,0.5,1.5-0.2,1.9-0.3c0,0,0.1,1.6,0.2,3.9c0.8,3.5,2.8,2.4,2.8,2.4s-0.5,3.9,0.1,5.3c0.6,1.3,2.4,1.3,2.6,0.6
			c-0.1,1.8-0.8,3.7-0.9,5.5c0,1.1,0.8,1.6,2.4,1.6c-0.5,1.9-1.5,3-2,4.2c-0.7,1.5,0,3.5,1.7,3.6c-0.9,1.2-1.5,2.2-1.9,3
			c-0.9,1.8-1.7,4,1.1,4.4c-1.4,1.4-2.9,3.1-4.1,4.7c-0.8,1.9-0.1,2.5,1.4,2.4c0.1,0.4-1.8,2-2.6,2.5c-2.5,1.7-2.2,2.9-1.5,3.9
			c-1.9,0.9-3.2,1.9-3.8,2.5c-1,1.1-0.6,2.4,0.5,3c0.8,0.4,1.3,0.4,2-0.2c1.1-1,1.6-2,1.1-2.3C30.8,101.7,30.4,102,30.4,102.5z"/>
		<path id="XMLID_152_" class="st6" d="M58.6,122.3l1.2,2.5l-5.2,1.2l-0.7-0.8l-0.8,1l-6.9,0.7l-0.7-0.9l-1,0.9l-6.7-0.4l-0.5-0.7
			l-1.3,0.6l-5.7-1.2l1.2-2.1C31.2,124.3,53.6,125.7,58.6,122.3z"/>
		<path id="XMLID_151_" class="st1" d="M59,123.8l-1.1-2c-5.7,1.2-16,2.7-26.1,0.8l-0.6,2c3.1,0.7,8,1.5,12.8,1.3
			C48.8,125.6,55.3,124.8,59,123.8z"/>
		<path class="st6" d="M40.9,130.9l-2-3.5l4.3,0L40.9,130.9L40.9,130.9z M41,129.3l0.8-1.2l-1.5,0L41,129.3z"/>
		<path class="st6" d="M31.3,129.9l-1.1-3.8l4.2,1.1L31.3,129.9L31.3,129.9z M31.7,128.4l1-0.9l-1.4-0.4L31.7,128.4z"/>
		<path class="st6" d="M50.2,130.9l-2.3-3.3l4.3-0.3L50.2,130.9L50.2,130.9z M50.1,129.3l0.7-1.2l-1.5,0.1L50.1,129.3z"/>
		<path class="st6" d="M59.8,129.1l-2.8-2.8l3.4-1l0.5,0.9L59.8,129.1L59.8,129.1z M59.4,127.6l0.5-1.3l-1.4,0.4L59.4,127.6z"/>
		<ellipse id="XMLID_142_" class="st6" cx="40.8" cy="132.5" rx="0.9" ry="0.8"/>
		
			<ellipse id="XMLID_141_" transform="matrix(-0.2478 0.9688 -0.9688 -0.2478 165.6931 134.2293)" class="st6" cx="30.7" cy="131.4" rx="0.8" ry="0.9"/>
		
			<ellipse id="XMLID_140_" transform="matrix(8.599019e-002 0.9963 -0.9963 8.599019e-002 177.8875 71.1432)" class="st6" cx="50.2" cy="132.5" rx="0.8" ry="0.9"/>
		
			<ellipse id="XMLID_139_" transform="matrix(0.2539 0.9672 -0.9672 0.2539 171.2126 39.4693)" class="st6" cx="60" cy="130.7" rx="0.8" ry="0.9"/>
		<ellipse id="XMLID_138_" class="st6" cx="36.2" cy="130.3" rx="0.7" ry="0.7"/>
		
			<ellipse id="XMLID_137_" transform="matrix(0.1302 0.9915 -0.9915 0.1302 169.2206 68.7822)" class="st6" cx="45.4" cy="130.8" rx="0.7" ry="0.7"/>
		
			<ellipse id="XMLID_136_" transform="matrix(0.2968 0.9549 -0.9549 0.2968 162.7154 38.7554)" class="st6" cx="55" cy="129.9" rx="0.7" ry="0.7"/>
		<path id="XMLID_135_" class="st6" d="M38.8,129.9c-1.9-1.7-4.8-1.2-4.9-1c1-1.1,1.9-1.6,2.9-1.5C37.9,127.6,38.6,128.8,38.8,129.9
			z"/>
		<path id="XMLID_134_" class="st6" d="M47.9,130.1c-2.1-1.5-4.9-0.6-4.9-0.3c0.8-1.2,1.6-1.9,2.7-1.8
			C46.7,127.9,47.6,129.1,47.9,130.1z"/>
		<path id="XMLID_133_" class="st6" d="M57.4,128.7c-2.3-1.1-4.9,0.2-4.9,0.5c0.6-1.3,1.3-2.1,2.3-2.3
			C55.9,126.8,56.9,127.7,57.4,128.7z"/>
		<path id="XMLID_132_" class="st9" d="M23.6,135.9l8.5-13.7c9.2,2.1,17.9,0.7,25.8-0.8l8.3,14.1"/>
		<path id="XMLID_131_" class="st10" d="M65.5,107.3c0,0.1-0.3-1.4-1.3-1.1c-0.9,0.2-1.3,1.5-0.9,2.2c1.4,2.3,4.9-0.6,3.1-2.6
			c-1.3-1.4-1.8-0.9-3.6-0.2c-1.8,0.7-6.4,11-6.3,16.2"/>
		<path id="XMLID_130_" class="st10" d="M63.1,107.6c0,0-2.6,4.1-3.5,6.6c-0.9,2.5-2.1,7.4-1.9,7.3"/>
		<path id="XMLID_129_" class="st11" d="M58,105.1c0,0-1.2-1.1-2.5,0.8c-1.4,1.9-5,15.5-4.7,16.5"/>
		<path id="XMLID_128_" class="st10" d="M55.5,106c-0.1-0.2-1.7-0.4-3,3.7c-1.2,4.1-3.2,13-3,13.1"/>
		<path id="XMLID_127_" class="st10" d="M54.1,106.7c0.1-0.4-1.7-0.3-3.2,4.7c-1.6,4.9-2.5,11.5-2.5,11.5"/>
		<line id="XMLID_126_" class="st10" x1="50.1" y1="110.8" x2="51.7" y2="107"/>
		<path id="XMLID_125_" class="st10" d="M53.1,106.8c0,0-0.5-2.1-1.9-0.2c-1.4,1.9-1.6,3.1-1.6,3.1"/>
		<path id="XMLID_124_" class="st10" d="M54.1,106.5c0,0-1.2-2.6-2.9-1.2c-1.6,1.4-2.2,3.6-2.2,3.6"/>
		<path id="XMLID_123_" class="st10" d="M54.7,106.2c-0.9-3.5-4.5-2.3-5.2-0.8c-0.7,1.5-1.3,2.7-1.1,2.7"/>
		<path id="XMLID_122_" class="st10" d="M50.2,104.4c0,0,0.3-2.2-1.1-2.8c-1.4-0.6-2.6-0.7-3.4-0.1c-0.8,0.6-2,2.9-2,2.9"/>
		<path id="XMLID_121_" class="st10" d="M47.1,106.7c0,0,0.7-1.3,0.8-1.9c0.1-0.6-0.2-2.5-1.3-1.4c-1.1,1.1-1.1,2.1-1.1,2.1"/>
		<path id="XMLID_120_" class="st10" d="M47.8,107.4c0,0,1.1-2.6,1.2-3.4c0.1-0.8-0.5-2-1.4-2c-0.9,0-1.5,0-2.1,0.9
			c-0.5,0.9-0.9,1.9-0.9,1.9"/>
		<path id="XMLID_119_" class="st10" d="M43.2,104c0.6-1.3,1.2-4.6-1.1-4.4c-1.3,0.1-2.5,1.7-2.7,2.9"/>
		<path id="XMLID_118_" class="st11" d="M42.2,103.4c0,0,1.2-1.3,0.5-2.2c-0.6-0.9-1.9,0.1-2.2,1.6"/>
		<path id="XMLID_117_" class="st10" d="M32.1,121.9c0.1-3.9,0.1-8.4,0.5-13.2c1.5-4.3,3.4-5.8,5.4-5.9"/>
		<path id="XMLID_116_" class="st10" d="M36.1,103.4c0,0-0.8-1.9-1.4-1.6c-0.6,0.2,0.2,2.2,0.4,2.6"/>
		<path id="XMLID_115_" class="st10" d="M37.1,103.1c0,0-0.9-3.4-2.6-2.5c-1.6,0.8-0.7,2.9,0.1,4.2"/>
		<path id="XMLID_114_" class="st10" d="M33.1,104.6c0,0-0.7-0.4-0.6,0.9c0.1,1.3,0.5,2.1,0.5,2.1l-0.3,0.9c0,0-1.1-1.4-1.2-2.3
			c-0.1-0.9-1.1-2.3,1.5-2.7"/>
		<path id="XMLID_113_" class="st10" d="M32.9,102.8c-3.5-0.6-3,4.3-1.5,5.6c1.5,1.3,1.1,1.8,1.1,1.8"/>
		<path id="XMLID_101_" class="st10" d="M32.4,113.3c0,0-1.2-1.7-1-4.6"/>
		<path id="XMLID_89_" class="st10" d="M32.2,115.9c0,0-1.5-1.9-1.6-3.2c-0.2-1.2-0.5-3,0.1-4.8"/>
		<path class="st7" d="M43,114.6c-1.9,0.9-2.4,1.9-2.4,2.1c0,0.3,0.2,0.8,0.1,1c-0.1,0.2-0.2,0.4-0.4,0.6c-0.2,0.2,0.3,0.5,0.4,0.4
			c0-0.1,0.1-0.1,0.4,0c0.3,0.1,0.5,0.5,1.6,0.5c1.1,0.1,1.5,0,2.5-0.5c1-0.4,2.4-1.7,2.4-1.7s-0.2-0.5-1-0.5
			c-0.9,0-0.6-0.1-1.1-0.4c-0.2-0.3-1.8-0.5-2.6-0.6c-0.3,0-0.2,0-0.6-0.1C42.3,115.3,43,114.6,43,114.6L43,114.6z M46.7,117.4
			c0,0-1,0.8-2.4,1.3c-1.4,0.5-2.7,0-2.7,0s-0.6-0.4-0.1-0.5c0.5-0.1,1.6,0.1,3-0.4c1.4-0.5,1.8-0.8,1.8-0.8S47,116.9,46.7,117.4
			L46.7,117.4z M44.4,117.1l-0.7,0c0,0,0-0.7-0.6-0.7c-0.6,0-0.4,0.6-0.6,0.7l-0.5,0c0.3-0.8,0.4-1.2,1.3-1.1
			C43.9,116.1,44.5,116.9,44.4,117.1L44.4,117.1z M45.7,116.8c0,0-0.9,0.2-1,0.2c-0.2,0,0-0.3-0.1-0.5c-0.1-0.1,0.5-0.1,0.7,0.1
			C45.5,116.8,45.7,116.8,45.7,116.8L45.7,116.8z M41.7,117.1c-0.1,0-0.4,0-0.5-0.2c0-0.4,0.2-0.4,0.3-0.6c0.1-0.2,0.5-0.2,0.5-0.2
			s0,0.4-0.1,0.4C41.7,116.6,41.7,117.1,41.7,117.1L41.7,117.1z M37.2,119.6c0,0,0,1-0.4,0.9c-0.4-0.1-1-0.2-1.7,0.1
			c-0.7,0.3-0.6,0.1-1.3,0.1c-0.7,0-0.3,0-0.8-0.1c-0.5-0.1-0.9-0.3-0.9-0.3l-0.1-1.2l-0.7-0.4c0,0,0.2-0.8,0.6-0.9
			c0.3-0.1,0.3-0.7,0.3-0.7s-0.5-1,0.1-1.1c0.6-0.1,1.2-0.5,2.7-0.3c1.5,0.1,1.2-0.1,1.2-0.3c-0.1-0.2-0.1-1.4-0.2-1.7
			c-0.1-0.3-0.3-0.8-0.3-1.1c0-0.3,0.3-0.9,0.7-0.9s0.7,0.1,0.3,0.4c-0.4,0.3-0.4,0.2-0.4,0.6c0,0.4,0.5,2.7,0.7,3.4
			c0.2,0.7,0.4,2,0.3,2.5C37.1,118.8,37,118.9,37.2,119.6L37.2,119.6z M36.4,118.2c-0.5,1.3-3.7,0.7-3.9,0.6l0.1,0.4
			c-0.1,0,0.4,0.4,1.6,0.4c1,0.1,1.4-0.1,2.1-0.2c0.7-0.1,0.2-0.5,0.4-0.7C36.8,118.4,36.4,118.2,36.4,118.2L36.4,118.2z
			 M35.9,117.7c0,0-0.4,0.2-1.1,0.4c-0.8,0.2-2.2-0.1-2.2-0.1s-0.1,0.3,0.3,0.5c0.4,0.2,0.9,0.2,1.5,0.2c0.6,0,0.7,0.1,1.5-0.5
			C36.7,117.6,35.9,117.7,35.9,117.7L35.9,117.7z M35.3,116.9c0-0.3-0.2-0.6-0.3-0.8c-0.1-0.2-1-0.3-1.3-0.2
			c-0.3,0.2-0.5,1.2-0.5,1.2l0.4,0.1c0,0-0.1-0.2,0-0.7c0.1-0.4,0.9-0.4,1.1-0.2c0.3,0.2,0.2,0.7,0.2,0.7L35.3,116.9L35.3,116.9z
			 M35.7,117l0.7-0.2c0,0,0.2-0.1,0-0.3c-0.2-0.2,0-0.4-0.5-0.4C35.5,116,35.6,116.4,35.7,117L35.7,117z M33.1,116.5
			c-0.2,0-0.2-0.1-0.5-0.1l-0.2,0.4c0,0,0.2,0.3,0.5,0.2C33.2,116.9,33.1,116.5,33.1,116.5L33.1,116.5z M40.6,113
			c0.1,0.1,0.7-1.2,0-1.4c-0.6-0.1-0.5-0.1-1.2,0.3c-0.8,0.4-0.8,0.4-1.1,0.3c-0.3-0.1-0.5-0.5-0.2-0.6c0.3-0.1,0.8,0,1-0.3
			c0.3-0.3,1.6-0.4,2,0.1C41.2,111.7,41.9,112.4,40.6,113L40.6,113z M41.4,109c-0.6,0.3-2.2,0.4-2.2,0.7c0.2,1.7,2.5-0.2,3.6-0.7
			c1.2-0.5,1.8,0.4,1.5,1.1c-0.3,0.7-1.2,1.1-1.1,1.1c0.1,0,1.5-0.6,1.6-1.1C45.3,107.4,42.5,108.5,41.4,109L41.4,109z M36.1,109.1
			c0.5,0.2,1.5,0.4,1.5,0.7c-0.2,1.5-1.5,0.1-2.4-0.3c-0.6-0.3-1.7,0.1-1.6,0.8c0.1,0.7,0.5,0.7,0.5,0.7c-0.1,0-0.8-0.5-0.9-0.9
			C33.1,108.1,35.3,108.8,36.1,109.1L36.1,109.1z M41.4,108.4c0,0-0.8,0.1-1.4,0.1c-0.4,0.3-1.1,0.4-1.2,0.2
			c-0.2-0.3-0.3-0.2-0.9,0.1c-0.7,0.2-0.8-0.1-0.8-0.1l-1.3-0.2l-0.1-0.7c0,0,0.9,0.4,1.7,0.1c0.8-0.4,1.3-0.2,1.9-0.1
			c0.6,0.2,2.3-0.2,2.3-0.2L41.4,108.4L41.4,108.4z M37.2,106.9c0.9-0.4,2.6-0.2,2.6,0c0,0-0.9-0.7-1.5-0.5
			C37.6,106.6,37.2,106.9,37.2,106.9z"/>
		<path id="XMLID_70_" class="st1" d="M45.2,84c0,0.5-1.8,8.7-2.4,10.3c-0.6,1.6-2,4.6-2.6,4.8c-0.5,0.2-2.2,3.8-2.2,3.8l-1.5-3.1
			c0,0,3-5,3.8-7.2c0.8-2.1,2.4-8.2,2.2-8.6C42.6,83.7,45.2,83.9,45.2,84z"/>
		<path id="XMLID_69_" class="st3" d="M36.6,99.8c0,0,3-5,3.8-7.2c0.8-2.1,2.4-8.2,2.2-8.6c0-0.4,2.7-0.2,2.7-0.1
			c0,0.5-1.8,8.7-2.4,10.3c-0.6,1.6-2,4.6-2.6,4.8"/>
		<path class="st2" d="M51.9,91c0,0,1.3-0.9,0.9-1.9c-0.4-1.1-0.8-0.7-1-0.8c-0.3,0-0.7,0.6-0.3,1.2C52,89.9,52.2,90.6,51.9,91
			L51.9,91z M47,98.7c0,0-1.4,0.6-2-0.3c-0.6-1-0.5-1.7,0.6-1.8c1,0,0.9,0.6,1,0.8c0.1,0.2,0.4,0.1,0.8-0.3c0.4-0.4,0.9-0.5,0.3,0.6
			C47.2,98.7,47,98.7,47,98.7L47,98.7z M46,94.1c0-0.3,0.2-0.5,0.5-0.5c0.3,0,0.5,0.2,0.5,0.5c0,0.3-0.2,0.5-0.5,0.5
			C46.2,94.7,46,94.4,46,94.1L46,94.1z M49.7,90.2c-0.3,0-0.5,0.2-0.5,0.5s0.2,0.5,0.5,0.5c0.3,0,0.5-0.2,0.5-0.5S50,90.2,49.7,90.2
			L49.7,90.2z M49.7,92.9c-0.6,0-1.2,0.5-1.2,1.2c0,0.6,0.5,1.2,1.2,1.2c0.6,0,1.2-0.5,1.2-1.2C50.8,93.5,50.3,92.9,49.7,92.9
			L49.7,92.9z M53.1,94.1c0-0.3-0.2-0.5-0.5-0.5S52,93.9,52,94.1c0,0.3,0.2,0.5,0.5,0.5S53.1,94.4,53.1,94.1L53.1,94.1z M46.5,95.7
			l-1.4-1.6l1.2-1.4c1.7,1.4,3-0.5,1.6-1.9l1.6-2l1.8,2c-1,0.9-1,3.3,1.5,2l1.2,1.3l-1.4,1.6c-0.4-0.5-0.9-0.6-1.6-0.5
			c-1.3,1.1-0.2,2.3,0.1,3.1l-1.6,1.4l-1.7-1.5C49.9,95.5,47.5,94.5,46.5,95.7L46.5,95.7z M49.6,98.8c0.3,0,0.5-0.2,0.5-0.5
			c0-0.3-0.2-0.5-0.5-0.5c-0.3,0-0.5,0.2-0.5,0.5C49.1,98.5,49.3,98.8,49.6,98.8L49.6,98.8z M55.1,100.7c0,0,0.4,1-0.7,1.3
			c-0.9,0.5-0.4,1.1-0.2,1.2c0.1,0.1,1.8,0.4,2-0.8c0.2-1.2-0.2-1.9-0.6-2.5c-0.4-0.5-1.1-1.5-2.5-1.5c-1.5,0-1.4,0.2-1.6,0.4
			c-0.2,0.2,0.1,0.2,0.7,0.2c0.5,0,1.7-0.1,1.4,0.8c-0.2,0.9-0.5,0.5-1,0.7c-0.6,0.1-1.1,0.4-0.7,1.2c0.4,0.8,1.5,0.5,1.8-0.2
			c0.3-0.7,0.7-1.4,0.6-1.5C54.2,99.9,55.1,100.3,55.1,100.7z"/>
		<path id="XMLID_59_" class="st2" d="M50,87.4l1.9-1.7c0.3-1.4-0.1-4.1,0.9-4.1c0.5,0.2,2,0.6,1.4-1.1c-0.7-0.6-2.6-1-3.3,1.6
			l-0.2,2.7c-0.2,0.5-1.1,0.4-1.1-0.1c0.2-1.9,0.1-2.8-0.3-3.6c-0.3-1.2-1-1.4-2-1.1c-1,0.5-0.8,1.9,0.3,1.7c0.8,0,0.7,2.1,0.8,3.7
			L50,87.4z"/>
		<path id="XMLID_58_" class="st2" d="M22.8,73.9c-1,0-1.8-0.8-1.8-1.8c0-1,0.8-1.8,1.8-1.8c1,0,1.8,0.8,1.8,1.8
			C24.6,73.1,23.8,73.9,22.8,73.9z"/>
		<path id="XMLID_57_" class="st12" d="M21.1,72.3c0.4-0.9,0.7-0.9,1.2-0.9c0.2,0,0.8,0.3,1.1,1c-0.8-0.6-0.8-0.7-1.2-0.7
			C21.8,71.7,21.5,71.9,21.1,72.3z"/>
		<polyline id="XMLID_56_" class="st13" points="25.3,86.7 25.3,123.9 22.1,127 18.9,123.8 18.9,86.2 		"/>
		<polygon id="XMLID_55_" class="st7" points="22.6,86.4 22.1,120.1 21.8,86.6 		"/>
		<path id="XMLID_54_" class="st2" d="M16.9,86.1l8.3,0.6c0,0,3.9-0.4,4.3-1.2c0.4-0.9,0.8-2.3-0.2-2.7c-1-0.4-2-0.5-2.4,0.2
			c-0.3,0.7-0.7,1.8-0.7,1.8L17,84.3L16.9,86.1z"/>
		<path id="XMLID_53_" class="st14" d="M34.4,81.8c0,0,1.1-7.7,0.5-8.2c-0.6-0.5-3.8-3.6-4.7-5.5c-0.9-1.9-2.5-5.1-2-9.2
			c0.6-4.1,1-3.8,1-3.8l-3-4.4c-3.7,1.7-6.7,3.9-9,6.7c11.1,6.5,14.7,14.9,16,23.8L34.4,81.8z"/>
		<path id="XMLID_52_" class="st11" d="M34.1,46.5l-7.8,4.2c-3.7,1.7-6.7,3.9-9,6.7"/>
		<path id="XMLID_51_" class="st7" d="M29.1,55.1c0.1,0.2,0.1-0.2,0.2,0c3.5,5.2,5.2,12,5.7,18.6l-0.4-0.5L34.5,72l-2.1-2.2l1.3-1
			l0.5,0.7c-0.2-1.3-0.3-2.1-0.8-2.5l-0.7,0.2l0.5,0.9l-1.6,0.7l-1.5-2.7l1.7-0.5l0.3,0.6l0.7-0.4l-0.7-2.4l-1.1,0.1l0.3,1.3
			l-1.6,0.2c-0.3-1-0.5-2.3-0.7-3.7l1.7,0l0.1,1.1h1l-0.1-1.9L31,58.8l-0.1,1.5l-1.6,0l0.5-3.9L29.1,55.1z"/>
		<path id="XMLID_50_" class="st2" d="M17.1,63.6l0.3-0.1c2.4-0.6,5.7,4.7,7.5,6.7c1.8,2.1,3.3,8.5,3.3,8.5l5.1,2.6
			c0,0-1.6-9.8-5.1-14.2c-3.5-4.4-7.8-8.9-11.2-9.8L17.1,63.6z"/>
		<path id="XMLID_49_" class="st15" d="M17.1,63.6l0.3-0.1c2.4-0.6,5.7,4.7,7.5,6.7c1.8,2.1,3.3,8.5,3.3,8.5"/>
		<path id="XMLID_48_" class="st16" d="M33.3,81.4c0,0-1.6-9.8-5.1-14.2c-3.5-4.4-7.8-8.9-11.2-9.8"/>
		<path id="XMLID_47_" class="st5" d="M32,80.7c-1.4-10.8-6.8-17.4-14.7-21.6"/>
		<path id="XMLID_46_" class="st12" d="M27,72c1-0.8,2.3-0.2,2.6-0.1c0.3,0.1,0.6,1.1,0.6,1.8c0.1,0.6-2,1.7-2,1.7
			c0.4-0.5,0.8-1.1,1-1.8l-1.7,0.2c-0.2,0-0.2-0.4-0.1-0.5l1.5-0.8C28.8,72,28,72,27,72z"/>
		<path id="XMLID_45_" class="st12" d="M28.5,76.4c1.1-0.8,2.3-0.1,2.6,0.1c0.3,0.1,0.5,1.2,0.5,1.8c0,0.6-1.9,1.5-1.9,1.5
			c0.4-0.5,0.7-0.9,0.9-1.6l-1.7,0.1c-0.2-0.1-0.2-0.4,0-0.5l1.6-0.7C30.3,76.4,29.4,76.4,28.5,76.4z"/>
		<path id="XMLID_44_" class="st12" d="M24.6,68.3c0.9-1,2.3-0.6,2.6-0.5c0.3,0.1,0.8,1,0.9,1.6c0.2,0.6-1.7,2.1-1.7,2.1
			c0.3-0.6,0.6-1.2,0.6-1.9L25.5,70c-0.2,0-0.3-0.4-0.1-0.5l1.4-1C26.4,68,25.5,68.1,24.6,68.3z"/>
		<path id="XMLID_43_" class="st12" d="M21.5,64.7c0.7-1.1,2.1-1,2.4-1c0.3,0,0.9,0.9,1.2,1.4c0.3,0.6-1.3,2.3-1.3,2.3
			c0.2-0.6,0.4-1.3,0.3-2l-1.5,0.8c-0.2,0-0.4-0.3-0.2-0.5l1.1-1.3C23.2,64.1,22.4,64.3,21.5,64.7z"/>
		<path id="XMLID_42_" class="st12" d="M17.9,62.2c0.4-1.3,1.8-1.5,2.1-1.6c0.3,0,1.1,0.6,1.6,1.1c0.4,0.5-0.6,2.6-0.6,2.6
			c0-0.7,0-1.4-0.3-2l-1.3,1.1c-0.2,0.1-0.4-0.2-0.3-0.4l0.8-1.5C19.3,61.2,18.6,61.6,17.9,62.2z"/>
		<path id="XMLID_41_" class="st5" d="M31.2,91.7c0,0-3.5-0.3-2.1,3.4"/>
		<path id="XMLID_40_" class="st5" d="M31.6,90.6c0,0-5.8-1-3.2,5.4"/>
		<path id="XMLID_39_" class="st12" d="M25.4,97.6c2.4-2.2,0.1-4.2,0-4.2L25.4,97.6z"/>
		<path id="XMLID_38_" class="st2" d="M67.2,104.2l-1.7,0.7l-0.9-0.3l-0.7-0.8l-1.5,0.3l-0.8-0.5l-1.1,0.3h-1.1
			c-3.7-5.8-5.5-13-6.1-21.3h5C59.7,90.2,62.4,97.5,67.2,104.2z"/>
		<path id="XMLID_37_" class="st17" d="M64.4,104.1c-3.3-5.4-6.3-11.4-7.3-20.1h-2.9c1,7.3,2.7,14,5.7,19.9l1.7-0.2l0.8,0.2
			L64.4,104.1z"/>
		<rect id="XMLID_36_" x="42" y="73.7" class="st1" width="14.8" height="5.7"/>
		<path id="XMLID_35_" class="st2" d="M49.5,73.8c1.5,0,2.7,1.2,2.7,2.7s-1.2,2.7-2.7,2.7c-1.5,0-2.7-1.2-2.7-2.7S48,73.8,49.5,73.8
			z"/>
		<path id="XMLID_34_" class="st2" d="M49.5,74.7c1,0,1.9,0.8,1.9,1.9c0,1-0.8,1.9-1.9,1.9c-1,0-1.9-0.8-1.9-1.9
			C47.7,75.5,48.5,74.7,49.5,74.7z"/>
		<circle id="XMLID_33_" class="st6" cx="49.5" cy="76.6" r="0.9"/>
		<path id="XMLID_32_" class="st10" d="M62,49.1c-0.2,0.9,1.4,5,4.4,2.8c1.3-0.9,0.2-6-0.7-5.8"/>
		<path id="XMLID_31_" class="st10" d="M45.1,102.1c0,0,0.2-2.5-1.1-3.1c-1.3-0.6-2.2-1.4-3.5-0.2c-1.8,1.6-2.5,4.4-2.4,4.1"/>
		<path id="XMLID_30_" class="st10" d="M37.7,102.9c0.2-0.9-1.4-5-4.4-2.8c-1.3,0.9-0.2,6,0.7,5.8"/>
		<path id="XMLID_29_" class="st10" d="M64.5,104.8c0,0-0.4-2.5-3.7,0.5c-3.3,3.1-6.2,16.5-5.9,16.5"/>
		<path id="XMLID_28_" class="st10" d="M62.4,104.2c0,0-1.1-2-3.6,1.8c-2.4,3.8-5.1,15.3-5.3,16.2"/>
		<path id="XMLID_27_" class="st10" d="M60.4,104c0,0-0.9-1-3.1,1.9c-2.1,2.9-4.6,12.7-5.2,16.6"/>
		<path id="XMLID_26_" class="st10" d="M34.2,44.7c0-0.1,0.3,1.4,1.3,1.1c0.9-0.2,1.3-1.5,0.9-2.2c-1.4-2.3-4.9,0.6-3.1,2.6
			c1.3,1.4,1.8,0.9,3.6,0.2c1.8-0.7,6.4-11,6.3-16.2"/>
		<path id="XMLID_25_" class="st10" d="M35.2,47.2c0,0,0.4,2.5,3.7-0.5c3.3-3.1,6.2-16.5,5.9-16.5"/>
		<path id="XMLID_24_" class="st10" d="M37.3,47.8c0,0,1.1,2,3.6-1.8c2.4-3.8,5.1-15.3,5.3-16.2"/>
		<path id="XMLID_23_" class="st10" d="M39.2,48c0,0,0.9,1,3.1-1.9c2.1-2.9,4.6-12.7,5.2-16.6"/>
		<path id="XMLID_22_" class="st10" d="M54.6,49.9c0,0-0.2,2.5,1.1,3.1c1.3,0.6,2,1.1,3.5,0.2c1.5-0.9,2.1-4.1,2.1-4.1"/>
		<path class="st18" d="M17.2,136.5h65.6V15.1H16.7v121.4H17.2L17.2,136.5z M17.7,135.5L17.7,135.5c0-1,0-118.4,0-119.4
			c1,0,63.1,0,64.1,0c0,1,0,118.4,0,119.4C80.7,135.5,18.7,135.5,17.7,135.5z"/>
		<polygon id="XMLID_19_" class="st6" points="15.6,22.5 15.6,24.4 10.9,24.4 10.9,22.5 12.6,22.5 9.9,16.4 8.3,18.9 8.3,22.5 
			9.8,22.5 9.8,24.4 4.8,24.4 4.8,22.5 6.2,22.5 6.2,8.9 4.8,8.9 4.8,7.1 9.5,7.1 9.5,8.9 8.3,8.9 8.3,15.2 12.2,8.9 10.9,8.9 
			10.9,7.1 15.6,7.1 15.6,8.9 14.6,8.9 11.2,14.4 14.8,22.5 		"/>
		<polygon id="XMLID_18_" class="st6" points="83.8,129.1 83.8,127.2 88.5,127.2 88.5,129.1 86.8,129.1 89.5,135.2 91.1,132.6 
			91.1,129.1 89.6,129.1 89.6,127.2 94.6,127.2 94.6,129.1 93.2,129.1 93.2,142.7 94.6,142.7 94.6,144.5 89.9,144.5 89.9,142.7 
			91.1,142.7 91.1,136.4 87.2,142.7 88.5,142.7 88.5,144.5 83.8,144.5 83.8,142.7 84.8,142.7 88.3,137.2 84.6,129.1 		"/>
		<g>
			<path id="XMLID_17_" class="st19" d="M8.7,40.1c0.9-0.9,1.1-2.7,1.1-3.1s-0.1-0.5-0.1-0.5c-0.1,0-0.2,0.1-0.2,0.3
				c-0.2,1-0.9,1.4-1.3,1.5c-1.6,0.3-2.2-0.8-2.3-1.1c-0.8-1.6,1-4,1.4-4.3c1.8-2.1,3-4.4,3-4.4s1.2,2.3,3,4.4
				c0.3,0.4,2.2,2.8,1.4,4.3c-0.2,0.3-0.7,1.3-2.3,1.1c-0.4-0.1-1.1-0.5-1.3-1.5c0-0.2-0.1-0.3-0.2-0.3c-0.1,0-0.2,0.1-0.1,0.5
				s0.2,2.2,1.1,3.1H8.7z"/>
		</g>
		<g>
			<path id="XMLID_16_" class="st19" d="M90.7,111.6c-0.9,0.9-1.1,2.7-1.1,3.1c-0.1,0.4,0.1,0.5,0.1,0.5c0.1,0,0.2-0.1,0.2-0.3
				c0.2-1,0.9-1.4,1.3-1.5c1.6-0.3,2.2,0.8,2.3,1.1c0.8,1.6-1,4-1.3,4.3c-1.8,2.1-3,4.4-3,4.4s-1.2-2.3-3-4.4
				c-0.3-0.4-2.2-2.8-1.4-4.3c0.2-0.3,0.7-1.3,2.3-1.1c0.3,0.1,1.1,0.5,1.3,1.5c0,0.2,0.1,0.3,0.2,0.3c0.1,0,0.2-0.1,0.2-0.5
				c-0.1-0.4-0.2-2.2-1.1-3.1H90.7z"/>
		</g>
	</g>
</g>
</svg>
