<?xml version="1.0" encoding="utf-8"?>
<!-- Generator: Adobe Illustrator 19.0.0, SVG Export Plug-In . SVG Version: 6.00 Build 0)  -->
<svg version="1.1" xmlns="http://www.w3.org/2000/svg" xmlns:xlink="http://www.w3.org/1999/xlink" x="0px" y="0px"
	 viewBox="0 0 99.4 151.6" style="enable-background:new 0 0 99.4 151.6;" xml:space="preserve">
<style type="text/css">
	.st0{fill:#FFFFFF;stroke:#000000;stroke-width:0.25;stroke-miterlimit:2.6131;}
	.st1{fill-rule:evenodd;clip-rule:evenodd;fill:#231F20;}
	.st2{fill:#231F20;}
</style>
<g id="Calque_2">
	<path id="XMLID_15_" class="st0" d="M99.3,5.3v140.9c0,2.9-2.3,5.2-5.2,5.2H5.3c-2.9,0-5.2-2.3-5.2-5.2V5.3c0-2.9,2.3-5.2,5.2-5.2
		h88.7C96.9,0.1,99.3,2.5,99.3,5.3z"/>
</g>
<g id="Calque_1">
	<g id="XMLID_16_">
		<g id="XMLID_51_">
			<g id="XMLID_52_">
				<g id="XMLID_59_">
					<path id="XMLID_65_" class="st1" d="M27.6,16c0,0-1.9,3.9-5,8.1c-3.4,4.5-5.2,7-5.2,10.3c0,2.8,2.2,4.7,4.3,4.7
						c2.1,0,3.5-0.8,4.2-3.5c0.3-1.1,0.9-0.9,0.8,0.3c-0.2,1.4-0.2,4.6-2.5,7.4H31c-2.3-2.8-2.3-6-2.5-7.4c-0.2-1.2,0.5-1.4,0.8-0.3
						c0.7,2.8,2.1,3.5,4.2,3.5c2.1,0,4.3-1.8,4.3-4.7c0-3.3-1.8-5.9-5.2-10.3C29.5,19.9,27.6,16,27.6,16z"/>
					<path id="XMLID_60_" class="st1" d="M71.8,16c0,0-1.9,3.9-5,8.1c-3.4,4.5-5.2,7-5.2,10.3c0,2.8,2.2,4.7,4.3,4.7
						c2.1,0,3.5-0.8,4.2-3.5c0.3-1.1,0.9-0.9,0.8,0.3c-0.2,1.4-0.2,4.6-2.5,7.4h6.9c-2.3-2.8-2.3-6-2.5-7.4
						c-0.2-1.2,0.5-1.4,0.8-0.3c0.7,2.8,2.1,3.5,4.2,3.5c2.1,0,4.3-1.8,4.3-4.7c0-3.3-1.8-5.9-5.2-10.3C73.7,19.9,71.8,16,71.8,16z"
						/>
				</g>
				<g id="XMLID_56_">
					<path id="XMLID_58_" class="st1" d="M27.6,62.1c0,0-1.9,3.9-5,8.1c-3.4,4.5-5.2,7-5.2,10.3c0,2.8,2.2,4.7,4.3,4.7
						c2.1,0,3.5-0.8,4.2-3.5c0.3-1.1,0.9-0.9,0.8,0.3c-0.2,1.4-0.2,4.6-2.5,7.4H31c-2.3-2.8-2.3-6-2.5-7.4c-0.2-1.2,0.5-1.4,0.8-0.3
						c0.7,2.8,2.1,3.5,4.2,3.5c2.1,0,4.3-1.8,4.3-4.7c0-3.3-1.8-5.9-5.2-10.3C29.5,66.1,27.6,62.1,27.6,62.1z"/>
					<path id="XMLID_57_" class="st1" d="M71.8,62.1c0,0-1.9,3.9-5,8.1c-3.4,4.5-5.2,7-5.2,10.3c0,2.8,2.2,4.7,4.3,4.7
						c2.1,0,3.5-0.8,4.2-3.5c0.3-1.1,0.9-0.9,0.8,0.3c-0.2,1.4-0.2,4.6-2.5,7.4h6.9c-2.3-2.8-2.3-6-2.5-7.4
						c-0.2-1.2,0.5-1.4,0.8-0.3c0.7,2.8,2.1,3.5,4.2,3.5c2.1,0,4.3-1.8,4.3-4.7c0-3.3-1.8-5.9-5.2-10.3
						C73.7,66.1,71.8,62.1,71.8,62.1z"/>
				</g>
				<g id="XMLID_53_">
					<path id="XMLID_55_" class="st1" d="M71.8,135.6c0,0,1.9-3.9,5-8.1c3.4-4.5,5.2-7,5.2-10.3c0-2.8-2.2-4.7-4.3-4.7
						c-2.1,0-3.5,0.8-4.2,3.5c-0.3,1.1-0.9,0.9-0.8-0.3c0.2-1.4,0.2-4.6,2.5-7.4h-6.9c2.3,2.8,2.3,6,2.5,7.4
						c0.2,1.2-0.5,1.4-0.8,0.3c-0.7-2.8-2.1-3.5-4.2-3.5c-2.1,0-4.3,1.8-4.3,4.7c0,3.3,1.8,5.9,5.2,10.3
						C69.9,131.7,71.8,135.6,71.8,135.6z"/>
					<path id="XMLID_54_" class="st1" d="M27.6,135.6c0,0,1.9-3.9,5-8.1c3.4-4.5,5.2-7,5.2-10.3c0-2.8-2.2-4.7-4.3-4.7
						c-2.1,0-3.5,0.8-4.2,3.5c-0.3,1.1-0.9,0.9-0.8-0.3c0.2-1.4,0.2-4.6,2.5-7.4h-6.9c2.3,2.8,2.3,6,2.5,7.4
						c0.2,1.2-0.5,1.4-0.8,0.3c-0.7-2.8-2.1-3.5-4.2-3.5c-2.1,0-4.3,1.8-4.3,4.7c0,3.3,1.8,5.9,5.2,10.3
						C25.8,131.7,27.6,135.6,27.6,135.6z"/>
				</g>
			</g>
		</g>
		<g id="XMLID_22_">
			<g id="XMLID_23_">
				<g id="XMLID_24_">
					<g id="XMLID_25_">
						<g id="XMLID_38_">
							<path id="XMLID_40_" class="st1" d="M10.4,14.4c0.6-0.1,3.4,0.3,3.5,4.3c0,1.4-0.9,3.8-3.2,3.8c-0.8,0-3.2-0.9-3.2-4.2
								C7.5,17.5,7.9,14.7,10.4,14.4L10.4,14.4z M7.3,8.4c-2.8,2.9-1.9,10.4-1.6,11.3C7,25,11,24.6,11.8,24.4c3.5-1,4-4.9,4-5.5
								c-0.1-5.1-3.8-6.1-4.4-6.2C9.1,12.2,7.2,14,7.2,14c0-1.3,0.6-3.3,0.8-3.7c1-1.8,2.2-1.6,3-1.5c1.6,0.1,2.6,1.9,2.6,1.9
								l1.6-0.6c-0.8-2.2-2.8-3.1-4.7-3C9.1,7.1,8,7.6,7.3,8.4L7.3,8.4z"/>
						</g>
						<g id="XMLID_26_">
							<path id="XMLID_27_" class="st1" d="M89.1,137.2c-0.6,0.1-3.4-0.3-3.5-4.3c0-1.4,0.9-3.8,3.2-3.8c0.8,0,3.2,0.9,3.2,4.2
								C92,134.1,91.5,136.9,89.1,137.2L89.1,137.2z M92.1,143.2c2.8-2.9,1.9-10.4,1.6-11.3c-1.3-5.3-5.3-4.9-6.1-4.7
								c-3.5,1-4,4.9-4,5.5c0.1,5.1,3.8,6.1,4.4,6.2c2.3,0.4,4.2-1.3,4.2-1.3c0,1.3-0.6,3.3-0.8,3.7c-1,1.8-2.2,1.6-3,1.5
								c-1.6-0.1-2.6-1.9-2.6-1.9l-1.6,0.6c0.8,2.2,2.8,3.1,4.7,3C90.3,144.5,91.4,144,92.1,143.2L92.1,143.2z"/>
						</g>
					</g>
				</g>
			</g>
		</g>
		<g id="XMLID_17_">
			<g id="XMLID_20_">
				<path id="XMLID_21_" class="st2" d="M8.9,40.1c0.9-0.9,1.1-2.7,1.1-3.1c0-0.4-0.1-0.5-0.1-0.5c-0.1,0-0.2,0.1-0.2,0.3
					c-0.2,1-0.9,1.4-1.3,1.5c-1.6,0.3-2.2-0.8-2.3-1.1c-0.8-1.6,1-4,1.4-4.3c1.8-2.1,3-4.4,3-4.4s1.2,2.3,3,4.4
					c0.3,0.4,2.2,2.8,1.4,4.3c-0.2,0.3-0.7,1.3-2.3,1.1c-0.4-0.1-1.1-0.5-1.3-1.5c0-0.2-0.1-0.3-0.2-0.3c-0.1,0-0.2,0.1-0.1,0.5
					c0,0.4,0.2,2.2,1.1,3.1H8.9z"/>
			</g>
			<g id="XMLID_18_">
				<path id="XMLID_19_" class="st2" d="M90.5,111.6c-0.9,0.9-1.1,2.7-1.1,3.1c-0.1,0.4,0.1,0.5,0.1,0.5c0.1,0,0.2-0.1,0.2-0.3
					c0.2-1,0.9-1.4,1.3-1.5c1.6-0.3,2.2,0.8,2.3,1.1c0.8,1.6-1,4-1.4,4.3c-1.8,2.1-3,4.4-3,4.4s-1.2-2.3-3-4.4
					c-0.3-0.4-2.2-2.8-1.4-4.3c0.2-0.3,0.7-1.3,2.3-1.1c0.4,0.1,1.1,0.5,1.3,1.5c0,0.2,0.1,0.3,0.2,0.3c0.1,0,0.2-0.1,0.1-0.5
					c0-0.4-0.2-2.2-1.1-3.1H90.5z"/>
			</g>
		</g>
	</g>
</g>
</svg>
