<?xml version="1.0" encoding="utf-8"?>
<!-- Generator: Adobe Illustrator 19.0.0, SVG Export Plug-In . SVG Version: 6.00 Build 0)  -->
<svg version="1.1" xmlns="http://www.w3.org/2000/svg" xmlns:xlink="http://www.w3.org/1999/xlink" x="0px" y="0px"
	 viewBox="0 0 99.4 151.6" style="enable-background:new 0 0 99.4 151.6;" xml:space="preserve">
<style type="text/css">
	.st0{fill:#FFFFFF;stroke:#000000;stroke-width:0.25;stroke-miterlimit:2.6131;}
	.st1{fill-rule:evenodd;clip-rule:evenodd;fill:#231F20;}
	.st2{fill:#231F20;}
</style>
<g id="Calque_2">
	<path id="XMLID_15_" class="st0" d="M99.3,5.3v140.9c0,2.9-2.3,5.2-5.2,5.2H5.3c-2.9,0-5.2-2.3-5.2-5.2V5.3c0-2.9,2.3-5.2,5.2-5.2
		h88.7C96.9,0.1,99.3,2.5,99.3,5.3z"/>
</g>
<g id="Calque_1">
	<g id="XMLID_16_">
		<path id="XMLID_60_" class="st1" d="M48,41c0,0-4.5,9.5-12.1,19.6c-8.2,10.8-12.5,16.9-12.5,25c0,6.8,5.4,11.3,10.4,11.3
			c5.1,0,8.5-1.9,10.2-8.5c0.7-2.7,2.2-2.2,1.8,0.8c-0.5,3.5-0.5,11.1-6.1,17.9h16.6c-5.6-6.8-5.7-14.4-6.1-17.9
			c-0.4-3,1.1-3.5,1.8-0.8c1.7,6.7,5.1,8.5,10.2,8.5c5,0,10.4-4.4,10.4-11.3c0-8.1-4.3-14.2-12.5-25C52.4,50.5,48,41,48,41z"/>
		<g id="XMLID_36_">
			<g id="XMLID_37_">
				<g id="XMLID_38_">
					<g id="XMLID_40_">
						<g id="XMLID_42_">
							<g id="XMLID_55_">
								<g id="XMLID_56_">
									<path id="XMLID_57_" class="st1" d="M11.1,10.5l1.5,7.6H9.6L11.1,10.5L11.1,10.5z M5.3,24.5l4.8,0v-1.9H8.7L9.2,20H13
										l0.5,2.6h-1.3v1.9h4.7v-1.9h-1.2L12.3,7.1H9.9L6.5,22.5H5.3V24.5L5.3,24.5z"/>
								</g>
							</g>
							<g id="XMLID_48_">
								<g id="XMLID_51_">
									<path id="XMLID_52_" class="st1" d="M88.3,141.1l-1.5-7.6h3.1L88.3,141.1L88.3,141.1z M94.1,127.1l-4.8,0v1.9h1.5l-0.5,2.6
										h-3.8l-0.5-2.6h1.3v-1.9h-4.7v1.9h1.2l3.4,15.5h2.3l3.4-15.4h1.2V127.1L94.1,127.1z"/>
								</g>
							</g>
						</g>
					</g>
				</g>
			</g>
		</g>
		<path id="XMLID_20_" class="st2" d="M9.7,40.1c0.9-0.9,1.1-2.7,1.1-3.1c0-0.4-0.1-0.5-0.1-0.5c-0.1,0-0.2,0.1-0.2,0.3
			c-0.2,1-0.9,1.4-1.3,1.5c-1.6,0.3-2.2-0.8-2.3-1.1c-0.8-1.6,1-4,1.4-4.3c1.8-2.1,3-4.4,3-4.4s1.2,2.3,3,4.4
			c0.3,0.4,2.2,2.8,1.4,4.3c-0.2,0.3-0.7,1.3-2.3,1.1c-0.4-0.1-1.1-0.5-1.3-1.5c0-0.2-0.1-0.3-0.2-0.3c-0.1,0-0.2,0.1-0.1,0.5
			c0,0.4,0.2,2.2,1.1,3.1H9.7z"/>
		<path id="XMLID_18_" class="st2" d="M89.7,111.6c-0.9,0.9-1.1,2.7-1.1,3.1c-0.1,0.4,0.1,0.5,0.1,0.5c0.1,0,0.2-0.1,0.2-0.3
			c0.2-1,0.9-1.4,1.3-1.5c1.6-0.3,2.2,0.8,2.3,1.1c0.8,1.6-1,4-1.4,4.3c-1.8,2.1-3,4.4-3,4.4s-1.2-2.3-3-4.4
			c-0.3-0.4-2.2-2.8-1.4-4.3c0.2-0.3,0.7-1.3,2.3-1.1c0.4,0.1,1.1,0.5,1.3,1.5c0,0.2,0.1,0.3,0.2,0.3c0.1,0,0.2-0.1,0.1-0.5
			c0-0.4-0.2-2.2-1.1-3.1H89.7z"/>
	</g>
</g>
</svg>
