<?xml version="1.0" encoding="utf-8"?>
<!-- Generator: Adobe Illustrator 19.0.0, SVG Export Plug-In . SVG Version: 6.00 Build 0)  -->
<svg version="1.1" xmlns="http://www.w3.org/2000/svg" xmlns:xlink="http://www.w3.org/1999/xlink" x="0px" y="0px"
	 viewBox="0 0 99.4 151.6" style="enable-background:new 0 0 99.4 151.6;" xml:space="preserve">
<style type="text/css">
	.st0{fill:#FFFFFF;stroke:#000000;stroke-width:0.25;stroke-miterlimit:2.6131;}
	.st1{fill-rule:evenodd;clip-rule:evenodd;fill:#231F20;}
	.st2{fill:#231F20;}
</style>
<g id="Calque_2">
	<path id="XMLID_15_" class="st0" d="M99.3,5.3v140.9c0,2.9-2.3,5.2-5.2,5.2H5.3c-2.9,0-5.2-2.3-5.2-5.2V5.3c0-2.9,2.3-5.2,5.2-5.2
		h88.7C96.9,0.1,99.3,2.5,99.3,5.3z"/>
</g>
<g id="Calque_1">
	<g id="XMLID_14_">
		<path id="XMLID_28_" class="st1" d="M49.7,16c0,0-1.9,3.9-5,8.1c-3.4,4.5-5.2,7-5.2,10.3c0,2.8,2.2,4.7,4.3,4.7
			c2.1,0,3.5-0.8,4.2-3.5c0.3-1.1,0.9-0.9,0.8,0.3c-0.2,1.4-0.2,4.6-2.5,7.4h6.9c-2.3-2.8-2.3-6-2.5-7.4c-0.2-1.2,0.5-1.4,0.8-0.3
			c0.7,2.8,2.1,3.5,4.2,3.5c2.1,0,4.3-1.8,4.3-4.7c0-3.3-1.8-5.9-5.2-10.3C51.6,19.9,49.7,16,49.7,16z"/>
		<path id="XMLID_27_" class="st1" d="M49.7,135.6c0,0,1.9-3.9,5-8.1c3.4-4.5,5.2-7,5.2-10.3c0-2.8-2.2-4.7-4.3-4.7
			c-2.1,0-3.5,0.8-4.2,3.5c-0.3,1.1-0.9,0.9-0.8-0.3c0.2-1.4,0.2-4.6,2.5-7.4h-6.9c2.3,2.8,2.3,6,2.5,7.4c0.2,1.2-0.5,1.4-0.8,0.3
			c-0.7-2.8-2.1-3.5-4.2-3.5c-2.1,0-4.3,1.8-4.3,4.7c0,3.3,1.8,5.9,5.2,10.3C47.8,131.7,49.7,135.6,49.7,135.6z"/>
		<g id="XMLID_43_">
			<g id="XMLID_44_">
				<g id="XMLID_45_">
					<g id="XMLID_49_">
						<g id="XMLID_50_">
							<path id="XMLID_26_" class="st2" d="M93.6,138.9c0,0,0.9,2.2-0.6,4c-0.4,0.5-2.4,2.5-6.1,1.1c-0.9-0.4-3.4-1.9-2.5-5.1
								c0.1-0.5,0-2.1,3.4-4.4c0.6-0.4,3.1-2.2,4-5.5h-5.5v2.4h-2v-4.3h9.8c0,0,0.3,3.4-2.8,6.9c-0.3,0.3-2.2,2.2-3.2,2.8
								c-0.6,0.4-2.1,1.4-1.8,3.5c0.1,0.4,0.3,1.7,2.1,2c0.7,0.1,2.2,0.3,3.1-1c0.2-0.2,0.5-1,0.4-1.9L93.6,138.9z"/>
						</g>
					</g>
					<g id="XMLID_46_">
						<g id="XMLID_47_">
							<path id="XMLID_25_" class="st2" d="M5.8,12.7c0,0-0.9-2.2,0.6-4c0.4-0.5,2.4-2.5,6.1-1.1c0.9,0.4,3.4,1.9,2.5,5.1
								c-0.1,0.5,0,2.1-3.4,4.4c-0.6,0.4-3.1,2.2-4,5.4h5.5v-2.4h2v4.3H5.3c0,0-0.3-3.4,2.8-6.9c0.3-0.3,2.2-2.2,3.2-2.8
								c0.6-0.4,2.1-1.4,1.8-3.5c-0.1-0.4-0.3-1.7-2.1-2c-0.7-0.1-2.2-0.3-3.1,1c-0.1,0.2-0.5,1-0.4,1.9L5.8,12.7z"/>
						</g>
					</g>
				</g>
			</g>
		</g>
		<g id="XMLID_41_">
			<path id="XMLID_24_" class="st2" d="M8.9,40.1c0.9-0.9,1.1-2.7,1.1-3.1c0-0.4-0.1-0.5-0.1-0.5c-0.1,0-0.2,0.1-0.2,0.3
				c-0.2,1-0.9,1.4-1.3,1.5c-1.6,0.3-2.2-0.8-2.3-1.1c-0.8-1.6,1-4,1.4-4.3c1.8-2.1,3-4.4,3-4.4s1.2,2.3,3,4.4
				c0.3,0.4,2.2,2.8,1.4,4.3c-0.2,0.3-0.7,1.3-2.3,1.1c-0.3-0.1-1.1-0.5-1.3-1.5c0-0.2-0.1-0.3-0.2-0.3c-0.1,0-0.2,0.1-0.1,0.5
				c0,0.4,0.2,2.2,1.1,3.1H8.9z"/>
		</g>
		<g id="XMLID_39_">
			<path id="XMLID_23_" class="st2" d="M90.5,111.6c-0.9,0.9-1.1,2.7-1.1,3.1c-0.1,0.4,0.1,0.5,0.1,0.5c0.1,0,0.2-0.1,0.2-0.3
				c0.2-1,0.9-1.4,1.3-1.5c1.6-0.3,2.2,0.8,2.3,1.1c0.8,1.6-1,4-1.3,4.3c-1.8,2.1-3,4.4-3,4.4s-1.2-2.3-3-4.4
				c-0.3-0.4-2.2-2.8-1.4-4.3c0.2-0.3,0.7-1.3,2.3-1.1c0.4,0.1,1.1,0.5,1.3,1.5c0,0.2,0.1,0.3,0.2,0.3c0.1,0,0.2-0.1,0.1-0.5
				c-0.1-0.4-0.2-2.2-1.1-3.1H90.5z"/>
		</g>
	</g>
</g>
</svg>
