<?xml version="1.0" encoding="utf-8"?>
<!-- Generator: Adobe Illustrator 19.0.0, SVG Export Plug-In . SVG Version: 6.00 Build 0)  -->
<svg version="1.1" xmlns="http://www.w3.org/2000/svg" xmlns:xlink="http://www.w3.org/1999/xlink" x="0px" y="0px"
	 viewBox="0 0 99.4 151.6" style="enable-background:new 0 0 99.4 151.6;" xml:space="preserve">
<style type="text/css">
	.st0{fill:#FFFFFF;stroke:#000000;stroke-width:0.25;stroke-miterlimit:2.6131;}
	.st1{fill-rule:evenodd;clip-rule:evenodd;fill:#231F20;}
	.st2{fill:#231F20;}
</style>
<g id="Calque_2">
	<path id="XMLID_15_" class="st0" d="M99.3,5.3v140.9c0,2.9-2.3,5.2-5.2,5.2H5.3c-2.9,0-5.2-2.3-5.2-5.2V5.3c0-2.9,2.3-5.2,5.2-5.2
		h88.7C96.9,0.1,99.3,2.5,99.3,5.3z"/>
</g>
<g id="Calque_1">
	<g id="XMLID_28_">
		<g id="XMLID_50_">
			<g id="XMLID_61_">
				<path id="XMLID_64_" class="st1" d="M49.7,16c0,0-1.9,3.9-5,8.1c-3.4,4.5-5.2,7-5.2,10.3c0,2.8,2.2,4.7,4.3,4.7
					c2.1,0,3.5-0.8,4.2-3.5c0.3-1.1,0.9-0.9,0.8,0.3c-0.2,1.4-0.2,4.6-2.5,7.4h6.9c-2.3-2.8-2.3-6-2.5-7.4c-0.2-1.2,0.5-1.4,0.8-0.3
					c0.7,2.8,2.1,3.5,4.2,3.5c2.1,0,4.3-1.8,4.3-4.7c0-3.3-1.8-5.9-5.2-10.3C51.6,19.9,49.7,16,49.7,16z"/>
				<path id="XMLID_63_" class="st1" d="M49.7,62.1c0,0-1.9,3.9-5,8.1c-3.4,4.5-5.2,7-5.2,10.3c0,2.8,2.2,4.7,4.3,4.7
					c2.1,0,3.5-0.8,4.2-3.5c0.3-1.1,0.9-0.9,0.8,0.3c-0.2,1.4-0.2,4.6-2.5,7.4h6.9c-2.3-2.8-2.3-6-2.5-7.4c-0.2-1.2,0.5-1.4,0.8-0.3
					c0.7,2.8,2.1,3.5,4.2,3.5c2.1,0,4.3-1.8,4.3-4.7c0-3.3-1.8-5.9-5.2-10.3C51.6,66.1,49.7,62.1,49.7,62.1z"/>
				<path id="XMLID_62_" class="st1" d="M49.7,135.6c0,0,1.9-3.9,5-8.1c3.4-4.5,5.2-7,5.2-10.3c0-2.8-2.2-4.7-4.3-4.7
					c-2.1,0-3.5,0.8-4.2,3.5c-0.3,1.1-0.9,0.9-0.8-0.3c0.2-1.4,0.2-4.6,2.5-7.4h-6.8c2.3,2.8,2.3,6,2.5,7.4c0.2,1.2-0.5,1.4-0.8,0.3
					c-0.7-2.8-2.1-3.5-4.2-3.5c-2.1,0-4.3,1.8-4.3,4.7c0,3.3,1.8,5.9,5.2,10.3C47.9,131.7,49.7,135.6,49.7,135.6z"/>
			</g>
		</g>
		<g id="XMLID_34_">
			<g id="XMLID_35_">
				<g id="XMLID_39_">
					<g id="XMLID_41_">
						<g id="XMLID_46_">
							<g id="XMLID_47_">
								<path id="XMLID_49_" class="st2" d="M5.9,7.1h9.9v2l-3.7,3.5c0,0,4.3,0.1,4.5,5.6c0.1,1.2-0.6,5.7-5.3,6.3
									c-0.7,0.1-4.3,0.2-6-4.1l1.8-0.8c0,0,1,2.7,3.2,2.8c0.7,0,3.8,0.2,4.2-3.5c0.1-0.9,0-3.5-2.1-4.3c-0.7-0.3-1.8-0.5-3.5,0.8
									l-1.1-1.3L13,8.9H7.8v2.5H5.9V7.1z"/>
							</g>
						</g>
						<g id="XMLID_43_">
							<g id="XMLID_44_">
								<path id="XMLID_45_" class="st2" d="M93.5,144.5h-9.9v-2l3.7-3.5c0,0-4.3-0.1-4.5-5.6c-0.1-1.2,0.6-5.7,5.3-6.3
									c0.7-0.1,4.3-0.2,6,4l-1.8,0.8c0,0-1-2.7-3.2-2.8c-0.7,0-3.8-0.2-4.2,3.5c-0.1,0.9,0,3.5,2.1,4.3c0.7,0.3,1.8,0.5,3.5-0.8
									l1.1,1.3l-5.2,5.2h5.3v-2.5h1.9V144.5z"/>
							</g>
						</g>
					</g>
				</g>
			</g>
		</g>
		<g id="XMLID_29_">
			<g id="XMLID_32_">
				<path id="XMLID_33_" class="st2" d="M8.9,40.1c0.9-0.9,1.1-2.7,1.1-3.1c0-0.4-0.1-0.5-0.1-0.5c-0.1,0-0.2,0.1-0.2,0.3
					c-0.2,1-0.9,1.4-1.3,1.5c-1.6,0.3-2.2-0.8-2.3-1.1c-0.8-1.6,1-4,1.4-4.3c1.8-2.1,3-4.4,3-4.4s1.2,2.3,3,4.4
					c0.3,0.4,2.2,2.8,1.4,4.3c-0.2,0.3-0.7,1.3-2.3,1.1c-0.3-0.1-1.1-0.5-1.3-1.5c0-0.2-0.1-0.3-0.2-0.3c-0.1,0-0.2,0.1-0.1,0.5
					c0,0.4,0.2,2.2,1.1,3.1H8.9z"/>
			</g>
			<g id="XMLID_30_">
				<path id="XMLID_31_" class="st2" d="M90.5,111.6c-0.9,0.9-1.1,2.7-1.1,3.1c-0.1,0.4,0.1,0.5,0.2,0.5c0.1,0,0.2-0.1,0.2-0.3
					c0.2-1,0.9-1.4,1.3-1.5c1.6-0.3,2.2,0.8,2.3,1.1c0.8,1.6-1,4-1.3,4.3c-1.8,2.1-3,4.4-3,4.4s-1.2-2.3-3-4.4
					c-0.3-0.4-2.2-2.8-1.3-4.3c0.1-0.3,0.7-1.3,2.3-1.1c0.4,0.1,1.1,0.5,1.3,1.5c0,0.2,0.1,0.3,0.2,0.3c0.1,0,0.2-0.1,0.1-0.5
					c0-0.4-0.2-2.2-1.1-3.1H90.5z"/>
			</g>
		</g>
	</g>
</g>
</svg>
