<?xml version="1.0" encoding="utf-8"?>
<!-- Generator: Adobe Illustrator 19.0.0, SVG Export Plug-In . SVG Version: 6.00 Build 0)  -->
<svg version="1.1" xmlns="http://www.w3.org/2000/svg" xmlns:xlink="http://www.w3.org/1999/xlink" x="0px" y="0px"
	 viewBox="0 0 99.4 151.6" style="enable-background:new 0 0 99.4 151.6;" xml:space="preserve">
<style type="text/css">
	.st0{fill:#FFFFFF;stroke:#000000;stroke-width:0.25;stroke-miterlimit:2.6131;}
	.st1{fill-rule:evenodd;clip-rule:evenodd;fill:#231F20;}
	.st2{fill:#231F20;}
</style>
<g id="Calque_2">
	<path id="XMLID_15_" class="st0" d="M99.3,5.3v140.9c0,2.9-2.3,5.2-5.2,5.2H5.3c-2.9,0-5.2-2.3-5.2-5.2V5.3c0-2.9,2.3-5.2,5.2-5.2
		h88.7C96.9,0.1,99.3,2.5,99.3,5.3z"/>
</g>
<g id="Calque_1">
	<g>
		<g>
			<g>
				<path id="XMLID_31_" class="st1" d="M27.6,16c0,0-1.9,3.9-5,8.1c-3.4,4.5-5.2,7-5.2,10.3c0,2.8,2.2,4.7,4.3,4.7
					c2.1,0,3.5-0.8,4.2-3.5c0.3-1.1,0.9-0.9,0.8,0.3c-0.2,1.4-0.2,4.6-2.5,7.4H31c-2.3-2.8-2.3-6-2.5-7.4c-0.2-1.2,0.5-1.4,0.8-0.3
					c0.7,2.8,2.1,3.5,4.2,3.5c2.1,0,4.3-1.8,4.3-4.7c0-3.3-1.8-5.9-5.2-10.3C29.5,19.9,27.6,16,27.6,16z"/>
				<path id="XMLID_30_" class="st1" d="M71.8,16c0,0-1.9,3.9-5,8.1c-3.4,4.5-5.2,7-5.2,10.3c0,2.8,2.2,4.7,4.3,4.7
					c2.1,0,3.5-0.8,4.2-3.5c0.3-1.1,0.9-0.9,0.8,0.3c-0.2,1.4-0.2,4.6-2.5,7.4h6.9c-2.3-2.8-2.3-6-2.5-7.4c-0.2-1.2,0.5-1.4,0.8-0.3
					c0.7,2.8,2.1,3.5,4.2,3.5c2.1,0,4.3-1.8,4.3-4.7c0-3.3-1.8-5.9-5.2-10.3C73.7,19.9,71.8,16,71.8,16z"/>
			</g>
			<g>
				<path id="XMLID_29_" class="st1" d="M27.6,46.7c0,0-1.9,3.9-5,8.1c-3.4,4.5-5.2,7-5.2,10.3c0,2.8,2.2,4.7,4.3,4.7
					c2.1,0,3.5-0.8,4.2-3.5c0.3-1.1,0.9-0.9,0.8,0.3c-0.2,1.4-0.2,4.6-2.5,7.4H31c-2.3-2.8-2.3-6-2.5-7.4c-0.2-1.2,0.5-1.4,0.8-0.3
					c0.7,2.8,2.1,3.5,4.2,3.5c2.1,0,4.3-1.8,4.3-4.7c0-3.3-1.8-5.9-5.2-10.3C29.5,50.7,27.6,46.7,27.6,46.7z"/>
				<path id="XMLID_28_" class="st1" d="M71.8,46.7c0,0-1.9,3.9-5,8.1c-3.4,4.5-5.2,7-5.2,10.3c0,2.8,2.2,4.7,4.3,4.7
					c2.1,0,3.5-0.8,4.2-3.5c0.3-1.1,0.9-0.9,0.8,0.3c-0.2,1.4-0.2,4.6-2.5,7.4h6.9c-2.3-2.8-2.3-6-2.5-7.4c-0.2-1.2,0.5-1.4,0.8-0.3
					c0.7,2.8,2.1,3.5,4.2,3.5c2.1,0,4.3-1.8,4.3-4.7c0-3.3-1.8-5.9-5.2-10.3C73.7,50.7,71.8,46.7,71.8,46.7z"/>
			</g>
			<g>
				<path id="XMLID_27_" class="st1" d="M71.8,135.6c0,0,1.9-3.9,5-8.1c3.4-4.5,5.2-7,5.2-10.3c0-2.8-2.2-4.7-4.3-4.7
					c-2.1,0-3.5,0.8-4.2,3.5c-0.3,1.1-0.9,0.9-0.8-0.3c0.2-1.4,0.2-4.6,2.5-7.4h-6.9c2.3,2.8,2.3,6,2.5,7.4c0.2,1.2-0.5,1.4-0.8,0.3
					c-0.7-2.8-2.1-3.5-4.2-3.5c-2.1,0-4.3,1.8-4.3,4.7c0,3.3,1.8,5.9,5.2,10.3C69.9,131.7,71.8,135.6,71.8,135.6z"/>
				<path id="XMLID_26_" class="st1" d="M27.6,135.6c0,0,1.9-3.9,5-8.1c3.4-4.5,5.2-7,5.2-10.3c0-2.8-2.2-4.7-4.3-4.7
					c-2.1,0-3.5,0.8-4.2,3.5c-0.3,1.1-0.9,0.9-0.8-0.3c0.2-1.4,0.2-4.6,2.5-7.4h-6.9c2.3,2.8,2.3,6,2.5,7.4c0.2,1.2-0.5,1.4-0.8,0.3
					c-0.7-2.8-2.1-3.5-4.2-3.5c-2.1,0-4.3,1.8-4.3,4.7c0,3.3,1.8,5.9,5.2,10.3C25.8,131.7,27.6,135.6,27.6,135.6z"/>
			</g>
			<g>
				<path id="XMLID_25_" class="st1" d="M71.8,104.9c0,0,1.9-3.9,5-8.1c3.4-4.5,5.2-7,5.2-10.3c0-2.8-2.2-4.7-4.3-4.7
					c-2.1,0-3.5,0.8-4.2,3.5c-0.3,1.1-0.9,0.9-0.8-0.3c0.2-1.4,0.2-4.6,2.5-7.4h-6.9c2.3,2.8,2.3,6,2.5,7.4c0.2,1.2-0.5,1.4-0.8,0.3
					c-0.7-2.8-2.1-3.5-4.2-3.5c-2.1,0-4.3,1.8-4.3,4.7c0,3.3,1.8,5.9,5.2,10.3C69.9,100.9,71.8,104.9,71.8,104.9z"/>
				<path id="XMLID_24_" class="st1" d="M27.6,104.9c0,0,1.9-3.9,5-8.1c3.4-4.5,5.2-7,5.2-10.3c0-2.8-2.2-4.7-4.3-4.7
					c-2.1,0-3.5,0.8-4.2,3.5c-0.3,1.1-0.9,0.9-0.8-0.3c0.2-1.4,0.2-4.6,2.5-7.4h-6.9c2.3,2.8,2.3,6,2.5,7.4c0.2,1.2-0.5,1.4-0.8,0.3
					c-0.7-2.8-2.1-3.5-4.2-3.5c-2.1,0-4.3,1.8-4.3,4.7c0,3.3,1.8,5.9,5.2,10.3C25.8,100.9,27.6,104.9,27.6,104.9z"/>
			</g>
		</g>
		<g>
			<path id="XMLID_23_" class="st1" d="M49.7,31.4c0,0-1.9,3.9-5,8.1c-3.4,4.5-5.2,7-5.2,10.3c0,2.8,2.2,4.7,4.3,4.7
				c2.1,0,3.5-0.8,4.2-3.5c0.3-1.1,0.9-0.9,0.8,0.3c-0.2,1.4-0.2,4.6-2.5,7.4h6.9c-2.3-2.8-2.3-6-2.5-7.4c-0.2-1.2,0.5-1.4,0.8-0.3
				c0.7,2.8,2.1,3.5,4.2,3.5c2.1,0,4.3-1.8,4.3-4.7c0-3.3-1.8-5.9-5.2-10.3C51.6,35.3,49.7,31.4,49.7,31.4z"/>
			<path id="XMLID_22_" class="st1" d="M49.7,120.2c0,0,1.9-3.9,5-8.1c3.4-4.5,5.2-7,5.2-10.3c0-2.8-2.2-4.7-4.3-4.7
				c-2.1,0-3.5,0.8-4.2,3.5c-0.3,1.1-0.9,0.9-0.8-0.3c0.2-1.4,0.2-4.6,2.5-7.4h-6.9c2.3,2.8,2.3,6,2.5,7.4c0.2,1.2-0.5,1.4-0.8,0.3
				c-0.7-2.8-2.1-3.5-4.2-3.5c-2.1,0-4.3,1.8-4.3,4.7c0,3.3,1.8,5.9,5.2,10.3C47.9,116.3,49.7,120.2,49.7,120.2z"/>
		</g>
	</g>
	<g>
		<g>
			<g>
				<g>
					<path class="st1" d="M12.3,9.1c0.8,0,1.3,0.8,1.3,1.5v10.7c0,0.4-0.5,1.3-1.3,1.3c-0.8,0-1.4-0.6-1.4-1.2v-11
						C10.9,10.4,10.9,9.1,12.3,9.1L12.3,9.1z M12.3,7.1C9.4,7.1,8.9,10,8.9,10v11.5c0.1,0.9,0.9,2.9,3.5,2.9c2.5,0,3.2-2.4,3.2-3
						v-11C15.6,8.7,14.2,7.1,12.3,7.1L12.3,7.1L12.3,7.1z M5.3,7.3L5.3,7.3h1.8v17.2H5.3V7.3z"/>
				</g>
				<g>
					<g>
						<path id="XMLID_18_" class="st2" d="M90.4,111.6c-0.9,0.9-1,2.7-1.1,3.1c0,0.4,0.1,0.5,0.1,0.5c0.1,0,0.2-0.1,0.2-0.3
							c0.2-1,0.9-1.4,1.3-1.5c1.6-0.3,2.2,0.8,2.3,1.1c0.8,1.6-1,4-1.3,4.3c-1.7,2.1-3,4.4-3,4.4s-1.2-2.3-3-4.4
							c-0.3-0.4-2.2-2.8-1.3-4.3c0.2-0.3,0.7-1.3,2.3-1.1c0.3,0.1,1.1,0.5,1.3,1.5c0,0.2,0.1,0.3,0.2,0.3c0.1,0,0.2-0.1,0.1-0.5
							c0-0.4-0.2-2.2-1.1-3.1H90.4z"/>
					</g>
					<path class="st1" d="M87.1,142.5c-0.8,0-1.3-0.8-1.3-1.5v-10.7c0-0.4,0.5-1.3,1.3-1.3c0.8,0,1.4,0.6,1.4,1.2v11
						C88.5,141.2,88.5,142.5,87.1,142.5L87.1,142.5z M87.1,144.5c2.9,0,3.3-2.9,3.3-2.9v-11.5c-0.1-0.9-0.9-2.9-3.5-2.9
						c-2.5,0-3.2,2.4-3.2,3v11C83.8,142.9,85.3,144.5,87.1,144.5L87.1,144.5L87.1,144.5z M94.1,144.3L94.1,144.3h-1.8v-17.2h1.8
						V144.3z"/>
				</g>
			</g>
		</g>
	</g>
</g>
</svg>
